%TF.GenerationSoftware,KiCad,Pcbnew,7.0.2-0*%
%TF.CreationDate,2025-01-08T12:57:52-05:00*%
%TF.ProjectId,plaqchek_power,706c6171-6368-4656-9b5f-706f7765722e,rev?*%
%TF.SameCoordinates,Original*%
%TF.FileFunction,Soldermask,Top*%
%TF.FilePolarity,Negative*%
%FSLAX46Y46*%
G04 Gerber Fmt 4.6, Leading zero omitted, Abs format (unit mm)*
G04 Created by KiCad (PCBNEW 7.0.2-0) date 2025-01-08 12:57:52*
%MOMM*%
%LPD*%
G01*
G04 APERTURE LIST*
G04 Aperture macros list*
%AMRoundRect*
0 Rectangle with rounded corners*
0 $1 Rounding radius*
0 $2 $3 $4 $5 $6 $7 $8 $9 X,Y pos of 4 corners*
0 Add a 4 corners polygon primitive as box body*
4,1,4,$2,$3,$4,$5,$6,$7,$8,$9,$2,$3,0*
0 Add four circle primitives for the rounded corners*
1,1,$1+$1,$2,$3*
1,1,$1+$1,$4,$5*
1,1,$1+$1,$6,$7*
1,1,$1+$1,$8,$9*
0 Add four rect primitives between the rounded corners*
20,1,$1+$1,$2,$3,$4,$5,0*
20,1,$1+$1,$4,$5,$6,$7,0*
20,1,$1+$1,$6,$7,$8,$9,0*
20,1,$1+$1,$8,$9,$2,$3,0*%
G04 Aperture macros list end*
%ADD10R,3.500000X3.500000*%
%ADD11RoundRect,0.750000X-1.000000X0.750000X-1.000000X-0.750000X1.000000X-0.750000X1.000000X0.750000X0*%
%ADD12RoundRect,0.875000X-0.875000X0.875000X-0.875000X-0.875000X0.875000X-0.875000X0.875000X0.875000X0*%
%ADD13R,1.700000X1.700000*%
%ADD14O,1.700000X1.700000*%
%ADD15C,1.000000*%
%ADD16RoundRect,0.237500X0.300000X0.237500X-0.300000X0.237500X-0.300000X-0.237500X0.300000X-0.237500X0*%
%ADD17RoundRect,0.250000X-0.475000X0.337500X-0.475000X-0.337500X0.475000X-0.337500X0.475000X0.337500X0*%
%ADD18RoundRect,0.237500X0.250000X0.237500X-0.250000X0.237500X-0.250000X-0.237500X0.250000X-0.237500X0*%
%ADD19RoundRect,0.237500X-0.237500X0.250000X-0.237500X-0.250000X0.237500X-0.250000X0.237500X0.250000X0*%
%ADD20C,6.400000*%
%ADD21RoundRect,0.237500X0.237500X-0.250000X0.237500X0.250000X-0.237500X0.250000X-0.237500X-0.250000X0*%
%ADD22RoundRect,0.250000X-0.450000X0.325000X-0.450000X-0.325000X0.450000X-0.325000X0.450000X0.325000X0*%
%ADD23RoundRect,0.237500X-0.250000X-0.237500X0.250000X-0.237500X0.250000X0.237500X-0.250000X0.237500X0*%
%ADD24RoundRect,0.250000X0.337500X0.475000X-0.337500X0.475000X-0.337500X-0.475000X0.337500X-0.475000X0*%
%ADD25RoundRect,0.237500X-0.237500X0.300000X-0.237500X-0.300000X0.237500X-0.300000X0.237500X0.300000X0*%
%ADD26RoundRect,0.237500X0.237500X-0.300000X0.237500X0.300000X-0.237500X0.300000X-0.237500X-0.300000X0*%
%ADD27RoundRect,0.237500X-0.300000X-0.237500X0.300000X-0.237500X0.300000X0.237500X-0.300000X0.237500X0*%
%ADD28RoundRect,0.250001X-0.849999X0.462499X-0.849999X-0.462499X0.849999X-0.462499X0.849999X0.462499X0*%
%ADD29RoundRect,0.225000X-0.225000X-0.375000X0.225000X-0.375000X0.225000X0.375000X-0.225000X0.375000X0*%
%ADD30R,1.300000X3.400000*%
%ADD31R,3.200000X1.000000*%
%ADD32RoundRect,0.062500X0.062500X-0.355000X0.062500X0.355000X-0.062500X0.355000X-0.062500X-0.355000X0*%
%ADD33RoundRect,0.062500X0.355000X-0.062500X0.355000X0.062500X-0.355000X0.062500X-0.355000X-0.062500X0*%
%ADD34R,1.680000X1.680000*%
%ADD35RoundRect,0.250000X-0.412500X-0.650000X0.412500X-0.650000X0.412500X0.650000X-0.412500X0.650000X0*%
%ADD36R,0.450000X1.050000*%
%ADD37R,5.000000X3.400000*%
%ADD38RoundRect,0.250000X-0.325000X-0.450000X0.325000X-0.450000X0.325000X0.450000X-0.325000X0.450000X0*%
%ADD39RoundRect,0.250000X0.450000X-0.325000X0.450000X0.325000X-0.450000X0.325000X-0.450000X-0.325000X0*%
%ADD40RoundRect,0.250001X0.462499X1.074999X-0.462499X1.074999X-0.462499X-1.074999X0.462499X-1.074999X0*%
%ADD41R,0.250000X0.500000*%
%ADD42R,2.400000X0.840000*%
%ADD43RoundRect,0.150000X-0.512500X-0.150000X0.512500X-0.150000X0.512500X0.150000X-0.512500X0.150000X0*%
%ADD44RoundRect,0.250000X0.475000X-0.337500X0.475000X0.337500X-0.475000X0.337500X-0.475000X-0.337500X0*%
%ADD45RoundRect,0.250000X-0.337500X-0.475000X0.337500X-0.475000X0.337500X0.475000X-0.337500X0.475000X0*%
G04 APERTURE END LIST*
D10*
%TO.C,J3*%
X154275000Y-64300000D03*
D11*
X154275000Y-58300000D03*
D12*
X149575000Y-61300000D03*
%TD*%
D13*
%TO.C,J1*%
X136275000Y-122300000D03*
D14*
X138815000Y-122300000D03*
X141355000Y-122300000D03*
X143895000Y-122300000D03*
X146435000Y-122300000D03*
%TD*%
D15*
%TO.C,TP10*%
X158925000Y-79800000D03*
%TD*%
D16*
%TO.C,C5*%
X144612500Y-105075000D03*
X142887500Y-105075000D03*
%TD*%
D17*
%TO.C,C35*%
X133775000Y-80300000D03*
X133775000Y-82375000D03*
%TD*%
D15*
%TO.C,TP8*%
X128620000Y-116035837D03*
%TD*%
D18*
%TO.C,R27*%
X132925000Y-100825000D03*
X131100000Y-100825000D03*
%TD*%
D19*
%TO.C,R22*%
X146034321Y-78851000D03*
X146034321Y-80676000D03*
%TD*%
D15*
%TO.C,TP7*%
X129000000Y-112675000D03*
%TD*%
D16*
%TO.C,C26*%
X160903000Y-98986000D03*
X159178000Y-98986000D03*
%TD*%
D15*
%TO.C,TP5*%
X141721000Y-68168000D03*
%TD*%
D20*
%TO.C,H2*%
X126275000Y-120800000D03*
%TD*%
D16*
%TO.C,C7*%
X134312500Y-111775000D03*
X132587500Y-111775000D03*
%TD*%
D19*
%TO.C,R7*%
X141625000Y-113025000D03*
X141625000Y-114850000D03*
%TD*%
%TO.C,R16*%
X127525000Y-80550000D03*
X127525000Y-82375000D03*
%TD*%
D15*
%TO.C,TP14*%
X124875000Y-111050000D03*
%TD*%
D17*
%TO.C,C9*%
X136275000Y-80225000D03*
X136275000Y-82300000D03*
%TD*%
D15*
%TO.C,TP9*%
X145075000Y-64850000D03*
%TD*%
D19*
%TO.C,R19*%
X127775000Y-86387500D03*
X127775000Y-88212500D03*
%TD*%
D16*
%TO.C,C30*%
X164387500Y-113150000D03*
X162662500Y-113150000D03*
%TD*%
D20*
%TO.C,H4*%
X168275000Y-120800000D03*
%TD*%
D18*
%TO.C,R3*%
X144575000Y-108675000D03*
X142750000Y-108675000D03*
%TD*%
D21*
%TO.C,R10*%
X156150000Y-75425000D03*
X156150000Y-73600000D03*
%TD*%
D22*
%TO.C,D4*%
X167025000Y-82100000D03*
X167025000Y-84150000D03*
%TD*%
D23*
%TO.C,R17*%
X165062500Y-99550000D03*
X166887500Y-99550000D03*
%TD*%
D21*
%TO.C,R29*%
X131775000Y-61212500D03*
X131775000Y-59387500D03*
%TD*%
D15*
%TO.C,TP6*%
X137149000Y-67985837D03*
%TD*%
D24*
%TO.C,C23*%
X160903000Y-96446000D03*
X158828000Y-96446000D03*
%TD*%
D15*
%TO.C,TP16*%
X142775000Y-60900000D03*
%TD*%
D21*
%TO.C,R21*%
X130275000Y-74037500D03*
X130275000Y-72212500D03*
%TD*%
D18*
%TO.C,R35*%
X126075000Y-116300000D03*
X124250000Y-116300000D03*
%TD*%
D25*
%TO.C,C2*%
X140860000Y-101345837D03*
X140860000Y-103070837D03*
%TD*%
D26*
%TO.C,C27*%
X145996501Y-76636191D03*
X145996501Y-74911191D03*
%TD*%
D21*
%TO.C,R9*%
X142650000Y-103115837D03*
X142650000Y-101290837D03*
%TD*%
D27*
%TO.C,C29*%
X151925000Y-72600000D03*
X153650000Y-72600000D03*
%TD*%
D21*
%TO.C,R6*%
X139005000Y-103093337D03*
X139005000Y-101268337D03*
%TD*%
D19*
%TO.C,R30*%
X128025000Y-76137500D03*
X128025000Y-77962500D03*
%TD*%
D21*
%TO.C,R18*%
X162975000Y-101350000D03*
X162975000Y-99525000D03*
%TD*%
D25*
%TO.C,C4*%
X136250000Y-96600000D03*
X136250000Y-98325000D03*
%TD*%
D28*
%TO.C,L1*%
X135650000Y-101050000D03*
X135650000Y-103375000D03*
%TD*%
D25*
%TO.C,C13*%
X136015000Y-62750000D03*
X136015000Y-64475000D03*
%TD*%
D18*
%TO.C,R33*%
X168900000Y-86350000D03*
X167075000Y-86350000D03*
%TD*%
D29*
%TO.C,D1*%
X132750000Y-106175000D03*
X136050000Y-106175000D03*
%TD*%
D18*
%TO.C,R24*%
X140937500Y-82300000D03*
X139112500Y-82300000D03*
%TD*%
D23*
%TO.C,R25*%
X139030500Y-70962000D03*
X140855500Y-70962000D03*
%TD*%
D25*
%TO.C,C14*%
X139675000Y-62700000D03*
X139675000Y-64425000D03*
%TD*%
D15*
%TO.C,TP4*%
X157525000Y-86000000D03*
%TD*%
D16*
%TO.C,C10*%
X132500000Y-78300000D03*
X130775000Y-78300000D03*
%TD*%
D15*
%TO.C,TP2*%
X141025000Y-78450000D03*
%TD*%
D21*
%TO.C,R11*%
X126025000Y-88212500D03*
X126025000Y-86387500D03*
%TD*%
D15*
%TO.C,TP17*%
X138125000Y-75950000D03*
%TD*%
D30*
%TO.C,L5*%
X131275000Y-86050000D03*
X133375000Y-86050000D03*
%TD*%
D15*
%TO.C,TP15*%
X140125000Y-95250000D03*
%TD*%
D23*
%TO.C,R8*%
X140907500Y-99235837D03*
X142732500Y-99235837D03*
%TD*%
D19*
%TO.C,R23*%
X158275000Y-90725000D03*
X158275000Y-92550000D03*
%TD*%
D31*
%TO.C,L4*%
X142850000Y-75550000D03*
X142850000Y-73350000D03*
%TD*%
D32*
%TO.C,U1*%
X138485000Y-108535000D03*
X138985000Y-108535000D03*
X139485000Y-108535000D03*
X139985000Y-108535000D03*
D33*
X140692500Y-107827500D03*
X140692500Y-107327500D03*
X140692500Y-106827500D03*
X140692500Y-106327500D03*
D32*
X139985000Y-105620000D03*
X139485000Y-105620000D03*
X138985000Y-105620000D03*
X138485000Y-105620000D03*
D33*
X137777500Y-106327500D03*
X137777500Y-106827500D03*
X137777500Y-107327500D03*
X137777500Y-107827500D03*
D34*
X139235000Y-107077500D03*
%TD*%
D13*
%TO.C,J2*%
X167275000Y-70500000D03*
D14*
X167275000Y-73040000D03*
X167275000Y-75580000D03*
X167275000Y-78120000D03*
%TD*%
D21*
%TO.C,R37*%
X163625000Y-121312500D03*
X163625000Y-119487500D03*
%TD*%
D19*
%TO.C,R2*%
X146487500Y-108675000D03*
X146487500Y-110500000D03*
%TD*%
D35*
%TO.C,C37*%
X153850000Y-103800000D03*
X156975000Y-103800000D03*
%TD*%
D15*
%TO.C,TP1*%
X138375000Y-79750000D03*
%TD*%
D36*
%TO.C,U2*%
X159035000Y-109146000D03*
X159685000Y-109146000D03*
X160335000Y-109146000D03*
X160985000Y-109146000D03*
X161635000Y-109146000D03*
X162285000Y-109146000D03*
X162935000Y-109146000D03*
X163585000Y-109146000D03*
X163585000Y-103596000D03*
X162935000Y-103596000D03*
X162285000Y-103596000D03*
X161635000Y-103596000D03*
X160985000Y-103596000D03*
X160335000Y-103596000D03*
X159685000Y-103596000D03*
X159035000Y-103596000D03*
D37*
X161310000Y-106371000D03*
%TD*%
D38*
%TO.C,D3*%
X123725000Y-97800000D03*
X125775000Y-97800000D03*
%TD*%
D26*
%TO.C,C25*%
X148000000Y-76600000D03*
X148000000Y-74875000D03*
%TD*%
D35*
%TO.C,C33*%
X143301000Y-70770000D03*
X146426000Y-70770000D03*
%TD*%
D39*
%TO.C,D5*%
X161225000Y-85800000D03*
X161225000Y-83750000D03*
%TD*%
D21*
%TO.C,R20*%
X160975000Y-92450000D03*
X160975000Y-90625000D03*
%TD*%
D18*
%TO.C,R31*%
X131787500Y-67100000D03*
X129962500Y-67100000D03*
%TD*%
D38*
%TO.C,D2*%
X125275000Y-67100000D03*
X127325000Y-67100000D03*
%TD*%
D40*
%TO.C,L6*%
X157975000Y-112500000D03*
X155000000Y-112500000D03*
%TD*%
D19*
%TO.C,R13*%
X162150000Y-73600000D03*
X162150000Y-75425000D03*
%TD*%
D15*
%TO.C,TP3*%
X156825000Y-94450000D03*
%TD*%
D21*
%TO.C,R5*%
X139530000Y-112837500D03*
X139530000Y-111012500D03*
%TD*%
D15*
%TO.C,TP12*%
X169700000Y-96200000D03*
%TD*%
%TO.C,TP13*%
X166550000Y-115900000D03*
%TD*%
D20*
%TO.C,H3*%
X168275000Y-60800000D03*
%TD*%
D21*
%TO.C,R32*%
X125775000Y-101875000D03*
X125775000Y-100050000D03*
%TD*%
D41*
%TO.C,U9*%
X131275000Y-80550000D03*
X130775000Y-80550000D03*
X130275000Y-80550000D03*
X129775000Y-80550000D03*
X129275000Y-80550000D03*
X129275000Y-82450000D03*
X129775000Y-82450000D03*
X130275000Y-82450000D03*
X130775000Y-82450000D03*
X131275000Y-82450000D03*
D42*
X130275000Y-81500000D03*
%TD*%
D43*
%TO.C,U8*%
X151512500Y-74650000D03*
X151512500Y-75600000D03*
X151512500Y-76550000D03*
X153787500Y-76550000D03*
X153787500Y-75600000D03*
X153787500Y-74650000D03*
%TD*%
D16*
%TO.C,C6*%
X139602500Y-115105000D03*
X137877500Y-115105000D03*
%TD*%
%TO.C,C8*%
X134300000Y-109325000D03*
X132575000Y-109325000D03*
%TD*%
D23*
%TO.C,R28*%
X142787500Y-110950000D03*
X144612500Y-110950000D03*
%TD*%
%TO.C,R1*%
X145212500Y-112750000D03*
X147037500Y-112750000D03*
%TD*%
D16*
%TO.C,C28*%
X160903000Y-101018000D03*
X159178000Y-101018000D03*
%TD*%
D21*
%TO.C,R15*%
X125775000Y-82375000D03*
X125775000Y-80550000D03*
%TD*%
%TO.C,R36*%
X163275000Y-60875000D03*
X163275000Y-59050000D03*
%TD*%
D44*
%TO.C,C1*%
X133975000Y-98337500D03*
X133975000Y-96262500D03*
%TD*%
D25*
%TO.C,C32*%
X160150000Y-73624371D03*
X160150000Y-75349371D03*
%TD*%
D13*
%TO.C,J4*%
X155025000Y-122050000D03*
D14*
X157565000Y-122050000D03*
X160105000Y-122050000D03*
%TD*%
D18*
%TO.C,R12*%
X166900000Y-109150000D03*
X165075000Y-109150000D03*
%TD*%
D21*
%TO.C,R14*%
X158150000Y-75425000D03*
X158150000Y-73600000D03*
%TD*%
D20*
%TO.C,H1*%
X126275000Y-60800000D03*
%TD*%
D15*
%TO.C,TP11*%
X153675000Y-92250000D03*
%TD*%
D26*
%TO.C,C3*%
X146288500Y-103032337D03*
X146288500Y-101307337D03*
%TD*%
D16*
%TO.C,C24*%
X132500000Y-76050000D03*
X130775000Y-76050000D03*
%TD*%
%TO.C,C31*%
X161587500Y-114750000D03*
X159862500Y-114750000D03*
%TD*%
D45*
%TO.C,C34*%
X162862500Y-111180000D03*
X164937500Y-111180000D03*
%TD*%
D23*
%TO.C,R34*%
X157225000Y-82650000D03*
X159050000Y-82650000D03*
%TD*%
D19*
%TO.C,R4*%
X144534000Y-101257337D03*
X144534000Y-103082337D03*
%TD*%
D21*
%TO.C,R26*%
X132750000Y-115887500D03*
X132750000Y-114062500D03*
%TD*%
M02*
