M48
; DRILL file {KiCad 7.0.2-0} date 2025 January 08, Wednesday 12:57:55
; FORMAT={-:-/ absolute / inch / decimal}
; #@! TF.CreationDate,2025-01-08T12:57:55-05:00
; #@! TF.GenerationSoftware,Kicad,Pcbnew,7.0.2-0
; #@! TF.FileFunction,Plated,1,4,PTH
FMAT,2
INCH
; #@! TA.AperFunction,Plated,PTH,ViaDrill
T1C0.0157
; #@! TA.AperFunction,Plated,PTH,ComponentDrill
T2C0.0394
; #@! TA.AperFunction,Plated,PTH,ComponentDrill
T3C0.1260
%
G90
G05
T1
X4.8031Y-2.4016
X4.8031Y-2.5197
X4.8031Y-2.6378
X4.8031Y-2.7559
X4.8031Y-2.874
X4.8031Y-2.9921
X4.8031Y-3.1102
X4.8031Y-3.2283
X4.8031Y-3.3465
X4.8031Y-3.4646
X4.8031Y-3.5827
X4.8031Y-3.7008
X4.8031Y-3.8189
X4.8031Y-3.937
X4.8031Y-4.0551
X4.8031Y-4.1732
X4.8031Y-4.2913
X4.8031Y-4.4094
X4.8031Y-4.5276
X4.8031Y-4.6457
X4.8031Y-4.7638
X4.8031Y-4.8819
X4.8238Y-3.8504
X4.8671Y-2.2343
X4.873Y-3.8996
X4.874Y-3.0512
X4.8819Y-4.9213
X4.8878Y-4.5315
X4.8888Y-2.6398
X4.9301Y-2.5886
X4.937Y-3.3386
X4.9409Y-3.0512
X4.9518Y-4.0472
X4.9606Y-2.7559
X4.9606Y-3.2992
X4.9646Y-3.5236
X4.9646Y-3.5669
X4.9852Y-2.2343
X4.9961Y-4.0472
X5.0Y-4.9213
X5.0315Y-3.5236
X5.0315Y-3.5669
X5.0591Y-3.248
X5.0856Y-3.9685
X5.1024Y-4.0906
X5.1033Y-2.2343
X5.1181Y-4.9213
X5.1289Y-2.7913
X5.1461Y-4.4909
X5.1465Y-4.092
X5.188Y-2.2854
X5.1929Y-2.7953
X5.2034Y-3.1454
X5.2215Y-2.2343
X5.2362Y-4.9213
X5.2402Y-2.5984
X5.2411Y-2.6417
X5.2598Y-2.9921
X5.2598Y-3.0866
X5.2648Y-3.687
X5.2648Y-3.7283
X5.2667Y-4.6378
X5.2677Y-3.122
X5.2756Y-2.7559
X5.2756Y-2.874
X5.3071Y-2.4252
X5.312Y-3.687
X5.312Y-3.7283
X5.315Y-2.9528
X5.3386Y-4.2726
X5.3386Y-4.3199
X5.3386Y-4.3711
X5.3386Y-4.4488
X5.3386Y-4.4961
X5.3386Y-4.5472
X5.3396Y-2.2343
X5.3533Y-2.4272
X5.3543Y-4.9213
X5.3583Y-2.5827
X5.3622Y-3.1102
X5.3632Y-3.687
X5.3632Y-3.7283
X5.375Y-2.7874
X5.375Y-3.9203
X5.3799Y-4.2726
X5.3799Y-4.3199
X5.3799Y-4.3711
X5.3799Y-4.4488
X5.3799Y-4.4961
X5.3799Y-4.5472
X5.4144Y-2.8366
X5.4459Y-4.6634
X5.4478Y-4.7008
X5.4528Y-2.4252
X5.4577Y-2.2343
X5.4715Y-3.9291
X5.4724Y-4.9213
X5.4734Y-2.876
X5.4764Y-3.2992
X5.4951Y-4.6614
X5.4951Y-4.7008
X5.499Y-2.4252
X5.5Y-2.5787
X5.5004Y-4.3219
X5.5422Y-4.1083
X5.5463Y-3.9567
X5.5472Y-3.815
X5.548Y-3.8636
X5.5502Y-3.3031
X5.5512Y-3.5039
X5.5748Y-4.3268
X5.5756Y-4.5669
X5.5758Y-2.2343
X5.5819Y-3.0154
X5.5827Y-4.3681
X5.5906Y-4.9213
X5.6093Y-3.248
X5.6132Y-3.3031
X5.6152Y-3.1594
X5.6181Y-4.5669
X5.6201Y-4.1762
X5.6248Y-3.0169
X5.6299Y-3.4252
X5.6299Y-3.5827
X5.6535Y-3.8583
X5.6567Y-3.9056
X5.6585Y-4.2353
X5.6697Y-3.0177
X5.6937Y-3.9384
X5.6939Y-2.2343
X5.7008Y-4.2362
X5.7087Y-3.3465
X5.7087Y-3.5039
X5.7087Y-4.9213
X5.7441Y-2.8976
X5.749Y-3.2205
X5.7597Y-4.0955
X5.7646Y-3.9424
X5.7667Y-2.5531
X5.7677Y-4.2402
X5.7874Y-3.4252
X5.7874Y-3.5827
X5.7884Y-4.4823
X5.7913Y-4.5236
X5.812Y-2.2343
X5.8189Y-2.7835
X5.8189Y-2.8228
X5.8228Y-2.8976
X5.8268Y-4.9213
X5.8297Y-4.3504
X5.8622Y-2.8976
X5.8661Y-3.3465
X5.874Y-4.3504
X5.8835Y-2.9441
X5.8843Y-2.978
X5.9301Y-2.2343
X5.9343Y-2.8575
X5.937Y-2.7913
X5.9449Y-3.2677
X5.9449Y-3.5827
X5.9449Y-4.9213
X6.0039Y-4.0866
X6.0069Y-3.9016
X6.0069Y-3.9488
X6.0079Y-2.9173
X6.0236Y-3.189
X6.0512Y-4.3898
X6.0512Y-4.4291
X6.0512Y-4.4685
X6.0541Y-3.9016
X6.0541Y-3.9488
X6.0541Y-4.0157
X6.0551Y-4.1496
X6.063Y-4.9213
X6.1014Y-3.9016
X6.1014Y-3.9488
X6.1024Y-3.1102
X6.1024Y-4.3583
X6.1024Y-4.5079
X6.122Y-2.8031
X6.1583Y-3.4778
X6.1583Y-3.529
X6.1583Y-3.5762
X6.1663Y-2.2343
X6.1811Y-4.9213
X6.1929Y-3.2913
X6.2016Y-3.4778
X6.2488Y-3.4778
X6.2844Y-2.2343
X6.2992Y-4.9213
X6.372Y-4.389
X6.3819Y-2.3189
X6.4026Y-2.2343
X6.4173Y-4.9213
X6.4439Y-4.6516
X6.4921Y-4.5669
X6.4961Y-3.6417
X6.5207Y-2.2343
X6.5354Y-4.9213
X6.5778Y-3.189
X6.5945Y-3.7402
X6.6093Y-4.2972
X6.6171Y-3.9193
X6.622Y-4.565
X6.6388Y-2.2343
X6.6535Y-4.9213
X6.6929Y-3.5433
X6.6959Y-3.3976
X6.7569Y-2.2343
X6.7717Y-2.3228
X6.7717Y-2.4409
X6.7717Y-2.5591
X6.7717Y-2.6772
X6.7717Y-2.7953
X6.7717Y-2.9134
X6.7717Y-3.0315
X6.7717Y-3.1496
X6.7717Y-3.2677
X6.7717Y-3.3858
X6.7717Y-3.5039
X6.7717Y-3.622
X6.7717Y-3.7402
X6.7717Y-3.8583
X6.7717Y-3.9764
X6.7717Y-4.0945
X6.7717Y-4.2126
X6.7717Y-4.3307
X6.7717Y-4.4488
X6.7717Y-4.5669
X6.7717Y-4.685
X6.7717Y-4.8031
X6.7717Y-4.9213
T2
X5.3652Y-4.815
X5.4652Y-4.815
X5.5652Y-4.815
X5.6652Y-4.815
X5.7652Y-4.815
X6.1033Y-4.8051
X6.2033Y-4.8051
X6.3033Y-4.8051
X6.5856Y-2.7756
X6.5856Y-2.8756
X6.5856Y-2.9756
X6.5856Y-3.0756
T3
X4.9715Y-2.3937
X4.9715Y-4.7559
X6.625Y-2.3937
X6.625Y-4.7559
T2
G00X5.8888Y-2.374
M15
G01X5.8888Y-2.4528
M16
G05
G00X6.1132Y-2.2953
M15
G01X6.0344Y-2.2953
M16
G05
G00X6.1132Y-2.5315
M15
G01X6.0344Y-2.5315
M16
G05
T0
M30
