%TF.GenerationSoftware,KiCad,Pcbnew,7.0.2-0*%
%TF.CreationDate,2025-01-08T12:57:51-05:00*%
%TF.ProjectId,plaqchek_power,706c6171-6368-4656-9b5f-706f7765722e,rev?*%
%TF.SameCoordinates,Original*%
%TF.FileFunction,Copper,L2,Inr*%
%TF.FilePolarity,Positive*%
%FSLAX46Y46*%
G04 Gerber Fmt 4.6, Leading zero omitted, Abs format (unit mm)*
G04 Created by KiCad (PCBNEW 7.0.2-0) date 2025-01-08 12:57:51*
%MOMM*%
%LPD*%
G01*
G04 APERTURE LIST*
G04 Aperture macros list*
%AMRoundRect*
0 Rectangle with rounded corners*
0 $1 Rounding radius*
0 $2 $3 $4 $5 $6 $7 $8 $9 X,Y pos of 4 corners*
0 Add a 4 corners polygon primitive as box body*
4,1,4,$2,$3,$4,$5,$6,$7,$8,$9,$2,$3,0*
0 Add four circle primitives for the rounded corners*
1,1,$1+$1,$2,$3*
1,1,$1+$1,$4,$5*
1,1,$1+$1,$6,$7*
1,1,$1+$1,$8,$9*
0 Add four rect primitives between the rounded corners*
20,1,$1+$1,$2,$3,$4,$5,0*
20,1,$1+$1,$4,$5,$6,$7,0*
20,1,$1+$1,$6,$7,$8,$9,0*
20,1,$1+$1,$8,$9,$2,$3,0*%
G04 Aperture macros list end*
%TA.AperFunction,ComponentPad*%
%ADD10R,3.500000X3.500000*%
%TD*%
%TA.AperFunction,ComponentPad*%
%ADD11RoundRect,0.750000X-1.000000X0.750000X-1.000000X-0.750000X1.000000X-0.750000X1.000000X0.750000X0*%
%TD*%
%TA.AperFunction,ComponentPad*%
%ADD12RoundRect,0.875000X-0.875000X0.875000X-0.875000X-0.875000X0.875000X-0.875000X0.875000X0.875000X0*%
%TD*%
%TA.AperFunction,ComponentPad*%
%ADD13R,1.700000X1.700000*%
%TD*%
%TA.AperFunction,ComponentPad*%
%ADD14O,1.700000X1.700000*%
%TD*%
%TA.AperFunction,ComponentPad*%
%ADD15C,6.400000*%
%TD*%
%TA.AperFunction,ViaPad*%
%ADD16C,0.800000*%
%TD*%
G04 APERTURE END LIST*
D10*
%TO.N,+12V*%
%TO.C,J3*%
X154275000Y-64300000D03*
D11*
%TO.N,GND*%
X154275000Y-58300000D03*
D12*
X149575000Y-61300000D03*
%TD*%
D13*
%TO.N,SIPM_BIAS_OUT*%
%TO.C,J1*%
X136275000Y-122300000D03*
D14*
%TO.N,+6V*%
X138815000Y-122300000D03*
%TO.N,+3V3*%
X141355000Y-122300000D03*
%TO.N,-6V5*%
X143895000Y-122300000D03*
%TO.N,GND*%
X146435000Y-122300000D03*
%TD*%
D15*
%TO.N,Net-(H2-Pad1)*%
%TO.C,H2*%
X126275000Y-120800000D03*
%TD*%
%TO.N,Net-(H4-Pad1)*%
%TO.C,H4*%
X168275000Y-120800000D03*
%TD*%
D13*
%TO.N,+12V*%
%TO.C,J2*%
X167275000Y-70500000D03*
D14*
%TO.N,+3V3*%
X167275000Y-73040000D03*
%TO.N,PD_EN*%
X167275000Y-75580000D03*
%TO.N,GND*%
X167275000Y-78120000D03*
%TD*%
D15*
%TO.N,Net-(H3-Pad1)*%
%TO.C,H3*%
X168275000Y-60800000D03*
%TD*%
D13*
%TO.N,+6V*%
%TO.C,J4*%
X155025000Y-122050000D03*
D14*
%TO.N,-6V5*%
X157565000Y-122050000D03*
%TO.N,GND*%
X160105000Y-122050000D03*
%TD*%
D15*
%TO.N,Net-(H1-Pad1)*%
%TO.C,H1*%
X126275000Y-60800000D03*
%TD*%
D16*
%TO.N,/SIPM Bias/VB_SIPM*%
X139709500Y-109775000D03*
X147025000Y-113850000D03*
X136525000Y-99575000D03*
%TO.N,GND*%
X122000000Y-112000000D03*
X172000000Y-92000000D03*
X171625000Y-56750000D03*
X140900000Y-96900000D03*
X132166372Y-79892857D03*
X147800000Y-70700000D03*
X152600000Y-74100000D03*
X150800000Y-70900000D03*
X168200000Y-115950000D03*
X172000000Y-80000000D03*
X135600000Y-111025000D03*
X147625000Y-56750000D03*
X122000000Y-97000000D03*
X123625000Y-56750000D03*
X152575000Y-99100000D03*
X155000000Y-110700000D03*
X148900000Y-73600000D03*
X123775000Y-99050000D03*
X122000000Y-70000000D03*
X153700000Y-113500000D03*
X133100000Y-66000000D03*
X169000000Y-125000000D03*
X156625000Y-56750000D03*
X122000000Y-67000000D03*
X136650000Y-115500000D03*
X153000000Y-81000000D03*
X159625000Y-56750000D03*
X122525000Y-97800000D03*
X135625000Y-56750000D03*
X122000000Y-91000000D03*
X170000000Y-90000000D03*
X122000000Y-109000000D03*
X166000000Y-125000000D03*
X162625000Y-56750000D03*
X126000000Y-70000000D03*
X135000000Y-75000000D03*
X172000000Y-104000000D03*
X125400000Y-84800000D03*
X163000000Y-125000000D03*
X141625000Y-56750000D03*
X148000000Y-125000000D03*
X126625000Y-56750000D03*
X135600000Y-108525000D03*
X165625000Y-56750000D03*
X143000000Y-87000000D03*
X134000000Y-70000000D03*
X167500000Y-95000000D03*
X124175000Y-67050000D03*
X165000000Y-92500000D03*
X122000000Y-82000000D03*
X134925000Y-93650000D03*
X139000000Y-125000000D03*
X151000000Y-83000000D03*
X162100000Y-58900000D03*
X164900000Y-116000000D03*
X150625000Y-56750000D03*
X153700000Y-111500000D03*
X154975000Y-100300000D03*
X172000000Y-95000000D03*
X135600000Y-109725000D03*
X145000000Y-89000000D03*
X172000000Y-113000000D03*
X141000000Y-89000000D03*
X129625000Y-56750000D03*
X139700000Y-65500000D03*
X157000000Y-125000000D03*
X144620000Y-100035837D03*
X134000000Y-73000000D03*
X143600000Y-98000000D03*
X172000000Y-71000000D03*
X145900000Y-73600000D03*
X153700000Y-112500000D03*
X130000000Y-125000000D03*
X136100000Y-65600000D03*
X152575000Y-100300000D03*
X172000000Y-65000000D03*
X122000000Y-103000000D03*
X172000000Y-59000000D03*
X122000000Y-76000000D03*
X122000000Y-106000000D03*
X136650000Y-114200000D03*
X140875000Y-100500000D03*
X133725000Y-93650000D03*
X136650000Y-113000000D03*
X153775000Y-100300000D03*
X122000000Y-121000000D03*
X131900000Y-71000000D03*
X153775000Y-102000000D03*
X126100000Y-90600000D03*
X122000000Y-79000000D03*
X124000000Y-125000000D03*
X136000000Y-125000000D03*
X154000000Y-125000000D03*
X122000000Y-88000000D03*
X141600000Y-109900000D03*
X147100000Y-114900000D03*
X172000000Y-74000000D03*
X147000000Y-87000000D03*
X122000000Y-85000000D03*
X124150000Y-115100000D03*
X142700000Y-116000000D03*
X172000000Y-116000000D03*
X149000000Y-85000000D03*
X125225000Y-65750000D03*
X122000000Y-64000000D03*
X154975000Y-99100000D03*
X131775000Y-58050000D03*
X146420000Y-100135837D03*
X136225000Y-93650000D03*
X172000000Y-83000000D03*
X149200000Y-110500000D03*
X125500000Y-77500000D03*
X122000000Y-124000000D03*
X151000000Y-125000000D03*
X161850000Y-111480000D03*
X135600000Y-114200000D03*
X136200000Y-79000000D03*
X127000000Y-125000000D03*
X122000000Y-94000000D03*
X138975000Y-99800000D03*
X172000000Y-125000000D03*
X122000000Y-118000000D03*
X133600000Y-78400000D03*
X167075000Y-81000000D03*
X172000000Y-107000000D03*
X136650000Y-108525000D03*
X172000000Y-62000000D03*
X168625000Y-56750000D03*
X172000000Y-77000000D03*
X136225000Y-94700000D03*
X133000000Y-125000000D03*
X157300000Y-83600000D03*
X147800000Y-71700000D03*
X172000000Y-86000000D03*
X136650000Y-111025000D03*
X147900000Y-73600000D03*
X133600000Y-76000000D03*
X155000000Y-79000000D03*
X134800000Y-61600000D03*
X153800000Y-105400000D03*
X172000000Y-101000000D03*
X122000000Y-100000000D03*
X160000000Y-125000000D03*
X155000000Y-114500000D03*
X172000000Y-119000000D03*
X127800000Y-90600000D03*
X145000000Y-125000000D03*
X167875000Y-109150000D03*
X138625000Y-56750000D03*
X122000000Y-73000000D03*
X132625000Y-56750000D03*
X135600000Y-115500000D03*
X145000000Y-85000000D03*
X126900000Y-102800000D03*
X138500000Y-61600000D03*
X155500000Y-71200000D03*
X142000000Y-125000000D03*
X172000000Y-110000000D03*
X136650000Y-109725000D03*
X172000000Y-89000000D03*
X122000000Y-115000000D03*
X168075000Y-99550000D03*
X133725000Y-94700000D03*
X134925000Y-94700000D03*
X135600000Y-113000000D03*
X172000000Y-68000000D03*
X144800000Y-107600000D03*
X122000000Y-61000000D03*
X128500000Y-82500000D03*
X172000000Y-122000000D03*
X129600000Y-103900000D03*
X144625000Y-56750000D03*
X153775000Y-99100000D03*
X146500000Y-107700000D03*
X172000000Y-98000000D03*
X163675000Y-118150000D03*
X143000000Y-91000000D03*
X152500000Y-103800000D03*
X133800000Y-79300000D03*
X151000000Y-91000000D03*
X147000000Y-91000000D03*
%TO.N,/SIPM Bias/COMP_SIPM*%
X142750000Y-106075000D03*
X146295837Y-104026878D03*
%TO.N,/SIPM Bias/VOUT_SIPM*%
X130720000Y-103935837D03*
X140920000Y-98135837D03*
X141620000Y-116000000D03*
X130710000Y-114070000D03*
%TO.N,+12V*%
X135975000Y-61650000D03*
X146025000Y-81800000D03*
X139675000Y-61600000D03*
X129175000Y-100800000D03*
X123800000Y-77500000D03*
X146475000Y-64850000D03*
X130275000Y-70900000D03*
%TO.N,/main_pwr/SW_3V3*%
X142870000Y-76630000D03*
X149440000Y-74780000D03*
X141780000Y-76590000D03*
X149460000Y-75640000D03*
X144010000Y-76650000D03*
X150730000Y-72580000D03*
%TO.N,+6V*%
X126100000Y-89500000D03*
X142575000Y-83900000D03*
X142625000Y-80250000D03*
X138325000Y-118450000D03*
X138375000Y-119400000D03*
X133125000Y-67100000D03*
X127800000Y-89500000D03*
X139575000Y-119400000D03*
X139575000Y-118400000D03*
X140975000Y-83900000D03*
X142475000Y-82500000D03*
%TO.N,-6V5*%
X158720000Y-88335837D03*
X156420000Y-89635837D03*
X156420000Y-90835837D03*
X156420000Y-88335837D03*
X157520000Y-88335837D03*
%TO.N,SIPM_BIAS_OUT*%
X133775000Y-117800000D03*
X125775000Y-102800000D03*
%TO.N,+3V3*%
X139025000Y-73050000D03*
X136525000Y-70800000D03*
X170075000Y-86300000D03*
X137525000Y-72050000D03*
%TO.N,PD_EN*%
X148075000Y-110500000D03*
%TO.N,/main_pwr/VOUT_6V*%
X139100000Y-83800000D03*
X126000000Y-83800000D03*
%TO.N,/SIPM Bias/FB_SIPM_OUT*%
X140770837Y-104351878D03*
X143679435Y-99201878D03*
%TO.N,/SIPM Bias/EN_SIPM_R*%
X141800000Y-110950000D03*
X143725000Y-107577000D03*
%TD*%
%TA.AperFunction,Conductor*%
%TO.N,GND*%
G36*
X173017539Y-56020185D02*
G01*
X173063294Y-56072989D01*
X173074500Y-56124500D01*
X173074500Y-125475500D01*
X173054815Y-125542539D01*
X173002011Y-125588294D01*
X172950500Y-125599500D01*
X121599500Y-125599500D01*
X121532461Y-125579815D01*
X121486706Y-125527011D01*
X121475500Y-125475500D01*
X121475500Y-120800000D01*
X122869506Y-120800000D01*
X122869688Y-120803356D01*
X122889286Y-121164835D01*
X122889287Y-121164846D01*
X122889469Y-121168199D01*
X122890013Y-121171520D01*
X122890014Y-121171525D01*
X122937889Y-121463550D01*
X122949125Y-121532081D01*
X123047773Y-121887379D01*
X123049015Y-121890496D01*
X123049018Y-121890505D01*
X123183012Y-122226806D01*
X123184257Y-122229930D01*
X123185827Y-122232892D01*
X123185832Y-122232902D01*
X123303027Y-122453954D01*
X123356978Y-122555716D01*
X123563910Y-122860917D01*
X123566083Y-122863475D01*
X123771730Y-123105582D01*
X123802627Y-123141956D01*
X123805058Y-123144259D01*
X123805064Y-123144265D01*
X124010503Y-123338867D01*
X124070330Y-123395538D01*
X124073006Y-123397572D01*
X124361202Y-123616654D01*
X124361208Y-123616658D01*
X124363881Y-123618690D01*
X124679838Y-123808795D01*
X125014497Y-123963625D01*
X125363934Y-124081364D01*
X125724052Y-124160632D01*
X126090630Y-124200500D01*
X126093988Y-124200500D01*
X126456012Y-124200500D01*
X126459370Y-124200500D01*
X126825948Y-124160632D01*
X127186066Y-124081364D01*
X127535503Y-123963625D01*
X127870162Y-123808795D01*
X128186119Y-123618690D01*
X128479670Y-123395538D01*
X128718033Y-123169748D01*
X135224500Y-123169748D01*
X135236132Y-123228230D01*
X135280447Y-123294552D01*
X135346769Y-123338867D01*
X135405251Y-123350500D01*
X135405252Y-123350500D01*
X137144749Y-123350500D01*
X137173989Y-123344683D01*
X137203231Y-123338867D01*
X137269552Y-123294552D01*
X137313867Y-123228231D01*
X137325500Y-123169748D01*
X137325500Y-122300000D01*
X137759417Y-122300000D01*
X137779699Y-122505932D01*
X137794801Y-122555716D01*
X137839768Y-122703954D01*
X137937315Y-122886450D01*
X137988609Y-122948952D01*
X138068589Y-123046410D01*
X138120324Y-123088867D01*
X138228550Y-123177685D01*
X138411046Y-123275232D01*
X138609066Y-123335300D01*
X138815000Y-123355583D01*
X139020934Y-123335300D01*
X139218954Y-123275232D01*
X139401450Y-123177685D01*
X139561410Y-123046410D01*
X139692685Y-122886450D01*
X139790232Y-122703954D01*
X139850300Y-122505934D01*
X139870583Y-122300000D01*
X140299417Y-122300000D01*
X140319699Y-122505932D01*
X140334801Y-122555716D01*
X140379768Y-122703954D01*
X140477315Y-122886450D01*
X140528609Y-122948952D01*
X140608589Y-123046410D01*
X140660324Y-123088867D01*
X140768550Y-123177685D01*
X140951046Y-123275232D01*
X141149066Y-123335300D01*
X141355000Y-123355583D01*
X141560934Y-123335300D01*
X141758954Y-123275232D01*
X141941450Y-123177685D01*
X142101410Y-123046410D01*
X142232685Y-122886450D01*
X142330232Y-122703954D01*
X142390300Y-122505934D01*
X142410583Y-122300000D01*
X142839417Y-122300000D01*
X142859699Y-122505932D01*
X142874801Y-122555716D01*
X142919768Y-122703954D01*
X143017315Y-122886450D01*
X143068609Y-122948952D01*
X143148589Y-123046410D01*
X143200324Y-123088867D01*
X143308550Y-123177685D01*
X143491046Y-123275232D01*
X143689066Y-123335300D01*
X143895000Y-123355583D01*
X144100934Y-123335300D01*
X144298954Y-123275232D01*
X144481450Y-123177685D01*
X144641410Y-123046410D01*
X144745358Y-122919748D01*
X153974500Y-122919748D01*
X153986132Y-122978230D01*
X154030447Y-123044552D01*
X154096769Y-123088867D01*
X154155251Y-123100500D01*
X154155252Y-123100500D01*
X155894749Y-123100500D01*
X155923989Y-123094683D01*
X155953231Y-123088867D01*
X156019552Y-123044552D01*
X156063867Y-122978231D01*
X156075500Y-122919748D01*
X156075500Y-122050000D01*
X156509417Y-122050000D01*
X156529699Y-122255932D01*
X156529700Y-122255934D01*
X156589768Y-122453954D01*
X156687315Y-122636450D01*
X156738608Y-122698952D01*
X156818589Y-122796410D01*
X156893801Y-122858134D01*
X156978550Y-122927685D01*
X157161046Y-123025232D01*
X157359066Y-123085300D01*
X157565000Y-123105583D01*
X157770934Y-123085300D01*
X157968954Y-123025232D01*
X158151450Y-122927685D01*
X158311410Y-122796410D01*
X158442685Y-122636450D01*
X158540232Y-122453954D01*
X158600300Y-122255934D01*
X158620583Y-122050000D01*
X158600300Y-121844066D01*
X158540232Y-121646046D01*
X158442685Y-121463550D01*
X158367363Y-121371769D01*
X158311410Y-121303589D01*
X158161121Y-121180252D01*
X158151450Y-121172315D01*
X157968954Y-121074768D01*
X157869943Y-121044733D01*
X157770932Y-121014699D01*
X157565000Y-120994417D01*
X157359067Y-121014699D01*
X157161043Y-121074769D01*
X156978551Y-121172314D01*
X156818589Y-121303589D01*
X156687314Y-121463551D01*
X156589769Y-121646043D01*
X156529699Y-121844067D01*
X156509417Y-122050000D01*
X156075500Y-122050000D01*
X156075500Y-121180252D01*
X156072433Y-121164835D01*
X156063867Y-121121769D01*
X156019552Y-121055447D01*
X155953230Y-121011132D01*
X155894749Y-120999500D01*
X155894748Y-120999500D01*
X154155252Y-120999500D01*
X154155251Y-120999500D01*
X154096769Y-121011132D01*
X154030447Y-121055447D01*
X153986132Y-121121769D01*
X153974500Y-121180251D01*
X153974500Y-122919748D01*
X144745358Y-122919748D01*
X144772685Y-122886450D01*
X144870232Y-122703954D01*
X144930300Y-122505934D01*
X144950583Y-122300000D01*
X144930300Y-122094066D01*
X144870232Y-121896046D01*
X144772685Y-121713550D01*
X144707047Y-121633570D01*
X144641410Y-121553589D01*
X144543952Y-121473608D01*
X144481450Y-121422315D01*
X144298954Y-121324768D01*
X144199944Y-121294733D01*
X144100932Y-121264699D01*
X143917497Y-121246632D01*
X143895000Y-121244417D01*
X143894999Y-121244417D01*
X143689067Y-121264699D01*
X143491043Y-121324769D01*
X143308551Y-121422314D01*
X143148589Y-121553589D01*
X143017314Y-121713551D01*
X142919769Y-121896043D01*
X142859699Y-122094067D01*
X142839417Y-122300000D01*
X142410583Y-122300000D01*
X142390300Y-122094066D01*
X142330232Y-121896046D01*
X142232685Y-121713550D01*
X142167047Y-121633570D01*
X142101410Y-121553589D01*
X142003952Y-121473608D01*
X141941450Y-121422315D01*
X141758954Y-121324768D01*
X141659943Y-121294733D01*
X141560932Y-121264699D01*
X141377497Y-121246632D01*
X141355000Y-121244417D01*
X141354999Y-121244417D01*
X141149067Y-121264699D01*
X140951043Y-121324769D01*
X140768551Y-121422314D01*
X140608589Y-121553589D01*
X140477314Y-121713551D01*
X140379769Y-121896043D01*
X140319699Y-122094067D01*
X140299417Y-122300000D01*
X139870583Y-122300000D01*
X139850300Y-122094066D01*
X139790232Y-121896046D01*
X139692685Y-121713550D01*
X139627047Y-121633570D01*
X139561410Y-121553589D01*
X139463952Y-121473608D01*
X139401450Y-121422315D01*
X139218954Y-121324768D01*
X139119943Y-121294733D01*
X139020932Y-121264699D01*
X138815000Y-121244417D01*
X138609067Y-121264699D01*
X138411043Y-121324769D01*
X138228551Y-121422314D01*
X138068589Y-121553589D01*
X137937314Y-121713551D01*
X137839769Y-121896043D01*
X137779699Y-122094067D01*
X137759417Y-122300000D01*
X137325500Y-122300000D01*
X137325500Y-121430252D01*
X137313867Y-121371769D01*
X137313867Y-121371768D01*
X137269552Y-121305447D01*
X137203230Y-121261132D01*
X137144749Y-121249500D01*
X137144748Y-121249500D01*
X135405252Y-121249500D01*
X135405251Y-121249500D01*
X135346769Y-121261132D01*
X135280447Y-121305447D01*
X135236132Y-121371769D01*
X135224500Y-121430251D01*
X135224500Y-123169748D01*
X128718033Y-123169748D01*
X128747373Y-123141956D01*
X128986090Y-122860917D01*
X129193022Y-122555716D01*
X129365743Y-122229930D01*
X129502227Y-121887379D01*
X129600875Y-121532081D01*
X129660531Y-121168199D01*
X129680494Y-120800000D01*
X164869506Y-120800000D01*
X164869688Y-120803356D01*
X164889286Y-121164835D01*
X164889287Y-121164846D01*
X164889469Y-121168199D01*
X164890013Y-121171520D01*
X164890014Y-121171525D01*
X164937889Y-121463550D01*
X164949125Y-121532081D01*
X165047773Y-121887379D01*
X165049015Y-121890496D01*
X165049018Y-121890505D01*
X165183012Y-122226806D01*
X165184257Y-122229930D01*
X165185827Y-122232892D01*
X165185832Y-122232902D01*
X165303027Y-122453954D01*
X165356978Y-122555716D01*
X165563910Y-122860917D01*
X165566083Y-122863475D01*
X165771730Y-123105582D01*
X165802627Y-123141956D01*
X165805058Y-123144259D01*
X165805064Y-123144265D01*
X166010503Y-123338867D01*
X166070330Y-123395538D01*
X166073006Y-123397572D01*
X166361202Y-123616654D01*
X166361208Y-123616658D01*
X166363881Y-123618690D01*
X166679838Y-123808795D01*
X167014497Y-123963625D01*
X167363934Y-124081364D01*
X167724052Y-124160632D01*
X168090630Y-124200500D01*
X168093988Y-124200500D01*
X168456012Y-124200500D01*
X168459370Y-124200500D01*
X168825948Y-124160632D01*
X169186066Y-124081364D01*
X169535503Y-123963625D01*
X169870162Y-123808795D01*
X170186119Y-123618690D01*
X170479670Y-123395538D01*
X170747373Y-123141956D01*
X170986090Y-122860917D01*
X171193022Y-122555716D01*
X171365743Y-122229930D01*
X171502227Y-121887379D01*
X171600875Y-121532081D01*
X171660531Y-121168199D01*
X171680494Y-120800000D01*
X171660531Y-120431801D01*
X171600875Y-120067919D01*
X171502227Y-119712621D01*
X171365743Y-119370070D01*
X171193022Y-119044284D01*
X170986090Y-118739083D01*
X170747373Y-118458044D01*
X170744940Y-118455739D01*
X170744935Y-118455734D01*
X170482110Y-118206773D01*
X170482107Y-118206770D01*
X170479670Y-118204462D01*
X170421768Y-118160446D01*
X170188797Y-117983345D01*
X170188787Y-117983338D01*
X170186119Y-117981310D01*
X169958435Y-117844317D01*
X169873044Y-117792939D01*
X169873043Y-117792938D01*
X169870162Y-117791205D01*
X169535503Y-117636375D01*
X169445393Y-117606013D01*
X169189249Y-117519708D01*
X169189240Y-117519705D01*
X169186066Y-117518636D01*
X169182798Y-117517916D01*
X169182785Y-117517913D01*
X168829235Y-117440091D01*
X168829225Y-117440089D01*
X168825948Y-117439368D01*
X168459370Y-117399500D01*
X168090630Y-117399500D01*
X168087293Y-117399862D01*
X168087291Y-117399863D01*
X167727398Y-117439004D01*
X167727396Y-117439004D01*
X167724052Y-117439368D01*
X167720777Y-117440088D01*
X167720764Y-117440091D01*
X167367214Y-117517913D01*
X167367196Y-117517917D01*
X167363934Y-117518636D01*
X167360763Y-117519704D01*
X167360750Y-117519708D01*
X167017684Y-117635301D01*
X167017681Y-117635302D01*
X167014497Y-117636375D01*
X167011448Y-117637785D01*
X167011442Y-117637788D01*
X166682893Y-117789791D01*
X166682884Y-117789795D01*
X166679838Y-117791205D01*
X166676963Y-117792934D01*
X166676955Y-117792939D01*
X166366762Y-117979576D01*
X166366754Y-117979580D01*
X166363881Y-117981310D01*
X166361220Y-117983332D01*
X166361202Y-117983345D01*
X166073006Y-118202427D01*
X166072997Y-118202434D01*
X166070330Y-118204462D01*
X166067901Y-118206762D01*
X166067889Y-118206773D01*
X165805064Y-118455734D01*
X165805049Y-118455749D01*
X165802627Y-118458044D01*
X165800464Y-118460589D01*
X165800453Y-118460602D01*
X165566083Y-118736524D01*
X165566077Y-118736531D01*
X165563910Y-118739083D01*
X165562029Y-118741855D01*
X165562023Y-118741865D01*
X165406179Y-118971718D01*
X165356978Y-119044284D01*
X165355403Y-119047254D01*
X165355401Y-119047258D01*
X165185832Y-119367097D01*
X165185823Y-119367114D01*
X165184257Y-119370070D01*
X165183016Y-119373182D01*
X165183012Y-119373193D01*
X165049018Y-119709494D01*
X165049013Y-119709508D01*
X165047773Y-119712621D01*
X164949125Y-120067919D01*
X164948581Y-120071236D01*
X164948579Y-120071246D01*
X164890014Y-120428474D01*
X164889469Y-120431801D01*
X164889287Y-120435151D01*
X164889286Y-120435164D01*
X164869688Y-120796643D01*
X164869506Y-120800000D01*
X129680494Y-120800000D01*
X129660531Y-120431801D01*
X129600875Y-120067919D01*
X129502227Y-119712621D01*
X129365743Y-119370070D01*
X129193022Y-119044284D01*
X128986090Y-118739083D01*
X128747373Y-118458044D01*
X128744940Y-118455739D01*
X128744935Y-118455734D01*
X128738882Y-118450000D01*
X137719317Y-118450000D01*
X137739956Y-118606762D01*
X137800463Y-118752840D01*
X137899643Y-118882094D01*
X137924837Y-118947263D01*
X137910799Y-119015708D01*
X137899643Y-119033066D01*
X137850463Y-119097159D01*
X137789956Y-119243237D01*
X137769317Y-119399999D01*
X137789956Y-119556762D01*
X137850463Y-119702840D01*
X137946717Y-119828282D01*
X138072158Y-119924535D01*
X138072159Y-119924536D01*
X138218238Y-119985044D01*
X138354361Y-120002964D01*
X138374999Y-120005682D01*
X138374999Y-120005681D01*
X138375000Y-120005682D01*
X138531762Y-119985044D01*
X138677841Y-119924536D01*
X138803282Y-119828282D01*
X138876623Y-119732701D01*
X138933052Y-119691498D01*
X139002798Y-119687343D01*
X139063718Y-119721555D01*
X139073376Y-119732701D01*
X139146717Y-119828282D01*
X139272158Y-119924535D01*
X139272159Y-119924536D01*
X139418238Y-119985044D01*
X139554360Y-120002964D01*
X139574999Y-120005682D01*
X139574999Y-120005681D01*
X139575000Y-120005682D01*
X139731762Y-119985044D01*
X139877841Y-119924536D01*
X140003282Y-119828282D01*
X140099536Y-119702841D01*
X140160044Y-119556762D01*
X140180682Y-119400000D01*
X140160044Y-119243238D01*
X140099536Y-119097159D01*
X140085176Y-119078445D01*
X140006173Y-118975485D01*
X139980979Y-118910316D01*
X139995017Y-118841871D01*
X140006173Y-118824514D01*
X140099536Y-118702841D01*
X140160044Y-118556762D01*
X140180682Y-118400000D01*
X140160044Y-118243238D01*
X140099536Y-118097159D01*
X140099535Y-118097159D01*
X140003282Y-117971717D01*
X139877840Y-117875463D01*
X139731762Y-117814956D01*
X139574999Y-117794317D01*
X139418237Y-117814956D01*
X139272159Y-117875463D01*
X139146717Y-117971717D01*
X139050463Y-118097159D01*
X139048762Y-118101266D01*
X139004918Y-118155667D01*
X138938623Y-118177728D01*
X138870924Y-118160446D01*
X138835827Y-118129293D01*
X138753282Y-118021717D01*
X138627840Y-117925463D01*
X138481762Y-117864956D01*
X138325000Y-117844317D01*
X138168237Y-117864956D01*
X138022159Y-117925463D01*
X137896717Y-118021717D01*
X137800463Y-118147159D01*
X137739956Y-118293237D01*
X137719317Y-118450000D01*
X128738882Y-118450000D01*
X128482110Y-118206773D01*
X128482107Y-118206770D01*
X128479670Y-118204462D01*
X128421768Y-118160446D01*
X128188797Y-117983345D01*
X128188787Y-117983338D01*
X128186119Y-117981310D01*
X127958435Y-117844317D01*
X127884778Y-117799999D01*
X133169317Y-117799999D01*
X133189956Y-117956762D01*
X133250463Y-118102840D01*
X133346717Y-118228282D01*
X133472158Y-118324535D01*
X133472159Y-118324536D01*
X133618238Y-118385044D01*
X133754360Y-118402964D01*
X133774999Y-118405682D01*
X133774999Y-118405681D01*
X133775000Y-118405682D01*
X133931762Y-118385044D01*
X134077841Y-118324536D01*
X134203282Y-118228282D01*
X134299536Y-118102841D01*
X134360044Y-117956762D01*
X134380682Y-117800000D01*
X134360044Y-117643238D01*
X134299536Y-117497159D01*
X134203282Y-117371717D01*
X134077840Y-117275463D01*
X133931762Y-117214956D01*
X133774999Y-117194317D01*
X133618237Y-117214956D01*
X133472159Y-117275463D01*
X133346717Y-117371717D01*
X133250463Y-117497159D01*
X133189956Y-117643237D01*
X133169317Y-117799999D01*
X127884778Y-117799999D01*
X127873044Y-117792939D01*
X127873043Y-117792938D01*
X127870162Y-117791205D01*
X127535503Y-117636375D01*
X127445393Y-117606013D01*
X127189249Y-117519708D01*
X127189240Y-117519705D01*
X127186066Y-117518636D01*
X127182798Y-117517916D01*
X127182785Y-117517913D01*
X126829235Y-117440091D01*
X126829225Y-117440089D01*
X126825948Y-117439368D01*
X126459370Y-117399500D01*
X126090630Y-117399500D01*
X126087293Y-117399862D01*
X126087291Y-117399863D01*
X125727398Y-117439004D01*
X125727396Y-117439004D01*
X125724052Y-117439368D01*
X125720777Y-117440088D01*
X125720764Y-117440091D01*
X125367214Y-117517913D01*
X125367196Y-117517917D01*
X125363934Y-117518636D01*
X125360763Y-117519704D01*
X125360750Y-117519708D01*
X125017684Y-117635301D01*
X125017681Y-117635302D01*
X125014497Y-117636375D01*
X125011448Y-117637785D01*
X125011442Y-117637788D01*
X124682893Y-117789791D01*
X124682884Y-117789795D01*
X124679838Y-117791205D01*
X124676963Y-117792934D01*
X124676955Y-117792939D01*
X124366762Y-117979576D01*
X124366754Y-117979580D01*
X124363881Y-117981310D01*
X124361220Y-117983332D01*
X124361202Y-117983345D01*
X124073006Y-118202427D01*
X124072997Y-118202434D01*
X124070330Y-118204462D01*
X124067901Y-118206762D01*
X124067889Y-118206773D01*
X123805064Y-118455734D01*
X123805049Y-118455749D01*
X123802627Y-118458044D01*
X123800464Y-118460589D01*
X123800453Y-118460602D01*
X123566083Y-118736524D01*
X123566077Y-118736531D01*
X123563910Y-118739083D01*
X123562029Y-118741855D01*
X123562023Y-118741865D01*
X123406179Y-118971718D01*
X123356978Y-119044284D01*
X123355403Y-119047254D01*
X123355401Y-119047258D01*
X123185832Y-119367097D01*
X123185823Y-119367114D01*
X123184257Y-119370070D01*
X123183016Y-119373182D01*
X123183012Y-119373193D01*
X123049018Y-119709494D01*
X123049013Y-119709508D01*
X123047773Y-119712621D01*
X122949125Y-120067919D01*
X122948581Y-120071236D01*
X122948579Y-120071246D01*
X122890014Y-120428474D01*
X122889469Y-120431801D01*
X122889287Y-120435151D01*
X122889286Y-120435164D01*
X122869688Y-120796643D01*
X122869506Y-120800000D01*
X121475500Y-120800000D01*
X121475500Y-115999999D01*
X141014317Y-115999999D01*
X141034956Y-116156762D01*
X141095463Y-116302840D01*
X141191717Y-116428282D01*
X141317158Y-116524536D01*
X141317159Y-116524536D01*
X141463238Y-116585044D01*
X141620000Y-116605682D01*
X141776762Y-116585044D01*
X141922841Y-116524536D01*
X142048282Y-116428282D01*
X142144536Y-116302841D01*
X142205044Y-116156762D01*
X142225682Y-116000000D01*
X142205044Y-115843238D01*
X142144536Y-115697159D01*
X142144536Y-115697158D01*
X142048282Y-115571717D01*
X141922840Y-115475463D01*
X141776762Y-115414956D01*
X141619999Y-115394317D01*
X141463237Y-115414956D01*
X141317159Y-115475463D01*
X141191717Y-115571717D01*
X141095463Y-115697159D01*
X141034956Y-115843237D01*
X141014317Y-115999999D01*
X121475500Y-115999999D01*
X121475500Y-114070000D01*
X130104317Y-114070000D01*
X130124956Y-114226762D01*
X130185463Y-114372840D01*
X130281717Y-114498282D01*
X130407159Y-114594535D01*
X130407159Y-114594536D01*
X130553238Y-114655044D01*
X130710000Y-114675682D01*
X130866762Y-114655044D01*
X131012841Y-114594536D01*
X131138282Y-114498282D01*
X131234536Y-114372841D01*
X131295044Y-114226762D01*
X131315682Y-114070000D01*
X131295044Y-113913238D01*
X131268850Y-113849999D01*
X146419317Y-113849999D01*
X146439956Y-114006762D01*
X146500463Y-114152840D01*
X146596717Y-114278282D01*
X146719949Y-114372840D01*
X146722159Y-114374536D01*
X146868238Y-114435044D01*
X147004360Y-114452964D01*
X147024999Y-114455682D01*
X147024999Y-114455681D01*
X147025000Y-114455682D01*
X147181762Y-114435044D01*
X147327841Y-114374536D01*
X147453282Y-114278282D01*
X147549536Y-114152841D01*
X147610044Y-114006762D01*
X147630682Y-113850000D01*
X147610044Y-113693238D01*
X147549536Y-113547159D01*
X147501806Y-113484956D01*
X147453282Y-113421717D01*
X147327840Y-113325463D01*
X147181762Y-113264956D01*
X147024999Y-113244317D01*
X146868237Y-113264956D01*
X146722159Y-113325463D01*
X146596717Y-113421717D01*
X146500463Y-113547159D01*
X146439956Y-113693237D01*
X146419317Y-113849999D01*
X131268850Y-113849999D01*
X131234536Y-113767159D01*
X131177814Y-113693237D01*
X131138282Y-113641717D01*
X131012840Y-113545463D01*
X130866762Y-113484956D01*
X130710000Y-113464317D01*
X130553237Y-113484956D01*
X130407159Y-113545463D01*
X130281717Y-113641717D01*
X130185463Y-113767159D01*
X130124956Y-113913237D01*
X130104317Y-114070000D01*
X121475500Y-114070000D01*
X121475500Y-110950000D01*
X141194317Y-110950000D01*
X141214956Y-111106762D01*
X141275463Y-111252840D01*
X141371717Y-111378282D01*
X141497158Y-111474536D01*
X141497159Y-111474536D01*
X141643238Y-111535044D01*
X141800000Y-111555682D01*
X141956762Y-111535044D01*
X142102841Y-111474536D01*
X142228282Y-111378282D01*
X142324536Y-111252841D01*
X142385044Y-111106762D01*
X142405682Y-110950000D01*
X142385044Y-110793238D01*
X142324536Y-110647159D01*
X142324536Y-110647158D01*
X142228282Y-110521717D01*
X142199980Y-110500000D01*
X147469317Y-110500000D01*
X147489956Y-110656762D01*
X147550463Y-110802840D01*
X147646717Y-110928282D01*
X147772158Y-111024536D01*
X147772159Y-111024536D01*
X147918238Y-111085044D01*
X148054360Y-111102964D01*
X148074999Y-111105682D01*
X148074999Y-111105681D01*
X148075000Y-111105682D01*
X148231762Y-111085044D01*
X148377841Y-111024536D01*
X148503282Y-110928282D01*
X148599536Y-110802841D01*
X148660044Y-110656762D01*
X148680682Y-110500000D01*
X148660044Y-110343238D01*
X148599536Y-110197159D01*
X148599535Y-110197158D01*
X148503282Y-110071717D01*
X148377840Y-109975463D01*
X148231762Y-109914956D01*
X148074999Y-109894317D01*
X147918237Y-109914956D01*
X147772159Y-109975463D01*
X147646717Y-110071717D01*
X147550463Y-110197159D01*
X147489956Y-110343237D01*
X147469317Y-110500000D01*
X142199980Y-110500000D01*
X142102840Y-110425463D01*
X141956762Y-110364956D01*
X141800000Y-110344317D01*
X141643237Y-110364956D01*
X141497159Y-110425463D01*
X141371717Y-110521717D01*
X141275463Y-110647159D01*
X141214956Y-110793237D01*
X141194317Y-110950000D01*
X121475500Y-110950000D01*
X121475500Y-109775000D01*
X139103817Y-109775000D01*
X139124456Y-109931762D01*
X139184963Y-110077840D01*
X139281217Y-110203282D01*
X139406658Y-110299536D01*
X139406659Y-110299536D01*
X139552738Y-110360044D01*
X139709500Y-110380682D01*
X139866262Y-110360044D01*
X140012341Y-110299536D01*
X140137782Y-110203282D01*
X140234036Y-110077841D01*
X140294544Y-109931762D01*
X140315182Y-109775000D01*
X140294544Y-109618238D01*
X140234036Y-109472159D01*
X140234035Y-109472158D01*
X140137782Y-109346717D01*
X140012340Y-109250463D01*
X139866262Y-109189956D01*
X139709500Y-109169317D01*
X139552737Y-109189956D01*
X139406659Y-109250463D01*
X139281217Y-109346717D01*
X139184963Y-109472159D01*
X139124456Y-109618237D01*
X139103817Y-109775000D01*
X121475500Y-109775000D01*
X121475500Y-107577000D01*
X143119317Y-107577000D01*
X143139956Y-107733762D01*
X143200463Y-107879840D01*
X143296717Y-108005282D01*
X143422159Y-108101536D01*
X143568238Y-108162044D01*
X143704360Y-108179964D01*
X143724999Y-108182682D01*
X143724999Y-108182681D01*
X143725000Y-108182682D01*
X143881762Y-108162044D01*
X144027841Y-108101536D01*
X144153282Y-108005282D01*
X144249536Y-107879841D01*
X144310044Y-107733762D01*
X144330682Y-107577000D01*
X144310044Y-107420238D01*
X144249536Y-107274159D01*
X144153282Y-107148717D01*
X144027840Y-107052463D01*
X143881762Y-106991956D01*
X143725000Y-106971317D01*
X143568237Y-106991956D01*
X143422159Y-107052463D01*
X143296717Y-107148717D01*
X143200463Y-107274159D01*
X143139956Y-107420237D01*
X143119317Y-107577000D01*
X121475500Y-107577000D01*
X121475500Y-106074999D01*
X142144317Y-106074999D01*
X142164956Y-106231762D01*
X142225463Y-106377840D01*
X142321717Y-106503282D01*
X142447158Y-106599536D01*
X142447159Y-106599536D01*
X142593238Y-106660044D01*
X142750000Y-106680682D01*
X142906762Y-106660044D01*
X143052841Y-106599536D01*
X143178282Y-106503282D01*
X143274536Y-106377841D01*
X143335044Y-106231762D01*
X143355682Y-106075000D01*
X143335044Y-105918238D01*
X143274536Y-105772159D01*
X143274536Y-105772158D01*
X143178282Y-105646717D01*
X143052840Y-105550463D01*
X142906762Y-105489956D01*
X142750000Y-105469317D01*
X142593237Y-105489956D01*
X142447159Y-105550463D01*
X142321717Y-105646717D01*
X142225463Y-105772159D01*
X142164956Y-105918237D01*
X142144317Y-106074999D01*
X121475500Y-106074999D01*
X121475500Y-103935837D01*
X130114317Y-103935837D01*
X130134956Y-104092599D01*
X130195463Y-104238677D01*
X130291717Y-104364119D01*
X130410365Y-104455160D01*
X130417159Y-104460373D01*
X130563238Y-104520881D01*
X130720000Y-104541519D01*
X130876762Y-104520881D01*
X131022841Y-104460373D01*
X131148282Y-104364119D01*
X131157675Y-104351878D01*
X140165154Y-104351878D01*
X140185793Y-104508640D01*
X140246300Y-104654718D01*
X140342554Y-104780160D01*
X140467995Y-104876414D01*
X140467996Y-104876414D01*
X140614075Y-104936922D01*
X140770837Y-104957560D01*
X140927599Y-104936922D01*
X141073678Y-104876414D01*
X141199119Y-104780160D01*
X141295373Y-104654719D01*
X141355881Y-104508640D01*
X141376519Y-104351878D01*
X141355881Y-104195116D01*
X141295373Y-104049037D01*
X141278369Y-104026877D01*
X145690154Y-104026877D01*
X145710793Y-104183640D01*
X145771300Y-104329718D01*
X145867554Y-104455160D01*
X145992995Y-104551414D01*
X145992996Y-104551414D01*
X146139075Y-104611922D01*
X146275197Y-104629842D01*
X146295836Y-104632560D01*
X146295836Y-104632559D01*
X146295837Y-104632560D01*
X146452599Y-104611922D01*
X146598678Y-104551414D01*
X146724119Y-104455160D01*
X146820373Y-104329719D01*
X146880881Y-104183640D01*
X146901519Y-104026878D01*
X146880881Y-103870116D01*
X146820373Y-103724037D01*
X146820372Y-103724037D01*
X146724119Y-103598595D01*
X146598677Y-103502341D01*
X146452599Y-103441834D01*
X146295836Y-103421195D01*
X146139074Y-103441834D01*
X145992996Y-103502341D01*
X145867554Y-103598595D01*
X145771300Y-103724037D01*
X145710793Y-103870115D01*
X145690154Y-104026877D01*
X141278369Y-104026877D01*
X141199119Y-103923595D01*
X141073677Y-103827341D01*
X140927599Y-103766834D01*
X140770837Y-103746195D01*
X140614074Y-103766834D01*
X140467996Y-103827341D01*
X140342554Y-103923595D01*
X140246300Y-104049037D01*
X140185793Y-104195115D01*
X140165154Y-104351878D01*
X131157675Y-104351878D01*
X131244536Y-104238678D01*
X131305044Y-104092599D01*
X131325682Y-103935837D01*
X131305044Y-103779075D01*
X131244536Y-103632996D01*
X131218139Y-103598595D01*
X131148282Y-103507554D01*
X131022840Y-103411300D01*
X130876762Y-103350793D01*
X130720000Y-103330154D01*
X130563237Y-103350793D01*
X130417159Y-103411300D01*
X130291717Y-103507554D01*
X130195463Y-103632996D01*
X130134956Y-103779074D01*
X130114317Y-103935837D01*
X121475500Y-103935837D01*
X121475500Y-102799999D01*
X125169317Y-102799999D01*
X125189956Y-102956762D01*
X125250463Y-103102840D01*
X125346717Y-103228282D01*
X125472158Y-103324536D01*
X125472159Y-103324536D01*
X125618238Y-103385044D01*
X125754361Y-103402964D01*
X125774999Y-103405682D01*
X125774999Y-103405681D01*
X125775000Y-103405682D01*
X125931762Y-103385044D01*
X126077841Y-103324536D01*
X126203282Y-103228282D01*
X126299536Y-103102841D01*
X126360044Y-102956762D01*
X126380682Y-102800000D01*
X126360044Y-102643238D01*
X126299536Y-102497159D01*
X126203282Y-102371717D01*
X126077840Y-102275463D01*
X125931762Y-102214956D01*
X125774999Y-102194317D01*
X125618237Y-102214956D01*
X125472159Y-102275463D01*
X125346717Y-102371717D01*
X125250463Y-102497159D01*
X125189956Y-102643237D01*
X125169317Y-102799999D01*
X121475500Y-102799999D01*
X121475500Y-100799999D01*
X128569317Y-100799999D01*
X128589956Y-100956762D01*
X128650463Y-101102840D01*
X128746717Y-101228282D01*
X128872158Y-101324536D01*
X128872159Y-101324536D01*
X129018238Y-101385044D01*
X129154360Y-101402964D01*
X129174999Y-101405682D01*
X129174999Y-101405681D01*
X129175000Y-101405682D01*
X129331762Y-101385044D01*
X129477841Y-101324536D01*
X129603282Y-101228282D01*
X129699536Y-101102841D01*
X129760044Y-100956762D01*
X129780682Y-100800000D01*
X129760044Y-100643238D01*
X129699536Y-100497159D01*
X129699535Y-100497159D01*
X129603282Y-100371717D01*
X129477840Y-100275463D01*
X129331762Y-100214956D01*
X129174999Y-100194317D01*
X129018237Y-100214956D01*
X128872159Y-100275463D01*
X128746717Y-100371717D01*
X128650463Y-100497159D01*
X128589956Y-100643237D01*
X128569317Y-100799999D01*
X121475500Y-100799999D01*
X121475500Y-99574999D01*
X135919317Y-99574999D01*
X135939956Y-99731762D01*
X136000463Y-99877840D01*
X136096717Y-100003282D01*
X136222158Y-100099536D01*
X136222159Y-100099536D01*
X136368238Y-100160044D01*
X136525000Y-100180682D01*
X136681762Y-100160044D01*
X136827841Y-100099536D01*
X136953282Y-100003282D01*
X137049536Y-99877841D01*
X137110044Y-99731762D01*
X137130682Y-99575000D01*
X137110044Y-99418238D01*
X137049536Y-99272159D01*
X136995608Y-99201878D01*
X143073752Y-99201878D01*
X143094391Y-99358640D01*
X143154898Y-99504718D01*
X143251152Y-99630160D01*
X143376594Y-99726413D01*
X143376594Y-99726414D01*
X143522673Y-99786922D01*
X143679435Y-99807560D01*
X143836197Y-99786922D01*
X143982276Y-99726414D01*
X144107717Y-99630160D01*
X144203971Y-99504719D01*
X144264479Y-99358640D01*
X144285117Y-99201878D01*
X144264479Y-99045116D01*
X144203971Y-98899037D01*
X144203971Y-98899036D01*
X144107717Y-98773595D01*
X143982275Y-98677341D01*
X143836197Y-98616834D01*
X143679435Y-98596195D01*
X143522672Y-98616834D01*
X143376594Y-98677341D01*
X143251152Y-98773595D01*
X143154898Y-98899037D01*
X143094391Y-99045115D01*
X143073752Y-99201878D01*
X136995608Y-99201878D01*
X136953282Y-99146717D01*
X136827840Y-99050463D01*
X136681762Y-98989956D01*
X136524999Y-98969317D01*
X136368237Y-98989956D01*
X136222159Y-99050463D01*
X136096717Y-99146717D01*
X136000463Y-99272159D01*
X135939956Y-99418237D01*
X135919317Y-99574999D01*
X121475500Y-99574999D01*
X121475500Y-98135837D01*
X140314317Y-98135837D01*
X140334956Y-98292599D01*
X140395463Y-98438677D01*
X140491717Y-98564119D01*
X140617159Y-98660372D01*
X140617159Y-98660373D01*
X140763238Y-98720881D01*
X140920000Y-98741519D01*
X141076762Y-98720881D01*
X141222841Y-98660373D01*
X141348282Y-98564119D01*
X141444536Y-98438678D01*
X141505044Y-98292599D01*
X141525682Y-98135837D01*
X141505044Y-97979075D01*
X141444536Y-97832996D01*
X141444535Y-97832995D01*
X141348282Y-97707554D01*
X141273275Y-97650000D01*
X166075000Y-97650000D01*
X166075000Y-101550000D01*
X169175000Y-101550000D01*
X169175000Y-97650000D01*
X166075000Y-97650000D01*
X141273275Y-97650000D01*
X141222840Y-97611300D01*
X141076762Y-97550793D01*
X140920000Y-97530154D01*
X140763237Y-97550793D01*
X140617159Y-97611300D01*
X140491717Y-97707554D01*
X140395463Y-97832996D01*
X140334956Y-97979074D01*
X140314317Y-98135837D01*
X121475500Y-98135837D01*
X121475500Y-90835837D01*
X155814317Y-90835837D01*
X155834956Y-90992599D01*
X155895463Y-91138677D01*
X155991717Y-91264119D01*
X156117159Y-91360372D01*
X156117159Y-91360373D01*
X156263238Y-91420881D01*
X156420000Y-91441519D01*
X156576762Y-91420881D01*
X156722841Y-91360373D01*
X156848282Y-91264119D01*
X156944536Y-91138678D01*
X157005044Y-90992599D01*
X157025682Y-90835837D01*
X157005044Y-90679075D01*
X156944536Y-90532996D01*
X156944535Y-90532996D01*
X156848282Y-90407554D01*
X156752701Y-90334213D01*
X156711498Y-90277785D01*
X156707343Y-90208039D01*
X156741555Y-90147119D01*
X156752701Y-90137461D01*
X156848282Y-90064119D01*
X156878655Y-90024536D01*
X156944536Y-89938678D01*
X157005044Y-89792599D01*
X157025682Y-89635837D01*
X157005044Y-89479075D01*
X156944536Y-89332996D01*
X156944535Y-89332996D01*
X156848282Y-89207554D01*
X156722843Y-89111302D01*
X156722841Y-89111301D01*
X156696516Y-89100397D01*
X156642116Y-89056558D01*
X156620050Y-88990264D01*
X156637329Y-88922565D01*
X156688465Y-88874954D01*
X156696496Y-88871285D01*
X156722841Y-88860373D01*
X156848282Y-88764119D01*
X156871624Y-88733698D01*
X156928051Y-88692496D01*
X156997797Y-88688341D01*
X157058718Y-88722553D01*
X157068375Y-88733698D01*
X157091718Y-88764119D01*
X157217159Y-88860373D01*
X157363238Y-88920881D01*
X157520000Y-88941519D01*
X157676762Y-88920881D01*
X157822841Y-88860373D01*
X157948282Y-88764119D01*
X158003240Y-88692496D01*
X158021624Y-88668538D01*
X158078052Y-88627335D01*
X158147798Y-88623180D01*
X158208718Y-88657392D01*
X158218376Y-88668538D01*
X158291717Y-88764119D01*
X158417156Y-88860371D01*
X158417159Y-88860373D01*
X158563238Y-88920881D01*
X158720000Y-88941519D01*
X158876762Y-88920881D01*
X159022841Y-88860373D01*
X159148282Y-88764119D01*
X159244536Y-88638678D01*
X159305044Y-88492599D01*
X159325682Y-88335837D01*
X159305044Y-88179075D01*
X159244536Y-88032996D01*
X159206428Y-87983332D01*
X159148282Y-87907554D01*
X159022840Y-87811300D01*
X158876762Y-87750793D01*
X158720000Y-87730154D01*
X158563237Y-87750793D01*
X158417159Y-87811300D01*
X158291719Y-87907553D01*
X158218376Y-88003136D01*
X158161948Y-88044338D01*
X158092202Y-88048493D01*
X158031281Y-88014280D01*
X158021624Y-88003136D01*
X157948280Y-87907553D01*
X157822840Y-87811300D01*
X157676762Y-87750793D01*
X157520000Y-87730154D01*
X157363237Y-87750793D01*
X157217159Y-87811300D01*
X157091719Y-87907553D01*
X157068376Y-87937975D01*
X157011948Y-87979177D01*
X156942201Y-87983332D01*
X156881281Y-87949119D01*
X156871624Y-87937975D01*
X156848280Y-87907553D01*
X156722840Y-87811300D01*
X156576762Y-87750793D01*
X156420000Y-87730154D01*
X156263237Y-87750793D01*
X156117159Y-87811300D01*
X155991717Y-87907554D01*
X155895463Y-88032996D01*
X155834956Y-88179074D01*
X155814317Y-88335836D01*
X155834956Y-88492599D01*
X155895463Y-88638677D01*
X155991717Y-88764119D01*
X156087970Y-88837976D01*
X156117159Y-88860373D01*
X156141292Y-88870369D01*
X156143481Y-88871276D01*
X156197884Y-88915117D01*
X156219949Y-88981411D01*
X156202670Y-89049110D01*
X156151533Y-89096721D01*
X156143481Y-89100398D01*
X156117158Y-89111301D01*
X155991717Y-89207554D01*
X155895463Y-89332996D01*
X155834956Y-89479074D01*
X155814317Y-89635837D01*
X155834956Y-89792599D01*
X155895463Y-89938677D01*
X155895464Y-89938678D01*
X155991718Y-90064119D01*
X156018987Y-90085043D01*
X156087299Y-90137461D01*
X156128501Y-90193889D01*
X156132656Y-90263635D01*
X156098443Y-90324556D01*
X156087299Y-90334213D01*
X155991716Y-90407556D01*
X155895463Y-90532996D01*
X155834956Y-90679074D01*
X155814317Y-90835837D01*
X121475500Y-90835837D01*
X121475500Y-89500000D01*
X125494317Y-89500000D01*
X125514956Y-89656762D01*
X125575463Y-89802840D01*
X125671717Y-89928282D01*
X125797158Y-90024536D01*
X125797159Y-90024536D01*
X125943238Y-90085044D01*
X126100000Y-90105682D01*
X126256762Y-90085044D01*
X126402841Y-90024536D01*
X126528282Y-89928282D01*
X126624536Y-89802841D01*
X126685044Y-89656762D01*
X126705682Y-89500000D01*
X126705682Y-89499999D01*
X127194317Y-89499999D01*
X127214956Y-89656762D01*
X127275463Y-89802840D01*
X127371717Y-89928282D01*
X127497158Y-90024536D01*
X127497159Y-90024536D01*
X127643238Y-90085044D01*
X127800000Y-90105682D01*
X127956762Y-90085044D01*
X128102841Y-90024536D01*
X128228282Y-89928282D01*
X128324536Y-89802841D01*
X128385044Y-89656762D01*
X128405682Y-89500000D01*
X128385044Y-89343238D01*
X128324536Y-89197159D01*
X128258656Y-89111302D01*
X128228282Y-89071717D01*
X128102840Y-88975463D01*
X127956762Y-88914956D01*
X127800000Y-88894317D01*
X127643237Y-88914956D01*
X127497159Y-88975463D01*
X127371717Y-89071717D01*
X127275463Y-89197159D01*
X127214956Y-89343237D01*
X127194317Y-89499999D01*
X126705682Y-89499999D01*
X126685044Y-89343238D01*
X126624536Y-89197159D01*
X126558656Y-89111302D01*
X126528282Y-89071717D01*
X126402840Y-88975463D01*
X126256762Y-88914956D01*
X126100000Y-88894317D01*
X125943237Y-88914956D01*
X125797159Y-88975463D01*
X125671717Y-89071717D01*
X125575463Y-89197159D01*
X125514956Y-89343237D01*
X125494317Y-89500000D01*
X121475500Y-89500000D01*
X121475500Y-86300000D01*
X169469317Y-86300000D01*
X169489956Y-86456762D01*
X169550463Y-86602840D01*
X169646717Y-86728282D01*
X169772158Y-86824536D01*
X169772159Y-86824536D01*
X169918238Y-86885044D01*
X170054360Y-86902964D01*
X170074999Y-86905682D01*
X170074999Y-86905681D01*
X170075000Y-86905682D01*
X170231762Y-86885044D01*
X170377841Y-86824536D01*
X170503282Y-86728282D01*
X170599536Y-86602841D01*
X170660044Y-86456762D01*
X170680682Y-86300000D01*
X170660044Y-86143238D01*
X170599536Y-85997159D01*
X170599535Y-85997159D01*
X170503282Y-85871717D01*
X170377840Y-85775463D01*
X170231762Y-85714956D01*
X170075000Y-85694317D01*
X169918237Y-85714956D01*
X169772159Y-85775463D01*
X169646717Y-85871717D01*
X169550463Y-85997159D01*
X169489956Y-86143237D01*
X169469317Y-86300000D01*
X121475500Y-86300000D01*
X121475500Y-83800000D01*
X125394317Y-83800000D01*
X125414956Y-83956762D01*
X125475463Y-84102840D01*
X125571717Y-84228282D01*
X125697159Y-84324535D01*
X125697159Y-84324536D01*
X125843238Y-84385044D01*
X126000000Y-84405682D01*
X126156762Y-84385044D01*
X126302841Y-84324536D01*
X126428282Y-84228282D01*
X126524536Y-84102841D01*
X126585044Y-83956762D01*
X126605682Y-83800000D01*
X126605682Y-83799999D01*
X138494317Y-83799999D01*
X138514956Y-83956762D01*
X138575463Y-84102840D01*
X138671717Y-84228282D01*
X138797159Y-84324535D01*
X138797159Y-84324536D01*
X138943238Y-84385044D01*
X139100000Y-84405682D01*
X139256762Y-84385044D01*
X139402841Y-84324536D01*
X139528282Y-84228282D01*
X139624536Y-84102841D01*
X139685044Y-83956762D01*
X139692517Y-83900000D01*
X140369317Y-83900000D01*
X140389956Y-84056762D01*
X140450463Y-84202840D01*
X140546717Y-84328282D01*
X140647588Y-84405682D01*
X140672159Y-84424536D01*
X140818238Y-84485044D01*
X140954360Y-84502964D01*
X140974999Y-84505682D01*
X140974999Y-84505681D01*
X140975000Y-84505682D01*
X141131762Y-84485044D01*
X141277841Y-84424536D01*
X141403282Y-84328282D01*
X141499536Y-84202841D01*
X141560044Y-84056762D01*
X141580682Y-83900000D01*
X141560044Y-83743238D01*
X141499536Y-83597159D01*
X141422804Y-83497159D01*
X141403282Y-83471717D01*
X141277840Y-83375463D01*
X141131762Y-83314956D01*
X140974999Y-83294317D01*
X140818237Y-83314956D01*
X140672159Y-83375463D01*
X140546717Y-83471717D01*
X140450463Y-83597159D01*
X140389956Y-83743237D01*
X140369317Y-83900000D01*
X139692517Y-83900000D01*
X139705682Y-83800000D01*
X139685044Y-83643238D01*
X139624536Y-83497159D01*
X139624536Y-83497158D01*
X139528282Y-83371717D01*
X139402840Y-83275463D01*
X139256762Y-83214956D01*
X139100000Y-83194317D01*
X138943237Y-83214956D01*
X138797159Y-83275463D01*
X138671717Y-83371717D01*
X138575463Y-83497159D01*
X138514956Y-83643237D01*
X138494317Y-83799999D01*
X126605682Y-83799999D01*
X126585044Y-83643238D01*
X126524536Y-83497159D01*
X126524535Y-83497159D01*
X126428282Y-83371717D01*
X126302840Y-83275463D01*
X126156762Y-83214956D01*
X126000000Y-83194317D01*
X125843237Y-83214956D01*
X125697159Y-83275463D01*
X125571717Y-83371717D01*
X125475463Y-83497159D01*
X125414956Y-83643237D01*
X125394317Y-83800000D01*
X121475500Y-83800000D01*
X121475500Y-82500000D01*
X141869317Y-82500000D01*
X141889956Y-82656762D01*
X141950463Y-82802840D01*
X142046717Y-82928282D01*
X142172156Y-83024534D01*
X142172159Y-83024536D01*
X142318238Y-83085044D01*
X142356494Y-83090080D01*
X142420390Y-83118346D01*
X142458861Y-83176670D01*
X142459693Y-83246535D01*
X142422620Y-83305759D01*
X142387761Y-83327580D01*
X142272158Y-83375464D01*
X142146717Y-83471717D01*
X142050463Y-83597159D01*
X141989956Y-83743237D01*
X141969317Y-83900000D01*
X141989956Y-84056762D01*
X142050463Y-84202840D01*
X142146717Y-84328282D01*
X142247588Y-84405682D01*
X142272159Y-84424536D01*
X142418238Y-84485044D01*
X142554360Y-84502964D01*
X142574999Y-84505682D01*
X142574999Y-84505681D01*
X142575000Y-84505682D01*
X142731762Y-84485044D01*
X142877841Y-84424536D01*
X143003282Y-84328282D01*
X143099536Y-84202841D01*
X143160044Y-84056762D01*
X143180682Y-83900000D01*
X143160044Y-83743238D01*
X143099536Y-83597159D01*
X143022804Y-83497159D01*
X143003282Y-83471717D01*
X142877840Y-83375463D01*
X142731762Y-83314956D01*
X142693504Y-83309919D01*
X142629608Y-83281652D01*
X142591138Y-83223327D01*
X142590307Y-83153462D01*
X142627380Y-83094239D01*
X142662229Y-83072423D01*
X142777841Y-83024536D01*
X142903282Y-82928282D01*
X142999536Y-82802841D01*
X143060044Y-82656762D01*
X143080682Y-82500000D01*
X143060044Y-82343238D01*
X142999536Y-82197159D01*
X142999535Y-82197159D01*
X142903282Y-82071717D01*
X142777840Y-81975463D01*
X142631762Y-81914956D01*
X142475000Y-81894317D01*
X142318237Y-81914956D01*
X142172159Y-81975463D01*
X142046717Y-82071717D01*
X141950463Y-82197159D01*
X141889956Y-82343237D01*
X141869317Y-82500000D01*
X121475500Y-82500000D01*
X121475500Y-81800000D01*
X145419317Y-81800000D01*
X145439956Y-81956762D01*
X145500463Y-82102840D01*
X145596717Y-82228282D01*
X145722158Y-82324536D01*
X145722159Y-82324536D01*
X145868238Y-82385044D01*
X146025000Y-82405682D01*
X146181762Y-82385044D01*
X146327841Y-82324536D01*
X146453282Y-82228282D01*
X146549536Y-82102841D01*
X146610044Y-81956762D01*
X146630682Y-81800000D01*
X146610044Y-81643238D01*
X146549536Y-81497159D01*
X146453282Y-81371717D01*
X146327840Y-81275463D01*
X146181762Y-81214956D01*
X146025000Y-81194317D01*
X145868237Y-81214956D01*
X145722159Y-81275463D01*
X145596717Y-81371717D01*
X145500463Y-81497159D01*
X145439956Y-81643237D01*
X145419317Y-81800000D01*
X121475500Y-81800000D01*
X121475500Y-80249999D01*
X142019317Y-80249999D01*
X142039956Y-80406762D01*
X142100463Y-80552840D01*
X142196717Y-80678282D01*
X142322159Y-80774536D01*
X142468238Y-80835044D01*
X142604360Y-80852964D01*
X142624999Y-80855682D01*
X142624999Y-80855681D01*
X142625000Y-80855682D01*
X142781762Y-80835044D01*
X142927841Y-80774536D01*
X143053282Y-80678282D01*
X143149536Y-80552841D01*
X143210044Y-80406762D01*
X143230682Y-80250000D01*
X143210044Y-80093238D01*
X143149536Y-79947159D01*
X143149535Y-79947159D01*
X143053282Y-79821717D01*
X142927840Y-79725463D01*
X142781762Y-79664956D01*
X142625000Y-79644317D01*
X142468237Y-79664956D01*
X142322159Y-79725463D01*
X142196717Y-79821717D01*
X142100463Y-79947159D01*
X142039956Y-80093237D01*
X142019317Y-80249999D01*
X121475500Y-80249999D01*
X121475500Y-77499999D01*
X123194317Y-77499999D01*
X123214956Y-77656762D01*
X123275463Y-77802840D01*
X123371717Y-77928282D01*
X123497159Y-78024535D01*
X123497159Y-78024536D01*
X123643238Y-78085044D01*
X123800000Y-78105682D01*
X123956762Y-78085044D01*
X124102841Y-78024536D01*
X124228282Y-77928282D01*
X124324536Y-77802841D01*
X124385044Y-77656762D01*
X124405682Y-77500000D01*
X124385044Y-77343238D01*
X124324536Y-77197159D01*
X124307177Y-77174536D01*
X124228282Y-77071717D01*
X124102840Y-76975463D01*
X123956762Y-76914956D01*
X123800000Y-76894317D01*
X123643237Y-76914956D01*
X123497159Y-76975463D01*
X123371717Y-77071717D01*
X123275463Y-77197159D01*
X123214956Y-77343237D01*
X123194317Y-77499999D01*
X121475500Y-77499999D01*
X121475500Y-76590000D01*
X141174317Y-76590000D01*
X141194956Y-76746762D01*
X141255463Y-76892840D01*
X141351717Y-77018282D01*
X141477158Y-77114536D01*
X141477159Y-77114536D01*
X141623238Y-77175044D01*
X141780000Y-77195682D01*
X141936762Y-77175044D01*
X142082841Y-77114536D01*
X142208282Y-77018282D01*
X142211277Y-77014378D01*
X142267700Y-76973176D01*
X142337446Y-76969019D01*
X142398368Y-77003229D01*
X142408029Y-77014378D01*
X142441717Y-77058282D01*
X142567158Y-77154536D01*
X142567159Y-77154536D01*
X142713238Y-77215044D01*
X142870000Y-77235682D01*
X143026762Y-77215044D01*
X143172841Y-77154536D01*
X143298282Y-77058282D01*
X143333952Y-77011795D01*
X143390376Y-76970595D01*
X143460122Y-76966439D01*
X143521043Y-77000650D01*
X143530702Y-77011797D01*
X143581717Y-77078282D01*
X143628965Y-77114536D01*
X143707159Y-77174536D01*
X143853238Y-77235044D01*
X144010000Y-77255682D01*
X144166762Y-77235044D01*
X144312841Y-77174536D01*
X144438282Y-77078282D01*
X144534536Y-76952841D01*
X144595044Y-76806762D01*
X144615682Y-76650000D01*
X144595044Y-76493238D01*
X144534536Y-76347159D01*
X144508755Y-76313560D01*
X144438282Y-76221717D01*
X144312840Y-76125463D01*
X144166762Y-76064956D01*
X144010000Y-76044317D01*
X143853237Y-76064956D01*
X143707159Y-76125463D01*
X143581719Y-76221716D01*
X143546049Y-76268203D01*
X143489621Y-76309405D01*
X143419875Y-76313560D01*
X143358954Y-76279348D01*
X143349297Y-76268202D01*
X143298282Y-76201717D01*
X143172840Y-76105463D01*
X143026762Y-76044956D01*
X142870000Y-76024317D01*
X142713237Y-76044956D01*
X142567159Y-76105463D01*
X142441717Y-76201718D01*
X142438720Y-76205624D01*
X142382291Y-76246825D01*
X142312545Y-76250978D01*
X142251625Y-76216764D01*
X142241970Y-76205621D01*
X142208282Y-76161717D01*
X142082840Y-76065463D01*
X141936762Y-76004956D01*
X141779999Y-75984317D01*
X141623237Y-76004956D01*
X141477159Y-76065463D01*
X141351717Y-76161717D01*
X141255463Y-76287159D01*
X141194956Y-76433237D01*
X141174317Y-76590000D01*
X121475500Y-76590000D01*
X121475500Y-74780000D01*
X148834317Y-74780000D01*
X148854956Y-74936762D01*
X148915463Y-75082840D01*
X148965113Y-75147546D01*
X148990307Y-75212715D01*
X148976268Y-75281160D01*
X148965114Y-75298517D01*
X148935463Y-75337159D01*
X148874956Y-75483237D01*
X148854317Y-75640000D01*
X148874956Y-75796762D01*
X148935463Y-75942840D01*
X149031717Y-76068282D01*
X149157158Y-76164535D01*
X149157159Y-76164536D01*
X149303238Y-76225044D01*
X149460000Y-76245682D01*
X149616762Y-76225044D01*
X149762841Y-76164536D01*
X149888282Y-76068282D01*
X149984536Y-75942841D01*
X150045044Y-75796762D01*
X150065682Y-75640000D01*
X150057783Y-75580000D01*
X166219417Y-75580000D01*
X166239699Y-75785932D01*
X166269734Y-75884944D01*
X166287296Y-75942840D01*
X166299769Y-75983956D01*
X166332375Y-76044956D01*
X166397315Y-76166450D01*
X166442670Y-76221716D01*
X166528589Y-76326410D01*
X166608570Y-76392047D01*
X166688550Y-76457685D01*
X166871046Y-76555232D01*
X167069066Y-76615300D01*
X167275000Y-76635583D01*
X167480934Y-76615300D01*
X167678954Y-76555232D01*
X167861450Y-76457685D01*
X168021410Y-76326410D01*
X168152685Y-76166450D01*
X168250232Y-75983954D01*
X168310300Y-75785934D01*
X168330583Y-75580000D01*
X168310300Y-75374066D01*
X168250232Y-75176046D01*
X168152685Y-74993550D01*
X168087047Y-74913570D01*
X168021410Y-74833589D01*
X167923952Y-74753608D01*
X167861450Y-74702315D01*
X167678954Y-74604768D01*
X167579944Y-74574733D01*
X167480932Y-74544699D01*
X167297497Y-74526632D01*
X167275000Y-74524417D01*
X167274999Y-74524417D01*
X167069067Y-74544699D01*
X166871043Y-74604769D01*
X166688551Y-74702314D01*
X166528589Y-74833589D01*
X166397314Y-74993551D01*
X166299769Y-75176043D01*
X166239699Y-75374067D01*
X166219417Y-75580000D01*
X150057783Y-75580000D01*
X150045044Y-75483238D01*
X149984536Y-75337159D01*
X149941567Y-75281160D01*
X149934886Y-75272453D01*
X149909692Y-75207284D01*
X149923730Y-75138839D01*
X149934887Y-75121480D01*
X149964536Y-75082841D01*
X150025044Y-74936762D01*
X150045682Y-74780000D01*
X150025044Y-74623238D01*
X149964536Y-74477159D01*
X149964535Y-74477158D01*
X149868282Y-74351717D01*
X149742840Y-74255463D01*
X149596762Y-74194956D01*
X149440000Y-74174317D01*
X149283237Y-74194956D01*
X149137159Y-74255463D01*
X149011717Y-74351717D01*
X148915463Y-74477159D01*
X148854956Y-74623237D01*
X148834317Y-74780000D01*
X121475500Y-74780000D01*
X121475500Y-73049999D01*
X138419317Y-73049999D01*
X138439956Y-73206762D01*
X138500463Y-73352840D01*
X138596717Y-73478282D01*
X138722159Y-73574536D01*
X138868238Y-73635044D01*
X139004360Y-73652964D01*
X139024999Y-73655682D01*
X139024999Y-73655681D01*
X139025000Y-73655682D01*
X139181762Y-73635044D01*
X139327841Y-73574536D01*
X139453282Y-73478282D01*
X139549536Y-73352841D01*
X139610044Y-73206762D01*
X139630682Y-73050000D01*
X139629365Y-73040000D01*
X139625190Y-73008282D01*
X139610044Y-72893238D01*
X139549536Y-72747159D01*
X139541558Y-72736762D01*
X139453282Y-72621717D01*
X139398915Y-72580000D01*
X150124317Y-72580000D01*
X150144956Y-72736762D01*
X150205463Y-72882840D01*
X150301717Y-73008282D01*
X150356086Y-73050000D01*
X150427159Y-73104536D01*
X150573238Y-73165044D01*
X150730000Y-73185682D01*
X150886762Y-73165044D01*
X151032841Y-73104536D01*
X151116947Y-73039999D01*
X166219417Y-73039999D01*
X166239699Y-73245932D01*
X166239700Y-73245934D01*
X166299768Y-73443954D01*
X166397315Y-73626450D01*
X166404368Y-73635044D01*
X166528589Y-73786410D01*
X166608570Y-73852047D01*
X166688550Y-73917685D01*
X166871046Y-74015232D01*
X167069066Y-74075300D01*
X167275000Y-74095583D01*
X167480934Y-74075300D01*
X167678954Y-74015232D01*
X167861450Y-73917685D01*
X168021410Y-73786410D01*
X168152685Y-73626450D01*
X168250232Y-73443954D01*
X168310300Y-73245934D01*
X168330583Y-73040000D01*
X168310300Y-72834066D01*
X168250232Y-72636046D01*
X168152685Y-72453550D01*
X168070035Y-72352840D01*
X168021410Y-72293589D01*
X167915609Y-72206762D01*
X167861450Y-72162315D01*
X167678954Y-72064768D01*
X167579944Y-72034733D01*
X167480932Y-72004699D01*
X167275000Y-71984417D01*
X167069067Y-72004699D01*
X166871043Y-72064769D01*
X166688551Y-72162314D01*
X166528589Y-72293589D01*
X166397314Y-72453551D01*
X166299769Y-72636043D01*
X166239699Y-72834067D01*
X166219417Y-73039999D01*
X151116947Y-73039999D01*
X151158282Y-73008282D01*
X151254536Y-72882841D01*
X151315044Y-72736762D01*
X151335682Y-72580000D01*
X151315044Y-72423238D01*
X151254536Y-72277159D01*
X151200519Y-72206762D01*
X151158282Y-72151717D01*
X151032840Y-72055463D01*
X150886762Y-71994956D01*
X150729999Y-71974317D01*
X150573237Y-71994956D01*
X150427159Y-72055463D01*
X150301717Y-72151717D01*
X150205463Y-72277159D01*
X150144956Y-72423237D01*
X150124317Y-72580000D01*
X139398915Y-72580000D01*
X139327840Y-72525463D01*
X139181762Y-72464956D01*
X139025000Y-72444317D01*
X138868237Y-72464956D01*
X138722159Y-72525463D01*
X138596717Y-72621717D01*
X138500463Y-72747159D01*
X138439956Y-72893237D01*
X138419317Y-73049999D01*
X121475500Y-73049999D01*
X121475500Y-72050000D01*
X136919317Y-72050000D01*
X136939956Y-72206762D01*
X137000463Y-72352840D01*
X137096717Y-72478282D01*
X137222159Y-72574536D01*
X137368238Y-72635044D01*
X137504361Y-72652964D01*
X137524999Y-72655682D01*
X137524999Y-72655681D01*
X137525000Y-72655682D01*
X137681762Y-72635044D01*
X137827841Y-72574536D01*
X137953282Y-72478282D01*
X138049536Y-72352841D01*
X138110044Y-72206762D01*
X138130682Y-72050000D01*
X138110044Y-71893238D01*
X138049536Y-71747159D01*
X137953282Y-71621717D01*
X137827840Y-71525463D01*
X137681762Y-71464956D01*
X137525000Y-71444317D01*
X137368237Y-71464956D01*
X137222159Y-71525463D01*
X137096717Y-71621717D01*
X137000463Y-71747159D01*
X136939956Y-71893237D01*
X136919317Y-72050000D01*
X121475500Y-72050000D01*
X121475500Y-70899999D01*
X129669317Y-70899999D01*
X129689956Y-71056762D01*
X129750463Y-71202840D01*
X129846717Y-71328282D01*
X129947588Y-71405682D01*
X129972159Y-71424536D01*
X130118238Y-71485044D01*
X130254361Y-71502964D01*
X130274999Y-71505682D01*
X130274999Y-71505681D01*
X130275000Y-71505682D01*
X130431762Y-71485044D01*
X130577841Y-71424536D01*
X130703282Y-71328282D01*
X130799536Y-71202841D01*
X130860044Y-71056762D01*
X130880682Y-70900000D01*
X130867517Y-70800000D01*
X135919317Y-70800000D01*
X135939956Y-70956762D01*
X136000463Y-71102840D01*
X136096717Y-71228282D01*
X136222158Y-71324536D01*
X136222159Y-71324536D01*
X136368238Y-71385044D01*
X136525000Y-71405682D01*
X136681762Y-71385044D01*
X136718690Y-71369748D01*
X166224500Y-71369748D01*
X166236132Y-71428230D01*
X166280447Y-71494552D01*
X166346769Y-71538867D01*
X166405251Y-71550500D01*
X166405252Y-71550500D01*
X168144749Y-71550500D01*
X168173989Y-71544683D01*
X168203231Y-71538867D01*
X168269552Y-71494552D01*
X168313867Y-71428231D01*
X168325500Y-71369748D01*
X168325500Y-69630252D01*
X168313867Y-69571769D01*
X168313866Y-69571768D01*
X168269552Y-69505447D01*
X168203230Y-69461132D01*
X168144749Y-69449500D01*
X168144748Y-69449500D01*
X166405252Y-69449500D01*
X166405251Y-69449500D01*
X166346769Y-69461132D01*
X166280447Y-69505447D01*
X166236132Y-69571769D01*
X166224500Y-69630251D01*
X166224500Y-71369748D01*
X136718690Y-71369748D01*
X136827841Y-71324536D01*
X136953282Y-71228282D01*
X137049536Y-71102841D01*
X137110044Y-70956762D01*
X137130682Y-70800000D01*
X137110044Y-70643238D01*
X137049536Y-70497159D01*
X136953282Y-70371717D01*
X136827840Y-70275463D01*
X136681762Y-70214956D01*
X136525000Y-70194317D01*
X136368237Y-70214956D01*
X136222159Y-70275463D01*
X136096717Y-70371717D01*
X136000463Y-70497159D01*
X135939956Y-70643237D01*
X135919317Y-70800000D01*
X130867517Y-70800000D01*
X130860044Y-70743238D01*
X130799536Y-70597159D01*
X130722804Y-70497159D01*
X130703282Y-70471717D01*
X130577840Y-70375463D01*
X130431762Y-70314956D01*
X130275000Y-70294317D01*
X130118237Y-70314956D01*
X129972159Y-70375463D01*
X129846717Y-70471717D01*
X129750463Y-70597159D01*
X129689956Y-70743237D01*
X129669317Y-70899999D01*
X121475500Y-70899999D01*
X121475500Y-67100000D01*
X132519317Y-67100000D01*
X132539956Y-67256762D01*
X132600463Y-67402840D01*
X132696717Y-67528282D01*
X132822158Y-67624536D01*
X132822159Y-67624536D01*
X132968238Y-67685044D01*
X133125000Y-67705682D01*
X133281762Y-67685044D01*
X133427841Y-67624536D01*
X133553282Y-67528282D01*
X133649536Y-67402841D01*
X133710044Y-67256762D01*
X133730682Y-67100000D01*
X133710044Y-66943238D01*
X133649536Y-66797159D01*
X133649536Y-66797158D01*
X133553282Y-66671717D01*
X133427840Y-66575463D01*
X133281762Y-66514956D01*
X133125000Y-66494317D01*
X132968237Y-66514956D01*
X132822159Y-66575463D01*
X132696717Y-66671717D01*
X132600463Y-66797159D01*
X132539956Y-66943237D01*
X132519317Y-67100000D01*
X121475500Y-67100000D01*
X121475500Y-66069748D01*
X152324500Y-66069748D01*
X152336132Y-66128230D01*
X152380447Y-66194552D01*
X152446769Y-66238867D01*
X152505251Y-66250500D01*
X152505252Y-66250500D01*
X156044749Y-66250500D01*
X156073989Y-66244683D01*
X156103231Y-66238867D01*
X156169552Y-66194552D01*
X156213867Y-66128231D01*
X156225500Y-66069748D01*
X156225500Y-62530252D01*
X156213867Y-62471769D01*
X156213866Y-62471768D01*
X156169552Y-62405447D01*
X156103230Y-62361132D01*
X156044749Y-62349500D01*
X156044748Y-62349500D01*
X152505252Y-62349500D01*
X152505251Y-62349500D01*
X152446769Y-62361132D01*
X152380447Y-62405447D01*
X152336132Y-62471769D01*
X152324500Y-62530251D01*
X152324500Y-66069748D01*
X121475500Y-66069748D01*
X121475500Y-64850000D01*
X145869317Y-64850000D01*
X145889956Y-65006762D01*
X145950463Y-65152840D01*
X146046717Y-65278282D01*
X146172158Y-65374536D01*
X146172159Y-65374536D01*
X146318238Y-65435044D01*
X146475000Y-65455682D01*
X146631762Y-65435044D01*
X146777841Y-65374536D01*
X146903282Y-65278282D01*
X146999536Y-65152841D01*
X147060044Y-65006762D01*
X147080682Y-64850000D01*
X147060044Y-64693238D01*
X146999536Y-64547159D01*
X146999535Y-64547159D01*
X146903282Y-64421717D01*
X146777840Y-64325463D01*
X146631762Y-64264956D01*
X146475000Y-64244317D01*
X146318237Y-64264956D01*
X146172159Y-64325463D01*
X146046717Y-64421717D01*
X145950463Y-64547159D01*
X145889956Y-64693237D01*
X145869317Y-64850000D01*
X121475500Y-64850000D01*
X121475500Y-60800000D01*
X122869506Y-60800000D01*
X122869688Y-60803356D01*
X122889286Y-61164835D01*
X122889287Y-61164846D01*
X122889469Y-61168199D01*
X122890013Y-61171520D01*
X122890014Y-61171525D01*
X122942756Y-61493237D01*
X122949125Y-61532081D01*
X123047773Y-61887379D01*
X123049015Y-61890496D01*
X123049018Y-61890505D01*
X123183012Y-62226806D01*
X123184257Y-62229930D01*
X123185827Y-62232892D01*
X123185832Y-62232902D01*
X123277310Y-62405447D01*
X123356978Y-62555716D01*
X123563910Y-62860917D01*
X123802627Y-63141956D01*
X123805058Y-63144259D01*
X123805064Y-63144265D01*
X124067889Y-63393226D01*
X124070330Y-63395538D01*
X124073006Y-63397572D01*
X124361202Y-63616654D01*
X124361208Y-63616658D01*
X124363881Y-63618690D01*
X124679838Y-63808795D01*
X125014497Y-63963625D01*
X125363934Y-64081364D01*
X125724052Y-64160632D01*
X126090630Y-64200500D01*
X126093988Y-64200500D01*
X126456012Y-64200500D01*
X126459370Y-64200500D01*
X126825948Y-64160632D01*
X127186066Y-64081364D01*
X127535503Y-63963625D01*
X127870162Y-63808795D01*
X128186119Y-63618690D01*
X128479670Y-63395538D01*
X128747373Y-63141956D01*
X128986090Y-62860917D01*
X129193022Y-62555716D01*
X129365743Y-62229930D01*
X129502227Y-61887379D01*
X129568135Y-61650000D01*
X135369317Y-61650000D01*
X135389956Y-61806762D01*
X135450463Y-61952840D01*
X135546717Y-62078282D01*
X135672159Y-62174536D01*
X135818238Y-62235044D01*
X135975000Y-62255682D01*
X136131762Y-62235044D01*
X136277841Y-62174536D01*
X136403282Y-62078282D01*
X136499536Y-61952841D01*
X136560044Y-61806762D01*
X136580682Y-61650000D01*
X136574099Y-61600000D01*
X139069317Y-61600000D01*
X139089956Y-61756762D01*
X139150463Y-61902840D01*
X139246717Y-62028282D01*
X139311879Y-62078282D01*
X139372159Y-62124536D01*
X139518238Y-62185044D01*
X139654361Y-62202964D01*
X139674999Y-62205682D01*
X139674999Y-62205681D01*
X139675000Y-62205682D01*
X139831762Y-62185044D01*
X139977841Y-62124536D01*
X140103282Y-62028282D01*
X140199536Y-61902841D01*
X140260044Y-61756762D01*
X140280682Y-61600000D01*
X140260044Y-61443238D01*
X140199536Y-61297159D01*
X140199535Y-61297159D01*
X140103282Y-61171717D01*
X139977840Y-61075463D01*
X139831762Y-61014956D01*
X139675000Y-60994317D01*
X139518237Y-61014956D01*
X139372159Y-61075463D01*
X139246717Y-61171717D01*
X139150463Y-61297159D01*
X139089956Y-61443237D01*
X139069317Y-61600000D01*
X136574099Y-61600000D01*
X136560044Y-61493238D01*
X136499536Y-61347159D01*
X136461170Y-61297159D01*
X136403282Y-61221717D01*
X136277840Y-61125463D01*
X136131762Y-61064956D01*
X135975000Y-61044317D01*
X135818237Y-61064956D01*
X135672159Y-61125463D01*
X135546717Y-61221717D01*
X135450463Y-61347159D01*
X135389956Y-61493237D01*
X135369317Y-61650000D01*
X129568135Y-61650000D01*
X129600875Y-61532081D01*
X129660531Y-61168199D01*
X129680494Y-60800000D01*
X164869506Y-60800000D01*
X164869688Y-60803356D01*
X164889286Y-61164835D01*
X164889287Y-61164846D01*
X164889469Y-61168199D01*
X164890013Y-61171520D01*
X164890014Y-61171525D01*
X164942756Y-61493237D01*
X164949125Y-61532081D01*
X165047773Y-61887379D01*
X165049015Y-61890496D01*
X165049018Y-61890505D01*
X165183012Y-62226806D01*
X165184257Y-62229930D01*
X165185827Y-62232892D01*
X165185832Y-62232902D01*
X165277310Y-62405447D01*
X165356978Y-62555716D01*
X165563910Y-62860917D01*
X165802627Y-63141956D01*
X165805058Y-63144259D01*
X165805064Y-63144265D01*
X166067889Y-63393226D01*
X166070330Y-63395538D01*
X166073006Y-63397572D01*
X166361202Y-63616654D01*
X166361208Y-63616658D01*
X166363881Y-63618690D01*
X166679838Y-63808795D01*
X167014497Y-63963625D01*
X167363934Y-64081364D01*
X167724052Y-64160632D01*
X168090630Y-64200500D01*
X168093988Y-64200500D01*
X168456012Y-64200500D01*
X168459370Y-64200500D01*
X168825948Y-64160632D01*
X169186066Y-64081364D01*
X169535503Y-63963625D01*
X169870162Y-63808795D01*
X170186119Y-63618690D01*
X170479670Y-63395538D01*
X170747373Y-63141956D01*
X170986090Y-62860917D01*
X171193022Y-62555716D01*
X171365743Y-62229930D01*
X171502227Y-61887379D01*
X171600875Y-61532081D01*
X171660531Y-61168199D01*
X171680494Y-60800000D01*
X171660531Y-60431801D01*
X171600875Y-60067919D01*
X171502227Y-59712621D01*
X171365743Y-59370070D01*
X171193022Y-59044284D01*
X170986090Y-58739083D01*
X170747373Y-58458044D01*
X170744940Y-58455739D01*
X170744935Y-58455734D01*
X170482110Y-58206773D01*
X170482107Y-58206770D01*
X170479670Y-58204462D01*
X170474932Y-58200860D01*
X170188797Y-57983345D01*
X170188787Y-57983338D01*
X170186119Y-57981310D01*
X169870162Y-57791205D01*
X169535503Y-57636375D01*
X169445393Y-57606013D01*
X169189249Y-57519708D01*
X169189240Y-57519705D01*
X169186066Y-57518636D01*
X169182798Y-57517916D01*
X169182785Y-57517913D01*
X168829235Y-57440091D01*
X168829225Y-57440089D01*
X168825948Y-57439368D01*
X168459370Y-57399500D01*
X168090630Y-57399500D01*
X168087293Y-57399862D01*
X168087291Y-57399863D01*
X167727398Y-57439004D01*
X167727396Y-57439004D01*
X167724052Y-57439368D01*
X167720777Y-57440088D01*
X167720764Y-57440091D01*
X167367214Y-57517913D01*
X167367196Y-57517917D01*
X167363934Y-57518636D01*
X167360763Y-57519704D01*
X167360750Y-57519708D01*
X167017684Y-57635301D01*
X167017681Y-57635302D01*
X167014497Y-57636375D01*
X167011448Y-57637785D01*
X167011442Y-57637788D01*
X166682893Y-57789791D01*
X166682884Y-57789795D01*
X166679838Y-57791205D01*
X166676963Y-57792934D01*
X166676955Y-57792939D01*
X166366762Y-57979576D01*
X166366754Y-57979580D01*
X166363881Y-57981310D01*
X166361220Y-57983332D01*
X166361202Y-57983345D01*
X166073006Y-58202427D01*
X166072997Y-58202434D01*
X166070330Y-58204462D01*
X166067901Y-58206762D01*
X166067889Y-58206773D01*
X165805064Y-58455734D01*
X165805049Y-58455749D01*
X165802627Y-58458044D01*
X165800464Y-58460589D01*
X165800453Y-58460602D01*
X165566083Y-58736524D01*
X165566077Y-58736531D01*
X165563910Y-58739083D01*
X165562029Y-58741855D01*
X165562023Y-58741865D01*
X165358868Y-59041496D01*
X165356978Y-59044284D01*
X165355403Y-59047254D01*
X165355401Y-59047258D01*
X165185832Y-59367097D01*
X165185823Y-59367114D01*
X165184257Y-59370070D01*
X165183016Y-59373182D01*
X165183012Y-59373193D01*
X165049018Y-59709494D01*
X165049013Y-59709508D01*
X165047773Y-59712621D01*
X164949125Y-60067919D01*
X164948581Y-60071236D01*
X164948579Y-60071246D01*
X164890014Y-60428474D01*
X164889469Y-60431801D01*
X164889287Y-60435151D01*
X164889286Y-60435164D01*
X164869688Y-60796643D01*
X164869506Y-60800000D01*
X129680494Y-60800000D01*
X129660531Y-60431801D01*
X129600875Y-60067919D01*
X129502227Y-59712621D01*
X129365743Y-59370070D01*
X129193022Y-59044284D01*
X128986090Y-58739083D01*
X128747373Y-58458044D01*
X128744940Y-58455739D01*
X128744935Y-58455734D01*
X128482110Y-58206773D01*
X128482107Y-58206770D01*
X128479670Y-58204462D01*
X128474932Y-58200860D01*
X128188797Y-57983345D01*
X128188787Y-57983338D01*
X128186119Y-57981310D01*
X127870162Y-57791205D01*
X127535503Y-57636375D01*
X127445393Y-57606013D01*
X127189249Y-57519708D01*
X127189240Y-57519705D01*
X127186066Y-57518636D01*
X127182798Y-57517916D01*
X127182785Y-57517913D01*
X126829235Y-57440091D01*
X126829225Y-57440089D01*
X126825948Y-57439368D01*
X126459370Y-57399500D01*
X126090630Y-57399500D01*
X126087293Y-57399862D01*
X126087291Y-57399863D01*
X125727398Y-57439004D01*
X125727396Y-57439004D01*
X125724052Y-57439368D01*
X125720777Y-57440088D01*
X125720764Y-57440091D01*
X125367214Y-57517913D01*
X125367196Y-57517917D01*
X125363934Y-57518636D01*
X125360763Y-57519704D01*
X125360750Y-57519708D01*
X125017684Y-57635301D01*
X125017681Y-57635302D01*
X125014497Y-57636375D01*
X125011448Y-57637785D01*
X125011442Y-57637788D01*
X124682893Y-57789791D01*
X124682884Y-57789795D01*
X124679838Y-57791205D01*
X124676963Y-57792934D01*
X124676955Y-57792939D01*
X124366762Y-57979576D01*
X124366754Y-57979580D01*
X124363881Y-57981310D01*
X124361220Y-57983332D01*
X124361202Y-57983345D01*
X124073006Y-58202427D01*
X124072997Y-58202434D01*
X124070330Y-58204462D01*
X124067901Y-58206762D01*
X124067889Y-58206773D01*
X123805064Y-58455734D01*
X123805049Y-58455749D01*
X123802627Y-58458044D01*
X123800464Y-58460589D01*
X123800453Y-58460602D01*
X123566083Y-58736524D01*
X123566077Y-58736531D01*
X123563910Y-58739083D01*
X123562029Y-58741855D01*
X123562023Y-58741865D01*
X123358868Y-59041496D01*
X123356978Y-59044284D01*
X123355403Y-59047254D01*
X123355401Y-59047258D01*
X123185832Y-59367097D01*
X123185823Y-59367114D01*
X123184257Y-59370070D01*
X123183016Y-59373182D01*
X123183012Y-59373193D01*
X123049018Y-59709494D01*
X123049013Y-59709508D01*
X123047773Y-59712621D01*
X122949125Y-60067919D01*
X122948581Y-60071236D01*
X122948579Y-60071246D01*
X122890014Y-60428474D01*
X122889469Y-60431801D01*
X122889287Y-60435151D01*
X122889286Y-60435164D01*
X122869688Y-60796643D01*
X122869506Y-60800000D01*
X121475500Y-60800000D01*
X121475500Y-56124500D01*
X121495185Y-56057461D01*
X121547989Y-56011706D01*
X121599500Y-56000500D01*
X172950500Y-56000500D01*
X173017539Y-56020185D01*
G37*
%TD.AperFunction*%
%TD*%
M02*
