%TF.GenerationSoftware,KiCad,Pcbnew,7.0.2-0*%
%TF.CreationDate,2025-01-08T12:57:51-05:00*%
%TF.ProjectId,plaqchek_power,706c6171-6368-4656-9b5f-706f7765722e,rev?*%
%TF.SameCoordinates,Original*%
%TF.FileFunction,Copper,L3,Inr*%
%TF.FilePolarity,Positive*%
%FSLAX46Y46*%
G04 Gerber Fmt 4.6, Leading zero omitted, Abs format (unit mm)*
G04 Created by KiCad (PCBNEW 7.0.2-0) date 2025-01-08 12:57:51*
%MOMM*%
%LPD*%
G01*
G04 APERTURE LIST*
G04 Aperture macros list*
%AMRoundRect*
0 Rectangle with rounded corners*
0 $1 Rounding radius*
0 $2 $3 $4 $5 $6 $7 $8 $9 X,Y pos of 4 corners*
0 Add a 4 corners polygon primitive as box body*
4,1,4,$2,$3,$4,$5,$6,$7,$8,$9,$2,$3,0*
0 Add four circle primitives for the rounded corners*
1,1,$1+$1,$2,$3*
1,1,$1+$1,$4,$5*
1,1,$1+$1,$6,$7*
1,1,$1+$1,$8,$9*
0 Add four rect primitives between the rounded corners*
20,1,$1+$1,$2,$3,$4,$5,0*
20,1,$1+$1,$4,$5,$6,$7,0*
20,1,$1+$1,$6,$7,$8,$9,0*
20,1,$1+$1,$8,$9,$2,$3,0*%
G04 Aperture macros list end*
%TA.AperFunction,ComponentPad*%
%ADD10R,3.500000X3.500000*%
%TD*%
%TA.AperFunction,ComponentPad*%
%ADD11RoundRect,0.750000X-1.000000X0.750000X-1.000000X-0.750000X1.000000X-0.750000X1.000000X0.750000X0*%
%TD*%
%TA.AperFunction,ComponentPad*%
%ADD12RoundRect,0.875000X-0.875000X0.875000X-0.875000X-0.875000X0.875000X-0.875000X0.875000X0.875000X0*%
%TD*%
%TA.AperFunction,ComponentPad*%
%ADD13R,1.700000X1.700000*%
%TD*%
%TA.AperFunction,ComponentPad*%
%ADD14O,1.700000X1.700000*%
%TD*%
%TA.AperFunction,ComponentPad*%
%ADD15C,6.400000*%
%TD*%
%TA.AperFunction,ViaPad*%
%ADD16C,0.800000*%
%TD*%
G04 APERTURE END LIST*
D10*
%TO.N,+12V*%
%TO.C,J3*%
X154275000Y-64300000D03*
D11*
%TO.N,GND*%
X154275000Y-58300000D03*
D12*
X149575000Y-61300000D03*
%TD*%
D13*
%TO.N,SIPM_BIAS_OUT*%
%TO.C,J1*%
X136275000Y-122300000D03*
D14*
%TO.N,+6V*%
X138815000Y-122300000D03*
%TO.N,+3V3*%
X141355000Y-122300000D03*
%TO.N,-6V5*%
X143895000Y-122300000D03*
%TO.N,GND*%
X146435000Y-122300000D03*
%TD*%
D15*
%TO.N,Net-(H2-Pad1)*%
%TO.C,H2*%
X126275000Y-120800000D03*
%TD*%
%TO.N,Net-(H4-Pad1)*%
%TO.C,H4*%
X168275000Y-120800000D03*
%TD*%
D13*
%TO.N,+12V*%
%TO.C,J2*%
X167275000Y-70500000D03*
D14*
%TO.N,+3V3*%
X167275000Y-73040000D03*
%TO.N,PD_EN*%
X167275000Y-75580000D03*
%TO.N,GND*%
X167275000Y-78120000D03*
%TD*%
D15*
%TO.N,Net-(H3-Pad1)*%
%TO.C,H3*%
X168275000Y-60800000D03*
%TD*%
D13*
%TO.N,+6V*%
%TO.C,J4*%
X155025000Y-122050000D03*
D14*
%TO.N,-6V5*%
X157565000Y-122050000D03*
%TO.N,GND*%
X160105000Y-122050000D03*
%TD*%
D15*
%TO.N,Net-(H1-Pad1)*%
%TO.C,H1*%
X126275000Y-60800000D03*
%TD*%
D16*
%TO.N,/SIPM Bias/VB_SIPM*%
X139709500Y-109775000D03*
X147025000Y-113850000D03*
X136525000Y-99575000D03*
%TO.N,GND*%
X122000000Y-112000000D03*
X172000000Y-92000000D03*
X171625000Y-56750000D03*
X140900000Y-96900000D03*
X132166372Y-79892857D03*
X147800000Y-70700000D03*
X152600000Y-74100000D03*
X150800000Y-70900000D03*
X168200000Y-115950000D03*
X172000000Y-80000000D03*
X135600000Y-111025000D03*
X147625000Y-56750000D03*
X122000000Y-97000000D03*
X123625000Y-56750000D03*
X152575000Y-99100000D03*
X155000000Y-110700000D03*
X148900000Y-73600000D03*
X123775000Y-99050000D03*
X122000000Y-70000000D03*
X153700000Y-113500000D03*
X133100000Y-66000000D03*
X169000000Y-125000000D03*
X156625000Y-56750000D03*
X122000000Y-67000000D03*
X136650000Y-115500000D03*
X153000000Y-81000000D03*
X159625000Y-56750000D03*
X122525000Y-97800000D03*
X135625000Y-56750000D03*
X122000000Y-91000000D03*
X170000000Y-90000000D03*
X122000000Y-109000000D03*
X166000000Y-125000000D03*
X162625000Y-56750000D03*
X126000000Y-70000000D03*
X135000000Y-75000000D03*
X172000000Y-104000000D03*
X125400000Y-84800000D03*
X163000000Y-125000000D03*
X141625000Y-56750000D03*
X148000000Y-125000000D03*
X126625000Y-56750000D03*
X135600000Y-108525000D03*
X165625000Y-56750000D03*
X143000000Y-87000000D03*
X134000000Y-70000000D03*
X167500000Y-95000000D03*
X124175000Y-67050000D03*
X165000000Y-92500000D03*
X122000000Y-82000000D03*
X134925000Y-93650000D03*
X139000000Y-125000000D03*
X151000000Y-83000000D03*
X162100000Y-58900000D03*
X164900000Y-116000000D03*
X150625000Y-56750000D03*
X153700000Y-111500000D03*
X154975000Y-100300000D03*
X172000000Y-95000000D03*
X135600000Y-109725000D03*
X145000000Y-89000000D03*
X172000000Y-113000000D03*
X141000000Y-89000000D03*
X129625000Y-56750000D03*
X139700000Y-65500000D03*
X157000000Y-125000000D03*
X144620000Y-100035837D03*
X134000000Y-73000000D03*
X143600000Y-98000000D03*
X172000000Y-71000000D03*
X145900000Y-73600000D03*
X153700000Y-112500000D03*
X130000000Y-125000000D03*
X136100000Y-65600000D03*
X152575000Y-100300000D03*
X172000000Y-65000000D03*
X122000000Y-103000000D03*
X172000000Y-59000000D03*
X122000000Y-76000000D03*
X122000000Y-106000000D03*
X136650000Y-114200000D03*
X140875000Y-100500000D03*
X133725000Y-93650000D03*
X136650000Y-113000000D03*
X153775000Y-100300000D03*
X122000000Y-121000000D03*
X131900000Y-71000000D03*
X153775000Y-102000000D03*
X126100000Y-90600000D03*
X122000000Y-79000000D03*
X124000000Y-125000000D03*
X136000000Y-125000000D03*
X154000000Y-125000000D03*
X122000000Y-88000000D03*
X141600000Y-109900000D03*
X147100000Y-114900000D03*
X172000000Y-74000000D03*
X147000000Y-87000000D03*
X122000000Y-85000000D03*
X124150000Y-115100000D03*
X142700000Y-116000000D03*
X172000000Y-116000000D03*
X149000000Y-85000000D03*
X125225000Y-65750000D03*
X122000000Y-64000000D03*
X154975000Y-99100000D03*
X131775000Y-58050000D03*
X146420000Y-100135837D03*
X136225000Y-93650000D03*
X172000000Y-83000000D03*
X149200000Y-110500000D03*
X125500000Y-77500000D03*
X122000000Y-124000000D03*
X151000000Y-125000000D03*
X161850000Y-111480000D03*
X135600000Y-114200000D03*
X136200000Y-79000000D03*
X127000000Y-125000000D03*
X122000000Y-94000000D03*
X138975000Y-99800000D03*
X172000000Y-125000000D03*
X122000000Y-118000000D03*
X133600000Y-78400000D03*
X167075000Y-81000000D03*
X172000000Y-107000000D03*
X136650000Y-108525000D03*
X172000000Y-62000000D03*
X168625000Y-56750000D03*
X172000000Y-77000000D03*
X136225000Y-94700000D03*
X133000000Y-125000000D03*
X157300000Y-83600000D03*
X147800000Y-71700000D03*
X172000000Y-86000000D03*
X136650000Y-111025000D03*
X147900000Y-73600000D03*
X133600000Y-76000000D03*
X155000000Y-79000000D03*
X134800000Y-61600000D03*
X153800000Y-105400000D03*
X172000000Y-101000000D03*
X122000000Y-100000000D03*
X160000000Y-125000000D03*
X155000000Y-114500000D03*
X172000000Y-119000000D03*
X127800000Y-90600000D03*
X145000000Y-125000000D03*
X167875000Y-109150000D03*
X138625000Y-56750000D03*
X122000000Y-73000000D03*
X132625000Y-56750000D03*
X135600000Y-115500000D03*
X145000000Y-85000000D03*
X126900000Y-102800000D03*
X138500000Y-61600000D03*
X155500000Y-71200000D03*
X142000000Y-125000000D03*
X172000000Y-110000000D03*
X136650000Y-109725000D03*
X172000000Y-89000000D03*
X122000000Y-115000000D03*
X168075000Y-99550000D03*
X133725000Y-94700000D03*
X134925000Y-94700000D03*
X135600000Y-113000000D03*
X172000000Y-68000000D03*
X144800000Y-107600000D03*
X122000000Y-61000000D03*
X128500000Y-82500000D03*
X172000000Y-122000000D03*
X129600000Y-103900000D03*
X144625000Y-56750000D03*
X153775000Y-99100000D03*
X146500000Y-107700000D03*
X172000000Y-98000000D03*
X163675000Y-118150000D03*
X143000000Y-91000000D03*
X152500000Y-103800000D03*
X133800000Y-79300000D03*
X151000000Y-91000000D03*
X147000000Y-91000000D03*
%TO.N,/SIPM Bias/COMP_SIPM*%
X142750000Y-106075000D03*
X146295837Y-104026878D03*
%TO.N,/SIPM Bias/VOUT_SIPM*%
X130720000Y-103935837D03*
X140920000Y-98135837D03*
X141620000Y-116000000D03*
X130710000Y-114070000D03*
%TO.N,+12V*%
X135975000Y-61650000D03*
X146025000Y-81800000D03*
X139675000Y-61600000D03*
X129175000Y-100800000D03*
X123800000Y-77500000D03*
X146475000Y-64850000D03*
X130275000Y-70900000D03*
%TO.N,/main_pwr/SW_3V3*%
X142870000Y-76630000D03*
X149440000Y-74780000D03*
X141780000Y-76590000D03*
X149460000Y-75640000D03*
X144010000Y-76650000D03*
X150730000Y-72580000D03*
%TO.N,+6V*%
X126100000Y-89500000D03*
X142575000Y-83900000D03*
X142625000Y-80250000D03*
X138325000Y-118450000D03*
X138375000Y-119400000D03*
X133125000Y-67100000D03*
X127800000Y-89500000D03*
X139575000Y-119400000D03*
X139575000Y-118400000D03*
X140975000Y-83900000D03*
X142475000Y-82500000D03*
%TO.N,-6V5*%
X158720000Y-88335837D03*
X156420000Y-89635837D03*
X156420000Y-90835837D03*
X156420000Y-88335837D03*
X157520000Y-88335837D03*
%TO.N,SIPM_BIAS_OUT*%
X133775000Y-117800000D03*
X125775000Y-102800000D03*
%TO.N,+3V3*%
X139025000Y-73050000D03*
X136525000Y-70800000D03*
X170075000Y-86300000D03*
X137525000Y-72050000D03*
%TO.N,PD_EN*%
X148075000Y-110500000D03*
%TO.N,/main_pwr/VOUT_6V*%
X139100000Y-83800000D03*
X126000000Y-83800000D03*
%TO.N,/SIPM Bias/FB_SIPM_OUT*%
X140770837Y-104351878D03*
X143679435Y-99201878D03*
%TO.N,/SIPM Bias/EN_SIPM_R*%
X141800000Y-110950000D03*
X143725000Y-107577000D03*
%TD*%
%TA.AperFunction,Conductor*%
%TO.N,-6V5*%
G36*
X143390425Y-87569685D02*
G01*
X143420650Y-87602480D01*
X143421751Y-87601527D01*
X143475399Y-87663441D01*
X143475414Y-87663457D01*
X143476655Y-87664889D01*
X143494246Y-87682843D01*
X143574063Y-87727490D01*
X143641102Y-87747175D01*
X143699000Y-87755500D01*
X143699004Y-87755500D01*
X146409695Y-87755500D01*
X146413668Y-87755500D01*
X146465672Y-87748811D01*
X146526389Y-87732929D01*
X146544561Y-87727265D01*
X146621415Y-87677689D01*
X146670229Y-87627699D01*
X146684393Y-87611295D01*
X146743105Y-87573422D01*
X146812975Y-87573302D01*
X146825697Y-87577778D01*
X146843238Y-87585044D01*
X147000000Y-87605682D01*
X147156762Y-87585044D01*
X147175730Y-87577186D01*
X147245199Y-87569717D01*
X147307678Y-87600991D01*
X147316897Y-87610544D01*
X147318231Y-87612084D01*
X147318232Y-87612085D01*
X147363987Y-87664889D01*
X147381578Y-87682843D01*
X147461395Y-87727490D01*
X147528434Y-87747175D01*
X147586332Y-87755500D01*
X147586336Y-87755500D01*
X168761265Y-87755500D01*
X168762789Y-87755500D01*
X168782936Y-87754510D01*
X168807125Y-87752127D01*
X168827069Y-87749168D01*
X168880035Y-87738632D01*
X168949624Y-87744859D01*
X169004802Y-87787721D01*
X169028047Y-87853611D01*
X169028218Y-87858957D01*
X169128903Y-97524708D01*
X169109918Y-97591949D01*
X169057594Y-97638252D01*
X169004910Y-97650000D01*
X166075000Y-97650000D01*
X166075000Y-101550000D01*
X169048118Y-101550000D01*
X169115157Y-101569685D01*
X169160912Y-101622489D01*
X169172111Y-101672708D01*
X169273776Y-111432545D01*
X169271586Y-111457078D01*
X169260069Y-111517438D01*
X169241547Y-111562819D01*
X169207544Y-111613996D01*
X169191944Y-111633055D01*
X165362738Y-115462260D01*
X165301415Y-115495745D01*
X165231723Y-115490761D01*
X165207841Y-115477534D01*
X165056762Y-115414956D01*
X164899999Y-115394317D01*
X164743237Y-115414956D01*
X164597159Y-115475463D01*
X164471717Y-115571717D01*
X164375463Y-115697159D01*
X164314956Y-115843237D01*
X164294317Y-116000000D01*
X164314956Y-116156762D01*
X164381711Y-116317924D01*
X164380278Y-116318517D01*
X164398149Y-116364736D01*
X164384113Y-116433181D01*
X164362260Y-116462738D01*
X161098225Y-119726774D01*
X161098222Y-119726777D01*
X161025000Y-119800000D01*
X161025000Y-119903551D01*
X161025000Y-119903552D01*
X161025000Y-121183875D01*
X161005315Y-121250914D01*
X160952511Y-121296669D01*
X160883353Y-121306613D01*
X160822336Y-121279729D01*
X160752818Y-121222678D01*
X160691450Y-121172315D01*
X160508954Y-121074768D01*
X160409943Y-121044733D01*
X160310932Y-121014699D01*
X160127497Y-120996632D01*
X160105000Y-120994417D01*
X160104999Y-120994417D01*
X159899067Y-121014699D01*
X159701043Y-121074769D01*
X159518551Y-121172314D01*
X159358589Y-121303589D01*
X159227314Y-121463551D01*
X159129769Y-121646043D01*
X159069699Y-121844067D01*
X159049417Y-122050000D01*
X159069699Y-122255932D01*
X159069700Y-122255934D01*
X159129768Y-122453954D01*
X159227315Y-122636450D01*
X159278609Y-122698952D01*
X159358589Y-122796410D01*
X159437192Y-122860917D01*
X159518550Y-122927685D01*
X159701046Y-123025232D01*
X159899066Y-123085300D01*
X160105000Y-123105583D01*
X160310934Y-123085300D01*
X160508954Y-123025232D01*
X160691450Y-122927685D01*
X160822335Y-122820270D01*
X160886645Y-122792958D01*
X160955513Y-122804749D01*
X161007073Y-122851902D01*
X161025000Y-122916124D01*
X161025000Y-123287789D01*
X161022617Y-123311982D01*
X161010781Y-123371482D01*
X160992267Y-123416179D01*
X160965481Y-123456268D01*
X160931269Y-123490479D01*
X160896975Y-123513394D01*
X160891179Y-123517267D01*
X160846482Y-123535781D01*
X160812857Y-123542469D01*
X160786978Y-123547617D01*
X160762789Y-123550000D01*
X146769104Y-123550000D01*
X146702065Y-123530315D01*
X146656310Y-123477511D01*
X146646366Y-123408353D01*
X146675391Y-123344797D01*
X146733107Y-123307339D01*
X146838954Y-123275232D01*
X147021450Y-123177685D01*
X147181410Y-123046410D01*
X147285358Y-122919748D01*
X153974500Y-122919748D01*
X153986132Y-122978230D01*
X154030447Y-123044552D01*
X154096769Y-123088867D01*
X154155251Y-123100500D01*
X154155252Y-123100500D01*
X155894749Y-123100500D01*
X155923989Y-123094683D01*
X155953231Y-123088867D01*
X156019552Y-123044552D01*
X156063867Y-122978231D01*
X156075500Y-122919748D01*
X156075500Y-121180252D01*
X156063867Y-121121769D01*
X156051403Y-121103116D01*
X156019552Y-121055447D01*
X155953230Y-121011132D01*
X155894749Y-120999500D01*
X155894748Y-120999500D01*
X154155252Y-120999500D01*
X154155251Y-120999500D01*
X154096769Y-121011132D01*
X154030447Y-121055447D01*
X153986132Y-121121769D01*
X153974500Y-121180251D01*
X153974500Y-122919748D01*
X147285358Y-122919748D01*
X147312685Y-122886450D01*
X147410232Y-122703954D01*
X147470300Y-122505934D01*
X147490583Y-122300000D01*
X147470300Y-122094066D01*
X147410232Y-121896046D01*
X147312685Y-121713550D01*
X147247047Y-121633570D01*
X147181410Y-121553589D01*
X147083952Y-121473609D01*
X147021450Y-121422315D01*
X146838954Y-121324768D01*
X146723336Y-121289696D01*
X146640932Y-121264699D01*
X146435000Y-121244417D01*
X146229067Y-121264699D01*
X146031043Y-121324769D01*
X145848551Y-121422314D01*
X145688589Y-121553589D01*
X145557314Y-121713551D01*
X145459769Y-121896043D01*
X145399699Y-122094067D01*
X145379417Y-122300000D01*
X145399699Y-122505932D01*
X145399700Y-122505934D01*
X145459768Y-122703954D01*
X145557315Y-122886450D01*
X145608609Y-122948952D01*
X145688589Y-123046410D01*
X145740324Y-123088867D01*
X145848550Y-123177685D01*
X146031046Y-123275232D01*
X146136891Y-123307339D01*
X146195330Y-123345637D01*
X146223786Y-123409449D01*
X146213226Y-123478516D01*
X146167002Y-123530910D01*
X146100896Y-123550000D01*
X143037211Y-123550000D01*
X143013020Y-123547617D01*
X142998189Y-123544667D01*
X142953518Y-123535781D01*
X142908822Y-123517267D01*
X142868727Y-123490477D01*
X142834522Y-123456272D01*
X142807730Y-123416175D01*
X142789218Y-123371480D01*
X142777383Y-123311980D01*
X142775000Y-123287789D01*
X142775000Y-120736767D01*
X142794685Y-120669728D01*
X142820338Y-120640912D01*
X142826577Y-120635792D01*
X142860789Y-120601581D01*
X142886351Y-120570433D01*
X142913136Y-120530344D01*
X142932122Y-120494824D01*
X142950637Y-120450127D01*
X142962332Y-120411575D01*
X142974168Y-120352075D01*
X142977127Y-120332126D01*
X142979510Y-120307933D01*
X142980500Y-120287789D01*
X142980500Y-116724300D01*
X142978231Y-116693845D01*
X142972784Y-116657496D01*
X142972782Y-116657492D01*
X142970780Y-116644128D01*
X142972140Y-116643924D01*
X142967746Y-116589338D01*
X143000682Y-116527718D01*
X143013651Y-116516240D01*
X143128282Y-116428282D01*
X143224536Y-116302841D01*
X143285044Y-116156762D01*
X143305682Y-116000000D01*
X143285044Y-115843238D01*
X143224536Y-115697159D01*
X143222849Y-115694961D01*
X143128282Y-115571717D01*
X143011256Y-115481921D01*
X142970053Y-115425493D01*
X142965898Y-115355747D01*
X142967751Y-115348662D01*
X142972175Y-115333596D01*
X142980500Y-115275698D01*
X142980500Y-113849999D01*
X146419317Y-113849999D01*
X146439956Y-114006762D01*
X146500463Y-114152840D01*
X146589749Y-114269201D01*
X146596718Y-114278282D01*
X146629084Y-114303117D01*
X146638970Y-114310703D01*
X146680172Y-114367131D01*
X146684327Y-114436877D01*
X146661859Y-114484565D01*
X146575463Y-114597159D01*
X146514956Y-114743237D01*
X146494317Y-114900000D01*
X146514956Y-115056762D01*
X146575463Y-115202840D01*
X146671717Y-115328282D01*
X146784674Y-115414956D01*
X146797159Y-115424536D01*
X146943238Y-115485044D01*
X147100000Y-115505682D01*
X147256762Y-115485044D01*
X147402841Y-115424536D01*
X147528282Y-115328282D01*
X147624536Y-115202841D01*
X147685044Y-115056762D01*
X147705682Y-114900000D01*
X147685044Y-114743238D01*
X147624536Y-114597159D01*
X147584536Y-114545030D01*
X147549984Y-114500000D01*
X154394317Y-114500000D01*
X154414956Y-114656762D01*
X154475463Y-114802840D01*
X154571717Y-114928282D01*
X154646433Y-114985613D01*
X154697159Y-115024536D01*
X154843238Y-115085044D01*
X155000000Y-115105682D01*
X155156762Y-115085044D01*
X155302841Y-115024536D01*
X155428282Y-114928282D01*
X155524536Y-114802841D01*
X155585044Y-114656762D01*
X155605682Y-114500000D01*
X155585044Y-114343238D01*
X155524536Y-114197159D01*
X155490529Y-114152840D01*
X155428282Y-114071717D01*
X155302840Y-113975463D01*
X155156762Y-113914956D01*
X154999999Y-113894317D01*
X154843237Y-113914956D01*
X154697159Y-113975463D01*
X154571717Y-114071717D01*
X154475463Y-114197159D01*
X154414956Y-114343237D01*
X154394317Y-114500000D01*
X147549984Y-114500000D01*
X147528281Y-114471716D01*
X147486029Y-114439295D01*
X147444827Y-114382867D01*
X147440672Y-114313121D01*
X147463137Y-114265437D01*
X147549536Y-114152841D01*
X147610044Y-114006762D01*
X147630682Y-113850000D01*
X147610044Y-113693238D01*
X147549536Y-113547159D01*
X147546631Y-113543373D01*
X147513350Y-113500000D01*
X153094317Y-113500000D01*
X153114956Y-113656762D01*
X153175463Y-113802840D01*
X153271717Y-113928282D01*
X153366219Y-114000795D01*
X153397159Y-114024536D01*
X153543238Y-114085044D01*
X153700000Y-114105682D01*
X153856762Y-114085044D01*
X154002841Y-114024536D01*
X154128282Y-113928282D01*
X154224536Y-113802841D01*
X154285044Y-113656762D01*
X154305682Y-113500000D01*
X154285044Y-113343238D01*
X154238244Y-113230253D01*
X154224537Y-113197161D01*
X154224536Y-113197160D01*
X154224536Y-113197159D01*
X154131171Y-113075484D01*
X154105979Y-113010317D01*
X154120017Y-112941873D01*
X154131167Y-112924521D01*
X154224536Y-112802841D01*
X154285044Y-112656762D01*
X154305682Y-112500000D01*
X154285044Y-112343238D01*
X154238244Y-112230253D01*
X154224537Y-112197161D01*
X154224536Y-112197160D01*
X154224536Y-112197159D01*
X154131171Y-112075484D01*
X154105979Y-112010317D01*
X154120017Y-111941873D01*
X154131167Y-111924521D01*
X154224536Y-111802841D01*
X154285044Y-111656762D01*
X154305682Y-111500000D01*
X154303049Y-111480000D01*
X161244317Y-111480000D01*
X161264956Y-111636762D01*
X161325463Y-111782840D01*
X161421717Y-111908282D01*
X161527801Y-111989682D01*
X161547159Y-112004536D01*
X161693238Y-112065044D01*
X161850000Y-112085682D01*
X162006762Y-112065044D01*
X162152841Y-112004536D01*
X162278282Y-111908282D01*
X162374536Y-111782841D01*
X162435044Y-111636762D01*
X162455682Y-111480000D01*
X162435044Y-111323238D01*
X162374536Y-111177159D01*
X162353083Y-111149201D01*
X162278282Y-111051717D01*
X162152840Y-110955463D01*
X162006762Y-110894956D01*
X161850000Y-110874317D01*
X161693237Y-110894956D01*
X161547159Y-110955463D01*
X161421717Y-111051717D01*
X161325463Y-111177159D01*
X161264956Y-111323237D01*
X161244317Y-111480000D01*
X154303049Y-111480000D01*
X154285044Y-111343238D01*
X154224536Y-111197159D01*
X154171685Y-111128282D01*
X154128282Y-111071717D01*
X154002840Y-110975463D01*
X153856762Y-110914956D01*
X153700000Y-110894317D01*
X153543237Y-110914956D01*
X153397159Y-110975463D01*
X153271717Y-111071717D01*
X153175463Y-111197159D01*
X153114956Y-111343237D01*
X153094317Y-111500000D01*
X153114956Y-111656762D01*
X153175463Y-111802840D01*
X153268826Y-111924513D01*
X153294020Y-111989682D01*
X153279982Y-112058127D01*
X153268826Y-112075485D01*
X153175463Y-112197159D01*
X153114956Y-112343237D01*
X153094317Y-112500000D01*
X153114956Y-112656762D01*
X153175463Y-112802840D01*
X153268826Y-112924513D01*
X153294020Y-112989682D01*
X153279982Y-113058127D01*
X153268826Y-113075485D01*
X153175463Y-113197159D01*
X153114956Y-113343237D01*
X153094317Y-113500000D01*
X147513350Y-113500000D01*
X147453282Y-113421717D01*
X147327840Y-113325463D01*
X147181762Y-113264956D01*
X147024999Y-113244317D01*
X146868237Y-113264956D01*
X146722159Y-113325463D01*
X146596717Y-113421717D01*
X146500463Y-113547159D01*
X146439956Y-113693237D01*
X146419317Y-113849999D01*
X142980500Y-113849999D01*
X142980500Y-110500000D01*
X147469317Y-110500000D01*
X147489956Y-110656762D01*
X147550463Y-110802840D01*
X147646717Y-110928282D01*
X147743884Y-111002840D01*
X147772159Y-111024536D01*
X147918238Y-111085044D01*
X148054360Y-111102964D01*
X148074999Y-111105682D01*
X148074999Y-111105681D01*
X148075000Y-111105682D01*
X148231762Y-111085044D01*
X148377841Y-111024536D01*
X148503282Y-110928282D01*
X148528854Y-110894956D01*
X148539124Y-110881572D01*
X148595552Y-110840369D01*
X148665298Y-110836214D01*
X148726218Y-110870426D01*
X148735876Y-110881572D01*
X148771717Y-110928282D01*
X148868884Y-111002840D01*
X148897159Y-111024536D01*
X149043238Y-111085044D01*
X149200000Y-111105682D01*
X149356762Y-111085044D01*
X149502841Y-111024536D01*
X149628282Y-110928282D01*
X149724536Y-110802841D01*
X149767134Y-110700000D01*
X154394317Y-110700000D01*
X154414956Y-110856762D01*
X154475463Y-111002840D01*
X154571717Y-111128282D01*
X154680991Y-111212130D01*
X154697159Y-111224536D01*
X154843238Y-111285044D01*
X155000000Y-111305682D01*
X155156762Y-111285044D01*
X155302841Y-111224536D01*
X155428282Y-111128282D01*
X155524536Y-111002841D01*
X155585044Y-110856762D01*
X155605682Y-110700000D01*
X155585044Y-110543238D01*
X155524536Y-110397159D01*
X155519795Y-110390980D01*
X155428282Y-110271717D01*
X155302840Y-110175463D01*
X155156762Y-110114956D01*
X154999999Y-110094317D01*
X154843237Y-110114956D01*
X154697159Y-110175463D01*
X154571717Y-110271717D01*
X154475463Y-110397159D01*
X154414956Y-110543237D01*
X154394317Y-110700000D01*
X149767134Y-110700000D01*
X149785044Y-110656762D01*
X149805682Y-110500000D01*
X149785044Y-110343238D01*
X149724536Y-110197159D01*
X149700954Y-110166426D01*
X149628282Y-110071717D01*
X149502840Y-109975463D01*
X149356762Y-109914956D01*
X149199999Y-109894317D01*
X149043237Y-109914956D01*
X148897159Y-109975463D01*
X148771716Y-110071718D01*
X148735875Y-110118428D01*
X148679447Y-110159630D01*
X148609701Y-110163785D01*
X148548781Y-110129572D01*
X148539125Y-110118428D01*
X148503283Y-110071718D01*
X148377840Y-109975463D01*
X148231762Y-109914956D01*
X148074999Y-109894317D01*
X147918237Y-109914956D01*
X147772159Y-109975463D01*
X147646717Y-110071717D01*
X147550463Y-110197159D01*
X147489956Y-110343237D01*
X147469317Y-110500000D01*
X142980500Y-110500000D01*
X142980500Y-109149999D01*
X167269317Y-109149999D01*
X167289956Y-109306762D01*
X167350463Y-109452840D01*
X167446717Y-109578282D01*
X167503537Y-109621881D01*
X167572159Y-109674536D01*
X167718238Y-109735044D01*
X167854361Y-109752964D01*
X167874999Y-109755682D01*
X167874999Y-109755681D01*
X167875000Y-109755682D01*
X168031762Y-109735044D01*
X168177841Y-109674536D01*
X168303282Y-109578282D01*
X168399536Y-109452841D01*
X168460044Y-109306762D01*
X168480682Y-109150000D01*
X168479441Y-109140577D01*
X168475340Y-109109423D01*
X168460044Y-108993238D01*
X168399536Y-108847159D01*
X168363961Y-108800796D01*
X168303282Y-108721717D01*
X168177840Y-108625463D01*
X168031762Y-108564956D01*
X167874999Y-108544317D01*
X167718237Y-108564956D01*
X167572159Y-108625463D01*
X167446717Y-108721717D01*
X167350463Y-108847159D01*
X167289956Y-108993237D01*
X167269317Y-109149999D01*
X142980500Y-109149999D01*
X142980500Y-107958470D01*
X143000185Y-107891431D01*
X143052989Y-107845676D01*
X143122147Y-107835732D01*
X143185703Y-107864757D01*
X143202874Y-107882982D01*
X143224415Y-107911055D01*
X143296717Y-108005282D01*
X143326692Y-108028282D01*
X143422159Y-108101536D01*
X143568238Y-108162044D01*
X143704360Y-108179964D01*
X143724999Y-108182682D01*
X143724999Y-108182681D01*
X143725000Y-108182682D01*
X143881762Y-108162044D01*
X144027841Y-108101536D01*
X144153282Y-108005282D01*
X144155296Y-108002657D01*
X144211720Y-107961451D01*
X144281466Y-107957292D01*
X144342388Y-107991501D01*
X144352051Y-108002652D01*
X144371717Y-108028282D01*
X144497158Y-108124536D01*
X144497159Y-108124536D01*
X144643238Y-108185044D01*
X144800000Y-108205682D01*
X144956762Y-108185044D01*
X145102841Y-108124536D01*
X145228282Y-108028282D01*
X145324536Y-107902841D01*
X145385044Y-107756762D01*
X145392517Y-107700000D01*
X145894317Y-107700000D01*
X145914956Y-107856762D01*
X145975463Y-108002840D01*
X146071717Y-108128282D01*
X146172588Y-108205682D01*
X146197159Y-108224536D01*
X146343238Y-108285044D01*
X146500000Y-108305682D01*
X146656762Y-108285044D01*
X146802841Y-108224536D01*
X146928282Y-108128282D01*
X147024536Y-108002841D01*
X147085044Y-107856762D01*
X147105682Y-107700000D01*
X147085044Y-107543238D01*
X147024536Y-107397159D01*
X147024536Y-107397158D01*
X146928282Y-107271717D01*
X146802840Y-107175463D01*
X146656762Y-107114956D01*
X146500000Y-107094317D01*
X146343237Y-107114956D01*
X146197159Y-107175463D01*
X146071717Y-107271717D01*
X145975463Y-107397159D01*
X145914956Y-107543237D01*
X145894317Y-107700000D01*
X145392517Y-107700000D01*
X145405682Y-107600000D01*
X145385044Y-107443238D01*
X145324536Y-107297159D01*
X145306888Y-107274159D01*
X145228282Y-107171717D01*
X145102840Y-107075463D01*
X144956762Y-107014956D01*
X144800000Y-106994317D01*
X144643237Y-107014956D01*
X144497159Y-107075463D01*
X144371718Y-107171717D01*
X144369699Y-107174349D01*
X144313271Y-107215551D01*
X144243525Y-107219705D01*
X144182605Y-107185492D01*
X144172948Y-107174347D01*
X144153282Y-107148717D01*
X144027840Y-107052463D01*
X143881762Y-106991956D01*
X143725000Y-106971317D01*
X143568237Y-106991956D01*
X143422159Y-107052463D01*
X143296717Y-107148717D01*
X143202876Y-107271015D01*
X143146448Y-107312218D01*
X143076702Y-107316373D01*
X143015782Y-107282161D01*
X142983029Y-107220444D01*
X142980500Y-107195529D01*
X142980500Y-106795021D01*
X142980500Y-106795020D01*
X142980500Y-106792718D01*
X142978231Y-106762262D01*
X142973995Y-106733995D01*
X142983525Y-106664779D01*
X143028964Y-106611703D01*
X143049171Y-106601056D01*
X143052841Y-106599536D01*
X143178282Y-106503282D01*
X143274536Y-106377841D01*
X143335044Y-106231762D01*
X143355682Y-106075000D01*
X143335044Y-105918238D01*
X143274536Y-105772159D01*
X143236443Y-105722515D01*
X143178282Y-105646717D01*
X143052840Y-105550463D01*
X143047345Y-105548187D01*
X142992941Y-105504346D01*
X142970876Y-105438052D01*
X142972060Y-105415976D01*
X142972175Y-105415179D01*
X142974358Y-105400000D01*
X153194317Y-105400000D01*
X153214956Y-105556762D01*
X153275463Y-105702840D01*
X153371717Y-105828282D01*
X153461121Y-105896883D01*
X153497159Y-105924536D01*
X153643238Y-105985044D01*
X153800000Y-106005682D01*
X153956762Y-105985044D01*
X154102841Y-105924536D01*
X154228282Y-105828282D01*
X154324536Y-105702841D01*
X154385044Y-105556762D01*
X154405682Y-105400000D01*
X154385044Y-105243238D01*
X154324536Y-105097159D01*
X154324535Y-105097158D01*
X154228282Y-104971717D01*
X154102840Y-104875463D01*
X153956762Y-104814956D01*
X153800000Y-104794317D01*
X153643237Y-104814956D01*
X153497159Y-104875463D01*
X153371717Y-104971717D01*
X153275463Y-105097159D01*
X153214956Y-105243237D01*
X153194317Y-105400000D01*
X142974358Y-105400000D01*
X142980500Y-105357281D01*
X142980497Y-104026877D01*
X145690154Y-104026877D01*
X145710793Y-104183640D01*
X145771300Y-104329718D01*
X145867554Y-104455160D01*
X145992559Y-104551079D01*
X145992996Y-104551414D01*
X146139075Y-104611922D01*
X146275197Y-104629842D01*
X146295836Y-104632560D01*
X146295836Y-104632559D01*
X146295837Y-104632560D01*
X146452599Y-104611922D01*
X146598678Y-104551414D01*
X146724119Y-104455160D01*
X146820373Y-104329719D01*
X146880881Y-104183640D01*
X146901519Y-104026878D01*
X146880881Y-103870116D01*
X146851838Y-103800000D01*
X151894317Y-103800000D01*
X151914956Y-103956762D01*
X151975463Y-104102840D01*
X152071717Y-104228282D01*
X152163108Y-104298408D01*
X152197159Y-104324536D01*
X152343238Y-104385044D01*
X152500000Y-104405682D01*
X152656762Y-104385044D01*
X152802841Y-104324536D01*
X152928282Y-104228282D01*
X153024536Y-104102841D01*
X153085044Y-103956762D01*
X153105682Y-103800000D01*
X153085044Y-103643238D01*
X153024536Y-103497159D01*
X152966247Y-103421195D01*
X152928282Y-103371717D01*
X152802840Y-103275463D01*
X152656762Y-103214956D01*
X152500000Y-103194317D01*
X152343237Y-103214956D01*
X152197159Y-103275463D01*
X152071717Y-103371717D01*
X151975463Y-103497159D01*
X151914956Y-103643237D01*
X151894317Y-103800000D01*
X146851838Y-103800000D01*
X146820373Y-103724037D01*
X146819892Y-103723410D01*
X146724119Y-103598595D01*
X146598677Y-103502341D01*
X146452599Y-103441834D01*
X146295836Y-103421195D01*
X146139074Y-103441834D01*
X145992996Y-103502341D01*
X145867554Y-103598595D01*
X145771300Y-103724037D01*
X145710793Y-103870115D01*
X145690154Y-104026877D01*
X142980497Y-104026877D01*
X142980492Y-102000000D01*
X153169317Y-102000000D01*
X153189956Y-102156762D01*
X153250463Y-102302840D01*
X153346717Y-102428282D01*
X153464007Y-102518281D01*
X153472159Y-102524536D01*
X153618238Y-102585044D01*
X153754361Y-102602964D01*
X153774999Y-102605682D01*
X153774999Y-102605681D01*
X153775000Y-102605682D01*
X153931762Y-102585044D01*
X154077841Y-102524536D01*
X154203282Y-102428282D01*
X154299536Y-102302841D01*
X154360044Y-102156762D01*
X154380682Y-102000000D01*
X154360044Y-101843238D01*
X154299536Y-101697159D01*
X154242240Y-101622489D01*
X154203282Y-101571717D01*
X154077840Y-101475463D01*
X153931762Y-101414956D01*
X153774999Y-101394317D01*
X153618237Y-101414956D01*
X153472159Y-101475463D01*
X153346717Y-101571717D01*
X153250463Y-101697159D01*
X153189956Y-101843237D01*
X153169317Y-102000000D01*
X142980492Y-102000000D01*
X142980486Y-99642711D01*
X143000170Y-99575673D01*
X143052974Y-99529918D01*
X143122133Y-99519974D01*
X143185689Y-99548999D01*
X143202862Y-99567226D01*
X143251152Y-99630160D01*
X143365995Y-99718281D01*
X143376594Y-99726414D01*
X143522673Y-99786922D01*
X143679435Y-99807560D01*
X143836197Y-99786922D01*
X143860827Y-99776719D01*
X143930294Y-99769250D01*
X143992773Y-99800524D01*
X144028427Y-99860612D01*
X144031218Y-99907465D01*
X144014317Y-100035836D01*
X144034956Y-100192599D01*
X144095463Y-100338677D01*
X144191717Y-100464119D01*
X144317159Y-100560372D01*
X144317159Y-100560373D01*
X144463238Y-100620881D01*
X144620000Y-100641519D01*
X144776762Y-100620881D01*
X144922841Y-100560373D01*
X145048282Y-100464119D01*
X145144536Y-100338678D01*
X145205044Y-100192599D01*
X145212517Y-100135836D01*
X145814317Y-100135836D01*
X145834956Y-100292599D01*
X145895463Y-100438677D01*
X145991717Y-100564119D01*
X146066570Y-100621555D01*
X146117159Y-100660373D01*
X146263238Y-100720881D01*
X146420000Y-100741519D01*
X146576762Y-100720881D01*
X146722841Y-100660373D01*
X146848282Y-100564119D01*
X146944536Y-100438678D01*
X147001978Y-100300000D01*
X151969317Y-100300000D01*
X151989956Y-100456762D01*
X152050463Y-100602840D01*
X152146717Y-100728282D01*
X152272158Y-100824535D01*
X152272159Y-100824536D01*
X152418238Y-100885044D01*
X152554360Y-100902964D01*
X152574999Y-100905682D01*
X152574999Y-100905681D01*
X152575000Y-100905682D01*
X152731762Y-100885044D01*
X152877841Y-100824536D01*
X153003282Y-100728282D01*
X153025597Y-100699201D01*
X153076624Y-100632701D01*
X153133052Y-100591498D01*
X153202798Y-100587343D01*
X153263718Y-100621555D01*
X153273376Y-100632701D01*
X153346717Y-100728282D01*
X153472158Y-100824535D01*
X153472159Y-100824536D01*
X153618238Y-100885044D01*
X153754360Y-100902964D01*
X153774999Y-100905682D01*
X153774999Y-100905681D01*
X153775000Y-100905682D01*
X153931762Y-100885044D01*
X154077841Y-100824536D01*
X154203282Y-100728282D01*
X154225597Y-100699201D01*
X154276624Y-100632701D01*
X154333052Y-100591498D01*
X154402798Y-100587343D01*
X154463718Y-100621555D01*
X154473376Y-100632701D01*
X154546717Y-100728282D01*
X154672158Y-100824535D01*
X154672159Y-100824536D01*
X154818238Y-100885044D01*
X154954360Y-100902964D01*
X154974999Y-100905682D01*
X154974999Y-100905681D01*
X154975000Y-100905682D01*
X155131762Y-100885044D01*
X155277841Y-100824536D01*
X155403282Y-100728282D01*
X155499536Y-100602841D01*
X155560044Y-100456762D01*
X155580682Y-100300000D01*
X155560044Y-100143238D01*
X155499536Y-99997159D01*
X155430712Y-99907465D01*
X155403282Y-99871717D01*
X155307701Y-99798376D01*
X155266498Y-99741948D01*
X155262343Y-99672202D01*
X155296555Y-99611282D01*
X155307701Y-99601624D01*
X155403282Y-99528282D01*
X155446560Y-99471881D01*
X155499536Y-99402841D01*
X155560044Y-99256762D01*
X155580682Y-99100000D01*
X155560044Y-98943238D01*
X155499536Y-98797159D01*
X155476624Y-98767299D01*
X155403282Y-98671717D01*
X155277840Y-98575463D01*
X155131762Y-98514956D01*
X154974999Y-98494317D01*
X154818237Y-98514956D01*
X154672159Y-98575463D01*
X154546719Y-98671716D01*
X154473376Y-98767299D01*
X154416948Y-98808501D01*
X154347202Y-98812656D01*
X154286281Y-98778443D01*
X154276624Y-98767299D01*
X154203280Y-98671716D01*
X154077840Y-98575463D01*
X153931762Y-98514956D01*
X153774999Y-98494317D01*
X153618237Y-98514956D01*
X153472159Y-98575463D01*
X153346719Y-98671716D01*
X153273376Y-98767299D01*
X153216948Y-98808501D01*
X153147202Y-98812656D01*
X153086281Y-98778443D01*
X153076624Y-98767299D01*
X153003280Y-98671716D01*
X152877840Y-98575463D01*
X152731762Y-98514956D01*
X152574999Y-98494317D01*
X152418237Y-98514956D01*
X152272159Y-98575463D01*
X152146717Y-98671717D01*
X152050463Y-98797159D01*
X151989956Y-98943237D01*
X151969317Y-99100000D01*
X151989956Y-99256762D01*
X152050463Y-99402840D01*
X152128637Y-99504719D01*
X152146718Y-99528282D01*
X152173717Y-99548999D01*
X152242299Y-99601624D01*
X152283501Y-99658052D01*
X152287656Y-99727798D01*
X152253443Y-99788719D01*
X152242299Y-99798376D01*
X152146716Y-99871719D01*
X152050463Y-99997159D01*
X151989956Y-100143237D01*
X151969317Y-100300000D01*
X147001978Y-100300000D01*
X147005044Y-100292599D01*
X147025682Y-100135837D01*
X147005044Y-99979075D01*
X146944536Y-99832996D01*
X146919828Y-99800796D01*
X146848282Y-99707554D01*
X146722840Y-99611300D01*
X146576762Y-99550793D01*
X146420000Y-99530154D01*
X146263237Y-99550793D01*
X146117159Y-99611300D01*
X145991717Y-99707554D01*
X145895463Y-99832996D01*
X145834956Y-99979074D01*
X145814317Y-100135836D01*
X145212517Y-100135836D01*
X145225682Y-100035837D01*
X145205044Y-99879075D01*
X145144536Y-99732996D01*
X145140547Y-99727798D01*
X145048282Y-99607554D01*
X144922840Y-99511300D01*
X144776762Y-99450793D01*
X144620000Y-99430154D01*
X144481475Y-99448391D01*
X144463238Y-99450793D01*
X144438606Y-99460996D01*
X144369137Y-99468463D01*
X144306658Y-99437188D01*
X144271006Y-99377098D01*
X144268216Y-99330252D01*
X144285117Y-99201878D01*
X144264479Y-99045116D01*
X144203971Y-98899037D01*
X144190814Y-98881890D01*
X144107717Y-98773595D01*
X143971194Y-98668838D01*
X143929991Y-98612410D01*
X143925836Y-98542664D01*
X143960048Y-98481744D01*
X143971182Y-98472096D01*
X144028282Y-98428282D01*
X144124536Y-98302841D01*
X144185044Y-98156762D01*
X144205682Y-98000000D01*
X144185044Y-97843238D01*
X144124536Y-97697159D01*
X144088350Y-97650000D01*
X144028282Y-97571717D01*
X143902840Y-97475463D01*
X143756762Y-97414956D01*
X143600000Y-97394317D01*
X143443237Y-97414956D01*
X143297159Y-97475463D01*
X143179967Y-97565387D01*
X143114797Y-97590581D01*
X143046353Y-97576542D01*
X142996363Y-97527728D01*
X142980481Y-97467011D01*
X142980481Y-97264180D01*
X142980475Y-95000000D01*
X166894317Y-95000000D01*
X166914956Y-95156762D01*
X166975463Y-95302840D01*
X167071717Y-95428282D01*
X167197159Y-95524535D01*
X167197159Y-95524536D01*
X167343238Y-95585044D01*
X167500000Y-95605682D01*
X167656762Y-95585044D01*
X167802841Y-95524536D01*
X167928282Y-95428282D01*
X168024536Y-95302841D01*
X168085044Y-95156762D01*
X168105682Y-95000000D01*
X168085044Y-94843238D01*
X168024536Y-94697159D01*
X167947592Y-94596883D01*
X167928282Y-94571717D01*
X167802840Y-94475463D01*
X167656762Y-94414956D01*
X167500000Y-94394317D01*
X167343237Y-94414956D01*
X167197159Y-94475463D01*
X167071717Y-94571717D01*
X166975463Y-94697159D01*
X166914956Y-94843237D01*
X166894317Y-95000000D01*
X142980475Y-95000000D01*
X142980469Y-92500000D01*
X164394317Y-92500000D01*
X164414956Y-92656762D01*
X164475463Y-92802840D01*
X164571717Y-92928282D01*
X164697159Y-93024535D01*
X164697159Y-93024536D01*
X164843238Y-93085044D01*
X165000000Y-93105682D01*
X165156762Y-93085044D01*
X165302841Y-93024536D01*
X165428282Y-92928282D01*
X165524536Y-92802841D01*
X165585044Y-92656762D01*
X165605682Y-92500000D01*
X165585044Y-92343238D01*
X165524536Y-92197159D01*
X165524535Y-92197159D01*
X165428282Y-92071717D01*
X165302840Y-91975463D01*
X165156762Y-91914956D01*
X165000000Y-91894317D01*
X164843237Y-91914956D01*
X164697159Y-91975463D01*
X164571717Y-92071717D01*
X164475463Y-92197159D01*
X164414956Y-92343237D01*
X164394317Y-92500000D01*
X142980469Y-92500000D01*
X142980467Y-91716997D01*
X143000151Y-91649959D01*
X143052955Y-91604204D01*
X143088278Y-91594059D01*
X143156762Y-91585044D01*
X143302841Y-91524536D01*
X143428282Y-91428282D01*
X143524536Y-91302841D01*
X143585044Y-91156762D01*
X143605682Y-91000000D01*
X146394317Y-91000000D01*
X146414956Y-91156762D01*
X146475463Y-91302840D01*
X146571717Y-91428282D01*
X146697159Y-91524535D01*
X146697159Y-91524536D01*
X146843238Y-91585044D01*
X147000000Y-91605682D01*
X147156762Y-91585044D01*
X147302841Y-91524536D01*
X147428282Y-91428282D01*
X147524536Y-91302841D01*
X147585044Y-91156762D01*
X147605682Y-91000000D01*
X150394317Y-91000000D01*
X150414956Y-91156762D01*
X150475463Y-91302840D01*
X150571717Y-91428282D01*
X150697159Y-91524535D01*
X150697159Y-91524536D01*
X150843238Y-91585044D01*
X151000000Y-91605682D01*
X151156762Y-91585044D01*
X151302841Y-91524536D01*
X151428282Y-91428282D01*
X151524536Y-91302841D01*
X151585044Y-91156762D01*
X151605682Y-91000000D01*
X151585044Y-90843238D01*
X151524536Y-90697159D01*
X151514557Y-90684154D01*
X151428282Y-90571717D01*
X151302840Y-90475463D01*
X151156762Y-90414956D01*
X151000000Y-90394317D01*
X150843237Y-90414956D01*
X150697159Y-90475463D01*
X150571717Y-90571717D01*
X150475463Y-90697159D01*
X150414956Y-90843237D01*
X150394317Y-91000000D01*
X147605682Y-91000000D01*
X147585044Y-90843238D01*
X147524536Y-90697159D01*
X147514557Y-90684154D01*
X147428282Y-90571717D01*
X147302840Y-90475463D01*
X147156762Y-90414956D01*
X147000000Y-90394317D01*
X146843237Y-90414956D01*
X146697159Y-90475463D01*
X146571717Y-90571717D01*
X146475463Y-90697159D01*
X146414956Y-90843237D01*
X146394317Y-91000000D01*
X143605682Y-91000000D01*
X143585044Y-90843238D01*
X143524536Y-90697159D01*
X143514557Y-90684154D01*
X143428282Y-90571717D01*
X143302840Y-90475463D01*
X143156762Y-90414956D01*
X143088313Y-90405944D01*
X143024417Y-90377677D01*
X142985947Y-90319352D01*
X142980500Y-90283005D01*
X142980500Y-89000000D01*
X144394317Y-89000000D01*
X144414956Y-89156762D01*
X144475463Y-89302840D01*
X144571717Y-89428282D01*
X144697159Y-89524535D01*
X144697159Y-89524536D01*
X144843238Y-89585044D01*
X145000000Y-89605682D01*
X145156762Y-89585044D01*
X145302841Y-89524536D01*
X145428282Y-89428282D01*
X145524536Y-89302841D01*
X145585044Y-89156762D01*
X145605682Y-89000000D01*
X145585044Y-88843238D01*
X145524536Y-88697159D01*
X145524535Y-88697158D01*
X145428282Y-88571717D01*
X145302840Y-88475463D01*
X145156762Y-88414956D01*
X145000000Y-88394317D01*
X144843237Y-88414956D01*
X144697159Y-88475463D01*
X144571717Y-88571717D01*
X144475463Y-88697159D01*
X144414956Y-88843237D01*
X144394317Y-89000000D01*
X142980500Y-89000000D01*
X142980500Y-87716994D01*
X143000185Y-87649955D01*
X143052989Y-87604200D01*
X143088313Y-87594055D01*
X143156762Y-87585044D01*
X143198506Y-87567752D01*
X143218579Y-87559439D01*
X143266031Y-87550000D01*
X143323386Y-87550000D01*
X143390425Y-87569685D01*
G37*
%TD.AperFunction*%
%TD*%
%TA.AperFunction,Conductor*%
%TO.N,+3V3*%
G36*
X173017539Y-67025185D02*
G01*
X173063294Y-67077989D01*
X173074500Y-67129500D01*
X173074500Y-125475500D01*
X173054815Y-125542539D01*
X173002011Y-125588294D01*
X172950500Y-125599500D01*
X172548349Y-125599500D01*
X172481310Y-125579815D01*
X172435555Y-125527011D01*
X172425611Y-125457853D01*
X172449973Y-125400014D01*
X172511182Y-125320244D01*
X172524536Y-125302841D01*
X172585044Y-125156762D01*
X172605682Y-125000000D01*
X172585044Y-124843238D01*
X172524536Y-124697159D01*
X172524535Y-124697158D01*
X172428282Y-124571717D01*
X172302840Y-124475463D01*
X172156762Y-124414956D01*
X172000000Y-124394317D01*
X171843237Y-124414956D01*
X171697159Y-124475463D01*
X171571717Y-124571717D01*
X171475463Y-124697159D01*
X171414956Y-124843237D01*
X171394317Y-125000000D01*
X171414956Y-125156762D01*
X171475463Y-125302840D01*
X171550027Y-125400014D01*
X171575221Y-125465183D01*
X171561183Y-125533628D01*
X171512369Y-125583617D01*
X171451651Y-125599500D01*
X169548349Y-125599500D01*
X169481310Y-125579815D01*
X169435555Y-125527011D01*
X169425611Y-125457853D01*
X169449973Y-125400014D01*
X169511182Y-125320244D01*
X169524536Y-125302841D01*
X169585044Y-125156762D01*
X169605682Y-125000000D01*
X169585044Y-124843238D01*
X169524536Y-124697159D01*
X169524535Y-124697158D01*
X169428282Y-124571717D01*
X169302840Y-124475463D01*
X169156762Y-124414956D01*
X169000000Y-124394317D01*
X168843237Y-124414956D01*
X168697159Y-124475463D01*
X168571717Y-124571717D01*
X168475463Y-124697159D01*
X168414956Y-124843237D01*
X168394317Y-125000000D01*
X168414956Y-125156762D01*
X168475463Y-125302840D01*
X168550027Y-125400014D01*
X168575221Y-125465183D01*
X168561183Y-125533628D01*
X168512369Y-125583617D01*
X168451651Y-125599500D01*
X166548349Y-125599500D01*
X166481310Y-125579815D01*
X166435555Y-125527011D01*
X166425611Y-125457853D01*
X166449973Y-125400014D01*
X166511182Y-125320244D01*
X166524536Y-125302841D01*
X166585044Y-125156762D01*
X166605682Y-125000000D01*
X166585044Y-124843238D01*
X166524536Y-124697159D01*
X166524535Y-124697159D01*
X166428282Y-124571717D01*
X166302840Y-124475463D01*
X166156762Y-124414956D01*
X166000000Y-124394317D01*
X165843237Y-124414956D01*
X165697159Y-124475463D01*
X165571717Y-124571717D01*
X165475463Y-124697159D01*
X165414956Y-124843237D01*
X165394317Y-125000000D01*
X165414956Y-125156762D01*
X165475463Y-125302840D01*
X165550027Y-125400014D01*
X165575221Y-125465183D01*
X165561183Y-125533628D01*
X165512369Y-125583617D01*
X165451651Y-125599500D01*
X163548349Y-125599500D01*
X163481310Y-125579815D01*
X163435555Y-125527011D01*
X163425611Y-125457853D01*
X163449973Y-125400014D01*
X163511182Y-125320244D01*
X163524536Y-125302841D01*
X163585044Y-125156762D01*
X163605682Y-125000000D01*
X163585044Y-124843238D01*
X163524536Y-124697159D01*
X163524535Y-124697159D01*
X163428282Y-124571717D01*
X163302840Y-124475463D01*
X163156762Y-124414956D01*
X163000000Y-124394317D01*
X162843237Y-124414956D01*
X162697159Y-124475463D01*
X162571717Y-124571717D01*
X162475463Y-124697159D01*
X162414956Y-124843237D01*
X162394317Y-125000000D01*
X162414956Y-125156762D01*
X162475463Y-125302840D01*
X162550027Y-125400014D01*
X162575221Y-125465183D01*
X162561183Y-125533628D01*
X162512369Y-125583617D01*
X162451651Y-125599500D01*
X160548349Y-125599500D01*
X160481310Y-125579815D01*
X160435555Y-125527011D01*
X160425611Y-125457853D01*
X160449973Y-125400014D01*
X160511182Y-125320244D01*
X160524536Y-125302841D01*
X160585044Y-125156762D01*
X160605682Y-125000000D01*
X160585044Y-124843238D01*
X160524536Y-124697159D01*
X160524535Y-124697159D01*
X160428282Y-124571717D01*
X160302840Y-124475463D01*
X160156762Y-124414956D01*
X160000000Y-124394317D01*
X159843237Y-124414956D01*
X159697159Y-124475463D01*
X159571717Y-124571717D01*
X159475463Y-124697159D01*
X159414956Y-124843237D01*
X159394317Y-125000000D01*
X159414956Y-125156762D01*
X159475463Y-125302840D01*
X159550027Y-125400014D01*
X159575221Y-125465183D01*
X159561183Y-125533628D01*
X159512369Y-125583617D01*
X159451651Y-125599500D01*
X157548349Y-125599500D01*
X157481310Y-125579815D01*
X157435555Y-125527011D01*
X157425611Y-125457853D01*
X157449973Y-125400014D01*
X157511182Y-125320244D01*
X157524536Y-125302841D01*
X157585044Y-125156762D01*
X157605682Y-125000000D01*
X157585044Y-124843238D01*
X157524536Y-124697159D01*
X157524535Y-124697159D01*
X157428282Y-124571717D01*
X157302840Y-124475463D01*
X157156762Y-124414956D01*
X157000000Y-124394317D01*
X156843237Y-124414956D01*
X156697159Y-124475463D01*
X156571717Y-124571717D01*
X156475463Y-124697159D01*
X156414956Y-124843237D01*
X156394317Y-125000000D01*
X156414956Y-125156762D01*
X156475463Y-125302840D01*
X156550027Y-125400014D01*
X156575221Y-125465183D01*
X156561183Y-125533628D01*
X156512369Y-125583617D01*
X156451651Y-125599500D01*
X154548349Y-125599500D01*
X154481310Y-125579815D01*
X154435555Y-125527011D01*
X154425611Y-125457853D01*
X154449973Y-125400014D01*
X154511182Y-125320244D01*
X154524536Y-125302841D01*
X154585044Y-125156762D01*
X154605682Y-125000000D01*
X154585044Y-124843238D01*
X154524536Y-124697159D01*
X154524535Y-124697159D01*
X154428282Y-124571717D01*
X154302840Y-124475463D01*
X154156762Y-124414956D01*
X154000000Y-124394317D01*
X153843237Y-124414956D01*
X153697159Y-124475463D01*
X153571717Y-124571717D01*
X153475463Y-124697159D01*
X153414956Y-124843237D01*
X153394317Y-125000000D01*
X153414956Y-125156762D01*
X153475463Y-125302840D01*
X153550027Y-125400014D01*
X153575221Y-125465183D01*
X153561183Y-125533628D01*
X153512369Y-125583617D01*
X153451651Y-125599500D01*
X151548349Y-125599500D01*
X151481310Y-125579815D01*
X151435555Y-125527011D01*
X151425611Y-125457853D01*
X151449973Y-125400014D01*
X151511182Y-125320244D01*
X151524536Y-125302841D01*
X151585044Y-125156762D01*
X151605682Y-125000000D01*
X151585044Y-124843238D01*
X151524536Y-124697159D01*
X151524535Y-124697159D01*
X151428282Y-124571717D01*
X151302840Y-124475463D01*
X151156762Y-124414956D01*
X151000000Y-124394317D01*
X150843237Y-124414956D01*
X150697159Y-124475463D01*
X150571717Y-124571717D01*
X150475463Y-124697159D01*
X150414956Y-124843237D01*
X150394317Y-125000000D01*
X150414956Y-125156762D01*
X150475463Y-125302840D01*
X150550027Y-125400014D01*
X150575221Y-125465183D01*
X150561183Y-125533628D01*
X150512369Y-125583617D01*
X150451651Y-125599500D01*
X148548349Y-125599500D01*
X148481310Y-125579815D01*
X148435555Y-125527011D01*
X148425611Y-125457853D01*
X148449973Y-125400014D01*
X148511182Y-125320244D01*
X148524536Y-125302841D01*
X148585044Y-125156762D01*
X148605682Y-125000000D01*
X148585044Y-124843238D01*
X148524536Y-124697159D01*
X148524535Y-124697159D01*
X148428282Y-124571717D01*
X148302840Y-124475463D01*
X148156762Y-124414956D01*
X148000000Y-124394317D01*
X147843237Y-124414956D01*
X147697159Y-124475463D01*
X147571717Y-124571717D01*
X147475463Y-124697159D01*
X147414956Y-124843237D01*
X147394317Y-125000000D01*
X147414956Y-125156762D01*
X147475463Y-125302840D01*
X147550027Y-125400014D01*
X147575221Y-125465183D01*
X147561183Y-125533628D01*
X147512369Y-125583617D01*
X147451651Y-125599500D01*
X145548349Y-125599500D01*
X145481310Y-125579815D01*
X145435555Y-125527011D01*
X145425611Y-125457853D01*
X145449973Y-125400014D01*
X145511182Y-125320244D01*
X145524536Y-125302841D01*
X145585044Y-125156762D01*
X145605682Y-125000000D01*
X145585044Y-124843238D01*
X145524536Y-124697159D01*
X145524535Y-124697159D01*
X145428282Y-124571717D01*
X145302840Y-124475463D01*
X145156762Y-124414956D01*
X145000000Y-124394317D01*
X144843237Y-124414956D01*
X144697159Y-124475463D01*
X144571717Y-124571717D01*
X144475463Y-124697159D01*
X144414956Y-124843237D01*
X144394317Y-125000000D01*
X144414956Y-125156762D01*
X144475463Y-125302840D01*
X144550027Y-125400014D01*
X144575221Y-125465183D01*
X144561183Y-125533628D01*
X144512369Y-125583617D01*
X144451651Y-125599500D01*
X142548349Y-125599500D01*
X142481310Y-125579815D01*
X142435555Y-125527011D01*
X142425611Y-125457853D01*
X142449973Y-125400014D01*
X142511182Y-125320244D01*
X142524536Y-125302841D01*
X142585044Y-125156762D01*
X142605682Y-125000000D01*
X142585044Y-124843238D01*
X142524536Y-124697159D01*
X142524535Y-124697159D01*
X142428282Y-124571717D01*
X142302840Y-124475463D01*
X142156762Y-124414956D01*
X142000000Y-124394317D01*
X141843237Y-124414956D01*
X141697159Y-124475463D01*
X141571717Y-124571717D01*
X141475463Y-124697159D01*
X141414956Y-124843237D01*
X141394317Y-125000000D01*
X141414956Y-125156762D01*
X141475463Y-125302840D01*
X141550027Y-125400014D01*
X141575221Y-125465183D01*
X141561183Y-125533628D01*
X141512369Y-125583617D01*
X141451651Y-125599500D01*
X140604500Y-125599500D01*
X140537461Y-125579815D01*
X140491706Y-125527011D01*
X140480500Y-125475500D01*
X140480500Y-120879500D01*
X140500185Y-120812461D01*
X140552989Y-120766706D01*
X140604500Y-120755500D01*
X142445500Y-120755500D01*
X142512539Y-120775185D01*
X142558294Y-120827989D01*
X142569500Y-120879499D01*
X142569500Y-121205000D01*
X142569500Y-123287789D01*
X142570490Y-123307935D01*
X142570638Y-123309440D01*
X142570639Y-123309450D01*
X142572724Y-123330622D01*
X142572728Y-123330655D01*
X142572873Y-123332126D01*
X142575831Y-123352070D01*
X142576122Y-123353535D01*
X142576129Y-123353573D01*
X142587070Y-123408575D01*
X142587666Y-123411570D01*
X142599359Y-123450117D01*
X142600520Y-123452920D01*
X142616704Y-123491996D01*
X142616709Y-123492007D01*
X142617871Y-123494812D01*
X142619306Y-123497497D01*
X142619308Y-123497501D01*
X142625761Y-123509575D01*
X142636863Y-123530345D01*
X142638554Y-123532876D01*
X142638559Y-123532884D01*
X142656166Y-123559234D01*
X142663655Y-123570442D01*
X142676433Y-123586012D01*
X142687282Y-123599231D01*
X142687287Y-123599236D01*
X142689212Y-123601582D01*
X142723417Y-123635787D01*
X142754559Y-123661345D01*
X142757085Y-123663032D01*
X142757088Y-123663035D01*
X142757718Y-123663456D01*
X142794654Y-123688135D01*
X142830179Y-123707124D01*
X142874875Y-123725638D01*
X142877787Y-123726521D01*
X142877789Y-123726522D01*
X142891068Y-123730550D01*
X142913426Y-123737332D01*
X142972928Y-123749168D01*
X142992874Y-123752127D01*
X143017065Y-123754510D01*
X143037211Y-123755500D01*
X143038735Y-123755500D01*
X146096535Y-123755500D01*
X146100896Y-123755500D01*
X146157910Y-123747433D01*
X146224016Y-123728343D01*
X146246854Y-123720261D01*
X146321102Y-123666863D01*
X146341983Y-123643193D01*
X146401094Y-123605946D01*
X146470961Y-123606568D01*
X146528681Y-123644026D01*
X146546759Y-123664889D01*
X146564350Y-123682843D01*
X146644167Y-123727490D01*
X146711206Y-123747175D01*
X146769104Y-123755500D01*
X146769108Y-123755500D01*
X160761265Y-123755500D01*
X160762789Y-123755500D01*
X160782936Y-123754510D01*
X160807125Y-123752127D01*
X160827069Y-123749168D01*
X160886573Y-123737332D01*
X160925123Y-123725638D01*
X160969820Y-123707124D01*
X161005351Y-123688133D01*
X161045441Y-123661345D01*
X161076577Y-123635792D01*
X161110789Y-123601581D01*
X161136349Y-123570436D01*
X161163135Y-123530347D01*
X161182124Y-123494820D01*
X161200638Y-123450123D01*
X161212332Y-123411575D01*
X161224168Y-123352075D01*
X161227127Y-123332126D01*
X161229510Y-123307933D01*
X161230500Y-123287789D01*
X161230500Y-122916124D01*
X161222933Y-122860873D01*
X161205006Y-122796651D01*
X161197821Y-122775446D01*
X161145758Y-122700255D01*
X161094198Y-122653102D01*
X161092722Y-122651909D01*
X161092711Y-122651900D01*
X161089872Y-122649606D01*
X161050100Y-122592161D01*
X161047700Y-122522332D01*
X161058450Y-122494704D01*
X161080232Y-122453954D01*
X161140300Y-122255934D01*
X161160583Y-122050000D01*
X161140300Y-121844066D01*
X161080232Y-121646046D01*
X161058179Y-121604789D01*
X161043938Y-121536387D01*
X161068938Y-121471144D01*
X161086336Y-121452623D01*
X161087081Y-121451976D01*
X161087085Y-121451975D01*
X161139889Y-121406220D01*
X161157843Y-121388629D01*
X161202490Y-121308812D01*
X161222175Y-121241773D01*
X161230500Y-121183875D01*
X161230500Y-120800000D01*
X164869506Y-120800000D01*
X164869688Y-120803356D01*
X164889286Y-121164835D01*
X164889287Y-121164846D01*
X164889469Y-121168199D01*
X164890013Y-121171520D01*
X164890014Y-121171525D01*
X164943253Y-121496267D01*
X164949125Y-121532081D01*
X165047773Y-121887379D01*
X165049015Y-121890496D01*
X165049018Y-121890505D01*
X165140026Y-122118918D01*
X165184257Y-122229930D01*
X165185827Y-122232892D01*
X165185832Y-122232902D01*
X165289417Y-122428282D01*
X165356978Y-122555716D01*
X165563910Y-122860917D01*
X165802627Y-123141956D01*
X165805058Y-123144259D01*
X165805064Y-123144265D01*
X166026028Y-123353573D01*
X166070330Y-123395538D01*
X166139803Y-123448350D01*
X166361202Y-123616654D01*
X166361208Y-123616658D01*
X166363881Y-123618690D01*
X166679838Y-123808795D01*
X167014497Y-123963625D01*
X167363934Y-124081364D01*
X167724052Y-124160632D01*
X168090630Y-124200500D01*
X168093988Y-124200500D01*
X168456012Y-124200500D01*
X168459370Y-124200500D01*
X168825948Y-124160632D01*
X169186066Y-124081364D01*
X169535503Y-123963625D01*
X169870162Y-123808795D01*
X170186119Y-123618690D01*
X170479670Y-123395538D01*
X170747373Y-123141956D01*
X170986090Y-122860917D01*
X171193022Y-122555716D01*
X171297297Y-122359031D01*
X171346089Y-122309024D01*
X171414173Y-122293332D01*
X171479934Y-122316941D01*
X171505226Y-122341628D01*
X171571718Y-122428282D01*
X171697159Y-122524536D01*
X171843238Y-122585044D01*
X172000000Y-122605682D01*
X172156762Y-122585044D01*
X172302841Y-122524536D01*
X172428282Y-122428282D01*
X172524536Y-122302841D01*
X172585044Y-122156762D01*
X172605682Y-122000000D01*
X172585044Y-121843238D01*
X172524536Y-121697159D01*
X172485316Y-121646046D01*
X172428282Y-121571717D01*
X172302840Y-121475463D01*
X172156762Y-121414956D01*
X172000000Y-121394317D01*
X171861475Y-121412554D01*
X171843238Y-121414956D01*
X171817697Y-121425535D01*
X171809685Y-121428854D01*
X171740216Y-121436321D01*
X171677737Y-121405046D01*
X171642085Y-121344956D01*
X171639868Y-121294235D01*
X171660531Y-121168199D01*
X171680494Y-120800000D01*
X171660531Y-120431801D01*
X171600875Y-120067919D01*
X171502227Y-119712621D01*
X171475210Y-119644815D01*
X171468684Y-119575252D01*
X171500802Y-119513202D01*
X171561368Y-119478367D01*
X171631153Y-119481806D01*
X171665890Y-119500543D01*
X171682388Y-119513202D01*
X171697159Y-119524536D01*
X171843238Y-119585044D01*
X172000000Y-119605682D01*
X172156762Y-119585044D01*
X172302841Y-119524536D01*
X172428282Y-119428282D01*
X172524536Y-119302841D01*
X172585044Y-119156762D01*
X172605682Y-119000000D01*
X172585044Y-118843238D01*
X172524536Y-118697159D01*
X172433319Y-118578282D01*
X172428282Y-118571717D01*
X172302840Y-118475463D01*
X172156762Y-118414956D01*
X172000000Y-118394317D01*
X171843237Y-118414956D01*
X171697159Y-118475463D01*
X171571717Y-118571717D01*
X171475463Y-118697159D01*
X171414956Y-118843237D01*
X171399270Y-118962382D01*
X171371003Y-119026278D01*
X171312679Y-119064749D01*
X171242814Y-119065580D01*
X171183591Y-119028508D01*
X171173698Y-119015783D01*
X170987976Y-118741865D01*
X170986090Y-118739083D01*
X170747373Y-118458044D01*
X170744940Y-118455739D01*
X170744935Y-118455734D01*
X170482110Y-118206773D01*
X170482107Y-118206770D01*
X170479670Y-118204462D01*
X170408025Y-118149999D01*
X170188797Y-117983345D01*
X170188787Y-117983338D01*
X170186119Y-117981310D01*
X169963158Y-117847159D01*
X169873044Y-117792939D01*
X169873043Y-117792938D01*
X169870162Y-117791205D01*
X169719966Y-117721717D01*
X169576865Y-117655511D01*
X169535503Y-117636375D01*
X169429908Y-117600796D01*
X169189249Y-117519708D01*
X169189240Y-117519705D01*
X169186066Y-117518636D01*
X169182798Y-117517916D01*
X169182785Y-117517913D01*
X168829235Y-117440091D01*
X168829225Y-117440089D01*
X168825948Y-117439368D01*
X168459370Y-117399500D01*
X168090630Y-117399500D01*
X168087293Y-117399862D01*
X168087291Y-117399863D01*
X167727398Y-117439004D01*
X167727396Y-117439004D01*
X167724052Y-117439368D01*
X167720777Y-117440088D01*
X167720764Y-117440091D01*
X167367214Y-117517913D01*
X167367196Y-117517917D01*
X167363934Y-117518636D01*
X167360763Y-117519704D01*
X167360750Y-117519708D01*
X167017684Y-117635301D01*
X167017681Y-117635302D01*
X167014497Y-117636375D01*
X167011448Y-117637785D01*
X167011442Y-117637788D01*
X166682893Y-117789791D01*
X166682884Y-117789795D01*
X166679838Y-117791205D01*
X166676963Y-117792934D01*
X166676955Y-117792939D01*
X166366762Y-117979576D01*
X166366754Y-117979580D01*
X166363881Y-117981310D01*
X166361220Y-117983332D01*
X166361202Y-117983345D01*
X166073006Y-118202427D01*
X166072997Y-118202434D01*
X166070330Y-118204462D01*
X166067901Y-118206762D01*
X166067889Y-118206773D01*
X165805064Y-118455734D01*
X165805049Y-118455749D01*
X165802627Y-118458044D01*
X165800464Y-118460589D01*
X165800453Y-118460602D01*
X165566083Y-118736524D01*
X165566077Y-118736531D01*
X165563910Y-118739083D01*
X165562029Y-118741855D01*
X165562023Y-118741865D01*
X165479466Y-118863628D01*
X165356978Y-119044284D01*
X165355403Y-119047254D01*
X165355401Y-119047258D01*
X165185832Y-119367097D01*
X165185823Y-119367114D01*
X165184257Y-119370070D01*
X165183016Y-119373182D01*
X165183012Y-119373193D01*
X165049018Y-119709494D01*
X165049013Y-119709508D01*
X165047773Y-119712621D01*
X164949125Y-120067919D01*
X164948581Y-120071236D01*
X164948579Y-120071246D01*
X164890014Y-120428474D01*
X164889469Y-120431801D01*
X164889287Y-120435151D01*
X164889286Y-120435164D01*
X164871972Y-120754510D01*
X164869506Y-120800000D01*
X161230500Y-120800000D01*
X161230500Y-119936479D01*
X161250185Y-119869441D01*
X161266814Y-119848804D01*
X162879456Y-118236161D01*
X162940777Y-118202678D01*
X163010469Y-118207662D01*
X163066402Y-118249534D01*
X163083587Y-118291730D01*
X163083709Y-118291680D01*
X163150463Y-118452840D01*
X163246717Y-118578282D01*
X163372158Y-118674536D01*
X163372159Y-118674536D01*
X163518238Y-118735044D01*
X163654361Y-118752964D01*
X163674999Y-118755682D01*
X163674999Y-118755681D01*
X163675000Y-118755682D01*
X163831762Y-118735044D01*
X163977841Y-118674536D01*
X164103282Y-118578282D01*
X164199536Y-118452841D01*
X164260044Y-118306762D01*
X164280682Y-118150000D01*
X164260044Y-117993238D01*
X164199536Y-117847159D01*
X164103894Y-117722515D01*
X164103282Y-117721717D01*
X163977840Y-117625463D01*
X163816680Y-117558709D01*
X163816926Y-117558114D01*
X163768760Y-117536806D01*
X163730290Y-117478481D01*
X163729460Y-117408616D01*
X163761161Y-117354456D01*
X164507570Y-116608048D01*
X164525609Y-116587105D01*
X164584270Y-116549159D01*
X164654139Y-116548950D01*
X164667004Y-116553467D01*
X164743238Y-116585044D01*
X164900000Y-116605682D01*
X165056762Y-116585044D01*
X165202841Y-116524536D01*
X165328282Y-116428282D01*
X165424536Y-116302841D01*
X165485044Y-116156762D01*
X165505682Y-116000000D01*
X165499099Y-115949999D01*
X167594317Y-115949999D01*
X167614956Y-116106762D01*
X167675463Y-116252840D01*
X167771717Y-116378282D01*
X167836879Y-116428282D01*
X167897159Y-116474536D01*
X168043238Y-116535044D01*
X168200000Y-116555682D01*
X168356762Y-116535044D01*
X168502841Y-116474536D01*
X168628282Y-116378282D01*
X168724536Y-116252841D01*
X168785044Y-116106762D01*
X168799099Y-116000000D01*
X171394317Y-116000000D01*
X171414956Y-116156762D01*
X171475463Y-116302840D01*
X171571717Y-116428282D01*
X171697159Y-116524535D01*
X171697159Y-116524536D01*
X171843238Y-116585044D01*
X172000000Y-116605682D01*
X172156762Y-116585044D01*
X172302841Y-116524536D01*
X172428282Y-116428282D01*
X172524536Y-116302841D01*
X172585044Y-116156762D01*
X172605682Y-116000000D01*
X172585044Y-115843238D01*
X172524536Y-115697159D01*
X172523661Y-115696019D01*
X172428282Y-115571717D01*
X172302840Y-115475463D01*
X172156762Y-115414956D01*
X172000000Y-115394317D01*
X171843237Y-115414956D01*
X171697159Y-115475463D01*
X171571717Y-115571717D01*
X171475463Y-115697159D01*
X171414956Y-115843237D01*
X171394317Y-116000000D01*
X168799099Y-116000000D01*
X168805682Y-115950000D01*
X168785044Y-115793238D01*
X168724536Y-115647159D01*
X168714085Y-115633539D01*
X168628282Y-115521717D01*
X168502840Y-115425463D01*
X168356762Y-115364956D01*
X168200000Y-115344317D01*
X168043237Y-115364956D01*
X167897159Y-115425463D01*
X167771717Y-115521717D01*
X167675463Y-115647159D01*
X167614956Y-115793237D01*
X167594317Y-115949999D01*
X165499099Y-115949999D01*
X165485044Y-115843238D01*
X165452837Y-115765485D01*
X165445369Y-115696019D01*
X165476644Y-115633539D01*
X165493084Y-115618771D01*
X165508048Y-115607570D01*
X168115619Y-113000000D01*
X171394317Y-113000000D01*
X171414956Y-113156762D01*
X171475463Y-113302840D01*
X171571717Y-113428282D01*
X171638959Y-113479878D01*
X171697159Y-113524536D01*
X171843238Y-113585044D01*
X172000000Y-113605682D01*
X172156762Y-113585044D01*
X172302841Y-113524536D01*
X172428282Y-113428282D01*
X172524536Y-113302841D01*
X172585044Y-113156762D01*
X172605682Y-113000000D01*
X172585044Y-112843238D01*
X172524536Y-112697159D01*
X172524535Y-112697158D01*
X172428282Y-112571717D01*
X172302840Y-112475463D01*
X172156762Y-112414956D01*
X172000000Y-112394317D01*
X171843237Y-112414956D01*
X171697159Y-112475463D01*
X171571717Y-112571717D01*
X171475463Y-112697159D01*
X171414956Y-112843237D01*
X171394317Y-113000000D01*
X168115619Y-113000000D01*
X169337254Y-111778365D01*
X169350967Y-111763217D01*
X169366567Y-111744158D01*
X169378708Y-111727720D01*
X169412711Y-111676543D01*
X169431810Y-111640474D01*
X169450332Y-111595093D01*
X169461927Y-111555954D01*
X169473444Y-111495594D01*
X169476272Y-111475350D01*
X169478462Y-111450817D01*
X169479265Y-111430404D01*
X169464365Y-110000000D01*
X171394317Y-110000000D01*
X171414956Y-110156762D01*
X171475463Y-110302840D01*
X171571717Y-110428282D01*
X171693256Y-110521541D01*
X171697159Y-110524536D01*
X171843238Y-110585044D01*
X172000000Y-110605682D01*
X172156762Y-110585044D01*
X172302841Y-110524536D01*
X172428282Y-110428282D01*
X172524536Y-110302841D01*
X172585044Y-110156762D01*
X172605682Y-110000000D01*
X172585044Y-109843238D01*
X172524536Y-109697159D01*
X172524535Y-109697159D01*
X172428282Y-109571717D01*
X172302840Y-109475463D01*
X172156762Y-109414956D01*
X172000000Y-109394317D01*
X171843237Y-109414956D01*
X171697159Y-109475463D01*
X171571717Y-109571717D01*
X171475463Y-109697159D01*
X171414956Y-109843237D01*
X171394317Y-110000000D01*
X169464365Y-110000000D01*
X169433115Y-107000000D01*
X171394317Y-107000000D01*
X171414956Y-107156762D01*
X171475463Y-107302840D01*
X171571717Y-107428282D01*
X171673650Y-107506497D01*
X171697159Y-107524536D01*
X171843238Y-107585044D01*
X172000000Y-107605682D01*
X172156762Y-107585044D01*
X172302841Y-107524536D01*
X172428282Y-107428282D01*
X172524536Y-107302841D01*
X172585044Y-107156762D01*
X172605682Y-107000000D01*
X172585044Y-106843238D01*
X172524536Y-106697159D01*
X172524535Y-106697158D01*
X172428282Y-106571717D01*
X172302840Y-106475463D01*
X172156762Y-106414956D01*
X172000000Y-106394317D01*
X171843237Y-106414956D01*
X171697159Y-106475463D01*
X171571717Y-106571717D01*
X171475463Y-106697159D01*
X171414956Y-106843237D01*
X171394317Y-107000000D01*
X169433115Y-107000000D01*
X169401865Y-104000000D01*
X171394317Y-104000000D01*
X171414956Y-104156762D01*
X171475463Y-104302840D01*
X171571717Y-104428282D01*
X171697159Y-104524535D01*
X171697159Y-104524536D01*
X171843238Y-104585044D01*
X172000000Y-104605682D01*
X172156762Y-104585044D01*
X172302841Y-104524536D01*
X172428282Y-104428282D01*
X172524536Y-104302841D01*
X172585044Y-104156762D01*
X172605682Y-104000000D01*
X172585044Y-103843238D01*
X172524536Y-103697159D01*
X172494631Y-103658186D01*
X172428282Y-103571717D01*
X172302840Y-103475463D01*
X172156762Y-103414956D01*
X172000000Y-103394317D01*
X171843237Y-103414956D01*
X171697159Y-103475463D01*
X171571717Y-103571717D01*
X171475463Y-103697159D01*
X171414956Y-103843237D01*
X171394317Y-104000000D01*
X169401865Y-104000000D01*
X169377600Y-101670567D01*
X169372684Y-101627980D01*
X169361485Y-101577761D01*
X169361153Y-101576387D01*
X169359237Y-101568643D01*
X169316217Y-101487913D01*
X169271718Y-101436558D01*
X169271698Y-101436536D01*
X169270463Y-101435111D01*
X169252872Y-101417157D01*
X169242681Y-101406755D01*
X169209825Y-101345093D01*
X169207257Y-101320796D01*
X169205133Y-101000000D01*
X171394317Y-101000000D01*
X171414956Y-101156762D01*
X171475463Y-101302840D01*
X171571717Y-101428282D01*
X171649433Y-101487915D01*
X171697159Y-101524536D01*
X171843238Y-101585044D01*
X172000000Y-101605682D01*
X172156762Y-101585044D01*
X172302841Y-101524536D01*
X172428282Y-101428282D01*
X172524536Y-101302841D01*
X172585044Y-101156762D01*
X172605682Y-101000000D01*
X172585044Y-100843238D01*
X172524536Y-100697159D01*
X172524323Y-100696881D01*
X172428282Y-100571717D01*
X172302840Y-100475463D01*
X172156762Y-100414956D01*
X172000000Y-100394317D01*
X171843237Y-100414956D01*
X171697159Y-100475463D01*
X171571717Y-100571717D01*
X171475463Y-100697159D01*
X171414956Y-100843237D01*
X171394317Y-101000000D01*
X169205133Y-101000000D01*
X169185265Y-98000000D01*
X171394317Y-98000000D01*
X171414956Y-98156762D01*
X171475463Y-98302840D01*
X171571717Y-98428282D01*
X171697159Y-98524535D01*
X171697159Y-98524536D01*
X171843238Y-98585044D01*
X172000000Y-98605682D01*
X172156762Y-98585044D01*
X172302841Y-98524536D01*
X172428282Y-98428282D01*
X172524536Y-98302841D01*
X172585044Y-98156762D01*
X172605682Y-98000000D01*
X172585044Y-97843238D01*
X172524536Y-97697159D01*
X172476740Y-97634870D01*
X172428282Y-97571717D01*
X172302840Y-97475463D01*
X172156762Y-97414956D01*
X172000000Y-97394317D01*
X171843237Y-97414956D01*
X171697159Y-97475463D01*
X171571717Y-97571717D01*
X171475463Y-97697159D01*
X171414956Y-97843237D01*
X171394317Y-98000000D01*
X169185265Y-98000000D01*
X169184319Y-97857191D01*
X169203559Y-97790023D01*
X169226139Y-97763511D01*
X169246104Y-97745844D01*
X169263874Y-97728066D01*
X169307686Y-97647787D01*
X169326671Y-97580546D01*
X169334392Y-97522567D01*
X169333880Y-97473463D01*
X169308115Y-95000000D01*
X171394317Y-95000000D01*
X171414956Y-95156762D01*
X171475463Y-95302840D01*
X171571717Y-95428282D01*
X171697159Y-95524535D01*
X171697159Y-95524536D01*
X171843238Y-95585044D01*
X172000000Y-95605682D01*
X172156762Y-95585044D01*
X172302841Y-95524536D01*
X172428282Y-95428282D01*
X172524536Y-95302841D01*
X172585044Y-95156762D01*
X172605682Y-95000000D01*
X172585044Y-94843238D01*
X172524536Y-94697159D01*
X172523813Y-94696217D01*
X172428282Y-94571717D01*
X172302840Y-94475463D01*
X172156762Y-94414956D01*
X172000000Y-94394317D01*
X171843237Y-94414956D01*
X171697159Y-94475463D01*
X171571717Y-94571717D01*
X171475463Y-94697159D01*
X171414956Y-94843237D01*
X171394317Y-95000000D01*
X169308115Y-95000000D01*
X169301031Y-94319953D01*
X169276865Y-92000000D01*
X171394317Y-92000000D01*
X171414956Y-92156762D01*
X171475463Y-92302840D01*
X171571717Y-92428282D01*
X171697159Y-92524535D01*
X171697159Y-92524536D01*
X171843238Y-92585044D01*
X172000000Y-92605682D01*
X172156762Y-92585044D01*
X172302841Y-92524536D01*
X172428282Y-92428282D01*
X172524536Y-92302841D01*
X172585044Y-92156762D01*
X172605682Y-92000000D01*
X172585044Y-91843238D01*
X172524536Y-91697159D01*
X172524535Y-91697159D01*
X172428282Y-91571717D01*
X172302840Y-91475463D01*
X172156762Y-91414956D01*
X172000000Y-91394317D01*
X171843237Y-91414956D01*
X171697159Y-91475463D01*
X171571717Y-91571717D01*
X171475463Y-91697159D01*
X171414956Y-91843237D01*
X171394317Y-92000000D01*
X169276865Y-92000000D01*
X169260081Y-90388723D01*
X169279066Y-90321483D01*
X169331390Y-90275180D01*
X169400442Y-90264517D01*
X169464296Y-90292878D01*
X169482450Y-90311946D01*
X169571717Y-90428282D01*
X169697159Y-90524535D01*
X169697159Y-90524536D01*
X169843238Y-90585044D01*
X170000000Y-90605682D01*
X170156762Y-90585044D01*
X170302841Y-90524536D01*
X170428282Y-90428282D01*
X170524536Y-90302841D01*
X170585044Y-90156762D01*
X170605682Y-90000000D01*
X170585044Y-89843238D01*
X170524536Y-89697159D01*
X170468582Y-89624238D01*
X170428282Y-89571717D01*
X170302840Y-89475463D01*
X170156762Y-89414956D01*
X170000000Y-89394317D01*
X169843237Y-89414956D01*
X169697159Y-89475463D01*
X169571719Y-89571716D01*
X169474486Y-89698433D01*
X169418058Y-89739635D01*
X169348312Y-89743790D01*
X169287391Y-89709577D01*
X169254639Y-89647860D01*
X169252117Y-89624244D01*
X169245615Y-89000000D01*
X171394317Y-89000000D01*
X171414956Y-89156762D01*
X171475463Y-89302840D01*
X171571717Y-89428282D01*
X171697159Y-89524535D01*
X171697159Y-89524536D01*
X171843238Y-89585044D01*
X172000000Y-89605682D01*
X172156762Y-89585044D01*
X172302841Y-89524536D01*
X172428282Y-89428282D01*
X172524536Y-89302841D01*
X172585044Y-89156762D01*
X172605682Y-89000000D01*
X172585044Y-88843238D01*
X172524536Y-88697159D01*
X172524535Y-88697158D01*
X172428282Y-88571717D01*
X172302840Y-88475463D01*
X172156762Y-88414956D01*
X172000000Y-88394317D01*
X171843237Y-88414956D01*
X171697159Y-88475463D01*
X171571717Y-88571717D01*
X171475463Y-88697159D01*
X171414956Y-88843237D01*
X171394317Y-89000000D01*
X169245615Y-89000000D01*
X169233707Y-87856816D01*
X169233613Y-87852387D01*
X169233610Y-87852228D01*
X169233443Y-87847048D01*
X169224760Y-87800796D01*
X169221841Y-87785243D01*
X169198596Y-87719353D01*
X169194361Y-87709347D01*
X169188798Y-87696201D01*
X169178936Y-87684154D01*
X169171737Y-87675359D01*
X169144505Y-87611017D01*
X169156382Y-87542164D01*
X169161331Y-87533066D01*
X169161441Y-87532880D01*
X169163135Y-87530347D01*
X169182126Y-87494817D01*
X169200640Y-87450118D01*
X169212333Y-87411570D01*
X169224168Y-87352070D01*
X169227126Y-87332126D01*
X169229509Y-87307935D01*
X169230499Y-87287789D01*
X169230499Y-86000000D01*
X171394317Y-86000000D01*
X171414956Y-86156762D01*
X171475463Y-86302840D01*
X171571717Y-86428282D01*
X171697159Y-86524535D01*
X171697159Y-86524536D01*
X171843238Y-86585044D01*
X172000000Y-86605682D01*
X172156762Y-86585044D01*
X172302841Y-86524536D01*
X172428282Y-86428282D01*
X172524536Y-86302841D01*
X172585044Y-86156762D01*
X172605682Y-86000000D01*
X172585044Y-85843238D01*
X172524536Y-85697159D01*
X172524535Y-85697159D01*
X172428282Y-85571717D01*
X172302840Y-85475463D01*
X172156762Y-85414956D01*
X172000000Y-85394317D01*
X171843237Y-85414956D01*
X171697159Y-85475463D01*
X171571717Y-85571717D01*
X171475463Y-85697159D01*
X171414956Y-85843237D01*
X171394317Y-86000000D01*
X169230499Y-86000000D01*
X169230499Y-83000000D01*
X171394317Y-83000000D01*
X171414956Y-83156762D01*
X171475463Y-83302840D01*
X171571717Y-83428282D01*
X171689007Y-83518281D01*
X171697159Y-83524536D01*
X171843238Y-83585044D01*
X172000000Y-83605682D01*
X172156762Y-83585044D01*
X172302841Y-83524536D01*
X172428282Y-83428282D01*
X172524536Y-83302841D01*
X172585044Y-83156762D01*
X172605682Y-83000000D01*
X172585044Y-82843238D01*
X172524536Y-82697159D01*
X172524535Y-82697158D01*
X172428282Y-82571717D01*
X172302840Y-82475463D01*
X172156762Y-82414956D01*
X172000000Y-82394317D01*
X171843237Y-82414956D01*
X171697159Y-82475463D01*
X171571717Y-82571717D01*
X171475463Y-82697159D01*
X171414956Y-82843237D01*
X171394317Y-83000000D01*
X169230499Y-83000000D01*
X169230499Y-80000000D01*
X171394317Y-80000000D01*
X171414956Y-80156762D01*
X171475463Y-80302840D01*
X171571717Y-80428282D01*
X171697159Y-80524535D01*
X171697159Y-80524536D01*
X171843238Y-80585044D01*
X172000000Y-80605682D01*
X172156762Y-80585044D01*
X172302841Y-80524536D01*
X172428282Y-80428282D01*
X172524536Y-80302841D01*
X172585044Y-80156762D01*
X172605682Y-80000000D01*
X172585044Y-79843238D01*
X172524536Y-79697159D01*
X172484538Y-79645032D01*
X172428282Y-79571717D01*
X172302840Y-79475463D01*
X172156762Y-79414956D01*
X172000000Y-79394317D01*
X171843237Y-79414956D01*
X171697159Y-79475463D01*
X171571717Y-79571717D01*
X171475463Y-79697159D01*
X171414956Y-79843237D01*
X171394317Y-80000000D01*
X169230499Y-80000000D01*
X169230499Y-77000000D01*
X171394317Y-77000000D01*
X171414956Y-77156762D01*
X171475463Y-77302840D01*
X171571717Y-77428282D01*
X171697159Y-77524535D01*
X171697159Y-77524536D01*
X171843238Y-77585044D01*
X172000000Y-77605682D01*
X172156762Y-77585044D01*
X172302841Y-77524536D01*
X172428282Y-77428282D01*
X172524536Y-77302841D01*
X172585044Y-77156762D01*
X172605682Y-77000000D01*
X172585044Y-76843238D01*
X172524536Y-76697159D01*
X172524535Y-76697158D01*
X172428282Y-76571717D01*
X172302840Y-76475463D01*
X172156762Y-76414956D01*
X172000000Y-76394317D01*
X171843237Y-76414956D01*
X171697159Y-76475463D01*
X171571717Y-76571717D01*
X171475463Y-76697159D01*
X171414956Y-76843237D01*
X171394317Y-77000000D01*
X169230499Y-77000000D01*
X169230499Y-74062210D01*
X169229509Y-74042064D01*
X169227126Y-74017873D01*
X169224475Y-74000000D01*
X171394317Y-74000000D01*
X171414956Y-74156762D01*
X171475463Y-74302840D01*
X171571717Y-74428282D01*
X171697159Y-74524535D01*
X171697159Y-74524536D01*
X171843238Y-74585044D01*
X172000000Y-74605682D01*
X172156762Y-74585044D01*
X172302841Y-74524536D01*
X172428282Y-74428282D01*
X172524536Y-74302841D01*
X172585044Y-74156762D01*
X172605682Y-74000000D01*
X172585044Y-73843238D01*
X172524536Y-73697159D01*
X172513274Y-73682482D01*
X172428282Y-73571717D01*
X172302840Y-73475463D01*
X172156762Y-73414956D01*
X172000000Y-73394317D01*
X171843237Y-73414956D01*
X171697159Y-73475463D01*
X171571717Y-73571717D01*
X171475463Y-73697159D01*
X171414956Y-73843237D01*
X171394317Y-74000000D01*
X169224475Y-74000000D01*
X169224168Y-73997929D01*
X169212333Y-73938429D01*
X169200638Y-73899878D01*
X169182124Y-73855181D01*
X169163135Y-73819654D01*
X169136345Y-73779559D01*
X169110787Y-73748417D01*
X169076582Y-73714212D01*
X169074236Y-73712287D01*
X169074231Y-73712282D01*
X169061011Y-73701433D01*
X169045442Y-73688655D01*
X169016459Y-73669289D01*
X169007884Y-73663559D01*
X169007876Y-73663554D01*
X169005345Y-73661863D01*
X169002655Y-73660425D01*
X169002648Y-73660421D01*
X168972501Y-73644308D01*
X168972497Y-73644306D01*
X168969812Y-73642871D01*
X168967007Y-73641709D01*
X168966996Y-73641704D01*
X168927920Y-73625520D01*
X168925117Y-73624359D01*
X168922222Y-73623480D01*
X168922217Y-73623479D01*
X168889484Y-73613550D01*
X168889485Y-73613550D01*
X168886570Y-73612666D01*
X168883580Y-73612071D01*
X168883575Y-73612070D01*
X168828573Y-73601129D01*
X168828535Y-73601122D01*
X168827070Y-73600831D01*
X168825574Y-73600609D01*
X168825556Y-73600606D01*
X168808631Y-73598096D01*
X168808622Y-73598094D01*
X168807126Y-73597873D01*
X168805655Y-73597728D01*
X168805622Y-73597724D01*
X168784450Y-73595639D01*
X168784440Y-73595638D01*
X168782935Y-73595490D01*
X168781430Y-73595416D01*
X168781416Y-73595415D01*
X168764301Y-73594574D01*
X168764288Y-73594573D01*
X168762789Y-73594500D01*
X168049218Y-73594500D01*
X168047412Y-73594539D01*
X168037298Y-73594846D01*
X168035515Y-73594937D01*
X168022977Y-73595672D01*
X167954539Y-73611682D01*
X167890226Y-73638993D01*
X167840187Y-73669289D01*
X167756163Y-73738246D01*
X167735954Y-73751749D01*
X167673080Y-73785357D01*
X167614625Y-73800000D01*
X166935376Y-73800000D01*
X166876922Y-73785358D01*
X166814041Y-73751747D01*
X166793831Y-73738243D01*
X166709803Y-73669284D01*
X166708395Y-73668179D01*
X166700359Y-73661982D01*
X166698892Y-73660897D01*
X166688777Y-73653545D01*
X166625720Y-73622510D01*
X166592194Y-73612666D01*
X166558680Y-73602825D01*
X166500782Y-73594500D01*
X153307581Y-73594500D01*
X153303302Y-73595102D01*
X153303290Y-73595103D01*
X153255157Y-73601878D01*
X153255155Y-73601878D01*
X153250859Y-73602483D01*
X153246691Y-73603679D01*
X153246686Y-73603681D01*
X153186817Y-73620873D01*
X153186780Y-73620884D01*
X153185066Y-73621377D01*
X153183355Y-73621977D01*
X153183346Y-73621981D01*
X153162498Y-73629305D01*
X153139108Y-73646022D01*
X153073120Y-73668986D01*
X153005192Y-73652629D01*
X152991533Y-73643520D01*
X152902841Y-73575464D01*
X152902840Y-73575463D01*
X152902838Y-73575462D01*
X152756762Y-73514956D01*
X152600000Y-73494317D01*
X152443237Y-73514956D01*
X152297159Y-73575463D01*
X152208495Y-73643497D01*
X152143326Y-73668691D01*
X152074881Y-73654652D01*
X152072474Y-73653341D01*
X152017355Y-73622509D01*
X151950320Y-73602826D01*
X151950317Y-73602825D01*
X151892419Y-73594500D01*
X151892415Y-73594500D01*
X149613708Y-73594532D01*
X149546668Y-73574848D01*
X149500912Y-73522045D01*
X149490768Y-73486720D01*
X149485044Y-73443238D01*
X149424536Y-73297159D01*
X149421939Y-73293775D01*
X149328282Y-73171717D01*
X149202840Y-73075463D01*
X149056762Y-73014956D01*
X148900000Y-72994317D01*
X148743237Y-73014956D01*
X148597159Y-73075463D01*
X148475486Y-73168826D01*
X148410317Y-73194020D01*
X148341872Y-73179981D01*
X148324514Y-73168826D01*
X148202840Y-73075463D01*
X148056762Y-73014956D01*
X147900000Y-72994317D01*
X147743237Y-73014956D01*
X147597159Y-73075463D01*
X147471717Y-73171717D01*
X147375463Y-73297159D01*
X147314956Y-73443237D01*
X147309235Y-73486690D01*
X147280967Y-73550586D01*
X147222642Y-73589057D01*
X147186302Y-73594502D01*
X147178047Y-73594503D01*
X146613712Y-73594529D01*
X146546671Y-73574847D01*
X146500914Y-73522046D01*
X146490768Y-73486715D01*
X146485044Y-73443238D01*
X146424536Y-73297159D01*
X146421939Y-73293775D01*
X146328282Y-73171717D01*
X146202840Y-73075463D01*
X146056762Y-73014956D01*
X145900000Y-72994317D01*
X145743237Y-73014956D01*
X145597159Y-73075463D01*
X145471717Y-73171717D01*
X145375463Y-73297159D01*
X145314956Y-73443237D01*
X145309236Y-73486686D01*
X145280969Y-73550582D01*
X145222645Y-73589053D01*
X145186297Y-73594500D01*
X136354500Y-73594500D01*
X136287461Y-73574815D01*
X136241706Y-73522011D01*
X136230500Y-73470500D01*
X136230500Y-72580000D01*
X150124317Y-72580000D01*
X150144956Y-72736762D01*
X150205463Y-72882840D01*
X150301717Y-73008282D01*
X150425308Y-73103116D01*
X150427159Y-73104536D01*
X150573238Y-73165044D01*
X150730000Y-73185682D01*
X150886762Y-73165044D01*
X151032841Y-73104536D01*
X151158282Y-73008282D01*
X151254536Y-72882841D01*
X151315044Y-72736762D01*
X151335682Y-72580000D01*
X151315044Y-72423238D01*
X151254536Y-72277159D01*
X151214157Y-72224536D01*
X151158282Y-72151717D01*
X151032840Y-72055463D01*
X150886762Y-71994956D01*
X150729999Y-71974317D01*
X150573237Y-71994956D01*
X150427159Y-72055463D01*
X150301717Y-72151717D01*
X150205463Y-72277159D01*
X150144956Y-72423237D01*
X150124317Y-72580000D01*
X136230500Y-72580000D01*
X136230500Y-71700000D01*
X147194317Y-71700000D01*
X147214956Y-71856762D01*
X147275463Y-72002840D01*
X147371717Y-72128282D01*
X147402260Y-72151718D01*
X147497159Y-72224536D01*
X147643238Y-72285044D01*
X147800000Y-72305682D01*
X147956762Y-72285044D01*
X148102841Y-72224536D01*
X148228282Y-72128282D01*
X148324536Y-72002841D01*
X148385044Y-71856762D01*
X148405682Y-71700000D01*
X148385044Y-71543238D01*
X148335876Y-71424536D01*
X148324537Y-71397161D01*
X148324536Y-71397160D01*
X148324536Y-71397159D01*
X148231171Y-71275484D01*
X148205979Y-71210317D01*
X148220017Y-71141873D01*
X148231167Y-71124521D01*
X148324536Y-71002841D01*
X148367134Y-70900000D01*
X150194317Y-70900000D01*
X150214956Y-71056762D01*
X150275463Y-71202840D01*
X150371717Y-71328282D01*
X150461483Y-71397161D01*
X150497159Y-71424536D01*
X150643238Y-71485044D01*
X150800000Y-71505682D01*
X150956762Y-71485044D01*
X151102841Y-71424536D01*
X151228282Y-71328282D01*
X151324536Y-71202841D01*
X151325713Y-71200000D01*
X154894317Y-71200000D01*
X154914956Y-71356762D01*
X154975463Y-71502840D01*
X155071717Y-71628282D01*
X155165183Y-71700000D01*
X155197159Y-71724536D01*
X155343238Y-71785044D01*
X155500000Y-71805682D01*
X155656762Y-71785044D01*
X155802841Y-71724536D01*
X155928282Y-71628282D01*
X156024536Y-71502841D01*
X156079665Y-71369748D01*
X166224500Y-71369748D01*
X166236132Y-71428230D01*
X166280447Y-71494552D01*
X166346769Y-71538867D01*
X166405251Y-71550500D01*
X166405252Y-71550500D01*
X168144749Y-71550500D01*
X168173989Y-71544683D01*
X168203231Y-71538867D01*
X168269552Y-71494552D01*
X168313867Y-71428231D01*
X168325500Y-71369748D01*
X168325500Y-71000000D01*
X171394317Y-71000000D01*
X171414956Y-71156762D01*
X171475463Y-71302840D01*
X171571717Y-71428282D01*
X171658083Y-71494552D01*
X171697159Y-71524536D01*
X171843238Y-71585044D01*
X172000000Y-71605682D01*
X172156762Y-71585044D01*
X172302841Y-71524536D01*
X172428282Y-71428282D01*
X172524536Y-71302841D01*
X172585044Y-71156762D01*
X172605682Y-71000000D01*
X172585044Y-70843238D01*
X172524536Y-70697159D01*
X172507888Y-70675463D01*
X172428282Y-70571717D01*
X172302840Y-70475463D01*
X172156762Y-70414956D01*
X172000000Y-70394317D01*
X171843237Y-70414956D01*
X171697159Y-70475463D01*
X171571717Y-70571717D01*
X171475463Y-70697159D01*
X171414956Y-70843237D01*
X171394317Y-71000000D01*
X168325500Y-71000000D01*
X168325500Y-69630252D01*
X168313867Y-69571769D01*
X168313866Y-69571768D01*
X168269552Y-69505447D01*
X168203230Y-69461132D01*
X168144749Y-69449500D01*
X168144748Y-69449500D01*
X166405252Y-69449500D01*
X166405251Y-69449500D01*
X166346769Y-69461132D01*
X166280447Y-69505447D01*
X166236132Y-69571769D01*
X166224500Y-69630251D01*
X166224500Y-71369748D01*
X156079665Y-71369748D01*
X156085044Y-71356762D01*
X156105682Y-71200000D01*
X156085044Y-71043238D01*
X156024536Y-70897159D01*
X156016687Y-70886930D01*
X155928282Y-70771717D01*
X155802840Y-70675463D01*
X155656762Y-70614956D01*
X155500000Y-70594317D01*
X155343237Y-70614956D01*
X155197159Y-70675463D01*
X155071717Y-70771717D01*
X154975463Y-70897159D01*
X154914956Y-71043237D01*
X154894317Y-71200000D01*
X151325713Y-71200000D01*
X151385044Y-71056762D01*
X151405682Y-70900000D01*
X151385044Y-70743238D01*
X151324536Y-70597159D01*
X151307902Y-70575481D01*
X151228282Y-70471717D01*
X151102840Y-70375463D01*
X150956762Y-70314956D01*
X150800000Y-70294317D01*
X150643237Y-70314956D01*
X150497159Y-70375463D01*
X150371717Y-70471717D01*
X150275463Y-70597159D01*
X150214956Y-70743237D01*
X150194317Y-70900000D01*
X148367134Y-70900000D01*
X148385044Y-70856762D01*
X148405682Y-70700000D01*
X148385044Y-70543238D01*
X148324536Y-70397159D01*
X148284537Y-70345031D01*
X148228282Y-70271717D01*
X148102840Y-70175463D01*
X147956762Y-70114956D01*
X147800000Y-70094317D01*
X147643237Y-70114956D01*
X147497159Y-70175463D01*
X147371717Y-70271717D01*
X147275463Y-70397159D01*
X147214956Y-70543237D01*
X147194317Y-70700000D01*
X147214956Y-70856762D01*
X147275463Y-71002840D01*
X147368826Y-71124513D01*
X147394020Y-71189682D01*
X147379982Y-71258127D01*
X147368826Y-71275485D01*
X147275463Y-71397159D01*
X147214956Y-71543237D01*
X147194317Y-71700000D01*
X136230500Y-71700000D01*
X136230500Y-71176908D01*
X136230480Y-71175627D01*
X136230322Y-71168352D01*
X136230275Y-71167074D01*
X136229895Y-71158052D01*
X136229892Y-71158038D01*
X136229892Y-71158033D01*
X136216242Y-71092481D01*
X136201769Y-71055049D01*
X136199137Y-71045486D01*
X136183683Y-71008177D01*
X136182587Y-71005438D01*
X136180683Y-71000513D01*
X136179884Y-70999006D01*
X136146409Y-70918190D01*
X136138035Y-70886936D01*
X136128720Y-70816176D01*
X136128720Y-70783818D01*
X136138034Y-70713066D01*
X136146412Y-70681804D01*
X136157529Y-70654965D01*
X136190453Y-70575481D01*
X136190452Y-70575480D01*
X136196427Y-70561056D01*
X136199280Y-70554682D01*
X136202490Y-70548027D01*
X136202492Y-70548016D01*
X136202679Y-70547631D01*
X136203928Y-70544091D01*
X136205097Y-70539148D01*
X136222175Y-70480988D01*
X136230500Y-70423090D01*
X136230500Y-68000000D01*
X171394317Y-68000000D01*
X171414956Y-68156762D01*
X171475463Y-68302840D01*
X171571717Y-68428282D01*
X171697159Y-68524535D01*
X171697159Y-68524536D01*
X171843238Y-68585044D01*
X172000000Y-68605682D01*
X172156762Y-68585044D01*
X172302841Y-68524536D01*
X172428282Y-68428282D01*
X172524536Y-68302841D01*
X172585044Y-68156762D01*
X172605682Y-68000000D01*
X172585044Y-67843238D01*
X172524536Y-67697159D01*
X172524535Y-67697159D01*
X172428282Y-67571717D01*
X172302840Y-67475463D01*
X172156762Y-67414956D01*
X172000000Y-67394317D01*
X171843237Y-67414956D01*
X171697159Y-67475463D01*
X171571717Y-67571717D01*
X171475463Y-67697159D01*
X171414956Y-67843237D01*
X171394317Y-68000000D01*
X136230500Y-68000000D01*
X136230500Y-67129500D01*
X136250185Y-67062461D01*
X136302989Y-67016706D01*
X136354500Y-67005500D01*
X172950500Y-67005500D01*
X173017539Y-67025185D01*
G37*
%TD.AperFunction*%
%TD*%
%TA.AperFunction,Conductor*%
%TO.N,+12V*%
G36*
X123317084Y-56020185D02*
G01*
X123362839Y-56072989D01*
X123372783Y-56142147D01*
X123343758Y-56205703D01*
X123325531Y-56222876D01*
X123196717Y-56321717D01*
X123100463Y-56447159D01*
X123039956Y-56593237D01*
X123019317Y-56750000D01*
X123039956Y-56906762D01*
X123100463Y-57052840D01*
X123196717Y-57178282D01*
X123219279Y-57195594D01*
X123322159Y-57274536D01*
X123468238Y-57335044D01*
X123604361Y-57352964D01*
X123624999Y-57355682D01*
X123624999Y-57355681D01*
X123625000Y-57355682D01*
X123781762Y-57335044D01*
X123927841Y-57274536D01*
X124053282Y-57178282D01*
X124149536Y-57052841D01*
X124210044Y-56906762D01*
X124230682Y-56750000D01*
X124210044Y-56593238D01*
X124149536Y-56447159D01*
X124149535Y-56447159D01*
X124053282Y-56321717D01*
X123924469Y-56222876D01*
X123883266Y-56166448D01*
X123879111Y-56096702D01*
X123913323Y-56035782D01*
X123975041Y-56003029D01*
X123999955Y-56000500D01*
X126250045Y-56000500D01*
X126317084Y-56020185D01*
X126362839Y-56072989D01*
X126372783Y-56142147D01*
X126343758Y-56205703D01*
X126325531Y-56222876D01*
X126196717Y-56321717D01*
X126100463Y-56447159D01*
X126039956Y-56593237D01*
X126019317Y-56750000D01*
X126039956Y-56906762D01*
X126100463Y-57052840D01*
X126206656Y-57191234D01*
X126205922Y-57191796D01*
X126236412Y-57233554D01*
X126240566Y-57303300D01*
X126206352Y-57364220D01*
X126144635Y-57396972D01*
X126119722Y-57399500D01*
X126090630Y-57399500D01*
X126087293Y-57399862D01*
X126087291Y-57399863D01*
X125727398Y-57439004D01*
X125727396Y-57439004D01*
X125724052Y-57439368D01*
X125720777Y-57440088D01*
X125720764Y-57440091D01*
X125367214Y-57517913D01*
X125367196Y-57517917D01*
X125363934Y-57518636D01*
X125360763Y-57519704D01*
X125360750Y-57519708D01*
X125017684Y-57635301D01*
X125017681Y-57635302D01*
X125014497Y-57636375D01*
X125011448Y-57637785D01*
X125011442Y-57637788D01*
X124682893Y-57789791D01*
X124682884Y-57789795D01*
X124679838Y-57791205D01*
X124676963Y-57792934D01*
X124676955Y-57792939D01*
X124366762Y-57979576D01*
X124366754Y-57979580D01*
X124363881Y-57981310D01*
X124361220Y-57983332D01*
X124361202Y-57983345D01*
X124073006Y-58202427D01*
X124072997Y-58202434D01*
X124070330Y-58204462D01*
X124067901Y-58206762D01*
X124067889Y-58206773D01*
X123805064Y-58455734D01*
X123805049Y-58455749D01*
X123802627Y-58458044D01*
X123800464Y-58460589D01*
X123800453Y-58460602D01*
X123566083Y-58736524D01*
X123566077Y-58736531D01*
X123563910Y-58739083D01*
X123562029Y-58741855D01*
X123562023Y-58741865D01*
X123454805Y-58900000D01*
X123356978Y-59044284D01*
X123355403Y-59047254D01*
X123355401Y-59047258D01*
X123185832Y-59367097D01*
X123185823Y-59367114D01*
X123184257Y-59370070D01*
X123183016Y-59373182D01*
X123183012Y-59373193D01*
X123049018Y-59709494D01*
X123049013Y-59709508D01*
X123047773Y-59712621D01*
X123046873Y-59715859D01*
X123046873Y-59715862D01*
X122970644Y-59990416D01*
X122949125Y-60067919D01*
X122948581Y-60071236D01*
X122948579Y-60071246D01*
X122890014Y-60428474D01*
X122889469Y-60431801D01*
X122889287Y-60435151D01*
X122889286Y-60435164D01*
X122886179Y-60492478D01*
X122869506Y-60800000D01*
X122869688Y-60803356D01*
X122889286Y-61164835D01*
X122889287Y-61164846D01*
X122889469Y-61168199D01*
X122890013Y-61171520D01*
X122890014Y-61171525D01*
X122945098Y-61507523D01*
X122949125Y-61532081D01*
X123047773Y-61887379D01*
X123049015Y-61890496D01*
X123049018Y-61890505D01*
X123183012Y-62226806D01*
X123184257Y-62229930D01*
X123185827Y-62232892D01*
X123185832Y-62232902D01*
X123289417Y-62428282D01*
X123356978Y-62555716D01*
X123563910Y-62860917D01*
X123802627Y-63141956D01*
X123805058Y-63144259D01*
X123805064Y-63144265D01*
X123868222Y-63204091D01*
X124070330Y-63395538D01*
X124073006Y-63397572D01*
X124361202Y-63616654D01*
X124361208Y-63616658D01*
X124363881Y-63618690D01*
X124679838Y-63808795D01*
X125014497Y-63963625D01*
X125363934Y-64081364D01*
X125724052Y-64160632D01*
X126090630Y-64200500D01*
X126093988Y-64200500D01*
X126456012Y-64200500D01*
X126459370Y-64200500D01*
X126825948Y-64160632D01*
X127186066Y-64081364D01*
X127535503Y-63963625D01*
X127870162Y-63808795D01*
X128186119Y-63618690D01*
X128479670Y-63395538D01*
X128747373Y-63141956D01*
X128986090Y-62860917D01*
X129193022Y-62555716D01*
X129351329Y-62257118D01*
X147624500Y-62257118D01*
X147624607Y-62258928D01*
X147624609Y-62258967D01*
X147627248Y-62303260D01*
X147670908Y-62503964D01*
X147751763Y-62692777D01*
X147866888Y-62862876D01*
X148012123Y-63008111D01*
X148100998Y-63068262D01*
X148182223Y-63123237D01*
X148371035Y-63204091D01*
X148571737Y-63247751D01*
X148587762Y-63248705D01*
X148616032Y-63250390D01*
X148616039Y-63250390D01*
X148617882Y-63250500D01*
X148619711Y-63250500D01*
X150530289Y-63250500D01*
X150532118Y-63250500D01*
X150533961Y-63250390D01*
X150533967Y-63250390D01*
X150554224Y-63249183D01*
X150578263Y-63247751D01*
X150778965Y-63204091D01*
X150967777Y-63123237D01*
X151137875Y-63008112D01*
X151283112Y-62862875D01*
X151398237Y-62692777D01*
X151479091Y-62503965D01*
X151522751Y-62303263D01*
X151525500Y-62257118D01*
X151525500Y-60342882D01*
X151522751Y-60296737D01*
X151479091Y-60096035D01*
X151398237Y-59907223D01*
X151283112Y-59737125D01*
X151283111Y-59737123D01*
X151137876Y-59591888D01*
X150967777Y-59476763D01*
X150778964Y-59395908D01*
X150578260Y-59352248D01*
X150533967Y-59349609D01*
X150533928Y-59349607D01*
X150532118Y-59349500D01*
X148617882Y-59349500D01*
X148616072Y-59349607D01*
X148616032Y-59349609D01*
X148571739Y-59352248D01*
X148371035Y-59395908D01*
X148182222Y-59476763D01*
X148012123Y-59591888D01*
X147866888Y-59737123D01*
X147751763Y-59907222D01*
X147670908Y-60096035D01*
X147627248Y-60296739D01*
X147624609Y-60341032D01*
X147624607Y-60341072D01*
X147624500Y-60342882D01*
X147624500Y-62257118D01*
X129351329Y-62257118D01*
X129365743Y-62229930D01*
X129502227Y-61887379D01*
X129582017Y-61600000D01*
X134194317Y-61600000D01*
X134214956Y-61756762D01*
X134275463Y-61902840D01*
X134371717Y-62028282D01*
X134489837Y-62118918D01*
X134497159Y-62124536D01*
X134643238Y-62185044D01*
X134800000Y-62205682D01*
X134956762Y-62185044D01*
X135102841Y-62124536D01*
X135228282Y-62028282D01*
X135324536Y-61902841D01*
X135385044Y-61756762D01*
X135405682Y-61600000D01*
X137894317Y-61600000D01*
X137914956Y-61756762D01*
X137975463Y-61902840D01*
X138071717Y-62028282D01*
X138189837Y-62118918D01*
X138197159Y-62124536D01*
X138343238Y-62185044D01*
X138500000Y-62205682D01*
X138656762Y-62185044D01*
X138802841Y-62124536D01*
X138928282Y-62028282D01*
X139024536Y-61902841D01*
X139085044Y-61756762D01*
X139105682Y-61600000D01*
X139085044Y-61443238D01*
X139024536Y-61297159D01*
X139022289Y-61294230D01*
X138928282Y-61171717D01*
X138802840Y-61075463D01*
X138656762Y-61014956D01*
X138500000Y-60994317D01*
X138343237Y-61014956D01*
X138197159Y-61075463D01*
X138071717Y-61171717D01*
X137975463Y-61297159D01*
X137914956Y-61443237D01*
X137894317Y-61600000D01*
X135405682Y-61600000D01*
X135385044Y-61443238D01*
X135324536Y-61297159D01*
X135322289Y-61294230D01*
X135228282Y-61171717D01*
X135102840Y-61075463D01*
X134956762Y-61014956D01*
X134800000Y-60994317D01*
X134643237Y-61014956D01*
X134497159Y-61075463D01*
X134371717Y-61171717D01*
X134275463Y-61297159D01*
X134214956Y-61443237D01*
X134194317Y-61600000D01*
X129582017Y-61600000D01*
X129600875Y-61532081D01*
X129660531Y-61168199D01*
X129680494Y-60800000D01*
X129660531Y-60431801D01*
X129600875Y-60067919D01*
X129502227Y-59712621D01*
X129365743Y-59370070D01*
X129356294Y-59352248D01*
X129285412Y-59218550D01*
X129193022Y-59044284D01*
X128986090Y-58739083D01*
X128836049Y-58562441D01*
X128749546Y-58460602D01*
X128749543Y-58460599D01*
X128747373Y-58458044D01*
X128744940Y-58455739D01*
X128744935Y-58455734D01*
X128482110Y-58206773D01*
X128482107Y-58206770D01*
X128479670Y-58204462D01*
X128474932Y-58200860D01*
X128276480Y-58050000D01*
X131169317Y-58050000D01*
X131189956Y-58206762D01*
X131250463Y-58352840D01*
X131346717Y-58478282D01*
X131472159Y-58574536D01*
X131618238Y-58635044D01*
X131775000Y-58655682D01*
X131931762Y-58635044D01*
X132077841Y-58574536D01*
X132203282Y-58478282D01*
X132299536Y-58352841D01*
X132360044Y-58206762D01*
X132380682Y-58050000D01*
X132360044Y-57893238D01*
X132299536Y-57747159D01*
X132203282Y-57621717D01*
X132077840Y-57525463D01*
X131931762Y-57464956D01*
X131775000Y-57444317D01*
X131618237Y-57464956D01*
X131472159Y-57525463D01*
X131346717Y-57621717D01*
X131250463Y-57747159D01*
X131189956Y-57893237D01*
X131169317Y-58050000D01*
X128276480Y-58050000D01*
X128188797Y-57983345D01*
X128188787Y-57983338D01*
X128186119Y-57981310D01*
X127870162Y-57791205D01*
X127535503Y-57636375D01*
X127445393Y-57606013D01*
X127189249Y-57519708D01*
X127189240Y-57519705D01*
X127186066Y-57518636D01*
X127182798Y-57517916D01*
X127182785Y-57517913D01*
X126998412Y-57477330D01*
X126937171Y-57443694D01*
X126903837Y-57382289D01*
X126908993Y-57312609D01*
X126949580Y-57257854D01*
X127053282Y-57178282D01*
X127149536Y-57052841D01*
X127210044Y-56906762D01*
X127230682Y-56750000D01*
X127210044Y-56593238D01*
X127149536Y-56447159D01*
X127149535Y-56447158D01*
X127053282Y-56321717D01*
X126924469Y-56222876D01*
X126883266Y-56166448D01*
X126879111Y-56096702D01*
X126913323Y-56035782D01*
X126975041Y-56003029D01*
X126999955Y-56000500D01*
X129250045Y-56000500D01*
X129317084Y-56020185D01*
X129362839Y-56072989D01*
X129372783Y-56142147D01*
X129343758Y-56205703D01*
X129325531Y-56222876D01*
X129196717Y-56321717D01*
X129100463Y-56447159D01*
X129039956Y-56593237D01*
X129019317Y-56750000D01*
X129039956Y-56906762D01*
X129100463Y-57052840D01*
X129196717Y-57178282D01*
X129219279Y-57195594D01*
X129322159Y-57274536D01*
X129468238Y-57335044D01*
X129604361Y-57352964D01*
X129624999Y-57355682D01*
X129624999Y-57355681D01*
X129625000Y-57355682D01*
X129781762Y-57335044D01*
X129927841Y-57274536D01*
X130053282Y-57178282D01*
X130149536Y-57052841D01*
X130210044Y-56906762D01*
X130230682Y-56750000D01*
X130210044Y-56593238D01*
X130149536Y-56447159D01*
X130149535Y-56447159D01*
X130053282Y-56321717D01*
X129924469Y-56222876D01*
X129883266Y-56166448D01*
X129879111Y-56096702D01*
X129913323Y-56035782D01*
X129975041Y-56003029D01*
X129999955Y-56000500D01*
X132250045Y-56000500D01*
X132317084Y-56020185D01*
X132362839Y-56072989D01*
X132372783Y-56142147D01*
X132343758Y-56205703D01*
X132325531Y-56222876D01*
X132196717Y-56321717D01*
X132100463Y-56447159D01*
X132039956Y-56593237D01*
X132019317Y-56750000D01*
X132039956Y-56906762D01*
X132100463Y-57052840D01*
X132196717Y-57178282D01*
X132219279Y-57195594D01*
X132322159Y-57274536D01*
X132468238Y-57335044D01*
X132604361Y-57352964D01*
X132624999Y-57355682D01*
X132624999Y-57355681D01*
X132625000Y-57355682D01*
X132781762Y-57335044D01*
X132927841Y-57274536D01*
X133053282Y-57178282D01*
X133149536Y-57052841D01*
X133210044Y-56906762D01*
X133230682Y-56750000D01*
X133210044Y-56593238D01*
X133149536Y-56447159D01*
X133149535Y-56447158D01*
X133053282Y-56321717D01*
X132924469Y-56222876D01*
X132883266Y-56166448D01*
X132879111Y-56096702D01*
X132913323Y-56035782D01*
X132975041Y-56003029D01*
X132999955Y-56000500D01*
X135250045Y-56000500D01*
X135317084Y-56020185D01*
X135362839Y-56072989D01*
X135372783Y-56142147D01*
X135343758Y-56205703D01*
X135325531Y-56222876D01*
X135196717Y-56321717D01*
X135100463Y-56447159D01*
X135039956Y-56593237D01*
X135019317Y-56750000D01*
X135039956Y-56906762D01*
X135100463Y-57052840D01*
X135196717Y-57178282D01*
X135219279Y-57195594D01*
X135322159Y-57274536D01*
X135468238Y-57335044D01*
X135604361Y-57352964D01*
X135624999Y-57355682D01*
X135624999Y-57355681D01*
X135625000Y-57355682D01*
X135781762Y-57335044D01*
X135927841Y-57274536D01*
X136053282Y-57178282D01*
X136149536Y-57052841D01*
X136210044Y-56906762D01*
X136230682Y-56750000D01*
X136210044Y-56593238D01*
X136149536Y-56447159D01*
X136149535Y-56447159D01*
X136053282Y-56321717D01*
X135924469Y-56222876D01*
X135883266Y-56166448D01*
X135879111Y-56096702D01*
X135913323Y-56035782D01*
X135975041Y-56003029D01*
X135999955Y-56000500D01*
X138250045Y-56000500D01*
X138317084Y-56020185D01*
X138362839Y-56072989D01*
X138372783Y-56142147D01*
X138343758Y-56205703D01*
X138325531Y-56222876D01*
X138196717Y-56321717D01*
X138100463Y-56447159D01*
X138039956Y-56593237D01*
X138019317Y-56750000D01*
X138039956Y-56906762D01*
X138100463Y-57052840D01*
X138196717Y-57178282D01*
X138219279Y-57195594D01*
X138322159Y-57274536D01*
X138468238Y-57335044D01*
X138604361Y-57352964D01*
X138624999Y-57355682D01*
X138624999Y-57355681D01*
X138625000Y-57355682D01*
X138781762Y-57335044D01*
X138927841Y-57274536D01*
X139053282Y-57178282D01*
X139149536Y-57052841D01*
X139210044Y-56906762D01*
X139230682Y-56750000D01*
X139210044Y-56593238D01*
X139149536Y-56447159D01*
X139149536Y-56447158D01*
X139053282Y-56321717D01*
X138924469Y-56222876D01*
X138883266Y-56166448D01*
X138879111Y-56096702D01*
X138913323Y-56035782D01*
X138975041Y-56003029D01*
X138999955Y-56000500D01*
X141250045Y-56000500D01*
X141317084Y-56020185D01*
X141362839Y-56072989D01*
X141372783Y-56142147D01*
X141343758Y-56205703D01*
X141325531Y-56222876D01*
X141196717Y-56321717D01*
X141100463Y-56447159D01*
X141039956Y-56593237D01*
X141019317Y-56750000D01*
X141039956Y-56906762D01*
X141100463Y-57052840D01*
X141196717Y-57178282D01*
X141219279Y-57195594D01*
X141322159Y-57274536D01*
X141468238Y-57335044D01*
X141604361Y-57352964D01*
X141624999Y-57355682D01*
X141624999Y-57355681D01*
X141625000Y-57355682D01*
X141781762Y-57335044D01*
X141927841Y-57274536D01*
X142053282Y-57178282D01*
X142149536Y-57052841D01*
X142210044Y-56906762D01*
X142230682Y-56750000D01*
X142210044Y-56593238D01*
X142149536Y-56447159D01*
X142053282Y-56321717D01*
X141924469Y-56222876D01*
X141883266Y-56166448D01*
X141879111Y-56096702D01*
X141913323Y-56035782D01*
X141975041Y-56003029D01*
X141999955Y-56000500D01*
X144250045Y-56000500D01*
X144317084Y-56020185D01*
X144362839Y-56072989D01*
X144372783Y-56142147D01*
X144343758Y-56205703D01*
X144325531Y-56222876D01*
X144196717Y-56321717D01*
X144100463Y-56447159D01*
X144039956Y-56593237D01*
X144019317Y-56750000D01*
X144039956Y-56906762D01*
X144100463Y-57052840D01*
X144196717Y-57178282D01*
X144219279Y-57195594D01*
X144322159Y-57274536D01*
X144468238Y-57335044D01*
X144604361Y-57352964D01*
X144624999Y-57355682D01*
X144624999Y-57355681D01*
X144625000Y-57355682D01*
X144781762Y-57335044D01*
X144927841Y-57274536D01*
X145053282Y-57178282D01*
X145149536Y-57052841D01*
X145210044Y-56906762D01*
X145230682Y-56750000D01*
X145210044Y-56593238D01*
X145149536Y-56447159D01*
X145149536Y-56447158D01*
X145053282Y-56321717D01*
X144924469Y-56222876D01*
X144883266Y-56166448D01*
X144879111Y-56096702D01*
X144913323Y-56035782D01*
X144975041Y-56003029D01*
X144999955Y-56000500D01*
X147250045Y-56000500D01*
X147317084Y-56020185D01*
X147362839Y-56072989D01*
X147372783Y-56142147D01*
X147343758Y-56205703D01*
X147325531Y-56222876D01*
X147196717Y-56321717D01*
X147100463Y-56447159D01*
X147039956Y-56593237D01*
X147019317Y-56750000D01*
X147039956Y-56906762D01*
X147100463Y-57052840D01*
X147196717Y-57178282D01*
X147219279Y-57195594D01*
X147322159Y-57274536D01*
X147468238Y-57335044D01*
X147604361Y-57352964D01*
X147624999Y-57355682D01*
X147624999Y-57355681D01*
X147625000Y-57355682D01*
X147781762Y-57335044D01*
X147927841Y-57274536D01*
X148053282Y-57178282D01*
X148149536Y-57052841D01*
X148210044Y-56906762D01*
X148230682Y-56750000D01*
X148210044Y-56593238D01*
X148149536Y-56447159D01*
X148053282Y-56321717D01*
X147924469Y-56222876D01*
X147883266Y-56166448D01*
X147879111Y-56096702D01*
X147913323Y-56035782D01*
X147975041Y-56003029D01*
X147999955Y-56000500D01*
X150250045Y-56000500D01*
X150317084Y-56020185D01*
X150362839Y-56072989D01*
X150372783Y-56142147D01*
X150343758Y-56205703D01*
X150325531Y-56222876D01*
X150196717Y-56321717D01*
X150100463Y-56447159D01*
X150039956Y-56593237D01*
X150019317Y-56750000D01*
X150039956Y-56906762D01*
X150100463Y-57052840D01*
X150196717Y-57178282D01*
X150219279Y-57195594D01*
X150322159Y-57274536D01*
X150468238Y-57335044D01*
X150604361Y-57352964D01*
X150624999Y-57355682D01*
X150624999Y-57355681D01*
X150625000Y-57355682D01*
X150781762Y-57335044D01*
X150927841Y-57274536D01*
X151053282Y-57178282D01*
X151149536Y-57052841D01*
X151210044Y-56906762D01*
X151230682Y-56750000D01*
X151210044Y-56593238D01*
X151149536Y-56447159D01*
X151149536Y-56447158D01*
X151053282Y-56321717D01*
X150924469Y-56222876D01*
X150883266Y-56166448D01*
X150879111Y-56096702D01*
X150913323Y-56035782D01*
X150975041Y-56003029D01*
X150999955Y-56000500D01*
X156250045Y-56000500D01*
X156317084Y-56020185D01*
X156362839Y-56072989D01*
X156372783Y-56142147D01*
X156343758Y-56205703D01*
X156325531Y-56222876D01*
X156196717Y-56321717D01*
X156100463Y-56447159D01*
X156039956Y-56593237D01*
X156026875Y-56692593D01*
X155998608Y-56756490D01*
X155940283Y-56794960D01*
X155870418Y-56795791D01*
X155825578Y-56772510D01*
X155800751Y-56752266D01*
X155684792Y-56691694D01*
X155629405Y-56662762D01*
X155526247Y-56633245D01*
X155443552Y-56609583D01*
X155421355Y-56607609D01*
X155332868Y-56599742D01*
X155332852Y-56599741D01*
X155330138Y-56599500D01*
X153219862Y-56599500D01*
X153217148Y-56599741D01*
X153217131Y-56599742D01*
X153117546Y-56608596D01*
X153106448Y-56609583D01*
X153065100Y-56621414D01*
X152920594Y-56662762D01*
X152804635Y-56723334D01*
X152749249Y-56752266D01*
X152599429Y-56874429D01*
X152477266Y-57024249D01*
X152462331Y-57052841D01*
X152387762Y-57195594D01*
X152334583Y-57381449D01*
X152324742Y-57492131D01*
X152324742Y-57492136D01*
X152324500Y-57494862D01*
X152324500Y-59105138D01*
X152324741Y-59107852D01*
X152324742Y-59107868D01*
X152332609Y-59196355D01*
X152334583Y-59218552D01*
X152358245Y-59301247D01*
X152387762Y-59404405D01*
X152416694Y-59459792D01*
X152477266Y-59575751D01*
X152599429Y-59725571D01*
X152749249Y-59847734D01*
X152920594Y-59937237D01*
X153106448Y-59990417D01*
X153219862Y-60000500D01*
X153222605Y-60000500D01*
X155327395Y-60000500D01*
X155330138Y-60000500D01*
X155443552Y-59990417D01*
X155629406Y-59937237D01*
X155800751Y-59847734D01*
X155950571Y-59725571D01*
X156072734Y-59575751D01*
X156162237Y-59404406D01*
X156215417Y-59218552D01*
X156225500Y-59105138D01*
X156225500Y-58900000D01*
X161494317Y-58900000D01*
X161514956Y-59056762D01*
X161575463Y-59202840D01*
X161671717Y-59328282D01*
X161770925Y-59404406D01*
X161797159Y-59424536D01*
X161943238Y-59485044D01*
X162100000Y-59505682D01*
X162256762Y-59485044D01*
X162402841Y-59424536D01*
X162528282Y-59328282D01*
X162624536Y-59202841D01*
X162685044Y-59056762D01*
X162705682Y-58900000D01*
X162685044Y-58743238D01*
X162624536Y-58597159D01*
X162607177Y-58574536D01*
X162528282Y-58471717D01*
X162402840Y-58375463D01*
X162256762Y-58314956D01*
X162100000Y-58294317D01*
X161943237Y-58314956D01*
X161797159Y-58375463D01*
X161671717Y-58471717D01*
X161575463Y-58597159D01*
X161514956Y-58743237D01*
X161494317Y-58900000D01*
X156225500Y-58900000D01*
X156225500Y-57494862D01*
X156219591Y-57428406D01*
X156233261Y-57359891D01*
X156281805Y-57309639D01*
X156349811Y-57293610D01*
X156390554Y-57302866D01*
X156468238Y-57335044D01*
X156546619Y-57345363D01*
X156624999Y-57355682D01*
X156624999Y-57355681D01*
X156625000Y-57355682D01*
X156781762Y-57335044D01*
X156927841Y-57274536D01*
X157053282Y-57178282D01*
X157149536Y-57052841D01*
X157210044Y-56906762D01*
X157230682Y-56750000D01*
X157210044Y-56593238D01*
X157149536Y-56447159D01*
X157149536Y-56447158D01*
X157053282Y-56321717D01*
X156924469Y-56222876D01*
X156883266Y-56166448D01*
X156879111Y-56096702D01*
X156913323Y-56035782D01*
X156975041Y-56003029D01*
X156999955Y-56000500D01*
X159250045Y-56000500D01*
X159317084Y-56020185D01*
X159362839Y-56072989D01*
X159372783Y-56142147D01*
X159343758Y-56205703D01*
X159325531Y-56222876D01*
X159196717Y-56321717D01*
X159100463Y-56447159D01*
X159039956Y-56593237D01*
X159019317Y-56750000D01*
X159039956Y-56906762D01*
X159100463Y-57052840D01*
X159196717Y-57178282D01*
X159219279Y-57195594D01*
X159322159Y-57274536D01*
X159468238Y-57335044D01*
X159604361Y-57352964D01*
X159624999Y-57355682D01*
X159624999Y-57355681D01*
X159625000Y-57355682D01*
X159781762Y-57335044D01*
X159927841Y-57274536D01*
X160053282Y-57178282D01*
X160149536Y-57052841D01*
X160210044Y-56906762D01*
X160230682Y-56750000D01*
X160210044Y-56593238D01*
X160149536Y-56447159D01*
X160053282Y-56321717D01*
X159924469Y-56222876D01*
X159883266Y-56166448D01*
X159879111Y-56096702D01*
X159913323Y-56035782D01*
X159975041Y-56003029D01*
X159999955Y-56000500D01*
X162250045Y-56000500D01*
X162317084Y-56020185D01*
X162362839Y-56072989D01*
X162372783Y-56142147D01*
X162343758Y-56205703D01*
X162325531Y-56222876D01*
X162196717Y-56321717D01*
X162100463Y-56447159D01*
X162039956Y-56593237D01*
X162019317Y-56750000D01*
X162039956Y-56906762D01*
X162100463Y-57052840D01*
X162196717Y-57178282D01*
X162219279Y-57195594D01*
X162322159Y-57274536D01*
X162468238Y-57335044D01*
X162604361Y-57352964D01*
X162624999Y-57355682D01*
X162624999Y-57355681D01*
X162625000Y-57355682D01*
X162781762Y-57335044D01*
X162927841Y-57274536D01*
X163053282Y-57178282D01*
X163149536Y-57052841D01*
X163210044Y-56906762D01*
X163230682Y-56750000D01*
X163210044Y-56593238D01*
X163149536Y-56447159D01*
X163149536Y-56447158D01*
X163053282Y-56321717D01*
X162924469Y-56222876D01*
X162883266Y-56166448D01*
X162879111Y-56096702D01*
X162913323Y-56035782D01*
X162975041Y-56003029D01*
X162999955Y-56000500D01*
X165250045Y-56000500D01*
X165317084Y-56020185D01*
X165362839Y-56072989D01*
X165372783Y-56142147D01*
X165343758Y-56205703D01*
X165325531Y-56222876D01*
X165196717Y-56321717D01*
X165100463Y-56447159D01*
X165039956Y-56593237D01*
X165019317Y-56750000D01*
X165039956Y-56906762D01*
X165100463Y-57052840D01*
X165196717Y-57178282D01*
X165219279Y-57195594D01*
X165322159Y-57274536D01*
X165468238Y-57335044D01*
X165604361Y-57352964D01*
X165624999Y-57355682D01*
X165624999Y-57355681D01*
X165625000Y-57355682D01*
X165781762Y-57335044D01*
X165927841Y-57274536D01*
X166053282Y-57178282D01*
X166149536Y-57052841D01*
X166210044Y-56906762D01*
X166230682Y-56750000D01*
X166210044Y-56593238D01*
X166149536Y-56447159D01*
X166053282Y-56321717D01*
X165924469Y-56222876D01*
X165883266Y-56166448D01*
X165879111Y-56096702D01*
X165913323Y-56035782D01*
X165975041Y-56003029D01*
X165999955Y-56000500D01*
X168250045Y-56000500D01*
X168317084Y-56020185D01*
X168362839Y-56072989D01*
X168372783Y-56142147D01*
X168343758Y-56205703D01*
X168325531Y-56222876D01*
X168196717Y-56321717D01*
X168100463Y-56447159D01*
X168039956Y-56593237D01*
X168019317Y-56750000D01*
X168039956Y-56906762D01*
X168100463Y-57052840D01*
X168206656Y-57191234D01*
X168205922Y-57191796D01*
X168236412Y-57233554D01*
X168240566Y-57303300D01*
X168206352Y-57364220D01*
X168144635Y-57396972D01*
X168119722Y-57399500D01*
X168090630Y-57399500D01*
X168087293Y-57399862D01*
X168087291Y-57399863D01*
X167727398Y-57439004D01*
X167727396Y-57439004D01*
X167724052Y-57439368D01*
X167720777Y-57440088D01*
X167720764Y-57440091D01*
X167367214Y-57517913D01*
X167367196Y-57517917D01*
X167363934Y-57518636D01*
X167360763Y-57519704D01*
X167360750Y-57519708D01*
X167017684Y-57635301D01*
X167017681Y-57635302D01*
X167014497Y-57636375D01*
X167011448Y-57637785D01*
X167011442Y-57637788D01*
X166682893Y-57789791D01*
X166682884Y-57789795D01*
X166679838Y-57791205D01*
X166676963Y-57792934D01*
X166676955Y-57792939D01*
X166366762Y-57979576D01*
X166366754Y-57979580D01*
X166363881Y-57981310D01*
X166361220Y-57983332D01*
X166361202Y-57983345D01*
X166073006Y-58202427D01*
X166072997Y-58202434D01*
X166070330Y-58204462D01*
X166067901Y-58206762D01*
X166067889Y-58206773D01*
X165805064Y-58455734D01*
X165805049Y-58455749D01*
X165802627Y-58458044D01*
X165800464Y-58460589D01*
X165800453Y-58460602D01*
X165566083Y-58736524D01*
X165566077Y-58736531D01*
X165563910Y-58739083D01*
X165562029Y-58741855D01*
X165562023Y-58741865D01*
X165454805Y-58900000D01*
X165356978Y-59044284D01*
X165355403Y-59047254D01*
X165355401Y-59047258D01*
X165185832Y-59367097D01*
X165185823Y-59367114D01*
X165184257Y-59370070D01*
X165183016Y-59373182D01*
X165183012Y-59373193D01*
X165049018Y-59709494D01*
X165049013Y-59709508D01*
X165047773Y-59712621D01*
X165046873Y-59715859D01*
X165046873Y-59715862D01*
X164970644Y-59990416D01*
X164949125Y-60067919D01*
X164948581Y-60071236D01*
X164948579Y-60071246D01*
X164890014Y-60428474D01*
X164889469Y-60431801D01*
X164889287Y-60435151D01*
X164889286Y-60435164D01*
X164886179Y-60492478D01*
X164869506Y-60800000D01*
X164869688Y-60803356D01*
X164889286Y-61164835D01*
X164889287Y-61164846D01*
X164889469Y-61168199D01*
X164890013Y-61171520D01*
X164890014Y-61171525D01*
X164945098Y-61507523D01*
X164949125Y-61532081D01*
X165047773Y-61887379D01*
X165049015Y-61890496D01*
X165049018Y-61890505D01*
X165183012Y-62226806D01*
X165184257Y-62229930D01*
X165185827Y-62232892D01*
X165185832Y-62232902D01*
X165289417Y-62428282D01*
X165356978Y-62555716D01*
X165563910Y-62860917D01*
X165802627Y-63141956D01*
X165805058Y-63144259D01*
X165805064Y-63144265D01*
X165868222Y-63204091D01*
X166070330Y-63395538D01*
X166073006Y-63397572D01*
X166361202Y-63616654D01*
X166361208Y-63616658D01*
X166363881Y-63618690D01*
X166679838Y-63808795D01*
X167014497Y-63963625D01*
X167363934Y-64081364D01*
X167724052Y-64160632D01*
X168090630Y-64200500D01*
X168093988Y-64200500D01*
X168456012Y-64200500D01*
X168459370Y-64200500D01*
X168825948Y-64160632D01*
X169186066Y-64081364D01*
X169535503Y-63963625D01*
X169870162Y-63808795D01*
X170186119Y-63618690D01*
X170479670Y-63395538D01*
X170747373Y-63141956D01*
X170986090Y-62860917D01*
X171193022Y-62555716D01*
X171297297Y-62359031D01*
X171346089Y-62309024D01*
X171414173Y-62293332D01*
X171479934Y-62316941D01*
X171505226Y-62341628D01*
X171571718Y-62428282D01*
X171697159Y-62524536D01*
X171843238Y-62585044D01*
X172000000Y-62605682D01*
X172156762Y-62585044D01*
X172302841Y-62524536D01*
X172428282Y-62428282D01*
X172524536Y-62302841D01*
X172585044Y-62156762D01*
X172605682Y-62000000D01*
X172585044Y-61843238D01*
X172524536Y-61697159D01*
X172524535Y-61697159D01*
X172428282Y-61571717D01*
X172302840Y-61475463D01*
X172156762Y-61414956D01*
X172000000Y-61394317D01*
X171861475Y-61412554D01*
X171843238Y-61414956D01*
X171817697Y-61425535D01*
X171809685Y-61428854D01*
X171740216Y-61436321D01*
X171677737Y-61405046D01*
X171642085Y-61344956D01*
X171639868Y-61294235D01*
X171660531Y-61168199D01*
X171680494Y-60800000D01*
X171660531Y-60431801D01*
X171600875Y-60067919D01*
X171502227Y-59712621D01*
X171475210Y-59644815D01*
X171468684Y-59575252D01*
X171500802Y-59513202D01*
X171561368Y-59478367D01*
X171631153Y-59481806D01*
X171665890Y-59500543D01*
X171682388Y-59513202D01*
X171697159Y-59524536D01*
X171843238Y-59585044D01*
X172000000Y-59605682D01*
X172156762Y-59585044D01*
X172302841Y-59524536D01*
X172428282Y-59428282D01*
X172524536Y-59302841D01*
X172585044Y-59156762D01*
X172605682Y-59000000D01*
X172585044Y-58843238D01*
X172524536Y-58697159D01*
X172447804Y-58597159D01*
X172428282Y-58571717D01*
X172302840Y-58475463D01*
X172156762Y-58414956D01*
X172000000Y-58394317D01*
X171843237Y-58414956D01*
X171697159Y-58475463D01*
X171571717Y-58571717D01*
X171475463Y-58697159D01*
X171414956Y-58843237D01*
X171399270Y-58962382D01*
X171371003Y-59026278D01*
X171312679Y-59064749D01*
X171242814Y-59065580D01*
X171183591Y-59028508D01*
X171173698Y-59015783D01*
X170987976Y-58741865D01*
X170986090Y-58739083D01*
X170836049Y-58562441D01*
X170749546Y-58460602D01*
X170749543Y-58460599D01*
X170747373Y-58458044D01*
X170744940Y-58455739D01*
X170744935Y-58455734D01*
X170482110Y-58206773D01*
X170482107Y-58206770D01*
X170479670Y-58204462D01*
X170474932Y-58200860D01*
X170188797Y-57983345D01*
X170188787Y-57983338D01*
X170186119Y-57981310D01*
X169870162Y-57791205D01*
X169535503Y-57636375D01*
X169445393Y-57606013D01*
X169189249Y-57519708D01*
X169189240Y-57519705D01*
X169186066Y-57518636D01*
X169182798Y-57517916D01*
X169182785Y-57517913D01*
X168998412Y-57477330D01*
X168937171Y-57443694D01*
X168903837Y-57382289D01*
X168908993Y-57312609D01*
X168949580Y-57257854D01*
X169053282Y-57178282D01*
X169149536Y-57052841D01*
X169210044Y-56906762D01*
X169230682Y-56750000D01*
X169210044Y-56593238D01*
X169149536Y-56447159D01*
X169149536Y-56447158D01*
X169053282Y-56321717D01*
X168924469Y-56222876D01*
X168883266Y-56166448D01*
X168879111Y-56096702D01*
X168913323Y-56035782D01*
X168975041Y-56003029D01*
X168999955Y-56000500D01*
X171250045Y-56000500D01*
X171317084Y-56020185D01*
X171362839Y-56072989D01*
X171372783Y-56142147D01*
X171343758Y-56205703D01*
X171325531Y-56222876D01*
X171196717Y-56321717D01*
X171100463Y-56447159D01*
X171039956Y-56593237D01*
X171019317Y-56750000D01*
X171039956Y-56906762D01*
X171100463Y-57052840D01*
X171196717Y-57178282D01*
X171219279Y-57195594D01*
X171322159Y-57274536D01*
X171468238Y-57335044D01*
X171604361Y-57352964D01*
X171624999Y-57355682D01*
X171624999Y-57355681D01*
X171625000Y-57355682D01*
X171781762Y-57335044D01*
X171927841Y-57274536D01*
X172053282Y-57178282D01*
X172149536Y-57052841D01*
X172210044Y-56906762D01*
X172230682Y-56750000D01*
X172210044Y-56593238D01*
X172149536Y-56447159D01*
X172053282Y-56321717D01*
X171924469Y-56222876D01*
X171883266Y-56166448D01*
X171879111Y-56096702D01*
X171913323Y-56035782D01*
X171975041Y-56003029D01*
X171999955Y-56000500D01*
X172950500Y-56000500D01*
X173017539Y-56020185D01*
X173063294Y-56072989D01*
X173074500Y-56124500D01*
X173074500Y-66676000D01*
X173054815Y-66743039D01*
X173002011Y-66788794D01*
X172950500Y-66800000D01*
X136025000Y-66800000D01*
X136025000Y-67049997D01*
X136025000Y-70423090D01*
X136005315Y-70490129D01*
X136000596Y-70496839D01*
X135939955Y-70643239D01*
X135919317Y-70800000D01*
X135939956Y-70956762D01*
X136006711Y-71117924D01*
X136005886Y-71118265D01*
X136024570Y-71166589D01*
X136025000Y-71176908D01*
X136025000Y-73800000D01*
X145250012Y-73800000D01*
X145317051Y-73819685D01*
X145362806Y-73872489D01*
X145364554Y-73876504D01*
X145371689Y-73893727D01*
X145375465Y-73902843D01*
X145471717Y-74028282D01*
X145565183Y-74100000D01*
X145597159Y-74124536D01*
X145743238Y-74185044D01*
X145900000Y-74205682D01*
X146056762Y-74185044D01*
X146202841Y-74124536D01*
X146328282Y-74028282D01*
X146424536Y-73902841D01*
X146435427Y-73876545D01*
X146479267Y-73822145D01*
X146545561Y-73800079D01*
X146549988Y-73800000D01*
X147250012Y-73800000D01*
X147317051Y-73819685D01*
X147362806Y-73872489D01*
X147364554Y-73876504D01*
X147371689Y-73893727D01*
X147375465Y-73902843D01*
X147471717Y-74028282D01*
X147565183Y-74100000D01*
X147597159Y-74124536D01*
X147743238Y-74185044D01*
X147900000Y-74205682D01*
X148056762Y-74185044D01*
X148202841Y-74124536D01*
X148324515Y-74031171D01*
X148389683Y-74005979D01*
X148458127Y-74020017D01*
X148475478Y-74031167D01*
X148597159Y-74124536D01*
X148743238Y-74185044D01*
X148890308Y-74204406D01*
X148954202Y-74232671D01*
X148992674Y-74290995D01*
X148993506Y-74360860D01*
X148972498Y-74402829D01*
X148915463Y-74477159D01*
X148854956Y-74623237D01*
X148834317Y-74780000D01*
X148854956Y-74936762D01*
X148915463Y-75082840D01*
X148965113Y-75147546D01*
X148990307Y-75212715D01*
X148976268Y-75281160D01*
X148965114Y-75298517D01*
X148935463Y-75337159D01*
X148874956Y-75483237D01*
X148854317Y-75640000D01*
X148874956Y-75796762D01*
X148935463Y-75942840D01*
X149031717Y-76068282D01*
X149157158Y-76164535D01*
X149157159Y-76164536D01*
X149303238Y-76225044D01*
X149460000Y-76245682D01*
X149616762Y-76225044D01*
X149762841Y-76164536D01*
X149888282Y-76068282D01*
X149984536Y-75942841D01*
X150045044Y-75796762D01*
X150065682Y-75640000D01*
X150057783Y-75580000D01*
X166219417Y-75580000D01*
X166239699Y-75785932D01*
X166257082Y-75843237D01*
X166287296Y-75942840D01*
X166299769Y-75983956D01*
X166332375Y-76044956D01*
X166397315Y-76166450D01*
X166442670Y-76221716D01*
X166528589Y-76326410D01*
X166608570Y-76392047D01*
X166688550Y-76457685D01*
X166871046Y-76555232D01*
X167069066Y-76615300D01*
X167275000Y-76635583D01*
X167480934Y-76615300D01*
X167678954Y-76555232D01*
X167861450Y-76457685D01*
X168021410Y-76326410D01*
X168152685Y-76166450D01*
X168250232Y-75983954D01*
X168310300Y-75785934D01*
X168330583Y-75580000D01*
X168310300Y-75374066D01*
X168250232Y-75176046D01*
X168152685Y-74993550D01*
X168087047Y-74913570D01*
X168021410Y-74833589D01*
X167923952Y-74753608D01*
X167861450Y-74702315D01*
X167678954Y-74604768D01*
X167579944Y-74574733D01*
X167480932Y-74544699D01*
X167297497Y-74526632D01*
X167275000Y-74524417D01*
X167274999Y-74524417D01*
X167069067Y-74544699D01*
X166871043Y-74604769D01*
X166688551Y-74702314D01*
X166528589Y-74833589D01*
X166397314Y-74993551D01*
X166299769Y-75176043D01*
X166239699Y-75374067D01*
X166219417Y-75580000D01*
X150057783Y-75580000D01*
X150045044Y-75483238D01*
X149984536Y-75337159D01*
X149941567Y-75281160D01*
X149934886Y-75272453D01*
X149909692Y-75207284D01*
X149923730Y-75138839D01*
X149934887Y-75121480D01*
X149964536Y-75082841D01*
X150025044Y-74936762D01*
X150045682Y-74780000D01*
X150025044Y-74623238D01*
X149964536Y-74477159D01*
X149963235Y-74475463D01*
X149868282Y-74351717D01*
X149742840Y-74255463D01*
X149596762Y-74194956D01*
X149449693Y-74175594D01*
X149385796Y-74147328D01*
X149347325Y-74089003D01*
X149346494Y-74019138D01*
X149367500Y-73977171D01*
X149424536Y-73902841D01*
X149435427Y-73876545D01*
X149479267Y-73822145D01*
X149545561Y-73800079D01*
X149549988Y-73800000D01*
X151892419Y-73800000D01*
X151959458Y-73819685D01*
X152005213Y-73872489D01*
X152015358Y-73940185D01*
X151994317Y-74099999D01*
X152014956Y-74256762D01*
X152075463Y-74402840D01*
X152171717Y-74528282D01*
X152271397Y-74604768D01*
X152297159Y-74624536D01*
X152443238Y-74685044D01*
X152600000Y-74705682D01*
X152756762Y-74685044D01*
X152902841Y-74624536D01*
X153028282Y-74528282D01*
X153124536Y-74402841D01*
X153185044Y-74256762D01*
X153205682Y-74100000D01*
X153205100Y-74095583D01*
X153184642Y-73940185D01*
X153195408Y-73871150D01*
X153241788Y-73818894D01*
X153307581Y-73800000D01*
X166500782Y-73800000D01*
X166567821Y-73819685D01*
X166579436Y-73828138D01*
X166688550Y-73917685D01*
X166871046Y-74015232D01*
X167069066Y-74075300D01*
X167275000Y-74095583D01*
X167480934Y-74075300D01*
X167678954Y-74015232D01*
X167861450Y-73917685D01*
X167970555Y-73828144D01*
X168034864Y-73800834D01*
X168049218Y-73800000D01*
X168762789Y-73800000D01*
X168786980Y-73802383D01*
X168846480Y-73814218D01*
X168891175Y-73832730D01*
X168931272Y-73859522D01*
X168965477Y-73893727D01*
X168992267Y-73933822D01*
X169010781Y-73978519D01*
X169022616Y-74038019D01*
X169024999Y-74062210D01*
X169024999Y-87287789D01*
X169022616Y-87311980D01*
X169010781Y-87371480D01*
X168992267Y-87416179D01*
X168965481Y-87456268D01*
X168931269Y-87490479D01*
X168921049Y-87497309D01*
X168891179Y-87517267D01*
X168846482Y-87535781D01*
X168812857Y-87542469D01*
X168786978Y-87547617D01*
X168762789Y-87550000D01*
X147586332Y-87550000D01*
X147519293Y-87530315D01*
X147473538Y-87477511D01*
X147463594Y-87408353D01*
X147487956Y-87350514D01*
X147517523Y-87311980D01*
X147524536Y-87302841D01*
X147585044Y-87156762D01*
X147605682Y-87000000D01*
X147585044Y-86843238D01*
X147524536Y-86697159D01*
X147524535Y-86697158D01*
X147428282Y-86571717D01*
X147302840Y-86475463D01*
X147156762Y-86414956D01*
X147000000Y-86394317D01*
X146843237Y-86414956D01*
X146697159Y-86475463D01*
X146571717Y-86571717D01*
X146475463Y-86697159D01*
X146414956Y-86843237D01*
X146394317Y-87000000D01*
X146414956Y-87156762D01*
X146475463Y-87302840D01*
X146512044Y-87350514D01*
X146537238Y-87415683D01*
X146523199Y-87484128D01*
X146474385Y-87534118D01*
X146413668Y-87550000D01*
X143699000Y-87550000D01*
X143631961Y-87530315D01*
X143586206Y-87477511D01*
X143575000Y-87426000D01*
X143575000Y-87205675D01*
X143584439Y-87158222D01*
X143585044Y-87156761D01*
X143605682Y-87000000D01*
X143585044Y-86843238D01*
X143584437Y-86841772D01*
X143575000Y-86794324D01*
X143575000Y-85000000D01*
X144394317Y-85000000D01*
X144414956Y-85156762D01*
X144475463Y-85302840D01*
X144571717Y-85428282D01*
X144697159Y-85524535D01*
X144697159Y-85524536D01*
X144843238Y-85585044D01*
X145000000Y-85605682D01*
X145156762Y-85585044D01*
X145302841Y-85524536D01*
X145428282Y-85428282D01*
X145524536Y-85302841D01*
X145585044Y-85156762D01*
X145605682Y-85000000D01*
X148394317Y-85000000D01*
X148414956Y-85156762D01*
X148475463Y-85302840D01*
X148571717Y-85428282D01*
X148697159Y-85524535D01*
X148697159Y-85524536D01*
X148843238Y-85585044D01*
X149000000Y-85605682D01*
X149156762Y-85585044D01*
X149302841Y-85524536D01*
X149428282Y-85428282D01*
X149524536Y-85302841D01*
X149585044Y-85156762D01*
X149605682Y-85000000D01*
X149585044Y-84843238D01*
X149524536Y-84697159D01*
X149483161Y-84643238D01*
X149428282Y-84571717D01*
X149302840Y-84475463D01*
X149156762Y-84414956D01*
X149000000Y-84394317D01*
X148843237Y-84414956D01*
X148697159Y-84475463D01*
X148571717Y-84571717D01*
X148475463Y-84697159D01*
X148414956Y-84843237D01*
X148394317Y-85000000D01*
X145605682Y-85000000D01*
X145585044Y-84843238D01*
X145524536Y-84697159D01*
X145483161Y-84643238D01*
X145428282Y-84571717D01*
X145302840Y-84475463D01*
X145156762Y-84414956D01*
X145000000Y-84394317D01*
X144843237Y-84414956D01*
X144697159Y-84475463D01*
X144571717Y-84571717D01*
X144475463Y-84697159D01*
X144414956Y-84843237D01*
X144394317Y-85000000D01*
X143575000Y-85000000D01*
X143575000Y-83000000D01*
X150394317Y-83000000D01*
X150414956Y-83156762D01*
X150475463Y-83302840D01*
X150571717Y-83428282D01*
X150697159Y-83524535D01*
X150697159Y-83524536D01*
X150843238Y-83585044D01*
X151000000Y-83605682D01*
X151043159Y-83600000D01*
X156694317Y-83600000D01*
X156714956Y-83756762D01*
X156775463Y-83902840D01*
X156871717Y-84028282D01*
X156968885Y-84102841D01*
X156997159Y-84124536D01*
X157143238Y-84185044D01*
X157300000Y-84205682D01*
X157456762Y-84185044D01*
X157602841Y-84124536D01*
X157728282Y-84028282D01*
X157824536Y-83902841D01*
X157885044Y-83756762D01*
X157905682Y-83600000D01*
X157885044Y-83443238D01*
X157824536Y-83297159D01*
X157745624Y-83194318D01*
X157728282Y-83171717D01*
X157602840Y-83075463D01*
X157456762Y-83014956D01*
X157300000Y-82994317D01*
X157143237Y-83014956D01*
X156997159Y-83075463D01*
X156871717Y-83171717D01*
X156775463Y-83297159D01*
X156714956Y-83443237D01*
X156694317Y-83600000D01*
X151043159Y-83600000D01*
X151156762Y-83585044D01*
X151302841Y-83524536D01*
X151428282Y-83428282D01*
X151524536Y-83302841D01*
X151585044Y-83156762D01*
X151605682Y-83000000D01*
X151585044Y-82843238D01*
X151524536Y-82697159D01*
X151524535Y-82697158D01*
X151428282Y-82571717D01*
X151302840Y-82475463D01*
X151156762Y-82414956D01*
X151000000Y-82394317D01*
X150843237Y-82414956D01*
X150697159Y-82475463D01*
X150571717Y-82571717D01*
X150475463Y-82697159D01*
X150414956Y-82843237D01*
X150394317Y-83000000D01*
X143575000Y-83000000D01*
X143575000Y-81000000D01*
X152394317Y-81000000D01*
X152414956Y-81156762D01*
X152475463Y-81302840D01*
X152571717Y-81428282D01*
X152697159Y-81524535D01*
X152697159Y-81524536D01*
X152843238Y-81585044D01*
X153000000Y-81605682D01*
X153156762Y-81585044D01*
X153302841Y-81524536D01*
X153428282Y-81428282D01*
X153524536Y-81302841D01*
X153585044Y-81156762D01*
X153605682Y-81000000D01*
X166469317Y-81000000D01*
X166489956Y-81156762D01*
X166550463Y-81302840D01*
X166646717Y-81428282D01*
X166772158Y-81524536D01*
X166772159Y-81524536D01*
X166918238Y-81585044D01*
X167054360Y-81602964D01*
X167074999Y-81605682D01*
X167074999Y-81605681D01*
X167075000Y-81605682D01*
X167231762Y-81585044D01*
X167377841Y-81524536D01*
X167503282Y-81428282D01*
X167599536Y-81302841D01*
X167660044Y-81156762D01*
X167680682Y-81000000D01*
X167660044Y-80843238D01*
X167599536Y-80697159D01*
X167585051Y-80678282D01*
X167503282Y-80571717D01*
X167377840Y-80475463D01*
X167231762Y-80414956D01*
X167075000Y-80394317D01*
X166918237Y-80414956D01*
X166772159Y-80475463D01*
X166646717Y-80571717D01*
X166550463Y-80697159D01*
X166489956Y-80843237D01*
X166469317Y-81000000D01*
X153605682Y-81000000D01*
X153585044Y-80843238D01*
X153524536Y-80697159D01*
X153510051Y-80678282D01*
X153428282Y-80571717D01*
X153302840Y-80475463D01*
X153156762Y-80414956D01*
X153000000Y-80394317D01*
X152843237Y-80414956D01*
X152697159Y-80475463D01*
X152571717Y-80571717D01*
X152475463Y-80697159D01*
X152414956Y-80843237D01*
X152394317Y-81000000D01*
X143575000Y-81000000D01*
X143575000Y-79849997D01*
X143575000Y-79849996D01*
X143575000Y-79600000D01*
X143325002Y-79600000D01*
X136747965Y-79600000D01*
X136680926Y-79580315D01*
X136635171Y-79527511D01*
X136625227Y-79458353D01*
X136649587Y-79400515D01*
X136724536Y-79302841D01*
X136785044Y-79156762D01*
X136805682Y-79000000D01*
X154394317Y-79000000D01*
X154414956Y-79156762D01*
X154475463Y-79302840D01*
X154571717Y-79428282D01*
X154697159Y-79524535D01*
X154697159Y-79524536D01*
X154843238Y-79585044D01*
X155000000Y-79605682D01*
X155156762Y-79585044D01*
X155302841Y-79524536D01*
X155428282Y-79428282D01*
X155524536Y-79302841D01*
X155585044Y-79156762D01*
X155605682Y-79000000D01*
X155585044Y-78843238D01*
X155524536Y-78697159D01*
X155513421Y-78682674D01*
X155428282Y-78571717D01*
X155302840Y-78475463D01*
X155156762Y-78414956D01*
X155000000Y-78394317D01*
X154843237Y-78414956D01*
X154697159Y-78475463D01*
X154571717Y-78571717D01*
X154475463Y-78697159D01*
X154414956Y-78843237D01*
X154394317Y-79000000D01*
X136805682Y-79000000D01*
X136785044Y-78843238D01*
X136724536Y-78697159D01*
X136713421Y-78682674D01*
X136628282Y-78571717D01*
X136502840Y-78475463D01*
X136356762Y-78414956D01*
X136200000Y-78394317D01*
X136043237Y-78414956D01*
X135897159Y-78475463D01*
X135771717Y-78571717D01*
X135675463Y-78697159D01*
X135614956Y-78843237D01*
X135594317Y-79000000D01*
X135614956Y-79156762D01*
X135675462Y-79302838D01*
X135675463Y-79302840D01*
X135675464Y-79302841D01*
X135750411Y-79400515D01*
X135775605Y-79465683D01*
X135761567Y-79534127D01*
X135712753Y-79584117D01*
X135652035Y-79600000D01*
X134507581Y-79600000D01*
X134440542Y-79580315D01*
X134394787Y-79527511D01*
X134384642Y-79459815D01*
X134405682Y-79300000D01*
X134385044Y-79143238D01*
X134324536Y-78997159D01*
X134277018Y-78935232D01*
X134228283Y-78871719D01*
X134227992Y-78871496D01*
X134171963Y-78828503D01*
X134130761Y-78772075D01*
X134126606Y-78702329D01*
X134132889Y-78682674D01*
X134185044Y-78556762D01*
X134205682Y-78400000D01*
X134185044Y-78243238D01*
X134133997Y-78120000D01*
X166219417Y-78120000D01*
X166239699Y-78325932D01*
X166260444Y-78394318D01*
X166299768Y-78523954D01*
X166397315Y-78706450D01*
X166445174Y-78764767D01*
X166528589Y-78866410D01*
X166599417Y-78924536D01*
X166688550Y-78997685D01*
X166871046Y-79095232D01*
X167069066Y-79155300D01*
X167275000Y-79175583D01*
X167480934Y-79155300D01*
X167678954Y-79095232D01*
X167861450Y-78997685D01*
X168021410Y-78866410D01*
X168152685Y-78706450D01*
X168250232Y-78523954D01*
X168310300Y-78325934D01*
X168330583Y-78120000D01*
X168310300Y-77914066D01*
X168250232Y-77716046D01*
X168152685Y-77533550D01*
X168087047Y-77453569D01*
X168021410Y-77373589D01*
X167923952Y-77293608D01*
X167861450Y-77242315D01*
X167701393Y-77156762D01*
X167678956Y-77144769D01*
X167678955Y-77144768D01*
X167678954Y-77144768D01*
X167579291Y-77114536D01*
X167480932Y-77084699D01*
X167297497Y-77066632D01*
X167275000Y-77064417D01*
X167274999Y-77064417D01*
X167069067Y-77084699D01*
X166871043Y-77144769D01*
X166688551Y-77242314D01*
X166528589Y-77373589D01*
X166397314Y-77533551D01*
X166299769Y-77716043D01*
X166239699Y-77914067D01*
X166219417Y-78120000D01*
X134133997Y-78120000D01*
X134124536Y-78097159D01*
X134068811Y-78024536D01*
X134028282Y-77971717D01*
X133902840Y-77875463D01*
X133756762Y-77814956D01*
X133600000Y-77794317D01*
X133443237Y-77814956D01*
X133297159Y-77875463D01*
X133171717Y-77971717D01*
X133075463Y-78097159D01*
X133014956Y-78243237D01*
X132994317Y-78400000D01*
X133014956Y-78556762D01*
X133075463Y-78702840D01*
X133171717Y-78828281D01*
X133228036Y-78871496D01*
X133269239Y-78927923D01*
X133273394Y-78997669D01*
X133267111Y-79017324D01*
X133214956Y-79143237D01*
X133194317Y-79300000D01*
X133215358Y-79459815D01*
X133204592Y-79528850D01*
X133158212Y-79581106D01*
X133092419Y-79600000D01*
X132759719Y-79600000D01*
X132692680Y-79580315D01*
X132661343Y-79551486D01*
X132594654Y-79464574D01*
X132469212Y-79368320D01*
X132323134Y-79307813D01*
X132166371Y-79287174D01*
X132009609Y-79307813D01*
X131863531Y-79368320D01*
X131738089Y-79464574D01*
X131671401Y-79551486D01*
X131614973Y-79592689D01*
X131573025Y-79600000D01*
X122547965Y-79600000D01*
X122480926Y-79580315D01*
X122435171Y-79527511D01*
X122425227Y-79458353D01*
X122449587Y-79400515D01*
X122524536Y-79302841D01*
X122585044Y-79156762D01*
X122605682Y-79000000D01*
X122585044Y-78843238D01*
X122524536Y-78697159D01*
X122513421Y-78682674D01*
X122428282Y-78571717D01*
X122302840Y-78475463D01*
X122156762Y-78414956D01*
X122000000Y-78394317D01*
X121843237Y-78414956D01*
X121697159Y-78475463D01*
X121674985Y-78492478D01*
X121609816Y-78517671D01*
X121541371Y-78503632D01*
X121491382Y-78454818D01*
X121475500Y-78394101D01*
X121475500Y-77500000D01*
X124894317Y-77500000D01*
X124914956Y-77656762D01*
X124975463Y-77802840D01*
X125071717Y-77928282D01*
X125128325Y-77971718D01*
X125197159Y-78024536D01*
X125343238Y-78085044D01*
X125500000Y-78105682D01*
X125656762Y-78085044D01*
X125802841Y-78024536D01*
X125928282Y-77928282D01*
X126024536Y-77802841D01*
X126085044Y-77656762D01*
X126105682Y-77500000D01*
X126085044Y-77343238D01*
X126024536Y-77197159D01*
X126007177Y-77174536D01*
X125928282Y-77071717D01*
X125802840Y-76975463D01*
X125656762Y-76914956D01*
X125500000Y-76894317D01*
X125343237Y-76914956D01*
X125197159Y-76975463D01*
X125071717Y-77071717D01*
X124975463Y-77197159D01*
X124914956Y-77343237D01*
X124894317Y-77500000D01*
X121475500Y-77500000D01*
X121475500Y-76605898D01*
X121495185Y-76538859D01*
X121547989Y-76493104D01*
X121617147Y-76483160D01*
X121674987Y-76507523D01*
X121697159Y-76524536D01*
X121843238Y-76585044D01*
X122000000Y-76605682D01*
X122156762Y-76585044D01*
X122302841Y-76524536D01*
X122428282Y-76428282D01*
X122524536Y-76302841D01*
X122585044Y-76156762D01*
X122605682Y-76000000D01*
X132994317Y-76000000D01*
X133014956Y-76156762D01*
X133075463Y-76302840D01*
X133171717Y-76428282D01*
X133274987Y-76507523D01*
X133297159Y-76524536D01*
X133443238Y-76585044D01*
X133600000Y-76605682D01*
X133719117Y-76590000D01*
X141174317Y-76590000D01*
X141194956Y-76746762D01*
X141255463Y-76892840D01*
X141351717Y-77018282D01*
X141438276Y-77084700D01*
X141477159Y-77114536D01*
X141623238Y-77175044D01*
X141780000Y-77195682D01*
X141936762Y-77175044D01*
X142082841Y-77114536D01*
X142208282Y-77018282D01*
X142211277Y-77014378D01*
X142267700Y-76973176D01*
X142337446Y-76969019D01*
X142398368Y-77003229D01*
X142408029Y-77014378D01*
X142441717Y-77058282D01*
X142554429Y-77144768D01*
X142567159Y-77154536D01*
X142713238Y-77215044D01*
X142870000Y-77235682D01*
X143026762Y-77215044D01*
X143172841Y-77154536D01*
X143298282Y-77058282D01*
X143333952Y-77011795D01*
X143390376Y-76970595D01*
X143460122Y-76966439D01*
X143521043Y-77000650D01*
X143530702Y-77011797D01*
X143581717Y-77078282D01*
X143681094Y-77154536D01*
X143707159Y-77174536D01*
X143853238Y-77235044D01*
X144010000Y-77255682D01*
X144166762Y-77235044D01*
X144312841Y-77174536D01*
X144438282Y-77078282D01*
X144534536Y-76952841D01*
X144595044Y-76806762D01*
X144615682Y-76650000D01*
X144595044Y-76493238D01*
X144534536Y-76347159D01*
X144508755Y-76313560D01*
X144438282Y-76221717D01*
X144312840Y-76125463D01*
X144166762Y-76064956D01*
X144010000Y-76044317D01*
X143853237Y-76064956D01*
X143707159Y-76125463D01*
X143581719Y-76221716D01*
X143546049Y-76268203D01*
X143489621Y-76309405D01*
X143419875Y-76313560D01*
X143358954Y-76279348D01*
X143349297Y-76268202D01*
X143298282Y-76201717D01*
X143172840Y-76105463D01*
X143026762Y-76044956D01*
X142870000Y-76024317D01*
X142713237Y-76044956D01*
X142567159Y-76105463D01*
X142441717Y-76201718D01*
X142438720Y-76205624D01*
X142382291Y-76246825D01*
X142312545Y-76250978D01*
X142251625Y-76216764D01*
X142241970Y-76205621D01*
X142208282Y-76161717D01*
X142082840Y-76065463D01*
X141936762Y-76004956D01*
X141779999Y-75984317D01*
X141623237Y-76004956D01*
X141477159Y-76065463D01*
X141351717Y-76161717D01*
X141255463Y-76287159D01*
X141194956Y-76433237D01*
X141174317Y-76590000D01*
X133719117Y-76590000D01*
X133756762Y-76585044D01*
X133902841Y-76524536D01*
X134028282Y-76428282D01*
X134124536Y-76302841D01*
X134185044Y-76156762D01*
X134205682Y-76000000D01*
X134185044Y-75843238D01*
X134124536Y-75697159D01*
X134124500Y-75697112D01*
X134028282Y-75571717D01*
X133902840Y-75475463D01*
X133756762Y-75414956D01*
X133600000Y-75394317D01*
X133443237Y-75414956D01*
X133297159Y-75475463D01*
X133171717Y-75571717D01*
X133075463Y-75697159D01*
X133014956Y-75843237D01*
X132994317Y-76000000D01*
X122605682Y-76000000D01*
X122585044Y-75843238D01*
X122524536Y-75697159D01*
X122524500Y-75697112D01*
X122428282Y-75571717D01*
X122302840Y-75475463D01*
X122156762Y-75414956D01*
X122000000Y-75394317D01*
X121843237Y-75414956D01*
X121697159Y-75475463D01*
X121674985Y-75492478D01*
X121609816Y-75517671D01*
X121541371Y-75503632D01*
X121491382Y-75454818D01*
X121475500Y-75394101D01*
X121475500Y-75000000D01*
X134394317Y-75000000D01*
X134414956Y-75156762D01*
X134475463Y-75302840D01*
X134571717Y-75428282D01*
X134643337Y-75483237D01*
X134697159Y-75524536D01*
X134843238Y-75585044D01*
X135000000Y-75605682D01*
X135156762Y-75585044D01*
X135302841Y-75524536D01*
X135428282Y-75428282D01*
X135524536Y-75302841D01*
X135585044Y-75156762D01*
X135605682Y-75000000D01*
X135585044Y-74843238D01*
X135524536Y-74697159D01*
X135467814Y-74623237D01*
X135428282Y-74571717D01*
X135302840Y-74475463D01*
X135156762Y-74414956D01*
X135000000Y-74394317D01*
X134843237Y-74414956D01*
X134697159Y-74475463D01*
X134571717Y-74571717D01*
X134475463Y-74697159D01*
X134414956Y-74843237D01*
X134394317Y-75000000D01*
X121475500Y-75000000D01*
X121475500Y-73605898D01*
X121495185Y-73538859D01*
X121547989Y-73493104D01*
X121617147Y-73483160D01*
X121674987Y-73507523D01*
X121697159Y-73524536D01*
X121843238Y-73585044D01*
X122000000Y-73605682D01*
X122156762Y-73585044D01*
X122302841Y-73524536D01*
X122428282Y-73428282D01*
X122524536Y-73302841D01*
X122585044Y-73156762D01*
X122605682Y-73000000D01*
X133394317Y-73000000D01*
X133414956Y-73156762D01*
X133475463Y-73302840D01*
X133571717Y-73428282D01*
X133656196Y-73493104D01*
X133697159Y-73524536D01*
X133843238Y-73585044D01*
X134000000Y-73605682D01*
X134156762Y-73585044D01*
X134302841Y-73524536D01*
X134428282Y-73428282D01*
X134524536Y-73302841D01*
X134585044Y-73156762D01*
X134605682Y-73000000D01*
X134585044Y-72843238D01*
X134524536Y-72697159D01*
X134492710Y-72655682D01*
X134428282Y-72571717D01*
X134302840Y-72475463D01*
X134156762Y-72414956D01*
X134000000Y-72394317D01*
X133843237Y-72414956D01*
X133697159Y-72475463D01*
X133571717Y-72571717D01*
X133475463Y-72697159D01*
X133414956Y-72843237D01*
X133394317Y-73000000D01*
X122605682Y-73000000D01*
X122585044Y-72843238D01*
X122524536Y-72697159D01*
X122492710Y-72655682D01*
X122428282Y-72571717D01*
X122302840Y-72475463D01*
X122156762Y-72414956D01*
X122000000Y-72394317D01*
X121843237Y-72414956D01*
X121697159Y-72475463D01*
X121674985Y-72492478D01*
X121609816Y-72517671D01*
X121541371Y-72503632D01*
X121491382Y-72454818D01*
X121475500Y-72394101D01*
X121475500Y-70999999D01*
X131294317Y-70999999D01*
X131314956Y-71156762D01*
X131375463Y-71302840D01*
X131471717Y-71428282D01*
X131568885Y-71502841D01*
X131597159Y-71524536D01*
X131743238Y-71585044D01*
X131900000Y-71605682D01*
X132056762Y-71585044D01*
X132202841Y-71524536D01*
X132328282Y-71428282D01*
X132424536Y-71302841D01*
X132485044Y-71156762D01*
X132505682Y-71000000D01*
X132485044Y-70843238D01*
X132424536Y-70697159D01*
X132361460Y-70614956D01*
X132328282Y-70571717D01*
X132202840Y-70475463D01*
X132056762Y-70414956D01*
X131900000Y-70394317D01*
X131743237Y-70414956D01*
X131597159Y-70475463D01*
X131471717Y-70571717D01*
X131375463Y-70697159D01*
X131314956Y-70843237D01*
X131294317Y-70999999D01*
X121475500Y-70999999D01*
X121475500Y-70605898D01*
X121495185Y-70538859D01*
X121547989Y-70493104D01*
X121617147Y-70483160D01*
X121674987Y-70507523D01*
X121697159Y-70524536D01*
X121843238Y-70585044D01*
X122000000Y-70605682D01*
X122156762Y-70585044D01*
X122302841Y-70524536D01*
X122428282Y-70428282D01*
X122524536Y-70302841D01*
X122585044Y-70156762D01*
X122605682Y-70000000D01*
X125394317Y-70000000D01*
X125414956Y-70156762D01*
X125475463Y-70302840D01*
X125571717Y-70428282D01*
X125674987Y-70507523D01*
X125697159Y-70524536D01*
X125843238Y-70585044D01*
X126000000Y-70605682D01*
X126156762Y-70585044D01*
X126302841Y-70524536D01*
X126428282Y-70428282D01*
X126524536Y-70302841D01*
X126585044Y-70156762D01*
X126605682Y-70000000D01*
X133394317Y-70000000D01*
X133414956Y-70156762D01*
X133475463Y-70302840D01*
X133571717Y-70428282D01*
X133674987Y-70507523D01*
X133697159Y-70524536D01*
X133843238Y-70585044D01*
X134000000Y-70605682D01*
X134156762Y-70585044D01*
X134302841Y-70524536D01*
X134428282Y-70428282D01*
X134524536Y-70302841D01*
X134585044Y-70156762D01*
X134605682Y-70000000D01*
X134585044Y-69843238D01*
X134524536Y-69697159D01*
X134524500Y-69697112D01*
X134428282Y-69571717D01*
X134302840Y-69475463D01*
X134156762Y-69414956D01*
X134000000Y-69394317D01*
X133843237Y-69414956D01*
X133697159Y-69475463D01*
X133571717Y-69571717D01*
X133475463Y-69697159D01*
X133414956Y-69843237D01*
X133394317Y-70000000D01*
X126605682Y-70000000D01*
X126585044Y-69843238D01*
X126524536Y-69697159D01*
X126524500Y-69697112D01*
X126428282Y-69571717D01*
X126302840Y-69475463D01*
X126156762Y-69414956D01*
X126000000Y-69394317D01*
X125843237Y-69414956D01*
X125697159Y-69475463D01*
X125571717Y-69571717D01*
X125475463Y-69697159D01*
X125414956Y-69843237D01*
X125394317Y-70000000D01*
X122605682Y-70000000D01*
X122585044Y-69843238D01*
X122524536Y-69697159D01*
X122524500Y-69697112D01*
X122428282Y-69571717D01*
X122302840Y-69475463D01*
X122156762Y-69414956D01*
X122000000Y-69394317D01*
X121843237Y-69414956D01*
X121697159Y-69475463D01*
X121674985Y-69492478D01*
X121609816Y-69517671D01*
X121541371Y-69503632D01*
X121491382Y-69454818D01*
X121475500Y-69394101D01*
X121475500Y-67605898D01*
X121495185Y-67538859D01*
X121547989Y-67493104D01*
X121617147Y-67483160D01*
X121674987Y-67507523D01*
X121697159Y-67524536D01*
X121843238Y-67585044D01*
X122000000Y-67605682D01*
X122156762Y-67585044D01*
X122302841Y-67524536D01*
X122428282Y-67428282D01*
X122524536Y-67302841D01*
X122585044Y-67156762D01*
X122599099Y-67050000D01*
X123569317Y-67050000D01*
X123589956Y-67206762D01*
X123650463Y-67352840D01*
X123746717Y-67478282D01*
X123872158Y-67574536D01*
X123872159Y-67574536D01*
X124018238Y-67635044D01*
X124175000Y-67655682D01*
X124331762Y-67635044D01*
X124477841Y-67574536D01*
X124603282Y-67478282D01*
X124699536Y-67352841D01*
X124760044Y-67206762D01*
X124780682Y-67050000D01*
X124760044Y-66893238D01*
X124699536Y-66747159D01*
X124644934Y-66676000D01*
X124603282Y-66621717D01*
X124477840Y-66525463D01*
X124331762Y-66464956D01*
X124175000Y-66444317D01*
X124018237Y-66464956D01*
X123872159Y-66525463D01*
X123746717Y-66621717D01*
X123650463Y-66747159D01*
X123589956Y-66893237D01*
X123569317Y-67050000D01*
X122599099Y-67050000D01*
X122605682Y-67000000D01*
X122585044Y-66843238D01*
X122524536Y-66697159D01*
X122508300Y-66676000D01*
X122428282Y-66571717D01*
X122302840Y-66475463D01*
X122156762Y-66414956D01*
X122000000Y-66394317D01*
X121843237Y-66414956D01*
X121697159Y-66475463D01*
X121674985Y-66492478D01*
X121609816Y-66517671D01*
X121541371Y-66503632D01*
X121491382Y-66454818D01*
X121475500Y-66394101D01*
X121475500Y-65750000D01*
X124619317Y-65750000D01*
X124639956Y-65906762D01*
X124700463Y-66052840D01*
X124796717Y-66178282D01*
X124805530Y-66185044D01*
X124922159Y-66274536D01*
X125068238Y-66335044D01*
X125204360Y-66352964D01*
X125224999Y-66355682D01*
X125224999Y-66355681D01*
X125225000Y-66355682D01*
X125381762Y-66335044D01*
X125527841Y-66274536D01*
X125653282Y-66178282D01*
X125749536Y-66052841D01*
X125771424Y-65999999D01*
X132494317Y-65999999D01*
X132514956Y-66156762D01*
X132575463Y-66302840D01*
X132671717Y-66428282D01*
X132714637Y-66461215D01*
X132755840Y-66517643D01*
X132759995Y-66587389D01*
X132725783Y-66648309D01*
X132714639Y-66657966D01*
X132696717Y-66671718D01*
X132600463Y-66797159D01*
X132539956Y-66943237D01*
X132519317Y-67100000D01*
X132539956Y-67256762D01*
X132600463Y-67402840D01*
X132696717Y-67528282D01*
X132797588Y-67605682D01*
X132822159Y-67624536D01*
X132968238Y-67685044D01*
X133125000Y-67705682D01*
X133281762Y-67685044D01*
X133427841Y-67624536D01*
X133553282Y-67528282D01*
X133649536Y-67402841D01*
X133710044Y-67256762D01*
X133730682Y-67100000D01*
X133710044Y-66943238D01*
X133649536Y-66797159D01*
X133611170Y-66747159D01*
X133553282Y-66671717D01*
X133510362Y-66638784D01*
X133469159Y-66582356D01*
X133465004Y-66512610D01*
X133499216Y-66451690D01*
X133510355Y-66442037D01*
X133528282Y-66428282D01*
X133624536Y-66302841D01*
X133685044Y-66156762D01*
X133705682Y-66000000D01*
X133685044Y-65843238D01*
X133624536Y-65697159D01*
X133549983Y-65599999D01*
X135494317Y-65599999D01*
X135514956Y-65756762D01*
X135575463Y-65902840D01*
X135671717Y-66028282D01*
X135772588Y-66105682D01*
X135797159Y-66124536D01*
X135943238Y-66185044D01*
X136100000Y-66205682D01*
X136256762Y-66185044D01*
X136402841Y-66124536D01*
X136528282Y-66028282D01*
X136624536Y-65902841D01*
X136685044Y-65756762D01*
X136705682Y-65600000D01*
X136692517Y-65500000D01*
X139094317Y-65500000D01*
X139114956Y-65656762D01*
X139175463Y-65802840D01*
X139271717Y-65928282D01*
X139365183Y-66000000D01*
X139397159Y-66024536D01*
X139543238Y-66085044D01*
X139700000Y-66105682D01*
X139856762Y-66085044D01*
X140002841Y-66024536D01*
X140128282Y-65928282D01*
X140224536Y-65802841D01*
X140285044Y-65656762D01*
X140305682Y-65500000D01*
X140285044Y-65343238D01*
X140224536Y-65197159D01*
X140224536Y-65197158D01*
X140128282Y-65071717D01*
X140034818Y-65000000D01*
X171394317Y-65000000D01*
X171414956Y-65156762D01*
X171475463Y-65302840D01*
X171571717Y-65428282D01*
X171665183Y-65500000D01*
X171697159Y-65524536D01*
X171843238Y-65585044D01*
X172000000Y-65605682D01*
X172156762Y-65585044D01*
X172302841Y-65524536D01*
X172428282Y-65428282D01*
X172524536Y-65302841D01*
X172585044Y-65156762D01*
X172605682Y-65000000D01*
X172585044Y-64843238D01*
X172524536Y-64697159D01*
X172524535Y-64697158D01*
X172428282Y-64571717D01*
X172302840Y-64475463D01*
X172156762Y-64414956D01*
X172000000Y-64394317D01*
X171843237Y-64414956D01*
X171697159Y-64475463D01*
X171571717Y-64571717D01*
X171475463Y-64697159D01*
X171414956Y-64843237D01*
X171394317Y-65000000D01*
X140034818Y-65000000D01*
X140002840Y-64975463D01*
X139856762Y-64914956D01*
X139700000Y-64894317D01*
X139543237Y-64914956D01*
X139397159Y-64975463D01*
X139271717Y-65071717D01*
X139175463Y-65197159D01*
X139114956Y-65343237D01*
X139094317Y-65500000D01*
X136692517Y-65500000D01*
X136685044Y-65443238D01*
X136624536Y-65297159D01*
X136547804Y-65197159D01*
X136528282Y-65171717D01*
X136402840Y-65075463D01*
X136256762Y-65014956D01*
X136100000Y-64994317D01*
X135943237Y-65014956D01*
X135797159Y-65075463D01*
X135671717Y-65171717D01*
X135575463Y-65297159D01*
X135514956Y-65443237D01*
X135494317Y-65599999D01*
X133549983Y-65599999D01*
X133528282Y-65571717D01*
X133402840Y-65475463D01*
X133256762Y-65414956D01*
X133100000Y-65394317D01*
X132943237Y-65414956D01*
X132797159Y-65475463D01*
X132671717Y-65571717D01*
X132575463Y-65697159D01*
X132514956Y-65843237D01*
X132494317Y-65999999D01*
X125771424Y-65999999D01*
X125810044Y-65906762D01*
X125830682Y-65750000D01*
X125810044Y-65593238D01*
X125749536Y-65447159D01*
X125669795Y-65343238D01*
X125653282Y-65321717D01*
X125527840Y-65225463D01*
X125381762Y-65164956D01*
X125225000Y-65144317D01*
X125068237Y-65164956D01*
X124922159Y-65225463D01*
X124796717Y-65321717D01*
X124700463Y-65447159D01*
X124639956Y-65593237D01*
X124619317Y-65750000D01*
X121475500Y-65750000D01*
X121475500Y-64605898D01*
X121495185Y-64538859D01*
X121547989Y-64493104D01*
X121617147Y-64483160D01*
X121674987Y-64507523D01*
X121697159Y-64524536D01*
X121843238Y-64585044D01*
X122000000Y-64605682D01*
X122156762Y-64585044D01*
X122302841Y-64524536D01*
X122428282Y-64428282D01*
X122524536Y-64302841D01*
X122585044Y-64156762D01*
X122605682Y-64000000D01*
X122585044Y-63843238D01*
X122524536Y-63697159D01*
X122462763Y-63616654D01*
X122428282Y-63571717D01*
X122302840Y-63475463D01*
X122156762Y-63414956D01*
X122000000Y-63394317D01*
X121843237Y-63414956D01*
X121697159Y-63475463D01*
X121674985Y-63492478D01*
X121609816Y-63517671D01*
X121541371Y-63503632D01*
X121491382Y-63454818D01*
X121475500Y-63394101D01*
X121475500Y-61605898D01*
X121495185Y-61538859D01*
X121547989Y-61493104D01*
X121617147Y-61483160D01*
X121674987Y-61507523D01*
X121697159Y-61524536D01*
X121843238Y-61585044D01*
X122000000Y-61605682D01*
X122156762Y-61585044D01*
X122302841Y-61524536D01*
X122428282Y-61428282D01*
X122524536Y-61302841D01*
X122585044Y-61156762D01*
X122605682Y-61000000D01*
X122585044Y-60843238D01*
X122524536Y-60697159D01*
X122524500Y-60697112D01*
X122428282Y-60571717D01*
X122302840Y-60475463D01*
X122156762Y-60414956D01*
X122000000Y-60394317D01*
X121843237Y-60414956D01*
X121697159Y-60475463D01*
X121674985Y-60492478D01*
X121609816Y-60517671D01*
X121541371Y-60503632D01*
X121491382Y-60454818D01*
X121475500Y-60394101D01*
X121475500Y-56124500D01*
X121495185Y-56057461D01*
X121547989Y-56011706D01*
X121599500Y-56000500D01*
X123250045Y-56000500D01*
X123317084Y-56020185D01*
G37*
%TD.AperFunction*%
%TD*%
%TA.AperFunction,Conductor*%
%TO.N,+6V*%
G36*
X121964898Y-79601060D02*
G01*
X122000000Y-79605682D01*
X122035101Y-79601060D01*
X122051285Y-79600000D01*
X122172351Y-79600000D01*
X122239390Y-79619685D01*
X122269615Y-79652480D01*
X122270716Y-79651527D01*
X122324364Y-79713441D01*
X122324385Y-79713464D01*
X122325620Y-79714889D01*
X122343211Y-79732843D01*
X122423028Y-79777490D01*
X122490067Y-79797175D01*
X122547965Y-79805500D01*
X131440444Y-79805500D01*
X131507483Y-79825185D01*
X131553238Y-79877989D01*
X131563383Y-79913314D01*
X131581328Y-80049619D01*
X131641835Y-80195697D01*
X131738089Y-80321139D01*
X131863531Y-80417392D01*
X131863531Y-80417393D01*
X132009610Y-80477901D01*
X132145732Y-80495821D01*
X132166371Y-80498539D01*
X132166371Y-80498538D01*
X132166372Y-80498539D01*
X132323134Y-80477901D01*
X132469213Y-80417393D01*
X132594654Y-80321139D01*
X132690908Y-80195698D01*
X132751416Y-80049619D01*
X132769360Y-79913314D01*
X132797628Y-79849418D01*
X132855952Y-79810947D01*
X132892300Y-79805500D01*
X133088085Y-79805500D01*
X133092419Y-79805500D01*
X133149141Y-79797517D01*
X133214934Y-79778623D01*
X133237499Y-79770695D01*
X133260889Y-79753978D01*
X133326875Y-79731013D01*
X133394803Y-79747368D01*
X133408472Y-79756484D01*
X133497159Y-79824536D01*
X133643238Y-79885044D01*
X133800000Y-79905682D01*
X133956762Y-79885044D01*
X134102841Y-79824536D01*
X134191504Y-79756502D01*
X134256672Y-79731308D01*
X134325117Y-79745346D01*
X134327507Y-79746648D01*
X134382644Y-79777490D01*
X134449683Y-79797175D01*
X134507581Y-79805500D01*
X134507585Y-79805500D01*
X135648063Y-79805500D01*
X135652035Y-79805500D01*
X135704041Y-79798810D01*
X135764759Y-79782927D01*
X135780510Y-79778018D01*
X135782930Y-79777264D01*
X135821356Y-79752475D01*
X135859783Y-79727688D01*
X135908597Y-79677698D01*
X135925026Y-79658672D01*
X135925026Y-79658670D01*
X135936678Y-79645178D01*
X135939959Y-79648011D01*
X135964311Y-79619806D01*
X136031315Y-79600000D01*
X136148715Y-79600000D01*
X136164898Y-79601060D01*
X136200000Y-79605682D01*
X136235101Y-79601060D01*
X136251285Y-79600000D01*
X136372351Y-79600000D01*
X136439390Y-79619685D01*
X136469615Y-79652480D01*
X136470716Y-79651527D01*
X136524364Y-79713441D01*
X136524385Y-79713464D01*
X136525620Y-79714889D01*
X136543211Y-79732843D01*
X136623028Y-79777490D01*
X136690067Y-79797175D01*
X136747965Y-79805500D01*
X143245500Y-79805500D01*
X143312539Y-79825185D01*
X143358294Y-79877989D01*
X143369500Y-79929500D01*
X143369500Y-86317496D01*
X143349815Y-86384535D01*
X143297011Y-86430290D01*
X143227853Y-86440234D01*
X143198048Y-86432057D01*
X143156762Y-86414956D01*
X143000000Y-86394317D01*
X142843237Y-86414956D01*
X142697159Y-86475463D01*
X142571717Y-86571717D01*
X142475463Y-86697159D01*
X142414956Y-86843237D01*
X142394317Y-87000000D01*
X142414956Y-87156762D01*
X142475463Y-87302840D01*
X142571717Y-87428282D01*
X142697158Y-87524536D01*
X142727529Y-87537116D01*
X142775000Y-87575370D01*
X142775000Y-87799997D01*
X142775000Y-90360366D01*
X142755315Y-90427405D01*
X142702511Y-90473160D01*
X142698458Y-90474925D01*
X142697160Y-90475462D01*
X142571717Y-90571717D01*
X142475463Y-90697159D01*
X142414956Y-90843237D01*
X142394317Y-91000000D01*
X142414956Y-91156762D01*
X142475463Y-91302840D01*
X142571717Y-91428282D01*
X142643237Y-91483160D01*
X142697159Y-91524536D01*
X142698450Y-91525070D01*
X142752853Y-91568908D01*
X142774921Y-91635201D01*
X142775000Y-91639632D01*
X142775000Y-105357281D01*
X142755315Y-105424320D01*
X142702511Y-105470075D01*
X142667186Y-105480220D01*
X142593237Y-105489956D01*
X142447159Y-105550463D01*
X142321717Y-105646717D01*
X142225463Y-105772159D01*
X142164956Y-105918237D01*
X142144317Y-106074999D01*
X142164956Y-106231762D01*
X142225463Y-106377840D01*
X142321717Y-106503282D01*
X142447158Y-106599536D01*
X142447159Y-106599536D01*
X142593238Y-106660044D01*
X142667185Y-106669779D01*
X142731082Y-106698045D01*
X142769553Y-106756370D01*
X142775000Y-106792718D01*
X142775000Y-115275698D01*
X142755315Y-115342737D01*
X142702511Y-115388492D01*
X142667186Y-115398637D01*
X142543237Y-115414956D01*
X142397159Y-115475463D01*
X142271719Y-115571716D01*
X142258376Y-115589106D01*
X142201948Y-115630308D01*
X142132202Y-115634463D01*
X142071281Y-115600251D01*
X142061624Y-115589106D01*
X142058507Y-115585044D01*
X142048282Y-115571718D01*
X142048280Y-115571717D01*
X142048280Y-115571716D01*
X141922840Y-115475463D01*
X141776762Y-115414956D01*
X141619999Y-115394317D01*
X141463237Y-115414956D01*
X141317159Y-115475463D01*
X141191717Y-115571717D01*
X141095463Y-115697159D01*
X141034956Y-115843237D01*
X141014317Y-115999999D01*
X141034956Y-116156762D01*
X141095463Y-116302840D01*
X141191717Y-116428282D01*
X141317158Y-116524536D01*
X141317159Y-116524536D01*
X141463238Y-116585044D01*
X141620000Y-116605682D01*
X141776762Y-116585044D01*
X141922841Y-116524536D01*
X142048282Y-116428282D01*
X142061624Y-116410894D01*
X142118050Y-116369691D01*
X142187796Y-116365536D01*
X142248717Y-116399747D01*
X142258372Y-116410890D01*
X142271718Y-116428282D01*
X142397159Y-116524536D01*
X142543238Y-116585044D01*
X142667187Y-116601362D01*
X142731081Y-116629627D01*
X142769553Y-116687951D01*
X142775000Y-116724300D01*
X142775000Y-120287789D01*
X142772617Y-120311982D01*
X142760781Y-120371482D01*
X142742266Y-120416179D01*
X142716450Y-120454818D01*
X142715481Y-120456268D01*
X142681269Y-120490479D01*
X142646975Y-120513394D01*
X142641179Y-120517267D01*
X142596482Y-120535781D01*
X142562857Y-120542469D01*
X142536978Y-120547617D01*
X142512789Y-120550000D01*
X140275000Y-120550000D01*
X140275000Y-120799996D01*
X140275000Y-120799997D01*
X140275000Y-125475500D01*
X140255315Y-125542539D01*
X140202511Y-125588294D01*
X140151000Y-125599500D01*
X139548349Y-125599500D01*
X139481310Y-125579815D01*
X139435555Y-125527011D01*
X139425611Y-125457853D01*
X139449973Y-125400014D01*
X139468862Y-125375395D01*
X139524536Y-125302841D01*
X139585044Y-125156762D01*
X139605682Y-125000000D01*
X139585044Y-124843238D01*
X139524536Y-124697159D01*
X139524535Y-124697159D01*
X139428282Y-124571717D01*
X139302840Y-124475463D01*
X139156762Y-124414956D01*
X139000000Y-124394317D01*
X138843237Y-124414956D01*
X138697159Y-124475463D01*
X138571717Y-124571717D01*
X138475463Y-124697159D01*
X138414956Y-124843237D01*
X138394317Y-125000000D01*
X138414956Y-125156762D01*
X138475463Y-125302840D01*
X138550027Y-125400014D01*
X138575221Y-125465183D01*
X138561183Y-125533628D01*
X138512369Y-125583617D01*
X138451651Y-125599500D01*
X136548349Y-125599500D01*
X136481310Y-125579815D01*
X136435555Y-125527011D01*
X136425611Y-125457853D01*
X136449973Y-125400014D01*
X136468862Y-125375395D01*
X136524536Y-125302841D01*
X136585044Y-125156762D01*
X136605682Y-125000000D01*
X136585044Y-124843238D01*
X136524536Y-124697159D01*
X136524535Y-124697159D01*
X136428282Y-124571717D01*
X136302840Y-124475463D01*
X136156762Y-124414956D01*
X136000000Y-124394317D01*
X135843237Y-124414956D01*
X135697159Y-124475463D01*
X135571717Y-124571717D01*
X135475463Y-124697159D01*
X135414956Y-124843237D01*
X135394317Y-125000000D01*
X135414956Y-125156762D01*
X135475463Y-125302840D01*
X135550027Y-125400014D01*
X135575221Y-125465183D01*
X135561183Y-125533628D01*
X135512369Y-125583617D01*
X135451651Y-125599500D01*
X133548349Y-125599500D01*
X133481310Y-125579815D01*
X133435555Y-125527011D01*
X133425611Y-125457853D01*
X133449973Y-125400014D01*
X133468862Y-125375395D01*
X133524536Y-125302841D01*
X133585044Y-125156762D01*
X133605682Y-125000000D01*
X133585044Y-124843238D01*
X133524536Y-124697159D01*
X133524535Y-124697159D01*
X133428282Y-124571717D01*
X133302840Y-124475463D01*
X133156762Y-124414956D01*
X133000000Y-124394317D01*
X132843237Y-124414956D01*
X132697159Y-124475463D01*
X132571717Y-124571717D01*
X132475463Y-124697159D01*
X132414956Y-124843237D01*
X132394317Y-125000000D01*
X132414956Y-125156762D01*
X132475463Y-125302840D01*
X132550027Y-125400014D01*
X132575221Y-125465183D01*
X132561183Y-125533628D01*
X132512369Y-125583617D01*
X132451651Y-125599500D01*
X130548349Y-125599500D01*
X130481310Y-125579815D01*
X130435555Y-125527011D01*
X130425611Y-125457853D01*
X130449973Y-125400014D01*
X130468862Y-125375395D01*
X130524536Y-125302841D01*
X130585044Y-125156762D01*
X130605682Y-125000000D01*
X130585044Y-124843238D01*
X130524536Y-124697159D01*
X130524535Y-124697159D01*
X130428282Y-124571717D01*
X130302840Y-124475463D01*
X130156762Y-124414956D01*
X130000000Y-124394317D01*
X129843237Y-124414956D01*
X129697159Y-124475463D01*
X129571717Y-124571717D01*
X129475463Y-124697159D01*
X129414956Y-124843237D01*
X129394317Y-125000000D01*
X129414956Y-125156762D01*
X129475463Y-125302840D01*
X129550027Y-125400014D01*
X129575221Y-125465183D01*
X129561183Y-125533628D01*
X129512369Y-125583617D01*
X129451651Y-125599500D01*
X127548349Y-125599500D01*
X127481310Y-125579815D01*
X127435555Y-125527011D01*
X127425611Y-125457853D01*
X127449973Y-125400014D01*
X127468862Y-125375395D01*
X127524536Y-125302841D01*
X127585044Y-125156762D01*
X127605682Y-125000000D01*
X127585044Y-124843238D01*
X127524536Y-124697159D01*
X127524535Y-124697159D01*
X127428282Y-124571717D01*
X127302840Y-124475463D01*
X127156762Y-124414956D01*
X127000000Y-124394317D01*
X126843237Y-124414956D01*
X126697159Y-124475463D01*
X126571717Y-124571717D01*
X126475463Y-124697159D01*
X126414956Y-124843237D01*
X126394317Y-125000000D01*
X126414956Y-125156762D01*
X126475463Y-125302840D01*
X126550027Y-125400014D01*
X126575221Y-125465183D01*
X126561183Y-125533628D01*
X126512369Y-125583617D01*
X126451651Y-125599500D01*
X124548349Y-125599500D01*
X124481310Y-125579815D01*
X124435555Y-125527011D01*
X124425611Y-125457853D01*
X124449973Y-125400014D01*
X124468862Y-125375395D01*
X124524536Y-125302841D01*
X124585044Y-125156762D01*
X124605682Y-125000000D01*
X124585044Y-124843238D01*
X124524536Y-124697159D01*
X124524535Y-124697159D01*
X124428282Y-124571717D01*
X124302840Y-124475463D01*
X124156762Y-124414956D01*
X124000000Y-124394317D01*
X123843237Y-124414956D01*
X123697159Y-124475463D01*
X123571717Y-124571717D01*
X123475463Y-124697159D01*
X123414956Y-124843237D01*
X123394317Y-125000000D01*
X123414956Y-125156762D01*
X123475463Y-125302840D01*
X123550027Y-125400014D01*
X123575221Y-125465183D01*
X123561183Y-125533628D01*
X123512369Y-125583617D01*
X123451651Y-125599500D01*
X121599500Y-125599500D01*
X121532461Y-125579815D01*
X121486706Y-125527011D01*
X121475500Y-125475500D01*
X121475500Y-125156762D01*
X121475500Y-124605894D01*
X121495183Y-124538859D01*
X121547987Y-124493104D01*
X121617146Y-124483160D01*
X121674985Y-124507522D01*
X121697158Y-124524536D01*
X121697159Y-124524536D01*
X121843238Y-124585044D01*
X122000000Y-124605682D01*
X122156762Y-124585044D01*
X122302841Y-124524536D01*
X122428282Y-124428282D01*
X122524536Y-124302841D01*
X122585044Y-124156762D01*
X122605682Y-124000000D01*
X122585044Y-123843238D01*
X122524536Y-123697159D01*
X122462763Y-123616654D01*
X122428282Y-123571717D01*
X122302840Y-123475463D01*
X122156762Y-123414956D01*
X122000000Y-123394317D01*
X121843237Y-123414956D01*
X121697159Y-123475463D01*
X121674985Y-123492478D01*
X121609816Y-123517671D01*
X121541371Y-123503632D01*
X121491382Y-123454818D01*
X121475500Y-123394101D01*
X121475500Y-121605898D01*
X121495185Y-121538859D01*
X121547989Y-121493104D01*
X121617147Y-121483160D01*
X121674987Y-121507523D01*
X121697159Y-121524536D01*
X121843238Y-121585044D01*
X122000000Y-121605682D01*
X122156762Y-121585044D01*
X122302841Y-121524536D01*
X122428282Y-121428282D01*
X122524536Y-121302841D01*
X122585044Y-121156762D01*
X122605682Y-121000000D01*
X122585044Y-120843238D01*
X122567134Y-120800000D01*
X122869506Y-120800000D01*
X122869688Y-120803356D01*
X122889286Y-121164835D01*
X122889287Y-121164846D01*
X122889469Y-121168199D01*
X122890013Y-121171520D01*
X122890014Y-121171525D01*
X122945098Y-121507523D01*
X122949125Y-121532081D01*
X123047773Y-121887379D01*
X123049015Y-121890496D01*
X123049018Y-121890505D01*
X123051226Y-121896046D01*
X123184257Y-122229930D01*
X123185827Y-122232892D01*
X123185832Y-122232902D01*
X123309048Y-122465310D01*
X123356978Y-122555716D01*
X123563910Y-122860917D01*
X123802627Y-123141956D01*
X123805058Y-123144259D01*
X123805064Y-123144265D01*
X124010503Y-123338867D01*
X124070330Y-123395538D01*
X124073006Y-123397572D01*
X124361202Y-123616654D01*
X124361208Y-123616658D01*
X124363881Y-123618690D01*
X124679838Y-123808795D01*
X125014497Y-123963625D01*
X125363934Y-124081364D01*
X125724052Y-124160632D01*
X126090630Y-124200500D01*
X126093988Y-124200500D01*
X126456012Y-124200500D01*
X126459370Y-124200500D01*
X126825948Y-124160632D01*
X127186066Y-124081364D01*
X127535503Y-123963625D01*
X127870162Y-123808795D01*
X128186119Y-123618690D01*
X128479670Y-123395538D01*
X128718033Y-123169748D01*
X135224500Y-123169748D01*
X135236132Y-123228230D01*
X135280447Y-123294552D01*
X135346769Y-123338867D01*
X135405251Y-123350500D01*
X135405252Y-123350500D01*
X137144749Y-123350500D01*
X137173989Y-123344683D01*
X137203231Y-123338867D01*
X137269552Y-123294552D01*
X137313867Y-123228231D01*
X137325500Y-123169748D01*
X137325500Y-121430252D01*
X137313867Y-121371769D01*
X137313867Y-121371768D01*
X137269552Y-121305447D01*
X137203230Y-121261132D01*
X137144749Y-121249500D01*
X137144748Y-121249500D01*
X135405252Y-121249500D01*
X135405251Y-121249500D01*
X135346769Y-121261132D01*
X135280447Y-121305447D01*
X135236132Y-121371769D01*
X135224500Y-121430251D01*
X135224500Y-123169748D01*
X128718033Y-123169748D01*
X128747373Y-123141956D01*
X128986090Y-122860917D01*
X129193022Y-122555716D01*
X129365743Y-122229930D01*
X129502227Y-121887379D01*
X129600875Y-121532081D01*
X129660531Y-121168199D01*
X129680494Y-120800000D01*
X129660531Y-120431801D01*
X129600875Y-120067919D01*
X129502227Y-119712621D01*
X129365743Y-119370070D01*
X129193022Y-119044284D01*
X128986090Y-118739083D01*
X128747373Y-118458044D01*
X128744940Y-118455739D01*
X128744935Y-118455734D01*
X128482110Y-118206773D01*
X128482107Y-118206770D01*
X128479670Y-118204462D01*
X128416922Y-118156762D01*
X128188797Y-117983345D01*
X128188787Y-117983338D01*
X128186119Y-117981310D01*
X127884778Y-117799999D01*
X133169317Y-117799999D01*
X133189956Y-117956762D01*
X133250463Y-118102840D01*
X133346717Y-118228282D01*
X133443884Y-118302840D01*
X133472159Y-118324536D01*
X133618238Y-118385044D01*
X133754360Y-118402964D01*
X133774999Y-118405682D01*
X133774999Y-118405681D01*
X133775000Y-118405682D01*
X133931762Y-118385044D01*
X134077841Y-118324536D01*
X134203282Y-118228282D01*
X134299536Y-118102841D01*
X134360044Y-117956762D01*
X134380682Y-117800000D01*
X134360044Y-117643238D01*
X134299536Y-117497159D01*
X134267047Y-117454818D01*
X134203282Y-117371717D01*
X134077840Y-117275463D01*
X133931762Y-117214956D01*
X133774999Y-117194317D01*
X133618237Y-117214956D01*
X133472159Y-117275463D01*
X133346717Y-117371717D01*
X133250463Y-117497159D01*
X133189956Y-117643237D01*
X133169317Y-117799999D01*
X127884778Y-117799999D01*
X127870162Y-117791205D01*
X127535503Y-117636375D01*
X127343605Y-117571717D01*
X127189249Y-117519708D01*
X127189240Y-117519705D01*
X127186066Y-117518636D01*
X127182798Y-117517916D01*
X127182785Y-117517913D01*
X126829235Y-117440091D01*
X126829225Y-117440089D01*
X126825948Y-117439368D01*
X126459370Y-117399500D01*
X126090630Y-117399500D01*
X126087293Y-117399862D01*
X126087291Y-117399863D01*
X125727398Y-117439004D01*
X125727396Y-117439004D01*
X125724052Y-117439368D01*
X125720777Y-117440088D01*
X125720764Y-117440091D01*
X125367214Y-117517913D01*
X125367196Y-117517917D01*
X125363934Y-117518636D01*
X125360763Y-117519704D01*
X125360750Y-117519708D01*
X125017684Y-117635301D01*
X125017681Y-117635302D01*
X125014497Y-117636375D01*
X125011448Y-117637785D01*
X125011442Y-117637788D01*
X124682893Y-117789791D01*
X124682884Y-117789795D01*
X124679838Y-117791205D01*
X124676963Y-117792934D01*
X124676955Y-117792939D01*
X124366762Y-117979576D01*
X124366754Y-117979580D01*
X124363881Y-117981310D01*
X124361220Y-117983332D01*
X124361202Y-117983345D01*
X124073006Y-118202427D01*
X124072997Y-118202434D01*
X124070330Y-118204462D01*
X124067901Y-118206762D01*
X124067889Y-118206773D01*
X123805064Y-118455734D01*
X123805049Y-118455749D01*
X123802627Y-118458044D01*
X123800464Y-118460589D01*
X123800453Y-118460602D01*
X123566083Y-118736524D01*
X123566077Y-118736531D01*
X123563910Y-118739083D01*
X123562029Y-118741855D01*
X123562023Y-118741865D01*
X123358868Y-119041496D01*
X123356978Y-119044284D01*
X123355403Y-119047254D01*
X123355401Y-119047258D01*
X123185832Y-119367097D01*
X123185823Y-119367114D01*
X123184257Y-119370070D01*
X123183016Y-119373182D01*
X123183012Y-119373193D01*
X123049018Y-119709494D01*
X123049013Y-119709508D01*
X123047773Y-119712621D01*
X122949125Y-120067919D01*
X122948581Y-120071236D01*
X122948579Y-120071246D01*
X122892030Y-120416179D01*
X122889469Y-120431801D01*
X122889287Y-120435151D01*
X122889286Y-120435164D01*
X122883060Y-120550000D01*
X122869506Y-120800000D01*
X122567134Y-120800000D01*
X122524536Y-120697159D01*
X122524500Y-120697112D01*
X122428282Y-120571717D01*
X122302840Y-120475463D01*
X122156762Y-120414956D01*
X122000000Y-120394317D01*
X121843237Y-120414956D01*
X121697159Y-120475463D01*
X121674985Y-120492478D01*
X121609816Y-120517671D01*
X121541371Y-120503632D01*
X121491382Y-120454818D01*
X121475500Y-120394101D01*
X121475500Y-118605898D01*
X121495185Y-118538859D01*
X121547989Y-118493104D01*
X121617147Y-118483160D01*
X121674987Y-118507523D01*
X121697159Y-118524536D01*
X121843238Y-118585044D01*
X122000000Y-118605682D01*
X122156762Y-118585044D01*
X122302841Y-118524536D01*
X122428282Y-118428282D01*
X122524536Y-118302841D01*
X122585044Y-118156762D01*
X122605682Y-118000000D01*
X122585044Y-117843238D01*
X122524536Y-117697159D01*
X122483161Y-117643238D01*
X122428282Y-117571717D01*
X122302840Y-117475463D01*
X122156762Y-117414956D01*
X122000000Y-117394317D01*
X121843237Y-117414956D01*
X121697159Y-117475463D01*
X121674985Y-117492478D01*
X121609816Y-117517671D01*
X121541371Y-117503632D01*
X121491382Y-117454818D01*
X121475500Y-117394101D01*
X121475500Y-115605898D01*
X121495185Y-115538859D01*
X121547989Y-115493104D01*
X121617147Y-115483160D01*
X121674987Y-115507523D01*
X121697159Y-115524536D01*
X121843238Y-115585044D01*
X122000000Y-115605682D01*
X122156762Y-115585044D01*
X122302841Y-115524536D01*
X122428282Y-115428282D01*
X122524536Y-115302841D01*
X122585044Y-115156762D01*
X122592517Y-115100000D01*
X123544317Y-115100000D01*
X123564956Y-115256762D01*
X123625463Y-115402840D01*
X123721717Y-115528282D01*
X123815510Y-115600251D01*
X123847159Y-115624536D01*
X123993238Y-115685044D01*
X124150000Y-115705682D01*
X124306762Y-115685044D01*
X124452841Y-115624536D01*
X124578282Y-115528282D01*
X124599984Y-115499999D01*
X134994317Y-115499999D01*
X135014956Y-115656762D01*
X135075463Y-115802840D01*
X135171717Y-115928282D01*
X135265183Y-116000000D01*
X135297159Y-116024536D01*
X135443238Y-116085044D01*
X135600000Y-116105682D01*
X135756762Y-116085044D01*
X135902841Y-116024536D01*
X136028282Y-115928282D01*
X136028281Y-115928282D01*
X136041234Y-115918344D01*
X136041937Y-115919261D01*
X136083051Y-115889240D01*
X136152796Y-115885085D01*
X136213717Y-115919296D01*
X136221079Y-115927792D01*
X136221718Y-115928282D01*
X136347159Y-116024536D01*
X136493238Y-116085044D01*
X136629361Y-116102964D01*
X136649999Y-116105682D01*
X136649999Y-116105681D01*
X136650000Y-116105682D01*
X136806762Y-116085044D01*
X136952841Y-116024536D01*
X137078282Y-115928282D01*
X137174536Y-115802841D01*
X137235044Y-115656762D01*
X137255682Y-115500000D01*
X137235044Y-115343238D01*
X137174536Y-115197159D01*
X137078282Y-115071717D01*
X136952842Y-114975464D01*
X136926517Y-114964560D01*
X136872114Y-114920718D01*
X136850050Y-114854424D01*
X136867330Y-114786724D01*
X136918468Y-114739115D01*
X136926481Y-114735454D01*
X136952841Y-114724536D01*
X137078282Y-114628282D01*
X137174536Y-114502841D01*
X137235044Y-114356762D01*
X137255682Y-114200000D01*
X137235044Y-114043238D01*
X137174536Y-113897159D01*
X137085908Y-113781656D01*
X137078282Y-113771717D01*
X136982701Y-113698376D01*
X136941498Y-113641948D01*
X136937343Y-113572202D01*
X136971555Y-113511282D01*
X136982701Y-113501624D01*
X137078282Y-113428282D01*
X137111428Y-113385085D01*
X137174536Y-113302841D01*
X137235044Y-113156762D01*
X137255682Y-113000000D01*
X137235044Y-112843238D01*
X137174536Y-112697159D01*
X137108241Y-112610761D01*
X137078282Y-112571717D01*
X136952840Y-112475463D01*
X136806762Y-112414956D01*
X136650000Y-112394317D01*
X136493237Y-112414956D01*
X136347159Y-112475463D01*
X136208766Y-112581656D01*
X136208062Y-112580738D01*
X136166944Y-112610761D01*
X136097198Y-112614913D01*
X136036279Y-112580699D01*
X136028922Y-112572208D01*
X135902840Y-112475463D01*
X135756762Y-112414956D01*
X135600000Y-112394317D01*
X135443237Y-112414956D01*
X135297159Y-112475463D01*
X135171717Y-112571717D01*
X135075463Y-112697159D01*
X135014956Y-112843237D01*
X134994317Y-113000000D01*
X135014956Y-113156762D01*
X135075463Y-113302840D01*
X135164822Y-113419296D01*
X135171718Y-113428282D01*
X135218680Y-113464317D01*
X135267299Y-113501624D01*
X135308501Y-113558052D01*
X135312656Y-113627798D01*
X135278443Y-113688719D01*
X135267299Y-113698376D01*
X135171716Y-113771719D01*
X135075463Y-113897159D01*
X135014956Y-114043237D01*
X134994317Y-114200000D01*
X135014956Y-114356762D01*
X135075463Y-114502840D01*
X135171717Y-114628282D01*
X135297157Y-114724535D01*
X135297158Y-114724535D01*
X135297159Y-114724536D01*
X135323479Y-114735438D01*
X135377883Y-114779277D01*
X135399949Y-114845570D01*
X135382671Y-114913270D01*
X135331535Y-114960882D01*
X135323483Y-114964559D01*
X135297159Y-114975462D01*
X135171717Y-115071717D01*
X135075463Y-115197159D01*
X135014956Y-115343237D01*
X134994317Y-115499999D01*
X124599984Y-115499999D01*
X124674536Y-115402841D01*
X124735044Y-115256762D01*
X124755682Y-115100000D01*
X124735044Y-114943238D01*
X124674536Y-114797159D01*
X124629999Y-114739117D01*
X124578282Y-114671717D01*
X124452840Y-114575463D01*
X124306762Y-114514956D01*
X124150000Y-114494317D01*
X123993237Y-114514956D01*
X123847159Y-114575463D01*
X123721717Y-114671717D01*
X123625463Y-114797159D01*
X123564956Y-114943237D01*
X123544317Y-115100000D01*
X122592517Y-115100000D01*
X122605682Y-115000000D01*
X122585044Y-114843238D01*
X122524536Y-114697159D01*
X122508056Y-114675682D01*
X122428282Y-114571717D01*
X122302840Y-114475463D01*
X122156762Y-114414956D01*
X122000000Y-114394317D01*
X121843237Y-114414956D01*
X121697159Y-114475463D01*
X121674985Y-114492478D01*
X121609816Y-114517671D01*
X121541371Y-114503632D01*
X121491382Y-114454818D01*
X121475500Y-114394101D01*
X121475500Y-114070000D01*
X130104317Y-114070000D01*
X130124956Y-114226762D01*
X130185463Y-114372840D01*
X130281717Y-114498282D01*
X130382304Y-114575464D01*
X130407159Y-114594536D01*
X130553238Y-114655044D01*
X130710000Y-114675682D01*
X130866762Y-114655044D01*
X131012841Y-114594536D01*
X131138282Y-114498282D01*
X131234536Y-114372841D01*
X131295044Y-114226762D01*
X131315682Y-114070000D01*
X131295044Y-113913238D01*
X131234536Y-113767159D01*
X131234536Y-113767158D01*
X131138282Y-113641717D01*
X131012840Y-113545463D01*
X130866762Y-113484956D01*
X130710000Y-113464317D01*
X130553237Y-113484956D01*
X130407159Y-113545463D01*
X130281717Y-113641717D01*
X130185463Y-113767159D01*
X130124956Y-113913237D01*
X130104317Y-114070000D01*
X121475500Y-114070000D01*
X121475500Y-112605898D01*
X121495185Y-112538859D01*
X121547989Y-112493104D01*
X121617147Y-112483160D01*
X121674987Y-112507523D01*
X121697159Y-112524536D01*
X121843238Y-112585044D01*
X122000000Y-112605682D01*
X122156762Y-112585044D01*
X122302841Y-112524536D01*
X122428282Y-112428282D01*
X122524536Y-112302841D01*
X122585044Y-112156762D01*
X122605682Y-112000000D01*
X122585044Y-111843238D01*
X122524536Y-111697159D01*
X122473527Y-111630682D01*
X122428282Y-111571717D01*
X122302840Y-111475463D01*
X122156762Y-111414956D01*
X122000000Y-111394317D01*
X121843237Y-111414956D01*
X121697159Y-111475463D01*
X121674985Y-111492478D01*
X121609816Y-111517671D01*
X121541371Y-111503632D01*
X121491382Y-111454818D01*
X121475500Y-111394101D01*
X121475500Y-111025000D01*
X134994317Y-111025000D01*
X135014956Y-111181762D01*
X135075463Y-111327840D01*
X135171717Y-111453282D01*
X135297158Y-111549536D01*
X135297159Y-111549536D01*
X135443238Y-111610044D01*
X135600000Y-111630682D01*
X135756762Y-111610044D01*
X135902841Y-111549536D01*
X136000583Y-111474536D01*
X136041234Y-111443344D01*
X136041937Y-111444261D01*
X136083051Y-111414240D01*
X136152796Y-111410085D01*
X136213717Y-111444296D01*
X136221079Y-111452792D01*
X136328271Y-111535043D01*
X136347159Y-111549536D01*
X136493238Y-111610044D01*
X136629361Y-111627964D01*
X136649999Y-111630682D01*
X136649999Y-111630681D01*
X136650000Y-111630682D01*
X136806762Y-111610044D01*
X136952841Y-111549536D01*
X137078282Y-111453282D01*
X137174536Y-111327841D01*
X137235044Y-111181762D01*
X137255682Y-111025000D01*
X137235044Y-110868238D01*
X137174536Y-110722159D01*
X137085908Y-110606656D01*
X137078282Y-110596717D01*
X136952843Y-110500465D01*
X136952841Y-110500464D01*
X136926516Y-110489560D01*
X136872116Y-110445721D01*
X136850050Y-110379427D01*
X136867329Y-110311728D01*
X136918465Y-110264117D01*
X136926496Y-110260448D01*
X136952841Y-110249536D01*
X137078282Y-110153282D01*
X137174536Y-110027841D01*
X137235044Y-109881762D01*
X137249099Y-109775000D01*
X139103817Y-109775000D01*
X139124456Y-109931762D01*
X139184963Y-110077840D01*
X139281217Y-110203282D01*
X139360500Y-110264117D01*
X139406659Y-110299536D01*
X139552738Y-110360044D01*
X139709500Y-110380682D01*
X139866262Y-110360044D01*
X140012341Y-110299536D01*
X140137782Y-110203282D01*
X140234036Y-110077841D01*
X140294544Y-109931762D01*
X140298726Y-109899999D01*
X140994317Y-109899999D01*
X141014956Y-110056762D01*
X141075463Y-110202840D01*
X141171717Y-110328282D01*
X141292646Y-110421073D01*
X141333849Y-110477501D01*
X141338004Y-110547247D01*
X141315536Y-110594935D01*
X141275463Y-110647159D01*
X141214956Y-110793237D01*
X141194317Y-110950000D01*
X141214956Y-111106762D01*
X141275463Y-111252840D01*
X141371717Y-111378282D01*
X141469460Y-111453282D01*
X141497159Y-111474536D01*
X141643238Y-111535044D01*
X141800000Y-111555682D01*
X141956762Y-111535044D01*
X142102841Y-111474536D01*
X142228282Y-111378282D01*
X142324536Y-111252841D01*
X142385044Y-111106762D01*
X142405682Y-110950000D01*
X142385044Y-110793238D01*
X142324536Y-110647159D01*
X142292723Y-110605699D01*
X142228282Y-110521717D01*
X142107353Y-110428926D01*
X142066150Y-110372498D01*
X142061995Y-110302752D01*
X142084461Y-110255067D01*
X142124536Y-110202841D01*
X142185044Y-110056762D01*
X142205682Y-109900000D01*
X142185044Y-109743238D01*
X142124536Y-109597159D01*
X142102344Y-109568238D01*
X142028282Y-109471717D01*
X141902840Y-109375463D01*
X141756762Y-109314956D01*
X141600000Y-109294317D01*
X141443237Y-109314956D01*
X141297159Y-109375463D01*
X141171717Y-109471717D01*
X141075463Y-109597159D01*
X141014956Y-109743237D01*
X140994317Y-109899999D01*
X140298726Y-109899999D01*
X140315182Y-109775000D01*
X140294544Y-109618238D01*
X140234036Y-109472159D01*
X140159839Y-109375463D01*
X140137782Y-109346717D01*
X140012340Y-109250463D01*
X139866262Y-109189956D01*
X139709500Y-109169317D01*
X139552737Y-109189956D01*
X139406659Y-109250463D01*
X139281217Y-109346717D01*
X139184963Y-109472159D01*
X139124456Y-109618237D01*
X139103817Y-109775000D01*
X137249099Y-109775000D01*
X137255682Y-109725000D01*
X137235044Y-109568238D01*
X137174536Y-109422159D01*
X137138705Y-109375463D01*
X137078282Y-109296717D01*
X136982701Y-109223376D01*
X136941498Y-109166948D01*
X136937343Y-109097202D01*
X136971555Y-109036282D01*
X136982701Y-109026624D01*
X137078282Y-108953282D01*
X137162722Y-108843237D01*
X137174536Y-108827841D01*
X137235044Y-108681762D01*
X137255682Y-108525000D01*
X137235044Y-108368238D01*
X137174536Y-108222159D01*
X137174536Y-108222158D01*
X137078282Y-108096717D01*
X136952840Y-108000463D01*
X136806762Y-107939956D01*
X136650000Y-107919317D01*
X136493237Y-107939956D01*
X136347159Y-108000463D01*
X136208766Y-108106656D01*
X136208062Y-108105738D01*
X136166944Y-108135761D01*
X136097198Y-108139913D01*
X136036279Y-108105699D01*
X136028922Y-108097208D01*
X135902840Y-108000463D01*
X135756762Y-107939956D01*
X135600000Y-107919317D01*
X135443237Y-107939956D01*
X135297159Y-108000463D01*
X135171717Y-108096717D01*
X135075463Y-108222159D01*
X135014956Y-108368237D01*
X134994317Y-108524999D01*
X135014956Y-108681762D01*
X135075463Y-108827840D01*
X135164822Y-108944296D01*
X135171718Y-108953282D01*
X135228291Y-108996692D01*
X135267299Y-109026624D01*
X135308501Y-109083052D01*
X135312656Y-109152798D01*
X135278443Y-109213719D01*
X135267299Y-109223376D01*
X135171716Y-109296719D01*
X135075463Y-109422159D01*
X135014956Y-109568237D01*
X134994317Y-109724999D01*
X135014956Y-109881762D01*
X135075463Y-110027840D01*
X135171717Y-110153282D01*
X135236879Y-110203282D01*
X135297159Y-110249536D01*
X135321292Y-110259532D01*
X135323481Y-110260439D01*
X135377884Y-110304280D01*
X135399949Y-110370574D01*
X135382670Y-110438273D01*
X135331533Y-110485884D01*
X135323481Y-110489561D01*
X135297158Y-110500464D01*
X135171717Y-110596717D01*
X135075463Y-110722159D01*
X135014956Y-110868237D01*
X134994317Y-111025000D01*
X121475500Y-111025000D01*
X121475500Y-109605898D01*
X121495185Y-109538859D01*
X121547989Y-109493104D01*
X121617147Y-109483160D01*
X121674987Y-109507523D01*
X121697159Y-109524536D01*
X121843238Y-109585044D01*
X122000000Y-109605682D01*
X122156762Y-109585044D01*
X122302841Y-109524536D01*
X122428282Y-109428282D01*
X122524536Y-109302841D01*
X122585044Y-109156762D01*
X122605682Y-109000000D01*
X122585044Y-108843238D01*
X122524536Y-108697159D01*
X122524500Y-108697112D01*
X122428282Y-108571717D01*
X122302840Y-108475463D01*
X122156762Y-108414956D01*
X122000000Y-108394317D01*
X121843237Y-108414956D01*
X121697159Y-108475463D01*
X121674985Y-108492478D01*
X121609816Y-108517671D01*
X121541371Y-108503632D01*
X121491382Y-108454818D01*
X121475500Y-108394101D01*
X121475500Y-106605898D01*
X121495185Y-106538859D01*
X121547989Y-106493104D01*
X121617147Y-106483160D01*
X121674987Y-106507523D01*
X121697159Y-106524536D01*
X121843238Y-106585044D01*
X122000000Y-106605682D01*
X122156762Y-106585044D01*
X122302841Y-106524536D01*
X122428282Y-106428282D01*
X122524536Y-106302841D01*
X122585044Y-106156762D01*
X122605682Y-106000000D01*
X122585044Y-105843238D01*
X122524536Y-105697159D01*
X122524500Y-105697112D01*
X122428282Y-105571717D01*
X122302840Y-105475463D01*
X122156762Y-105414956D01*
X122000000Y-105394317D01*
X121843237Y-105414956D01*
X121697159Y-105475463D01*
X121674985Y-105492478D01*
X121609816Y-105517671D01*
X121541371Y-105503632D01*
X121491382Y-105454818D01*
X121475500Y-105394101D01*
X121475500Y-103899999D01*
X128994317Y-103899999D01*
X129014956Y-104056762D01*
X129075463Y-104202840D01*
X129171717Y-104328282D01*
X129297158Y-104424536D01*
X129297159Y-104424536D01*
X129443238Y-104485044D01*
X129600000Y-104505682D01*
X129756762Y-104485044D01*
X129902841Y-104424536D01*
X130028282Y-104328282D01*
X130047873Y-104302749D01*
X130104299Y-104261546D01*
X130174045Y-104257389D01*
X130234967Y-104291600D01*
X130244626Y-104302748D01*
X130291717Y-104364119D01*
X130370455Y-104424536D01*
X130417159Y-104460373D01*
X130563238Y-104520881D01*
X130720000Y-104541519D01*
X130876762Y-104520881D01*
X131022841Y-104460373D01*
X131148282Y-104364119D01*
X131157675Y-104351878D01*
X140165154Y-104351878D01*
X140185793Y-104508640D01*
X140246300Y-104654718D01*
X140342554Y-104780160D01*
X140467995Y-104876414D01*
X140467996Y-104876414D01*
X140614075Y-104936922D01*
X140770837Y-104957560D01*
X140927599Y-104936922D01*
X141073678Y-104876414D01*
X141199119Y-104780160D01*
X141295373Y-104654719D01*
X141355881Y-104508640D01*
X141376519Y-104351878D01*
X141355881Y-104195116D01*
X141295373Y-104049037D01*
X141295373Y-104049036D01*
X141199119Y-103923595D01*
X141073677Y-103827341D01*
X140927599Y-103766834D01*
X140770837Y-103746195D01*
X140614074Y-103766834D01*
X140467996Y-103827341D01*
X140342554Y-103923595D01*
X140246300Y-104049037D01*
X140185793Y-104195115D01*
X140165154Y-104351878D01*
X131157675Y-104351878D01*
X131244536Y-104238678D01*
X131305044Y-104092599D01*
X131325682Y-103935837D01*
X131305044Y-103779075D01*
X131244536Y-103632996D01*
X131223577Y-103605682D01*
X131148282Y-103507554D01*
X131022840Y-103411300D01*
X130876762Y-103350793D01*
X130720000Y-103330154D01*
X130563237Y-103350793D01*
X130417159Y-103411300D01*
X130291716Y-103507555D01*
X130272124Y-103533089D01*
X130215696Y-103574291D01*
X130145950Y-103578446D01*
X130085030Y-103544233D01*
X130075373Y-103533088D01*
X130028282Y-103471717D01*
X129902840Y-103375463D01*
X129756762Y-103314956D01*
X129600000Y-103294317D01*
X129443237Y-103314956D01*
X129297159Y-103375463D01*
X129171717Y-103471717D01*
X129075463Y-103597159D01*
X129014956Y-103743237D01*
X128994317Y-103899999D01*
X121475500Y-103899999D01*
X121475500Y-103605898D01*
X121495185Y-103538859D01*
X121547989Y-103493104D01*
X121617147Y-103483160D01*
X121674987Y-103507523D01*
X121675029Y-103507555D01*
X121697159Y-103524536D01*
X121843238Y-103585044D01*
X122000000Y-103605682D01*
X122156762Y-103585044D01*
X122302841Y-103524536D01*
X122428282Y-103428282D01*
X122524536Y-103302841D01*
X122585044Y-103156762D01*
X122605682Y-103000000D01*
X122585044Y-102843238D01*
X122567134Y-102799999D01*
X125169317Y-102799999D01*
X125189956Y-102956762D01*
X125250463Y-103102840D01*
X125346717Y-103228282D01*
X125432778Y-103294318D01*
X125472159Y-103324536D01*
X125618238Y-103385044D01*
X125754361Y-103402964D01*
X125774999Y-103405682D01*
X125774999Y-103405681D01*
X125775000Y-103405682D01*
X125931762Y-103385044D01*
X126077841Y-103324536D01*
X126203282Y-103228282D01*
X126239123Y-103181572D01*
X126295552Y-103140369D01*
X126365298Y-103136214D01*
X126426218Y-103170426D01*
X126435876Y-103181572D01*
X126471717Y-103228282D01*
X126557778Y-103294318D01*
X126597159Y-103324536D01*
X126743238Y-103385044D01*
X126900000Y-103405682D01*
X127056762Y-103385044D01*
X127202841Y-103324536D01*
X127328282Y-103228282D01*
X127424536Y-103102841D01*
X127485044Y-102956762D01*
X127505682Y-102800000D01*
X127485044Y-102643238D01*
X127424536Y-102497159D01*
X127407888Y-102475463D01*
X127328282Y-102371717D01*
X127202840Y-102275463D01*
X127056762Y-102214956D01*
X126900000Y-102194317D01*
X126743237Y-102214956D01*
X126597159Y-102275463D01*
X126471716Y-102371718D01*
X126435875Y-102418428D01*
X126379447Y-102459630D01*
X126309701Y-102463785D01*
X126248781Y-102429572D01*
X126239125Y-102418428D01*
X126203283Y-102371718D01*
X126077840Y-102275463D01*
X125931762Y-102214956D01*
X125774999Y-102194317D01*
X125618237Y-102214956D01*
X125472159Y-102275463D01*
X125346717Y-102371717D01*
X125250463Y-102497159D01*
X125189956Y-102643237D01*
X125169317Y-102799999D01*
X122567134Y-102799999D01*
X122524536Y-102697159D01*
X122483161Y-102643238D01*
X122428282Y-102571717D01*
X122302840Y-102475463D01*
X122156762Y-102414956D01*
X122000000Y-102394317D01*
X121843237Y-102414956D01*
X121697159Y-102475463D01*
X121674985Y-102492478D01*
X121609816Y-102517671D01*
X121541371Y-102503632D01*
X121491382Y-102454818D01*
X121475500Y-102394101D01*
X121475500Y-100799999D01*
X128569317Y-100799999D01*
X128589956Y-100956762D01*
X128650463Y-101102840D01*
X128746717Y-101228282D01*
X128872158Y-101324536D01*
X128872159Y-101324536D01*
X129018238Y-101385044D01*
X129154360Y-101402964D01*
X129174999Y-101405682D01*
X129174999Y-101405681D01*
X129175000Y-101405682D01*
X129331762Y-101385044D01*
X129477841Y-101324536D01*
X129603282Y-101228282D01*
X129699536Y-101102841D01*
X129760044Y-100956762D01*
X129780682Y-100800000D01*
X129760044Y-100643238D01*
X129700712Y-100499999D01*
X140269317Y-100499999D01*
X140289956Y-100656762D01*
X140350463Y-100802840D01*
X140446717Y-100928282D01*
X140572158Y-101024536D01*
X140572159Y-101024536D01*
X140718238Y-101085044D01*
X140853413Y-101102840D01*
X140874999Y-101105682D01*
X140874999Y-101105681D01*
X140875000Y-101105682D01*
X141031762Y-101085044D01*
X141177841Y-101024536D01*
X141303282Y-100928282D01*
X141399536Y-100802841D01*
X141460044Y-100656762D01*
X141480682Y-100500000D01*
X141460044Y-100343238D01*
X141399536Y-100197159D01*
X141371056Y-100160043D01*
X141303282Y-100071717D01*
X141177840Y-99975463D01*
X141031762Y-99914956D01*
X140874999Y-99894317D01*
X140718237Y-99914956D01*
X140572159Y-99975463D01*
X140446717Y-100071717D01*
X140350463Y-100197159D01*
X140289956Y-100343237D01*
X140269317Y-100499999D01*
X129700712Y-100499999D01*
X129699536Y-100497159D01*
X129699535Y-100497159D01*
X129603282Y-100371717D01*
X129477840Y-100275463D01*
X129331762Y-100214956D01*
X129174999Y-100194317D01*
X129018237Y-100214956D01*
X128872159Y-100275463D01*
X128746717Y-100371717D01*
X128650463Y-100497159D01*
X128589956Y-100643237D01*
X128569317Y-100799999D01*
X121475500Y-100799999D01*
X121475500Y-100605898D01*
X121495185Y-100538859D01*
X121547989Y-100493104D01*
X121617147Y-100483160D01*
X121674987Y-100507523D01*
X121697159Y-100524536D01*
X121843238Y-100585044D01*
X122000000Y-100605682D01*
X122156762Y-100585044D01*
X122302841Y-100524536D01*
X122428282Y-100428282D01*
X122524536Y-100302841D01*
X122585044Y-100156762D01*
X122605682Y-100000000D01*
X122585044Y-99843238D01*
X122524536Y-99697159D01*
X122483161Y-99643238D01*
X122428282Y-99571717D01*
X122302840Y-99475463D01*
X122156762Y-99414956D01*
X122000000Y-99394317D01*
X121843237Y-99414956D01*
X121697159Y-99475463D01*
X121674985Y-99492478D01*
X121609816Y-99517671D01*
X121541371Y-99503632D01*
X121491382Y-99454818D01*
X121475500Y-99394101D01*
X121475500Y-99050000D01*
X123169317Y-99050000D01*
X123189956Y-99206762D01*
X123250463Y-99352840D01*
X123346717Y-99478282D01*
X123472158Y-99574536D01*
X123472159Y-99574536D01*
X123618238Y-99635044D01*
X123775000Y-99655682D01*
X123931762Y-99635044D01*
X124076723Y-99574999D01*
X135919317Y-99574999D01*
X135939956Y-99731762D01*
X136000463Y-99877840D01*
X136096717Y-100003282D01*
X136222158Y-100099536D01*
X136222159Y-100099536D01*
X136368238Y-100160044D01*
X136525000Y-100180682D01*
X136681762Y-100160044D01*
X136827841Y-100099536D01*
X136953282Y-100003282D01*
X137049536Y-99877841D01*
X137081779Y-99799999D01*
X138369317Y-99799999D01*
X138389956Y-99956762D01*
X138450463Y-100102840D01*
X138546717Y-100228282D01*
X138643884Y-100302840D01*
X138672159Y-100324536D01*
X138818238Y-100385044D01*
X138954361Y-100402964D01*
X138974999Y-100405682D01*
X138974999Y-100405681D01*
X138975000Y-100405682D01*
X139131762Y-100385044D01*
X139277841Y-100324536D01*
X139403282Y-100228282D01*
X139499536Y-100102841D01*
X139560044Y-99956762D01*
X139580682Y-99800000D01*
X139560044Y-99643238D01*
X139499536Y-99497159D01*
X139438978Y-99418238D01*
X139403282Y-99371717D01*
X139277840Y-99275463D01*
X139131762Y-99214956D01*
X138974999Y-99194317D01*
X138818237Y-99214956D01*
X138672159Y-99275463D01*
X138546717Y-99371717D01*
X138450463Y-99497159D01*
X138389956Y-99643237D01*
X138369317Y-99799999D01*
X137081779Y-99799999D01*
X137110044Y-99731762D01*
X137130682Y-99575000D01*
X137110044Y-99418238D01*
X137049536Y-99272159D01*
X137005643Y-99214956D01*
X136953282Y-99146717D01*
X136827840Y-99050463D01*
X136681762Y-98989956D01*
X136524999Y-98969317D01*
X136368237Y-98989956D01*
X136222159Y-99050463D01*
X136096717Y-99146717D01*
X136000463Y-99272159D01*
X135939956Y-99418237D01*
X135919317Y-99574999D01*
X124076723Y-99574999D01*
X124077841Y-99574536D01*
X124203282Y-99478282D01*
X124299536Y-99352841D01*
X124360044Y-99206762D01*
X124380682Y-99050000D01*
X124360044Y-98893238D01*
X124299536Y-98747159D01*
X124279372Y-98720881D01*
X124203282Y-98621717D01*
X124077840Y-98525463D01*
X123931762Y-98464956D01*
X123775000Y-98444317D01*
X123618237Y-98464956D01*
X123472159Y-98525463D01*
X123346717Y-98621717D01*
X123250463Y-98747159D01*
X123189956Y-98893237D01*
X123169317Y-99050000D01*
X121475500Y-99050000D01*
X121475500Y-97605898D01*
X121495185Y-97538859D01*
X121547989Y-97493104D01*
X121617147Y-97483160D01*
X121674987Y-97507523D01*
X121697159Y-97524536D01*
X121760549Y-97550793D01*
X121854313Y-97589632D01*
X121908716Y-97633473D01*
X121930781Y-97699767D01*
X121929799Y-97720377D01*
X121919317Y-97799998D01*
X121939956Y-97956762D01*
X122000463Y-98102840D01*
X122096717Y-98228282D01*
X122193885Y-98302841D01*
X122222159Y-98324536D01*
X122368238Y-98385044D01*
X122525000Y-98405682D01*
X122681762Y-98385044D01*
X122827841Y-98324536D01*
X122953282Y-98228282D01*
X123049536Y-98102841D01*
X123110044Y-97956762D01*
X123130682Y-97800000D01*
X123110044Y-97643238D01*
X123049536Y-97497159D01*
X122953282Y-97371717D01*
X122827841Y-97275464D01*
X122827840Y-97275463D01*
X122681762Y-97214956D01*
X122681761Y-97214955D01*
X122670685Y-97210368D01*
X122616282Y-97166527D01*
X122594217Y-97100233D01*
X122595198Y-97079629D01*
X122605682Y-97000000D01*
X122592517Y-96900000D01*
X140294317Y-96900000D01*
X140314956Y-97056762D01*
X140375463Y-97202840D01*
X140471717Y-97328282D01*
X140600650Y-97427215D01*
X140641853Y-97483643D01*
X140646008Y-97553389D01*
X140611796Y-97614309D01*
X140600651Y-97623966D01*
X140491718Y-97707553D01*
X140395463Y-97832996D01*
X140334956Y-97979074D01*
X140314317Y-98135837D01*
X140334956Y-98292599D01*
X140395463Y-98438677D01*
X140491717Y-98564119D01*
X140617159Y-98660372D01*
X140617159Y-98660373D01*
X140763238Y-98720881D01*
X140920000Y-98741519D01*
X141076762Y-98720881D01*
X141222841Y-98660373D01*
X141348282Y-98564119D01*
X141444536Y-98438678D01*
X141505044Y-98292599D01*
X141525682Y-98135837D01*
X141505044Y-97979075D01*
X141444536Y-97832996D01*
X141444535Y-97832995D01*
X141348282Y-97707554D01*
X141219349Y-97608621D01*
X141178146Y-97552193D01*
X141173991Y-97482447D01*
X141208203Y-97421527D01*
X141219349Y-97411869D01*
X141328282Y-97328282D01*
X141347768Y-97302887D01*
X141424536Y-97202841D01*
X141485044Y-97056762D01*
X141505682Y-96900000D01*
X141485044Y-96743238D01*
X141424536Y-96597159D01*
X141424536Y-96597158D01*
X141328282Y-96471717D01*
X141202840Y-96375463D01*
X141056762Y-96314956D01*
X140900000Y-96294317D01*
X140743237Y-96314956D01*
X140597159Y-96375463D01*
X140471717Y-96471717D01*
X140375463Y-96597159D01*
X140314956Y-96743237D01*
X140294317Y-96900000D01*
X122592517Y-96900000D01*
X122585044Y-96843238D01*
X122524536Y-96697159D01*
X122447804Y-96597159D01*
X122428282Y-96571717D01*
X122302840Y-96475463D01*
X122156762Y-96414956D01*
X122000000Y-96394317D01*
X121843237Y-96414956D01*
X121697159Y-96475463D01*
X121674985Y-96492478D01*
X121609816Y-96517671D01*
X121541371Y-96503632D01*
X121491382Y-96454818D01*
X121475500Y-96394101D01*
X121475500Y-94700000D01*
X133119317Y-94700000D01*
X133139956Y-94856762D01*
X133200463Y-95002840D01*
X133296717Y-95128282D01*
X133422158Y-95224536D01*
X133422159Y-95224536D01*
X133568238Y-95285044D01*
X133725000Y-95305682D01*
X133881762Y-95285044D01*
X134027841Y-95224536D01*
X134153282Y-95128282D01*
X134226623Y-95032701D01*
X134283052Y-94991498D01*
X134352798Y-94987343D01*
X134413718Y-95021555D01*
X134423376Y-95032701D01*
X134496717Y-95128282D01*
X134622158Y-95224536D01*
X134622159Y-95224536D01*
X134768238Y-95285044D01*
X134925000Y-95305682D01*
X135081762Y-95285044D01*
X135227841Y-95224536D01*
X135353282Y-95128282D01*
X135449536Y-95002841D01*
X135460439Y-94976517D01*
X135504276Y-94922117D01*
X135570569Y-94900050D01*
X135638269Y-94917327D01*
X135685881Y-94968463D01*
X135689560Y-94976517D01*
X135700464Y-95002842D01*
X135796717Y-95128282D01*
X135922158Y-95224536D01*
X135922159Y-95224536D01*
X136068238Y-95285044D01*
X136225000Y-95305682D01*
X136381762Y-95285044D01*
X136527841Y-95224536D01*
X136653282Y-95128282D01*
X136749536Y-95002841D01*
X136810044Y-94856762D01*
X136830682Y-94700000D01*
X136810044Y-94543238D01*
X136749536Y-94397159D01*
X136677199Y-94302887D01*
X136643344Y-94258766D01*
X136644261Y-94258062D01*
X136614240Y-94216949D01*
X136610085Y-94147204D01*
X136644296Y-94086283D01*
X136652792Y-94078920D01*
X136653282Y-94078282D01*
X136749536Y-93952841D01*
X136810044Y-93806762D01*
X136830682Y-93650000D01*
X136810044Y-93493238D01*
X136749536Y-93347159D01*
X136726624Y-93317299D01*
X136653282Y-93221717D01*
X136527840Y-93125463D01*
X136381762Y-93064956D01*
X136224999Y-93044317D01*
X136068237Y-93064956D01*
X135922159Y-93125463D01*
X135796717Y-93221717D01*
X135700464Y-93347158D01*
X135689561Y-93373481D01*
X135645720Y-93427884D01*
X135579426Y-93449949D01*
X135511727Y-93432670D01*
X135464116Y-93381533D01*
X135460439Y-93373481D01*
X135454234Y-93358501D01*
X135449536Y-93347159D01*
X135426624Y-93317299D01*
X135353282Y-93221717D01*
X135227840Y-93125463D01*
X135081762Y-93064956D01*
X134924999Y-93044317D01*
X134768237Y-93064956D01*
X134622159Y-93125463D01*
X134496719Y-93221716D01*
X134423376Y-93317299D01*
X134366948Y-93358501D01*
X134297202Y-93362656D01*
X134236281Y-93328443D01*
X134226624Y-93317299D01*
X134153280Y-93221716D01*
X134027840Y-93125463D01*
X133881762Y-93064956D01*
X133724999Y-93044317D01*
X133568237Y-93064956D01*
X133422159Y-93125463D01*
X133296717Y-93221717D01*
X133200463Y-93347159D01*
X133139956Y-93493237D01*
X133119317Y-93650000D01*
X133139956Y-93806762D01*
X133200463Y-93952840D01*
X133306656Y-94091234D01*
X133305738Y-94091937D01*
X133335761Y-94133056D01*
X133339913Y-94202802D01*
X133305699Y-94263721D01*
X133297208Y-94271077D01*
X133200463Y-94397159D01*
X133139956Y-94543237D01*
X133119317Y-94700000D01*
X121475500Y-94700000D01*
X121475500Y-94605898D01*
X121495185Y-94538859D01*
X121547989Y-94493104D01*
X121617147Y-94483160D01*
X121674987Y-94507523D01*
X121697159Y-94524536D01*
X121843238Y-94585044D01*
X122000000Y-94605682D01*
X122156762Y-94585044D01*
X122302841Y-94524536D01*
X122428282Y-94428282D01*
X122524536Y-94302841D01*
X122585044Y-94156762D01*
X122605682Y-94000000D01*
X122585044Y-93843238D01*
X122524536Y-93697159D01*
X122488349Y-93649999D01*
X122428282Y-93571717D01*
X122302840Y-93475463D01*
X122156762Y-93414956D01*
X122000000Y-93394317D01*
X121843237Y-93414956D01*
X121697159Y-93475463D01*
X121674985Y-93492478D01*
X121609816Y-93517671D01*
X121541371Y-93503632D01*
X121491382Y-93454818D01*
X121475500Y-93394101D01*
X121475500Y-91605898D01*
X121495185Y-91538859D01*
X121547989Y-91493104D01*
X121617147Y-91483160D01*
X121674987Y-91507523D01*
X121697159Y-91524536D01*
X121843238Y-91585044D01*
X122000000Y-91605682D01*
X122156762Y-91585044D01*
X122302841Y-91524536D01*
X122428282Y-91428282D01*
X122524536Y-91302841D01*
X122585044Y-91156762D01*
X122605682Y-91000000D01*
X122585044Y-90843238D01*
X122524536Y-90697159D01*
X122524500Y-90697112D01*
X122449983Y-90599999D01*
X125494317Y-90599999D01*
X125514956Y-90756762D01*
X125575463Y-90902840D01*
X125671717Y-91028282D01*
X125797158Y-91124536D01*
X125797159Y-91124536D01*
X125943238Y-91185044D01*
X126100000Y-91205682D01*
X126256762Y-91185044D01*
X126402841Y-91124536D01*
X126528282Y-91028282D01*
X126624536Y-90902841D01*
X126685044Y-90756762D01*
X126705682Y-90600000D01*
X127194317Y-90600000D01*
X127214956Y-90756762D01*
X127275463Y-90902840D01*
X127371717Y-91028282D01*
X127497158Y-91124536D01*
X127497159Y-91124536D01*
X127643238Y-91185044D01*
X127800000Y-91205682D01*
X127956762Y-91185044D01*
X128102841Y-91124536D01*
X128228282Y-91028282D01*
X128324536Y-90902841D01*
X128385044Y-90756762D01*
X128405682Y-90600000D01*
X128385044Y-90443238D01*
X128324536Y-90297159D01*
X128324535Y-90297159D01*
X128228282Y-90171717D01*
X128102840Y-90075463D01*
X127956762Y-90014956D01*
X127800000Y-89994317D01*
X127643237Y-90014956D01*
X127497159Y-90075463D01*
X127371717Y-90171717D01*
X127275463Y-90297159D01*
X127214956Y-90443237D01*
X127194317Y-90600000D01*
X126705682Y-90600000D01*
X126685044Y-90443238D01*
X126624536Y-90297159D01*
X126624536Y-90297158D01*
X126528282Y-90171717D01*
X126402840Y-90075463D01*
X126256762Y-90014956D01*
X126100000Y-89994317D01*
X125943237Y-90014956D01*
X125797159Y-90075463D01*
X125671717Y-90171717D01*
X125575463Y-90297159D01*
X125514956Y-90443237D01*
X125494317Y-90599999D01*
X122449983Y-90599999D01*
X122428282Y-90571717D01*
X122302840Y-90475463D01*
X122156762Y-90414956D01*
X122000000Y-90394317D01*
X121843237Y-90414956D01*
X121697159Y-90475463D01*
X121674985Y-90492478D01*
X121609816Y-90517671D01*
X121541371Y-90503632D01*
X121491382Y-90454818D01*
X121475500Y-90394101D01*
X121475500Y-89000000D01*
X140394317Y-89000000D01*
X140414956Y-89156762D01*
X140475463Y-89302840D01*
X140571717Y-89428282D01*
X140697159Y-89524535D01*
X140697159Y-89524536D01*
X140843238Y-89585044D01*
X141000000Y-89605682D01*
X141156762Y-89585044D01*
X141302841Y-89524536D01*
X141428282Y-89428282D01*
X141524536Y-89302841D01*
X141585044Y-89156762D01*
X141605682Y-89000000D01*
X141585044Y-88843238D01*
X141524536Y-88697159D01*
X141524535Y-88697158D01*
X141428282Y-88571717D01*
X141302840Y-88475463D01*
X141156762Y-88414956D01*
X141000000Y-88394317D01*
X140843237Y-88414956D01*
X140697159Y-88475463D01*
X140571717Y-88571717D01*
X140475463Y-88697159D01*
X140414956Y-88843237D01*
X140394317Y-89000000D01*
X121475500Y-89000000D01*
X121475500Y-88605898D01*
X121495185Y-88538859D01*
X121547989Y-88493104D01*
X121617147Y-88483160D01*
X121674987Y-88507523D01*
X121697159Y-88524536D01*
X121843238Y-88585044D01*
X122000000Y-88605682D01*
X122156762Y-88585044D01*
X122302841Y-88524536D01*
X122428282Y-88428282D01*
X122524536Y-88302841D01*
X122585044Y-88156762D01*
X122605682Y-88000000D01*
X122585044Y-87843238D01*
X122524536Y-87697159D01*
X122509596Y-87677689D01*
X122428282Y-87571717D01*
X122302840Y-87475463D01*
X122156762Y-87414956D01*
X122000000Y-87394317D01*
X121843237Y-87414956D01*
X121697159Y-87475463D01*
X121674985Y-87492478D01*
X121609816Y-87517671D01*
X121541371Y-87503632D01*
X121491382Y-87454818D01*
X121475500Y-87394101D01*
X121475500Y-85605898D01*
X121495185Y-85538859D01*
X121547989Y-85493104D01*
X121617147Y-85483160D01*
X121674987Y-85507523D01*
X121697159Y-85524536D01*
X121843238Y-85585044D01*
X122000000Y-85605682D01*
X122156762Y-85585044D01*
X122302841Y-85524536D01*
X122428282Y-85428282D01*
X122524536Y-85302841D01*
X122585044Y-85156762D01*
X122605682Y-85000000D01*
X122585044Y-84843238D01*
X122567134Y-84800000D01*
X124794317Y-84800000D01*
X124814956Y-84956762D01*
X124875463Y-85102840D01*
X124971717Y-85228282D01*
X125041356Y-85281717D01*
X125097159Y-85324536D01*
X125243238Y-85385044D01*
X125400000Y-85405682D01*
X125556762Y-85385044D01*
X125702841Y-85324536D01*
X125828282Y-85228282D01*
X125924536Y-85102841D01*
X125985044Y-84956762D01*
X126005682Y-84800000D01*
X125985044Y-84643238D01*
X125961367Y-84586078D01*
X125954348Y-84569131D01*
X125946879Y-84499662D01*
X125978154Y-84437183D01*
X126038243Y-84401531D01*
X126052711Y-84398742D01*
X126156762Y-84385044D01*
X126302841Y-84324536D01*
X126428282Y-84228282D01*
X126524536Y-84102841D01*
X126585044Y-83956762D01*
X126605682Y-83800000D01*
X126605682Y-83799999D01*
X138494317Y-83799999D01*
X138514956Y-83956762D01*
X138575463Y-84102840D01*
X138671717Y-84228282D01*
X138797159Y-84324535D01*
X138797159Y-84324536D01*
X138943238Y-84385044D01*
X139100000Y-84405682D01*
X139256762Y-84385044D01*
X139402841Y-84324536D01*
X139528282Y-84228282D01*
X139624536Y-84102841D01*
X139685044Y-83956762D01*
X139705682Y-83800000D01*
X139685044Y-83643238D01*
X139624536Y-83497159D01*
X139624323Y-83496881D01*
X139528282Y-83371717D01*
X139402840Y-83275463D01*
X139256762Y-83214956D01*
X139100000Y-83194317D01*
X138943237Y-83214956D01*
X138797159Y-83275463D01*
X138671717Y-83371717D01*
X138575463Y-83497159D01*
X138514956Y-83643237D01*
X138494317Y-83799999D01*
X126605682Y-83799999D01*
X126585044Y-83643238D01*
X126524536Y-83497159D01*
X126524323Y-83496881D01*
X126428282Y-83371717D01*
X126302840Y-83275463D01*
X126156762Y-83214956D01*
X126000000Y-83194317D01*
X125843237Y-83214956D01*
X125697159Y-83275463D01*
X125571717Y-83371717D01*
X125475463Y-83497159D01*
X125414956Y-83643237D01*
X125394317Y-83800000D01*
X125414956Y-83956762D01*
X125445651Y-84030868D01*
X125453120Y-84100338D01*
X125421844Y-84162817D01*
X125361755Y-84198468D01*
X125347276Y-84201259D01*
X125243237Y-84214956D01*
X125097159Y-84275463D01*
X124971717Y-84371717D01*
X124875463Y-84497159D01*
X124814956Y-84643237D01*
X124794317Y-84800000D01*
X122567134Y-84800000D01*
X122524536Y-84697159D01*
X122524500Y-84697112D01*
X122428282Y-84571717D01*
X122302840Y-84475463D01*
X122156762Y-84414956D01*
X122000000Y-84394317D01*
X121843237Y-84414956D01*
X121697159Y-84475463D01*
X121674985Y-84492478D01*
X121609816Y-84517671D01*
X121541371Y-84503632D01*
X121491382Y-84454818D01*
X121475500Y-84394101D01*
X121475500Y-82605898D01*
X121495185Y-82538859D01*
X121547989Y-82493104D01*
X121617147Y-82483160D01*
X121674987Y-82507523D01*
X121697159Y-82524536D01*
X121843238Y-82585044D01*
X122000000Y-82605682D01*
X122156762Y-82585044D01*
X122302841Y-82524536D01*
X122334817Y-82500000D01*
X127894317Y-82500000D01*
X127914956Y-82656762D01*
X127975463Y-82802840D01*
X128071717Y-82928282D01*
X128165183Y-83000000D01*
X128197159Y-83024536D01*
X128343238Y-83085044D01*
X128500000Y-83105682D01*
X128656762Y-83085044D01*
X128802841Y-83024536D01*
X128928282Y-82928282D01*
X129024536Y-82802841D01*
X129085044Y-82656762D01*
X129105682Y-82500000D01*
X129085044Y-82343238D01*
X129024536Y-82197159D01*
X129024536Y-82197158D01*
X128928282Y-82071717D01*
X128802840Y-81975463D01*
X128656762Y-81914956D01*
X128500000Y-81894317D01*
X128343237Y-81914956D01*
X128197159Y-81975463D01*
X128071717Y-82071717D01*
X127975463Y-82197159D01*
X127914956Y-82343237D01*
X127894317Y-82500000D01*
X122334817Y-82500000D01*
X122428282Y-82428282D01*
X122524536Y-82302841D01*
X122585044Y-82156762D01*
X122605682Y-82000000D01*
X122585044Y-81843238D01*
X122524536Y-81697159D01*
X122524500Y-81697112D01*
X122428282Y-81571717D01*
X122302840Y-81475463D01*
X122156762Y-81414956D01*
X122000000Y-81394317D01*
X121843237Y-81414956D01*
X121697159Y-81475463D01*
X121674985Y-81492478D01*
X121609816Y-81517671D01*
X121541371Y-81503632D01*
X121491382Y-81454818D01*
X121475500Y-81394101D01*
X121475500Y-79724000D01*
X121495185Y-79656961D01*
X121547989Y-79611206D01*
X121599500Y-79600000D01*
X121948715Y-79600000D01*
X121964898Y-79601060D01*
G37*
%TD.AperFunction*%
%TD*%
M02*
