%TF.GenerationSoftware,KiCad,Pcbnew,7.0.2-0*%
%TF.CreationDate,2025-01-08T15:26:18-05:00*%
%TF.ProjectId,plaqchek_electrodes,706c6171-6368-4656-9b5f-656c65637472,rev?*%
%TF.SameCoordinates,Original*%
%TF.FileFunction,Copper,L1,Top*%
%TF.FilePolarity,Positive*%
%FSLAX46Y46*%
G04 Gerber Fmt 4.6, Leading zero omitted, Abs format (unit mm)*
G04 Created by KiCad (PCBNEW 7.0.2-0) date 2025-01-08 15:26:18*
%MOMM*%
%LPD*%
G01*
G04 APERTURE LIST*
%TA.AperFunction,ComponentPad*%
%ADD10R,1.700000X1.700000*%
%TD*%
%TA.AperFunction,ComponentPad*%
%ADD11O,1.700000X1.700000*%
%TD*%
%TA.AperFunction,ViaPad*%
%ADD12C,0.800000*%
%TD*%
%TA.AperFunction,Conductor*%
%ADD13C,0.200000*%
%TD*%
G04 APERTURE END LIST*
D10*
%TO.P,J1,1,Pin_1*%
%TO.N,/WORKING_ELEC*%
X144000000Y-101475000D03*
D11*
%TO.P,J1,2,Pin_2*%
%TO.N,/REF_ELEC*%
X144000000Y-104015000D03*
%TO.P,J1,3,Pin_3*%
%TO.N,/COUNTER_ELEC*%
X144000000Y-106555000D03*
%TD*%
D12*
%TO.N,/COUNTER_ELEC*%
X157000000Y-85000000D03*
%TD*%
D13*
%TO.N,/WORKING_ELEC*%
X158000000Y-107000000D02*
X163000000Y-107000000D01*
X152475000Y-101475000D02*
X158000000Y-107000000D01*
X144000000Y-101475000D02*
X152475000Y-101475000D01*
%TO.N,/REF_ELEC*%
X158532503Y-122532503D02*
X161841493Y-122532503D01*
X157000000Y-109000000D02*
X157000000Y-121000000D01*
X144000000Y-104015000D02*
X144015000Y-104000000D01*
X152000000Y-104000000D02*
X157000000Y-109000000D01*
X144015000Y-104000000D02*
X152000000Y-104000000D01*
X157000000Y-121000000D02*
X158532503Y-122532503D01*
%TO.N,/COUNTER_ELEC*%
X157476331Y-84523669D02*
X161882388Y-84523669D01*
X157000000Y-85000000D02*
X157476331Y-84523669D01*
%TD*%
%TA.AperFunction,Conductor*%
%TO.N,/WORKING_ELEC*%
G36*
X200943039Y-97019685D02*
G01*
X200988794Y-97072489D01*
X201000000Y-97124000D01*
X201000000Y-116876000D01*
X200980315Y-116943039D01*
X200927511Y-116988794D01*
X200876000Y-117000000D01*
X161124000Y-117000000D01*
X161056961Y-116980315D01*
X161011206Y-116927511D01*
X161000000Y-116876000D01*
X161000000Y-97124000D01*
X161019685Y-97056961D01*
X161072489Y-97011206D01*
X161124000Y-97000000D01*
X200876000Y-97000000D01*
X200943039Y-97019685D01*
G37*
%TD.AperFunction*%
%TD*%
%TA.AperFunction,Conductor*%
%TO.N,/REF_ELEC*%
G36*
X200943039Y-122019685D02*
G01*
X200988794Y-122072489D01*
X201000000Y-122124000D01*
X201000000Y-122876000D01*
X200980315Y-122943039D01*
X200927511Y-122988794D01*
X200876000Y-123000000D01*
X161124000Y-123000000D01*
X161056961Y-122980315D01*
X161011206Y-122927511D01*
X161000000Y-122876000D01*
X161000000Y-122124000D01*
X161019685Y-122056961D01*
X161072489Y-122011206D01*
X161124000Y-122000000D01*
X200876000Y-122000000D01*
X200943039Y-122019685D01*
G37*
%TD.AperFunction*%
%TD*%
%TA.AperFunction,Conductor*%
%TO.N,/COUNTER_ELEC*%
G36*
X213943039Y-84019685D02*
G01*
X213988794Y-84072489D01*
X214000000Y-84124000D01*
X214000000Y-122876000D01*
X213980315Y-122943039D01*
X213927511Y-122988794D01*
X213876000Y-123000000D01*
X213124000Y-123000000D01*
X213056961Y-122980315D01*
X213011206Y-122927511D01*
X213000000Y-122876000D01*
X213000000Y-85000000D01*
X161124000Y-85000000D01*
X161056961Y-84980315D01*
X161011206Y-84927511D01*
X161000000Y-84876000D01*
X161000000Y-84124000D01*
X161019685Y-84056961D01*
X161072489Y-84011206D01*
X161124000Y-84000000D01*
X213876000Y-84000000D01*
X213943039Y-84019685D01*
G37*
%TD.AperFunction*%
%TD*%
M02*
