%TF.GenerationSoftware,KiCad,Pcbnew,7.0.2-0*%
%TF.CreationDate,2025-01-08T13:43:56-05:00*%
%TF.ProjectId,plaqchek_potentiostat,706c6171-6368-4656-9b5f-706f74656e74,rev?*%
%TF.SameCoordinates,Original*%
%TF.FileFunction,Paste,Top*%
%TF.FilePolarity,Positive*%
%FSLAX46Y46*%
G04 Gerber Fmt 4.6, Leading zero omitted, Abs format (unit mm)*
G04 Created by KiCad (PCBNEW 7.0.2-0) date 2025-01-08 13:43:56*
%MOMM*%
%LPD*%
G01*
G04 APERTURE LIST*
G04 Aperture macros list*
%AMRoundRect*
0 Rectangle with rounded corners*
0 $1 Rounding radius*
0 $2 $3 $4 $5 $6 $7 $8 $9 X,Y pos of 4 corners*
0 Add a 4 corners polygon primitive as box body*
4,1,4,$2,$3,$4,$5,$6,$7,$8,$9,$2,$3,0*
0 Add four circle primitives for the rounded corners*
1,1,$1+$1,$2,$3*
1,1,$1+$1,$4,$5*
1,1,$1+$1,$6,$7*
1,1,$1+$1,$8,$9*
0 Add four rect primitives between the rounded corners*
20,1,$1+$1,$2,$3,$4,$5,0*
20,1,$1+$1,$4,$5,$6,$7,0*
20,1,$1+$1,$6,$7,$8,$9,0*
20,1,$1+$1,$8,$9,$2,$3,0*%
G04 Aperture macros list end*
%ADD10RoundRect,0.250000X-0.350000X0.850000X-0.350000X-0.850000X0.350000X-0.850000X0.350000X0.850000X0*%
%ADD11RoundRect,0.250000X-1.125000X1.275000X-1.125000X-1.275000X1.125000X-1.275000X1.125000X1.275000X0*%
%ADD12RoundRect,0.237500X0.237500X-0.250000X0.237500X0.250000X-0.237500X0.250000X-0.237500X-0.250000X0*%
%ADD13RoundRect,0.237500X-0.237500X0.300000X-0.237500X-0.300000X0.237500X-0.300000X0.237500X0.300000X0*%
%ADD14RoundRect,0.237500X0.300000X0.237500X-0.300000X0.237500X-0.300000X-0.237500X0.300000X-0.237500X0*%
%ADD15RoundRect,0.237500X-0.250000X-0.237500X0.250000X-0.237500X0.250000X0.237500X-0.250000X0.237500X0*%
%ADD16RoundRect,0.237500X-0.300000X-0.237500X0.300000X-0.237500X0.300000X0.237500X-0.300000X0.237500X0*%
%ADD17RoundRect,0.237500X-0.237500X0.250000X-0.237500X-0.250000X0.237500X-0.250000X0.237500X0.250000X0*%
%ADD18RoundRect,0.237500X0.237500X-0.300000X0.237500X0.300000X-0.237500X0.300000X-0.237500X-0.300000X0*%
%ADD19RoundRect,0.237500X0.250000X0.237500X-0.250000X0.237500X-0.250000X-0.237500X0.250000X-0.237500X0*%
%ADD20R,2.000000X0.400000*%
%ADD21R,0.650000X1.560000*%
%ADD22R,0.400000X2.000000*%
G04 APERTURE END LIST*
D10*
%TO.C,U6*%
X184255000Y-99025000D03*
D11*
X183500000Y-103650000D03*
X180450000Y-103650000D03*
X183500000Y-107000000D03*
X180450000Y-107000000D03*
D10*
X179695000Y-99025000D03*
%TD*%
D12*
%TO.C,R15*%
X173830000Y-113742500D03*
X173830000Y-111917500D03*
%TD*%
%TO.C,R17*%
X169800000Y-103312500D03*
X169800000Y-101487500D03*
%TD*%
D13*
%TO.C,C2*%
X156500000Y-102025000D03*
X156500000Y-103750000D03*
%TD*%
D14*
%TO.C,C8*%
X167710000Y-138897500D03*
X165985000Y-138897500D03*
%TD*%
D15*
%TO.C,R19*%
X149000000Y-135750000D03*
X150825000Y-135750000D03*
%TD*%
D12*
%TO.C,R8*%
X165500000Y-123495000D03*
X165500000Y-121670000D03*
%TD*%
D15*
%TO.C,R7*%
X159925000Y-119670000D03*
X161750000Y-119670000D03*
%TD*%
D14*
%TO.C,C9*%
X174025000Y-100987500D03*
X172300000Y-100987500D03*
%TD*%
D15*
%TO.C,R12*%
X165675000Y-114500000D03*
X167500000Y-114500000D03*
%TD*%
D16*
%TO.C,C5*%
X170025000Y-115170000D03*
X171750000Y-115170000D03*
%TD*%
D17*
%TO.C,R11*%
X172710000Y-134497500D03*
X172710000Y-136322500D03*
%TD*%
D15*
%TO.C,R4*%
X161135000Y-133147500D03*
X162960000Y-133147500D03*
%TD*%
D17*
%TO.C,R9*%
X171460000Y-139410000D03*
X171460000Y-141235000D03*
%TD*%
D15*
%TO.C,R1*%
X161112477Y-135976329D03*
X162937477Y-135976329D03*
%TD*%
D18*
%TO.C,C3*%
X150500000Y-102000000D03*
X150500000Y-100275000D03*
%TD*%
D15*
%TO.C,R6*%
X149000000Y-96750000D03*
X150825000Y-96750000D03*
%TD*%
D17*
%TO.C,R2*%
X179412500Y-91087500D03*
X179412500Y-92912500D03*
%TD*%
D19*
%TO.C,R20*%
X177312500Y-117000000D03*
X175487500Y-117000000D03*
%TD*%
D14*
%TO.C,C6*%
X170054999Y-121724153D03*
X168329999Y-121724153D03*
%TD*%
D19*
%TO.C,R21*%
X177312500Y-119800000D03*
X175487500Y-119800000D03*
%TD*%
D12*
%TO.C,R13*%
X159000000Y-102825000D03*
X159000000Y-101000000D03*
%TD*%
D14*
%TO.C,C10*%
X174525000Y-109237500D03*
X172800000Y-109237500D03*
%TD*%
D20*
%TO.C,U3*%
X168330000Y-117420000D03*
X168330000Y-118060000D03*
X168330000Y-118720000D03*
X168330000Y-119360000D03*
X171750000Y-119360000D03*
X171750000Y-118720000D03*
X171750000Y-118060000D03*
X171750000Y-117420000D03*
%TD*%
D21*
%TO.C,U5*%
X173700000Y-103787500D03*
X172750000Y-103787500D03*
X171800000Y-103787500D03*
X171800000Y-106487500D03*
X173700000Y-106487500D03*
%TD*%
D16*
%TO.C,C7*%
X167713296Y-132664470D03*
X169438296Y-132664470D03*
%TD*%
D13*
%TO.C,C11*%
X186725000Y-100750000D03*
X186725000Y-102475000D03*
%TD*%
D12*
%TO.C,R3*%
X159300000Y-107300000D03*
X159300000Y-105475000D03*
%TD*%
D14*
%TO.C,C12*%
X181475404Y-95968390D03*
X179750404Y-95968390D03*
%TD*%
D19*
%TO.C,R18*%
X185912500Y-135000000D03*
X184087500Y-135000000D03*
%TD*%
D20*
%TO.C,U4*%
X166000000Y-134677500D03*
X166000000Y-135317500D03*
X166000000Y-135977500D03*
X166000000Y-136617500D03*
X169420000Y-136617500D03*
X169420000Y-135977500D03*
X169420000Y-135317500D03*
X169420000Y-134677500D03*
%TD*%
D22*
%TO.C,U1*%
X154470000Y-100290000D03*
X153830000Y-100290000D03*
X153170000Y-100290000D03*
X152530000Y-100290000D03*
X152530000Y-103710000D03*
X153170000Y-103710000D03*
X153830000Y-103710000D03*
X154470000Y-103710000D03*
%TD*%
D15*
%TO.C,R14*%
X152012500Y-107275000D03*
X153837500Y-107275000D03*
%TD*%
%TO.C,R10*%
X163425000Y-117250000D03*
X165250000Y-117250000D03*
%TD*%
%TO.C,R16*%
X175087500Y-95800000D03*
X176912500Y-95800000D03*
%TD*%
%TO.C,R5*%
X146942455Y-106839642D03*
X148767455Y-106839642D03*
%TD*%
M02*
