M48
; DRILL file {KiCad 7.0.2-0} date 2025 January 08, Wednesday 13:44:00
; FORMAT={-:-/ absolute / inch / decimal}
; #@! TF.CreationDate,2025-01-08T13:44:00-05:00
; #@! TF.GenerationSoftware,Kicad,Pcbnew,7.0.2-0
; #@! TF.FileFunction,Plated,1,4,PTH
FMAT,2
INCH
; #@! TA.AperFunction,Plated,PTH,ViaDrill
T1C0.0157
; #@! TA.AperFunction,Plated,PTH,ComponentDrill
T2C0.0315
; #@! TA.AperFunction,Plated,PTH,ComponentDrill
T3C0.0394
; #@! TA.AperFunction,Plated,PTH,ComponentDrill
T4C0.0591
; #@! TA.AperFunction,Plated,PTH,ComponentDrill
T5C0.1260
%
G90
G05
T1
X5.7087Y-3.4646
X5.7087Y-3.7008
X5.7087Y-3.8583
X5.7087Y-4.0157
X5.7087Y-4.1732
X5.7087Y-4.3307
X5.7087Y-4.4882
X5.7087Y-4.6457
X5.7087Y-4.8031
X5.7087Y-4.9606
X5.7087Y-5.1181
X5.7087Y-5.2756
X5.7087Y-5.4331
X5.7087Y-5.5906
X5.7874Y-4.0945
X5.7874Y-4.252
X5.7874Y-4.4094
X5.7874Y-4.5669
X5.7874Y-4.7244
X5.7874Y-4.8819
X5.7874Y-5.0394
X5.7874Y-5.1969
X5.7874Y-5.3543
X5.8661Y-4.3307
X5.8661Y-4.4882
X5.8661Y-4.6457
X5.8661Y-4.8031
X5.8661Y-4.9606
X5.8661Y-5.1181
X5.8661Y-5.2756
X5.8677Y-3.947
X5.8704Y-4.0154
X5.8728Y-3.8705
X5.937Y-3.8661
X5.9382Y-5.3976
X5.9449Y-4.0945
X5.9449Y-4.8819
X5.9449Y-5.0394
X5.9449Y-5.1969
X5.9996Y-5.3433
X6.0205Y-4.2909
X6.0236Y-4.8031
X6.0236Y-4.9606
X6.0236Y-5.1181
X6.0236Y-5.2756
X6.063Y-5.6693
X6.1024Y-4.8819
X6.1024Y-5.0394
X6.1024Y-5.1969
X6.1024Y-5.3543
X6.1575Y-3.9769
X6.1575Y-4.126
X6.1811Y-4.8031
X6.1811Y-4.9606
X6.1811Y-5.1181
X6.1811Y-5.2756
X6.2106Y-4.0551
X6.2205Y-3.7402
X6.2205Y-5.6693
X6.2406Y-3.5142
X6.2598Y-4.4882
X6.2598Y-4.8819
X6.2598Y-5.0394
X6.2598Y-5.1969
X6.2736Y-5.3524
X6.2992Y-3.6614
X6.2992Y-3.8189
X6.3193Y-4.2287
X6.3311Y-3.5827
X6.3343Y-4.0165
X6.3386Y-4.4094
X6.3386Y-4.8031
X6.3386Y-4.9606
X6.3425Y-5.4035
X6.3433Y-5.2909
X6.3724Y-4.6177
X6.378Y-3.7402
X6.378Y-5.6693
X6.4173Y-4.3307
X6.4173Y-4.4882
X6.4173Y-4.8819
X6.4567Y-3.5039
X6.4567Y-3.6614
X6.4567Y-3.8189
X6.4646Y-4.552
X6.4945Y-5.2489
X6.4961Y-4.252
X6.4961Y-4.4094
X6.5354Y-3.5827
X6.5354Y-3.7402
X6.5354Y-5.5217
X6.5354Y-5.6693
X6.5748Y-4.1732
X6.5748Y-4.3307
X6.6Y-5.4098
X6.6031Y-5.174
X6.6063Y-5.5209
X6.625Y-3.9951
X6.6272Y-4.8327
X6.6437Y-4.5571
X6.6535Y-4.252
X6.6732Y-5.1673
X6.6917Y-4.4776
X6.6929Y-5.5433
X6.6945Y-4.8378
X6.7193Y-5.4126
X6.7559Y-4.9055
X6.7835Y-3.9291
X6.7886Y-4.7524
X6.8031Y-4.337
X6.8059Y-5.4217
X6.8268Y-3.7677
X6.8307Y-3.6969
X6.8406Y-4.7146
X6.8457Y-4.6142
X6.8843Y-3.4858
X6.8898Y-3.6969
X6.8898Y-5.5906
X6.8976Y-4.5276
X6.915Y-4.0874
X6.9213Y-4.4882
X6.9465Y-4.7744
X6.9484Y-4.5638
X6.9685Y-5.1969
X6.9685Y-5.3543
X6.9685Y-5.5118
X6.9685Y-5.6693
X6.9764Y-3.5705
X6.9921Y-3.8917
X7.0102Y-3.6567
X7.0472Y-4.9409
X7.0472Y-5.1181
X7.0472Y-5.2756
X7.0472Y-5.4331
X7.0472Y-5.5906
X7.1035Y-4.5988
X7.1051Y-4.7295
X7.1154Y-3.6591
X7.126Y-5.0394
X7.126Y-5.1969
X7.126Y-5.6693
X7.1437Y-3.7299
X7.1718Y-4.6613
X7.1909Y-3.939
X7.1909Y-5.3138
X7.2047Y-4.4882
X7.2047Y-5.1181
X7.2457Y-5.2634
X7.2492Y-3.9756
X7.2835Y-4.4094
X7.2835Y-5.0394
X7.3248Y-3.811
X7.3465Y-4.2441
X7.3509Y-3.9083
X7.3543Y-4.1339
X7.3622Y-4.4882
X7.3622Y-4.6457
X7.3622Y-4.8031
X7.3622Y-4.9606
X7.3622Y-5.1181
X7.4087Y-3.9668
X7.4409Y-3.4646
X7.4409Y-4.4094
X7.4409Y-4.5669
X7.4409Y-4.7244
X7.4409Y-4.8819
X7.4409Y-5.0394
X7.4409Y-5.1969
T2
X5.9646Y-4.4685
X5.9646Y-4.6685
X6.0646Y-4.5685
X6.1894Y-5.5668
X6.2894Y-5.5668
X6.3894Y-5.5668
X6.3976Y-3.9567
X6.3976Y-4.1567
X6.4976Y-4.0567
X6.5453Y-5.0394
X6.624Y-5.0394
X6.7028Y-5.0394
T3
X6.1417Y-3.5827
X6.2417Y-3.5827
X6.6898Y-3.5728
X6.7898Y-3.5728
X6.8898Y-3.5728
X7.2343Y-4.6142
X7.2343Y-4.7142
X7.2343Y-4.8142
T4
X6.4626Y-5.0394
X6.7854Y-5.0394
T5
X5.8661Y-3.622
X5.8661Y-5.5512
X7.2835Y-3.622
X7.2835Y-5.5512
T0
M30
