%TF.GenerationSoftware,KiCad,Pcbnew,7.0.2-0*%
%TF.CreationDate,2025-01-08T13:43:56-05:00*%
%TF.ProjectId,plaqchek_potentiostat,706c6171-6368-4656-9b5f-706f74656e74,rev?*%
%TF.SameCoordinates,Original*%
%TF.FileFunction,Copper,L4,Bot*%
%TF.FilePolarity,Positive*%
%FSLAX46Y46*%
G04 Gerber Fmt 4.6, Leading zero omitted, Abs format (unit mm)*
G04 Created by KiCad (PCBNEW 7.0.2-0) date 2025-01-08 13:43:56*
%MOMM*%
%LPD*%
G01*
G04 APERTURE LIST*
%TA.AperFunction,ComponentPad*%
%ADD10C,1.440000*%
%TD*%
%TA.AperFunction,ComponentPad*%
%ADD11O,2.200000X3.500000*%
%TD*%
%TA.AperFunction,ComponentPad*%
%ADD12R,1.500000X2.500000*%
%TD*%
%TA.AperFunction,ComponentPad*%
%ADD13O,1.500000X2.500000*%
%TD*%
%TA.AperFunction,ComponentPad*%
%ADD14C,6.400000*%
%TD*%
%TA.AperFunction,ComponentPad*%
%ADD15R,1.700000X1.700000*%
%TD*%
%TA.AperFunction,ComponentPad*%
%ADD16O,1.700000X1.700000*%
%TD*%
%TA.AperFunction,ViaPad*%
%ADD17C,0.800000*%
%TD*%
%TA.AperFunction,Conductor*%
%ADD18C,0.250000*%
%TD*%
%TA.AperFunction,Conductor*%
%ADD19C,1.000000*%
%TD*%
G04 APERTURE END LIST*
D10*
%TO.P,RV2,1,1*%
%TO.N,Net-(U1B--)*%
X151500000Y-113500000D03*
%TO.P,RV2,2,2*%
%TO.N,Net-(R14-Pad2)*%
X154040000Y-116040000D03*
%TO.P,RV2,3,3*%
X151500000Y-118580000D03*
%TD*%
%TO.P,RV3,1,1*%
%TO.N,+5VA*%
X157210000Y-141397500D03*
%TO.P,RV3,2,2*%
%TO.N,Net-(U4A-+)*%
X159750000Y-141397500D03*
%TO.P,RV3,3,3*%
X162290000Y-141397500D03*
%TD*%
D11*
%TO.P,SW2,*%
%TO.N,*%
X172350000Y-128000000D03*
X164150000Y-128000000D03*
D12*
%TO.P,SW2,1,A*%
%TO.N,/VBIAS_POT_N*%
X170250000Y-128000000D03*
D13*
%TO.P,SW2,2,B*%
%TO.N,/VBIAS_POT*%
X168250000Y-128000000D03*
%TO.P,SW2,3,C*%
%TO.N,/VBIAS_POT_P*%
X166250000Y-128000000D03*
%TD*%
D14*
%TO.P,H4,1,1*%
%TO.N,Net-(H4-Pad1)*%
X149000000Y-141000000D03*
%TD*%
D15*
%TO.P,J3,1,Pin_1*%
%TO.N,/VDAC_POT_PWM_3V3*%
X156000000Y-91000000D03*
D16*
%TO.P,J3,2,Pin_2*%
%TO.N,GND*%
X158540000Y-91000000D03*
%TD*%
D14*
%TO.P,H3,1,1*%
%TO.N,Net-(H3-Pad1)*%
X185000000Y-141000000D03*
%TD*%
D15*
%TO.P,J1,1,Pin_1*%
%TO.N,/WORKING_ELEC*%
X183750000Y-117200000D03*
D16*
%TO.P,J1,2,Pin_2*%
%TO.N,/REF_ELEC*%
X183750000Y-119740000D03*
%TO.P,J1,3,Pin_3*%
%TO.N,GND*%
X183750000Y-122280000D03*
%TD*%
D10*
%TO.P,RV1,1,1*%
%TO.N,Net-(U1A--)*%
X162500000Y-100500000D03*
%TO.P,RV1,2,2*%
%TO.N,Net-(U1B-+)*%
X165040000Y-103040000D03*
%TO.P,RV1,3,3*%
X162500000Y-105580000D03*
%TD*%
D14*
%TO.P,H2,1,1*%
%TO.N,Net-(H2-Pad1)*%
X149000000Y-92000000D03*
%TD*%
D15*
%TO.P,J2,1,Pin_1*%
%TO.N,+6V*%
X169920000Y-90750000D03*
D16*
%TO.P,J2,2,Pin_2*%
%TO.N,-6V5*%
X172460000Y-90750000D03*
%TO.P,J2,3,Pin_3*%
%TO.N,GND*%
X175000000Y-90750000D03*
%TD*%
D14*
%TO.P,H1,1,1*%
%TO.N,Net-(H1-Pad1)*%
X185000000Y-92000000D03*
%TD*%
D17*
%TO.N,GND*%
X185000000Y-128000000D03*
X187000000Y-126000000D03*
X189000000Y-132000000D03*
X177000000Y-144000000D03*
X181000000Y-144000000D03*
X169970000Y-113730000D03*
X155000000Y-136000000D03*
X185000000Y-112000000D03*
X145000000Y-114000000D03*
X189000000Y-128000000D03*
X160000000Y-93000000D03*
X145000000Y-130000000D03*
X149000000Y-134000000D03*
X159000000Y-124000000D03*
X167720000Y-131420000D03*
X164000000Y-97000000D03*
X150830000Y-137100000D03*
X154000000Y-144000000D03*
X160810000Y-91000000D03*
X166000000Y-144000000D03*
X167800000Y-140230000D03*
X179000000Y-130000000D03*
X149000000Y-126000000D03*
X145000000Y-94000000D03*
X145000000Y-118000000D03*
X181000000Y-128000000D03*
X180430000Y-116810000D03*
X149000000Y-110000000D03*
X145000000Y-138000000D03*
X149000000Y-114000000D03*
X177000000Y-140000000D03*
X180470000Y-120130000D03*
X183000000Y-130000000D03*
X164200000Y-115620000D03*
X184040000Y-133690000D03*
X152390000Y-135720000D03*
X166000000Y-95000000D03*
X145000000Y-106000000D03*
X149109040Y-101990087D03*
X158510000Y-89260000D03*
X157000000Y-134000000D03*
X149000000Y-122000000D03*
X160510000Y-107410000D03*
X151000000Y-124000000D03*
X163000000Y-110000000D03*
X187000000Y-118000000D03*
X172870000Y-137710000D03*
X147000000Y-132000000D03*
X147000000Y-120000000D03*
X147000000Y-108000000D03*
X189000000Y-116000000D03*
X189000000Y-88000000D03*
X158000000Y-144000000D03*
X182650000Y-100050000D03*
X157000000Y-130000000D03*
X184130000Y-100980000D03*
X187000000Y-114000000D03*
X161860000Y-117290000D03*
X179000000Y-134000000D03*
X170040000Y-122880000D03*
X163000000Y-124000000D03*
X145000000Y-134000000D03*
X151000000Y-128000000D03*
X172299999Y-99799237D03*
X180730000Y-92940000D03*
X172800000Y-110160000D03*
X145000000Y-122000000D03*
X147000000Y-116000000D03*
X158000000Y-95000000D03*
X147000000Y-124000000D03*
X145000000Y-98000000D03*
X159000000Y-114000000D03*
X165000000Y-112000000D03*
X175000000Y-142000000D03*
X179000000Y-138000000D03*
X187000000Y-130000000D03*
X145000000Y-142000000D03*
X163000000Y-114000000D03*
X173880000Y-117200000D03*
X181000000Y-132000000D03*
X159000000Y-132000000D03*
X186713864Y-99269658D03*
X172430000Y-120710000D03*
X145000000Y-110000000D03*
X155000000Y-128000000D03*
X183000000Y-114000000D03*
X176440000Y-121270000D03*
X157000000Y-122000000D03*
X161000000Y-112000000D03*
X145000000Y-102000000D03*
X147000000Y-112000000D03*
X153000000Y-134000000D03*
X162000000Y-95000000D03*
X167000000Y-110000000D03*
X182164258Y-118396457D03*
X161120000Y-134390000D03*
X189000000Y-120000000D03*
X151000000Y-132000000D03*
X160890000Y-102020000D03*
X182650000Y-134970000D03*
X149170000Y-98310000D03*
X147000000Y-128000000D03*
X176490000Y-115920000D03*
X178060000Y-92880000D03*
X167000000Y-106000000D03*
X155000000Y-124000000D03*
X177200000Y-90690000D03*
X149000000Y-118000000D03*
X147000000Y-136000000D03*
X166000000Y-91000000D03*
X153000000Y-122000000D03*
X179000000Y-142000000D03*
X160000000Y-97000000D03*
X157000000Y-126000000D03*
X169000000Y-108000000D03*
X174860000Y-88540000D03*
X162000000Y-144000000D03*
X145000000Y-88000000D03*
X189000000Y-124000000D03*
X161000000Y-122000000D03*
X155000000Y-132000000D03*
X153000000Y-130000000D03*
X153000000Y-126000000D03*
X165000000Y-108000000D03*
X177000000Y-136000000D03*
X150800000Y-98200000D03*
X164000000Y-89000000D03*
X167640000Y-137410000D03*
X149000000Y-130000000D03*
X188182049Y-100756195D03*
X147000000Y-104000000D03*
X189000000Y-112000000D03*
X145000000Y-126000000D03*
X152920000Y-108990000D03*
X177000000Y-132000000D03*
X156400000Y-101014500D03*
X159000000Y-128000000D03*
X170670000Y-137480000D03*
X161000000Y-126000000D03*
X187000000Y-122000000D03*
X181450000Y-94740000D03*
X164000000Y-93000000D03*
%TO.N,+5VA*%
X169500000Y-131250000D03*
X159350000Y-135950000D03*
X175200000Y-115000000D03*
X175800000Y-114000000D03*
X156400000Y-104800000D03*
X161100000Y-137250000D03*
%TO.N,-5VA*%
X149038330Y-100254995D03*
X175000000Y-93900000D03*
X166000000Y-140250000D03*
X168329999Y-122750000D03*
X173400000Y-95700000D03*
X173500000Y-93900000D03*
%TO.N,+6V*%
X168275000Y-101475000D03*
X175640000Y-103820000D03*
%TO.N,-6V5*%
X186800000Y-105000000D03*
X186600000Y-107800000D03*
%TO.N,/-5V_R*%
X177600000Y-98850000D03*
X186050000Y-96800000D03*
%TO.N,Net-(U1B-+)*%
X157750000Y-103000000D03*
X151000000Y-104000000D03*
%TO.N,/VBIAS_POT*%
X171600000Y-124600000D03*
X179000000Y-125500000D03*
%TO.N,/VBIAS_POT_P*%
X164960000Y-133322500D03*
X170000000Y-140800000D03*
%TO.N,Net-(U3B-+)*%
X168750000Y-115750000D03*
X173750000Y-119750000D03*
%TD*%
D18*
%TO.N,+6V*%
X175610000Y-103790000D02*
X170590000Y-103790000D01*
X175640000Y-103820000D02*
X175610000Y-103790000D01*
X170590000Y-103790000D02*
X168275000Y-101475000D01*
D19*
%TO.N,-6V5*%
X172300000Y-93544365D02*
X172300000Y-96155635D01*
X179254873Y-105000000D02*
X183400000Y-105000000D01*
X175600000Y-99455635D02*
X175600000Y-101345127D01*
X172460000Y-90750000D02*
X172460000Y-93384365D01*
X175600000Y-101345127D02*
X179254873Y-105000000D01*
X172460000Y-93384365D02*
X172300000Y-93544365D01*
X183400000Y-105000000D02*
X186800000Y-105000000D01*
X183400000Y-105000000D02*
X186200000Y-107800000D01*
X172300000Y-96155635D02*
X175600000Y-99455635D01*
X186200000Y-107800000D02*
X186600000Y-107800000D01*
D18*
%TO.N,/-5V_R*%
X177600000Y-98850000D02*
X184000000Y-98850000D01*
X184000000Y-98850000D02*
X186050000Y-96800000D01*
%TO.N,Net-(U1B-+)*%
X154000000Y-103000000D02*
X157750000Y-103000000D01*
X153000000Y-104000000D02*
X154000000Y-103000000D01*
X151000000Y-104000000D02*
X153000000Y-104000000D01*
%TO.N,/VBIAS_POT*%
X171600000Y-124600000D02*
X178100000Y-124600000D01*
X178100000Y-124600000D02*
X179000000Y-125500000D01*
%TO.N,/VBIAS_POT_P*%
X167100000Y-134900000D02*
X167100000Y-134935305D01*
X167100000Y-134935305D02*
X170000000Y-137835305D01*
X170000000Y-137835305D02*
X170000000Y-140200000D01*
X170000000Y-140200000D02*
X170000000Y-140800000D01*
X164960000Y-133322500D02*
X165522500Y-133322500D01*
X165522500Y-133322500D02*
X167100000Y-134900000D01*
%TO.N,Net-(U3B-+)*%
X173750000Y-119750000D02*
X172750000Y-119750000D01*
X172750000Y-119750000D02*
X168750000Y-115750000D01*
%TD*%
%TA.AperFunction,Conductor*%
%TO.N,GND*%
G36*
X189742539Y-87220185D02*
G01*
X189788294Y-87272989D01*
X189799500Y-87324500D01*
X189799500Y-145675500D01*
X189779815Y-145742539D01*
X189727011Y-145788294D01*
X189675500Y-145799500D01*
X144324500Y-145799500D01*
X144257461Y-145779815D01*
X144211706Y-145727011D01*
X144200500Y-145675500D01*
X144200500Y-141000000D01*
X145394559Y-141000000D01*
X145394729Y-141003243D01*
X145404554Y-141190727D01*
X145414310Y-141376871D01*
X145422696Y-141429816D01*
X145472838Y-141746404D01*
X145472840Y-141746417D01*
X145473347Y-141749613D01*
X145474184Y-141752737D01*
X145474186Y-141752746D01*
X145537730Y-141989896D01*
X145571022Y-142114143D01*
X145572179Y-142117158D01*
X145572182Y-142117166D01*
X145682605Y-142404827D01*
X145706266Y-142466465D01*
X145707735Y-142469348D01*
X145707739Y-142469357D01*
X145732524Y-142518000D01*
X145877597Y-142802721D01*
X146083137Y-143119225D01*
X146320635Y-143412511D01*
X146587489Y-143679365D01*
X146880775Y-143916863D01*
X147197279Y-144122403D01*
X147533535Y-144293734D01*
X147885857Y-144428978D01*
X148250387Y-144526653D01*
X148623129Y-144585690D01*
X149000000Y-144605441D01*
X149376871Y-144585690D01*
X149749613Y-144526653D01*
X150114143Y-144428978D01*
X150466465Y-144293734D01*
X150802721Y-144122403D01*
X151119225Y-143916863D01*
X151412511Y-143679365D01*
X151679365Y-143412511D01*
X151916863Y-143119225D01*
X152122403Y-142802721D01*
X152293734Y-142466465D01*
X152428978Y-142114143D01*
X152526653Y-141749613D01*
X152582423Y-141397500D01*
X156084700Y-141397500D01*
X156103860Y-141604275D01*
X156160687Y-141804003D01*
X156253251Y-141989896D01*
X156378391Y-142155609D01*
X156516975Y-142281945D01*
X156531855Y-142295509D01*
X156610263Y-142344057D01*
X156708407Y-142404825D01*
X156708409Y-142404825D01*
X156708411Y-142404827D01*
X156902047Y-142479842D01*
X157106170Y-142518000D01*
X157106172Y-142518000D01*
X157313828Y-142518000D01*
X157313830Y-142518000D01*
X157517953Y-142479842D01*
X157711589Y-142404827D01*
X157888145Y-142295509D01*
X158041607Y-142155610D01*
X158041608Y-142155609D01*
X158166748Y-141989896D01*
X158259312Y-141804003D01*
X158316139Y-141604275D01*
X158316140Y-141604273D01*
X158335300Y-141397500D01*
X158624700Y-141397500D01*
X158643860Y-141604275D01*
X158700687Y-141804003D01*
X158793251Y-141989896D01*
X158918391Y-142155609D01*
X159056975Y-142281945D01*
X159071855Y-142295509D01*
X159150263Y-142344057D01*
X159248407Y-142404825D01*
X159248409Y-142404825D01*
X159248411Y-142404827D01*
X159442047Y-142479842D01*
X159646170Y-142518000D01*
X159646172Y-142518000D01*
X159853828Y-142518000D01*
X159853830Y-142518000D01*
X160057953Y-142479842D01*
X160251589Y-142404827D01*
X160428145Y-142295509D01*
X160581607Y-142155610D01*
X160581608Y-142155609D01*
X160706748Y-141989896D01*
X160799312Y-141804003D01*
X160856139Y-141604275D01*
X160856140Y-141604273D01*
X160875300Y-141397500D01*
X161164700Y-141397500D01*
X161183860Y-141604275D01*
X161240687Y-141804003D01*
X161333251Y-141989896D01*
X161458391Y-142155609D01*
X161596975Y-142281944D01*
X161611855Y-142295509D01*
X161690263Y-142344057D01*
X161788407Y-142404825D01*
X161788409Y-142404825D01*
X161788411Y-142404827D01*
X161982047Y-142479842D01*
X162186170Y-142518000D01*
X162186172Y-142518000D01*
X162393828Y-142518000D01*
X162393830Y-142518000D01*
X162597953Y-142479842D01*
X162791589Y-142404827D01*
X162968145Y-142295509D01*
X163121607Y-142155610D01*
X163121608Y-142155609D01*
X163246748Y-141989896D01*
X163339312Y-141804003D01*
X163396139Y-141604275D01*
X163396140Y-141604273D01*
X163415300Y-141397500D01*
X163396140Y-141190727D01*
X163357683Y-141055565D01*
X163339312Y-140990996D01*
X163246748Y-140805103D01*
X163121608Y-140639390D01*
X162968145Y-140499491D01*
X162791592Y-140390174D01*
X162597953Y-140315158D01*
X162597952Y-140315158D01*
X162393830Y-140277000D01*
X162186170Y-140277000D01*
X162075250Y-140297735D01*
X161982046Y-140315158D01*
X161788407Y-140390174D01*
X161611854Y-140499491D01*
X161458391Y-140639390D01*
X161333251Y-140805103D01*
X161240687Y-140990996D01*
X161183860Y-141190724D01*
X161164700Y-141397500D01*
X160875300Y-141397500D01*
X160856140Y-141190727D01*
X160817683Y-141055565D01*
X160799312Y-140990996D01*
X160706748Y-140805103D01*
X160581608Y-140639390D01*
X160428145Y-140499491D01*
X160251592Y-140390174D01*
X160057953Y-140315158D01*
X159853830Y-140277000D01*
X159646170Y-140277000D01*
X159535250Y-140297735D01*
X159442046Y-140315158D01*
X159248407Y-140390174D01*
X159071854Y-140499491D01*
X158918391Y-140639390D01*
X158793251Y-140805103D01*
X158700687Y-140990996D01*
X158643860Y-141190724D01*
X158624700Y-141397500D01*
X158335300Y-141397500D01*
X158316140Y-141190727D01*
X158277683Y-141055565D01*
X158259312Y-140990996D01*
X158166748Y-140805103D01*
X158041608Y-140639390D01*
X157888145Y-140499491D01*
X157711592Y-140390174D01*
X157517953Y-140315158D01*
X157517952Y-140315158D01*
X157313830Y-140277000D01*
X157106170Y-140277000D01*
X156995250Y-140297735D01*
X156902046Y-140315158D01*
X156708407Y-140390174D01*
X156531854Y-140499491D01*
X156378391Y-140639390D01*
X156253251Y-140805103D01*
X156160687Y-140990996D01*
X156103860Y-141190724D01*
X156084700Y-141397500D01*
X152582423Y-141397500D01*
X152585690Y-141376871D01*
X152605441Y-141000000D01*
X152585690Y-140623129D01*
X152526653Y-140250387D01*
X152526549Y-140250000D01*
X165194434Y-140250000D01*
X165214631Y-140429251D01*
X165214631Y-140429253D01*
X165214632Y-140429255D01*
X165274211Y-140599522D01*
X165291078Y-140626366D01*
X165370185Y-140752264D01*
X165497735Y-140879814D01*
X165497737Y-140879815D01*
X165497738Y-140879816D01*
X165650478Y-140975789D01*
X165820745Y-141035368D01*
X166000000Y-141055565D01*
X166179255Y-141035368D01*
X166349522Y-140975789D01*
X166502262Y-140879816D01*
X166629816Y-140752262D01*
X166725789Y-140599522D01*
X166785368Y-140429255D01*
X166805565Y-140250000D01*
X166785368Y-140070745D01*
X166725789Y-139900478D01*
X166629816Y-139747738D01*
X166629815Y-139747737D01*
X166629814Y-139747735D01*
X166502264Y-139620185D01*
X166439867Y-139580979D01*
X166349522Y-139524211D01*
X166179255Y-139464632D01*
X166179253Y-139464631D01*
X166179251Y-139464631D01*
X166000000Y-139444434D01*
X165820748Y-139464631D01*
X165820745Y-139464631D01*
X165820745Y-139464632D01*
X165650478Y-139524211D01*
X165650476Y-139524211D01*
X165650476Y-139524212D01*
X165497735Y-139620185D01*
X165370185Y-139747735D01*
X165274212Y-139900476D01*
X165214631Y-140070748D01*
X165194434Y-140250000D01*
X152526549Y-140250000D01*
X152428978Y-139885857D01*
X152293734Y-139533535D01*
X152122403Y-139197280D01*
X151916863Y-138880775D01*
X151679365Y-138587489D01*
X151412511Y-138320635D01*
X151119225Y-138083137D01*
X150802721Y-137877597D01*
X150799833Y-137876125D01*
X150799827Y-137876122D01*
X150469357Y-137707739D01*
X150469348Y-137707735D01*
X150466465Y-137706266D01*
X150463433Y-137705102D01*
X150117166Y-137572182D01*
X150117158Y-137572179D01*
X150114143Y-137571022D01*
X150111018Y-137570184D01*
X150111013Y-137570183D01*
X149752746Y-137474186D01*
X149752737Y-137474184D01*
X149749613Y-137473347D01*
X149746417Y-137472840D01*
X149746404Y-137472838D01*
X149380076Y-137414817D01*
X149380064Y-137414815D01*
X149376871Y-137414310D01*
X149373638Y-137414140D01*
X149373633Y-137414140D01*
X149003244Y-137394729D01*
X149000000Y-137394559D01*
X148996756Y-137394729D01*
X148626366Y-137414140D01*
X148626359Y-137414140D01*
X148623129Y-137414310D01*
X148619937Y-137414815D01*
X148619923Y-137414817D01*
X148253595Y-137472838D01*
X148253578Y-137472841D01*
X148250387Y-137473347D01*
X148247266Y-137474183D01*
X148247253Y-137474186D01*
X147888986Y-137570183D01*
X147888975Y-137570186D01*
X147885857Y-137571022D01*
X147882846Y-137572177D01*
X147882833Y-137572182D01*
X147536566Y-137705102D01*
X147536557Y-137705105D01*
X147533535Y-137706266D01*
X147530658Y-137707731D01*
X147530642Y-137707739D01*
X147200173Y-137876122D01*
X147200159Y-137876129D01*
X147197280Y-137877597D01*
X147194560Y-137879363D01*
X147194552Y-137879368D01*
X146883503Y-138081365D01*
X146883497Y-138081368D01*
X146880775Y-138083137D01*
X146878255Y-138085177D01*
X146878249Y-138085182D01*
X146590007Y-138318595D01*
X146589996Y-138318604D01*
X146587489Y-138320635D01*
X146585204Y-138322919D01*
X146585194Y-138322929D01*
X146322929Y-138585194D01*
X146322919Y-138585204D01*
X146320635Y-138587489D01*
X146318604Y-138589996D01*
X146318595Y-138590007D01*
X146085182Y-138878249D01*
X146085177Y-138878255D01*
X146083137Y-138880775D01*
X146081368Y-138883497D01*
X146081365Y-138883503D01*
X145879368Y-139194552D01*
X145879363Y-139194560D01*
X145877597Y-139197280D01*
X145876129Y-139200159D01*
X145876122Y-139200173D01*
X145707739Y-139530642D01*
X145707731Y-139530658D01*
X145706266Y-139533535D01*
X145705105Y-139536557D01*
X145705102Y-139536566D01*
X145572182Y-139882833D01*
X145572177Y-139882846D01*
X145571022Y-139885857D01*
X145570186Y-139888975D01*
X145570183Y-139888986D01*
X145474186Y-140247253D01*
X145474183Y-140247266D01*
X145473347Y-140250387D01*
X145472841Y-140253578D01*
X145472838Y-140253595D01*
X145414817Y-140619923D01*
X145414815Y-140619937D01*
X145414310Y-140623129D01*
X145414140Y-140626359D01*
X145414140Y-140626366D01*
X145395828Y-140975787D01*
X145394559Y-141000000D01*
X144200500Y-141000000D01*
X144200500Y-137250000D01*
X160294434Y-137250000D01*
X160314631Y-137429251D01*
X160314631Y-137429253D01*
X160314632Y-137429255D01*
X160374211Y-137599522D01*
X160400091Y-137640710D01*
X160470185Y-137752264D01*
X160597735Y-137879814D01*
X160597737Y-137879815D01*
X160597738Y-137879816D01*
X160750478Y-137975789D01*
X160920745Y-138035368D01*
X161055186Y-138050515D01*
X161099999Y-138055565D01*
X161099999Y-138055564D01*
X161100000Y-138055565D01*
X161279255Y-138035368D01*
X161449522Y-137975789D01*
X161602262Y-137879816D01*
X161729816Y-137752262D01*
X161825789Y-137599522D01*
X161885368Y-137429255D01*
X161905565Y-137250000D01*
X161885368Y-137070745D01*
X161825789Y-136900478D01*
X161729816Y-136747738D01*
X161729815Y-136747737D01*
X161729814Y-136747735D01*
X161602264Y-136620185D01*
X161538014Y-136579814D01*
X161449522Y-136524211D01*
X161279255Y-136464632D01*
X161279253Y-136464631D01*
X161279251Y-136464631D01*
X161100000Y-136444434D01*
X160920748Y-136464631D01*
X160920745Y-136464631D01*
X160920745Y-136464632D01*
X160750478Y-136524211D01*
X160750476Y-136524211D01*
X160750476Y-136524212D01*
X160597735Y-136620185D01*
X160470185Y-136747735D01*
X160374212Y-136900476D01*
X160314631Y-137070748D01*
X160294434Y-137250000D01*
X144200500Y-137250000D01*
X144200500Y-135950000D01*
X158544434Y-135950000D01*
X158564631Y-136129251D01*
X158564631Y-136129253D01*
X158564632Y-136129255D01*
X158624211Y-136299522D01*
X158624212Y-136299523D01*
X158720185Y-136452264D01*
X158847735Y-136579814D01*
X158847737Y-136579815D01*
X158847738Y-136579816D01*
X159000478Y-136675789D01*
X159170745Y-136735368D01*
X159350000Y-136755565D01*
X159529255Y-136735368D01*
X159699522Y-136675789D01*
X159852262Y-136579816D01*
X159979816Y-136452262D01*
X160075789Y-136299522D01*
X160135368Y-136129255D01*
X160155565Y-135950000D01*
X160135368Y-135770745D01*
X160075789Y-135600478D01*
X159979816Y-135447738D01*
X159979815Y-135447737D01*
X159979814Y-135447735D01*
X159852264Y-135320185D01*
X159789867Y-135280979D01*
X159699522Y-135224211D01*
X159529255Y-135164632D01*
X159529253Y-135164631D01*
X159529251Y-135164631D01*
X159350000Y-135144434D01*
X159170748Y-135164631D01*
X159170745Y-135164631D01*
X159170745Y-135164632D01*
X159000478Y-135224211D01*
X159000476Y-135224211D01*
X159000476Y-135224212D01*
X158847735Y-135320185D01*
X158720185Y-135447735D01*
X158624212Y-135600476D01*
X158564631Y-135770748D01*
X158544434Y-135950000D01*
X144200500Y-135950000D01*
X144200500Y-133322500D01*
X164154434Y-133322500D01*
X164174631Y-133501751D01*
X164174631Y-133501753D01*
X164174632Y-133501755D01*
X164234211Y-133672022D01*
X164234212Y-133672023D01*
X164330185Y-133824764D01*
X164457735Y-133952314D01*
X164457737Y-133952315D01*
X164457738Y-133952316D01*
X164610478Y-134048289D01*
X164780745Y-134107868D01*
X164960000Y-134128065D01*
X165139255Y-134107868D01*
X165309522Y-134048289D01*
X165345912Y-134025423D01*
X165413146Y-134006422D01*
X165479982Y-134026788D01*
X165499565Y-134042735D01*
X166614017Y-135157186D01*
X166640070Y-135195465D01*
X166646779Y-135210911D01*
X166646780Y-135210912D01*
X166646781Y-135210914D01*
X166657287Y-135223828D01*
X166669183Y-135241307D01*
X166677341Y-135255817D01*
X166704869Y-135283344D01*
X166713377Y-135292771D01*
X166737943Y-135322967D01*
X166737944Y-135322967D01*
X166737946Y-135322970D01*
X166751550Y-135332573D01*
X166767715Y-135346190D01*
X169438181Y-138016655D01*
X169471666Y-138077978D01*
X169474500Y-138104336D01*
X169474500Y-140142059D01*
X169454815Y-140209098D01*
X169438181Y-140229740D01*
X169370185Y-140297735D01*
X169274212Y-140450476D01*
X169214631Y-140620748D01*
X169194434Y-140800000D01*
X169214631Y-140979251D01*
X169214631Y-140979253D01*
X169214632Y-140979255D01*
X169274211Y-141149522D01*
X169274212Y-141149523D01*
X169370185Y-141302264D01*
X169497735Y-141429814D01*
X169497737Y-141429815D01*
X169497738Y-141429816D01*
X169650478Y-141525789D01*
X169820745Y-141585368D01*
X170000000Y-141605565D01*
X170179255Y-141585368D01*
X170349522Y-141525789D01*
X170502262Y-141429816D01*
X170629816Y-141302262D01*
X170725789Y-141149522D01*
X170778109Y-141000000D01*
X181394559Y-141000000D01*
X181394729Y-141003243D01*
X181404554Y-141190727D01*
X181414310Y-141376871D01*
X181422696Y-141429816D01*
X181472838Y-141746404D01*
X181472840Y-141746417D01*
X181473347Y-141749613D01*
X181474184Y-141752737D01*
X181474186Y-141752746D01*
X181537730Y-141989896D01*
X181571022Y-142114143D01*
X181572179Y-142117158D01*
X181572182Y-142117166D01*
X181682605Y-142404827D01*
X181706266Y-142466465D01*
X181707735Y-142469348D01*
X181707739Y-142469357D01*
X181732524Y-142518000D01*
X181877597Y-142802721D01*
X182083137Y-143119225D01*
X182320635Y-143412511D01*
X182587489Y-143679365D01*
X182880775Y-143916863D01*
X183197279Y-144122403D01*
X183533535Y-144293734D01*
X183885857Y-144428978D01*
X184250387Y-144526653D01*
X184623129Y-144585690D01*
X185000000Y-144605441D01*
X185376871Y-144585690D01*
X185749613Y-144526653D01*
X186114143Y-144428978D01*
X186466465Y-144293734D01*
X186802721Y-144122403D01*
X187119225Y-143916863D01*
X187412511Y-143679365D01*
X187679365Y-143412511D01*
X187916863Y-143119225D01*
X188122403Y-142802721D01*
X188293734Y-142466465D01*
X188428978Y-142114143D01*
X188526653Y-141749613D01*
X188585690Y-141376871D01*
X188605441Y-141000000D01*
X188585690Y-140623129D01*
X188526653Y-140250387D01*
X188428978Y-139885857D01*
X188293734Y-139533535D01*
X188122403Y-139197280D01*
X187916863Y-138880775D01*
X187679365Y-138587489D01*
X187412511Y-138320635D01*
X187119225Y-138083137D01*
X186802721Y-137877597D01*
X186799833Y-137876125D01*
X186799827Y-137876122D01*
X186469357Y-137707739D01*
X186469348Y-137707735D01*
X186466465Y-137706266D01*
X186463433Y-137705102D01*
X186117166Y-137572182D01*
X186117158Y-137572179D01*
X186114143Y-137571022D01*
X186111018Y-137570184D01*
X186111013Y-137570183D01*
X185752746Y-137474186D01*
X185752737Y-137474184D01*
X185749613Y-137473347D01*
X185746417Y-137472840D01*
X185746404Y-137472838D01*
X185380076Y-137414817D01*
X185380064Y-137414815D01*
X185376871Y-137414310D01*
X185373638Y-137414140D01*
X185373633Y-137414140D01*
X185003244Y-137394729D01*
X185000000Y-137394559D01*
X184996756Y-137394729D01*
X184626366Y-137414140D01*
X184626359Y-137414140D01*
X184623129Y-137414310D01*
X184619937Y-137414815D01*
X184619923Y-137414817D01*
X184253595Y-137472838D01*
X184253578Y-137472841D01*
X184250387Y-137473347D01*
X184247266Y-137474183D01*
X184247253Y-137474186D01*
X183888986Y-137570183D01*
X183888975Y-137570186D01*
X183885857Y-137571022D01*
X183882846Y-137572177D01*
X183882833Y-137572182D01*
X183536566Y-137705102D01*
X183536557Y-137705105D01*
X183533535Y-137706266D01*
X183530658Y-137707731D01*
X183530642Y-137707739D01*
X183200173Y-137876122D01*
X183200159Y-137876129D01*
X183197280Y-137877597D01*
X183194560Y-137879363D01*
X183194552Y-137879368D01*
X182883503Y-138081365D01*
X182883497Y-138081368D01*
X182880775Y-138083137D01*
X182878255Y-138085177D01*
X182878249Y-138085182D01*
X182590007Y-138318595D01*
X182589996Y-138318604D01*
X182587489Y-138320635D01*
X182585204Y-138322919D01*
X182585194Y-138322929D01*
X182322929Y-138585194D01*
X182322919Y-138585204D01*
X182320635Y-138587489D01*
X182318604Y-138589996D01*
X182318595Y-138590007D01*
X182085182Y-138878249D01*
X182085177Y-138878255D01*
X182083137Y-138880775D01*
X182081368Y-138883497D01*
X182081365Y-138883503D01*
X181879368Y-139194552D01*
X181879363Y-139194560D01*
X181877597Y-139197280D01*
X181876129Y-139200159D01*
X181876122Y-139200173D01*
X181707739Y-139530642D01*
X181707731Y-139530658D01*
X181706266Y-139533535D01*
X181705105Y-139536557D01*
X181705102Y-139536566D01*
X181572182Y-139882833D01*
X181572177Y-139882846D01*
X181571022Y-139885857D01*
X181570186Y-139888975D01*
X181570183Y-139888986D01*
X181474186Y-140247253D01*
X181474183Y-140247266D01*
X181473347Y-140250387D01*
X181472841Y-140253578D01*
X181472838Y-140253595D01*
X181414817Y-140619923D01*
X181414815Y-140619937D01*
X181414310Y-140623129D01*
X181414140Y-140626359D01*
X181414140Y-140626366D01*
X181395828Y-140975787D01*
X181394559Y-141000000D01*
X170778109Y-141000000D01*
X170785368Y-140979255D01*
X170805565Y-140800000D01*
X170785368Y-140620745D01*
X170725789Y-140450478D01*
X170629816Y-140297738D01*
X170609078Y-140277000D01*
X170561818Y-140229739D01*
X170528334Y-140168415D01*
X170525500Y-140142058D01*
X170525500Y-137846414D01*
X170525572Y-137842180D01*
X170527660Y-137781060D01*
X170520642Y-137752262D01*
X170518440Y-137743230D01*
X170516072Y-137730764D01*
X170512907Y-137707739D01*
X170510771Y-137692194D01*
X170504137Y-137676922D01*
X170497396Y-137656875D01*
X170493457Y-137640711D01*
X170493457Y-137640710D01*
X170474374Y-137606772D01*
X170468733Y-137595413D01*
X170453219Y-137559696D01*
X170442706Y-137546774D01*
X170430813Y-137529299D01*
X170422657Y-137514793D01*
X170395133Y-137487269D01*
X170386626Y-137477843D01*
X170362053Y-137447639D01*
X170348450Y-137438037D01*
X170332278Y-137424414D01*
X167585982Y-134678118D01*
X167559929Y-134639839D01*
X167553219Y-134624391D01*
X167542711Y-134611475D01*
X167530813Y-134593993D01*
X167522658Y-134579488D01*
X167495128Y-134551958D01*
X167486620Y-134542531D01*
X167462053Y-134512334D01*
X167448452Y-134502733D01*
X167432281Y-134489111D01*
X165901941Y-132958772D01*
X165898998Y-132955727D01*
X165857253Y-132911029D01*
X165823988Y-132890800D01*
X165813492Y-132883657D01*
X165782475Y-132860136D01*
X165782473Y-132860135D01*
X165766988Y-132854028D01*
X165748056Y-132844625D01*
X165733827Y-132835973D01*
X165696343Y-132825470D01*
X165684310Y-132821424D01*
X165648086Y-132807139D01*
X165631521Y-132805436D01*
X165610754Y-132801490D01*
X165594728Y-132797000D01*
X165594727Y-132797000D01*
X165586889Y-132794804D01*
X165532661Y-132763083D01*
X165462262Y-132692684D01*
X165309522Y-132596711D01*
X165139255Y-132537132D01*
X165139253Y-132537131D01*
X165139251Y-132537131D01*
X164960000Y-132516934D01*
X164780748Y-132537131D01*
X164780745Y-132537131D01*
X164780745Y-132537132D01*
X164610478Y-132596711D01*
X164610476Y-132596711D01*
X164610476Y-132596712D01*
X164457735Y-132692685D01*
X164330185Y-132820235D01*
X164234212Y-132972976D01*
X164174631Y-133143248D01*
X164154434Y-133322500D01*
X144200500Y-133322500D01*
X144200500Y-131250000D01*
X168694434Y-131250000D01*
X168714631Y-131429251D01*
X168714631Y-131429253D01*
X168714632Y-131429255D01*
X168774211Y-131599522D01*
X168774212Y-131599523D01*
X168870185Y-131752264D01*
X168997735Y-131879814D01*
X168997737Y-131879815D01*
X168997738Y-131879816D01*
X169150478Y-131975789D01*
X169320745Y-132035368D01*
X169455186Y-132050515D01*
X169499999Y-132055565D01*
X169499999Y-132055564D01*
X169500000Y-132055565D01*
X169679255Y-132035368D01*
X169849522Y-131975789D01*
X170002262Y-131879816D01*
X170129816Y-131752262D01*
X170225789Y-131599522D01*
X170285368Y-131429255D01*
X170305565Y-131250000D01*
X170285368Y-131070745D01*
X170225789Y-130900478D01*
X170129816Y-130747738D01*
X170129815Y-130747737D01*
X170129814Y-130747735D01*
X170002264Y-130620185D01*
X169939867Y-130580978D01*
X169849522Y-130524211D01*
X169679255Y-130464632D01*
X169679253Y-130464631D01*
X169679251Y-130464631D01*
X169500000Y-130444434D01*
X169320748Y-130464631D01*
X169320745Y-130464631D01*
X169320745Y-130464632D01*
X169150478Y-130524211D01*
X169150476Y-130524211D01*
X169150476Y-130524212D01*
X168997735Y-130620185D01*
X168870185Y-130747735D01*
X168774212Y-130900476D01*
X168714631Y-131070748D01*
X168694434Y-131250000D01*
X144200500Y-131250000D01*
X144200500Y-128712067D01*
X162649500Y-128712067D01*
X162664892Y-128897821D01*
X162725937Y-129138881D01*
X162739417Y-129169612D01*
X162825825Y-129366604D01*
X162825827Y-129366607D01*
X162961836Y-129574785D01*
X163130256Y-129757738D01*
X163130259Y-129757740D01*
X163326485Y-129910470D01*
X163326487Y-129910471D01*
X163326491Y-129910474D01*
X163545190Y-130028828D01*
X163780386Y-130109571D01*
X164025665Y-130150500D01*
X164274335Y-130150500D01*
X164519614Y-130109571D01*
X164754810Y-130028828D01*
X164973509Y-129910474D01*
X165169744Y-129757738D01*
X165338164Y-129574785D01*
X165405094Y-129472339D01*
X165458240Y-129426983D01*
X165527472Y-129417559D01*
X165574178Y-129434733D01*
X165734981Y-129534298D01*
X165933802Y-129611321D01*
X166143390Y-129650500D01*
X166143392Y-129650500D01*
X166356608Y-129650500D01*
X166356610Y-129650500D01*
X166566198Y-129611321D01*
X166765019Y-129534298D01*
X166946302Y-129422052D01*
X167103872Y-129278407D01*
X167151046Y-129215938D01*
X167207155Y-129174303D01*
X167276867Y-129169612D01*
X167338049Y-129203354D01*
X167348953Y-129215938D01*
X167396128Y-129278407D01*
X167553698Y-129422052D01*
X167734981Y-129534298D01*
X167933802Y-129611321D01*
X168143390Y-129650500D01*
X168143392Y-129650500D01*
X168356608Y-129650500D01*
X168356610Y-129650500D01*
X168566198Y-129611321D01*
X168765019Y-129534298D01*
X168946302Y-129422052D01*
X168957128Y-129412182D01*
X169019928Y-129381565D01*
X169089316Y-129389760D01*
X169143258Y-129434168D01*
X169151152Y-129447524D01*
X169171949Y-129488342D01*
X169261656Y-129578049D01*
X169261658Y-129578050D01*
X169374696Y-129635646D01*
X169468481Y-129650500D01*
X171031518Y-129650499D01*
X171125304Y-129635646D01*
X171125306Y-129635644D01*
X171140459Y-129633245D01*
X171209753Y-129642201D01*
X171251085Y-129671735D01*
X171330256Y-129757738D01*
X171330259Y-129757740D01*
X171526485Y-129910470D01*
X171526487Y-129910471D01*
X171526491Y-129910474D01*
X171745190Y-130028828D01*
X171980386Y-130109571D01*
X172225665Y-130150500D01*
X172474335Y-130150500D01*
X172719614Y-130109571D01*
X172954810Y-130028828D01*
X173173509Y-129910474D01*
X173369744Y-129757738D01*
X173538164Y-129574785D01*
X173674173Y-129366607D01*
X173774063Y-129138881D01*
X173835108Y-128897821D01*
X173850500Y-128712067D01*
X173850500Y-127287933D01*
X173835108Y-127102179D01*
X173774063Y-126861119D01*
X173674173Y-126633393D01*
X173538164Y-126425215D01*
X173369744Y-126242262D01*
X173225274Y-126129816D01*
X173173514Y-126089529D01*
X173173510Y-126089526D01*
X173173509Y-126089526D01*
X172954810Y-125971172D01*
X172954806Y-125971170D01*
X172954805Y-125971170D01*
X172719615Y-125890429D01*
X172474335Y-125849500D01*
X172225665Y-125849500D01*
X171980384Y-125890429D01*
X171745194Y-125971170D01*
X171526485Y-126089529D01*
X171330258Y-126242259D01*
X171251084Y-126328264D01*
X171191196Y-126364254D01*
X171140458Y-126366753D01*
X171031522Y-126349500D01*
X169468485Y-126349500D01*
X169421589Y-126356927D01*
X169374696Y-126364354D01*
X169374694Y-126364354D01*
X169374693Y-126364355D01*
X169261657Y-126421949D01*
X169171949Y-126511657D01*
X169151151Y-126552476D01*
X169103177Y-126603271D01*
X169035356Y-126620066D01*
X168969221Y-126597528D01*
X168957131Y-126587819D01*
X168946304Y-126577950D01*
X168946302Y-126577948D01*
X168765019Y-126465702D01*
X168765017Y-126465701D01*
X168566198Y-126388679D01*
X168566198Y-126388678D01*
X168356610Y-126349500D01*
X168143390Y-126349500D01*
X168003664Y-126375619D01*
X167933801Y-126388679D01*
X167734982Y-126465701D01*
X167553698Y-126577947D01*
X167396125Y-126721595D01*
X167348953Y-126784061D01*
X167292844Y-126825696D01*
X167223132Y-126830387D01*
X167161950Y-126796644D01*
X167151047Y-126784061D01*
X167103874Y-126721595D01*
X166946301Y-126577947D01*
X166765017Y-126465701D01*
X166566198Y-126388679D01*
X166566197Y-126388678D01*
X166356610Y-126349500D01*
X166143390Y-126349500D01*
X166003664Y-126375619D01*
X165933801Y-126388679D01*
X165734979Y-126465702D01*
X165574180Y-126565265D01*
X165506820Y-126583820D01*
X165440120Y-126563012D01*
X165405094Y-126527660D01*
X165338164Y-126425215D01*
X165169744Y-126242262D01*
X165025274Y-126129816D01*
X164973514Y-126089529D01*
X164973510Y-126089526D01*
X164973509Y-126089526D01*
X164754810Y-125971172D01*
X164754806Y-125971170D01*
X164754805Y-125971170D01*
X164519615Y-125890429D01*
X164274335Y-125849500D01*
X164025665Y-125849500D01*
X163780384Y-125890429D01*
X163545194Y-125971170D01*
X163326485Y-126089529D01*
X163130259Y-126242259D01*
X163130256Y-126242261D01*
X163130256Y-126242262D01*
X163017862Y-126364355D01*
X162961837Y-126425214D01*
X162825825Y-126633395D01*
X162759738Y-126784061D01*
X162725937Y-126861119D01*
X162695810Y-126980087D01*
X162664892Y-127102177D01*
X162664891Y-127102179D01*
X162664892Y-127102179D01*
X162649500Y-127287933D01*
X162649500Y-128712067D01*
X144200500Y-128712067D01*
X144200500Y-124600000D01*
X170794434Y-124600000D01*
X170814631Y-124779251D01*
X170814631Y-124779253D01*
X170814632Y-124779255D01*
X170874211Y-124949522D01*
X170874212Y-124949523D01*
X170970185Y-125102264D01*
X171097735Y-125229814D01*
X171097737Y-125229815D01*
X171097738Y-125229816D01*
X171250478Y-125325789D01*
X171420745Y-125385368D01*
X171600000Y-125405565D01*
X171779255Y-125385368D01*
X171949522Y-125325789D01*
X172102262Y-125229816D01*
X172170260Y-125161817D01*
X172231581Y-125128334D01*
X172257940Y-125125500D01*
X177830968Y-125125500D01*
X177898007Y-125145185D01*
X177918649Y-125161819D01*
X178158527Y-125401696D01*
X178192012Y-125463019D01*
X178193459Y-125491351D01*
X178214631Y-125679251D01*
X178214631Y-125679253D01*
X178214632Y-125679255D01*
X178274211Y-125849522D01*
X178274212Y-125849523D01*
X178370185Y-126002264D01*
X178497735Y-126129814D01*
X178497737Y-126129815D01*
X178497738Y-126129816D01*
X178650478Y-126225789D01*
X178820745Y-126285368D01*
X179000000Y-126305565D01*
X179179255Y-126285368D01*
X179349522Y-126225789D01*
X179502262Y-126129816D01*
X179629816Y-126002262D01*
X179725789Y-125849522D01*
X179785368Y-125679255D01*
X179805565Y-125500000D01*
X179785368Y-125320745D01*
X179725789Y-125150478D01*
X179629816Y-124997738D01*
X179629815Y-124997737D01*
X179629814Y-124997735D01*
X179502264Y-124870185D01*
X179357543Y-124779251D01*
X179349522Y-124774211D01*
X179179255Y-124714632D01*
X179179253Y-124714631D01*
X179179251Y-124714631D01*
X178986116Y-124692870D01*
X178986315Y-124691100D01*
X178934429Y-124682007D01*
X178901696Y-124658527D01*
X178479441Y-124236272D01*
X178476498Y-124233227D01*
X178434753Y-124188529D01*
X178401488Y-124168300D01*
X178390992Y-124161157D01*
X178359975Y-124137636D01*
X178359973Y-124137635D01*
X178344488Y-124131528D01*
X178325556Y-124122125D01*
X178311327Y-124113473D01*
X178273843Y-124102970D01*
X178261810Y-124098924D01*
X178225586Y-124084639D01*
X178209021Y-124082936D01*
X178188255Y-124078990D01*
X178172228Y-124074500D01*
X178133296Y-124074500D01*
X178120616Y-124073850D01*
X178117031Y-124073481D01*
X178081890Y-124069868D01*
X178066842Y-124072463D01*
X178065486Y-124072697D01*
X178044419Y-124074500D01*
X172257940Y-124074500D01*
X172190901Y-124054815D01*
X172170263Y-124038185D01*
X172102262Y-123970184D01*
X171949522Y-123874211D01*
X171779255Y-123814632D01*
X171779253Y-123814631D01*
X171779251Y-123814631D01*
X171600000Y-123794434D01*
X171420748Y-123814631D01*
X171420745Y-123814631D01*
X171420745Y-123814632D01*
X171250478Y-123874211D01*
X171250476Y-123874211D01*
X171250476Y-123874212D01*
X171097735Y-123970185D01*
X170970185Y-124097735D01*
X170874212Y-124250476D01*
X170814631Y-124420748D01*
X170794434Y-124600000D01*
X144200500Y-124600000D01*
X144200500Y-122750000D01*
X167524433Y-122750000D01*
X167544630Y-122929251D01*
X167544630Y-122929253D01*
X167544631Y-122929255D01*
X167604210Y-123099522D01*
X167604211Y-123099523D01*
X167700184Y-123252264D01*
X167827734Y-123379814D01*
X167827736Y-123379815D01*
X167827737Y-123379816D01*
X167980477Y-123475789D01*
X168150744Y-123535368D01*
X168329999Y-123555565D01*
X168509254Y-123535368D01*
X168679521Y-123475789D01*
X168832261Y-123379816D01*
X168959815Y-123252262D01*
X169055788Y-123099522D01*
X169115367Y-122929255D01*
X169135564Y-122750000D01*
X169115367Y-122570745D01*
X169055788Y-122400478D01*
X168959815Y-122247738D01*
X168959814Y-122247737D01*
X168959813Y-122247735D01*
X168832263Y-122120185D01*
X168752642Y-122070156D01*
X168679521Y-122024211D01*
X168509254Y-121964632D01*
X168509252Y-121964631D01*
X168509250Y-121964631D01*
X168329999Y-121944434D01*
X168150747Y-121964631D01*
X168150744Y-121964631D01*
X168150744Y-121964632D01*
X167980477Y-122024211D01*
X167980475Y-122024211D01*
X167980475Y-122024212D01*
X167827734Y-122120185D01*
X167700184Y-122247735D01*
X167604211Y-122400476D01*
X167604210Y-122400478D01*
X167544631Y-122570745D01*
X167544630Y-122570748D01*
X167524433Y-122750000D01*
X144200500Y-122750000D01*
X144200500Y-118580000D01*
X150374700Y-118580000D01*
X150393860Y-118786775D01*
X150450687Y-118986503D01*
X150543251Y-119172396D01*
X150668391Y-119338109D01*
X150736805Y-119400476D01*
X150821855Y-119478009D01*
X150892941Y-119522023D01*
X150998407Y-119587325D01*
X150998409Y-119587325D01*
X150998411Y-119587327D01*
X151192047Y-119662342D01*
X151396170Y-119700500D01*
X151396172Y-119700500D01*
X151603828Y-119700500D01*
X151603830Y-119700500D01*
X151807953Y-119662342D01*
X152001589Y-119587327D01*
X152178145Y-119478009D01*
X152331607Y-119338110D01*
X152352330Y-119310668D01*
X152456748Y-119172396D01*
X152549312Y-118986503D01*
X152606139Y-118786775D01*
X152606140Y-118786773D01*
X152625300Y-118580000D01*
X152606140Y-118373227D01*
X152581988Y-118288342D01*
X152549312Y-118173496D01*
X152456748Y-117987603D01*
X152331608Y-117821890D01*
X152178145Y-117681991D01*
X152001592Y-117572674D01*
X151807953Y-117497658D01*
X151603830Y-117459500D01*
X151396170Y-117459500D01*
X151260087Y-117484938D01*
X151192046Y-117497658D01*
X150998407Y-117572674D01*
X150821854Y-117681991D01*
X150668391Y-117821890D01*
X150543251Y-117987603D01*
X150450687Y-118173496D01*
X150393860Y-118373224D01*
X150374700Y-118580000D01*
X144200500Y-118580000D01*
X144200500Y-116040000D01*
X152914700Y-116040000D01*
X152933860Y-116246775D01*
X152990687Y-116446503D01*
X153083251Y-116632396D01*
X153208391Y-116798109D01*
X153346975Y-116924445D01*
X153361855Y-116938009D01*
X153440263Y-116986557D01*
X153538407Y-117047325D01*
X153538409Y-117047325D01*
X153538411Y-117047327D01*
X153732047Y-117122342D01*
X153936170Y-117160500D01*
X153936172Y-117160500D01*
X154143828Y-117160500D01*
X154143830Y-117160500D01*
X154347953Y-117122342D01*
X154541589Y-117047327D01*
X154718145Y-116938009D01*
X154871607Y-116798110D01*
X154871608Y-116798109D01*
X154996748Y-116632396D01*
X155089312Y-116446503D01*
X155125738Y-116318478D01*
X155146140Y-116246773D01*
X155165300Y-116040000D01*
X155146140Y-115833227D01*
X155122460Y-115750000D01*
X167944434Y-115750000D01*
X167964631Y-115929251D01*
X167964631Y-115929253D01*
X167964632Y-115929255D01*
X168024211Y-116099522D01*
X168031836Y-116111657D01*
X168120185Y-116252264D01*
X168247735Y-116379814D01*
X168247737Y-116379815D01*
X168247738Y-116379816D01*
X168400478Y-116475789D01*
X168570745Y-116535368D01*
X168644199Y-116543644D01*
X168763885Y-116557130D01*
X168763685Y-116558901D01*
X168815555Y-116567985D01*
X168848302Y-116591472D01*
X172370544Y-120113713D01*
X172373486Y-120116757D01*
X172415243Y-120161467D01*
X172415245Y-120161469D01*
X172448507Y-120181695D01*
X172458998Y-120188836D01*
X172481342Y-120205779D01*
X172490025Y-120212364D01*
X172505510Y-120218470D01*
X172524444Y-120227874D01*
X172538672Y-120236526D01*
X172576156Y-120247028D01*
X172588186Y-120251073D01*
X172624411Y-120265359D01*
X172640972Y-120267061D01*
X172661733Y-120271005D01*
X172677772Y-120275500D01*
X172716704Y-120275500D01*
X172729383Y-120276149D01*
X172740600Y-120277303D01*
X172768109Y-120280131D01*
X172768109Y-120280130D01*
X172768110Y-120280131D01*
X172784513Y-120277302D01*
X172805581Y-120275500D01*
X173092060Y-120275500D01*
X173159099Y-120295185D01*
X173179736Y-120311814D01*
X173247738Y-120379816D01*
X173400478Y-120475789D01*
X173570745Y-120535368D01*
X173672918Y-120546880D01*
X173749999Y-120555565D01*
X173749999Y-120555564D01*
X173750000Y-120555565D01*
X173929255Y-120535368D01*
X174099522Y-120475789D01*
X174252262Y-120379816D01*
X174379816Y-120252262D01*
X174475789Y-120099522D01*
X174535368Y-119929255D01*
X174555565Y-119750000D01*
X174554438Y-119740000D01*
X182494722Y-119740000D01*
X182513792Y-119957974D01*
X182570425Y-120169331D01*
X182590492Y-120212364D01*
X182662898Y-120367639D01*
X182788402Y-120546877D01*
X182943123Y-120701598D01*
X183122361Y-120827102D01*
X183274175Y-120897894D01*
X183326614Y-120944066D01*
X183345766Y-121011260D01*
X183325550Y-121078141D01*
X183274175Y-121122658D01*
X183122615Y-121193332D01*
X182943442Y-121318790D01*
X182788790Y-121473442D01*
X182663332Y-121652615D01*
X182570897Y-121850840D01*
X182536289Y-121979999D01*
X182536289Y-121980000D01*
X183348446Y-121980000D01*
X183290507Y-122070156D01*
X183250000Y-122208111D01*
X183250000Y-122351889D01*
X183290507Y-122489844D01*
X183348446Y-122580000D01*
X182536289Y-122580000D01*
X182570897Y-122709159D01*
X182663332Y-122907385D01*
X182788790Y-123086557D01*
X182943442Y-123241209D01*
X183122614Y-123366667D01*
X183320841Y-123459102D01*
X183450000Y-123493709D01*
X183450000Y-122681643D01*
X183476900Y-122704952D01*
X183607685Y-122764680D01*
X183714237Y-122780000D01*
X183785763Y-122780000D01*
X183892315Y-122764680D01*
X184023100Y-122704952D01*
X184050000Y-122681643D01*
X184050000Y-123493708D01*
X184179158Y-123459102D01*
X184377385Y-123366667D01*
X184556557Y-123241209D01*
X184711209Y-123086557D01*
X184836667Y-122907385D01*
X184929102Y-122709159D01*
X184963711Y-122580000D01*
X184151554Y-122580000D01*
X184209493Y-122489844D01*
X184250000Y-122351889D01*
X184250000Y-122208111D01*
X184209493Y-122070156D01*
X184151554Y-121980000D01*
X184963711Y-121980000D01*
X184963710Y-121979999D01*
X184929102Y-121850840D01*
X184836667Y-121652615D01*
X184711209Y-121473442D01*
X184556557Y-121318790D01*
X184377385Y-121193332D01*
X184225824Y-121122658D01*
X184173385Y-121076486D01*
X184154233Y-121009292D01*
X184174449Y-120942411D01*
X184225822Y-120897895D01*
X184377639Y-120827102D01*
X184556877Y-120701598D01*
X184711598Y-120546877D01*
X184837102Y-120367639D01*
X184929575Y-120169330D01*
X184986207Y-119957977D01*
X185005277Y-119740000D01*
X184986207Y-119522023D01*
X184929575Y-119310670D01*
X184837102Y-119112362D01*
X184711598Y-118933123D01*
X184556877Y-118778402D01*
X184410736Y-118676072D01*
X184367112Y-118621497D01*
X184359918Y-118551999D01*
X184391441Y-118489644D01*
X184451671Y-118454230D01*
X184481859Y-118450499D01*
X184631518Y-118450499D01*
X184725304Y-118435646D01*
X184838342Y-118378050D01*
X184928050Y-118288342D01*
X184985646Y-118175304D01*
X185000500Y-118081519D01*
X185000499Y-116318482D01*
X184985646Y-116224696D01*
X184957965Y-116170370D01*
X184928050Y-116111657D01*
X184838343Y-116021950D01*
X184725302Y-115964353D01*
X184631521Y-115949500D01*
X182868485Y-115949500D01*
X182821589Y-115956927D01*
X182774696Y-115964354D01*
X182774694Y-115964354D01*
X182774693Y-115964355D01*
X182661657Y-116021949D01*
X182571950Y-116111656D01*
X182514353Y-116224697D01*
X182499500Y-116318478D01*
X182499500Y-118081514D01*
X182499501Y-118081518D01*
X182514354Y-118175304D01*
X182514354Y-118175305D01*
X182514355Y-118175306D01*
X182571949Y-118288342D01*
X182661656Y-118378049D01*
X182661658Y-118378050D01*
X182774696Y-118435646D01*
X182868481Y-118450500D01*
X183018140Y-118450499D01*
X183085177Y-118470183D01*
X183130932Y-118522987D01*
X183140876Y-118592145D01*
X183111851Y-118655701D01*
X183089262Y-118676073D01*
X182943123Y-118778401D01*
X182788402Y-118933122D01*
X182662898Y-119112361D01*
X182570425Y-119310668D01*
X182513792Y-119522025D01*
X182494722Y-119740000D01*
X174554438Y-119740000D01*
X174535368Y-119570745D01*
X174475789Y-119400478D01*
X174379816Y-119247738D01*
X174379815Y-119247737D01*
X174379814Y-119247735D01*
X174252264Y-119120185D01*
X174189867Y-119080979D01*
X174099522Y-119024211D01*
X173929255Y-118964632D01*
X173929253Y-118964631D01*
X173929251Y-118964631D01*
X173749999Y-118944434D01*
X173570748Y-118964631D01*
X173570745Y-118964631D01*
X173570745Y-118964632D01*
X173400478Y-119024211D01*
X173400476Y-119024211D01*
X173400476Y-119024212D01*
X173247739Y-119120183D01*
X173247738Y-119120183D01*
X173247738Y-119120184D01*
X173179739Y-119188182D01*
X173118419Y-119221666D01*
X173092060Y-119224500D01*
X173019031Y-119224500D01*
X172951992Y-119204815D01*
X172931350Y-119188181D01*
X169591472Y-115848303D01*
X169557987Y-115786980D01*
X169556541Y-115758665D01*
X169542438Y-115633495D01*
X169535368Y-115570745D01*
X169475789Y-115400478D01*
X169379816Y-115247738D01*
X169379815Y-115247737D01*
X169379814Y-115247735D01*
X169252264Y-115120185D01*
X169189867Y-115080979D01*
X169099522Y-115024211D01*
X169030328Y-114999999D01*
X174394434Y-114999999D01*
X174414631Y-115179251D01*
X174414631Y-115179253D01*
X174414632Y-115179255D01*
X174474211Y-115349522D01*
X174474212Y-115349523D01*
X174570185Y-115502264D01*
X174697735Y-115629814D01*
X174697737Y-115629815D01*
X174697738Y-115629816D01*
X174850478Y-115725789D01*
X175020745Y-115785368D01*
X175155186Y-115800515D01*
X175199999Y-115805565D01*
X175199999Y-115805564D01*
X175200000Y-115805565D01*
X175379255Y-115785368D01*
X175549522Y-115725789D01*
X175702262Y-115629816D01*
X175829816Y-115502262D01*
X175925789Y-115349522D01*
X175985368Y-115179255D01*
X176005565Y-115000000D01*
X175992373Y-114882916D01*
X176004427Y-114814095D01*
X176051776Y-114762716D01*
X176074633Y-114751993D01*
X176149522Y-114725789D01*
X176302262Y-114629816D01*
X176429816Y-114502262D01*
X176525789Y-114349522D01*
X176585368Y-114179255D01*
X176605565Y-114000000D01*
X176585368Y-113820745D01*
X176525789Y-113650478D01*
X176429816Y-113497738D01*
X176429815Y-113497737D01*
X176429814Y-113497735D01*
X176302264Y-113370185D01*
X176239867Y-113330979D01*
X176149522Y-113274211D01*
X175979255Y-113214632D01*
X175979253Y-113214631D01*
X175979251Y-113214631D01*
X175800000Y-113194434D01*
X175620748Y-113214631D01*
X175620745Y-113214631D01*
X175620745Y-113214632D01*
X175450478Y-113274211D01*
X175450476Y-113274211D01*
X175450476Y-113274212D01*
X175297735Y-113370185D01*
X175170185Y-113497735D01*
X175074212Y-113650476D01*
X175014631Y-113820748D01*
X174994434Y-114000000D01*
X175007626Y-114117083D01*
X174995571Y-114185905D01*
X174948222Y-114237284D01*
X174925362Y-114248007D01*
X174850479Y-114274210D01*
X174697735Y-114370185D01*
X174570185Y-114497735D01*
X174474212Y-114650476D01*
X174414631Y-114820748D01*
X174394434Y-114999999D01*
X169030328Y-114999999D01*
X168929255Y-114964632D01*
X168929253Y-114964631D01*
X168929251Y-114964631D01*
X168750000Y-114944434D01*
X168570748Y-114964631D01*
X168570745Y-114964631D01*
X168570745Y-114964632D01*
X168400478Y-115024211D01*
X168400476Y-115024211D01*
X168400476Y-115024212D01*
X168247735Y-115120185D01*
X168120185Y-115247735D01*
X168024212Y-115400476D01*
X167964631Y-115570748D01*
X167944434Y-115750000D01*
X155122460Y-115750000D01*
X155115571Y-115725789D01*
X155089312Y-115633496D01*
X154996748Y-115447603D01*
X154871608Y-115281890D01*
X154718145Y-115141991D01*
X154541592Y-115032674D01*
X154347953Y-114957658D01*
X154347952Y-114957657D01*
X154143830Y-114919500D01*
X153936170Y-114919500D01*
X153802788Y-114944434D01*
X153732046Y-114957658D01*
X153538407Y-115032674D01*
X153361854Y-115141991D01*
X153208391Y-115281890D01*
X153083251Y-115447603D01*
X152990687Y-115633496D01*
X152933860Y-115833224D01*
X152914700Y-116040000D01*
X144200500Y-116040000D01*
X144200500Y-113500000D01*
X150374700Y-113500000D01*
X150393860Y-113706775D01*
X150450687Y-113906503D01*
X150543251Y-114092396D01*
X150668391Y-114258109D01*
X150806975Y-114384445D01*
X150821855Y-114398009D01*
X150900263Y-114446557D01*
X150998407Y-114507325D01*
X150998409Y-114507325D01*
X150998411Y-114507327D01*
X151192047Y-114582342D01*
X151396170Y-114620500D01*
X151396172Y-114620500D01*
X151603828Y-114620500D01*
X151603830Y-114620500D01*
X151807953Y-114582342D01*
X152001589Y-114507327D01*
X152178145Y-114398009D01*
X152331607Y-114258110D01*
X152331608Y-114258109D01*
X152456748Y-114092396D01*
X152549312Y-113906503D01*
X152606139Y-113706775D01*
X152606140Y-113706773D01*
X152625300Y-113500000D01*
X152606140Y-113293227D01*
X152583778Y-113214632D01*
X152549312Y-113093496D01*
X152456748Y-112907603D01*
X152331608Y-112741890D01*
X152178145Y-112601991D01*
X152001592Y-112492674D01*
X151807953Y-112417658D01*
X151603830Y-112379500D01*
X151396170Y-112379500D01*
X151260087Y-112404938D01*
X151192046Y-112417658D01*
X150998407Y-112492674D01*
X150821854Y-112601991D01*
X150668391Y-112741890D01*
X150543251Y-112907603D01*
X150450687Y-113093496D01*
X150393860Y-113293224D01*
X150374700Y-113500000D01*
X144200500Y-113500000D01*
X144200500Y-104000000D01*
X150194434Y-104000000D01*
X150214631Y-104179251D01*
X150214631Y-104179253D01*
X150214632Y-104179255D01*
X150274211Y-104349522D01*
X150325290Y-104430813D01*
X150370185Y-104502264D01*
X150497735Y-104629814D01*
X150497737Y-104629815D01*
X150497738Y-104629816D01*
X150650478Y-104725789D01*
X150820745Y-104785368D01*
X150950609Y-104800000D01*
X150999999Y-104805565D01*
X150999999Y-104805564D01*
X151000000Y-104805565D01*
X151049391Y-104800000D01*
X155594434Y-104800000D01*
X155614631Y-104979251D01*
X155614631Y-104979253D01*
X155614632Y-104979255D01*
X155674211Y-105149522D01*
X155689275Y-105173496D01*
X155770185Y-105302264D01*
X155897735Y-105429814D01*
X155897737Y-105429815D01*
X155897738Y-105429816D01*
X156050478Y-105525789D01*
X156220745Y-105585368D01*
X156400000Y-105605565D01*
X156579255Y-105585368D01*
X156594596Y-105580000D01*
X161374700Y-105580000D01*
X161393860Y-105786775D01*
X161450687Y-105986503D01*
X161543251Y-106172396D01*
X161668391Y-106338109D01*
X161806975Y-106464445D01*
X161821855Y-106478009D01*
X161900263Y-106526557D01*
X161998407Y-106587325D01*
X161998409Y-106587325D01*
X161998411Y-106587327D01*
X162192047Y-106662342D01*
X162396170Y-106700500D01*
X162396172Y-106700500D01*
X162603828Y-106700500D01*
X162603830Y-106700500D01*
X162807953Y-106662342D01*
X163001589Y-106587327D01*
X163178145Y-106478009D01*
X163331607Y-106338110D01*
X163331608Y-106338109D01*
X163456748Y-106172396D01*
X163549312Y-105986503D01*
X163583963Y-105864715D01*
X163606140Y-105786773D01*
X163625300Y-105580000D01*
X163606140Y-105373227D01*
X163585949Y-105302262D01*
X163549312Y-105173496D01*
X163456748Y-104987603D01*
X163331608Y-104821890D01*
X163178145Y-104681991D01*
X163001592Y-104572674D01*
X162807953Y-104497658D01*
X162785475Y-104493456D01*
X162603830Y-104459500D01*
X162396170Y-104459500D01*
X162260088Y-104484938D01*
X162192046Y-104497658D01*
X161998407Y-104572674D01*
X161821854Y-104681991D01*
X161668391Y-104821890D01*
X161543251Y-104987603D01*
X161450687Y-105173496D01*
X161393860Y-105373224D01*
X161374700Y-105580000D01*
X156594596Y-105580000D01*
X156749522Y-105525789D01*
X156902262Y-105429816D01*
X157029816Y-105302262D01*
X157125789Y-105149522D01*
X157185368Y-104979255D01*
X157205565Y-104800000D01*
X157185368Y-104620745D01*
X157125789Y-104450478D01*
X157029816Y-104297738D01*
X157029815Y-104297737D01*
X157029814Y-104297735D01*
X156902264Y-104170185D01*
X156826120Y-104122341D01*
X156749522Y-104074211D01*
X156579255Y-104014632D01*
X156579253Y-104014631D01*
X156579251Y-104014631D01*
X156400000Y-103994434D01*
X156220748Y-104014631D01*
X156220745Y-104014631D01*
X156220745Y-104014632D01*
X156050478Y-104074211D01*
X156050476Y-104074211D01*
X156050476Y-104074212D01*
X155897735Y-104170185D01*
X155770185Y-104297735D01*
X155709617Y-104394129D01*
X155674211Y-104450478D01*
X155640342Y-104547270D01*
X155614631Y-104620748D01*
X155594434Y-104800000D01*
X151049391Y-104800000D01*
X151179255Y-104785368D01*
X151349522Y-104725789D01*
X151502262Y-104629816D01*
X151570260Y-104561817D01*
X151631581Y-104528334D01*
X151657940Y-104525500D01*
X152988890Y-104525500D01*
X152993123Y-104525571D01*
X153054245Y-104527660D01*
X153054245Y-104527659D01*
X153054246Y-104527660D01*
X153068706Y-104524135D01*
X153092070Y-104518441D01*
X153104532Y-104516073D01*
X153143111Y-104510771D01*
X153158392Y-104504132D01*
X153178421Y-104497397D01*
X153194594Y-104493457D01*
X153228531Y-104474374D01*
X153239879Y-104468737D01*
X153275609Y-104453219D01*
X153288521Y-104442713D01*
X153306008Y-104430813D01*
X153312291Y-104427279D01*
X153320512Y-104422658D01*
X153348043Y-104395125D01*
X153357458Y-104386628D01*
X153387665Y-104362054D01*
X153397269Y-104348447D01*
X153410881Y-104332287D01*
X154181350Y-103561819D01*
X154242674Y-103528334D01*
X154269032Y-103525500D01*
X157092060Y-103525500D01*
X157159099Y-103545185D01*
X157179736Y-103561814D01*
X157247738Y-103629816D01*
X157400478Y-103725789D01*
X157570745Y-103785368D01*
X157750000Y-103805565D01*
X157929255Y-103785368D01*
X158099522Y-103725789D01*
X158252262Y-103629816D01*
X158379816Y-103502262D01*
X158475789Y-103349522D01*
X158535368Y-103179255D01*
X158551058Y-103040000D01*
X163914700Y-103040000D01*
X163933860Y-103246775D01*
X163990687Y-103446503D01*
X164083251Y-103632396D01*
X164208391Y-103798109D01*
X164346975Y-103924444D01*
X164361855Y-103938009D01*
X164440263Y-103986557D01*
X164538407Y-104047325D01*
X164538409Y-104047325D01*
X164538411Y-104047327D01*
X164732047Y-104122342D01*
X164936170Y-104160500D01*
X164936172Y-104160500D01*
X165143828Y-104160500D01*
X165143830Y-104160500D01*
X165347953Y-104122342D01*
X165541589Y-104047327D01*
X165718145Y-103938009D01*
X165871607Y-103798110D01*
X165871608Y-103798109D01*
X165996748Y-103632396D01*
X166089312Y-103446503D01*
X166117725Y-103346639D01*
X166146140Y-103246773D01*
X166165300Y-103040000D01*
X166146140Y-102833227D01*
X166096914Y-102660215D01*
X166089312Y-102633496D01*
X165996748Y-102447603D01*
X165871608Y-102281890D01*
X165718145Y-102141991D01*
X165541592Y-102032674D01*
X165347953Y-101957658D01*
X165347952Y-101957657D01*
X165143830Y-101919500D01*
X164936170Y-101919500D01*
X164800087Y-101944938D01*
X164732046Y-101957658D01*
X164538407Y-102032674D01*
X164361854Y-102141991D01*
X164208391Y-102281890D01*
X164083251Y-102447603D01*
X163990687Y-102633496D01*
X163933860Y-102833224D01*
X163914700Y-103040000D01*
X158551058Y-103040000D01*
X158555565Y-103000000D01*
X158535368Y-102820745D01*
X158475789Y-102650478D01*
X158379816Y-102497738D01*
X158379815Y-102497737D01*
X158379814Y-102497735D01*
X158252264Y-102370185D01*
X158166780Y-102316472D01*
X158099522Y-102274211D01*
X157929255Y-102214632D01*
X157929253Y-102214631D01*
X157929251Y-102214631D01*
X157750000Y-102194434D01*
X157570748Y-102214631D01*
X157570745Y-102214631D01*
X157570745Y-102214632D01*
X157400478Y-102274211D01*
X157400476Y-102274211D01*
X157400476Y-102274212D01*
X157247739Y-102370183D01*
X157247738Y-102370183D01*
X157247738Y-102370184D01*
X157179739Y-102438182D01*
X157118419Y-102471666D01*
X157092060Y-102474500D01*
X154011110Y-102474500D01*
X154006876Y-102474428D01*
X153945753Y-102472339D01*
X153907935Y-102481556D01*
X153895463Y-102483927D01*
X153856887Y-102489229D01*
X153841613Y-102495863D01*
X153821586Y-102502597D01*
X153805408Y-102506540D01*
X153771473Y-102525621D01*
X153760104Y-102531268D01*
X153724390Y-102546781D01*
X153711476Y-102557287D01*
X153694005Y-102569178D01*
X153679491Y-102577339D01*
X153651959Y-102604870D01*
X153642540Y-102613370D01*
X153612334Y-102637946D01*
X153602728Y-102651554D01*
X153589109Y-102667720D01*
X152818650Y-103438181D01*
X152757327Y-103471666D01*
X152730969Y-103474500D01*
X151657940Y-103474500D01*
X151590901Y-103454815D01*
X151570263Y-103438185D01*
X151502262Y-103370184D01*
X151349522Y-103274211D01*
X151179255Y-103214632D01*
X151179253Y-103214631D01*
X151179251Y-103214631D01*
X151000000Y-103194434D01*
X150820748Y-103214631D01*
X150820745Y-103214631D01*
X150820745Y-103214632D01*
X150650478Y-103274211D01*
X150650476Y-103274211D01*
X150650476Y-103274212D01*
X150497735Y-103370185D01*
X150370185Y-103497735D01*
X150274212Y-103650476D01*
X150274211Y-103650478D01*
X150267524Y-103669588D01*
X150214631Y-103820748D01*
X150194434Y-104000000D01*
X144200500Y-104000000D01*
X144200500Y-100254994D01*
X148232764Y-100254994D01*
X148252961Y-100434246D01*
X148252961Y-100434248D01*
X148252962Y-100434250D01*
X148312541Y-100604517D01*
X148312542Y-100604518D01*
X148408515Y-100757259D01*
X148536065Y-100884809D01*
X148536067Y-100884810D01*
X148536068Y-100884811D01*
X148688808Y-100980784D01*
X148859075Y-101040363D01*
X149038330Y-101060560D01*
X149217585Y-101040363D01*
X149387852Y-100980784D01*
X149540592Y-100884811D01*
X149668146Y-100757257D01*
X149764119Y-100604517D01*
X149800691Y-100500000D01*
X161374700Y-100500000D01*
X161393860Y-100706775D01*
X161450687Y-100906503D01*
X161543251Y-101092396D01*
X161668391Y-101258109D01*
X161789712Y-101368707D01*
X161821855Y-101398009D01*
X161855815Y-101419036D01*
X161998407Y-101507325D01*
X161998409Y-101507325D01*
X161998411Y-101507327D01*
X162192047Y-101582342D01*
X162396170Y-101620500D01*
X162396172Y-101620500D01*
X162603828Y-101620500D01*
X162603830Y-101620500D01*
X162807953Y-101582342D01*
X163001589Y-101507327D01*
X163053799Y-101475000D01*
X167469434Y-101475000D01*
X167489631Y-101654251D01*
X167489631Y-101654253D01*
X167489632Y-101654255D01*
X167549211Y-101824522D01*
X167574773Y-101865203D01*
X167645185Y-101977264D01*
X167772735Y-102104814D01*
X167772737Y-102104815D01*
X167772738Y-102104816D01*
X167925478Y-102200789D01*
X168095745Y-102260368D01*
X168169199Y-102268644D01*
X168288885Y-102282130D01*
X168288685Y-102283901D01*
X168340555Y-102292985D01*
X168373302Y-102316472D01*
X170210544Y-104153713D01*
X170213486Y-104156757D01*
X170255243Y-104201467D01*
X170255245Y-104201469D01*
X170288507Y-104221695D01*
X170298998Y-104228836D01*
X170321342Y-104245779D01*
X170330025Y-104252364D01*
X170345512Y-104258471D01*
X170364443Y-104267873D01*
X170378672Y-104276526D01*
X170416165Y-104287031D01*
X170428179Y-104291071D01*
X170464410Y-104305359D01*
X170471359Y-104306073D01*
X170480966Y-104307061D01*
X170501747Y-104311010D01*
X170517771Y-104315500D01*
X170517772Y-104315500D01*
X170556703Y-104315500D01*
X170569382Y-104316149D01*
X170580599Y-104317303D01*
X170608108Y-104320131D01*
X170608108Y-104320130D01*
X170608109Y-104320131D01*
X170624512Y-104317302D01*
X170645580Y-104315500D01*
X174952059Y-104315500D01*
X175019098Y-104335185D01*
X175039740Y-104351819D01*
X175137735Y-104449814D01*
X175137737Y-104449815D01*
X175137738Y-104449816D01*
X175290478Y-104545789D01*
X175460745Y-104605368D01*
X175640000Y-104625565D01*
X175819255Y-104605368D01*
X175989522Y-104545789D01*
X176142262Y-104449816D01*
X176269816Y-104322262D01*
X176365789Y-104169522D01*
X176425368Y-103999255D01*
X176445565Y-103820000D01*
X176440061Y-103771152D01*
X176452115Y-103702332D01*
X176499463Y-103650952D01*
X176567073Y-103633327D01*
X176633479Y-103655052D01*
X176650962Y-103669588D01*
X178561108Y-105579734D01*
X178573746Y-105594531D01*
X178581984Y-105605871D01*
X178632389Y-105651255D01*
X178637098Y-105655724D01*
X178651493Y-105670119D01*
X178654015Y-105672161D01*
X178667315Y-105682932D01*
X178672228Y-105687127D01*
X178722657Y-105732533D01*
X178722659Y-105732534D01*
X178722660Y-105732535D01*
X178734789Y-105739537D01*
X178750831Y-105750562D01*
X178761723Y-105759383D01*
X178784218Y-105770844D01*
X178822165Y-105790178D01*
X178827822Y-105793249D01*
X178886589Y-105827179D01*
X178899926Y-105831512D01*
X178917893Y-105838955D01*
X178930385Y-105845320D01*
X178995901Y-105862874D01*
X179002110Y-105864714D01*
X179066617Y-105885674D01*
X179080563Y-105887139D01*
X179099676Y-105890681D01*
X179113228Y-105894313D01*
X179180968Y-105897862D01*
X179187426Y-105898371D01*
X179207681Y-105900500D01*
X179228048Y-105900500D01*
X179234537Y-105900670D01*
X179302261Y-105904219D01*
X179316101Y-105902026D01*
X179335499Y-105900500D01*
X182975639Y-105900500D01*
X183042678Y-105920185D01*
X183063320Y-105936819D01*
X185506235Y-108379734D01*
X185518873Y-108394531D01*
X185527111Y-108405871D01*
X185577516Y-108451255D01*
X185582225Y-108455724D01*
X185596620Y-108470119D01*
X185599142Y-108472161D01*
X185612442Y-108482932D01*
X185617355Y-108487127D01*
X185667784Y-108532533D01*
X185667786Y-108532534D01*
X185667787Y-108532535D01*
X185679916Y-108539537D01*
X185695958Y-108550562D01*
X185706850Y-108559383D01*
X185729345Y-108570844D01*
X185767292Y-108590178D01*
X185772949Y-108593249D01*
X185831716Y-108627179D01*
X185845053Y-108631512D01*
X185863020Y-108638955D01*
X185875512Y-108645320D01*
X185941028Y-108662874D01*
X185947237Y-108664714D01*
X186011744Y-108685674D01*
X186025690Y-108687139D01*
X186044803Y-108690681D01*
X186058355Y-108694313D01*
X186126095Y-108697862D01*
X186132553Y-108698371D01*
X186152808Y-108700500D01*
X186173175Y-108700500D01*
X186179664Y-108700670D01*
X186247388Y-108704219D01*
X186261228Y-108702026D01*
X186280626Y-108700500D01*
X186643950Y-108700500D01*
X186647192Y-108700500D01*
X186788256Y-108685674D01*
X186968284Y-108627179D01*
X187132216Y-108532533D01*
X187272888Y-108405871D01*
X187384151Y-108252730D01*
X187461144Y-108079803D01*
X187500500Y-107894646D01*
X187500500Y-107705354D01*
X187461144Y-107520197D01*
X187384151Y-107347270D01*
X187384151Y-107347269D01*
X187272889Y-107194129D01*
X187132216Y-107067466D01*
X186968284Y-106972820D01*
X186788257Y-106914326D01*
X186650411Y-106899838D01*
X186650404Y-106899837D01*
X186647192Y-106899500D01*
X186643950Y-106899500D01*
X186624361Y-106899500D01*
X186557322Y-106879815D01*
X186536680Y-106863181D01*
X185785680Y-106112181D01*
X185752195Y-106050858D01*
X185757179Y-105981166D01*
X185799051Y-105925233D01*
X185864515Y-105900816D01*
X185873361Y-105900500D01*
X186843950Y-105900500D01*
X186847192Y-105900500D01*
X186988256Y-105885674D01*
X187168284Y-105827179D01*
X187332216Y-105732533D01*
X187472888Y-105605871D01*
X187473111Y-105605565D01*
X187584151Y-105452730D01*
X187619550Y-105373224D01*
X187661144Y-105279803D01*
X187700500Y-105094646D01*
X187700500Y-104905354D01*
X187682759Y-104821890D01*
X187661144Y-104720197D01*
X187584151Y-104547269D01*
X187472889Y-104394129D01*
X187332216Y-104267466D01*
X187168284Y-104172820D01*
X186988257Y-104114326D01*
X186850411Y-104099838D01*
X186850404Y-104099837D01*
X186847192Y-104099500D01*
X186843950Y-104099500D01*
X183426826Y-104099500D01*
X183420337Y-104099330D01*
X183415375Y-104099069D01*
X183352612Y-104095781D01*
X183352611Y-104095781D01*
X183345076Y-104096974D01*
X183338771Y-104097973D01*
X183319374Y-104099500D01*
X179679234Y-104099500D01*
X179612195Y-104079815D01*
X179591553Y-104063181D01*
X176536818Y-101008446D01*
X176503333Y-100947123D01*
X176500499Y-100920765D01*
X176500499Y-100254994D01*
X176500499Y-99536248D01*
X176502026Y-99516866D01*
X176504219Y-99503023D01*
X176500670Y-99435298D01*
X176500500Y-99428809D01*
X176500500Y-99411684D01*
X176500500Y-99408443D01*
X176498371Y-99388188D01*
X176497862Y-99381730D01*
X176494313Y-99313990D01*
X176490681Y-99300438D01*
X176487139Y-99281325D01*
X176485674Y-99267379D01*
X176464714Y-99202872D01*
X176462871Y-99196650D01*
X176459021Y-99182281D01*
X176445320Y-99131147D01*
X176438955Y-99118655D01*
X176431512Y-99100688D01*
X176427179Y-99087351D01*
X176393634Y-99029251D01*
X176393264Y-99028609D01*
X176390166Y-99022903D01*
X176359382Y-98962485D01*
X176350559Y-98951589D01*
X176339541Y-98935557D01*
X176332533Y-98923419D01*
X176332532Y-98923418D01*
X176332531Y-98923416D01*
X176287145Y-98873010D01*
X176282928Y-98868072D01*
X176270120Y-98852255D01*
X176267865Y-98850000D01*
X176794434Y-98850000D01*
X176814631Y-99029251D01*
X176814631Y-99029253D01*
X176814632Y-99029255D01*
X176874211Y-99199522D01*
X176925290Y-99280813D01*
X176970185Y-99352264D01*
X177097735Y-99479814D01*
X177097737Y-99479815D01*
X177097738Y-99479816D01*
X177250478Y-99575789D01*
X177420745Y-99635368D01*
X177555186Y-99650515D01*
X177599999Y-99655565D01*
X177599999Y-99655564D01*
X177600000Y-99655565D01*
X177779255Y-99635368D01*
X177949522Y-99575789D01*
X178102262Y-99479816D01*
X178170260Y-99411817D01*
X178231581Y-99378334D01*
X178257940Y-99375500D01*
X183988890Y-99375500D01*
X183993123Y-99375571D01*
X184054245Y-99377660D01*
X184054245Y-99377659D01*
X184054246Y-99377660D01*
X184068706Y-99374135D01*
X184092070Y-99368441D01*
X184104532Y-99366073D01*
X184143111Y-99360771D01*
X184158392Y-99354132D01*
X184178421Y-99347397D01*
X184194594Y-99343457D01*
X184228531Y-99324374D01*
X184239879Y-99318737D01*
X184275609Y-99303219D01*
X184288521Y-99292713D01*
X184306008Y-99280813D01*
X184312291Y-99277279D01*
X184320512Y-99272658D01*
X184348043Y-99245125D01*
X184357458Y-99236628D01*
X184387665Y-99212054D01*
X184397269Y-99198447D01*
X184410881Y-99182287D01*
X185951698Y-97641470D01*
X186013019Y-97607987D01*
X186041335Y-97606541D01*
X186049998Y-97605564D01*
X186050000Y-97605565D01*
X186229255Y-97585368D01*
X186399522Y-97525789D01*
X186552262Y-97429816D01*
X186679816Y-97302262D01*
X186775789Y-97149522D01*
X186835368Y-96979255D01*
X186855565Y-96800000D01*
X186835368Y-96620745D01*
X186775789Y-96450478D01*
X186679816Y-96297738D01*
X186679815Y-96297737D01*
X186679814Y-96297735D01*
X186552264Y-96170185D01*
X186400790Y-96075008D01*
X186399522Y-96074211D01*
X186229255Y-96014632D01*
X186229253Y-96014631D01*
X186229251Y-96014631D01*
X186050000Y-95994434D01*
X185870748Y-96014631D01*
X185870745Y-96014631D01*
X185870745Y-96014632D01*
X185700478Y-96074211D01*
X185700476Y-96074211D01*
X185700476Y-96074212D01*
X185547735Y-96170185D01*
X185420185Y-96297735D01*
X185334901Y-96433465D01*
X185324211Y-96450478D01*
X185276978Y-96585462D01*
X185264631Y-96620748D01*
X185242870Y-96813884D01*
X185241098Y-96813684D01*
X185232009Y-96865564D01*
X185208527Y-96898301D01*
X183818650Y-98288181D01*
X183757327Y-98321666D01*
X183730969Y-98324500D01*
X178257940Y-98324500D01*
X178190901Y-98304815D01*
X178170263Y-98288185D01*
X178102262Y-98220184D01*
X177949522Y-98124211D01*
X177779255Y-98064632D01*
X177779253Y-98064631D01*
X177779251Y-98064631D01*
X177600000Y-98044434D01*
X177420748Y-98064631D01*
X177420745Y-98064631D01*
X177420745Y-98064632D01*
X177250478Y-98124211D01*
X177250476Y-98124211D01*
X177250476Y-98124212D01*
X177097735Y-98220185D01*
X176970185Y-98347735D01*
X176874212Y-98500476D01*
X176814631Y-98670748D01*
X176794434Y-98850000D01*
X176267865Y-98850000D01*
X176255715Y-98837850D01*
X176251247Y-98833142D01*
X176247702Y-98829205D01*
X176205871Y-98782747D01*
X176194526Y-98774504D01*
X176179736Y-98761871D01*
X173912653Y-96494788D01*
X173879168Y-96433465D01*
X173884152Y-96363773D01*
X173912653Y-96319426D01*
X174029814Y-96202264D01*
X174029816Y-96202262D01*
X174125789Y-96049522D01*
X174185368Y-95879255D01*
X174205565Y-95700000D01*
X174185368Y-95520745D01*
X174125789Y-95350478D01*
X174029816Y-95197738D01*
X174029815Y-95197737D01*
X174029814Y-95197735D01*
X173902264Y-95070185D01*
X173839867Y-95030978D01*
X173749522Y-94974211D01*
X173620790Y-94929165D01*
X173564016Y-94888445D01*
X173538269Y-94823492D01*
X173551725Y-94754930D01*
X173600113Y-94704528D01*
X173647864Y-94688905D01*
X173653247Y-94688298D01*
X173679255Y-94685368D01*
X173849522Y-94625789D01*
X174002262Y-94529816D01*
X174129816Y-94402262D01*
X174145004Y-94378088D01*
X174197340Y-94331796D01*
X174266393Y-94321147D01*
X174330242Y-94349522D01*
X174354994Y-94378088D01*
X174370183Y-94402262D01*
X174497735Y-94529814D01*
X174497737Y-94529815D01*
X174497738Y-94529816D01*
X174650478Y-94625789D01*
X174820745Y-94685368D01*
X175000000Y-94705565D01*
X175179255Y-94685368D01*
X175349522Y-94625789D01*
X175502262Y-94529816D01*
X175629816Y-94402262D01*
X175725789Y-94249522D01*
X175785368Y-94079255D01*
X175805565Y-93900000D01*
X175785368Y-93720745D01*
X175725789Y-93550478D01*
X175629816Y-93397738D01*
X175629815Y-93397737D01*
X175629814Y-93397735D01*
X175502264Y-93270185D01*
X175352493Y-93176078D01*
X175349522Y-93174211D01*
X175179255Y-93114632D01*
X175179253Y-93114631D01*
X175179251Y-93114631D01*
X175000000Y-93094434D01*
X174820748Y-93114631D01*
X174820745Y-93114631D01*
X174820745Y-93114632D01*
X174650478Y-93174211D01*
X174650476Y-93174211D01*
X174650476Y-93174212D01*
X174497735Y-93270185D01*
X174370184Y-93397736D01*
X174354994Y-93421912D01*
X174302659Y-93468203D01*
X174233605Y-93478851D01*
X174169757Y-93450476D01*
X174145006Y-93421912D01*
X174129815Y-93397736D01*
X174002264Y-93270185D01*
X173852493Y-93176078D01*
X173849522Y-93174211D01*
X173679255Y-93114632D01*
X173679253Y-93114631D01*
X173679251Y-93114631D01*
X173500000Y-93094434D01*
X173498380Y-93094617D01*
X173492539Y-93093593D01*
X173486116Y-93092870D01*
X173486160Y-93092476D01*
X173429559Y-93082560D01*
X173378181Y-93035210D01*
X173360500Y-92971396D01*
X173360500Y-92000000D01*
X181394559Y-92000000D01*
X181394729Y-92003243D01*
X181406908Y-92235644D01*
X181414310Y-92376871D01*
X181414815Y-92380064D01*
X181414817Y-92380076D01*
X181472838Y-92746404D01*
X181472840Y-92746417D01*
X181473347Y-92749613D01*
X181474184Y-92752737D01*
X181474186Y-92752746D01*
X181570183Y-93111013D01*
X181571022Y-93114143D01*
X181572179Y-93117158D01*
X181572182Y-93117166D01*
X181689164Y-93421912D01*
X181706266Y-93466465D01*
X181707735Y-93469348D01*
X181707739Y-93469357D01*
X181876122Y-93799827D01*
X181877597Y-93802721D01*
X182083137Y-94119225D01*
X182085182Y-94121750D01*
X182312335Y-94402262D01*
X182320635Y-94412511D01*
X182587489Y-94679365D01*
X182880775Y-94916863D01*
X183197279Y-95122403D01*
X183533535Y-95293734D01*
X183885857Y-95428978D01*
X184250387Y-95526653D01*
X184623129Y-95585690D01*
X185000000Y-95605441D01*
X185376871Y-95585690D01*
X185749613Y-95526653D01*
X186114143Y-95428978D01*
X186466465Y-95293734D01*
X186802721Y-95122403D01*
X187119225Y-94916863D01*
X187412511Y-94679365D01*
X187679365Y-94412511D01*
X187916863Y-94119225D01*
X188122403Y-93802721D01*
X188293734Y-93466465D01*
X188428978Y-93114143D01*
X188526653Y-92749613D01*
X188585690Y-92376871D01*
X188605441Y-92000000D01*
X188585690Y-91623129D01*
X188526653Y-91250387D01*
X188428978Y-90885857D01*
X188293734Y-90533535D01*
X188122403Y-90197280D01*
X187916863Y-89880775D01*
X187679365Y-89587489D01*
X187412511Y-89320635D01*
X187119225Y-89083137D01*
X186802721Y-88877597D01*
X186799833Y-88876125D01*
X186799827Y-88876122D01*
X186469357Y-88707739D01*
X186469348Y-88707735D01*
X186466465Y-88706266D01*
X186463433Y-88705102D01*
X186117166Y-88572182D01*
X186117158Y-88572179D01*
X186114143Y-88571022D01*
X186111018Y-88570184D01*
X186111013Y-88570183D01*
X185752746Y-88474186D01*
X185752737Y-88474184D01*
X185749613Y-88473347D01*
X185746417Y-88472840D01*
X185746404Y-88472838D01*
X185380076Y-88414817D01*
X185380064Y-88414815D01*
X185376871Y-88414310D01*
X185373638Y-88414140D01*
X185373633Y-88414140D01*
X185003244Y-88394729D01*
X185000000Y-88394559D01*
X184996756Y-88394729D01*
X184626366Y-88414140D01*
X184626359Y-88414140D01*
X184623129Y-88414310D01*
X184619937Y-88414815D01*
X184619923Y-88414817D01*
X184253595Y-88472838D01*
X184253578Y-88472841D01*
X184250387Y-88473347D01*
X184247266Y-88474183D01*
X184247253Y-88474186D01*
X183888986Y-88570183D01*
X183888975Y-88570186D01*
X183885857Y-88571022D01*
X183882846Y-88572177D01*
X183882833Y-88572182D01*
X183536566Y-88705102D01*
X183536557Y-88705105D01*
X183533535Y-88706266D01*
X183530658Y-88707731D01*
X183530642Y-88707739D01*
X183200173Y-88876122D01*
X183200159Y-88876129D01*
X183197280Y-88877597D01*
X183194560Y-88879363D01*
X183194552Y-88879368D01*
X182883503Y-89081365D01*
X182883497Y-89081368D01*
X182880775Y-89083137D01*
X182878255Y-89085177D01*
X182878249Y-89085182D01*
X182590007Y-89318595D01*
X182589996Y-89318604D01*
X182587489Y-89320635D01*
X182585204Y-89322919D01*
X182585194Y-89322929D01*
X182322929Y-89585194D01*
X182322919Y-89585204D01*
X182320635Y-89587489D01*
X182318604Y-89589996D01*
X182318595Y-89590007D01*
X182085182Y-89878249D01*
X182085177Y-89878255D01*
X182083137Y-89880775D01*
X182081368Y-89883497D01*
X182081365Y-89883503D01*
X181879368Y-90194552D01*
X181879363Y-90194560D01*
X181877597Y-90197280D01*
X181876129Y-90200159D01*
X181876122Y-90200173D01*
X181707739Y-90530642D01*
X181707731Y-90530658D01*
X181706266Y-90533535D01*
X181705105Y-90536557D01*
X181705102Y-90536566D01*
X181572182Y-90882833D01*
X181572177Y-90882846D01*
X181571022Y-90885857D01*
X181570186Y-90888975D01*
X181570183Y-90888986D01*
X181474186Y-91247253D01*
X181474183Y-91247266D01*
X181473347Y-91250387D01*
X181472841Y-91253578D01*
X181472838Y-91253595D01*
X181414817Y-91619923D01*
X181414815Y-91619937D01*
X181414310Y-91623129D01*
X181414140Y-91626359D01*
X181414140Y-91626366D01*
X181400768Y-91881518D01*
X181394559Y-92000000D01*
X173360500Y-92000000D01*
X173360500Y-91669336D01*
X173380185Y-91602297D01*
X173396811Y-91581663D01*
X173421598Y-91556877D01*
X173547102Y-91377639D01*
X173617895Y-91225822D01*
X173664066Y-91173385D01*
X173731260Y-91154233D01*
X173798141Y-91174449D01*
X173842658Y-91225824D01*
X173913332Y-91377385D01*
X174038790Y-91556557D01*
X174193442Y-91711209D01*
X174372614Y-91836667D01*
X174570841Y-91929102D01*
X174700000Y-91963709D01*
X174700000Y-91151643D01*
X174726900Y-91174952D01*
X174857685Y-91234680D01*
X174964237Y-91250000D01*
X175035763Y-91250000D01*
X175142315Y-91234680D01*
X175273100Y-91174952D01*
X175300000Y-91151643D01*
X175300000Y-91963708D01*
X175429158Y-91929102D01*
X175627385Y-91836667D01*
X175806557Y-91711209D01*
X175961209Y-91556557D01*
X176086667Y-91377385D01*
X176179102Y-91179159D01*
X176213711Y-91050000D01*
X175401554Y-91050000D01*
X175459493Y-90959844D01*
X175500000Y-90821889D01*
X175500000Y-90678111D01*
X175459493Y-90540156D01*
X175401554Y-90450000D01*
X176213711Y-90450000D01*
X176213710Y-90449999D01*
X176179102Y-90320840D01*
X176086667Y-90122615D01*
X175961209Y-89943442D01*
X175806557Y-89788790D01*
X175627385Y-89663332D01*
X175429159Y-89570897D01*
X175300000Y-89536289D01*
X175300000Y-90348356D01*
X175273100Y-90325048D01*
X175142315Y-90265320D01*
X175035763Y-90250000D01*
X174964237Y-90250000D01*
X174857685Y-90265320D01*
X174726900Y-90325048D01*
X174700000Y-90348356D01*
X174700000Y-89536289D01*
X174699999Y-89536289D01*
X174570840Y-89570897D01*
X174372615Y-89663332D01*
X174193442Y-89788790D01*
X174038790Y-89943442D01*
X173913332Y-90122615D01*
X173842658Y-90274175D01*
X173796485Y-90326614D01*
X173729292Y-90345766D01*
X173662411Y-90325550D01*
X173617894Y-90274175D01*
X173552010Y-90132888D01*
X173547102Y-90122362D01*
X173421598Y-89943123D01*
X173266877Y-89788402D01*
X173087639Y-89662898D01*
X172931324Y-89590007D01*
X172889331Y-89570425D01*
X172677974Y-89513792D01*
X172459999Y-89494722D01*
X172242025Y-89513792D01*
X172030668Y-89570425D01*
X171832361Y-89662898D01*
X171653122Y-89788402D01*
X171498402Y-89943122D01*
X171396074Y-90089263D01*
X171341497Y-90132888D01*
X171271999Y-90140082D01*
X171209644Y-90108559D01*
X171174230Y-90048329D01*
X171170499Y-90018140D01*
X171170499Y-89868485D01*
X171170499Y-89868482D01*
X171155646Y-89774696D01*
X171098682Y-89662898D01*
X171098050Y-89661657D01*
X171008343Y-89571950D01*
X170895302Y-89514353D01*
X170801521Y-89499500D01*
X169038485Y-89499500D01*
X168991588Y-89506927D01*
X168944696Y-89514354D01*
X168944694Y-89514354D01*
X168944693Y-89514355D01*
X168831657Y-89571949D01*
X168741950Y-89661656D01*
X168684353Y-89774697D01*
X168669500Y-89868478D01*
X168669500Y-91631514D01*
X168669501Y-91631518D01*
X168684354Y-91725304D01*
X168684354Y-91725305D01*
X168684355Y-91725306D01*
X168741949Y-91838342D01*
X168831656Y-91928049D01*
X168831658Y-91928050D01*
X168944696Y-91985646D01*
X169038481Y-92000500D01*
X170801518Y-92000499D01*
X170895304Y-91985646D01*
X171008342Y-91928050D01*
X171098050Y-91838342D01*
X171155646Y-91725304D01*
X171170500Y-91631519D01*
X171170499Y-91481858D01*
X171190183Y-91414822D01*
X171242987Y-91369067D01*
X171312145Y-91359123D01*
X171375701Y-91388148D01*
X171396071Y-91410734D01*
X171498402Y-91556877D01*
X171498405Y-91556880D01*
X171523181Y-91581656D01*
X171556666Y-91642979D01*
X171559500Y-91669337D01*
X171559500Y-92984386D01*
X171545984Y-93040683D01*
X171509818Y-93111660D01*
X171506722Y-93117361D01*
X171472822Y-93176078D01*
X171468488Y-93189417D01*
X171461044Y-93207387D01*
X171454680Y-93219877D01*
X171437126Y-93285382D01*
X171435284Y-93291599D01*
X171414325Y-93356108D01*
X171412860Y-93370051D01*
X171409315Y-93389179D01*
X171405686Y-93402720D01*
X171402136Y-93470456D01*
X171401628Y-93476918D01*
X171399500Y-93497173D01*
X171399500Y-93500416D01*
X171399500Y-93500417D01*
X171399500Y-93517539D01*
X171399330Y-93524028D01*
X171395781Y-93591753D01*
X171397973Y-93605592D01*
X171399500Y-93624991D01*
X171399500Y-96075008D01*
X171397973Y-96094406D01*
X171395780Y-96108245D01*
X171399330Y-96175970D01*
X171399500Y-96182459D01*
X171399500Y-96202827D01*
X171399837Y-96206039D01*
X171399838Y-96206048D01*
X171401628Y-96223082D01*
X171402136Y-96229544D01*
X171405686Y-96297280D01*
X171409315Y-96310822D01*
X171412860Y-96329950D01*
X171414325Y-96343889D01*
X171435282Y-96408389D01*
X171437125Y-96414611D01*
X171454679Y-96480122D01*
X171461042Y-96492609D01*
X171468489Y-96510588D01*
X171472820Y-96523918D01*
X171506725Y-96582643D01*
X171509823Y-96588348D01*
X171540617Y-96648784D01*
X171549439Y-96659678D01*
X171560458Y-96675711D01*
X171567466Y-96687850D01*
X171612854Y-96738260D01*
X171617067Y-96743192D01*
X171629881Y-96759015D01*
X171632180Y-96761314D01*
X171644274Y-96773408D01*
X171648743Y-96778117D01*
X171694129Y-96828523D01*
X171705467Y-96836760D01*
X171720265Y-96849399D01*
X174663181Y-99792315D01*
X174696666Y-99853638D01*
X174699500Y-99879996D01*
X174699500Y-101264500D01*
X174697973Y-101283898D01*
X174695780Y-101297737D01*
X174699330Y-101365462D01*
X174699500Y-101371951D01*
X174699500Y-101392319D01*
X174699837Y-101395531D01*
X174699838Y-101395540D01*
X174701628Y-101412574D01*
X174702136Y-101419036D01*
X174705686Y-101486772D01*
X174709315Y-101500314D01*
X174712860Y-101519442D01*
X174714325Y-101533381D01*
X174735282Y-101597881D01*
X174737125Y-101604103D01*
X174754679Y-101669614D01*
X174761042Y-101682101D01*
X174768489Y-101700080D01*
X174772820Y-101713410D01*
X174806725Y-101772135D01*
X174809823Y-101777840D01*
X174840615Y-101838273D01*
X174840617Y-101838276D01*
X174849439Y-101849170D01*
X174860458Y-101865203D01*
X174867466Y-101877342D01*
X174912854Y-101927752D01*
X174917067Y-101932684D01*
X174929881Y-101948507D01*
X174932180Y-101950806D01*
X174944274Y-101962900D01*
X174948743Y-101967609D01*
X174957436Y-101977264D01*
X174994129Y-102018015D01*
X175005467Y-102026252D01*
X175020265Y-102038891D01*
X175790411Y-102809037D01*
X175823896Y-102870360D01*
X175818912Y-102940052D01*
X175777040Y-102995985D01*
X175711576Y-103020402D01*
X175688846Y-103019938D01*
X175640000Y-103014434D01*
X175460748Y-103034631D01*
X175460745Y-103034631D01*
X175460745Y-103034632D01*
X175290478Y-103094211D01*
X175290476Y-103094211D01*
X175290476Y-103094212D01*
X175137736Y-103190184D01*
X175099742Y-103228180D01*
X175038419Y-103261666D01*
X175012060Y-103264500D01*
X170859031Y-103264500D01*
X170791992Y-103244815D01*
X170771350Y-103228181D01*
X169116472Y-101573303D01*
X169082987Y-101511980D01*
X169081541Y-101483665D01*
X169074259Y-101419036D01*
X169060368Y-101295745D01*
X169000789Y-101125478D01*
X168904816Y-100972738D01*
X168904815Y-100972737D01*
X168904814Y-100972735D01*
X168777264Y-100845185D01*
X168637327Y-100757257D01*
X168624522Y-100749211D01*
X168454255Y-100689632D01*
X168454253Y-100689631D01*
X168454251Y-100689631D01*
X168275000Y-100669434D01*
X168095748Y-100689631D01*
X168095745Y-100689631D01*
X168095745Y-100689632D01*
X167925478Y-100749211D01*
X167925476Y-100749211D01*
X167925476Y-100749212D01*
X167772735Y-100845185D01*
X167645185Y-100972735D01*
X167549212Y-101125476D01*
X167549211Y-101125478D01*
X167489632Y-101295745D01*
X167489631Y-101295748D01*
X167469434Y-101475000D01*
X163053799Y-101475000D01*
X163178145Y-101398009D01*
X163331607Y-101258110D01*
X163331608Y-101258109D01*
X163456748Y-101092396D01*
X163549312Y-100906503D01*
X163606139Y-100706775D01*
X163606140Y-100706773D01*
X163625300Y-100500000D01*
X163606140Y-100293227D01*
X163595262Y-100254994D01*
X163549312Y-100093496D01*
X163456748Y-99907603D01*
X163331608Y-99741890D01*
X163178145Y-99601991D01*
X163001592Y-99492674D01*
X162807953Y-99417658D01*
X162603830Y-99379500D01*
X162396170Y-99379500D01*
X162260088Y-99404938D01*
X162192046Y-99417658D01*
X161998407Y-99492674D01*
X161821854Y-99601991D01*
X161668391Y-99741890D01*
X161543251Y-99907603D01*
X161450687Y-100093496D01*
X161393860Y-100293224D01*
X161374700Y-100500000D01*
X149800691Y-100500000D01*
X149823698Y-100434250D01*
X149843895Y-100254995D01*
X149823698Y-100075740D01*
X149764119Y-99905473D01*
X149668146Y-99752733D01*
X149668145Y-99752732D01*
X149668144Y-99752730D01*
X149540594Y-99625180D01*
X149461985Y-99575787D01*
X149387852Y-99529206D01*
X149217585Y-99469627D01*
X149217583Y-99469626D01*
X149217581Y-99469626D01*
X149038330Y-99449429D01*
X148859078Y-99469626D01*
X148859075Y-99469626D01*
X148859075Y-99469627D01*
X148688808Y-99529206D01*
X148688806Y-99529206D01*
X148688806Y-99529207D01*
X148536065Y-99625180D01*
X148408515Y-99752730D01*
X148312542Y-99905471D01*
X148252961Y-100075743D01*
X148232764Y-100254994D01*
X144200500Y-100254994D01*
X144200500Y-92000000D01*
X145394559Y-92000000D01*
X145394729Y-92003243D01*
X145406908Y-92235644D01*
X145414310Y-92376871D01*
X145414815Y-92380064D01*
X145414817Y-92380076D01*
X145472838Y-92746404D01*
X145472840Y-92746417D01*
X145473347Y-92749613D01*
X145474184Y-92752737D01*
X145474186Y-92752746D01*
X145570183Y-93111013D01*
X145571022Y-93114143D01*
X145572179Y-93117158D01*
X145572182Y-93117166D01*
X145689164Y-93421912D01*
X145706266Y-93466465D01*
X145707735Y-93469348D01*
X145707739Y-93469357D01*
X145876122Y-93799827D01*
X145877597Y-93802721D01*
X146083137Y-94119225D01*
X146085182Y-94121750D01*
X146312335Y-94402262D01*
X146320635Y-94412511D01*
X146587489Y-94679365D01*
X146880775Y-94916863D01*
X147197279Y-95122403D01*
X147533535Y-95293734D01*
X147885857Y-95428978D01*
X148250387Y-95526653D01*
X148623129Y-95585690D01*
X149000000Y-95605441D01*
X149376871Y-95585690D01*
X149749613Y-95526653D01*
X150114143Y-95428978D01*
X150466465Y-95293734D01*
X150802721Y-95122403D01*
X151119225Y-94916863D01*
X151412511Y-94679365D01*
X151679365Y-94412511D01*
X151916863Y-94119225D01*
X152122403Y-93802721D01*
X152293734Y-93466465D01*
X152428978Y-93114143D01*
X152526653Y-92749613D01*
X152585690Y-92376871D01*
X152605441Y-92000000D01*
X152599231Y-91881514D01*
X154749500Y-91881514D01*
X154749501Y-91881518D01*
X154764354Y-91975304D01*
X154764354Y-91975305D01*
X154764355Y-91975306D01*
X154821949Y-92088342D01*
X154911656Y-92178049D01*
X154911658Y-92178050D01*
X155024696Y-92235646D01*
X155118481Y-92250500D01*
X156881518Y-92250499D01*
X156975304Y-92235646D01*
X157088342Y-92178050D01*
X157178050Y-92088342D01*
X157235646Y-91975304D01*
X157250500Y-91881519D01*
X157250499Y-91730986D01*
X157270183Y-91663950D01*
X157322987Y-91618195D01*
X157392145Y-91608251D01*
X157455701Y-91637276D01*
X157476073Y-91659865D01*
X157578786Y-91806553D01*
X157733442Y-91961209D01*
X157912614Y-92086667D01*
X158110841Y-92179102D01*
X158240000Y-92213709D01*
X158239999Y-91401643D01*
X158266900Y-91424952D01*
X158397685Y-91484680D01*
X158504237Y-91500000D01*
X158575763Y-91500000D01*
X158682315Y-91484680D01*
X158813100Y-91424952D01*
X158840000Y-91401643D01*
X158840000Y-92213708D01*
X158969158Y-92179102D01*
X159167385Y-92086667D01*
X159346557Y-91961209D01*
X159501209Y-91806557D01*
X159626667Y-91627385D01*
X159719102Y-91429159D01*
X159753711Y-91300000D01*
X158941554Y-91300000D01*
X158999493Y-91209844D01*
X159040000Y-91071889D01*
X159040000Y-90928111D01*
X158999493Y-90790156D01*
X158941554Y-90700000D01*
X159753711Y-90700000D01*
X159753710Y-90699999D01*
X159719102Y-90570840D01*
X159626667Y-90372615D01*
X159501209Y-90193442D01*
X159346557Y-90038790D01*
X159167385Y-89913332D01*
X158969159Y-89820897D01*
X158840000Y-89786289D01*
X158840000Y-90598356D01*
X158813100Y-90575048D01*
X158682315Y-90515320D01*
X158575763Y-90500000D01*
X158504237Y-90500000D01*
X158397685Y-90515320D01*
X158266900Y-90575048D01*
X158239999Y-90598357D01*
X158239999Y-89786289D01*
X158110840Y-89820897D01*
X157912615Y-89913332D01*
X157733442Y-90038790D01*
X157578790Y-90193442D01*
X157476074Y-90340136D01*
X157421497Y-90383760D01*
X157351998Y-90390953D01*
X157289644Y-90359431D01*
X157254230Y-90299201D01*
X157250499Y-90269012D01*
X157250499Y-90118485D01*
X157250499Y-90118482D01*
X157235646Y-90024696D01*
X157194245Y-89943442D01*
X157178050Y-89911657D01*
X157088343Y-89821950D01*
X156975302Y-89764353D01*
X156881521Y-89749500D01*
X155118485Y-89749500D01*
X155071588Y-89756927D01*
X155024696Y-89764354D01*
X155024694Y-89764354D01*
X155024693Y-89764355D01*
X154911657Y-89821949D01*
X154821950Y-89911656D01*
X154764353Y-90024697D01*
X154749500Y-90118478D01*
X154749500Y-91881514D01*
X152599231Y-91881514D01*
X152585690Y-91623129D01*
X152526653Y-91250387D01*
X152428978Y-90885857D01*
X152293734Y-90533535D01*
X152122403Y-90197280D01*
X151916863Y-89880775D01*
X151679365Y-89587489D01*
X151412511Y-89320635D01*
X151119225Y-89083137D01*
X150802721Y-88877597D01*
X150799833Y-88876125D01*
X150799827Y-88876122D01*
X150469357Y-88707739D01*
X150469348Y-88707735D01*
X150466465Y-88706266D01*
X150463433Y-88705102D01*
X150117166Y-88572182D01*
X150117158Y-88572179D01*
X150114143Y-88571022D01*
X150111018Y-88570184D01*
X150111013Y-88570183D01*
X149752746Y-88474186D01*
X149752737Y-88474184D01*
X149749613Y-88473347D01*
X149746417Y-88472840D01*
X149746404Y-88472838D01*
X149380076Y-88414817D01*
X149380064Y-88414815D01*
X149376871Y-88414310D01*
X149373638Y-88414140D01*
X149373633Y-88414140D01*
X149003244Y-88394729D01*
X149000000Y-88394559D01*
X148996756Y-88394729D01*
X148626366Y-88414140D01*
X148626359Y-88414140D01*
X148623129Y-88414310D01*
X148619937Y-88414815D01*
X148619923Y-88414817D01*
X148253595Y-88472838D01*
X148253578Y-88472841D01*
X148250387Y-88473347D01*
X148247266Y-88474183D01*
X148247253Y-88474186D01*
X147888986Y-88570183D01*
X147888975Y-88570186D01*
X147885857Y-88571022D01*
X147882846Y-88572177D01*
X147882833Y-88572182D01*
X147536566Y-88705102D01*
X147536557Y-88705105D01*
X147533535Y-88706266D01*
X147530658Y-88707731D01*
X147530642Y-88707739D01*
X147200173Y-88876122D01*
X147200159Y-88876129D01*
X147197280Y-88877597D01*
X147194560Y-88879363D01*
X147194552Y-88879368D01*
X146883503Y-89081365D01*
X146883497Y-89081368D01*
X146880775Y-89083137D01*
X146878255Y-89085177D01*
X146878249Y-89085182D01*
X146590007Y-89318595D01*
X146589996Y-89318604D01*
X146587489Y-89320635D01*
X146585204Y-89322919D01*
X146585194Y-89322929D01*
X146322929Y-89585194D01*
X146322919Y-89585204D01*
X146320635Y-89587489D01*
X146318604Y-89589996D01*
X146318595Y-89590007D01*
X146085182Y-89878249D01*
X146085177Y-89878255D01*
X146083137Y-89880775D01*
X146081368Y-89883497D01*
X146081365Y-89883503D01*
X145879368Y-90194552D01*
X145879363Y-90194560D01*
X145877597Y-90197280D01*
X145876129Y-90200159D01*
X145876122Y-90200173D01*
X145707739Y-90530642D01*
X145707731Y-90530658D01*
X145706266Y-90533535D01*
X145705105Y-90536557D01*
X145705102Y-90536566D01*
X145572182Y-90882833D01*
X145572177Y-90882846D01*
X145571022Y-90885857D01*
X145570186Y-90888975D01*
X145570183Y-90888986D01*
X145474186Y-91247253D01*
X145474183Y-91247266D01*
X145473347Y-91250387D01*
X145472841Y-91253578D01*
X145472838Y-91253595D01*
X145414817Y-91619923D01*
X145414815Y-91619937D01*
X145414310Y-91623129D01*
X145414140Y-91626359D01*
X145414140Y-91626366D01*
X145400768Y-91881518D01*
X145394559Y-92000000D01*
X144200500Y-92000000D01*
X144200500Y-87324500D01*
X144220185Y-87257461D01*
X144272989Y-87211706D01*
X144324500Y-87200500D01*
X189675500Y-87200500D01*
X189742539Y-87220185D01*
G37*
%TD.AperFunction*%
%TD*%
M02*
