%TF.GenerationSoftware,KiCad,Pcbnew,7.0.2-0*%
%TF.CreationDate,2025-01-08T13:47:24-05:00*%
%TF.ProjectId,plaqchek_mlb,706c6171-6368-4656-9b5f-6d6c622e6b69,rev?*%
%TF.SameCoordinates,Original*%
%TF.FileFunction,Legend,Top*%
%TF.FilePolarity,Positive*%
%FSLAX46Y46*%
G04 Gerber Fmt 4.6, Leading zero omitted, Abs format (unit mm)*
G04 Created by KiCad (PCBNEW 7.0.2-0) date 2025-01-08 13:47:24*
%MOMM*%
%LPD*%
G01*
G04 APERTURE LIST*
%ADD10C,0.153000*%
%ADD11C,0.300000*%
%ADD12C,0.400000*%
G04 APERTURE END LIST*
D10*
X163261904Y-67425238D02*
X163166666Y-67377619D01*
X163166666Y-67377619D02*
X163023809Y-67377619D01*
X163023809Y-67377619D02*
X162880952Y-67425238D01*
X162880952Y-67425238D02*
X162785714Y-67520476D01*
X162785714Y-67520476D02*
X162738095Y-67615714D01*
X162738095Y-67615714D02*
X162690476Y-67806190D01*
X162690476Y-67806190D02*
X162690476Y-67949047D01*
X162690476Y-67949047D02*
X162738095Y-68139523D01*
X162738095Y-68139523D02*
X162785714Y-68234761D01*
X162785714Y-68234761D02*
X162880952Y-68330000D01*
X162880952Y-68330000D02*
X163023809Y-68377619D01*
X163023809Y-68377619D02*
X163119047Y-68377619D01*
X163119047Y-68377619D02*
X163261904Y-68330000D01*
X163261904Y-68330000D02*
X163309523Y-68282380D01*
X163309523Y-68282380D02*
X163309523Y-67949047D01*
X163309523Y-67949047D02*
X163119047Y-67949047D01*
X163738095Y-68377619D02*
X163738095Y-67377619D01*
X163738095Y-67377619D02*
X164309523Y-68377619D01*
X164309523Y-68377619D02*
X164309523Y-67377619D01*
X164785714Y-68377619D02*
X164785714Y-67377619D01*
X164785714Y-67377619D02*
X165023809Y-67377619D01*
X165023809Y-67377619D02*
X165166666Y-67425238D01*
X165166666Y-67425238D02*
X165261904Y-67520476D01*
X165261904Y-67520476D02*
X165309523Y-67615714D01*
X165309523Y-67615714D02*
X165357142Y-67806190D01*
X165357142Y-67806190D02*
X165357142Y-67949047D01*
X165357142Y-67949047D02*
X165309523Y-68139523D01*
X165309523Y-68139523D02*
X165261904Y-68234761D01*
X165261904Y-68234761D02*
X165166666Y-68330000D01*
X165166666Y-68330000D02*
X165023809Y-68377619D01*
X165023809Y-68377619D02*
X164785714Y-68377619D01*
X167681428Y-63013809D02*
X167348095Y-63013809D01*
X167348095Y-63537619D02*
X167348095Y-62537619D01*
X167348095Y-62537619D02*
X167824285Y-62537619D01*
X168395714Y-63061428D02*
X168395714Y-63537619D01*
X168062381Y-62537619D02*
X168395714Y-63061428D01*
X168395714Y-63061428D02*
X168729047Y-62537619D01*
X169062381Y-63537619D02*
X169062381Y-62537619D01*
X169062381Y-62537619D02*
X169300476Y-62537619D01*
X169300476Y-62537619D02*
X169443333Y-62585238D01*
X169443333Y-62585238D02*
X169538571Y-62680476D01*
X169538571Y-62680476D02*
X169586190Y-62775714D01*
X169586190Y-62775714D02*
X169633809Y-62966190D01*
X169633809Y-62966190D02*
X169633809Y-63109047D01*
X169633809Y-63109047D02*
X169586190Y-63299523D01*
X169586190Y-63299523D02*
X169538571Y-63394761D01*
X169538571Y-63394761D02*
X169443333Y-63490000D01*
X169443333Y-63490000D02*
X169300476Y-63537619D01*
X169300476Y-63537619D02*
X169062381Y-63537619D01*
X170062381Y-63537619D02*
X170062381Y-62537619D01*
X170062381Y-62537619D02*
X170443333Y-62537619D01*
X170443333Y-62537619D02*
X170538571Y-62585238D01*
X170538571Y-62585238D02*
X170586190Y-62632857D01*
X170586190Y-62632857D02*
X170633809Y-62728095D01*
X170633809Y-62728095D02*
X170633809Y-62870952D01*
X170633809Y-62870952D02*
X170586190Y-62966190D01*
X170586190Y-62966190D02*
X170538571Y-63013809D01*
X170538571Y-63013809D02*
X170443333Y-63061428D01*
X170443333Y-63061428D02*
X170062381Y-63061428D01*
X171681429Y-62537619D02*
X172252857Y-62537619D01*
X171967143Y-63537619D02*
X171967143Y-62537619D01*
X172586191Y-63013809D02*
X172919524Y-63013809D01*
X173062381Y-63537619D02*
X172586191Y-63537619D01*
X172586191Y-63537619D02*
X172586191Y-62537619D01*
X172586191Y-62537619D02*
X173062381Y-62537619D01*
X173443334Y-63251904D02*
X173919524Y-63251904D01*
X173348096Y-63537619D02*
X173681429Y-62537619D01*
X173681429Y-62537619D02*
X174014762Y-63537619D01*
X174348096Y-63537619D02*
X174348096Y-62537619D01*
X174348096Y-62537619D02*
X174681429Y-63251904D01*
X174681429Y-63251904D02*
X175014762Y-62537619D01*
X175014762Y-62537619D02*
X175014762Y-63537619D01*
X176205239Y-62870952D02*
X176919524Y-62870952D01*
X176490953Y-62442380D02*
X176205239Y-63728095D01*
X176824286Y-63299523D02*
X176110001Y-63299523D01*
X176538572Y-63728095D02*
X176824286Y-62442380D01*
X177776667Y-63537619D02*
X177205239Y-63537619D01*
X177490953Y-63537619D02*
X177490953Y-62537619D01*
X177490953Y-62537619D02*
X177395715Y-62680476D01*
X177395715Y-62680476D02*
X177300477Y-62775714D01*
X177300477Y-62775714D02*
X177205239Y-62823333D01*
X178157620Y-62632857D02*
X178205239Y-62585238D01*
X178205239Y-62585238D02*
X178300477Y-62537619D01*
X178300477Y-62537619D02*
X178538572Y-62537619D01*
X178538572Y-62537619D02*
X178633810Y-62585238D01*
X178633810Y-62585238D02*
X178681429Y-62632857D01*
X178681429Y-62632857D02*
X178729048Y-62728095D01*
X178729048Y-62728095D02*
X178729048Y-62823333D01*
X178729048Y-62823333D02*
X178681429Y-62966190D01*
X178681429Y-62966190D02*
X178110001Y-63537619D01*
X178110001Y-63537619D02*
X178729048Y-63537619D01*
X167633809Y-64157619D02*
X167633809Y-64871904D01*
X167633809Y-64871904D02*
X167586190Y-65014761D01*
X167586190Y-65014761D02*
X167490952Y-65110000D01*
X167490952Y-65110000D02*
X167348095Y-65157619D01*
X167348095Y-65157619D02*
X167252857Y-65157619D01*
X168062381Y-64871904D02*
X168538571Y-64871904D01*
X167967143Y-65157619D02*
X168300476Y-64157619D01*
X168300476Y-64157619D02*
X168633809Y-65157619D01*
X168967143Y-65157619D02*
X168967143Y-64157619D01*
X168967143Y-64157619D02*
X169538571Y-65157619D01*
X169538571Y-65157619D02*
X169538571Y-64157619D01*
X170729048Y-64252857D02*
X170776667Y-64205238D01*
X170776667Y-64205238D02*
X170871905Y-64157619D01*
X170871905Y-64157619D02*
X171110000Y-64157619D01*
X171110000Y-64157619D02*
X171205238Y-64205238D01*
X171205238Y-64205238D02*
X171252857Y-64252857D01*
X171252857Y-64252857D02*
X171300476Y-64348095D01*
X171300476Y-64348095D02*
X171300476Y-64443333D01*
X171300476Y-64443333D02*
X171252857Y-64586190D01*
X171252857Y-64586190D02*
X170681429Y-65157619D01*
X170681429Y-65157619D02*
X171300476Y-65157619D01*
X171919524Y-64157619D02*
X172014762Y-64157619D01*
X172014762Y-64157619D02*
X172110000Y-64205238D01*
X172110000Y-64205238D02*
X172157619Y-64252857D01*
X172157619Y-64252857D02*
X172205238Y-64348095D01*
X172205238Y-64348095D02*
X172252857Y-64538571D01*
X172252857Y-64538571D02*
X172252857Y-64776666D01*
X172252857Y-64776666D02*
X172205238Y-64967142D01*
X172205238Y-64967142D02*
X172157619Y-65062380D01*
X172157619Y-65062380D02*
X172110000Y-65110000D01*
X172110000Y-65110000D02*
X172014762Y-65157619D01*
X172014762Y-65157619D02*
X171919524Y-65157619D01*
X171919524Y-65157619D02*
X171824286Y-65110000D01*
X171824286Y-65110000D02*
X171776667Y-65062380D01*
X171776667Y-65062380D02*
X171729048Y-64967142D01*
X171729048Y-64967142D02*
X171681429Y-64776666D01*
X171681429Y-64776666D02*
X171681429Y-64538571D01*
X171681429Y-64538571D02*
X171729048Y-64348095D01*
X171729048Y-64348095D02*
X171776667Y-64252857D01*
X171776667Y-64252857D02*
X171824286Y-64205238D01*
X171824286Y-64205238D02*
X171919524Y-64157619D01*
X172633810Y-64252857D02*
X172681429Y-64205238D01*
X172681429Y-64205238D02*
X172776667Y-64157619D01*
X172776667Y-64157619D02*
X173014762Y-64157619D01*
X173014762Y-64157619D02*
X173110000Y-64205238D01*
X173110000Y-64205238D02*
X173157619Y-64252857D01*
X173157619Y-64252857D02*
X173205238Y-64348095D01*
X173205238Y-64348095D02*
X173205238Y-64443333D01*
X173205238Y-64443333D02*
X173157619Y-64586190D01*
X173157619Y-64586190D02*
X172586191Y-65157619D01*
X172586191Y-65157619D02*
X173205238Y-65157619D01*
X174110000Y-64157619D02*
X173633810Y-64157619D01*
X173633810Y-64157619D02*
X173586191Y-64633809D01*
X173586191Y-64633809D02*
X173633810Y-64586190D01*
X173633810Y-64586190D02*
X173729048Y-64538571D01*
X173729048Y-64538571D02*
X173967143Y-64538571D01*
X173967143Y-64538571D02*
X174062381Y-64586190D01*
X174062381Y-64586190D02*
X174110000Y-64633809D01*
X174110000Y-64633809D02*
X174157619Y-64729047D01*
X174157619Y-64729047D02*
X174157619Y-64967142D01*
X174157619Y-64967142D02*
X174110000Y-65062380D01*
X174110000Y-65062380D02*
X174062381Y-65110000D01*
X174062381Y-65110000D02*
X173967143Y-65157619D01*
X173967143Y-65157619D02*
X173729048Y-65157619D01*
X173729048Y-65157619D02*
X173633810Y-65110000D01*
X173633810Y-65110000D02*
X173586191Y-65062380D01*
X187761904Y-115925238D02*
X187666666Y-115877619D01*
X187666666Y-115877619D02*
X187523809Y-115877619D01*
X187523809Y-115877619D02*
X187380952Y-115925238D01*
X187380952Y-115925238D02*
X187285714Y-116020476D01*
X187285714Y-116020476D02*
X187238095Y-116115714D01*
X187238095Y-116115714D02*
X187190476Y-116306190D01*
X187190476Y-116306190D02*
X187190476Y-116449047D01*
X187190476Y-116449047D02*
X187238095Y-116639523D01*
X187238095Y-116639523D02*
X187285714Y-116734761D01*
X187285714Y-116734761D02*
X187380952Y-116830000D01*
X187380952Y-116830000D02*
X187523809Y-116877619D01*
X187523809Y-116877619D02*
X187619047Y-116877619D01*
X187619047Y-116877619D02*
X187761904Y-116830000D01*
X187761904Y-116830000D02*
X187809523Y-116782380D01*
X187809523Y-116782380D02*
X187809523Y-116449047D01*
X187809523Y-116449047D02*
X187619047Y-116449047D01*
X188238095Y-116877619D02*
X188238095Y-115877619D01*
X188238095Y-115877619D02*
X188809523Y-116877619D01*
X188809523Y-116877619D02*
X188809523Y-115877619D01*
X189285714Y-116877619D02*
X189285714Y-115877619D01*
X189285714Y-115877619D02*
X189523809Y-115877619D01*
X189523809Y-115877619D02*
X189666666Y-115925238D01*
X189666666Y-115925238D02*
X189761904Y-116020476D01*
X189761904Y-116020476D02*
X189809523Y-116115714D01*
X189809523Y-116115714D02*
X189857142Y-116306190D01*
X189857142Y-116306190D02*
X189857142Y-116449047D01*
X189857142Y-116449047D02*
X189809523Y-116639523D01*
X189809523Y-116639523D02*
X189761904Y-116734761D01*
X189761904Y-116734761D02*
X189666666Y-116830000D01*
X189666666Y-116830000D02*
X189523809Y-116877619D01*
X189523809Y-116877619D02*
X189285714Y-116877619D01*
X183697028Y-121204021D02*
X183649409Y-121299259D01*
X183649409Y-121299259D02*
X183649409Y-121442116D01*
X183649409Y-121442116D02*
X183697028Y-121584973D01*
X183697028Y-121584973D02*
X183792266Y-121680211D01*
X183792266Y-121680211D02*
X183887504Y-121727830D01*
X183887504Y-121727830D02*
X184077980Y-121775449D01*
X184077980Y-121775449D02*
X184220837Y-121775449D01*
X184220837Y-121775449D02*
X184411313Y-121727830D01*
X184411313Y-121727830D02*
X184506551Y-121680211D01*
X184506551Y-121680211D02*
X184601790Y-121584973D01*
X184601790Y-121584973D02*
X184649409Y-121442116D01*
X184649409Y-121442116D02*
X184649409Y-121346878D01*
X184649409Y-121346878D02*
X184601790Y-121204021D01*
X184601790Y-121204021D02*
X184554170Y-121156402D01*
X184554170Y-121156402D02*
X184220837Y-121156402D01*
X184220837Y-121156402D02*
X184220837Y-121346878D01*
X184649409Y-120727830D02*
X183649409Y-120727830D01*
X183649409Y-120727830D02*
X184649409Y-120156402D01*
X184649409Y-120156402D02*
X183649409Y-120156402D01*
X184649409Y-119680211D02*
X183649409Y-119680211D01*
X183649409Y-119680211D02*
X183649409Y-119442116D01*
X183649409Y-119442116D02*
X183697028Y-119299259D01*
X183697028Y-119299259D02*
X183792266Y-119204021D01*
X183792266Y-119204021D02*
X183887504Y-119156402D01*
X183887504Y-119156402D02*
X184077980Y-119108783D01*
X184077980Y-119108783D02*
X184220837Y-119108783D01*
X184220837Y-119108783D02*
X184411313Y-119156402D01*
X184411313Y-119156402D02*
X184506551Y-119204021D01*
X184506551Y-119204021D02*
X184601790Y-119299259D01*
X184601790Y-119299259D02*
X184649409Y-119442116D01*
X184649409Y-119442116D02*
X184649409Y-119680211D01*
X190238095Y-110377619D02*
X190238095Y-109377619D01*
X190238095Y-109377619D02*
X190809523Y-110377619D01*
X190809523Y-110377619D02*
X190809523Y-109377619D01*
X191857142Y-110282380D02*
X191809523Y-110330000D01*
X191809523Y-110330000D02*
X191666666Y-110377619D01*
X191666666Y-110377619D02*
X191571428Y-110377619D01*
X191571428Y-110377619D02*
X191428571Y-110330000D01*
X191428571Y-110330000D02*
X191333333Y-110234761D01*
X191333333Y-110234761D02*
X191285714Y-110139523D01*
X191285714Y-110139523D02*
X191238095Y-109949047D01*
X191238095Y-109949047D02*
X191238095Y-109806190D01*
X191238095Y-109806190D02*
X191285714Y-109615714D01*
X191285714Y-109615714D02*
X191333333Y-109520476D01*
X191333333Y-109520476D02*
X191428571Y-109425238D01*
X191428571Y-109425238D02*
X191571428Y-109377619D01*
X191571428Y-109377619D02*
X191666666Y-109377619D01*
X191666666Y-109377619D02*
X191809523Y-109425238D01*
X191809523Y-109425238D02*
X191857142Y-109472857D01*
X165377619Y-121761904D02*
X164377619Y-121761904D01*
X164377619Y-121761904D02*
X165091904Y-121428571D01*
X165091904Y-121428571D02*
X164377619Y-121095238D01*
X164377619Y-121095238D02*
X165377619Y-121095238D01*
X165377619Y-120619047D02*
X164377619Y-120619047D01*
X165330000Y-120190476D02*
X165377619Y-120047619D01*
X165377619Y-120047619D02*
X165377619Y-119809524D01*
X165377619Y-119809524D02*
X165330000Y-119714286D01*
X165330000Y-119714286D02*
X165282380Y-119666667D01*
X165282380Y-119666667D02*
X165187142Y-119619048D01*
X165187142Y-119619048D02*
X165091904Y-119619048D01*
X165091904Y-119619048D02*
X164996666Y-119666667D01*
X164996666Y-119666667D02*
X164949047Y-119714286D01*
X164949047Y-119714286D02*
X164901428Y-119809524D01*
X164901428Y-119809524D02*
X164853809Y-120000000D01*
X164853809Y-120000000D02*
X164806190Y-120095238D01*
X164806190Y-120095238D02*
X164758571Y-120142857D01*
X164758571Y-120142857D02*
X164663333Y-120190476D01*
X164663333Y-120190476D02*
X164568095Y-120190476D01*
X164568095Y-120190476D02*
X164472857Y-120142857D01*
X164472857Y-120142857D02*
X164425238Y-120095238D01*
X164425238Y-120095238D02*
X164377619Y-120000000D01*
X164377619Y-120000000D02*
X164377619Y-119761905D01*
X164377619Y-119761905D02*
X164425238Y-119619048D01*
X164377619Y-119000000D02*
X164377619Y-118809524D01*
X164377619Y-118809524D02*
X164425238Y-118714286D01*
X164425238Y-118714286D02*
X164520476Y-118619048D01*
X164520476Y-118619048D02*
X164710952Y-118571429D01*
X164710952Y-118571429D02*
X165044285Y-118571429D01*
X165044285Y-118571429D02*
X165234761Y-118619048D01*
X165234761Y-118619048D02*
X165330000Y-118714286D01*
X165330000Y-118714286D02*
X165377619Y-118809524D01*
X165377619Y-118809524D02*
X165377619Y-119000000D01*
X165377619Y-119000000D02*
X165330000Y-119095238D01*
X165330000Y-119095238D02*
X165234761Y-119190476D01*
X165234761Y-119190476D02*
X165044285Y-119238095D01*
X165044285Y-119238095D02*
X164710952Y-119238095D01*
X164710952Y-119238095D02*
X164520476Y-119190476D01*
X164520476Y-119190476D02*
X164425238Y-119095238D01*
X164425238Y-119095238D02*
X164377619Y-119000000D01*
X189928571Y-106877619D02*
X190119047Y-106877619D01*
X190119047Y-106877619D02*
X190214285Y-106925238D01*
X190214285Y-106925238D02*
X190309523Y-107020476D01*
X190309523Y-107020476D02*
X190357142Y-107210952D01*
X190357142Y-107210952D02*
X190357142Y-107544285D01*
X190357142Y-107544285D02*
X190309523Y-107734761D01*
X190309523Y-107734761D02*
X190214285Y-107830000D01*
X190214285Y-107830000D02*
X190119047Y-107877619D01*
X190119047Y-107877619D02*
X189928571Y-107877619D01*
X189928571Y-107877619D02*
X189833333Y-107830000D01*
X189833333Y-107830000D02*
X189738095Y-107734761D01*
X189738095Y-107734761D02*
X189690476Y-107544285D01*
X189690476Y-107544285D02*
X189690476Y-107210952D01*
X189690476Y-107210952D02*
X189738095Y-107020476D01*
X189738095Y-107020476D02*
X189833333Y-106925238D01*
X189833333Y-106925238D02*
X189928571Y-106877619D01*
X190785714Y-106877619D02*
X190785714Y-107687142D01*
X190785714Y-107687142D02*
X190833333Y-107782380D01*
X190833333Y-107782380D02*
X190880952Y-107830000D01*
X190880952Y-107830000D02*
X190976190Y-107877619D01*
X190976190Y-107877619D02*
X191166666Y-107877619D01*
X191166666Y-107877619D02*
X191261904Y-107830000D01*
X191261904Y-107830000D02*
X191309523Y-107782380D01*
X191309523Y-107782380D02*
X191357142Y-107687142D01*
X191357142Y-107687142D02*
X191357142Y-106877619D01*
X191690476Y-106877619D02*
X192261904Y-106877619D01*
X191976190Y-107877619D02*
X191976190Y-106877619D01*
G36*
X160097540Y-125988109D02*
G01*
X160127604Y-126018174D01*
X160161594Y-126086153D01*
X160161594Y-126192892D01*
X160127602Y-126260875D01*
X160097541Y-126290936D01*
X160029559Y-126324928D01*
X159743166Y-126324928D01*
X159743166Y-125954119D01*
X160029559Y-125954119D01*
X160097540Y-125988109D01*
G37*
G36*
X169269142Y-127372357D02*
G01*
X157627643Y-127372357D01*
X157627643Y-126076653D01*
X158111207Y-126076653D01*
X158113976Y-126083329D01*
X158113976Y-126159214D01*
X158112007Y-126177453D01*
X158118997Y-126191433D01*
X158123403Y-126206438D01*
X158128866Y-126211172D01*
X158165381Y-126284201D01*
X158168118Y-126296781D01*
X158183024Y-126311687D01*
X158197380Y-126327121D01*
X158198827Y-126327491D01*
X158224838Y-126353501D01*
X158231411Y-126364568D01*
X158250256Y-126373990D01*
X158268766Y-126384097D01*
X158270255Y-126383990D01*
X158334552Y-126416138D01*
X158340606Y-126422577D01*
X158354252Y-126425988D01*
X158356579Y-126427152D01*
X158364883Y-126428646D01*
X158544728Y-126473607D01*
X158621350Y-126511918D01*
X158651414Y-126541983D01*
X158685404Y-126609962D01*
X158685404Y-126669083D01*
X158651413Y-126737064D01*
X158621350Y-126767128D01*
X158553369Y-126801119D01*
X158345747Y-126801119D01*
X158204232Y-126753947D01*
X158170793Y-126752738D01*
X158132147Y-126775644D01*
X158112020Y-126815809D01*
X158116801Y-126860478D01*
X158144974Y-126895471D01*
X158300042Y-126947160D01*
X158310870Y-126954119D01*
X158331940Y-126954119D01*
X158353015Y-126954881D01*
X158354301Y-126954119D01*
X158567310Y-126954119D01*
X158585548Y-126956088D01*
X158599528Y-126949097D01*
X158614533Y-126944692D01*
X158619267Y-126939228D01*
X158692296Y-126902713D01*
X158704877Y-126899977D01*
X158716234Y-126888619D01*
X159113976Y-126888619D01*
X159123403Y-126920724D01*
X159157355Y-126950144D01*
X159201823Y-126956537D01*
X159242688Y-126937875D01*
X159266976Y-126900082D01*
X159266976Y-126412775D01*
X159587748Y-126412775D01*
X159590166Y-126418069D01*
X159590166Y-126888619D01*
X159599593Y-126920724D01*
X159633545Y-126950144D01*
X159678013Y-126956537D01*
X159718878Y-126937875D01*
X159743166Y-126900082D01*
X159743166Y-126477928D01*
X160043500Y-126477928D01*
X160061738Y-126479897D01*
X160075718Y-126472906D01*
X160090723Y-126468501D01*
X160095457Y-126463037D01*
X160168486Y-126426522D01*
X160181066Y-126423786D01*
X160195972Y-126408879D01*
X160211406Y-126394524D01*
X160211776Y-126393076D01*
X160237786Y-126367065D01*
X160248853Y-126360493D01*
X160258275Y-126341647D01*
X160268382Y-126323138D01*
X160268275Y-126321648D01*
X160304674Y-126248850D01*
X160314594Y-126233415D01*
X160314594Y-126217781D01*
X160317363Y-126202394D01*
X160314594Y-126195717D01*
X160314594Y-126072212D01*
X160316563Y-126053974D01*
X160309572Y-126039992D01*
X160305167Y-126024990D01*
X160299704Y-126020256D01*
X160263188Y-125947224D01*
X160260452Y-125934647D01*
X160245556Y-125919751D01*
X160231190Y-125904307D01*
X160229741Y-125903936D01*
X160215419Y-125889614D01*
X160587844Y-125889614D01*
X160590166Y-125894589D01*
X160590166Y-126888619D01*
X160599593Y-126920724D01*
X160633545Y-126950144D01*
X160678013Y-126956537D01*
X160718878Y-126937875D01*
X160743166Y-126900082D01*
X160743166Y-126222447D01*
X160930401Y-126623666D01*
X160939316Y-126643619D01*
X160949445Y-126650247D01*
X160957447Y-126659329D01*
X160967853Y-126662292D01*
X160976908Y-126668217D01*
X160989011Y-126668316D01*
X161000655Y-126671632D01*
X161011012Y-126668497D01*
X161021831Y-126668587D01*
X161032068Y-126662126D01*
X161043655Y-126658620D01*
X161050673Y-126650384D01*
X161059823Y-126644610D01*
X161064941Y-126633642D01*
X161072794Y-126624428D01*
X161074245Y-126613703D01*
X161256832Y-126222447D01*
X161256832Y-126888619D01*
X161266259Y-126920724D01*
X161300211Y-126950144D01*
X161344679Y-126956537D01*
X161385544Y-126937875D01*
X161409832Y-126900082D01*
X161409832Y-126076653D01*
X162444540Y-126076653D01*
X162447309Y-126083329D01*
X162447309Y-126159214D01*
X162445340Y-126177453D01*
X162452330Y-126191433D01*
X162456736Y-126206438D01*
X162462199Y-126211172D01*
X162498714Y-126284201D01*
X162501451Y-126296781D01*
X162516357Y-126311687D01*
X162530713Y-126327121D01*
X162532160Y-126327491D01*
X162558171Y-126353501D01*
X162564744Y-126364568D01*
X162583589Y-126373990D01*
X162602099Y-126384097D01*
X162603588Y-126383990D01*
X162667885Y-126416138D01*
X162673939Y-126422577D01*
X162687585Y-126425988D01*
X162689912Y-126427152D01*
X162698216Y-126428646D01*
X162878061Y-126473607D01*
X162954683Y-126511918D01*
X162984747Y-126541983D01*
X163018737Y-126609962D01*
X163018737Y-126669083D01*
X162984746Y-126737064D01*
X162954683Y-126767128D01*
X162886702Y-126801119D01*
X162679080Y-126801119D01*
X162537565Y-126753947D01*
X162504126Y-126752738D01*
X162465480Y-126775644D01*
X162445353Y-126815809D01*
X162450134Y-126860478D01*
X162478307Y-126895471D01*
X162633375Y-126947160D01*
X162644203Y-126954119D01*
X162665273Y-126954119D01*
X162686348Y-126954881D01*
X162687634Y-126954119D01*
X162900643Y-126954119D01*
X162918881Y-126956088D01*
X162932861Y-126949097D01*
X162947866Y-126944692D01*
X162952600Y-126939228D01*
X163025629Y-126902713D01*
X163038210Y-126899977D01*
X163049220Y-126888966D01*
X163444891Y-126888966D01*
X163451949Y-126904421D01*
X163456736Y-126920724D01*
X163461134Y-126924535D01*
X163463553Y-126929831D01*
X163477847Y-126939017D01*
X163490688Y-126950144D01*
X163496449Y-126950972D01*
X163501346Y-126954119D01*
X163518337Y-126954119D01*
X163535156Y-126956537D01*
X163540451Y-126954119D01*
X164010999Y-126954119D01*
X164043104Y-126944692D01*
X164072524Y-126910740D01*
X164078917Y-126866272D01*
X164060255Y-126825407D01*
X164022462Y-126801119D01*
X163600309Y-126801119D01*
X163600309Y-126430309D01*
X163868142Y-126430309D01*
X163900247Y-126420882D01*
X163929667Y-126386930D01*
X163936060Y-126342462D01*
X163917398Y-126301597D01*
X163879605Y-126277309D01*
X163600309Y-126277309D01*
X163600309Y-125954119D01*
X164010999Y-125954119D01*
X164043104Y-125944692D01*
X164072524Y-125910740D01*
X164074633Y-125896070D01*
X164351006Y-125896070D01*
X164352071Y-125897933D01*
X164352071Y-126888619D01*
X164361498Y-126920724D01*
X164395450Y-126950144D01*
X164439918Y-126956537D01*
X164480783Y-126937875D01*
X164505071Y-126900082D01*
X164505071Y-126165684D01*
X164929125Y-126907780D01*
X164932926Y-126920724D01*
X164948398Y-126934130D01*
X164963149Y-126948322D01*
X164965255Y-126948737D01*
X164966878Y-126950144D01*
X164987138Y-126953056D01*
X165007224Y-126957021D01*
X165009221Y-126956231D01*
X165011346Y-126956537D01*
X165029973Y-126948030D01*
X165049005Y-126940509D01*
X165050257Y-126938767D01*
X165052211Y-126937875D01*
X165063279Y-126920651D01*
X165075227Y-126904032D01*
X165075338Y-126901887D01*
X165076499Y-126900082D01*
X165076499Y-126879613D01*
X165077564Y-126859168D01*
X165076499Y-126857304D01*
X165076499Y-126076653D01*
X165349302Y-126076653D01*
X165352071Y-126083329D01*
X165352071Y-126159214D01*
X165350102Y-126177453D01*
X165357092Y-126191433D01*
X165361498Y-126206438D01*
X165366961Y-126211172D01*
X165403476Y-126284201D01*
X165406213Y-126296781D01*
X165421119Y-126311687D01*
X165435475Y-126327121D01*
X165436922Y-126327491D01*
X165462933Y-126353501D01*
X165469506Y-126364568D01*
X165488351Y-126373990D01*
X165506861Y-126384097D01*
X165508350Y-126383990D01*
X165572647Y-126416138D01*
X165578701Y-126422577D01*
X165592347Y-126425988D01*
X165594674Y-126427152D01*
X165602978Y-126428646D01*
X165782823Y-126473607D01*
X165859445Y-126511918D01*
X165889509Y-126541983D01*
X165923499Y-126609962D01*
X165923499Y-126669083D01*
X165889508Y-126737064D01*
X165859445Y-126767128D01*
X165791464Y-126801119D01*
X165583842Y-126801119D01*
X165442327Y-126753947D01*
X165408888Y-126752738D01*
X165370242Y-126775644D01*
X165350115Y-126815809D01*
X165354896Y-126860478D01*
X165383069Y-126895471D01*
X165538137Y-126947160D01*
X165548965Y-126954119D01*
X165570035Y-126954119D01*
X165591110Y-126954881D01*
X165592396Y-126954119D01*
X165805405Y-126954119D01*
X165823643Y-126956088D01*
X165837623Y-126949097D01*
X165852628Y-126944692D01*
X165857362Y-126939228D01*
X165930391Y-126902713D01*
X165942972Y-126899977D01*
X165954329Y-126888619D01*
X166352071Y-126888619D01*
X166361498Y-126920724D01*
X166395450Y-126950144D01*
X166439918Y-126956537D01*
X166480783Y-126937875D01*
X166505071Y-126900082D01*
X166505071Y-125896070D01*
X166827196Y-125896070D01*
X166828261Y-125897933D01*
X166828261Y-126888619D01*
X166837688Y-126920724D01*
X166871640Y-126950144D01*
X166916108Y-126956537D01*
X166956973Y-126937875D01*
X166981261Y-126900082D01*
X166981261Y-126165684D01*
X167405315Y-126907780D01*
X167409116Y-126920724D01*
X167424588Y-126934130D01*
X167439339Y-126948322D01*
X167441445Y-126948737D01*
X167443068Y-126950144D01*
X167463328Y-126953056D01*
X167483414Y-126957021D01*
X167485411Y-126956231D01*
X167487536Y-126956537D01*
X167506163Y-126948030D01*
X167525195Y-126940509D01*
X167526447Y-126938767D01*
X167528401Y-126937875D01*
X167539469Y-126920651D01*
X167551417Y-126904032D01*
X167551528Y-126901887D01*
X167552689Y-126900082D01*
X167552689Y-126879613D01*
X167553754Y-126859168D01*
X167552689Y-126857304D01*
X167552689Y-126445809D01*
X167825097Y-126445809D01*
X167828261Y-126458464D01*
X167828261Y-126460047D01*
X167830922Y-126469112D01*
X167874859Y-126644857D01*
X167873911Y-126653643D01*
X167880200Y-126666221D01*
X167880832Y-126668748D01*
X167885105Y-126676032D01*
X167927284Y-126760389D01*
X167930021Y-126772971D01*
X167944940Y-126787891D01*
X167959284Y-126803311D01*
X167960730Y-126803680D01*
X168038229Y-126881180D01*
X168049735Y-126895471D01*
X168064565Y-126900414D01*
X168078289Y-126907908D01*
X168085498Y-126907392D01*
X168204803Y-126947160D01*
X168215631Y-126954119D01*
X168236701Y-126954119D01*
X168257776Y-126954881D01*
X168259062Y-126954119D01*
X168323739Y-126954119D01*
X168336213Y-126957297D01*
X168356210Y-126950630D01*
X168376437Y-126944692D01*
X168377415Y-126943562D01*
X168496470Y-126903877D01*
X168514400Y-126899977D01*
X168525455Y-126888920D01*
X168538292Y-126880000D01*
X168541055Y-126873321D01*
X168568141Y-126846233D01*
X168576020Y-126842636D01*
X168583719Y-126830656D01*
X168585680Y-126828695D01*
X168589639Y-126821443D01*
X168600308Y-126804843D01*
X168600308Y-126801905D01*
X168601716Y-126799327D01*
X168600308Y-126779640D01*
X168600308Y-126454518D01*
X168602726Y-126437700D01*
X168595667Y-126422244D01*
X168590881Y-126405942D01*
X168586482Y-126402130D01*
X168584064Y-126396835D01*
X168569769Y-126387648D01*
X168556929Y-126376522D01*
X168551167Y-126375693D01*
X168546271Y-126372547D01*
X168529280Y-126372547D01*
X168512461Y-126370129D01*
X168507166Y-126372547D01*
X168322332Y-126372547D01*
X168290227Y-126381974D01*
X168260807Y-126415926D01*
X168254414Y-126460394D01*
X168273076Y-126501259D01*
X168310869Y-126525547D01*
X168447308Y-126525547D01*
X168447308Y-126750693D01*
X168434865Y-126763135D01*
X168320917Y-126801119D01*
X168250508Y-126801119D01*
X168136560Y-126763136D01*
X168062870Y-126689444D01*
X168024559Y-126612823D01*
X167981261Y-126439629D01*
X167981261Y-126315608D01*
X168024559Y-126142413D01*
X168062870Y-126065791D01*
X168136560Y-125992101D01*
X168250508Y-125954119D01*
X168362892Y-125954119D01*
X168451816Y-125998581D01*
X168484747Y-126004507D01*
X168526245Y-125987296D01*
X168551850Y-125950382D01*
X168553433Y-125905485D01*
X168530492Y-125866860D01*
X168418849Y-125811038D01*
X168403414Y-125801119D01*
X168387780Y-125801119D01*
X168372393Y-125798350D01*
X168365717Y-125801119D01*
X168247686Y-125801119D01*
X168235212Y-125797941D01*
X168215206Y-125804609D01*
X168194989Y-125810546D01*
X168194010Y-125811674D01*
X168074951Y-125851361D01*
X168057027Y-125855261D01*
X168045973Y-125866314D01*
X168033134Y-125875238D01*
X168030370Y-125881917D01*
X167952688Y-125959599D01*
X167941621Y-125966173D01*
X167932198Y-125985017D01*
X167922091Y-126003528D01*
X167922197Y-126005019D01*
X167890050Y-126069314D01*
X167883612Y-126075368D01*
X167880200Y-126089013D01*
X167879037Y-126091341D01*
X167877542Y-126099646D01*
X167833598Y-126275421D01*
X167828261Y-126283727D01*
X167828261Y-126296772D01*
X167827877Y-126298308D01*
X167828261Y-126307754D01*
X167828261Y-126436456D01*
X167825097Y-126445809D01*
X167552689Y-126445809D01*
X167552689Y-125866619D01*
X167543262Y-125834514D01*
X167509310Y-125805094D01*
X167464842Y-125798701D01*
X167423977Y-125817363D01*
X167399689Y-125855156D01*
X167399689Y-126589553D01*
X166975634Y-125847457D01*
X166971834Y-125834514D01*
X166956361Y-125821107D01*
X166941611Y-125806916D01*
X166939504Y-125806500D01*
X166937882Y-125805094D01*
X166917621Y-125802181D01*
X166897536Y-125798217D01*
X166895538Y-125799006D01*
X166893414Y-125798701D01*
X166874786Y-125807207D01*
X166855755Y-125814729D01*
X166854503Y-125816470D01*
X166852549Y-125817363D01*
X166841476Y-125834591D01*
X166829533Y-125851207D01*
X166829421Y-125853350D01*
X166828261Y-125855156D01*
X166828261Y-125875625D01*
X166827196Y-125896070D01*
X166505071Y-125896070D01*
X166505071Y-125866619D01*
X166495644Y-125834514D01*
X166461692Y-125805094D01*
X166417224Y-125798701D01*
X166376359Y-125817363D01*
X166352071Y-125855156D01*
X166352071Y-126888619D01*
X165954329Y-126888619D01*
X165957883Y-126885065D01*
X165973311Y-126870715D01*
X165973681Y-126869266D01*
X165999690Y-126843256D01*
X166010758Y-126836683D01*
X166020182Y-126817834D01*
X166030288Y-126799327D01*
X166030181Y-126797836D01*
X166066579Y-126725040D01*
X166076499Y-126709605D01*
X166076499Y-126693971D01*
X166079268Y-126678584D01*
X166076499Y-126671907D01*
X166076499Y-126596021D01*
X166078468Y-126577783D01*
X166071477Y-126563801D01*
X166067072Y-126548799D01*
X166061609Y-126544065D01*
X166025093Y-126471033D01*
X166022357Y-126458456D01*
X166007461Y-126443560D01*
X165993095Y-126428116D01*
X165991646Y-126427745D01*
X165965637Y-126401736D01*
X165959064Y-126390669D01*
X165940219Y-126381246D01*
X165921709Y-126371139D01*
X165920217Y-126371245D01*
X165855922Y-126339098D01*
X165849869Y-126332660D01*
X165836222Y-126329248D01*
X165833896Y-126328085D01*
X165825590Y-126326590D01*
X165645746Y-126281629D01*
X165569124Y-126243318D01*
X165539062Y-126213256D01*
X165505071Y-126145274D01*
X165505071Y-126086154D01*
X165539061Y-126018172D01*
X165569126Y-125988108D01*
X165637105Y-125954119D01*
X165844727Y-125954119D01*
X165986243Y-126001291D01*
X166019681Y-126002500D01*
X166058328Y-125979594D01*
X166078455Y-125939429D01*
X166073673Y-125894760D01*
X166045500Y-125859767D01*
X165890432Y-125808077D01*
X165879605Y-125801119D01*
X165858535Y-125801119D01*
X165837459Y-125800357D01*
X165836173Y-125801119D01*
X165623164Y-125801119D01*
X165604926Y-125799150D01*
X165590944Y-125806140D01*
X165575942Y-125810546D01*
X165571208Y-125816008D01*
X165498176Y-125852524D01*
X165485599Y-125855261D01*
X165470703Y-125870156D01*
X165455259Y-125884523D01*
X165454888Y-125885971D01*
X165428879Y-125911980D01*
X165417812Y-125918554D01*
X165408389Y-125937398D01*
X165398282Y-125955909D01*
X165398388Y-125957400D01*
X165361990Y-126030196D01*
X165352071Y-126045632D01*
X165352071Y-126061265D01*
X165349302Y-126076653D01*
X165076499Y-126076653D01*
X165076499Y-125866619D01*
X165067072Y-125834514D01*
X165033120Y-125805094D01*
X164988652Y-125798701D01*
X164947787Y-125817363D01*
X164923499Y-125855156D01*
X164923499Y-126589553D01*
X164499444Y-125847457D01*
X164495644Y-125834514D01*
X164480171Y-125821107D01*
X164465421Y-125806916D01*
X164463314Y-125806500D01*
X164461692Y-125805094D01*
X164441431Y-125802181D01*
X164421346Y-125798217D01*
X164419348Y-125799006D01*
X164417224Y-125798701D01*
X164398596Y-125807207D01*
X164379565Y-125814729D01*
X164378313Y-125816470D01*
X164376359Y-125817363D01*
X164365286Y-125834591D01*
X164353343Y-125851207D01*
X164353231Y-125853350D01*
X164352071Y-125855156D01*
X164352071Y-125875625D01*
X164351006Y-125896070D01*
X164074633Y-125896070D01*
X164078917Y-125866272D01*
X164060255Y-125825407D01*
X164022462Y-125801119D01*
X163529281Y-125801119D01*
X163512462Y-125798701D01*
X163497006Y-125805759D01*
X163480704Y-125810546D01*
X163476892Y-125814944D01*
X163471597Y-125817363D01*
X163462410Y-125831657D01*
X163451284Y-125844498D01*
X163450455Y-125850259D01*
X163447309Y-125855156D01*
X163447309Y-125872147D01*
X163444891Y-125888966D01*
X163447309Y-125894260D01*
X163447309Y-126348337D01*
X163444891Y-126365156D01*
X163447309Y-126370450D01*
X163447309Y-126872147D01*
X163444891Y-126888966D01*
X163049220Y-126888966D01*
X163053121Y-126885065D01*
X163068549Y-126870715D01*
X163068919Y-126869266D01*
X163094928Y-126843256D01*
X163105996Y-126836683D01*
X163115420Y-126817834D01*
X163125526Y-126799327D01*
X163125419Y-126797836D01*
X163161817Y-126725040D01*
X163171737Y-126709605D01*
X163171737Y-126693971D01*
X163174506Y-126678584D01*
X163171737Y-126671907D01*
X163171737Y-126596021D01*
X163173706Y-126577783D01*
X163166715Y-126563801D01*
X163162310Y-126548799D01*
X163156847Y-126544065D01*
X163120331Y-126471033D01*
X163117595Y-126458456D01*
X163102699Y-126443560D01*
X163088333Y-126428116D01*
X163086884Y-126427745D01*
X163060875Y-126401736D01*
X163054302Y-126390669D01*
X163035457Y-126381246D01*
X163016947Y-126371139D01*
X163015455Y-126371245D01*
X162951160Y-126339098D01*
X162945107Y-126332660D01*
X162931461Y-126329248D01*
X162929134Y-126328085D01*
X162920828Y-126326590D01*
X162740985Y-126281629D01*
X162664362Y-126243318D01*
X162634300Y-126213256D01*
X162600309Y-126145273D01*
X162600309Y-126086154D01*
X162634299Y-126018172D01*
X162664364Y-125988108D01*
X162732343Y-125954119D01*
X162939965Y-125954119D01*
X163081481Y-126001291D01*
X163114919Y-126002500D01*
X163153566Y-125979594D01*
X163173693Y-125939429D01*
X163168911Y-125894760D01*
X163140738Y-125859767D01*
X162985670Y-125808077D01*
X162974843Y-125801119D01*
X162953773Y-125801119D01*
X162932697Y-125800357D01*
X162931411Y-125801119D01*
X162718402Y-125801119D01*
X162700164Y-125799150D01*
X162686182Y-125806140D01*
X162671180Y-125810546D01*
X162666446Y-125816008D01*
X162593414Y-125852524D01*
X162580837Y-125855261D01*
X162565941Y-125870156D01*
X162550497Y-125884523D01*
X162550126Y-125885971D01*
X162524117Y-125911980D01*
X162513050Y-125918554D01*
X162503627Y-125937398D01*
X162493520Y-125955909D01*
X162493626Y-125957400D01*
X162457228Y-126030196D01*
X162447309Y-126045632D01*
X162447309Y-126061265D01*
X162444540Y-126076653D01*
X161409832Y-126076653D01*
X161409832Y-125883408D01*
X161412341Y-125866922D01*
X161405280Y-125851117D01*
X161400405Y-125834514D01*
X161396256Y-125830919D01*
X161394016Y-125825904D01*
X161379530Y-125816425D01*
X161366453Y-125805094D01*
X161361018Y-125804312D01*
X161356423Y-125801306D01*
X161339113Y-125801163D01*
X161321985Y-125798701D01*
X161316991Y-125800981D01*
X161311500Y-125800936D01*
X161296860Y-125810174D01*
X161281120Y-125817363D01*
X161278152Y-125821981D01*
X161273508Y-125824912D01*
X161266187Y-125840597D01*
X161256832Y-125855156D01*
X161256832Y-125860646D01*
X160999998Y-126411003D01*
X160738437Y-125850515D01*
X160733739Y-125834514D01*
X160720658Y-125823179D01*
X160709218Y-125810194D01*
X160703937Y-125808690D01*
X160699787Y-125805094D01*
X160682654Y-125802630D01*
X160666010Y-125797892D01*
X160660753Y-125799482D01*
X160655319Y-125798701D01*
X160639575Y-125805890D01*
X160623010Y-125810903D01*
X160619448Y-125815082D01*
X160614454Y-125817363D01*
X160605096Y-125831923D01*
X160593871Y-125845096D01*
X160593134Y-125850537D01*
X160590166Y-125855156D01*
X160590166Y-125872462D01*
X160587844Y-125889614D01*
X160215419Y-125889614D01*
X160203732Y-125877927D01*
X160197159Y-125866860D01*
X160178314Y-125857437D01*
X160159804Y-125847330D01*
X160158312Y-125847436D01*
X160085516Y-125811038D01*
X160070081Y-125801119D01*
X160054447Y-125801119D01*
X160039060Y-125798350D01*
X160032384Y-125801119D01*
X159672138Y-125801119D01*
X159655319Y-125798701D01*
X159639863Y-125805759D01*
X159623561Y-125810546D01*
X159619749Y-125814944D01*
X159614454Y-125817363D01*
X159605267Y-125831657D01*
X159594141Y-125844498D01*
X159593312Y-125850259D01*
X159590166Y-125855156D01*
X159590166Y-125872147D01*
X159587748Y-125888966D01*
X159590166Y-125894260D01*
X159590166Y-126395956D01*
X159587748Y-126412775D01*
X159266976Y-126412775D01*
X159266976Y-125866619D01*
X159257549Y-125834514D01*
X159223597Y-125805094D01*
X159179129Y-125798701D01*
X159138264Y-125817363D01*
X159113976Y-125855156D01*
X159113976Y-126888619D01*
X158716234Y-126888619D01*
X158719788Y-126885065D01*
X158735216Y-126870715D01*
X158735586Y-126869266D01*
X158761595Y-126843256D01*
X158772663Y-126836683D01*
X158782087Y-126817834D01*
X158792193Y-126799327D01*
X158792086Y-126797836D01*
X158828484Y-126725040D01*
X158838404Y-126709605D01*
X158838404Y-126693971D01*
X158841173Y-126678584D01*
X158838404Y-126671907D01*
X158838404Y-126596021D01*
X158840373Y-126577783D01*
X158833382Y-126563801D01*
X158828977Y-126548799D01*
X158823514Y-126544065D01*
X158786998Y-126471033D01*
X158784262Y-126458456D01*
X158769366Y-126443560D01*
X158755000Y-126428116D01*
X158753551Y-126427745D01*
X158727542Y-126401736D01*
X158720969Y-126390669D01*
X158702124Y-126381246D01*
X158683614Y-126371139D01*
X158682122Y-126371245D01*
X158617827Y-126339098D01*
X158611774Y-126332660D01*
X158598128Y-126329248D01*
X158595801Y-126328085D01*
X158587495Y-126326590D01*
X158407652Y-126281629D01*
X158331028Y-126243318D01*
X158300967Y-126213256D01*
X158266976Y-126145273D01*
X158266976Y-126086154D01*
X158300966Y-126018172D01*
X158331031Y-125988108D01*
X158399010Y-125954119D01*
X158606632Y-125954119D01*
X158748148Y-126001291D01*
X158781586Y-126002500D01*
X158820233Y-125979594D01*
X158840360Y-125939429D01*
X158835578Y-125894760D01*
X158807405Y-125859767D01*
X158652337Y-125808077D01*
X158641510Y-125801119D01*
X158620440Y-125801119D01*
X158599364Y-125800357D01*
X158598078Y-125801119D01*
X158385069Y-125801119D01*
X158366831Y-125799150D01*
X158352849Y-125806140D01*
X158337847Y-125810546D01*
X158333113Y-125816008D01*
X158260081Y-125852524D01*
X158247504Y-125855261D01*
X158232608Y-125870156D01*
X158217164Y-125884523D01*
X158216793Y-125885971D01*
X158190784Y-125911980D01*
X158179717Y-125918554D01*
X158170294Y-125937398D01*
X158160187Y-125955909D01*
X158160293Y-125957400D01*
X158123895Y-126030196D01*
X158113976Y-126045632D01*
X158113976Y-126061265D01*
X158111207Y-126076653D01*
X157627643Y-126076653D01*
X157627643Y-125245143D01*
X169269142Y-125245143D01*
X169269142Y-127372357D01*
G37*
X162830000Y-121809523D02*
X162877619Y-121666666D01*
X162877619Y-121666666D02*
X162877619Y-121428571D01*
X162877619Y-121428571D02*
X162830000Y-121333333D01*
X162830000Y-121333333D02*
X162782380Y-121285714D01*
X162782380Y-121285714D02*
X162687142Y-121238095D01*
X162687142Y-121238095D02*
X162591904Y-121238095D01*
X162591904Y-121238095D02*
X162496666Y-121285714D01*
X162496666Y-121285714D02*
X162449047Y-121333333D01*
X162449047Y-121333333D02*
X162401428Y-121428571D01*
X162401428Y-121428571D02*
X162353809Y-121619047D01*
X162353809Y-121619047D02*
X162306190Y-121714285D01*
X162306190Y-121714285D02*
X162258571Y-121761904D01*
X162258571Y-121761904D02*
X162163333Y-121809523D01*
X162163333Y-121809523D02*
X162068095Y-121809523D01*
X162068095Y-121809523D02*
X161972857Y-121761904D01*
X161972857Y-121761904D02*
X161925238Y-121714285D01*
X161925238Y-121714285D02*
X161877619Y-121619047D01*
X161877619Y-121619047D02*
X161877619Y-121380952D01*
X161877619Y-121380952D02*
X161925238Y-121238095D01*
X162782380Y-120238095D02*
X162830000Y-120285714D01*
X162830000Y-120285714D02*
X162877619Y-120428571D01*
X162877619Y-120428571D02*
X162877619Y-120523809D01*
X162877619Y-120523809D02*
X162830000Y-120666666D01*
X162830000Y-120666666D02*
X162734761Y-120761904D01*
X162734761Y-120761904D02*
X162639523Y-120809523D01*
X162639523Y-120809523D02*
X162449047Y-120857142D01*
X162449047Y-120857142D02*
X162306190Y-120857142D01*
X162306190Y-120857142D02*
X162115714Y-120809523D01*
X162115714Y-120809523D02*
X162020476Y-120761904D01*
X162020476Y-120761904D02*
X161925238Y-120666666D01*
X161925238Y-120666666D02*
X161877619Y-120523809D01*
X161877619Y-120523809D02*
X161877619Y-120428571D01*
X161877619Y-120428571D02*
X161925238Y-120285714D01*
X161925238Y-120285714D02*
X161972857Y-120238095D01*
X162877619Y-119333333D02*
X162877619Y-119809523D01*
X162877619Y-119809523D02*
X161877619Y-119809523D01*
X162877619Y-118999999D02*
X161877619Y-118999999D01*
X162877619Y-118428571D02*
X162306190Y-118857142D01*
X161877619Y-118428571D02*
X162449047Y-118999999D01*
D11*
X167407142Y-62026428D02*
X167407142Y-60526428D01*
X167407142Y-60526428D02*
X167907142Y-61597857D01*
X167907142Y-61597857D02*
X168407142Y-60526428D01*
X168407142Y-60526428D02*
X168407142Y-62026428D01*
X169835714Y-62026428D02*
X169121428Y-62026428D01*
X169121428Y-62026428D02*
X169121428Y-60526428D01*
X170835714Y-61240714D02*
X171050000Y-61312142D01*
X171050000Y-61312142D02*
X171121429Y-61383571D01*
X171121429Y-61383571D02*
X171192857Y-61526428D01*
X171192857Y-61526428D02*
X171192857Y-61740714D01*
X171192857Y-61740714D02*
X171121429Y-61883571D01*
X171121429Y-61883571D02*
X171050000Y-61955000D01*
X171050000Y-61955000D02*
X170907143Y-62026428D01*
X170907143Y-62026428D02*
X170335714Y-62026428D01*
X170335714Y-62026428D02*
X170335714Y-60526428D01*
X170335714Y-60526428D02*
X170835714Y-60526428D01*
X170835714Y-60526428D02*
X170978572Y-60597857D01*
X170978572Y-60597857D02*
X171050000Y-60669285D01*
X171050000Y-60669285D02*
X171121429Y-60812142D01*
X171121429Y-60812142D02*
X171121429Y-60955000D01*
X171121429Y-60955000D02*
X171050000Y-61097857D01*
X171050000Y-61097857D02*
X170978572Y-61169285D01*
X170978572Y-61169285D02*
X170835714Y-61240714D01*
X170835714Y-61240714D02*
X170335714Y-61240714D01*
D10*
X188738095Y-104996666D02*
X189500000Y-104996666D01*
X189119047Y-105377619D02*
X189119047Y-104615714D01*
X189880952Y-104377619D02*
X190499999Y-104377619D01*
X190499999Y-104377619D02*
X190166666Y-104758571D01*
X190166666Y-104758571D02*
X190309523Y-104758571D01*
X190309523Y-104758571D02*
X190404761Y-104806190D01*
X190404761Y-104806190D02*
X190452380Y-104853809D01*
X190452380Y-104853809D02*
X190499999Y-104949047D01*
X190499999Y-104949047D02*
X190499999Y-105187142D01*
X190499999Y-105187142D02*
X190452380Y-105282380D01*
X190452380Y-105282380D02*
X190404761Y-105330000D01*
X190404761Y-105330000D02*
X190309523Y-105377619D01*
X190309523Y-105377619D02*
X190023809Y-105377619D01*
X190023809Y-105377619D02*
X189928571Y-105330000D01*
X189928571Y-105330000D02*
X189880952Y-105282380D01*
X190785714Y-104377619D02*
X191119047Y-105377619D01*
X191119047Y-105377619D02*
X191452380Y-104377619D01*
X191690476Y-104377619D02*
X192309523Y-104377619D01*
X192309523Y-104377619D02*
X191976190Y-104758571D01*
X191976190Y-104758571D02*
X192119047Y-104758571D01*
X192119047Y-104758571D02*
X192214285Y-104806190D01*
X192214285Y-104806190D02*
X192261904Y-104853809D01*
X192261904Y-104853809D02*
X192309523Y-104949047D01*
X192309523Y-104949047D02*
X192309523Y-105187142D01*
X192309523Y-105187142D02*
X192261904Y-105282380D01*
X192261904Y-105282380D02*
X192214285Y-105330000D01*
X192214285Y-105330000D02*
X192119047Y-105377619D01*
X192119047Y-105377619D02*
X191833333Y-105377619D01*
X191833333Y-105377619D02*
X191738095Y-105330000D01*
X191738095Y-105330000D02*
X191690476Y-105282380D01*
G36*
X189322433Y-126515404D02*
G01*
X189058520Y-126515404D01*
X189190476Y-126119534D01*
X189322433Y-126515404D01*
G37*
G36*
X181668970Y-125988109D02*
G01*
X181740446Y-126059586D01*
X181780642Y-126220369D01*
X181780642Y-126534867D01*
X181740446Y-126695650D01*
X181668969Y-126767128D01*
X181600988Y-126801119D01*
X181446630Y-126801119D01*
X181378648Y-126767128D01*
X181307171Y-126695650D01*
X181266976Y-126534866D01*
X181266976Y-126220370D01*
X181307172Y-126059585D01*
X181378648Y-125988109D01*
X181446629Y-125954119D01*
X181600988Y-125954119D01*
X181668970Y-125988109D01*
G37*
G36*
X186668970Y-125988109D02*
G01*
X186740446Y-126059586D01*
X186780642Y-126220369D01*
X186780642Y-126534866D01*
X186740446Y-126695650D01*
X186668969Y-126767128D01*
X186600988Y-126801119D01*
X186446630Y-126801119D01*
X186378648Y-126767128D01*
X186307171Y-126695650D01*
X186266976Y-126534867D01*
X186266976Y-126220370D01*
X186307172Y-126059585D01*
X186378648Y-125988109D01*
X186446629Y-125954119D01*
X186600988Y-125954119D01*
X186668970Y-125988109D01*
G37*
G36*
X180668969Y-125988109D02*
G01*
X180699033Y-126018174D01*
X180733023Y-126086153D01*
X180733023Y-126192893D01*
X180699032Y-126260875D01*
X180668970Y-126290936D01*
X180600988Y-126324928D01*
X180314595Y-126324928D01*
X180314595Y-125954119D01*
X180600988Y-125954119D01*
X180668969Y-125988109D01*
G37*
G36*
X190935810Y-127372357D02*
G01*
X179627643Y-127372357D01*
X179627643Y-126412775D01*
X180159177Y-126412775D01*
X180161595Y-126418069D01*
X180161595Y-126888619D01*
X180171022Y-126920724D01*
X180204974Y-126950144D01*
X180249442Y-126956537D01*
X180290307Y-126937875D01*
X180314595Y-126900082D01*
X180314595Y-126541047D01*
X181110812Y-126541047D01*
X181113976Y-126553702D01*
X181113976Y-126555285D01*
X181116637Y-126564350D01*
X181163587Y-126752146D01*
X181168117Y-126772971D01*
X181177072Y-126781926D01*
X181183479Y-126792846D01*
X181192627Y-126797482D01*
X181272457Y-126877312D01*
X181279030Y-126888378D01*
X181297867Y-126897796D01*
X181316385Y-126907908D01*
X181317876Y-126907801D01*
X181390672Y-126944199D01*
X181406108Y-126954119D01*
X181421742Y-126954119D01*
X181437129Y-126956888D01*
X181443805Y-126954119D01*
X181614929Y-126954119D01*
X181633167Y-126956088D01*
X181647147Y-126949097D01*
X181662152Y-126944692D01*
X181666886Y-126939228D01*
X181739915Y-126902713D01*
X181752495Y-126899977D01*
X181767397Y-126885074D01*
X181782835Y-126870715D01*
X181783205Y-126869266D01*
X181862773Y-126789697D01*
X181878291Y-126775107D01*
X181881362Y-126762822D01*
X181887431Y-126751708D01*
X181886699Y-126741474D01*
X181928304Y-126575052D01*
X181933642Y-126566748D01*
X181933642Y-126553703D01*
X181934026Y-126552168D01*
X181933641Y-126542721D01*
X181933642Y-126223542D01*
X181936806Y-126214190D01*
X181933642Y-126201534D01*
X181933642Y-126199952D01*
X181930980Y-126190887D01*
X181884025Y-126003067D01*
X181879500Y-125982266D01*
X181870548Y-125973314D01*
X181864139Y-125962390D01*
X181854985Y-125957751D01*
X181786200Y-125888966D01*
X182063939Y-125888966D01*
X182082601Y-125929831D01*
X182120394Y-125954119D01*
X182352071Y-125954119D01*
X182352071Y-126888619D01*
X182361498Y-126920724D01*
X182395450Y-126950144D01*
X182439918Y-126956537D01*
X182480783Y-126937875D01*
X182505071Y-126900082D01*
X182505071Y-126888966D01*
X182968701Y-126888966D01*
X182975759Y-126904421D01*
X182980546Y-126920724D01*
X182984944Y-126924535D01*
X182987363Y-126929831D01*
X183001657Y-126939017D01*
X183014498Y-126950144D01*
X183020259Y-126950972D01*
X183025156Y-126954119D01*
X183042147Y-126954119D01*
X183058966Y-126956537D01*
X183064261Y-126954119D01*
X183534809Y-126954119D01*
X183566914Y-126944692D01*
X183596334Y-126910740D01*
X183602727Y-126866272D01*
X183584065Y-126825407D01*
X183546272Y-126801119D01*
X183124119Y-126801119D01*
X183124119Y-126430309D01*
X183391952Y-126430309D01*
X183424057Y-126420882D01*
X183453477Y-126386930D01*
X183459870Y-126342462D01*
X183441208Y-126301597D01*
X183403415Y-126277309D01*
X183124119Y-126277309D01*
X183124119Y-125954119D01*
X183534809Y-125954119D01*
X183566914Y-125944692D01*
X183596334Y-125910740D01*
X183598443Y-125896070D01*
X183874816Y-125896070D01*
X183875881Y-125897933D01*
X183875881Y-126888619D01*
X183885308Y-126920724D01*
X183919260Y-126950144D01*
X183963728Y-126956537D01*
X184004593Y-126937875D01*
X184028881Y-126900082D01*
X184028881Y-126165684D01*
X184452935Y-126907780D01*
X184456736Y-126920724D01*
X184472208Y-126934130D01*
X184486959Y-126948322D01*
X184489065Y-126948737D01*
X184490688Y-126950144D01*
X184510948Y-126953056D01*
X184531034Y-126957021D01*
X184533031Y-126956231D01*
X184535156Y-126956537D01*
X184553783Y-126948030D01*
X184572815Y-126940509D01*
X184574067Y-126938767D01*
X184576021Y-126937875D01*
X184587089Y-126920651D01*
X184599037Y-126904032D01*
X184599148Y-126901887D01*
X184600309Y-126900082D01*
X184600309Y-126879613D01*
X184601374Y-126859168D01*
X184600309Y-126857304D01*
X184600309Y-125888966D01*
X184778225Y-125888966D01*
X184796887Y-125929831D01*
X184834680Y-125954119D01*
X185066357Y-125954119D01*
X185066357Y-126888619D01*
X185075784Y-126920724D01*
X185109736Y-126950144D01*
X185154204Y-126956537D01*
X185195069Y-126937875D01*
X185219357Y-126900082D01*
X185219357Y-126888619D01*
X185685405Y-126888619D01*
X185694832Y-126920724D01*
X185728784Y-126950144D01*
X185773252Y-126956537D01*
X185814117Y-126937875D01*
X185838405Y-126900082D01*
X185838405Y-126541047D01*
X186110812Y-126541047D01*
X186113976Y-126553702D01*
X186113976Y-126555285D01*
X186116637Y-126564350D01*
X186163587Y-126752146D01*
X186168117Y-126772971D01*
X186177072Y-126781926D01*
X186183479Y-126792846D01*
X186192627Y-126797482D01*
X186272457Y-126877312D01*
X186279030Y-126888378D01*
X186297867Y-126897796D01*
X186316385Y-126907908D01*
X186317876Y-126907801D01*
X186390672Y-126944199D01*
X186406108Y-126954119D01*
X186421742Y-126954119D01*
X186437129Y-126956888D01*
X186443805Y-126954119D01*
X186614929Y-126954119D01*
X186633167Y-126956088D01*
X186647147Y-126949097D01*
X186662152Y-126944692D01*
X186666886Y-126939228D01*
X186739915Y-126902713D01*
X186752495Y-126899977D01*
X186767397Y-126885074D01*
X186782835Y-126870715D01*
X186783205Y-126869266D01*
X186862773Y-126789697D01*
X186878291Y-126775107D01*
X186881362Y-126762822D01*
X186887431Y-126751708D01*
X186886699Y-126741474D01*
X186928304Y-126575052D01*
X186933642Y-126566748D01*
X186933642Y-126553703D01*
X186934026Y-126552168D01*
X186933641Y-126542721D01*
X186933642Y-126223542D01*
X186936806Y-126214190D01*
X186933642Y-126201533D01*
X186933642Y-126199952D01*
X186930980Y-126190887D01*
X186902421Y-126076653D01*
X187158826Y-126076653D01*
X187161595Y-126083329D01*
X187161595Y-126159214D01*
X187159626Y-126177453D01*
X187166616Y-126191433D01*
X187171022Y-126206438D01*
X187176485Y-126211172D01*
X187213000Y-126284201D01*
X187215737Y-126296781D01*
X187230643Y-126311687D01*
X187244999Y-126327121D01*
X187246446Y-126327491D01*
X187272457Y-126353501D01*
X187279030Y-126364568D01*
X187297875Y-126373990D01*
X187316385Y-126384097D01*
X187317874Y-126383990D01*
X187382171Y-126416138D01*
X187388225Y-126422577D01*
X187401871Y-126425988D01*
X187404198Y-126427152D01*
X187412502Y-126428646D01*
X187592347Y-126473607D01*
X187668969Y-126511918D01*
X187699033Y-126541983D01*
X187733023Y-126609961D01*
X187733023Y-126669083D01*
X187699032Y-126737064D01*
X187668969Y-126767128D01*
X187600988Y-126801119D01*
X187393366Y-126801119D01*
X187251851Y-126753947D01*
X187218412Y-126752738D01*
X187179766Y-126775644D01*
X187159639Y-126815809D01*
X187164420Y-126860478D01*
X187192593Y-126895471D01*
X187347661Y-126947160D01*
X187358489Y-126954119D01*
X187379559Y-126954119D01*
X187400634Y-126954881D01*
X187401920Y-126954119D01*
X187614929Y-126954119D01*
X187633167Y-126956088D01*
X187647147Y-126949097D01*
X187662152Y-126944692D01*
X187666886Y-126939228D01*
X187739915Y-126902713D01*
X187752496Y-126899977D01*
X187767407Y-126885065D01*
X187782835Y-126870715D01*
X187783205Y-126869266D01*
X187809214Y-126843256D01*
X187820282Y-126836683D01*
X187829706Y-126817834D01*
X187839812Y-126799327D01*
X187839705Y-126797836D01*
X187876103Y-126725040D01*
X187886023Y-126709605D01*
X187886023Y-126693971D01*
X187888792Y-126678584D01*
X187886023Y-126671907D01*
X187886023Y-126596021D01*
X187887992Y-126577783D01*
X187881001Y-126563801D01*
X187876596Y-126548799D01*
X187871133Y-126544065D01*
X187834617Y-126471033D01*
X187831881Y-126458456D01*
X187816985Y-126443560D01*
X187802619Y-126428116D01*
X187801170Y-126427745D01*
X187775161Y-126401736D01*
X187768588Y-126390669D01*
X187749743Y-126381246D01*
X187731233Y-126371139D01*
X187729741Y-126371245D01*
X187665446Y-126339098D01*
X187659393Y-126332660D01*
X187645746Y-126329248D01*
X187643420Y-126328085D01*
X187635114Y-126326590D01*
X187455270Y-126281629D01*
X187378648Y-126243318D01*
X187348586Y-126213255D01*
X187314595Y-126145274D01*
X187314595Y-126086154D01*
X187348585Y-126018172D01*
X187378650Y-125988108D01*
X187446629Y-125954119D01*
X187654251Y-125954119D01*
X187795767Y-126001291D01*
X187829205Y-126002500D01*
X187867852Y-125979594D01*
X187887979Y-125939429D01*
X187883197Y-125894760D01*
X187878532Y-125888966D01*
X188016320Y-125888966D01*
X188034982Y-125929831D01*
X188072775Y-125954119D01*
X188304452Y-125954119D01*
X188304452Y-126888619D01*
X188313879Y-126920724D01*
X188347831Y-126950144D01*
X188392299Y-126956537D01*
X188433164Y-126937875D01*
X188457452Y-126900082D01*
X188457452Y-126897302D01*
X188779881Y-126897302D01*
X188802787Y-126935948D01*
X188842952Y-126956075D01*
X188887621Y-126951294D01*
X188922614Y-126923121D01*
X189007520Y-126668404D01*
X189373433Y-126668404D01*
X189454713Y-126912245D01*
X189473809Y-126939722D01*
X189515322Y-126956896D01*
X189559530Y-126948899D01*
X189592396Y-126918272D01*
X189603487Y-126874737D01*
X189506867Y-126584878D01*
X189507489Y-126580557D01*
X189499854Y-126563839D01*
X189274896Y-125888966D01*
X189635368Y-125888966D01*
X189654030Y-125929831D01*
X189691823Y-125954119D01*
X189923500Y-125954119D01*
X189923500Y-126888619D01*
X189932927Y-126920724D01*
X189966879Y-126950144D01*
X190011347Y-126956537D01*
X190052212Y-126937875D01*
X190076500Y-126900082D01*
X190076500Y-125954119D01*
X190296714Y-125954119D01*
X190328819Y-125944692D01*
X190358239Y-125910740D01*
X190364632Y-125866272D01*
X190345970Y-125825407D01*
X190308177Y-125801119D01*
X190005472Y-125801119D01*
X189988653Y-125798701D01*
X189983358Y-125801119D01*
X189703286Y-125801119D01*
X189671181Y-125810546D01*
X189641761Y-125844498D01*
X189635368Y-125888966D01*
X189274896Y-125888966D01*
X189267426Y-125866555D01*
X189267738Y-125857937D01*
X189260461Y-125845659D01*
X189259572Y-125842992D01*
X189254871Y-125836229D01*
X189244832Y-125819290D01*
X189242172Y-125817957D01*
X189240476Y-125815516D01*
X189222271Y-125807984D01*
X189204667Y-125799163D01*
X189201712Y-125799479D01*
X189198963Y-125798342D01*
X189179574Y-125801849D01*
X189159998Y-125803945D01*
X189157682Y-125805809D01*
X189154755Y-125806339D01*
X189140341Y-125819770D01*
X189125005Y-125832118D01*
X189124064Y-125834938D01*
X189121889Y-125836966D01*
X189117025Y-125856057D01*
X188884613Y-126553292D01*
X188879856Y-126558783D01*
X188877635Y-126574225D01*
X188781090Y-126863863D01*
X188779881Y-126897302D01*
X188457452Y-126897302D01*
X188457452Y-125954119D01*
X188677666Y-125954119D01*
X188709771Y-125944692D01*
X188739191Y-125910740D01*
X188745584Y-125866272D01*
X188726922Y-125825407D01*
X188689129Y-125801119D01*
X188386424Y-125801119D01*
X188369605Y-125798701D01*
X188364310Y-125801119D01*
X188084238Y-125801119D01*
X188052133Y-125810546D01*
X188022713Y-125844498D01*
X188016320Y-125888966D01*
X187878532Y-125888966D01*
X187855024Y-125859767D01*
X187699956Y-125808077D01*
X187689129Y-125801119D01*
X187668059Y-125801119D01*
X187646983Y-125800357D01*
X187645697Y-125801119D01*
X187432688Y-125801119D01*
X187414450Y-125799150D01*
X187400468Y-125806140D01*
X187385466Y-125810546D01*
X187380732Y-125816008D01*
X187307700Y-125852524D01*
X187295123Y-125855261D01*
X187280227Y-125870156D01*
X187264783Y-125884523D01*
X187264412Y-125885971D01*
X187238403Y-125911980D01*
X187227336Y-125918554D01*
X187217913Y-125937398D01*
X187207806Y-125955909D01*
X187207912Y-125957400D01*
X187171514Y-126030196D01*
X187161595Y-126045632D01*
X187161595Y-126061265D01*
X187158826Y-126076653D01*
X186902421Y-126076653D01*
X186884025Y-126003067D01*
X186879500Y-125982266D01*
X186870548Y-125973314D01*
X186864139Y-125962390D01*
X186854985Y-125957751D01*
X186775161Y-125877927D01*
X186768588Y-125866860D01*
X186749743Y-125857437D01*
X186731233Y-125847330D01*
X186729741Y-125847436D01*
X186656945Y-125811038D01*
X186641510Y-125801119D01*
X186625876Y-125801119D01*
X186610489Y-125798350D01*
X186603813Y-125801119D01*
X186432688Y-125801119D01*
X186414450Y-125799150D01*
X186400468Y-125806140D01*
X186385466Y-125810546D01*
X186380732Y-125816008D01*
X186307700Y-125852524D01*
X186295123Y-125855261D01*
X186280227Y-125870156D01*
X186264783Y-125884523D01*
X186264412Y-125885971D01*
X186184846Y-125965537D01*
X186169327Y-125980130D01*
X186166256Y-125992413D01*
X186160187Y-126003528D01*
X186160918Y-126013762D01*
X186119313Y-126180183D01*
X186113976Y-126188489D01*
X186113976Y-126201534D01*
X186113592Y-126203070D01*
X186113976Y-126212516D01*
X186113976Y-126531694D01*
X186110812Y-126541047D01*
X185838405Y-126541047D01*
X185838405Y-125866619D01*
X185828978Y-125834514D01*
X185795026Y-125805094D01*
X185750558Y-125798701D01*
X185709693Y-125817363D01*
X185685405Y-125855156D01*
X185685405Y-126888619D01*
X185219357Y-126888619D01*
X185219357Y-125954119D01*
X185439571Y-125954119D01*
X185471676Y-125944692D01*
X185501096Y-125910740D01*
X185507489Y-125866272D01*
X185488827Y-125825407D01*
X185451034Y-125801119D01*
X185148329Y-125801119D01*
X185131510Y-125798701D01*
X185126215Y-125801119D01*
X184846143Y-125801119D01*
X184814038Y-125810546D01*
X184784618Y-125844498D01*
X184778225Y-125888966D01*
X184600309Y-125888966D01*
X184600309Y-125866619D01*
X184590882Y-125834514D01*
X184556930Y-125805094D01*
X184512462Y-125798701D01*
X184471597Y-125817363D01*
X184447309Y-125855156D01*
X184447309Y-126589553D01*
X184023254Y-125847457D01*
X184019454Y-125834514D01*
X184003981Y-125821107D01*
X183989231Y-125806916D01*
X183987124Y-125806500D01*
X183985502Y-125805094D01*
X183965241Y-125802181D01*
X183945156Y-125798217D01*
X183943158Y-125799006D01*
X183941034Y-125798701D01*
X183922406Y-125807207D01*
X183903375Y-125814729D01*
X183902123Y-125816470D01*
X183900169Y-125817363D01*
X183889096Y-125834591D01*
X183877153Y-125851207D01*
X183877041Y-125853350D01*
X183875881Y-125855156D01*
X183875881Y-125875625D01*
X183874816Y-125896070D01*
X183598443Y-125896070D01*
X183602727Y-125866272D01*
X183584065Y-125825407D01*
X183546272Y-125801119D01*
X183053091Y-125801119D01*
X183036272Y-125798701D01*
X183020816Y-125805759D01*
X183004514Y-125810546D01*
X183000702Y-125814944D01*
X182995407Y-125817363D01*
X182986220Y-125831657D01*
X182975094Y-125844498D01*
X182974265Y-125850259D01*
X182971119Y-125855156D01*
X182971119Y-125872147D01*
X182968701Y-125888966D01*
X182971119Y-125894260D01*
X182971119Y-126348337D01*
X182968701Y-126365156D01*
X182971119Y-126370450D01*
X182971119Y-126872147D01*
X182968701Y-126888966D01*
X182505071Y-126888966D01*
X182505071Y-125954119D01*
X182725285Y-125954119D01*
X182757390Y-125944692D01*
X182786810Y-125910740D01*
X182793203Y-125866272D01*
X182774541Y-125825407D01*
X182736748Y-125801119D01*
X182434043Y-125801119D01*
X182417224Y-125798701D01*
X182411929Y-125801119D01*
X182131857Y-125801119D01*
X182099752Y-125810546D01*
X182070332Y-125844498D01*
X182063939Y-125888966D01*
X181786200Y-125888966D01*
X181775161Y-125877927D01*
X181768588Y-125866860D01*
X181749743Y-125857437D01*
X181731233Y-125847330D01*
X181729741Y-125847436D01*
X181656945Y-125811038D01*
X181641510Y-125801119D01*
X181625876Y-125801119D01*
X181610489Y-125798350D01*
X181603813Y-125801119D01*
X181432688Y-125801119D01*
X181414450Y-125799150D01*
X181400468Y-125806140D01*
X181385466Y-125810546D01*
X181380732Y-125816008D01*
X181307700Y-125852524D01*
X181295123Y-125855261D01*
X181280227Y-125870156D01*
X181264783Y-125884523D01*
X181264412Y-125885971D01*
X181184846Y-125965537D01*
X181169327Y-125980130D01*
X181166256Y-125992413D01*
X181160187Y-126003528D01*
X181160918Y-126013762D01*
X181119313Y-126180183D01*
X181113976Y-126188489D01*
X181113976Y-126201533D01*
X181113592Y-126203070D01*
X181113976Y-126212516D01*
X181113976Y-126531694D01*
X181110812Y-126541047D01*
X180314595Y-126541047D01*
X180314595Y-126477928D01*
X180614929Y-126477928D01*
X180633167Y-126479897D01*
X180647147Y-126472906D01*
X180662152Y-126468501D01*
X180666886Y-126463037D01*
X180739915Y-126426522D01*
X180752495Y-126423786D01*
X180767401Y-126408879D01*
X180782835Y-126394524D01*
X180783205Y-126393076D01*
X180809215Y-126367065D01*
X180820282Y-126360493D01*
X180829704Y-126341647D01*
X180839811Y-126323138D01*
X180839704Y-126321648D01*
X180876103Y-126248850D01*
X180886023Y-126233415D01*
X180886023Y-126217781D01*
X180888792Y-126202394D01*
X180886023Y-126195717D01*
X180886023Y-126072212D01*
X180887992Y-126053974D01*
X180881001Y-126039992D01*
X180876596Y-126024990D01*
X180871133Y-126020256D01*
X180834617Y-125947224D01*
X180831881Y-125934647D01*
X180816985Y-125919751D01*
X180802619Y-125904307D01*
X180801170Y-125903936D01*
X180775161Y-125877927D01*
X180768588Y-125866860D01*
X180749743Y-125857437D01*
X180731233Y-125847330D01*
X180729741Y-125847436D01*
X180656945Y-125811038D01*
X180641510Y-125801119D01*
X180625876Y-125801119D01*
X180610489Y-125798350D01*
X180603813Y-125801119D01*
X180243567Y-125801119D01*
X180226748Y-125798701D01*
X180211292Y-125805759D01*
X180194990Y-125810546D01*
X180191178Y-125814944D01*
X180185883Y-125817363D01*
X180176696Y-125831657D01*
X180165570Y-125844498D01*
X180164741Y-125850259D01*
X180161595Y-125855156D01*
X180161595Y-125872147D01*
X180159177Y-125888966D01*
X180161595Y-125894260D01*
X180161595Y-126395956D01*
X180159177Y-126412775D01*
X179627643Y-126412775D01*
X179627643Y-125245143D01*
X190935810Y-125245143D01*
X190935810Y-127372357D01*
G37*
G36*
X194077724Y-115992102D02*
G01*
X194151414Y-116065792D01*
X194189724Y-116142412D01*
X194233023Y-116315607D01*
X194233023Y-116439629D01*
X194189724Y-116612822D01*
X194151413Y-116689444D01*
X194077723Y-116763135D01*
X193963775Y-116801119D01*
X193814595Y-116801119D01*
X193814595Y-115954119D01*
X193963775Y-115954119D01*
X194077724Y-115992102D01*
G37*
G36*
X198769143Y-117372357D02*
G01*
X193127643Y-117372357D01*
X193127643Y-116888966D01*
X193659177Y-116888966D01*
X193666235Y-116904421D01*
X193671022Y-116920724D01*
X193675420Y-116924535D01*
X193677839Y-116929831D01*
X193692133Y-116939017D01*
X193704974Y-116950144D01*
X193710735Y-116950972D01*
X193715632Y-116954119D01*
X193732623Y-116954119D01*
X193749442Y-116956537D01*
X193754737Y-116954119D01*
X193966597Y-116954119D01*
X193979071Y-116957297D01*
X193999068Y-116950630D01*
X194019295Y-116944692D01*
X194020273Y-116943562D01*
X194139330Y-116903876D01*
X194157257Y-116899977D01*
X194168311Y-116888922D01*
X194181150Y-116880000D01*
X194183913Y-116873320D01*
X194261595Y-116795637D01*
X194272663Y-116789064D01*
X194282087Y-116770215D01*
X194292193Y-116751708D01*
X194292086Y-116750217D01*
X194324233Y-116685922D01*
X194330672Y-116679869D01*
X194334083Y-116666222D01*
X194335247Y-116663896D01*
X194336741Y-116655591D01*
X194380685Y-116479814D01*
X194386023Y-116471510D01*
X194386023Y-116458465D01*
X194386407Y-116456930D01*
X194386023Y-116447483D01*
X194386023Y-116365156D01*
X194659177Y-116365156D01*
X194661595Y-116370450D01*
X194661595Y-116888619D01*
X194671022Y-116920724D01*
X194704974Y-116950144D01*
X194749442Y-116956537D01*
X194790307Y-116937875D01*
X194814595Y-116900082D01*
X194814595Y-116430309D01*
X195233023Y-116430309D01*
X195233023Y-116888619D01*
X195242450Y-116920724D01*
X195276402Y-116950144D01*
X195320870Y-116956537D01*
X195361735Y-116937875D01*
X195386023Y-116900082D01*
X195386023Y-116359280D01*
X195388441Y-116342462D01*
X195386023Y-116337167D01*
X195386023Y-115888966D01*
X195563939Y-115888966D01*
X195582601Y-115929831D01*
X195620394Y-115954119D01*
X195852071Y-115954119D01*
X195852071Y-116888619D01*
X195861498Y-116920724D01*
X195895450Y-116950144D01*
X195939918Y-116956537D01*
X195980783Y-116937875D01*
X196005071Y-116900082D01*
X196005071Y-116166143D01*
X196420320Y-116166143D01*
X196434488Y-116208775D01*
X196469455Y-116236980D01*
X196514120Y-116241802D01*
X196620868Y-116188427D01*
X196633448Y-116185691D01*
X196648351Y-116170787D01*
X196663788Y-116156429D01*
X196664158Y-116154980D01*
X196709214Y-116109925D01*
X196709214Y-116801119D01*
X196489000Y-116801119D01*
X196456895Y-116810546D01*
X196427475Y-116844498D01*
X196421082Y-116888966D01*
X196439744Y-116929831D01*
X196477537Y-116954119D01*
X196780242Y-116954119D01*
X196797061Y-116956537D01*
X196802356Y-116954119D01*
X197082428Y-116954119D01*
X197114533Y-116944692D01*
X197143953Y-116910740D01*
X197150346Y-116866272D01*
X197131684Y-116825407D01*
X197093891Y-116801119D01*
X196862214Y-116801119D01*
X196862214Y-116166143D01*
X197372701Y-116166143D01*
X197386869Y-116208775D01*
X197421836Y-116236980D01*
X197466501Y-116241802D01*
X197573249Y-116188427D01*
X197585829Y-116185691D01*
X197600732Y-116170787D01*
X197616169Y-116156429D01*
X197616539Y-116154980D01*
X197661594Y-116109925D01*
X197661595Y-116801119D01*
X197441381Y-116801119D01*
X197409276Y-116810546D01*
X197379856Y-116844498D01*
X197373463Y-116888966D01*
X197392125Y-116929831D01*
X197429918Y-116954119D01*
X197732623Y-116954119D01*
X197749442Y-116956537D01*
X197754737Y-116954119D01*
X198034809Y-116954119D01*
X198066914Y-116944692D01*
X198096334Y-116910740D01*
X198102727Y-116866272D01*
X198084065Y-116825407D01*
X198046272Y-116801119D01*
X197814595Y-116801119D01*
X197814595Y-115889277D01*
X197817814Y-115878959D01*
X197814594Y-115867273D01*
X197814595Y-115866619D01*
X197811681Y-115856695D01*
X197805883Y-115835647D01*
X197805364Y-115835181D01*
X197805168Y-115834514D01*
X197788679Y-115820226D01*
X197772430Y-115805661D01*
X197771742Y-115805550D01*
X197771216Y-115805094D01*
X197749627Y-115801990D01*
X197728076Y-115798521D01*
X197727436Y-115798800D01*
X197726748Y-115798701D01*
X197706900Y-115807764D01*
X197686904Y-115816494D01*
X197686517Y-115817073D01*
X197685883Y-115817363D01*
X197674063Y-115835754D01*
X197583405Y-115971740D01*
X197502304Y-116052842D01*
X197408330Y-116099829D01*
X197383831Y-116122618D01*
X197372701Y-116166143D01*
X196862214Y-116166143D01*
X196862214Y-115889277D01*
X196865433Y-115878959D01*
X196862214Y-115867273D01*
X196862214Y-115866619D01*
X196859300Y-115856695D01*
X196853502Y-115835647D01*
X196852983Y-115835181D01*
X196852787Y-115834514D01*
X196836298Y-115820226D01*
X196820049Y-115805661D01*
X196819361Y-115805550D01*
X196818835Y-115805094D01*
X196797246Y-115801990D01*
X196775695Y-115798521D01*
X196775055Y-115798800D01*
X196774367Y-115798701D01*
X196754519Y-115807764D01*
X196734523Y-115816494D01*
X196734136Y-115817073D01*
X196733502Y-115817363D01*
X196721682Y-115835754D01*
X196631024Y-115971740D01*
X196549922Y-116052842D01*
X196455949Y-116099829D01*
X196431450Y-116122618D01*
X196420320Y-116166143D01*
X196005071Y-116166143D01*
X196005071Y-115954119D01*
X196225285Y-115954119D01*
X196257390Y-115944692D01*
X196286810Y-115910740D01*
X196293203Y-115866272D01*
X196274541Y-115825407D01*
X196236748Y-115801119D01*
X195934043Y-115801119D01*
X195917224Y-115798701D01*
X195911929Y-115801119D01*
X195631857Y-115801119D01*
X195599752Y-115810546D01*
X195570332Y-115844498D01*
X195563939Y-115888966D01*
X195386023Y-115888966D01*
X195386023Y-115866619D01*
X195376596Y-115834514D01*
X195342644Y-115805094D01*
X195298176Y-115798701D01*
X195257311Y-115817363D01*
X195233023Y-115855156D01*
X195233023Y-116277309D01*
X194814595Y-116277309D01*
X194814595Y-115866619D01*
X194805168Y-115834514D01*
X194771216Y-115805094D01*
X194726748Y-115798701D01*
X194685883Y-115817363D01*
X194661595Y-115855156D01*
X194661595Y-116348337D01*
X194659177Y-116365156D01*
X194386023Y-116365156D01*
X194386023Y-116318780D01*
X194389187Y-116309428D01*
X194386023Y-116296771D01*
X194386023Y-116295190D01*
X194383361Y-116286125D01*
X194339424Y-116110378D01*
X194340373Y-116101593D01*
X194334083Y-116089013D01*
X194333452Y-116086488D01*
X194329178Y-116079203D01*
X194286998Y-115994843D01*
X194284262Y-115982266D01*
X194269366Y-115967370D01*
X194255000Y-115951926D01*
X194253551Y-115951555D01*
X194176052Y-115874056D01*
X194164548Y-115859767D01*
X194149718Y-115854823D01*
X194135995Y-115847330D01*
X194128784Y-115847845D01*
X194009480Y-115808077D01*
X193998653Y-115801119D01*
X193977583Y-115801119D01*
X193956507Y-115800357D01*
X193955221Y-115801119D01*
X193743567Y-115801119D01*
X193726748Y-115798701D01*
X193711292Y-115805759D01*
X193694990Y-115810546D01*
X193691178Y-115814944D01*
X193685883Y-115817363D01*
X193676696Y-115831657D01*
X193665570Y-115844498D01*
X193664741Y-115850259D01*
X193661595Y-115855156D01*
X193661595Y-115872147D01*
X193659177Y-115888966D01*
X193661595Y-115894260D01*
X193661595Y-116872147D01*
X193659177Y-116888966D01*
X193127643Y-116888966D01*
X193127643Y-115245143D01*
X198769143Y-115245143D01*
X198769143Y-117372357D01*
G37*
G36*
X151168970Y-96988109D02*
G01*
X151240446Y-97059586D01*
X151280642Y-97220369D01*
X151280642Y-97534866D01*
X151240446Y-97695650D01*
X151168969Y-97767128D01*
X151100988Y-97801119D01*
X150946630Y-97801119D01*
X150878648Y-97767128D01*
X150807171Y-97695650D01*
X150766976Y-97534867D01*
X150766976Y-97220370D01*
X150807172Y-97059585D01*
X150878648Y-96988109D01*
X150946629Y-96954119D01*
X151100988Y-96954119D01*
X151168970Y-96988109D01*
G37*
G36*
X150168969Y-96988109D02*
G01*
X150199033Y-97018174D01*
X150233023Y-97086153D01*
X150233023Y-97192893D01*
X150199032Y-97260875D01*
X150168970Y-97290936D01*
X150100988Y-97324928D01*
X149814595Y-97324928D01*
X149814595Y-96954119D01*
X150100988Y-96954119D01*
X150168969Y-96988109D01*
G37*
G36*
X154264207Y-96988109D02*
G01*
X154294271Y-97018174D01*
X154328261Y-97086153D01*
X154328261Y-97192893D01*
X154294270Y-97260874D01*
X154264207Y-97290937D01*
X154196226Y-97324928D01*
X154075382Y-97324928D01*
X154056972Y-97323020D01*
X154053196Y-97324928D01*
X153909833Y-97324928D01*
X153909833Y-96954119D01*
X154196226Y-96954119D01*
X154264207Y-96988109D01*
G37*
G36*
X157435809Y-98372357D02*
G01*
X149127643Y-98372357D01*
X149127643Y-97412775D01*
X149659177Y-97412775D01*
X149661595Y-97418069D01*
X149661595Y-97888619D01*
X149671022Y-97920724D01*
X149704974Y-97950144D01*
X149749442Y-97956537D01*
X149790307Y-97937875D01*
X149814595Y-97900082D01*
X149814595Y-97541047D01*
X150610812Y-97541047D01*
X150613976Y-97553702D01*
X150613976Y-97555285D01*
X150616637Y-97564350D01*
X150663587Y-97752146D01*
X150668117Y-97772971D01*
X150677072Y-97781926D01*
X150683479Y-97792846D01*
X150692627Y-97797482D01*
X150772457Y-97877312D01*
X150779030Y-97888378D01*
X150797867Y-97897796D01*
X150816385Y-97907908D01*
X150817876Y-97907801D01*
X150890672Y-97944199D01*
X150906108Y-97954119D01*
X150921742Y-97954119D01*
X150937129Y-97956888D01*
X150943805Y-97954119D01*
X151114929Y-97954119D01*
X151133167Y-97956088D01*
X151147147Y-97949097D01*
X151162152Y-97944692D01*
X151166886Y-97939228D01*
X151239915Y-97902713D01*
X151252495Y-97899977D01*
X151267397Y-97885074D01*
X151282835Y-97870715D01*
X151283205Y-97869266D01*
X151362773Y-97789697D01*
X151378291Y-97775107D01*
X151381362Y-97762822D01*
X151387431Y-97751708D01*
X151386699Y-97741474D01*
X151428304Y-97575052D01*
X151433642Y-97566748D01*
X151433642Y-97553703D01*
X151434026Y-97552168D01*
X151433641Y-97542721D01*
X151433642Y-97223542D01*
X151436806Y-97214190D01*
X151433642Y-97201533D01*
X151433642Y-97199952D01*
X151430980Y-97190887D01*
X151384025Y-97003067D01*
X151379500Y-96982266D01*
X151370548Y-96973314D01*
X151364139Y-96962390D01*
X151354985Y-96957751D01*
X151275161Y-96877927D01*
X151272523Y-96873486D01*
X151610853Y-96873486D01*
X151852295Y-97887542D01*
X151852656Y-97901986D01*
X151863617Y-97918139D01*
X151873306Y-97935087D01*
X151876106Y-97936545D01*
X151877881Y-97939161D01*
X151895837Y-97946824D01*
X151913149Y-97955843D01*
X151916295Y-97955556D01*
X151919201Y-97956796D01*
X151938451Y-97953535D01*
X151957888Y-97951763D01*
X151960378Y-97949821D01*
X151963494Y-97949294D01*
X151977925Y-97936143D01*
X151993320Y-97924143D01*
X151994366Y-97921161D01*
X151996700Y-97919035D01*
X152001727Y-97900180D01*
X152008194Y-97881752D01*
X152007461Y-97878677D01*
X152119046Y-97460233D01*
X152233541Y-97889588D01*
X152234290Y-97904016D01*
X152245677Y-97919865D01*
X152255821Y-97936551D01*
X152258660Y-97937934D01*
X152260504Y-97940500D01*
X152278649Y-97947674D01*
X152296207Y-97956230D01*
X152299346Y-97955858D01*
X152302282Y-97957019D01*
X152321429Y-97953244D01*
X152340821Y-97950949D01*
X152343258Y-97948941D01*
X152346359Y-97948330D01*
X152360428Y-97934799D01*
X152375498Y-97922388D01*
X152376463Y-97919378D01*
X152378740Y-97917190D01*
X152383260Y-97898205D01*
X152386226Y-97888966D01*
X152849653Y-97888966D01*
X152856711Y-97904421D01*
X152861498Y-97920724D01*
X152865896Y-97924535D01*
X152868315Y-97929831D01*
X152882609Y-97939017D01*
X152895450Y-97950144D01*
X152901211Y-97950972D01*
X152906108Y-97954119D01*
X152923099Y-97954119D01*
X152939918Y-97956537D01*
X152945213Y-97954119D01*
X153415761Y-97954119D01*
X153447866Y-97944692D01*
X153477286Y-97910740D01*
X153483679Y-97866272D01*
X153465017Y-97825407D01*
X153427224Y-97801119D01*
X153005071Y-97801119D01*
X153005071Y-97430309D01*
X153272904Y-97430309D01*
X153305009Y-97420882D01*
X153312034Y-97412775D01*
X153754415Y-97412775D01*
X153756833Y-97418069D01*
X153756833Y-97888619D01*
X153766260Y-97920724D01*
X153800212Y-97950144D01*
X153844680Y-97956537D01*
X153885545Y-97937875D01*
X153909833Y-97900082D01*
X153909833Y-97477928D01*
X154031598Y-97477928D01*
X154348398Y-97930501D01*
X154374532Y-97951396D01*
X154419218Y-97956028D01*
X154459313Y-97935764D01*
X154482089Y-97897041D01*
X154481756Y-97888619D01*
X155518738Y-97888619D01*
X155528165Y-97920724D01*
X155562117Y-97950144D01*
X155606585Y-97956537D01*
X155647450Y-97937875D01*
X155671738Y-97900082D01*
X155671738Y-96896070D01*
X155993863Y-96896070D01*
X155994928Y-96897933D01*
X155994928Y-97888619D01*
X156004355Y-97920724D01*
X156038307Y-97950144D01*
X156082775Y-97956537D01*
X156123640Y-97937875D01*
X156147928Y-97900082D01*
X156147928Y-97165684D01*
X156571982Y-97907780D01*
X156575783Y-97920724D01*
X156591255Y-97934130D01*
X156606006Y-97948322D01*
X156608112Y-97948737D01*
X156609735Y-97950144D01*
X156629995Y-97953056D01*
X156650081Y-97957021D01*
X156652078Y-97956231D01*
X156654203Y-97956537D01*
X156672830Y-97948030D01*
X156691862Y-97940509D01*
X156693114Y-97938767D01*
X156695068Y-97937875D01*
X156706136Y-97920651D01*
X156718084Y-97904032D01*
X156718195Y-97901887D01*
X156719356Y-97900082D01*
X156719356Y-97879613D01*
X156720421Y-97859168D01*
X156719356Y-97857304D01*
X156719356Y-96866619D01*
X156709929Y-96834514D01*
X156675977Y-96805094D01*
X156631509Y-96798701D01*
X156590644Y-96817363D01*
X156566356Y-96855156D01*
X156566356Y-97589553D01*
X156142301Y-96847457D01*
X156138501Y-96834514D01*
X156123028Y-96821107D01*
X156108278Y-96806916D01*
X156106171Y-96806500D01*
X156104549Y-96805094D01*
X156084288Y-96802181D01*
X156064203Y-96798217D01*
X156062205Y-96799006D01*
X156060081Y-96798701D01*
X156041453Y-96807207D01*
X156022422Y-96814729D01*
X156021170Y-96816470D01*
X156019216Y-96817363D01*
X156008143Y-96834591D01*
X155996200Y-96851207D01*
X155996088Y-96853350D01*
X155994928Y-96855156D01*
X155994928Y-96875625D01*
X155993863Y-96896070D01*
X155671738Y-96896070D01*
X155671738Y-96866619D01*
X155662311Y-96834514D01*
X155628359Y-96805094D01*
X155583891Y-96798701D01*
X155543026Y-96817363D01*
X155518738Y-96855156D01*
X155518738Y-97888619D01*
X154481756Y-97888619D01*
X154480314Y-97852152D01*
X154219027Y-97478884D01*
X154228405Y-97479897D01*
X154242385Y-97472906D01*
X154257390Y-97468501D01*
X154262124Y-97463037D01*
X154335153Y-97426522D01*
X154347733Y-97423786D01*
X154362639Y-97408879D01*
X154378073Y-97394524D01*
X154378443Y-97393076D01*
X154404453Y-97367065D01*
X154415520Y-97360493D01*
X154424942Y-97341647D01*
X154435049Y-97323138D01*
X154434942Y-97321648D01*
X154471341Y-97248850D01*
X154481261Y-97233415D01*
X154481261Y-97217781D01*
X154484030Y-97202394D01*
X154481261Y-97195717D01*
X154481261Y-97072212D01*
X154483230Y-97053974D01*
X154476239Y-97039992D01*
X154471834Y-97024990D01*
X154466371Y-97020256D01*
X154429855Y-96947224D01*
X154427119Y-96934647D01*
X154412223Y-96919751D01*
X154397857Y-96904307D01*
X154396408Y-96903936D01*
X154370399Y-96877927D01*
X154363826Y-96866860D01*
X154344981Y-96857437D01*
X154326471Y-96847330D01*
X154324979Y-96847436D01*
X154252183Y-96811038D01*
X154236748Y-96801119D01*
X154221114Y-96801119D01*
X154205727Y-96798350D01*
X154199051Y-96801119D01*
X153838805Y-96801119D01*
X153821986Y-96798701D01*
X153806530Y-96805759D01*
X153790228Y-96810546D01*
X153786416Y-96814944D01*
X153781121Y-96817363D01*
X153771934Y-96831657D01*
X153760808Y-96844498D01*
X153759979Y-96850259D01*
X153756833Y-96855156D01*
X153756833Y-96872147D01*
X153754415Y-96888966D01*
X153756833Y-96894260D01*
X153756833Y-97395956D01*
X153754415Y-97412775D01*
X153312034Y-97412775D01*
X153334429Y-97386930D01*
X153340822Y-97342462D01*
X153322160Y-97301597D01*
X153284367Y-97277309D01*
X153005071Y-97277309D01*
X153005071Y-96954119D01*
X153415761Y-96954119D01*
X153447866Y-96944692D01*
X153477286Y-96910740D01*
X153483679Y-96866272D01*
X153465017Y-96825407D01*
X153427224Y-96801119D01*
X152934043Y-96801119D01*
X152917224Y-96798701D01*
X152901768Y-96805759D01*
X152885466Y-96810546D01*
X152881654Y-96814944D01*
X152876359Y-96817363D01*
X152867172Y-96831657D01*
X152856046Y-96844498D01*
X152855217Y-96850259D01*
X152852071Y-96855156D01*
X152852071Y-96872147D01*
X152849653Y-96888966D01*
X152852071Y-96894260D01*
X152852071Y-97348337D01*
X152849653Y-97365156D01*
X152852071Y-97370450D01*
X152852071Y-97872147D01*
X152849653Y-97888966D01*
X152386226Y-97888966D01*
X152389228Y-97879613D01*
X152388413Y-97876559D01*
X152624586Y-96884637D01*
X152622852Y-96851222D01*
X152596638Y-96814738D01*
X152554860Y-96798219D01*
X152510783Y-96806908D01*
X152478402Y-96838048D01*
X152305324Y-97564973D01*
X152195297Y-97152369D01*
X152194962Y-97138965D01*
X152183421Y-97121956D01*
X152172749Y-97104401D01*
X152170896Y-97103498D01*
X152169737Y-97101790D01*
X152150831Y-97093721D01*
X152132363Y-97084723D01*
X152130313Y-97084965D01*
X152128417Y-97084156D01*
X152108151Y-97087588D01*
X152087749Y-97090003D01*
X152086157Y-97091313D01*
X152084124Y-97091658D01*
X152068931Y-97105502D01*
X152053072Y-97118565D01*
X152052441Y-97120528D01*
X152050918Y-97121917D01*
X152045625Y-97141765D01*
X152039342Y-97161340D01*
X152039873Y-97163333D01*
X151932770Y-97564972D01*
X151762348Y-96849199D01*
X151745741Y-96820151D01*
X151705898Y-96799395D01*
X151661159Y-96803475D01*
X151625727Y-96831095D01*
X151610853Y-96873486D01*
X151272523Y-96873486D01*
X151268588Y-96866860D01*
X151249743Y-96857437D01*
X151231233Y-96847330D01*
X151229741Y-96847436D01*
X151156945Y-96811038D01*
X151141510Y-96801119D01*
X151125876Y-96801119D01*
X151110489Y-96798350D01*
X151103813Y-96801119D01*
X150932688Y-96801119D01*
X150914450Y-96799150D01*
X150900468Y-96806140D01*
X150885466Y-96810546D01*
X150880732Y-96816008D01*
X150807700Y-96852524D01*
X150795123Y-96855261D01*
X150780227Y-96870156D01*
X150764783Y-96884523D01*
X150764412Y-96885971D01*
X150684846Y-96965537D01*
X150669327Y-96980130D01*
X150666256Y-96992413D01*
X150660187Y-97003528D01*
X150660918Y-97013762D01*
X150619313Y-97180183D01*
X150613976Y-97188489D01*
X150613976Y-97201534D01*
X150613592Y-97203070D01*
X150613976Y-97212516D01*
X150613976Y-97531694D01*
X150610812Y-97541047D01*
X149814595Y-97541047D01*
X149814595Y-97477928D01*
X150114929Y-97477928D01*
X150133167Y-97479897D01*
X150147147Y-97472906D01*
X150162152Y-97468501D01*
X150166886Y-97463037D01*
X150239915Y-97426522D01*
X150252495Y-97423786D01*
X150267401Y-97408879D01*
X150282835Y-97394524D01*
X150283205Y-97393076D01*
X150309215Y-97367065D01*
X150320282Y-97360493D01*
X150329704Y-97341647D01*
X150339811Y-97323138D01*
X150339704Y-97321648D01*
X150376103Y-97248850D01*
X150386023Y-97233415D01*
X150386023Y-97217781D01*
X150388792Y-97202394D01*
X150386023Y-97195717D01*
X150386023Y-97072212D01*
X150387992Y-97053974D01*
X150381001Y-97039992D01*
X150376596Y-97024990D01*
X150371133Y-97020256D01*
X150334617Y-96947224D01*
X150331881Y-96934647D01*
X150316985Y-96919751D01*
X150302619Y-96904307D01*
X150301170Y-96903936D01*
X150275161Y-96877927D01*
X150268588Y-96866860D01*
X150249743Y-96857437D01*
X150231233Y-96847330D01*
X150229741Y-96847436D01*
X150156945Y-96811038D01*
X150141510Y-96801119D01*
X150125876Y-96801119D01*
X150110489Y-96798350D01*
X150103813Y-96801119D01*
X149743567Y-96801119D01*
X149726748Y-96798701D01*
X149711292Y-96805759D01*
X149694990Y-96810546D01*
X149691178Y-96814944D01*
X149685883Y-96817363D01*
X149676696Y-96831657D01*
X149665570Y-96844498D01*
X149664741Y-96850259D01*
X149661595Y-96855156D01*
X149661595Y-96872147D01*
X149659177Y-96888966D01*
X149661595Y-96894260D01*
X149661595Y-97395956D01*
X149659177Y-97412775D01*
X149127643Y-97412775D01*
X149127643Y-96245143D01*
X157435809Y-96245143D01*
X157435809Y-98372357D01*
G37*
X147238095Y-105496666D02*
X148000000Y-105496666D01*
X147619047Y-105877619D02*
X147619047Y-105115714D01*
X148380952Y-104877619D02*
X148999999Y-104877619D01*
X148999999Y-104877619D02*
X148666666Y-105258571D01*
X148666666Y-105258571D02*
X148809523Y-105258571D01*
X148809523Y-105258571D02*
X148904761Y-105306190D01*
X148904761Y-105306190D02*
X148952380Y-105353809D01*
X148952380Y-105353809D02*
X148999999Y-105449047D01*
X148999999Y-105449047D02*
X148999999Y-105687142D01*
X148999999Y-105687142D02*
X148952380Y-105782380D01*
X148952380Y-105782380D02*
X148904761Y-105830000D01*
X148904761Y-105830000D02*
X148809523Y-105877619D01*
X148809523Y-105877619D02*
X148523809Y-105877619D01*
X148523809Y-105877619D02*
X148428571Y-105830000D01*
X148428571Y-105830000D02*
X148380952Y-105782380D01*
X149285714Y-104877619D02*
X149619047Y-105877619D01*
X149619047Y-105877619D02*
X149952380Y-104877619D01*
X150190476Y-104877619D02*
X150809523Y-104877619D01*
X150809523Y-104877619D02*
X150476190Y-105258571D01*
X150476190Y-105258571D02*
X150619047Y-105258571D01*
X150619047Y-105258571D02*
X150714285Y-105306190D01*
X150714285Y-105306190D02*
X150761904Y-105353809D01*
X150761904Y-105353809D02*
X150809523Y-105449047D01*
X150809523Y-105449047D02*
X150809523Y-105687142D01*
X150809523Y-105687142D02*
X150761904Y-105782380D01*
X150761904Y-105782380D02*
X150714285Y-105830000D01*
X150714285Y-105830000D02*
X150619047Y-105877619D01*
X150619047Y-105877619D02*
X150333333Y-105877619D01*
X150333333Y-105877619D02*
X150238095Y-105830000D01*
X150238095Y-105830000D02*
X150190476Y-105782380D01*
X157637619Y-117214081D02*
X157542381Y-117166462D01*
X157542381Y-117166462D02*
X157399524Y-117166462D01*
X157399524Y-117166462D02*
X157256667Y-117214081D01*
X157256667Y-117214081D02*
X157161429Y-117309319D01*
X157161429Y-117309319D02*
X157113810Y-117404557D01*
X157113810Y-117404557D02*
X157066191Y-117595033D01*
X157066191Y-117595033D02*
X157066191Y-117737890D01*
X157066191Y-117737890D02*
X157113810Y-117928366D01*
X157113810Y-117928366D02*
X157161429Y-118023604D01*
X157161429Y-118023604D02*
X157256667Y-118118843D01*
X157256667Y-118118843D02*
X157399524Y-118166462D01*
X157399524Y-118166462D02*
X157494762Y-118166462D01*
X157494762Y-118166462D02*
X157637619Y-118118843D01*
X157637619Y-118118843D02*
X157685238Y-118071223D01*
X157685238Y-118071223D02*
X157685238Y-117737890D01*
X157685238Y-117737890D02*
X157494762Y-117737890D01*
X158113810Y-118166462D02*
X158113810Y-117166462D01*
X158113810Y-117166462D02*
X158685238Y-118166462D01*
X158685238Y-118166462D02*
X158685238Y-117166462D01*
X159161429Y-118166462D02*
X159161429Y-117166462D01*
X159161429Y-117166462D02*
X159399524Y-117166462D01*
X159399524Y-117166462D02*
X159542381Y-117214081D01*
X159542381Y-117214081D02*
X159637619Y-117309319D01*
X159637619Y-117309319D02*
X159685238Y-117404557D01*
X159685238Y-117404557D02*
X159732857Y-117595033D01*
X159732857Y-117595033D02*
X159732857Y-117737890D01*
X159732857Y-117737890D02*
X159685238Y-117928366D01*
X159685238Y-117928366D02*
X159637619Y-118023604D01*
X159637619Y-118023604D02*
X159542381Y-118118843D01*
X159542381Y-118118843D02*
X159399524Y-118166462D01*
X159399524Y-118166462D02*
X159161429Y-118166462D01*
X190261904Y-112425238D02*
X190166666Y-112377619D01*
X190166666Y-112377619D02*
X190023809Y-112377619D01*
X190023809Y-112377619D02*
X189880952Y-112425238D01*
X189880952Y-112425238D02*
X189785714Y-112520476D01*
X189785714Y-112520476D02*
X189738095Y-112615714D01*
X189738095Y-112615714D02*
X189690476Y-112806190D01*
X189690476Y-112806190D02*
X189690476Y-112949047D01*
X189690476Y-112949047D02*
X189738095Y-113139523D01*
X189738095Y-113139523D02*
X189785714Y-113234761D01*
X189785714Y-113234761D02*
X189880952Y-113330000D01*
X189880952Y-113330000D02*
X190023809Y-113377619D01*
X190023809Y-113377619D02*
X190119047Y-113377619D01*
X190119047Y-113377619D02*
X190261904Y-113330000D01*
X190261904Y-113330000D02*
X190309523Y-113282380D01*
X190309523Y-113282380D02*
X190309523Y-112949047D01*
X190309523Y-112949047D02*
X190119047Y-112949047D01*
X190738095Y-113377619D02*
X190738095Y-112377619D01*
X190738095Y-112377619D02*
X191309523Y-113377619D01*
X191309523Y-113377619D02*
X191309523Y-112377619D01*
X191785714Y-113377619D02*
X191785714Y-112377619D01*
X191785714Y-112377619D02*
X192023809Y-112377619D01*
X192023809Y-112377619D02*
X192166666Y-112425238D01*
X192166666Y-112425238D02*
X192261904Y-112520476D01*
X192261904Y-112520476D02*
X192309523Y-112615714D01*
X192309523Y-112615714D02*
X192357142Y-112806190D01*
X192357142Y-112806190D02*
X192357142Y-112949047D01*
X192357142Y-112949047D02*
X192309523Y-113139523D01*
X192309523Y-113139523D02*
X192261904Y-113234761D01*
X192261904Y-113234761D02*
X192166666Y-113330000D01*
X192166666Y-113330000D02*
X192023809Y-113377619D01*
X192023809Y-113377619D02*
X191785714Y-113377619D01*
G36*
X174584338Y-114015404D02*
G01*
X174320425Y-114015404D01*
X174452381Y-113619534D01*
X174584338Y-114015404D01*
G37*
G36*
X175549922Y-113488109D02*
G01*
X175579986Y-113518174D01*
X175613976Y-113586153D01*
X175613976Y-113692892D01*
X175579985Y-113760874D01*
X175549923Y-113790936D01*
X175481941Y-113824928D01*
X175361097Y-113824928D01*
X175342687Y-113823020D01*
X175338911Y-113824928D01*
X175195548Y-113824928D01*
X175195548Y-113454119D01*
X175481941Y-113454119D01*
X175549922Y-113488109D01*
G37*
G36*
X176458677Y-113492102D02*
G01*
X176532367Y-113565792D01*
X176570677Y-113642412D01*
X176613976Y-113815607D01*
X176613976Y-113939629D01*
X176570677Y-114112823D01*
X176532366Y-114189444D01*
X176458676Y-114263135D01*
X176344728Y-114301119D01*
X176195548Y-114301119D01*
X176195548Y-113454119D01*
X176344728Y-113454119D01*
X176458677Y-113492102D01*
G37*
G36*
X182870052Y-114015404D02*
G01*
X182606139Y-114015404D01*
X182738095Y-113619534D01*
X182870052Y-114015404D01*
G37*
G36*
X180121351Y-113488110D02*
G01*
X180192827Y-113559586D01*
X180233023Y-113720369D01*
X180233023Y-114034866D01*
X180192827Y-114195650D01*
X180121350Y-114267128D01*
X180053369Y-114301119D01*
X179899011Y-114301119D01*
X179831029Y-114267128D01*
X179759552Y-114195650D01*
X179719357Y-114034867D01*
X179719357Y-113720370D01*
X179759553Y-113559585D01*
X179831030Y-113488109D01*
X179899010Y-113454119D01*
X180053369Y-113454119D01*
X180121351Y-113488110D01*
G37*
G36*
X184883256Y-113488109D02*
G01*
X184954732Y-113559586D01*
X184994928Y-113720369D01*
X184994928Y-114034867D01*
X184954732Y-114195650D01*
X184883255Y-114267128D01*
X184815274Y-114301119D01*
X184660916Y-114301119D01*
X184592934Y-114267128D01*
X184521457Y-114195650D01*
X184481262Y-114034867D01*
X184481262Y-113720370D01*
X184521458Y-113559585D01*
X184592935Y-113488108D01*
X184660915Y-113454119D01*
X184815274Y-113454119D01*
X184883256Y-113488109D01*
G37*
G36*
X171026112Y-113488109D02*
G01*
X171056176Y-113518174D01*
X171090166Y-113586153D01*
X171090166Y-113692892D01*
X171056175Y-113760874D01*
X171026113Y-113790936D01*
X170958131Y-113824928D01*
X170671738Y-113824928D01*
X170671738Y-113454119D01*
X170958131Y-113454119D01*
X171026112Y-113488109D01*
G37*
G36*
X185816762Y-114872357D02*
G01*
X168127643Y-114872357D01*
X168127643Y-114388966D01*
X168659177Y-114388966D01*
X168666235Y-114404421D01*
X168671022Y-114420724D01*
X168675420Y-114424535D01*
X168677839Y-114429831D01*
X168692133Y-114439017D01*
X168704974Y-114450144D01*
X168710735Y-114450972D01*
X168715632Y-114454119D01*
X168732623Y-114454119D01*
X168749442Y-114456537D01*
X168754737Y-114454119D01*
X169225285Y-114454119D01*
X169257390Y-114444692D01*
X169286810Y-114410740D01*
X169293203Y-114366272D01*
X169274541Y-114325407D01*
X169236748Y-114301119D01*
X168814595Y-114301119D01*
X168814595Y-113930309D01*
X169082428Y-113930309D01*
X169114533Y-113920882D01*
X169143953Y-113886930D01*
X169150346Y-113842462D01*
X169131684Y-113801597D01*
X169093891Y-113777309D01*
X168814595Y-113777309D01*
X168814595Y-113576653D01*
X169515969Y-113576653D01*
X169518738Y-113583329D01*
X169518738Y-113659214D01*
X169516769Y-113677453D01*
X169523759Y-113691433D01*
X169528165Y-113706438D01*
X169533628Y-113711172D01*
X169570143Y-113784201D01*
X169572880Y-113796781D01*
X169587786Y-113811687D01*
X169602142Y-113827121D01*
X169603589Y-113827491D01*
X169629600Y-113853501D01*
X169636173Y-113864568D01*
X169655018Y-113873990D01*
X169673528Y-113884097D01*
X169675017Y-113883990D01*
X169739314Y-113916138D01*
X169745368Y-113922577D01*
X169759014Y-113925988D01*
X169761341Y-113927152D01*
X169769645Y-113928646D01*
X169949490Y-113973607D01*
X170026112Y-114011918D01*
X170056176Y-114041983D01*
X170090166Y-114109962D01*
X170090166Y-114169083D01*
X170056175Y-114237064D01*
X170026112Y-114267128D01*
X169958131Y-114301119D01*
X169750509Y-114301119D01*
X169608994Y-114253947D01*
X169575555Y-114252738D01*
X169536909Y-114275644D01*
X169516782Y-114315809D01*
X169521563Y-114360478D01*
X169549736Y-114395471D01*
X169704804Y-114447160D01*
X169715632Y-114454119D01*
X169736702Y-114454119D01*
X169757777Y-114454881D01*
X169759063Y-114454119D01*
X169972072Y-114454119D01*
X169990310Y-114456088D01*
X170004290Y-114449097D01*
X170019295Y-114444692D01*
X170024029Y-114439228D01*
X170097058Y-114402713D01*
X170109639Y-114399977D01*
X170124550Y-114385065D01*
X170139978Y-114370715D01*
X170140348Y-114369266D01*
X170166357Y-114343256D01*
X170177425Y-114336683D01*
X170186849Y-114317834D01*
X170196955Y-114299327D01*
X170196848Y-114297836D01*
X170233246Y-114225040D01*
X170243166Y-114209605D01*
X170243166Y-114193971D01*
X170245935Y-114178584D01*
X170243166Y-114171907D01*
X170243166Y-114096021D01*
X170245135Y-114077783D01*
X170238144Y-114063801D01*
X170233739Y-114048799D01*
X170228276Y-114044065D01*
X170191760Y-113971033D01*
X170189024Y-113958456D01*
X170174128Y-113943560D01*
X170159762Y-113928116D01*
X170158313Y-113927745D01*
X170143343Y-113912775D01*
X170516320Y-113912775D01*
X170518738Y-113918069D01*
X170518738Y-114388619D01*
X170528165Y-114420724D01*
X170562117Y-114450144D01*
X170606585Y-114456537D01*
X170647450Y-114437875D01*
X170671738Y-114400082D01*
X170671738Y-114276691D01*
X171420473Y-114276691D01*
X171430022Y-114320589D01*
X171486741Y-114377309D01*
X171493316Y-114388378D01*
X171512170Y-114397805D01*
X171530670Y-114407907D01*
X171532160Y-114407800D01*
X171604958Y-114444199D01*
X171620394Y-114454119D01*
X171636028Y-114454119D01*
X171651415Y-114456888D01*
X171658091Y-114454119D01*
X171924453Y-114454119D01*
X171942691Y-114456088D01*
X171956671Y-114449097D01*
X171971676Y-114444692D01*
X171976410Y-114439228D01*
X172049439Y-114402713D01*
X172062020Y-114399977D01*
X172073030Y-114388966D01*
X172373463Y-114388966D01*
X172377060Y-114396842D01*
X172377678Y-114405482D01*
X172386210Y-114416879D01*
X172392125Y-114429831D01*
X172399411Y-114434513D01*
X172404601Y-114441446D01*
X172417940Y-114446421D01*
X172429918Y-114454119D01*
X172438578Y-114454119D01*
X172446693Y-114457146D01*
X172460607Y-114454119D01*
X173082428Y-114454119D01*
X173114533Y-114444692D01*
X173143953Y-114410740D01*
X173145885Y-114397302D01*
X174041786Y-114397302D01*
X174064692Y-114435948D01*
X174104857Y-114456075D01*
X174149526Y-114451294D01*
X174184519Y-114423121D01*
X174269425Y-114168404D01*
X174635338Y-114168404D01*
X174716618Y-114412245D01*
X174735714Y-114439722D01*
X174777227Y-114456896D01*
X174821435Y-114448899D01*
X174854301Y-114418272D01*
X174865392Y-114374737D01*
X174768772Y-114084878D01*
X174769394Y-114080557D01*
X174761759Y-114063839D01*
X174711404Y-113912775D01*
X175040130Y-113912775D01*
X175042548Y-113918069D01*
X175042548Y-114388619D01*
X175051975Y-114420724D01*
X175085927Y-114450144D01*
X175130395Y-114456537D01*
X175171260Y-114437875D01*
X175195548Y-114400082D01*
X175195548Y-113977928D01*
X175317313Y-113977928D01*
X175634113Y-114430501D01*
X175660247Y-114451396D01*
X175704933Y-114456028D01*
X175745028Y-114435764D01*
X175767804Y-114397041D01*
X175767485Y-114388966D01*
X176040130Y-114388966D01*
X176047188Y-114404421D01*
X176051975Y-114420724D01*
X176056373Y-114424535D01*
X176058792Y-114429831D01*
X176073086Y-114439017D01*
X176085927Y-114450144D01*
X176091688Y-114450972D01*
X176096585Y-114454119D01*
X176113576Y-114454119D01*
X176130395Y-114456537D01*
X176135690Y-114454119D01*
X176347550Y-114454119D01*
X176360024Y-114457297D01*
X176380021Y-114450630D01*
X176400248Y-114444692D01*
X176401226Y-114443562D01*
X176520283Y-114403876D01*
X176538210Y-114399977D01*
X176549264Y-114388922D01*
X176562103Y-114380000D01*
X176564866Y-114373320D01*
X176642548Y-114295637D01*
X176653616Y-114289064D01*
X176663040Y-114270215D01*
X176673146Y-114251708D01*
X176673039Y-114250217D01*
X176697516Y-114201262D01*
X177040579Y-114201262D01*
X177047569Y-114215242D01*
X177051975Y-114230247D01*
X177057438Y-114234981D01*
X177093952Y-114308009D01*
X177096689Y-114320589D01*
X177111596Y-114335496D01*
X177125952Y-114350930D01*
X177127399Y-114351300D01*
X177153408Y-114377309D01*
X177159983Y-114388378D01*
X177178837Y-114397805D01*
X177197337Y-114407907D01*
X177198827Y-114407800D01*
X177271625Y-114444199D01*
X177287061Y-114454119D01*
X177302695Y-114454119D01*
X177318082Y-114456888D01*
X177324758Y-114454119D01*
X177495882Y-114454119D01*
X177514120Y-114456088D01*
X177528100Y-114449097D01*
X177543105Y-114444692D01*
X177547839Y-114439228D01*
X177620868Y-114402713D01*
X177633449Y-114399977D01*
X177644806Y-114388619D01*
X178090167Y-114388619D01*
X178099594Y-114420724D01*
X178133546Y-114450144D01*
X178178014Y-114456537D01*
X178218879Y-114437875D01*
X178243167Y-114400082D01*
X178243167Y-113396070D01*
X178565292Y-113396070D01*
X178566357Y-113397933D01*
X178566357Y-114388619D01*
X178575784Y-114420724D01*
X178609736Y-114450144D01*
X178654204Y-114456537D01*
X178695069Y-114437875D01*
X178719357Y-114400082D01*
X178719357Y-113665684D01*
X179143411Y-114407780D01*
X179147212Y-114420724D01*
X179162684Y-114434130D01*
X179177435Y-114448322D01*
X179179541Y-114448737D01*
X179181164Y-114450144D01*
X179201424Y-114453056D01*
X179221510Y-114457021D01*
X179223507Y-114456231D01*
X179225632Y-114456537D01*
X179244259Y-114448030D01*
X179263291Y-114440509D01*
X179264543Y-114438767D01*
X179266497Y-114437875D01*
X179277565Y-114420651D01*
X179289513Y-114404032D01*
X179289624Y-114401887D01*
X179290785Y-114400082D01*
X179290785Y-114379613D01*
X179291850Y-114359168D01*
X179290785Y-114357304D01*
X179290785Y-114041047D01*
X179563193Y-114041047D01*
X179566357Y-114053702D01*
X179566357Y-114055285D01*
X179569018Y-114064350D01*
X179615968Y-114252146D01*
X179620498Y-114272971D01*
X179629453Y-114281926D01*
X179635860Y-114292846D01*
X179645008Y-114297482D01*
X179724838Y-114377312D01*
X179731411Y-114388378D01*
X179750248Y-114397796D01*
X179768766Y-114407908D01*
X179770257Y-114407801D01*
X179843053Y-114444199D01*
X179858489Y-114454119D01*
X179874123Y-114454119D01*
X179889510Y-114456888D01*
X179896186Y-114454119D01*
X180067310Y-114454119D01*
X180085548Y-114456088D01*
X180099528Y-114449097D01*
X180114533Y-114444692D01*
X180119267Y-114439228D01*
X180192296Y-114402713D01*
X180204876Y-114399977D01*
X180219778Y-114385074D01*
X180235216Y-114370715D01*
X180235586Y-114369266D01*
X180315154Y-114289697D01*
X180330672Y-114275107D01*
X180333743Y-114262822D01*
X180339812Y-114251708D01*
X180339080Y-114241474D01*
X180380685Y-114075052D01*
X180386023Y-114066748D01*
X180386023Y-114053703D01*
X180386407Y-114052168D01*
X180386023Y-114042721D01*
X180386023Y-113723542D01*
X180389187Y-113714190D01*
X180386023Y-113701533D01*
X180386023Y-113699952D01*
X180383361Y-113690887D01*
X180336406Y-113503067D01*
X180331881Y-113482266D01*
X180322929Y-113473314D01*
X180316520Y-113462390D01*
X180307366Y-113457751D01*
X180245685Y-113396070D01*
X181422435Y-113396070D01*
X181423500Y-113397933D01*
X181423500Y-114388619D01*
X181432927Y-114420724D01*
X181466879Y-114450144D01*
X181511347Y-114456537D01*
X181552212Y-114437875D01*
X181576500Y-114400082D01*
X181576500Y-113665684D01*
X182000554Y-114407780D01*
X182004355Y-114420724D01*
X182019827Y-114434130D01*
X182034578Y-114448322D01*
X182036684Y-114448737D01*
X182038307Y-114450144D01*
X182058567Y-114453056D01*
X182078653Y-114457021D01*
X182080650Y-114456231D01*
X182082775Y-114456537D01*
X182101402Y-114448030D01*
X182120434Y-114440509D01*
X182121686Y-114438767D01*
X182123640Y-114437875D01*
X182134708Y-114420651D01*
X182146656Y-114404032D01*
X182146767Y-114401887D01*
X182147928Y-114400082D01*
X182147928Y-114397302D01*
X182327500Y-114397302D01*
X182350406Y-114435948D01*
X182390571Y-114456075D01*
X182435240Y-114451294D01*
X182470233Y-114423121D01*
X182555139Y-114168404D01*
X182921052Y-114168404D01*
X183002332Y-114412245D01*
X183021428Y-114439722D01*
X183062941Y-114456896D01*
X183107149Y-114448899D01*
X183140015Y-114418272D01*
X183151106Y-114374737D01*
X183054486Y-114084878D01*
X183055108Y-114080557D01*
X183047473Y-114063839D01*
X182824883Y-113396070D01*
X183327197Y-113396070D01*
X183328262Y-113397933D01*
X183328262Y-114388619D01*
X183337689Y-114420724D01*
X183371641Y-114450144D01*
X183416109Y-114456537D01*
X183456974Y-114437875D01*
X183481262Y-114400082D01*
X183481262Y-113665684D01*
X183905316Y-114407780D01*
X183909117Y-114420724D01*
X183924589Y-114434130D01*
X183939340Y-114448322D01*
X183941446Y-114448737D01*
X183943069Y-114450144D01*
X183963329Y-114453056D01*
X183983415Y-114457021D01*
X183985412Y-114456231D01*
X183987537Y-114456537D01*
X184006164Y-114448030D01*
X184025196Y-114440509D01*
X184026448Y-114438767D01*
X184028402Y-114437875D01*
X184039470Y-114420651D01*
X184051418Y-114404032D01*
X184051529Y-114401887D01*
X184052690Y-114400082D01*
X184052690Y-114379613D01*
X184053755Y-114359168D01*
X184052690Y-114357304D01*
X184052690Y-114041047D01*
X184325098Y-114041047D01*
X184328262Y-114053702D01*
X184328262Y-114055285D01*
X184330923Y-114064350D01*
X184377873Y-114252146D01*
X184382403Y-114272971D01*
X184391358Y-114281926D01*
X184397765Y-114292846D01*
X184406913Y-114297482D01*
X184486743Y-114377312D01*
X184493316Y-114388378D01*
X184512153Y-114397796D01*
X184530671Y-114407908D01*
X184532162Y-114407801D01*
X184604958Y-114444199D01*
X184620394Y-114454119D01*
X184636028Y-114454119D01*
X184651415Y-114456888D01*
X184658091Y-114454119D01*
X184829215Y-114454119D01*
X184847453Y-114456088D01*
X184861433Y-114449097D01*
X184876438Y-114444692D01*
X184881172Y-114439228D01*
X184954201Y-114402713D01*
X184966781Y-114399977D01*
X184981683Y-114385074D01*
X184997121Y-114370715D01*
X184997491Y-114369266D01*
X185077059Y-114289697D01*
X185092577Y-114275107D01*
X185095648Y-114262822D01*
X185101717Y-114251708D01*
X185100985Y-114241474D01*
X185142590Y-114075052D01*
X185147928Y-114066748D01*
X185147928Y-114053703D01*
X185148312Y-114052168D01*
X185147928Y-114042721D01*
X185147928Y-113723542D01*
X185151092Y-113714190D01*
X185147928Y-113701533D01*
X185147928Y-113699952D01*
X185145266Y-113690887D01*
X185098311Y-113503067D01*
X185093786Y-113482266D01*
X185084834Y-113473314D01*
X185078425Y-113462390D01*
X185069271Y-113457751D01*
X184989447Y-113377927D01*
X184982874Y-113366860D01*
X184964029Y-113357437D01*
X184945519Y-113347330D01*
X184944027Y-113347436D01*
X184871231Y-113311038D01*
X184855796Y-113301119D01*
X184840162Y-113301119D01*
X184824775Y-113298350D01*
X184818099Y-113301119D01*
X184646974Y-113301119D01*
X184628736Y-113299150D01*
X184614754Y-113306140D01*
X184599752Y-113310546D01*
X184595018Y-113316008D01*
X184521986Y-113352524D01*
X184509409Y-113355261D01*
X184494513Y-113370156D01*
X184479069Y-113384523D01*
X184478698Y-113385971D01*
X184399132Y-113465537D01*
X184383613Y-113480130D01*
X184380542Y-113492413D01*
X184374473Y-113503528D01*
X184375204Y-113513762D01*
X184333599Y-113680183D01*
X184328262Y-113688489D01*
X184328262Y-113701533D01*
X184327878Y-113703070D01*
X184328262Y-113712516D01*
X184328262Y-114031694D01*
X184325098Y-114041047D01*
X184052690Y-114041047D01*
X184052690Y-113366619D01*
X184043263Y-113334514D01*
X184009311Y-113305094D01*
X183964843Y-113298701D01*
X183923978Y-113317363D01*
X183899690Y-113355156D01*
X183899690Y-114089553D01*
X183475635Y-113347457D01*
X183471835Y-113334514D01*
X183456362Y-113321107D01*
X183441612Y-113306916D01*
X183439505Y-113306500D01*
X183437883Y-113305094D01*
X183417622Y-113302181D01*
X183397537Y-113298217D01*
X183395539Y-113299006D01*
X183393415Y-113298701D01*
X183374787Y-113307207D01*
X183355756Y-113314729D01*
X183354504Y-113316470D01*
X183352550Y-113317363D01*
X183341477Y-113334591D01*
X183329534Y-113351207D01*
X183329422Y-113353350D01*
X183328262Y-113355156D01*
X183328262Y-113375625D01*
X183327197Y-113396070D01*
X182824883Y-113396070D01*
X182815045Y-113366555D01*
X182815357Y-113357937D01*
X182808080Y-113345659D01*
X182807191Y-113342992D01*
X182802490Y-113336229D01*
X182792451Y-113319290D01*
X182789791Y-113317957D01*
X182788095Y-113315516D01*
X182769890Y-113307984D01*
X182752286Y-113299163D01*
X182749331Y-113299479D01*
X182746582Y-113298342D01*
X182727193Y-113301849D01*
X182707617Y-113303945D01*
X182705301Y-113305809D01*
X182702374Y-113306339D01*
X182687960Y-113319770D01*
X182672624Y-113332118D01*
X182671683Y-113334938D01*
X182669508Y-113336966D01*
X182664644Y-113356057D01*
X182432232Y-114053292D01*
X182427475Y-114058783D01*
X182425254Y-114074225D01*
X182328709Y-114363863D01*
X182327500Y-114397302D01*
X182147928Y-114397302D01*
X182147928Y-114379613D01*
X182148993Y-114359168D01*
X182147928Y-114357304D01*
X182147928Y-113366619D01*
X182138501Y-113334514D01*
X182104549Y-113305094D01*
X182060081Y-113298701D01*
X182019216Y-113317363D01*
X181994928Y-113355156D01*
X181994928Y-114089553D01*
X181570873Y-113347457D01*
X181567073Y-113334514D01*
X181551600Y-113321107D01*
X181536850Y-113306916D01*
X181534743Y-113306500D01*
X181533121Y-113305094D01*
X181512860Y-113302181D01*
X181492775Y-113298217D01*
X181490777Y-113299006D01*
X181488653Y-113298701D01*
X181470025Y-113307207D01*
X181450994Y-113314729D01*
X181449742Y-113316470D01*
X181447788Y-113317363D01*
X181436715Y-113334591D01*
X181424772Y-113351207D01*
X181424660Y-113353350D01*
X181423500Y-113355156D01*
X181423500Y-113375625D01*
X181422435Y-113396070D01*
X180245685Y-113396070D01*
X180227542Y-113377927D01*
X180220969Y-113366860D01*
X180202124Y-113357437D01*
X180183614Y-113347330D01*
X180182122Y-113347436D01*
X180109326Y-113311038D01*
X180093891Y-113301119D01*
X180078257Y-113301119D01*
X180062870Y-113298350D01*
X180056194Y-113301119D01*
X179885069Y-113301119D01*
X179866831Y-113299150D01*
X179852849Y-113306140D01*
X179837847Y-113310546D01*
X179833113Y-113316008D01*
X179760081Y-113352524D01*
X179747504Y-113355261D01*
X179732608Y-113370156D01*
X179717164Y-113384523D01*
X179716793Y-113385971D01*
X179637227Y-113465537D01*
X179621708Y-113480130D01*
X179618637Y-113492413D01*
X179612568Y-113503528D01*
X179613299Y-113513762D01*
X179571694Y-113680183D01*
X179566357Y-113688489D01*
X179566357Y-113701533D01*
X179565973Y-113703070D01*
X179566357Y-113712516D01*
X179566357Y-114031694D01*
X179563193Y-114041047D01*
X179290785Y-114041047D01*
X179290785Y-113366619D01*
X179281358Y-113334514D01*
X179247406Y-113305094D01*
X179202938Y-113298701D01*
X179162073Y-113317363D01*
X179137785Y-113355156D01*
X179137785Y-114089553D01*
X178713730Y-113347457D01*
X178709930Y-113334514D01*
X178694457Y-113321107D01*
X178679707Y-113306916D01*
X178677600Y-113306500D01*
X178675978Y-113305094D01*
X178655717Y-113302181D01*
X178635632Y-113298217D01*
X178633634Y-113299006D01*
X178631510Y-113298701D01*
X178612882Y-113307207D01*
X178593851Y-113314729D01*
X178592599Y-113316470D01*
X178590645Y-113317363D01*
X178579572Y-113334591D01*
X178567629Y-113351207D01*
X178567517Y-113353350D01*
X178566357Y-113355156D01*
X178566357Y-113375625D01*
X178565292Y-113396070D01*
X178243167Y-113396070D01*
X178243167Y-113366619D01*
X178233740Y-113334514D01*
X178199788Y-113305094D01*
X178155320Y-113298701D01*
X178114455Y-113317363D01*
X178090167Y-113355156D01*
X178090167Y-114388619D01*
X177644806Y-114388619D01*
X177648360Y-114385065D01*
X177663788Y-114370715D01*
X177664158Y-114369266D01*
X177690167Y-114343256D01*
X177701235Y-114336683D01*
X177710659Y-114317834D01*
X177720765Y-114299327D01*
X177720658Y-114297836D01*
X177757056Y-114225040D01*
X177766976Y-114209605D01*
X177766976Y-114193971D01*
X177769745Y-114178584D01*
X177766976Y-114171907D01*
X177766976Y-113366619D01*
X177757549Y-113334514D01*
X177723597Y-113305094D01*
X177679129Y-113298701D01*
X177638264Y-113317363D01*
X177613976Y-113355156D01*
X177613976Y-114169082D01*
X177579985Y-114237064D01*
X177549922Y-114267128D01*
X177481941Y-114301119D01*
X177327583Y-114301119D01*
X177259601Y-114267128D01*
X177229539Y-114237065D01*
X177195548Y-114169083D01*
X177195548Y-113366619D01*
X177186121Y-113334514D01*
X177152169Y-113305094D01*
X177107701Y-113298701D01*
X177066836Y-113317363D01*
X177042548Y-113355156D01*
X177042548Y-114183023D01*
X177040579Y-114201262D01*
X176697516Y-114201262D01*
X176705186Y-114185922D01*
X176711625Y-114179869D01*
X176715036Y-114166222D01*
X176716200Y-114163896D01*
X176717694Y-114155591D01*
X176761638Y-113979814D01*
X176766976Y-113971510D01*
X176766976Y-113958465D01*
X176767360Y-113956930D01*
X176766976Y-113947483D01*
X176766976Y-113818780D01*
X176770140Y-113809428D01*
X176766976Y-113796771D01*
X176766976Y-113795190D01*
X176764314Y-113786125D01*
X176720377Y-113610378D01*
X176721326Y-113601593D01*
X176715036Y-113589013D01*
X176714405Y-113586488D01*
X176710131Y-113579203D01*
X176667951Y-113494843D01*
X176665215Y-113482266D01*
X176650319Y-113467370D01*
X176635953Y-113451926D01*
X176634504Y-113451555D01*
X176557005Y-113374056D01*
X176545501Y-113359767D01*
X176530671Y-113354823D01*
X176516948Y-113347330D01*
X176509737Y-113347845D01*
X176390433Y-113308077D01*
X176379606Y-113301119D01*
X176358536Y-113301119D01*
X176337460Y-113300357D01*
X176336174Y-113301119D01*
X176124520Y-113301119D01*
X176107701Y-113298701D01*
X176092245Y-113305759D01*
X176075943Y-113310546D01*
X176072131Y-113314944D01*
X176066836Y-113317363D01*
X176057649Y-113331657D01*
X176046523Y-113344498D01*
X176045694Y-113350259D01*
X176042548Y-113355156D01*
X176042548Y-113372147D01*
X176040130Y-113388966D01*
X176042548Y-113394260D01*
X176042548Y-114372147D01*
X176040130Y-114388966D01*
X175767485Y-114388966D01*
X175766029Y-114352152D01*
X175504742Y-113978884D01*
X175514120Y-113979897D01*
X175528100Y-113972906D01*
X175543105Y-113968501D01*
X175547839Y-113963037D01*
X175620868Y-113926522D01*
X175633448Y-113923786D01*
X175648354Y-113908879D01*
X175663788Y-113894524D01*
X175664158Y-113893076D01*
X175690168Y-113867065D01*
X175701235Y-113860493D01*
X175710657Y-113841647D01*
X175720764Y-113823138D01*
X175720657Y-113821648D01*
X175757056Y-113748850D01*
X175766976Y-113733415D01*
X175766976Y-113717781D01*
X175769745Y-113702394D01*
X175766976Y-113695717D01*
X175766976Y-113572212D01*
X175768945Y-113553974D01*
X175761954Y-113539992D01*
X175757549Y-113524990D01*
X175752086Y-113520256D01*
X175715570Y-113447224D01*
X175712834Y-113434647D01*
X175697938Y-113419751D01*
X175683572Y-113404307D01*
X175682123Y-113403936D01*
X175656114Y-113377927D01*
X175649541Y-113366860D01*
X175630696Y-113357437D01*
X175612186Y-113347330D01*
X175610694Y-113347436D01*
X175537898Y-113311038D01*
X175522463Y-113301119D01*
X175506829Y-113301119D01*
X175491442Y-113298350D01*
X175484766Y-113301119D01*
X175124520Y-113301119D01*
X175107701Y-113298701D01*
X175092245Y-113305759D01*
X175075943Y-113310546D01*
X175072131Y-113314944D01*
X175066836Y-113317363D01*
X175057649Y-113331657D01*
X175046523Y-113344498D01*
X175045694Y-113350259D01*
X175042548Y-113355156D01*
X175042548Y-113372147D01*
X175040130Y-113388966D01*
X175042548Y-113394260D01*
X175042548Y-113895956D01*
X175040130Y-113912775D01*
X174711404Y-113912775D01*
X174529331Y-113366555D01*
X174529643Y-113357937D01*
X174522366Y-113345659D01*
X174521477Y-113342992D01*
X174516776Y-113336229D01*
X174506737Y-113319290D01*
X174504077Y-113317957D01*
X174502381Y-113315516D01*
X174484176Y-113307984D01*
X174466572Y-113299163D01*
X174463617Y-113299479D01*
X174460868Y-113298342D01*
X174441479Y-113301849D01*
X174421903Y-113303945D01*
X174419587Y-113305809D01*
X174416660Y-113306339D01*
X174402246Y-113319770D01*
X174386910Y-113332118D01*
X174385969Y-113334938D01*
X174383794Y-113336966D01*
X174378930Y-113356057D01*
X174146518Y-114053292D01*
X174141761Y-114058783D01*
X174139540Y-114074225D01*
X174042995Y-114363863D01*
X174041786Y-114397302D01*
X173145885Y-114397302D01*
X173150346Y-114366272D01*
X173131684Y-114325407D01*
X173093891Y-114301119D01*
X172637068Y-114301119D01*
X173074985Y-113863200D01*
X173089280Y-113851692D01*
X173094223Y-113836860D01*
X173101717Y-113823138D01*
X173101201Y-113815928D01*
X173140969Y-113696623D01*
X173147928Y-113685796D01*
X173147928Y-113664726D01*
X173148690Y-113643651D01*
X173147928Y-113642365D01*
X173147928Y-113572212D01*
X173149897Y-113553974D01*
X173142906Y-113539992D01*
X173138501Y-113524990D01*
X173133038Y-113520256D01*
X173096522Y-113447224D01*
X173093786Y-113434647D01*
X173078890Y-113419751D01*
X173064524Y-113404307D01*
X173063075Y-113403936D01*
X173037066Y-113377927D01*
X173030493Y-113366860D01*
X173011648Y-113357437D01*
X172993138Y-113347330D01*
X172991646Y-113347436D01*
X172918850Y-113311038D01*
X172903415Y-113301119D01*
X172887781Y-113301119D01*
X172872394Y-113298350D01*
X172865718Y-113301119D01*
X172646974Y-113301119D01*
X172628736Y-113299150D01*
X172614754Y-113306140D01*
X172599752Y-113310546D01*
X172595018Y-113316008D01*
X172521986Y-113352524D01*
X172509409Y-113355261D01*
X172494513Y-113370156D01*
X172479069Y-113384523D01*
X172478698Y-113385971D01*
X172438128Y-113426542D01*
X172422092Y-113455909D01*
X172425297Y-113500720D01*
X172452220Y-113536684D01*
X172494312Y-113552384D01*
X172538210Y-113542834D01*
X172592936Y-113488108D01*
X172660915Y-113454119D01*
X172862893Y-113454119D01*
X172930874Y-113488109D01*
X172960938Y-113518174D01*
X172994927Y-113586152D01*
X172994928Y-113650918D01*
X172956945Y-113764866D01*
X172412094Y-114309718D01*
X172409276Y-114310546D01*
X172396351Y-114325461D01*
X172390509Y-114331304D01*
X172389180Y-114333737D01*
X172379856Y-114344498D01*
X172378623Y-114353069D01*
X172374473Y-114360671D01*
X172375488Y-114374874D01*
X172373463Y-114388966D01*
X172073030Y-114388966D01*
X172076931Y-114385065D01*
X172092359Y-114370715D01*
X172092729Y-114369266D01*
X172118738Y-114343256D01*
X172129806Y-114336683D01*
X172139230Y-114317834D01*
X172149336Y-114299327D01*
X172149229Y-114297836D01*
X172185627Y-114225040D01*
X172195547Y-114209605D01*
X172195547Y-114193971D01*
X172198316Y-114178584D01*
X172195547Y-114171907D01*
X172195547Y-113953164D01*
X172197516Y-113934926D01*
X172190525Y-113920944D01*
X172186120Y-113905942D01*
X172180657Y-113901208D01*
X172144141Y-113828176D01*
X172141405Y-113815599D01*
X172126509Y-113800703D01*
X172112143Y-113785259D01*
X172110694Y-113784888D01*
X172084685Y-113758879D01*
X172078112Y-113747812D01*
X172059267Y-113738389D01*
X172040757Y-113728282D01*
X172039265Y-113728388D01*
X171966469Y-113691990D01*
X171953125Y-113683415D01*
X172161959Y-113444748D01*
X172162152Y-113444692D01*
X172176759Y-113427833D01*
X172183863Y-113419716D01*
X172183941Y-113419545D01*
X172191572Y-113410740D01*
X172193176Y-113399579D01*
X172197909Y-113389347D01*
X172196306Y-113377806D01*
X172197965Y-113366272D01*
X172193281Y-113356016D01*
X172191731Y-113344849D01*
X172184143Y-113336007D01*
X172179303Y-113325407D01*
X172169816Y-113319310D01*
X172162475Y-113310755D01*
X172151312Y-113307418D01*
X172141510Y-113301119D01*
X172130235Y-113301119D01*
X172119432Y-113297890D01*
X172108235Y-113301119D01*
X171489000Y-113301119D01*
X171456895Y-113310546D01*
X171427475Y-113344498D01*
X171421082Y-113388966D01*
X171439744Y-113429831D01*
X171477537Y-113454119D01*
X171950459Y-113454119D01*
X171742801Y-113691441D01*
X171742609Y-113691498D01*
X171728001Y-113708356D01*
X171720898Y-113716474D01*
X171720819Y-113716644D01*
X171713189Y-113725450D01*
X171711584Y-113736610D01*
X171706852Y-113746843D01*
X171708454Y-113758383D01*
X171706796Y-113769918D01*
X171711479Y-113780173D01*
X171713030Y-113791341D01*
X171720617Y-113800182D01*
X171725458Y-113810783D01*
X171734944Y-113816879D01*
X171742286Y-113825435D01*
X171753448Y-113828771D01*
X171763251Y-113835071D01*
X171774526Y-113835071D01*
X171785329Y-113838300D01*
X171796526Y-113835071D01*
X171910512Y-113835071D01*
X171978493Y-113869061D01*
X172008557Y-113899126D01*
X172042547Y-113967105D01*
X172042547Y-114169083D01*
X172008556Y-114237064D01*
X171978493Y-114267128D01*
X171910512Y-114301119D01*
X171660916Y-114301119D01*
X171592934Y-114267128D01*
X171546316Y-114220509D01*
X171516949Y-114204473D01*
X171472138Y-114207677D01*
X171436174Y-114234599D01*
X171420473Y-114276691D01*
X170671738Y-114276691D01*
X170671738Y-113977928D01*
X170972072Y-113977928D01*
X170990310Y-113979897D01*
X171004290Y-113972906D01*
X171019295Y-113968501D01*
X171024029Y-113963037D01*
X171097058Y-113926522D01*
X171109638Y-113923786D01*
X171124544Y-113908879D01*
X171139978Y-113894524D01*
X171140348Y-113893076D01*
X171166358Y-113867065D01*
X171177425Y-113860493D01*
X171186847Y-113841647D01*
X171196954Y-113823138D01*
X171196847Y-113821648D01*
X171233246Y-113748850D01*
X171243166Y-113733415D01*
X171243166Y-113717781D01*
X171245935Y-113702394D01*
X171243166Y-113695717D01*
X171243166Y-113572212D01*
X171245135Y-113553974D01*
X171238144Y-113539992D01*
X171233739Y-113524990D01*
X171228276Y-113520256D01*
X171191760Y-113447224D01*
X171189024Y-113434647D01*
X171174128Y-113419751D01*
X171159762Y-113404307D01*
X171158313Y-113403936D01*
X171132304Y-113377927D01*
X171125731Y-113366860D01*
X171106886Y-113357437D01*
X171088376Y-113347330D01*
X171086884Y-113347436D01*
X171014088Y-113311038D01*
X170998653Y-113301119D01*
X170983019Y-113301119D01*
X170967632Y-113298350D01*
X170960956Y-113301119D01*
X170600710Y-113301119D01*
X170583891Y-113298701D01*
X170568435Y-113305759D01*
X170552133Y-113310546D01*
X170548321Y-113314944D01*
X170543026Y-113317363D01*
X170533839Y-113331657D01*
X170522713Y-113344498D01*
X170521884Y-113350259D01*
X170518738Y-113355156D01*
X170518738Y-113372147D01*
X170516320Y-113388966D01*
X170518738Y-113394260D01*
X170518738Y-113895956D01*
X170516320Y-113912775D01*
X170143343Y-113912775D01*
X170132304Y-113901736D01*
X170125731Y-113890669D01*
X170106886Y-113881246D01*
X170088376Y-113871139D01*
X170086884Y-113871245D01*
X170022589Y-113839098D01*
X170016536Y-113832660D01*
X170002890Y-113829248D01*
X170000563Y-113828085D01*
X169992257Y-113826590D01*
X169812414Y-113781629D01*
X169735791Y-113743318D01*
X169705729Y-113713255D01*
X169671738Y-113645273D01*
X169671738Y-113586154D01*
X169705728Y-113518172D01*
X169735793Y-113488108D01*
X169803772Y-113454119D01*
X170011394Y-113454119D01*
X170152910Y-113501291D01*
X170186348Y-113502500D01*
X170224995Y-113479594D01*
X170245122Y-113439429D01*
X170240340Y-113394760D01*
X170212167Y-113359767D01*
X170057099Y-113308077D01*
X170046272Y-113301119D01*
X170025202Y-113301119D01*
X170004126Y-113300357D01*
X170002840Y-113301119D01*
X169789831Y-113301119D01*
X169771593Y-113299150D01*
X169757611Y-113306140D01*
X169742609Y-113310546D01*
X169737875Y-113316008D01*
X169664843Y-113352524D01*
X169652266Y-113355261D01*
X169637370Y-113370156D01*
X169621926Y-113384523D01*
X169621555Y-113385971D01*
X169595546Y-113411980D01*
X169584479Y-113418554D01*
X169575056Y-113437398D01*
X169564949Y-113455909D01*
X169565055Y-113457400D01*
X169528657Y-113530196D01*
X169518738Y-113545632D01*
X169518738Y-113561265D01*
X169515969Y-113576653D01*
X168814595Y-113576653D01*
X168814595Y-113454119D01*
X169225285Y-113454119D01*
X169257390Y-113444692D01*
X169286810Y-113410740D01*
X169293203Y-113366272D01*
X169274541Y-113325407D01*
X169236748Y-113301119D01*
X168743567Y-113301119D01*
X168726748Y-113298701D01*
X168711292Y-113305759D01*
X168694990Y-113310546D01*
X168691178Y-113314944D01*
X168685883Y-113317363D01*
X168676696Y-113331657D01*
X168665570Y-113344498D01*
X168664741Y-113350259D01*
X168661595Y-113355156D01*
X168661595Y-113372147D01*
X168659177Y-113388966D01*
X168661595Y-113394260D01*
X168661595Y-113848337D01*
X168659177Y-113865156D01*
X168661595Y-113870450D01*
X168661595Y-114372147D01*
X168659177Y-114388966D01*
X168127643Y-114388966D01*
X168127643Y-112745143D01*
X185816762Y-112745143D01*
X185816762Y-114872357D01*
G37*
X159425238Y-121238095D02*
X159377619Y-121333333D01*
X159377619Y-121333333D02*
X159377619Y-121476190D01*
X159377619Y-121476190D02*
X159425238Y-121619047D01*
X159425238Y-121619047D02*
X159520476Y-121714285D01*
X159520476Y-121714285D02*
X159615714Y-121761904D01*
X159615714Y-121761904D02*
X159806190Y-121809523D01*
X159806190Y-121809523D02*
X159949047Y-121809523D01*
X159949047Y-121809523D02*
X160139523Y-121761904D01*
X160139523Y-121761904D02*
X160234761Y-121714285D01*
X160234761Y-121714285D02*
X160330000Y-121619047D01*
X160330000Y-121619047D02*
X160377619Y-121476190D01*
X160377619Y-121476190D02*
X160377619Y-121380952D01*
X160377619Y-121380952D02*
X160330000Y-121238095D01*
X160330000Y-121238095D02*
X160282380Y-121190476D01*
X160282380Y-121190476D02*
X159949047Y-121190476D01*
X159949047Y-121190476D02*
X159949047Y-121380952D01*
X160377619Y-120761904D02*
X159377619Y-120761904D01*
X159377619Y-120761904D02*
X160377619Y-120190476D01*
X160377619Y-120190476D02*
X159377619Y-120190476D01*
X160377619Y-119714285D02*
X159377619Y-119714285D01*
X159377619Y-119714285D02*
X159377619Y-119476190D01*
X159377619Y-119476190D02*
X159425238Y-119333333D01*
X159425238Y-119333333D02*
X159520476Y-119238095D01*
X159520476Y-119238095D02*
X159615714Y-119190476D01*
X159615714Y-119190476D02*
X159806190Y-119142857D01*
X159806190Y-119142857D02*
X159949047Y-119142857D01*
X159949047Y-119142857D02*
X160139523Y-119190476D01*
X160139523Y-119190476D02*
X160234761Y-119238095D01*
X160234761Y-119238095D02*
X160330000Y-119333333D01*
X160330000Y-119333333D02*
X160377619Y-119476190D01*
X160377619Y-119476190D02*
X160377619Y-119714285D01*
X146738095Y-103377619D02*
X146738095Y-102377619D01*
X146738095Y-102377619D02*
X147119047Y-102377619D01*
X147119047Y-102377619D02*
X147214285Y-102425238D01*
X147214285Y-102425238D02*
X147261904Y-102472857D01*
X147261904Y-102472857D02*
X147309523Y-102568095D01*
X147309523Y-102568095D02*
X147309523Y-102710952D01*
X147309523Y-102710952D02*
X147261904Y-102806190D01*
X147261904Y-102806190D02*
X147214285Y-102853809D01*
X147214285Y-102853809D02*
X147119047Y-102901428D01*
X147119047Y-102901428D02*
X146738095Y-102901428D01*
X147738095Y-103377619D02*
X147738095Y-102377619D01*
X147738095Y-102377619D02*
X147976190Y-102377619D01*
X147976190Y-102377619D02*
X148119047Y-102425238D01*
X148119047Y-102425238D02*
X148214285Y-102520476D01*
X148214285Y-102520476D02*
X148261904Y-102615714D01*
X148261904Y-102615714D02*
X148309523Y-102806190D01*
X148309523Y-102806190D02*
X148309523Y-102949047D01*
X148309523Y-102949047D02*
X148261904Y-103139523D01*
X148261904Y-103139523D02*
X148214285Y-103234761D01*
X148214285Y-103234761D02*
X148119047Y-103330000D01*
X148119047Y-103330000D02*
X147976190Y-103377619D01*
X147976190Y-103377619D02*
X147738095Y-103377619D01*
X148500000Y-103472857D02*
X149261904Y-103472857D01*
X149500000Y-102853809D02*
X149833333Y-102853809D01*
X149976190Y-103377619D02*
X149500000Y-103377619D01*
X149500000Y-103377619D02*
X149500000Y-102377619D01*
X149500000Y-102377619D02*
X149976190Y-102377619D01*
X150404762Y-103377619D02*
X150404762Y-102377619D01*
X150404762Y-102377619D02*
X150976190Y-103377619D01*
X150976190Y-103377619D02*
X150976190Y-102377619D01*
D12*
X167446190Y-59895238D02*
X167446190Y-57895238D01*
X167446190Y-57895238D02*
X168208095Y-57895238D01*
X168208095Y-57895238D02*
X168398571Y-57990476D01*
X168398571Y-57990476D02*
X168493809Y-58085714D01*
X168493809Y-58085714D02*
X168589047Y-58276190D01*
X168589047Y-58276190D02*
X168589047Y-58561904D01*
X168589047Y-58561904D02*
X168493809Y-58752380D01*
X168493809Y-58752380D02*
X168398571Y-58847619D01*
X168398571Y-58847619D02*
X168208095Y-58942857D01*
X168208095Y-58942857D02*
X167446190Y-58942857D01*
X170398571Y-59895238D02*
X169446190Y-59895238D01*
X169446190Y-59895238D02*
X169446190Y-57895238D01*
X170970000Y-59323809D02*
X171922381Y-59323809D01*
X170779524Y-59895238D02*
X171446190Y-57895238D01*
X171446190Y-57895238D02*
X172112857Y-59895238D01*
X174112857Y-60085714D02*
X173922381Y-59990476D01*
X173922381Y-59990476D02*
X173731905Y-59800000D01*
X173731905Y-59800000D02*
X173446191Y-59514285D01*
X173446191Y-59514285D02*
X173255714Y-59419047D01*
X173255714Y-59419047D02*
X173065238Y-59419047D01*
X173160476Y-59895238D02*
X172970000Y-59800000D01*
X172970000Y-59800000D02*
X172779524Y-59609523D01*
X172779524Y-59609523D02*
X172684286Y-59228571D01*
X172684286Y-59228571D02*
X172684286Y-58561904D01*
X172684286Y-58561904D02*
X172779524Y-58180952D01*
X172779524Y-58180952D02*
X172970000Y-57990476D01*
X172970000Y-57990476D02*
X173160476Y-57895238D01*
X173160476Y-57895238D02*
X173541429Y-57895238D01*
X173541429Y-57895238D02*
X173731905Y-57990476D01*
X173731905Y-57990476D02*
X173922381Y-58180952D01*
X173922381Y-58180952D02*
X174017619Y-58561904D01*
X174017619Y-58561904D02*
X174017619Y-59228571D01*
X174017619Y-59228571D02*
X173922381Y-59609523D01*
X173922381Y-59609523D02*
X173731905Y-59800000D01*
X173731905Y-59800000D02*
X173541429Y-59895238D01*
X173541429Y-59895238D02*
X173160476Y-59895238D01*
X176017619Y-59704761D02*
X175922381Y-59800000D01*
X175922381Y-59800000D02*
X175636667Y-59895238D01*
X175636667Y-59895238D02*
X175446191Y-59895238D01*
X175446191Y-59895238D02*
X175160476Y-59800000D01*
X175160476Y-59800000D02*
X174970000Y-59609523D01*
X174970000Y-59609523D02*
X174874762Y-59419047D01*
X174874762Y-59419047D02*
X174779524Y-59038095D01*
X174779524Y-59038095D02*
X174779524Y-58752380D01*
X174779524Y-58752380D02*
X174874762Y-58371428D01*
X174874762Y-58371428D02*
X174970000Y-58180952D01*
X174970000Y-58180952D02*
X175160476Y-57990476D01*
X175160476Y-57990476D02*
X175446191Y-57895238D01*
X175446191Y-57895238D02*
X175636667Y-57895238D01*
X175636667Y-57895238D02*
X175922381Y-57990476D01*
X175922381Y-57990476D02*
X176017619Y-58085714D01*
X176874762Y-59895238D02*
X176874762Y-57895238D01*
X176874762Y-58847619D02*
X178017619Y-58847619D01*
X178017619Y-59895238D02*
X178017619Y-57895238D01*
X178970000Y-58847619D02*
X179636667Y-58847619D01*
X179922381Y-59895238D02*
X178970000Y-59895238D01*
X178970000Y-59895238D02*
X178970000Y-57895238D01*
X178970000Y-57895238D02*
X179922381Y-57895238D01*
X180779524Y-59895238D02*
X180779524Y-57895238D01*
X181922381Y-59895238D02*
X181065238Y-58752380D01*
X181922381Y-57895238D02*
X180779524Y-59038095D01*
D10*
X147238095Y-107996666D02*
X148000000Y-107996666D01*
X147619047Y-108377619D02*
X147619047Y-107615714D01*
X148999999Y-108377619D02*
X148428571Y-108377619D01*
X148714285Y-108377619D02*
X148714285Y-107377619D01*
X148714285Y-107377619D02*
X148619047Y-107520476D01*
X148619047Y-107520476D02*
X148523809Y-107615714D01*
X148523809Y-107615714D02*
X148428571Y-107663333D01*
X149380952Y-107472857D02*
X149428571Y-107425238D01*
X149428571Y-107425238D02*
X149523809Y-107377619D01*
X149523809Y-107377619D02*
X149761904Y-107377619D01*
X149761904Y-107377619D02*
X149857142Y-107425238D01*
X149857142Y-107425238D02*
X149904761Y-107472857D01*
X149904761Y-107472857D02*
X149952380Y-107568095D01*
X149952380Y-107568095D02*
X149952380Y-107663333D01*
X149952380Y-107663333D02*
X149904761Y-107806190D01*
X149904761Y-107806190D02*
X149333333Y-108377619D01*
X149333333Y-108377619D02*
X149952380Y-108377619D01*
X150238095Y-107377619D02*
X150571428Y-108377619D01*
X150571428Y-108377619D02*
X150904761Y-107377619D01*
X148761904Y-99925238D02*
X148666666Y-99877619D01*
X148666666Y-99877619D02*
X148523809Y-99877619D01*
X148523809Y-99877619D02*
X148380952Y-99925238D01*
X148380952Y-99925238D02*
X148285714Y-100020476D01*
X148285714Y-100020476D02*
X148238095Y-100115714D01*
X148238095Y-100115714D02*
X148190476Y-100306190D01*
X148190476Y-100306190D02*
X148190476Y-100449047D01*
X148190476Y-100449047D02*
X148238095Y-100639523D01*
X148238095Y-100639523D02*
X148285714Y-100734761D01*
X148285714Y-100734761D02*
X148380952Y-100830000D01*
X148380952Y-100830000D02*
X148523809Y-100877619D01*
X148523809Y-100877619D02*
X148619047Y-100877619D01*
X148619047Y-100877619D02*
X148761904Y-100830000D01*
X148761904Y-100830000D02*
X148809523Y-100782380D01*
X148809523Y-100782380D02*
X148809523Y-100449047D01*
X148809523Y-100449047D02*
X148619047Y-100449047D01*
X149238095Y-100877619D02*
X149238095Y-99877619D01*
X149238095Y-99877619D02*
X149809523Y-100877619D01*
X149809523Y-100877619D02*
X149809523Y-99877619D01*
X150285714Y-100877619D02*
X150285714Y-99877619D01*
X150285714Y-99877619D02*
X150523809Y-99877619D01*
X150523809Y-99877619D02*
X150666666Y-99925238D01*
X150666666Y-99925238D02*
X150761904Y-100020476D01*
X150761904Y-100020476D02*
X150809523Y-100115714D01*
X150809523Y-100115714D02*
X150857142Y-100306190D01*
X150857142Y-100306190D02*
X150857142Y-100449047D01*
X150857142Y-100449047D02*
X150809523Y-100639523D01*
X150809523Y-100639523D02*
X150761904Y-100734761D01*
X150761904Y-100734761D02*
X150666666Y-100830000D01*
X150666666Y-100830000D02*
X150523809Y-100877619D01*
X150523809Y-100877619D02*
X150285714Y-100877619D01*
X167782380Y-121190476D02*
X167830000Y-121238095D01*
X167830000Y-121238095D02*
X167877619Y-121380952D01*
X167877619Y-121380952D02*
X167877619Y-121476190D01*
X167877619Y-121476190D02*
X167830000Y-121619047D01*
X167830000Y-121619047D02*
X167734761Y-121714285D01*
X167734761Y-121714285D02*
X167639523Y-121761904D01*
X167639523Y-121761904D02*
X167449047Y-121809523D01*
X167449047Y-121809523D02*
X167306190Y-121809523D01*
X167306190Y-121809523D02*
X167115714Y-121761904D01*
X167115714Y-121761904D02*
X167020476Y-121714285D01*
X167020476Y-121714285D02*
X166925238Y-121619047D01*
X166925238Y-121619047D02*
X166877619Y-121476190D01*
X166877619Y-121476190D02*
X166877619Y-121380952D01*
X166877619Y-121380952D02*
X166925238Y-121238095D01*
X166925238Y-121238095D02*
X166972857Y-121190476D01*
X167830000Y-120809523D02*
X167877619Y-120666666D01*
X167877619Y-120666666D02*
X167877619Y-120428571D01*
X167877619Y-120428571D02*
X167830000Y-120333333D01*
X167830000Y-120333333D02*
X167782380Y-120285714D01*
X167782380Y-120285714D02*
X167687142Y-120238095D01*
X167687142Y-120238095D02*
X167591904Y-120238095D01*
X167591904Y-120238095D02*
X167496666Y-120285714D01*
X167496666Y-120285714D02*
X167449047Y-120333333D01*
X167449047Y-120333333D02*
X167401428Y-120428571D01*
X167401428Y-120428571D02*
X167353809Y-120619047D01*
X167353809Y-120619047D02*
X167306190Y-120714285D01*
X167306190Y-120714285D02*
X167258571Y-120761904D01*
X167258571Y-120761904D02*
X167163333Y-120809523D01*
X167163333Y-120809523D02*
X167068095Y-120809523D01*
X167068095Y-120809523D02*
X166972857Y-120761904D01*
X166972857Y-120761904D02*
X166925238Y-120714285D01*
X166925238Y-120714285D02*
X166877619Y-120619047D01*
X166877619Y-120619047D02*
X166877619Y-120380952D01*
X166877619Y-120380952D02*
X166925238Y-120238095D01*
X187377619Y-121761904D02*
X186377619Y-121761904D01*
X186377619Y-121761904D02*
X186377619Y-121380952D01*
X186377619Y-121380952D02*
X186425238Y-121285714D01*
X186425238Y-121285714D02*
X186472857Y-121238095D01*
X186472857Y-121238095D02*
X186568095Y-121190476D01*
X186568095Y-121190476D02*
X186710952Y-121190476D01*
X186710952Y-121190476D02*
X186806190Y-121238095D01*
X186806190Y-121238095D02*
X186853809Y-121285714D01*
X186853809Y-121285714D02*
X186901428Y-121380952D01*
X186901428Y-121380952D02*
X186901428Y-121761904D01*
X186377619Y-120857142D02*
X187377619Y-120619047D01*
X187377619Y-120619047D02*
X186663333Y-120428571D01*
X186663333Y-120428571D02*
X187377619Y-120238095D01*
X187377619Y-120238095D02*
X186377619Y-120000000D01*
X187377619Y-119619047D02*
X186377619Y-119619047D01*
X186377619Y-119619047D02*
X187091904Y-119285714D01*
X187091904Y-119285714D02*
X186377619Y-118952381D01*
X186377619Y-118952381D02*
X187377619Y-118952381D01*
X194780979Y-69258389D02*
X194685741Y-69210770D01*
X194685741Y-69210770D02*
X194542884Y-69210770D01*
X194542884Y-69210770D02*
X194400027Y-69258389D01*
X194400027Y-69258389D02*
X194304789Y-69353627D01*
X194304789Y-69353627D02*
X194257170Y-69448865D01*
X194257170Y-69448865D02*
X194209551Y-69639341D01*
X194209551Y-69639341D02*
X194209551Y-69782198D01*
X194209551Y-69782198D02*
X194257170Y-69972674D01*
X194257170Y-69972674D02*
X194304789Y-70067912D01*
X194304789Y-70067912D02*
X194400027Y-70163151D01*
X194400027Y-70163151D02*
X194542884Y-70210770D01*
X194542884Y-70210770D02*
X194638122Y-70210770D01*
X194638122Y-70210770D02*
X194780979Y-70163151D01*
X194780979Y-70163151D02*
X194828598Y-70115531D01*
X194828598Y-70115531D02*
X194828598Y-69782198D01*
X194828598Y-69782198D02*
X194638122Y-69782198D01*
X195257170Y-70210770D02*
X195257170Y-69210770D01*
X195257170Y-69210770D02*
X195828598Y-70210770D01*
X195828598Y-70210770D02*
X195828598Y-69210770D01*
X196304789Y-70210770D02*
X196304789Y-69210770D01*
X196304789Y-69210770D02*
X196542884Y-69210770D01*
X196542884Y-69210770D02*
X196685741Y-69258389D01*
X196685741Y-69258389D02*
X196780979Y-69353627D01*
X196780979Y-69353627D02*
X196828598Y-69448865D01*
X196828598Y-69448865D02*
X196876217Y-69639341D01*
X196876217Y-69639341D02*
X196876217Y-69782198D01*
X196876217Y-69782198D02*
X196828598Y-69972674D01*
X196828598Y-69972674D02*
X196780979Y-70067912D01*
X196780979Y-70067912D02*
X196685741Y-70163151D01*
X196685741Y-70163151D02*
X196542884Y-70210770D01*
X196542884Y-70210770D02*
X196304789Y-70210770D01*
%TO.C,TP4*%
X157238095Y-114014619D02*
X157809523Y-114014619D01*
X157523809Y-115014619D02*
X157523809Y-114014619D01*
X158142857Y-115014619D02*
X158142857Y-114014619D01*
X158142857Y-114014619D02*
X158523809Y-114014619D01*
X158523809Y-114014619D02*
X158619047Y-114062238D01*
X158619047Y-114062238D02*
X158666666Y-114109857D01*
X158666666Y-114109857D02*
X158714285Y-114205095D01*
X158714285Y-114205095D02*
X158714285Y-114347952D01*
X158714285Y-114347952D02*
X158666666Y-114443190D01*
X158666666Y-114443190D02*
X158619047Y-114490809D01*
X158619047Y-114490809D02*
X158523809Y-114538428D01*
X158523809Y-114538428D02*
X158142857Y-114538428D01*
X159571428Y-114347952D02*
X159571428Y-115014619D01*
X159333333Y-113967000D02*
X159095238Y-114681285D01*
X159095238Y-114681285D02*
X159714285Y-114681285D01*
%TO.C,R17*%
X151444642Y-116032619D02*
X151111309Y-115556428D01*
X150873214Y-116032619D02*
X150873214Y-115032619D01*
X150873214Y-115032619D02*
X151254166Y-115032619D01*
X151254166Y-115032619D02*
X151349404Y-115080238D01*
X151349404Y-115080238D02*
X151397023Y-115127857D01*
X151397023Y-115127857D02*
X151444642Y-115223095D01*
X151444642Y-115223095D02*
X151444642Y-115365952D01*
X151444642Y-115365952D02*
X151397023Y-115461190D01*
X151397023Y-115461190D02*
X151349404Y-115508809D01*
X151349404Y-115508809D02*
X151254166Y-115556428D01*
X151254166Y-115556428D02*
X150873214Y-115556428D01*
X152397023Y-116032619D02*
X151825595Y-116032619D01*
X152111309Y-116032619D02*
X152111309Y-115032619D01*
X152111309Y-115032619D02*
X152016071Y-115175476D01*
X152016071Y-115175476D02*
X151920833Y-115270714D01*
X151920833Y-115270714D02*
X151825595Y-115318333D01*
X152730357Y-115032619D02*
X153397023Y-115032619D01*
X153397023Y-115032619D02*
X152968452Y-116032619D01*
%TO.C,R1*%
X189745833Y-76532619D02*
X189412500Y-76056428D01*
X189174405Y-76532619D02*
X189174405Y-75532619D01*
X189174405Y-75532619D02*
X189555357Y-75532619D01*
X189555357Y-75532619D02*
X189650595Y-75580238D01*
X189650595Y-75580238D02*
X189698214Y-75627857D01*
X189698214Y-75627857D02*
X189745833Y-75723095D01*
X189745833Y-75723095D02*
X189745833Y-75865952D01*
X189745833Y-75865952D02*
X189698214Y-75961190D01*
X189698214Y-75961190D02*
X189650595Y-76008809D01*
X189650595Y-76008809D02*
X189555357Y-76056428D01*
X189555357Y-76056428D02*
X189174405Y-76056428D01*
X190698214Y-76532619D02*
X190126786Y-76532619D01*
X190412500Y-76532619D02*
X190412500Y-75532619D01*
X190412500Y-75532619D02*
X190317262Y-75675476D01*
X190317262Y-75675476D02*
X190222024Y-75770714D01*
X190222024Y-75770714D02*
X190126786Y-75818333D01*
%TO.C,C5*%
X162187380Y-107904166D02*
X162235000Y-107951785D01*
X162235000Y-107951785D02*
X162282619Y-108094642D01*
X162282619Y-108094642D02*
X162282619Y-108189880D01*
X162282619Y-108189880D02*
X162235000Y-108332737D01*
X162235000Y-108332737D02*
X162139761Y-108427975D01*
X162139761Y-108427975D02*
X162044523Y-108475594D01*
X162044523Y-108475594D02*
X161854047Y-108523213D01*
X161854047Y-108523213D02*
X161711190Y-108523213D01*
X161711190Y-108523213D02*
X161520714Y-108475594D01*
X161520714Y-108475594D02*
X161425476Y-108427975D01*
X161425476Y-108427975D02*
X161330238Y-108332737D01*
X161330238Y-108332737D02*
X161282619Y-108189880D01*
X161282619Y-108189880D02*
X161282619Y-108094642D01*
X161282619Y-108094642D02*
X161330238Y-107951785D01*
X161330238Y-107951785D02*
X161377857Y-107904166D01*
X161282619Y-106999404D02*
X161282619Y-107475594D01*
X161282619Y-107475594D02*
X161758809Y-107523213D01*
X161758809Y-107523213D02*
X161711190Y-107475594D01*
X161711190Y-107475594D02*
X161663571Y-107380356D01*
X161663571Y-107380356D02*
X161663571Y-107142261D01*
X161663571Y-107142261D02*
X161711190Y-107047023D01*
X161711190Y-107047023D02*
X161758809Y-106999404D01*
X161758809Y-106999404D02*
X161854047Y-106951785D01*
X161854047Y-106951785D02*
X162092142Y-106951785D01*
X162092142Y-106951785D02*
X162187380Y-106999404D01*
X162187380Y-106999404D02*
X162235000Y-107047023D01*
X162235000Y-107047023D02*
X162282619Y-107142261D01*
X162282619Y-107142261D02*
X162282619Y-107380356D01*
X162282619Y-107380356D02*
X162235000Y-107475594D01*
X162235000Y-107475594D02*
X162187380Y-107523213D01*
%TO.C,D3*%
X197261905Y-87712619D02*
X197261905Y-86712619D01*
X197261905Y-86712619D02*
X197500000Y-86712619D01*
X197500000Y-86712619D02*
X197642857Y-86760238D01*
X197642857Y-86760238D02*
X197738095Y-86855476D01*
X197738095Y-86855476D02*
X197785714Y-86950714D01*
X197785714Y-86950714D02*
X197833333Y-87141190D01*
X197833333Y-87141190D02*
X197833333Y-87284047D01*
X197833333Y-87284047D02*
X197785714Y-87474523D01*
X197785714Y-87474523D02*
X197738095Y-87569761D01*
X197738095Y-87569761D02*
X197642857Y-87665000D01*
X197642857Y-87665000D02*
X197500000Y-87712619D01*
X197500000Y-87712619D02*
X197261905Y-87712619D01*
X198166667Y-86712619D02*
X198785714Y-86712619D01*
X198785714Y-86712619D02*
X198452381Y-87093571D01*
X198452381Y-87093571D02*
X198595238Y-87093571D01*
X198595238Y-87093571D02*
X198690476Y-87141190D01*
X198690476Y-87141190D02*
X198738095Y-87188809D01*
X198738095Y-87188809D02*
X198785714Y-87284047D01*
X198785714Y-87284047D02*
X198785714Y-87522142D01*
X198785714Y-87522142D02*
X198738095Y-87617380D01*
X198738095Y-87617380D02*
X198690476Y-87665000D01*
X198690476Y-87665000D02*
X198595238Y-87712619D01*
X198595238Y-87712619D02*
X198309524Y-87712619D01*
X198309524Y-87712619D02*
X198214286Y-87665000D01*
X198214286Y-87665000D02*
X198166667Y-87617380D01*
%TO.C,R5*%
X162056668Y-84443904D02*
X161723335Y-83967713D01*
X161485240Y-84443904D02*
X161485240Y-83443904D01*
X161485240Y-83443904D02*
X161866192Y-83443904D01*
X161866192Y-83443904D02*
X161961430Y-83491523D01*
X161961430Y-83491523D02*
X162009049Y-83539142D01*
X162009049Y-83539142D02*
X162056668Y-83634380D01*
X162056668Y-83634380D02*
X162056668Y-83777237D01*
X162056668Y-83777237D02*
X162009049Y-83872475D01*
X162009049Y-83872475D02*
X161961430Y-83920094D01*
X161961430Y-83920094D02*
X161866192Y-83967713D01*
X161866192Y-83967713D02*
X161485240Y-83967713D01*
X162961430Y-83443904D02*
X162485240Y-83443904D01*
X162485240Y-83443904D02*
X162437621Y-83920094D01*
X162437621Y-83920094D02*
X162485240Y-83872475D01*
X162485240Y-83872475D02*
X162580478Y-83824856D01*
X162580478Y-83824856D02*
X162818573Y-83824856D01*
X162818573Y-83824856D02*
X162913811Y-83872475D01*
X162913811Y-83872475D02*
X162961430Y-83920094D01*
X162961430Y-83920094D02*
X163009049Y-84015332D01*
X163009049Y-84015332D02*
X163009049Y-84253427D01*
X163009049Y-84253427D02*
X162961430Y-84348665D01*
X162961430Y-84348665D02*
X162913811Y-84396285D01*
X162913811Y-84396285D02*
X162818573Y-84443904D01*
X162818573Y-84443904D02*
X162580478Y-84443904D01*
X162580478Y-84443904D02*
X162485240Y-84396285D01*
X162485240Y-84396285D02*
X162437621Y-84348665D01*
%TO.C,C3*%
X150619788Y-112516235D02*
X150572169Y-112563855D01*
X150572169Y-112563855D02*
X150429312Y-112611474D01*
X150429312Y-112611474D02*
X150334074Y-112611474D01*
X150334074Y-112611474D02*
X150191217Y-112563855D01*
X150191217Y-112563855D02*
X150095979Y-112468616D01*
X150095979Y-112468616D02*
X150048360Y-112373378D01*
X150048360Y-112373378D02*
X150000741Y-112182902D01*
X150000741Y-112182902D02*
X150000741Y-112040045D01*
X150000741Y-112040045D02*
X150048360Y-111849569D01*
X150048360Y-111849569D02*
X150095979Y-111754331D01*
X150095979Y-111754331D02*
X150191217Y-111659093D01*
X150191217Y-111659093D02*
X150334074Y-111611474D01*
X150334074Y-111611474D02*
X150429312Y-111611474D01*
X150429312Y-111611474D02*
X150572169Y-111659093D01*
X150572169Y-111659093D02*
X150619788Y-111706712D01*
X150953122Y-111611474D02*
X151572169Y-111611474D01*
X151572169Y-111611474D02*
X151238836Y-111992426D01*
X151238836Y-111992426D02*
X151381693Y-111992426D01*
X151381693Y-111992426D02*
X151476931Y-112040045D01*
X151476931Y-112040045D02*
X151524550Y-112087664D01*
X151524550Y-112087664D02*
X151572169Y-112182902D01*
X151572169Y-112182902D02*
X151572169Y-112420997D01*
X151572169Y-112420997D02*
X151524550Y-112516235D01*
X151524550Y-112516235D02*
X151476931Y-112563855D01*
X151476931Y-112563855D02*
X151381693Y-112611474D01*
X151381693Y-112611474D02*
X151095979Y-112611474D01*
X151095979Y-112611474D02*
X151000741Y-112563855D01*
X151000741Y-112563855D02*
X150953122Y-112516235D01*
%TO.C,J3*%
X181166666Y-123262619D02*
X181166666Y-123976904D01*
X181166666Y-123976904D02*
X181119047Y-124119761D01*
X181119047Y-124119761D02*
X181023809Y-124215000D01*
X181023809Y-124215000D02*
X180880952Y-124262619D01*
X180880952Y-124262619D02*
X180785714Y-124262619D01*
X181547619Y-123262619D02*
X182166666Y-123262619D01*
X182166666Y-123262619D02*
X181833333Y-123643571D01*
X181833333Y-123643571D02*
X181976190Y-123643571D01*
X181976190Y-123643571D02*
X182071428Y-123691190D01*
X182071428Y-123691190D02*
X182119047Y-123738809D01*
X182119047Y-123738809D02*
X182166666Y-123834047D01*
X182166666Y-123834047D02*
X182166666Y-124072142D01*
X182166666Y-124072142D02*
X182119047Y-124167380D01*
X182119047Y-124167380D02*
X182071428Y-124215000D01*
X182071428Y-124215000D02*
X181976190Y-124262619D01*
X181976190Y-124262619D02*
X181690476Y-124262619D01*
X181690476Y-124262619D02*
X181595238Y-124215000D01*
X181595238Y-124215000D02*
X181547619Y-124167380D01*
%TO.C,C4*%
X165833333Y-110742380D02*
X165785714Y-110790000D01*
X165785714Y-110790000D02*
X165642857Y-110837619D01*
X165642857Y-110837619D02*
X165547619Y-110837619D01*
X165547619Y-110837619D02*
X165404762Y-110790000D01*
X165404762Y-110790000D02*
X165309524Y-110694761D01*
X165309524Y-110694761D02*
X165261905Y-110599523D01*
X165261905Y-110599523D02*
X165214286Y-110409047D01*
X165214286Y-110409047D02*
X165214286Y-110266190D01*
X165214286Y-110266190D02*
X165261905Y-110075714D01*
X165261905Y-110075714D02*
X165309524Y-109980476D01*
X165309524Y-109980476D02*
X165404762Y-109885238D01*
X165404762Y-109885238D02*
X165547619Y-109837619D01*
X165547619Y-109837619D02*
X165642857Y-109837619D01*
X165642857Y-109837619D02*
X165785714Y-109885238D01*
X165785714Y-109885238D02*
X165833333Y-109932857D01*
X166690476Y-110170952D02*
X166690476Y-110837619D01*
X166452381Y-109790000D02*
X166214286Y-110504285D01*
X166214286Y-110504285D02*
X166833333Y-110504285D01*
%TO.C,JP1*%
X157916666Y-102882619D02*
X157916666Y-103596904D01*
X157916666Y-103596904D02*
X157869047Y-103739761D01*
X157869047Y-103739761D02*
X157773809Y-103835000D01*
X157773809Y-103835000D02*
X157630952Y-103882619D01*
X157630952Y-103882619D02*
X157535714Y-103882619D01*
X158392857Y-103882619D02*
X158392857Y-102882619D01*
X158392857Y-102882619D02*
X158773809Y-102882619D01*
X158773809Y-102882619D02*
X158869047Y-102930238D01*
X158869047Y-102930238D02*
X158916666Y-102977857D01*
X158916666Y-102977857D02*
X158964285Y-103073095D01*
X158964285Y-103073095D02*
X158964285Y-103215952D01*
X158964285Y-103215952D02*
X158916666Y-103311190D01*
X158916666Y-103311190D02*
X158869047Y-103358809D01*
X158869047Y-103358809D02*
X158773809Y-103406428D01*
X158773809Y-103406428D02*
X158392857Y-103406428D01*
X159916666Y-103882619D02*
X159345238Y-103882619D01*
X159630952Y-103882619D02*
X159630952Y-102882619D01*
X159630952Y-102882619D02*
X159535714Y-103025476D01*
X159535714Y-103025476D02*
X159440476Y-103120714D01*
X159440476Y-103120714D02*
X159345238Y-103168333D01*
%TO.C,R6*%
X162056668Y-87443904D02*
X161723335Y-86967713D01*
X161485240Y-87443904D02*
X161485240Y-86443904D01*
X161485240Y-86443904D02*
X161866192Y-86443904D01*
X161866192Y-86443904D02*
X161961430Y-86491523D01*
X161961430Y-86491523D02*
X162009049Y-86539142D01*
X162009049Y-86539142D02*
X162056668Y-86634380D01*
X162056668Y-86634380D02*
X162056668Y-86777237D01*
X162056668Y-86777237D02*
X162009049Y-86872475D01*
X162009049Y-86872475D02*
X161961430Y-86920094D01*
X161961430Y-86920094D02*
X161866192Y-86967713D01*
X161866192Y-86967713D02*
X161485240Y-86967713D01*
X162913811Y-86443904D02*
X162723335Y-86443904D01*
X162723335Y-86443904D02*
X162628097Y-86491523D01*
X162628097Y-86491523D02*
X162580478Y-86539142D01*
X162580478Y-86539142D02*
X162485240Y-86681999D01*
X162485240Y-86681999D02*
X162437621Y-86872475D01*
X162437621Y-86872475D02*
X162437621Y-87253427D01*
X162437621Y-87253427D02*
X162485240Y-87348665D01*
X162485240Y-87348665D02*
X162532859Y-87396285D01*
X162532859Y-87396285D02*
X162628097Y-87443904D01*
X162628097Y-87443904D02*
X162818573Y-87443904D01*
X162818573Y-87443904D02*
X162913811Y-87396285D01*
X162913811Y-87396285D02*
X162961430Y-87348665D01*
X162961430Y-87348665D02*
X163009049Y-87253427D01*
X163009049Y-87253427D02*
X163009049Y-87015332D01*
X163009049Y-87015332D02*
X162961430Y-86920094D01*
X162961430Y-86920094D02*
X162913811Y-86872475D01*
X162913811Y-86872475D02*
X162818573Y-86824856D01*
X162818573Y-86824856D02*
X162628097Y-86824856D01*
X162628097Y-86824856D02*
X162532859Y-86872475D01*
X162532859Y-86872475D02*
X162485240Y-86920094D01*
X162485240Y-86920094D02*
X162437621Y-87015332D01*
%TO.C,H4*%
X146738095Y-119462619D02*
X146738095Y-118462619D01*
X146738095Y-118938809D02*
X147309523Y-118938809D01*
X147309523Y-119462619D02*
X147309523Y-118462619D01*
X148214285Y-118795952D02*
X148214285Y-119462619D01*
X147976190Y-118415000D02*
X147738095Y-119129285D01*
X147738095Y-119129285D02*
X148357142Y-119129285D01*
%TO.C,R33*%
X147986601Y-69294190D02*
X147653268Y-68817999D01*
X147415173Y-69294190D02*
X147415173Y-68294190D01*
X147415173Y-68294190D02*
X147796125Y-68294190D01*
X147796125Y-68294190D02*
X147891363Y-68341809D01*
X147891363Y-68341809D02*
X147938982Y-68389428D01*
X147938982Y-68389428D02*
X147986601Y-68484666D01*
X147986601Y-68484666D02*
X147986601Y-68627523D01*
X147986601Y-68627523D02*
X147938982Y-68722761D01*
X147938982Y-68722761D02*
X147891363Y-68770380D01*
X147891363Y-68770380D02*
X147796125Y-68817999D01*
X147796125Y-68817999D02*
X147415173Y-68817999D01*
X148319935Y-68294190D02*
X148938982Y-68294190D01*
X148938982Y-68294190D02*
X148605649Y-68675142D01*
X148605649Y-68675142D02*
X148748506Y-68675142D01*
X148748506Y-68675142D02*
X148843744Y-68722761D01*
X148843744Y-68722761D02*
X148891363Y-68770380D01*
X148891363Y-68770380D02*
X148938982Y-68865618D01*
X148938982Y-68865618D02*
X148938982Y-69103713D01*
X148938982Y-69103713D02*
X148891363Y-69198951D01*
X148891363Y-69198951D02*
X148843744Y-69246571D01*
X148843744Y-69246571D02*
X148748506Y-69294190D01*
X148748506Y-69294190D02*
X148462792Y-69294190D01*
X148462792Y-69294190D02*
X148367554Y-69246571D01*
X148367554Y-69246571D02*
X148319935Y-69198951D01*
X149272316Y-68294190D02*
X149891363Y-68294190D01*
X149891363Y-68294190D02*
X149558030Y-68675142D01*
X149558030Y-68675142D02*
X149700887Y-68675142D01*
X149700887Y-68675142D02*
X149796125Y-68722761D01*
X149796125Y-68722761D02*
X149843744Y-68770380D01*
X149843744Y-68770380D02*
X149891363Y-68865618D01*
X149891363Y-68865618D02*
X149891363Y-69103713D01*
X149891363Y-69103713D02*
X149843744Y-69198951D01*
X149843744Y-69198951D02*
X149796125Y-69246571D01*
X149796125Y-69246571D02*
X149700887Y-69294190D01*
X149700887Y-69294190D02*
X149415173Y-69294190D01*
X149415173Y-69294190D02*
X149319935Y-69246571D01*
X149319935Y-69246571D02*
X149272316Y-69198951D01*
%TO.C,R16*%
X190357142Y-63462619D02*
X190023809Y-62986428D01*
X189785714Y-63462619D02*
X189785714Y-62462619D01*
X189785714Y-62462619D02*
X190166666Y-62462619D01*
X190166666Y-62462619D02*
X190261904Y-62510238D01*
X190261904Y-62510238D02*
X190309523Y-62557857D01*
X190309523Y-62557857D02*
X190357142Y-62653095D01*
X190357142Y-62653095D02*
X190357142Y-62795952D01*
X190357142Y-62795952D02*
X190309523Y-62891190D01*
X190309523Y-62891190D02*
X190261904Y-62938809D01*
X190261904Y-62938809D02*
X190166666Y-62986428D01*
X190166666Y-62986428D02*
X189785714Y-62986428D01*
X191309523Y-63462619D02*
X190738095Y-63462619D01*
X191023809Y-63462619D02*
X191023809Y-62462619D01*
X191023809Y-62462619D02*
X190928571Y-62605476D01*
X190928571Y-62605476D02*
X190833333Y-62700714D01*
X190833333Y-62700714D02*
X190738095Y-62748333D01*
X192166666Y-62462619D02*
X191976190Y-62462619D01*
X191976190Y-62462619D02*
X191880952Y-62510238D01*
X191880952Y-62510238D02*
X191833333Y-62557857D01*
X191833333Y-62557857D02*
X191738095Y-62700714D01*
X191738095Y-62700714D02*
X191690476Y-62891190D01*
X191690476Y-62891190D02*
X191690476Y-63272142D01*
X191690476Y-63272142D02*
X191738095Y-63367380D01*
X191738095Y-63367380D02*
X191785714Y-63415000D01*
X191785714Y-63415000D02*
X191880952Y-63462619D01*
X191880952Y-63462619D02*
X192071428Y-63462619D01*
X192071428Y-63462619D02*
X192166666Y-63415000D01*
X192166666Y-63415000D02*
X192214285Y-63367380D01*
X192214285Y-63367380D02*
X192261904Y-63272142D01*
X192261904Y-63272142D02*
X192261904Y-63034047D01*
X192261904Y-63034047D02*
X192214285Y-62938809D01*
X192214285Y-62938809D02*
X192166666Y-62891190D01*
X192166666Y-62891190D02*
X192071428Y-62843571D01*
X192071428Y-62843571D02*
X191880952Y-62843571D01*
X191880952Y-62843571D02*
X191785714Y-62891190D01*
X191785714Y-62891190D02*
X191738095Y-62938809D01*
X191738095Y-62938809D02*
X191690476Y-63034047D01*
%TO.C,R11*%
X189248686Y-83227631D02*
X188915353Y-82751440D01*
X188677258Y-83227631D02*
X188677258Y-82227631D01*
X188677258Y-82227631D02*
X189058210Y-82227631D01*
X189058210Y-82227631D02*
X189153448Y-82275250D01*
X189153448Y-82275250D02*
X189201067Y-82322869D01*
X189201067Y-82322869D02*
X189248686Y-82418107D01*
X189248686Y-82418107D02*
X189248686Y-82560964D01*
X189248686Y-82560964D02*
X189201067Y-82656202D01*
X189201067Y-82656202D02*
X189153448Y-82703821D01*
X189153448Y-82703821D02*
X189058210Y-82751440D01*
X189058210Y-82751440D02*
X188677258Y-82751440D01*
X190201067Y-83227631D02*
X189629639Y-83227631D01*
X189915353Y-83227631D02*
X189915353Y-82227631D01*
X189915353Y-82227631D02*
X189820115Y-82370488D01*
X189820115Y-82370488D02*
X189724877Y-82465726D01*
X189724877Y-82465726D02*
X189629639Y-82513345D01*
X191153448Y-83227631D02*
X190582020Y-83227631D01*
X190867734Y-83227631D02*
X190867734Y-82227631D01*
X190867734Y-82227631D02*
X190772496Y-82370488D01*
X190772496Y-82370488D02*
X190677258Y-82465726D01*
X190677258Y-82465726D02*
X190582020Y-82513345D01*
%TO.C,D2*%
X197261905Y-84712619D02*
X197261905Y-83712619D01*
X197261905Y-83712619D02*
X197500000Y-83712619D01*
X197500000Y-83712619D02*
X197642857Y-83760238D01*
X197642857Y-83760238D02*
X197738095Y-83855476D01*
X197738095Y-83855476D02*
X197785714Y-83950714D01*
X197785714Y-83950714D02*
X197833333Y-84141190D01*
X197833333Y-84141190D02*
X197833333Y-84284047D01*
X197833333Y-84284047D02*
X197785714Y-84474523D01*
X197785714Y-84474523D02*
X197738095Y-84569761D01*
X197738095Y-84569761D02*
X197642857Y-84665000D01*
X197642857Y-84665000D02*
X197500000Y-84712619D01*
X197500000Y-84712619D02*
X197261905Y-84712619D01*
X198214286Y-83807857D02*
X198261905Y-83760238D01*
X198261905Y-83760238D02*
X198357143Y-83712619D01*
X198357143Y-83712619D02*
X198595238Y-83712619D01*
X198595238Y-83712619D02*
X198690476Y-83760238D01*
X198690476Y-83760238D02*
X198738095Y-83807857D01*
X198738095Y-83807857D02*
X198785714Y-83903095D01*
X198785714Y-83903095D02*
X198785714Y-83998333D01*
X198785714Y-83998333D02*
X198738095Y-84141190D01*
X198738095Y-84141190D02*
X198166667Y-84712619D01*
X198166667Y-84712619D02*
X198785714Y-84712619D01*
%TO.C,C1*%
X154833333Y-112629880D02*
X154785714Y-112677500D01*
X154785714Y-112677500D02*
X154642857Y-112725119D01*
X154642857Y-112725119D02*
X154547619Y-112725119D01*
X154547619Y-112725119D02*
X154404762Y-112677500D01*
X154404762Y-112677500D02*
X154309524Y-112582261D01*
X154309524Y-112582261D02*
X154261905Y-112487023D01*
X154261905Y-112487023D02*
X154214286Y-112296547D01*
X154214286Y-112296547D02*
X154214286Y-112153690D01*
X154214286Y-112153690D02*
X154261905Y-111963214D01*
X154261905Y-111963214D02*
X154309524Y-111867976D01*
X154309524Y-111867976D02*
X154404762Y-111772738D01*
X154404762Y-111772738D02*
X154547619Y-111725119D01*
X154547619Y-111725119D02*
X154642857Y-111725119D01*
X154642857Y-111725119D02*
X154785714Y-111772738D01*
X154785714Y-111772738D02*
X154833333Y-111820357D01*
X155785714Y-112725119D02*
X155214286Y-112725119D01*
X155500000Y-112725119D02*
X155500000Y-111725119D01*
X155500000Y-111725119D02*
X155404762Y-111867976D01*
X155404762Y-111867976D02*
X155309524Y-111963214D01*
X155309524Y-111963214D02*
X155214286Y-112010833D01*
%TO.C,R3*%
X164833333Y-74962619D02*
X164500000Y-74486428D01*
X164261905Y-74962619D02*
X164261905Y-73962619D01*
X164261905Y-73962619D02*
X164642857Y-73962619D01*
X164642857Y-73962619D02*
X164738095Y-74010238D01*
X164738095Y-74010238D02*
X164785714Y-74057857D01*
X164785714Y-74057857D02*
X164833333Y-74153095D01*
X164833333Y-74153095D02*
X164833333Y-74295952D01*
X164833333Y-74295952D02*
X164785714Y-74391190D01*
X164785714Y-74391190D02*
X164738095Y-74438809D01*
X164738095Y-74438809D02*
X164642857Y-74486428D01*
X164642857Y-74486428D02*
X164261905Y-74486428D01*
X165166667Y-73962619D02*
X165785714Y-73962619D01*
X165785714Y-73962619D02*
X165452381Y-74343571D01*
X165452381Y-74343571D02*
X165595238Y-74343571D01*
X165595238Y-74343571D02*
X165690476Y-74391190D01*
X165690476Y-74391190D02*
X165738095Y-74438809D01*
X165738095Y-74438809D02*
X165785714Y-74534047D01*
X165785714Y-74534047D02*
X165785714Y-74772142D01*
X165785714Y-74772142D02*
X165738095Y-74867380D01*
X165738095Y-74867380D02*
X165690476Y-74915000D01*
X165690476Y-74915000D02*
X165595238Y-74962619D01*
X165595238Y-74962619D02*
X165309524Y-74962619D01*
X165309524Y-74962619D02*
X165214286Y-74915000D01*
X165214286Y-74915000D02*
X165166667Y-74867380D01*
%TO.C,J5*%
X154666666Y-109962619D02*
X154666666Y-110676904D01*
X154666666Y-110676904D02*
X154619047Y-110819761D01*
X154619047Y-110819761D02*
X154523809Y-110915000D01*
X154523809Y-110915000D02*
X154380952Y-110962619D01*
X154380952Y-110962619D02*
X154285714Y-110962619D01*
X155619047Y-109962619D02*
X155142857Y-109962619D01*
X155142857Y-109962619D02*
X155095238Y-110438809D01*
X155095238Y-110438809D02*
X155142857Y-110391190D01*
X155142857Y-110391190D02*
X155238095Y-110343571D01*
X155238095Y-110343571D02*
X155476190Y-110343571D01*
X155476190Y-110343571D02*
X155571428Y-110391190D01*
X155571428Y-110391190D02*
X155619047Y-110438809D01*
X155619047Y-110438809D02*
X155666666Y-110534047D01*
X155666666Y-110534047D02*
X155666666Y-110772142D01*
X155666666Y-110772142D02*
X155619047Y-110867380D01*
X155619047Y-110867380D02*
X155571428Y-110915000D01*
X155571428Y-110915000D02*
X155476190Y-110962619D01*
X155476190Y-110962619D02*
X155238095Y-110962619D01*
X155238095Y-110962619D02*
X155142857Y-110915000D01*
X155142857Y-110915000D02*
X155095238Y-110867380D01*
%TO.C,R2*%
X189745833Y-72032619D02*
X189412500Y-71556428D01*
X189174405Y-72032619D02*
X189174405Y-71032619D01*
X189174405Y-71032619D02*
X189555357Y-71032619D01*
X189555357Y-71032619D02*
X189650595Y-71080238D01*
X189650595Y-71080238D02*
X189698214Y-71127857D01*
X189698214Y-71127857D02*
X189745833Y-71223095D01*
X189745833Y-71223095D02*
X189745833Y-71365952D01*
X189745833Y-71365952D02*
X189698214Y-71461190D01*
X189698214Y-71461190D02*
X189650595Y-71508809D01*
X189650595Y-71508809D02*
X189555357Y-71556428D01*
X189555357Y-71556428D02*
X189174405Y-71556428D01*
X190126786Y-71127857D02*
X190174405Y-71080238D01*
X190174405Y-71080238D02*
X190269643Y-71032619D01*
X190269643Y-71032619D02*
X190507738Y-71032619D01*
X190507738Y-71032619D02*
X190602976Y-71080238D01*
X190602976Y-71080238D02*
X190650595Y-71127857D01*
X190650595Y-71127857D02*
X190698214Y-71223095D01*
X190698214Y-71223095D02*
X190698214Y-71318333D01*
X190698214Y-71318333D02*
X190650595Y-71461190D01*
X190650595Y-71461190D02*
X190079167Y-72032619D01*
X190079167Y-72032619D02*
X190698214Y-72032619D01*
%TO.C,H3*%
X195478095Y-66592619D02*
X195478095Y-65592619D01*
X195478095Y-66068809D02*
X196049523Y-66068809D01*
X196049523Y-66592619D02*
X196049523Y-65592619D01*
X196430476Y-65592619D02*
X197049523Y-65592619D01*
X197049523Y-65592619D02*
X196716190Y-65973571D01*
X196716190Y-65973571D02*
X196859047Y-65973571D01*
X196859047Y-65973571D02*
X196954285Y-66021190D01*
X196954285Y-66021190D02*
X197001904Y-66068809D01*
X197001904Y-66068809D02*
X197049523Y-66164047D01*
X197049523Y-66164047D02*
X197049523Y-66402142D01*
X197049523Y-66402142D02*
X197001904Y-66497380D01*
X197001904Y-66497380D02*
X196954285Y-66545000D01*
X196954285Y-66545000D02*
X196859047Y-66592619D01*
X196859047Y-66592619D02*
X196573333Y-66592619D01*
X196573333Y-66592619D02*
X196478095Y-66545000D01*
X196478095Y-66545000D02*
X196430476Y-66497380D01*
%TO.C,H1*%
X195438095Y-118662619D02*
X195438095Y-117662619D01*
X195438095Y-118138809D02*
X196009523Y-118138809D01*
X196009523Y-118662619D02*
X196009523Y-117662619D01*
X197009523Y-118662619D02*
X196438095Y-118662619D01*
X196723809Y-118662619D02*
X196723809Y-117662619D01*
X196723809Y-117662619D02*
X196628571Y-117805476D01*
X196628571Y-117805476D02*
X196533333Y-117900714D01*
X196533333Y-117900714D02*
X196438095Y-117948333D01*
%TO.C,R15*%
X155857142Y-60462619D02*
X155523809Y-59986428D01*
X155285714Y-60462619D02*
X155285714Y-59462619D01*
X155285714Y-59462619D02*
X155666666Y-59462619D01*
X155666666Y-59462619D02*
X155761904Y-59510238D01*
X155761904Y-59510238D02*
X155809523Y-59557857D01*
X155809523Y-59557857D02*
X155857142Y-59653095D01*
X155857142Y-59653095D02*
X155857142Y-59795952D01*
X155857142Y-59795952D02*
X155809523Y-59891190D01*
X155809523Y-59891190D02*
X155761904Y-59938809D01*
X155761904Y-59938809D02*
X155666666Y-59986428D01*
X155666666Y-59986428D02*
X155285714Y-59986428D01*
X156809523Y-60462619D02*
X156238095Y-60462619D01*
X156523809Y-60462619D02*
X156523809Y-59462619D01*
X156523809Y-59462619D02*
X156428571Y-59605476D01*
X156428571Y-59605476D02*
X156333333Y-59700714D01*
X156333333Y-59700714D02*
X156238095Y-59748333D01*
X157714285Y-59462619D02*
X157238095Y-59462619D01*
X157238095Y-59462619D02*
X157190476Y-59938809D01*
X157190476Y-59938809D02*
X157238095Y-59891190D01*
X157238095Y-59891190D02*
X157333333Y-59843571D01*
X157333333Y-59843571D02*
X157571428Y-59843571D01*
X157571428Y-59843571D02*
X157666666Y-59891190D01*
X157666666Y-59891190D02*
X157714285Y-59938809D01*
X157714285Y-59938809D02*
X157761904Y-60034047D01*
X157761904Y-60034047D02*
X157761904Y-60272142D01*
X157761904Y-60272142D02*
X157714285Y-60367380D01*
X157714285Y-60367380D02*
X157666666Y-60415000D01*
X157666666Y-60415000D02*
X157571428Y-60462619D01*
X157571428Y-60462619D02*
X157333333Y-60462619D01*
X157333333Y-60462619D02*
X157238095Y-60415000D01*
X157238095Y-60415000D02*
X157190476Y-60367380D01*
%TO.C,J1*%
X157166666Y-123262619D02*
X157166666Y-123976904D01*
X157166666Y-123976904D02*
X157119047Y-124119761D01*
X157119047Y-124119761D02*
X157023809Y-124215000D01*
X157023809Y-124215000D02*
X156880952Y-124262619D01*
X156880952Y-124262619D02*
X156785714Y-124262619D01*
X158166666Y-124262619D02*
X157595238Y-124262619D01*
X157880952Y-124262619D02*
X157880952Y-123262619D01*
X157880952Y-123262619D02*
X157785714Y-123405476D01*
X157785714Y-123405476D02*
X157690476Y-123500714D01*
X157690476Y-123500714D02*
X157595238Y-123548333D01*
%TO.C,R14*%
X190357142Y-124462619D02*
X190023809Y-123986428D01*
X189785714Y-124462619D02*
X189785714Y-123462619D01*
X189785714Y-123462619D02*
X190166666Y-123462619D01*
X190166666Y-123462619D02*
X190261904Y-123510238D01*
X190261904Y-123510238D02*
X190309523Y-123557857D01*
X190309523Y-123557857D02*
X190357142Y-123653095D01*
X190357142Y-123653095D02*
X190357142Y-123795952D01*
X190357142Y-123795952D02*
X190309523Y-123891190D01*
X190309523Y-123891190D02*
X190261904Y-123938809D01*
X190261904Y-123938809D02*
X190166666Y-123986428D01*
X190166666Y-123986428D02*
X189785714Y-123986428D01*
X191309523Y-124462619D02*
X190738095Y-124462619D01*
X191023809Y-124462619D02*
X191023809Y-123462619D01*
X191023809Y-123462619D02*
X190928571Y-123605476D01*
X190928571Y-123605476D02*
X190833333Y-123700714D01*
X190833333Y-123700714D02*
X190738095Y-123748333D01*
X192166666Y-123795952D02*
X192166666Y-124462619D01*
X191928571Y-123415000D02*
X191690476Y-124129285D01*
X191690476Y-124129285D02*
X192309523Y-124129285D01*
%TO.C,TP1*%
X187238095Y-114462619D02*
X187809523Y-114462619D01*
X187523809Y-115462619D02*
X187523809Y-114462619D01*
X188142857Y-115462619D02*
X188142857Y-114462619D01*
X188142857Y-114462619D02*
X188523809Y-114462619D01*
X188523809Y-114462619D02*
X188619047Y-114510238D01*
X188619047Y-114510238D02*
X188666666Y-114557857D01*
X188666666Y-114557857D02*
X188714285Y-114653095D01*
X188714285Y-114653095D02*
X188714285Y-114795952D01*
X188714285Y-114795952D02*
X188666666Y-114891190D01*
X188666666Y-114891190D02*
X188619047Y-114938809D01*
X188619047Y-114938809D02*
X188523809Y-114986428D01*
X188523809Y-114986428D02*
X188142857Y-114986428D01*
X189666666Y-115462619D02*
X189095238Y-115462619D01*
X189380952Y-115462619D02*
X189380952Y-114462619D01*
X189380952Y-114462619D02*
X189285714Y-114605476D01*
X189285714Y-114605476D02*
X189190476Y-114700714D01*
X189190476Y-114700714D02*
X189095238Y-114748333D01*
%TO.C,R8*%
X190833333Y-96962619D02*
X190500000Y-96486428D01*
X190261905Y-96962619D02*
X190261905Y-95962619D01*
X190261905Y-95962619D02*
X190642857Y-95962619D01*
X190642857Y-95962619D02*
X190738095Y-96010238D01*
X190738095Y-96010238D02*
X190785714Y-96057857D01*
X190785714Y-96057857D02*
X190833333Y-96153095D01*
X190833333Y-96153095D02*
X190833333Y-96295952D01*
X190833333Y-96295952D02*
X190785714Y-96391190D01*
X190785714Y-96391190D02*
X190738095Y-96438809D01*
X190738095Y-96438809D02*
X190642857Y-96486428D01*
X190642857Y-96486428D02*
X190261905Y-96486428D01*
X191404762Y-96391190D02*
X191309524Y-96343571D01*
X191309524Y-96343571D02*
X191261905Y-96295952D01*
X191261905Y-96295952D02*
X191214286Y-96200714D01*
X191214286Y-96200714D02*
X191214286Y-96153095D01*
X191214286Y-96153095D02*
X191261905Y-96057857D01*
X191261905Y-96057857D02*
X191309524Y-96010238D01*
X191309524Y-96010238D02*
X191404762Y-95962619D01*
X191404762Y-95962619D02*
X191595238Y-95962619D01*
X191595238Y-95962619D02*
X191690476Y-96010238D01*
X191690476Y-96010238D02*
X191738095Y-96057857D01*
X191738095Y-96057857D02*
X191785714Y-96153095D01*
X191785714Y-96153095D02*
X191785714Y-96200714D01*
X191785714Y-96200714D02*
X191738095Y-96295952D01*
X191738095Y-96295952D02*
X191690476Y-96343571D01*
X191690476Y-96343571D02*
X191595238Y-96391190D01*
X191595238Y-96391190D02*
X191404762Y-96391190D01*
X191404762Y-96391190D02*
X191309524Y-96438809D01*
X191309524Y-96438809D02*
X191261905Y-96486428D01*
X191261905Y-96486428D02*
X191214286Y-96581666D01*
X191214286Y-96581666D02*
X191214286Y-96772142D01*
X191214286Y-96772142D02*
X191261905Y-96867380D01*
X191261905Y-96867380D02*
X191309524Y-96915000D01*
X191309524Y-96915000D02*
X191404762Y-96962619D01*
X191404762Y-96962619D02*
X191595238Y-96962619D01*
X191595238Y-96962619D02*
X191690476Y-96915000D01*
X191690476Y-96915000D02*
X191738095Y-96867380D01*
X191738095Y-96867380D02*
X191785714Y-96772142D01*
X191785714Y-96772142D02*
X191785714Y-96581666D01*
X191785714Y-96581666D02*
X191738095Y-96486428D01*
X191738095Y-96486428D02*
X191690476Y-96438809D01*
X191690476Y-96438809D02*
X191595238Y-96391190D01*
%TO.C,H2*%
X150438095Y-66662619D02*
X150438095Y-65662619D01*
X150438095Y-66138809D02*
X151009523Y-66138809D01*
X151009523Y-66662619D02*
X151009523Y-65662619D01*
X151438095Y-65757857D02*
X151485714Y-65710238D01*
X151485714Y-65710238D02*
X151580952Y-65662619D01*
X151580952Y-65662619D02*
X151819047Y-65662619D01*
X151819047Y-65662619D02*
X151914285Y-65710238D01*
X151914285Y-65710238D02*
X151961904Y-65757857D01*
X151961904Y-65757857D02*
X152009523Y-65853095D01*
X152009523Y-65853095D02*
X152009523Y-65948333D01*
X152009523Y-65948333D02*
X151961904Y-66091190D01*
X151961904Y-66091190D02*
X151390476Y-66662619D01*
X151390476Y-66662619D02*
X152009523Y-66662619D01*
%TO.C,R12*%
X189248686Y-86227631D02*
X188915353Y-85751440D01*
X188677258Y-86227631D02*
X188677258Y-85227631D01*
X188677258Y-85227631D02*
X189058210Y-85227631D01*
X189058210Y-85227631D02*
X189153448Y-85275250D01*
X189153448Y-85275250D02*
X189201067Y-85322869D01*
X189201067Y-85322869D02*
X189248686Y-85418107D01*
X189248686Y-85418107D02*
X189248686Y-85560964D01*
X189248686Y-85560964D02*
X189201067Y-85656202D01*
X189201067Y-85656202D02*
X189153448Y-85703821D01*
X189153448Y-85703821D02*
X189058210Y-85751440D01*
X189058210Y-85751440D02*
X188677258Y-85751440D01*
X190201067Y-86227631D02*
X189629639Y-86227631D01*
X189915353Y-86227631D02*
X189915353Y-85227631D01*
X189915353Y-85227631D02*
X189820115Y-85370488D01*
X189820115Y-85370488D02*
X189724877Y-85465726D01*
X189724877Y-85465726D02*
X189629639Y-85513345D01*
X190582020Y-85322869D02*
X190629639Y-85275250D01*
X190629639Y-85275250D02*
X190724877Y-85227631D01*
X190724877Y-85227631D02*
X190962972Y-85227631D01*
X190962972Y-85227631D02*
X191058210Y-85275250D01*
X191058210Y-85275250D02*
X191105829Y-85322869D01*
X191105829Y-85322869D02*
X191153448Y-85418107D01*
X191153448Y-85418107D02*
X191153448Y-85513345D01*
X191153448Y-85513345D02*
X191105829Y-85656202D01*
X191105829Y-85656202D02*
X190534401Y-86227631D01*
X190534401Y-86227631D02*
X191153448Y-86227631D01*
%TO.C,R10*%
X193056318Y-73295222D02*
X192722985Y-72819031D01*
X192484890Y-73295222D02*
X192484890Y-72295222D01*
X192484890Y-72295222D02*
X192865842Y-72295222D01*
X192865842Y-72295222D02*
X192961080Y-72342841D01*
X192961080Y-72342841D02*
X193008699Y-72390460D01*
X193008699Y-72390460D02*
X193056318Y-72485698D01*
X193056318Y-72485698D02*
X193056318Y-72628555D01*
X193056318Y-72628555D02*
X193008699Y-72723793D01*
X193008699Y-72723793D02*
X192961080Y-72771412D01*
X192961080Y-72771412D02*
X192865842Y-72819031D01*
X192865842Y-72819031D02*
X192484890Y-72819031D01*
X194008699Y-73295222D02*
X193437271Y-73295222D01*
X193722985Y-73295222D02*
X193722985Y-72295222D01*
X193722985Y-72295222D02*
X193627747Y-72438079D01*
X193627747Y-72438079D02*
X193532509Y-72533317D01*
X193532509Y-72533317D02*
X193437271Y-72580936D01*
X194627747Y-72295222D02*
X194722985Y-72295222D01*
X194722985Y-72295222D02*
X194818223Y-72342841D01*
X194818223Y-72342841D02*
X194865842Y-72390460D01*
X194865842Y-72390460D02*
X194913461Y-72485698D01*
X194913461Y-72485698D02*
X194961080Y-72676174D01*
X194961080Y-72676174D02*
X194961080Y-72914269D01*
X194961080Y-72914269D02*
X194913461Y-73104745D01*
X194913461Y-73104745D02*
X194865842Y-73199983D01*
X194865842Y-73199983D02*
X194818223Y-73247603D01*
X194818223Y-73247603D02*
X194722985Y-73295222D01*
X194722985Y-73295222D02*
X194627747Y-73295222D01*
X194627747Y-73295222D02*
X194532509Y-73247603D01*
X194532509Y-73247603D02*
X194484890Y-73199983D01*
X194484890Y-73199983D02*
X194437271Y-73104745D01*
X194437271Y-73104745D02*
X194389652Y-72914269D01*
X194389652Y-72914269D02*
X194389652Y-72676174D01*
X194389652Y-72676174D02*
X194437271Y-72485698D01*
X194437271Y-72485698D02*
X194484890Y-72390460D01*
X194484890Y-72390460D02*
X194532509Y-72342841D01*
X194532509Y-72342841D02*
X194627747Y-72295222D01*
%TO.C,TP2*%
X191538095Y-67814619D02*
X192109523Y-67814619D01*
X191823809Y-68814619D02*
X191823809Y-67814619D01*
X192442857Y-68814619D02*
X192442857Y-67814619D01*
X192442857Y-67814619D02*
X192823809Y-67814619D01*
X192823809Y-67814619D02*
X192919047Y-67862238D01*
X192919047Y-67862238D02*
X192966666Y-67909857D01*
X192966666Y-67909857D02*
X193014285Y-68005095D01*
X193014285Y-68005095D02*
X193014285Y-68147952D01*
X193014285Y-68147952D02*
X192966666Y-68243190D01*
X192966666Y-68243190D02*
X192919047Y-68290809D01*
X192919047Y-68290809D02*
X192823809Y-68338428D01*
X192823809Y-68338428D02*
X192442857Y-68338428D01*
X193395238Y-67909857D02*
X193442857Y-67862238D01*
X193442857Y-67862238D02*
X193538095Y-67814619D01*
X193538095Y-67814619D02*
X193776190Y-67814619D01*
X193776190Y-67814619D02*
X193871428Y-67862238D01*
X193871428Y-67862238D02*
X193919047Y-67909857D01*
X193919047Y-67909857D02*
X193966666Y-68005095D01*
X193966666Y-68005095D02*
X193966666Y-68100333D01*
X193966666Y-68100333D02*
X193919047Y-68243190D01*
X193919047Y-68243190D02*
X193347619Y-68814619D01*
X193347619Y-68814619D02*
X193966666Y-68814619D01*
%TO.C,R31*%
X161195522Y-94463012D02*
X160862189Y-93986821D01*
X160624094Y-94463012D02*
X160624094Y-93463012D01*
X160624094Y-93463012D02*
X161005046Y-93463012D01*
X161005046Y-93463012D02*
X161100284Y-93510631D01*
X161100284Y-93510631D02*
X161147903Y-93558250D01*
X161147903Y-93558250D02*
X161195522Y-93653488D01*
X161195522Y-93653488D02*
X161195522Y-93796345D01*
X161195522Y-93796345D02*
X161147903Y-93891583D01*
X161147903Y-93891583D02*
X161100284Y-93939202D01*
X161100284Y-93939202D02*
X161005046Y-93986821D01*
X161005046Y-93986821D02*
X160624094Y-93986821D01*
X161528856Y-93463012D02*
X162147903Y-93463012D01*
X162147903Y-93463012D02*
X161814570Y-93843964D01*
X161814570Y-93843964D02*
X161957427Y-93843964D01*
X161957427Y-93843964D02*
X162052665Y-93891583D01*
X162052665Y-93891583D02*
X162100284Y-93939202D01*
X162100284Y-93939202D02*
X162147903Y-94034440D01*
X162147903Y-94034440D02*
X162147903Y-94272535D01*
X162147903Y-94272535D02*
X162100284Y-94367773D01*
X162100284Y-94367773D02*
X162052665Y-94415393D01*
X162052665Y-94415393D02*
X161957427Y-94463012D01*
X161957427Y-94463012D02*
X161671713Y-94463012D01*
X161671713Y-94463012D02*
X161576475Y-94415393D01*
X161576475Y-94415393D02*
X161528856Y-94367773D01*
X163100284Y-94463012D02*
X162528856Y-94463012D01*
X162814570Y-94463012D02*
X162814570Y-93463012D01*
X162814570Y-93463012D02*
X162719332Y-93605869D01*
X162719332Y-93605869D02*
X162624094Y-93701107D01*
X162624094Y-93701107D02*
X162528856Y-93748726D01*
%TO.C,TP3*%
X162738095Y-64014619D02*
X163309523Y-64014619D01*
X163023809Y-65014619D02*
X163023809Y-64014619D01*
X163642857Y-65014619D02*
X163642857Y-64014619D01*
X163642857Y-64014619D02*
X164023809Y-64014619D01*
X164023809Y-64014619D02*
X164119047Y-64062238D01*
X164119047Y-64062238D02*
X164166666Y-64109857D01*
X164166666Y-64109857D02*
X164214285Y-64205095D01*
X164214285Y-64205095D02*
X164214285Y-64347952D01*
X164214285Y-64347952D02*
X164166666Y-64443190D01*
X164166666Y-64443190D02*
X164119047Y-64490809D01*
X164119047Y-64490809D02*
X164023809Y-64538428D01*
X164023809Y-64538428D02*
X163642857Y-64538428D01*
X164547619Y-64014619D02*
X165166666Y-64014619D01*
X165166666Y-64014619D02*
X164833333Y-64395571D01*
X164833333Y-64395571D02*
X164976190Y-64395571D01*
X164976190Y-64395571D02*
X165071428Y-64443190D01*
X165071428Y-64443190D02*
X165119047Y-64490809D01*
X165119047Y-64490809D02*
X165166666Y-64586047D01*
X165166666Y-64586047D02*
X165166666Y-64824142D01*
X165166666Y-64824142D02*
X165119047Y-64919380D01*
X165119047Y-64919380D02*
X165071428Y-64967000D01*
X165071428Y-64967000D02*
X164976190Y-65014619D01*
X164976190Y-65014619D02*
X164690476Y-65014619D01*
X164690476Y-65014619D02*
X164595238Y-64967000D01*
X164595238Y-64967000D02*
X164547619Y-64919380D01*
%TO.C,R7*%
X162008333Y-91262619D02*
X161675000Y-90786428D01*
X161436905Y-91262619D02*
X161436905Y-90262619D01*
X161436905Y-90262619D02*
X161817857Y-90262619D01*
X161817857Y-90262619D02*
X161913095Y-90310238D01*
X161913095Y-90310238D02*
X161960714Y-90357857D01*
X161960714Y-90357857D02*
X162008333Y-90453095D01*
X162008333Y-90453095D02*
X162008333Y-90595952D01*
X162008333Y-90595952D02*
X161960714Y-90691190D01*
X161960714Y-90691190D02*
X161913095Y-90738809D01*
X161913095Y-90738809D02*
X161817857Y-90786428D01*
X161817857Y-90786428D02*
X161436905Y-90786428D01*
X162341667Y-90262619D02*
X163008333Y-90262619D01*
X163008333Y-90262619D02*
X162579762Y-91262619D01*
%TO.C,A1*%
X186785714Y-111676904D02*
X187261904Y-111676904D01*
X186690476Y-111962619D02*
X187023809Y-110962619D01*
X187023809Y-110962619D02*
X187357142Y-111962619D01*
X188214285Y-111962619D02*
X187642857Y-111962619D01*
X187928571Y-111962619D02*
X187928571Y-110962619D01*
X187928571Y-110962619D02*
X187833333Y-111105476D01*
X187833333Y-111105476D02*
X187738095Y-111200714D01*
X187738095Y-111200714D02*
X187642857Y-111248333D01*
X178381904Y-73537380D02*
X178381904Y-72727857D01*
X178381904Y-72727857D02*
X178334285Y-72632619D01*
X178334285Y-72632619D02*
X178286666Y-72585000D01*
X178286666Y-72585000D02*
X178191428Y-72537380D01*
X178191428Y-72537380D02*
X178000952Y-72537380D01*
X178000952Y-72537380D02*
X177905714Y-72585000D01*
X177905714Y-72585000D02*
X177858095Y-72632619D01*
X177858095Y-72632619D02*
X177810476Y-72727857D01*
X177810476Y-72727857D02*
X177810476Y-73537380D01*
X177381904Y-72585000D02*
X177239047Y-72537380D01*
X177239047Y-72537380D02*
X177000952Y-72537380D01*
X177000952Y-72537380D02*
X176905714Y-72585000D01*
X176905714Y-72585000D02*
X176858095Y-72632619D01*
X176858095Y-72632619D02*
X176810476Y-72727857D01*
X176810476Y-72727857D02*
X176810476Y-72823095D01*
X176810476Y-72823095D02*
X176858095Y-72918333D01*
X176858095Y-72918333D02*
X176905714Y-72965952D01*
X176905714Y-72965952D02*
X177000952Y-73013571D01*
X177000952Y-73013571D02*
X177191428Y-73061190D01*
X177191428Y-73061190D02*
X177286666Y-73108809D01*
X177286666Y-73108809D02*
X177334285Y-73156428D01*
X177334285Y-73156428D02*
X177381904Y-73251666D01*
X177381904Y-73251666D02*
X177381904Y-73346904D01*
X177381904Y-73346904D02*
X177334285Y-73442142D01*
X177334285Y-73442142D02*
X177286666Y-73489761D01*
X177286666Y-73489761D02*
X177191428Y-73537380D01*
X177191428Y-73537380D02*
X176953333Y-73537380D01*
X176953333Y-73537380D02*
X176810476Y-73489761D01*
X176048571Y-73061190D02*
X175905714Y-73013571D01*
X175905714Y-73013571D02*
X175858095Y-72965952D01*
X175858095Y-72965952D02*
X175810476Y-72870714D01*
X175810476Y-72870714D02*
X175810476Y-72727857D01*
X175810476Y-72727857D02*
X175858095Y-72632619D01*
X175858095Y-72632619D02*
X175905714Y-72585000D01*
X175905714Y-72585000D02*
X176000952Y-72537380D01*
X176000952Y-72537380D02*
X176381904Y-72537380D01*
X176381904Y-72537380D02*
X176381904Y-73537380D01*
X176381904Y-73537380D02*
X176048571Y-73537380D01*
X176048571Y-73537380D02*
X175953333Y-73489761D01*
X175953333Y-73489761D02*
X175905714Y-73442142D01*
X175905714Y-73442142D02*
X175858095Y-73346904D01*
X175858095Y-73346904D02*
X175858095Y-73251666D01*
X175858095Y-73251666D02*
X175905714Y-73156428D01*
X175905714Y-73156428D02*
X175953333Y-73108809D01*
X175953333Y-73108809D02*
X176048571Y-73061190D01*
X176048571Y-73061190D02*
X176381904Y-73061190D01*
%TO.C,U1*%
X192738095Y-100582619D02*
X192738095Y-101392142D01*
X192738095Y-101392142D02*
X192785714Y-101487380D01*
X192785714Y-101487380D02*
X192833333Y-101535000D01*
X192833333Y-101535000D02*
X192928571Y-101582619D01*
X192928571Y-101582619D02*
X193119047Y-101582619D01*
X193119047Y-101582619D02*
X193214285Y-101535000D01*
X193214285Y-101535000D02*
X193261904Y-101487380D01*
X193261904Y-101487380D02*
X193309523Y-101392142D01*
X193309523Y-101392142D02*
X193309523Y-100582619D01*
X194309523Y-101582619D02*
X193738095Y-101582619D01*
X194023809Y-101582619D02*
X194023809Y-100582619D01*
X194023809Y-100582619D02*
X193928571Y-100725476D01*
X193928571Y-100725476D02*
X193833333Y-100820714D01*
X193833333Y-100820714D02*
X193738095Y-100868333D01*
%TO.C,R4*%
X162056668Y-81443904D02*
X161723335Y-80967713D01*
X161485240Y-81443904D02*
X161485240Y-80443904D01*
X161485240Y-80443904D02*
X161866192Y-80443904D01*
X161866192Y-80443904D02*
X161961430Y-80491523D01*
X161961430Y-80491523D02*
X162009049Y-80539142D01*
X162009049Y-80539142D02*
X162056668Y-80634380D01*
X162056668Y-80634380D02*
X162056668Y-80777237D01*
X162056668Y-80777237D02*
X162009049Y-80872475D01*
X162009049Y-80872475D02*
X161961430Y-80920094D01*
X161961430Y-80920094D02*
X161866192Y-80967713D01*
X161866192Y-80967713D02*
X161485240Y-80967713D01*
X162913811Y-80777237D02*
X162913811Y-81443904D01*
X162675716Y-80396285D02*
X162437621Y-81110570D01*
X162437621Y-81110570D02*
X163056668Y-81110570D01*
%TO.C,C2*%
X196695833Y-100217380D02*
X196648214Y-100265000D01*
X196648214Y-100265000D02*
X196505357Y-100312619D01*
X196505357Y-100312619D02*
X196410119Y-100312619D01*
X196410119Y-100312619D02*
X196267262Y-100265000D01*
X196267262Y-100265000D02*
X196172024Y-100169761D01*
X196172024Y-100169761D02*
X196124405Y-100074523D01*
X196124405Y-100074523D02*
X196076786Y-99884047D01*
X196076786Y-99884047D02*
X196076786Y-99741190D01*
X196076786Y-99741190D02*
X196124405Y-99550714D01*
X196124405Y-99550714D02*
X196172024Y-99455476D01*
X196172024Y-99455476D02*
X196267262Y-99360238D01*
X196267262Y-99360238D02*
X196410119Y-99312619D01*
X196410119Y-99312619D02*
X196505357Y-99312619D01*
X196505357Y-99312619D02*
X196648214Y-99360238D01*
X196648214Y-99360238D02*
X196695833Y-99407857D01*
X197076786Y-99407857D02*
X197124405Y-99360238D01*
X197124405Y-99360238D02*
X197219643Y-99312619D01*
X197219643Y-99312619D02*
X197457738Y-99312619D01*
X197457738Y-99312619D02*
X197552976Y-99360238D01*
X197552976Y-99360238D02*
X197600595Y-99407857D01*
X197600595Y-99407857D02*
X197648214Y-99503095D01*
X197648214Y-99503095D02*
X197648214Y-99598333D01*
X197648214Y-99598333D02*
X197600595Y-99741190D01*
X197600595Y-99741190D02*
X197029167Y-100312619D01*
X197029167Y-100312619D02*
X197648214Y-100312619D01*
%TO.C,D1*%
X197261905Y-81712619D02*
X197261905Y-80712619D01*
X197261905Y-80712619D02*
X197500000Y-80712619D01*
X197500000Y-80712619D02*
X197642857Y-80760238D01*
X197642857Y-80760238D02*
X197738095Y-80855476D01*
X197738095Y-80855476D02*
X197785714Y-80950714D01*
X197785714Y-80950714D02*
X197833333Y-81141190D01*
X197833333Y-81141190D02*
X197833333Y-81284047D01*
X197833333Y-81284047D02*
X197785714Y-81474523D01*
X197785714Y-81474523D02*
X197738095Y-81569761D01*
X197738095Y-81569761D02*
X197642857Y-81665000D01*
X197642857Y-81665000D02*
X197500000Y-81712619D01*
X197500000Y-81712619D02*
X197261905Y-81712619D01*
X198785714Y-81712619D02*
X198214286Y-81712619D01*
X198500000Y-81712619D02*
X198500000Y-80712619D01*
X198500000Y-80712619D02*
X198404762Y-80855476D01*
X198404762Y-80855476D02*
X198309524Y-80950714D01*
X198309524Y-80950714D02*
X198214286Y-80998333D01*
%TO.C,R34*%
X147578752Y-80542907D02*
X147245419Y-80066716D01*
X147007324Y-80542907D02*
X147007324Y-79542907D01*
X147007324Y-79542907D02*
X147388276Y-79542907D01*
X147388276Y-79542907D02*
X147483514Y-79590526D01*
X147483514Y-79590526D02*
X147531133Y-79638145D01*
X147531133Y-79638145D02*
X147578752Y-79733383D01*
X147578752Y-79733383D02*
X147578752Y-79876240D01*
X147578752Y-79876240D02*
X147531133Y-79971478D01*
X147531133Y-79971478D02*
X147483514Y-80019097D01*
X147483514Y-80019097D02*
X147388276Y-80066716D01*
X147388276Y-80066716D02*
X147007324Y-80066716D01*
X147912086Y-79542907D02*
X148531133Y-79542907D01*
X148531133Y-79542907D02*
X148197800Y-79923859D01*
X148197800Y-79923859D02*
X148340657Y-79923859D01*
X148340657Y-79923859D02*
X148435895Y-79971478D01*
X148435895Y-79971478D02*
X148483514Y-80019097D01*
X148483514Y-80019097D02*
X148531133Y-80114335D01*
X148531133Y-80114335D02*
X148531133Y-80352430D01*
X148531133Y-80352430D02*
X148483514Y-80447668D01*
X148483514Y-80447668D02*
X148435895Y-80495288D01*
X148435895Y-80495288D02*
X148340657Y-80542907D01*
X148340657Y-80542907D02*
X148054943Y-80542907D01*
X148054943Y-80542907D02*
X147959705Y-80495288D01*
X147959705Y-80495288D02*
X147912086Y-80447668D01*
X149388276Y-79876240D02*
X149388276Y-80542907D01*
X149150181Y-79495288D02*
X148912086Y-80209573D01*
X148912086Y-80209573D02*
X149531133Y-80209573D01*
%TO.C,R13*%
X147357142Y-89962619D02*
X147023809Y-89486428D01*
X146785714Y-89962619D02*
X146785714Y-88962619D01*
X146785714Y-88962619D02*
X147166666Y-88962619D01*
X147166666Y-88962619D02*
X147261904Y-89010238D01*
X147261904Y-89010238D02*
X147309523Y-89057857D01*
X147309523Y-89057857D02*
X147357142Y-89153095D01*
X147357142Y-89153095D02*
X147357142Y-89295952D01*
X147357142Y-89295952D02*
X147309523Y-89391190D01*
X147309523Y-89391190D02*
X147261904Y-89438809D01*
X147261904Y-89438809D02*
X147166666Y-89486428D01*
X147166666Y-89486428D02*
X146785714Y-89486428D01*
X148309523Y-89962619D02*
X147738095Y-89962619D01*
X148023809Y-89962619D02*
X148023809Y-88962619D01*
X148023809Y-88962619D02*
X147928571Y-89105476D01*
X147928571Y-89105476D02*
X147833333Y-89200714D01*
X147833333Y-89200714D02*
X147738095Y-89248333D01*
X148642857Y-88962619D02*
X149261904Y-88962619D01*
X149261904Y-88962619D02*
X148928571Y-89343571D01*
X148928571Y-89343571D02*
X149071428Y-89343571D01*
X149071428Y-89343571D02*
X149166666Y-89391190D01*
X149166666Y-89391190D02*
X149214285Y-89438809D01*
X149214285Y-89438809D02*
X149261904Y-89534047D01*
X149261904Y-89534047D02*
X149261904Y-89772142D01*
X149261904Y-89772142D02*
X149214285Y-89867380D01*
X149214285Y-89867380D02*
X149166666Y-89915000D01*
X149166666Y-89915000D02*
X149071428Y-89962619D01*
X149071428Y-89962619D02*
X148785714Y-89962619D01*
X148785714Y-89962619D02*
X148690476Y-89915000D01*
X148690476Y-89915000D02*
X148642857Y-89867380D01*
%TO.C,R9*%
X189724877Y-80227631D02*
X189391544Y-79751440D01*
X189153449Y-80227631D02*
X189153449Y-79227631D01*
X189153449Y-79227631D02*
X189534401Y-79227631D01*
X189534401Y-79227631D02*
X189629639Y-79275250D01*
X189629639Y-79275250D02*
X189677258Y-79322869D01*
X189677258Y-79322869D02*
X189724877Y-79418107D01*
X189724877Y-79418107D02*
X189724877Y-79560964D01*
X189724877Y-79560964D02*
X189677258Y-79656202D01*
X189677258Y-79656202D02*
X189629639Y-79703821D01*
X189629639Y-79703821D02*
X189534401Y-79751440D01*
X189534401Y-79751440D02*
X189153449Y-79751440D01*
X190201068Y-80227631D02*
X190391544Y-80227631D01*
X190391544Y-80227631D02*
X190486782Y-80180012D01*
X190486782Y-80180012D02*
X190534401Y-80132392D01*
X190534401Y-80132392D02*
X190629639Y-79989535D01*
X190629639Y-79989535D02*
X190677258Y-79799059D01*
X190677258Y-79799059D02*
X190677258Y-79418107D01*
X190677258Y-79418107D02*
X190629639Y-79322869D01*
X190629639Y-79322869D02*
X190582020Y-79275250D01*
X190582020Y-79275250D02*
X190486782Y-79227631D01*
X190486782Y-79227631D02*
X190296306Y-79227631D01*
X190296306Y-79227631D02*
X190201068Y-79275250D01*
X190201068Y-79275250D02*
X190153449Y-79322869D01*
X190153449Y-79322869D02*
X190105830Y-79418107D01*
X190105830Y-79418107D02*
X190105830Y-79656202D01*
X190105830Y-79656202D02*
X190153449Y-79751440D01*
X190153449Y-79751440D02*
X190201068Y-79799059D01*
X190201068Y-79799059D02*
X190296306Y-79846678D01*
X190296306Y-79846678D02*
X190486782Y-79846678D01*
X190486782Y-79846678D02*
X190582020Y-79799059D01*
X190582020Y-79799059D02*
X190629639Y-79751440D01*
X190629639Y-79751440D02*
X190677258Y-79656202D01*
%TO.C,TP4*%
X159200000Y-116000000D02*
G75*
G03*
X159200000Y-116000000I-700000J0D01*
G01*
%TO.C,R17*%
X151832776Y-116477500D02*
X152342224Y-116477500D01*
X151832776Y-117522500D02*
X152342224Y-117522500D01*
%TO.C,R1*%
X189657776Y-76977500D02*
X190167224Y-76977500D01*
X189657776Y-78022500D02*
X190167224Y-78022500D01*
%TO.C,C5*%
X162740000Y-107883767D02*
X162740000Y-107591233D01*
X163760000Y-107883767D02*
X163760000Y-107591233D01*
%TO.C,D3*%
X196885000Y-88210000D02*
X196885000Y-86290000D01*
X196885000Y-86290000D02*
X194025000Y-86290000D01*
X194025000Y-88210000D02*
X196885000Y-88210000D01*
%TO.C,R5*%
X165342224Y-84522500D02*
X164832776Y-84522500D01*
X165342224Y-83477500D02*
X164832776Y-83477500D01*
%TO.C,C3*%
X148290000Y-112283767D02*
X148290000Y-111991233D01*
X149310000Y-112283767D02*
X149310000Y-111991233D01*
%TO.C,J3*%
X188130000Y-122470000D02*
X188130000Y-123800000D01*
X186800000Y-122470000D02*
X188130000Y-122470000D01*
X185530000Y-122470000D02*
X182930000Y-122470000D01*
X185530000Y-122470000D02*
X185530000Y-125130000D01*
X182930000Y-122470000D02*
X182930000Y-125130000D01*
X185530000Y-125130000D02*
X182930000Y-125130000D01*
%TO.C,C4*%
X165490000Y-107883767D02*
X165490000Y-107591233D01*
X166510000Y-107883767D02*
X166510000Y-107591233D01*
%TO.C,JP1*%
X157420000Y-104420000D02*
X158750000Y-104420000D01*
X157420000Y-105750000D02*
X157420000Y-104420000D01*
X157420000Y-107020000D02*
X157420000Y-109620000D01*
X157420000Y-107020000D02*
X160080000Y-107020000D01*
X157420000Y-109620000D02*
X160080000Y-109620000D01*
X160080000Y-107020000D02*
X160080000Y-109620000D01*
%TO.C,R6*%
X165342224Y-87522500D02*
X164832776Y-87522500D01*
X165342224Y-86477500D02*
X164832776Y-86477500D01*
%TO.C,R33*%
X149122500Y-71145276D02*
X149122500Y-71654724D01*
X148077500Y-71145276D02*
X148077500Y-71654724D01*
%TO.C,R16*%
X190477500Y-60754724D02*
X190477500Y-60245276D01*
X191522500Y-60754724D02*
X191522500Y-60245276D01*
%TO.C,R11*%
X190167224Y-84772500D02*
X189657776Y-84772500D01*
X190167224Y-83727500D02*
X189657776Y-83727500D01*
%TO.C,D2*%
X196885000Y-85210000D02*
X196885000Y-83290000D01*
X196885000Y-83290000D02*
X194025000Y-83290000D01*
X194025000Y-85210000D02*
X196885000Y-85210000D01*
%TO.C,C1*%
X153510000Y-112116233D02*
X153510000Y-112408767D01*
X152490000Y-112116233D02*
X152490000Y-112408767D01*
%TO.C,R3*%
X165342224Y-73522500D02*
X164832776Y-73522500D01*
X165342224Y-72477500D02*
X164832776Y-72477500D01*
%TO.C,J5*%
X154330000Y-109330000D02*
X153000000Y-109330000D01*
X154330000Y-108000000D02*
X154330000Y-109330000D01*
X154330000Y-106730000D02*
X154330000Y-99050000D01*
X154330000Y-106730000D02*
X151670000Y-106730000D01*
X154330000Y-99050000D02*
X151670000Y-99050000D01*
X151670000Y-106730000D02*
X151670000Y-99050000D01*
%TO.C,R2*%
X189657776Y-72477500D02*
X190167224Y-72477500D01*
X189657776Y-73522500D02*
X190167224Y-73522500D01*
%TO.C,R15*%
X157022500Y-62245276D02*
X157022500Y-62754724D01*
X155977500Y-62245276D02*
X155977500Y-62754724D01*
%TO.C,J1*%
X168930000Y-122470000D02*
X168930000Y-123800000D01*
X167600000Y-122470000D02*
X168930000Y-122470000D01*
X166330000Y-122470000D02*
X158650000Y-122470000D01*
X166330000Y-122470000D02*
X166330000Y-125130000D01*
X158650000Y-122470000D02*
X158650000Y-125130000D01*
X166330000Y-125130000D02*
X158650000Y-125130000D01*
%TO.C,R14*%
X190477500Y-121754724D02*
X190477500Y-121245276D01*
X191522500Y-121754724D02*
X191522500Y-121245276D01*
%TO.C,TP1*%
X191700000Y-115500000D02*
G75*
G03*
X191700000Y-115500000I-700000J0D01*
G01*
%TO.C,R8*%
X188477500Y-96742224D02*
X188477500Y-96232776D01*
X189522500Y-96742224D02*
X189522500Y-96232776D01*
%TO.C,R12*%
X190167224Y-87772500D02*
X189657776Y-87772500D01*
X190167224Y-86727500D02*
X189657776Y-86727500D01*
%TO.C,R10*%
X193065000Y-75504724D02*
X193065000Y-74995276D01*
X194110000Y-75504724D02*
X194110000Y-74995276D01*
%TO.C,TP2*%
X193500000Y-69800000D02*
G75*
G03*
X193500000Y-69800000I-700000J0D01*
G01*
%TO.C,R31*%
X165342224Y-94522500D02*
X164832776Y-94522500D01*
X165342224Y-93477500D02*
X164832776Y-93477500D01*
%TO.C,TP3*%
X164700000Y-66000000D02*
G75*
G03*
X164700000Y-66000000I-700000J0D01*
G01*
%TO.C,R7*%
X165342224Y-91322500D02*
X164832776Y-91322500D01*
X165342224Y-90277500D02*
X164832776Y-90277500D01*
%TO.C,A1*%
X186140000Y-112500000D02*
X186140000Y-109830000D01*
X186140000Y-107290000D02*
X186140000Y-69060000D01*
X186140000Y-69060000D02*
X181060000Y-69060000D01*
X183470000Y-109830000D02*
X186140000Y-109830000D01*
X183470000Y-107290000D02*
X186140000Y-107290000D01*
X183470000Y-107290000D02*
X183470000Y-109830000D01*
X183470000Y-107290000D02*
X183470000Y-71730000D01*
X183470000Y-71730000D02*
X186140000Y-71730000D01*
X181060000Y-76940000D02*
X173180000Y-76940000D01*
X181060000Y-66520000D02*
X181060000Y-76940000D01*
X173180000Y-76940000D02*
X173180000Y-66520000D01*
X173180000Y-66520000D02*
X181060000Y-66520000D01*
X170770000Y-109830000D02*
X170770000Y-71730000D01*
X170770000Y-109830000D02*
X168100000Y-109830000D01*
X170770000Y-71730000D02*
X168100000Y-71730000D01*
X168100000Y-112500000D02*
X186140000Y-112500000D01*
X168100000Y-69060000D02*
X173180000Y-69060000D01*
X168100000Y-69060000D02*
X168100000Y-112500000D01*
%TO.C,U1*%
X192840000Y-102280000D02*
X192840000Y-104280000D01*
X192840000Y-102280000D02*
X194450000Y-102280000D01*
X193120000Y-114820000D02*
X193120000Y-102570000D01*
X193130000Y-102560000D02*
X198870000Y-102560000D01*
X198880000Y-102560000D02*
X198880000Y-114820000D01*
X198880000Y-114820000D02*
X193120000Y-114820000D01*
%TO.C,R4*%
X165342224Y-81522500D02*
X164832776Y-81522500D01*
X165342224Y-80477500D02*
X164832776Y-80477500D01*
%TO.C,C2*%
X196716233Y-100770000D02*
X197008767Y-100770000D01*
X196716233Y-101790000D02*
X197008767Y-101790000D01*
%TO.C,D1*%
X196885000Y-82210000D02*
X196885000Y-80290000D01*
X196885000Y-80290000D02*
X194025000Y-80290000D01*
X194025000Y-82210000D02*
X196885000Y-82210000D01*
%TO.C,R34*%
X147677500Y-82767224D02*
X147677500Y-82257776D01*
X148722500Y-82767224D02*
X148722500Y-82257776D01*
%TO.C,R13*%
X147477500Y-92342224D02*
X147477500Y-91832776D01*
X148522500Y-92342224D02*
X148522500Y-91832776D01*
%TO.C,R9*%
X190167224Y-81772500D02*
X189657776Y-81772500D01*
X190167224Y-80727500D02*
X189657776Y-80727500D01*
%TD*%
M02*
