%TF.GenerationSoftware,KiCad,Pcbnew,7.0.2-0*%
%TF.CreationDate,2025-01-08T13:47:24-05:00*%
%TF.ProjectId,plaqchek_mlb,706c6171-6368-4656-9b5f-6d6c622e6b69,rev?*%
%TF.SameCoordinates,Original*%
%TF.FileFunction,Copper,L2,Bot*%
%TF.FilePolarity,Positive*%
%FSLAX46Y46*%
G04 Gerber Fmt 4.6, Leading zero omitted, Abs format (unit mm)*
G04 Created by KiCad (PCBNEW 7.0.2-0) date 2025-01-08 13:47:24*
%MOMM*%
%LPD*%
G01*
G04 APERTURE LIST*
%TA.AperFunction,ComponentPad*%
%ADD10R,1.700000X1.700000*%
%TD*%
%TA.AperFunction,ComponentPad*%
%ADD11O,1.700000X1.700000*%
%TD*%
%TA.AperFunction,ComponentPad*%
%ADD12C,6.400000*%
%TD*%
%TA.AperFunction,ComponentPad*%
%ADD13R,1.600000X1.600000*%
%TD*%
%TA.AperFunction,ComponentPad*%
%ADD14O,1.600000X1.600000*%
%TD*%
%TA.AperFunction,ComponentPad*%
%ADD15R,1.500000X1.500000*%
%TD*%
%TA.AperFunction,ComponentPad*%
%ADD16C,1.500000*%
%TD*%
%TA.AperFunction,ComponentPad*%
%ADD17C,2.000000*%
%TD*%
%TA.AperFunction,ViaPad*%
%ADD18C,0.800000*%
%TD*%
%TA.AperFunction,Conductor*%
%ADD19C,0.500000*%
%TD*%
%TA.AperFunction,Conductor*%
%ADD20C,0.250000*%
%TD*%
G04 APERTURE END LIST*
D10*
%TO.P,J3,1,Pin_1*%
%TO.N,VDAC_POT_PWM_3V3*%
X186800000Y-123800000D03*
D11*
%TO.P,J3,2,Pin_2*%
%TO.N,GND*%
X184260000Y-123800000D03*
%TD*%
D10*
%TO.P,JP1,1,A*%
%TO.N,+12V*%
X158750000Y-105750000D03*
D11*
%TO.P,JP1,2,B*%
%TO.N,Net-(A1-VIN)*%
X158750000Y-108290000D03*
%TD*%
D12*
%TO.P,H4,1,1*%
%TO.N,Net-(H4-Pad1)*%
X151200000Y-122400000D03*
%TD*%
D10*
%TO.P,J5,1,Pin_1*%
%TO.N,+12V*%
X153000000Y-108000000D03*
D11*
%TO.P,J5,2,Pin_2*%
%TO.N,+3V3*%
X153000000Y-105460000D03*
%TO.P,J5,3,Pin_3*%
%TO.N,/PD_EN*%
X153000000Y-102920000D03*
%TO.P,J5,4,Pin_4*%
%TO.N,GND*%
X153000000Y-100380000D03*
%TD*%
D12*
%TO.P,H3,1,1*%
%TO.N,Net-(H3-Pad1)*%
X196200000Y-61400000D03*
%TD*%
%TO.P,H1,1,1*%
%TO.N,Net-(H1-Pad1)*%
X196200000Y-122400000D03*
%TD*%
D10*
%TO.P,J1,1,Pin_1*%
%TO.N,SPI_3V3_ADC_CS*%
X167600000Y-123800000D03*
D11*
%TO.P,J1,2,Pin_2*%
%TO.N,SPI_3V3_ADC_MISO*%
X165060000Y-123800000D03*
%TO.P,J1,3,Pin_3*%
%TO.N,SPI_3V3_ADC_SCLK*%
X162520000Y-123800000D03*
%TO.P,J1,4,Pin_4*%
%TO.N,GND*%
X159980000Y-123800000D03*
%TD*%
D12*
%TO.P,H2,1,1*%
%TO.N,Net-(H2-Pad1)*%
X151200000Y-61400000D03*
%TD*%
D13*
%TO.P,A1,1,D1/TX*%
%TO.N,unconnected-(A1-D1{slash}TX-Pad1)*%
X184740000Y-108560000D03*
D14*
%TO.P,A1,2,D0/RX*%
%TO.N,unconnected-(A1-D0{slash}RX-Pad2)*%
X184740000Y-106020000D03*
%TO.P,A1,3,~{RESET}*%
%TO.N,unconnected-(A1-~{RESET}-Pad3)*%
X184740000Y-103480000D03*
%TO.P,A1,4,GND*%
%TO.N,GND*%
X184740000Y-100940000D03*
%TO.P,A1,5,D2*%
%TO.N,/TEMP_SENS_OUT*%
X184740000Y-98400000D03*
%TO.P,A1,6,D3*%
%TO.N,VDAC_POT_PWM_3V3*%
X184740000Y-95860000D03*
%TO.P,A1,7,D4*%
%TO.N,unconnected-(A1-D4-Pad7)*%
X184740000Y-93320000D03*
%TO.P,A1,8,D5*%
%TO.N,unconnected-(A1-D5-Pad8)*%
X184740000Y-90780000D03*
%TO.P,A1,9,D6*%
%TO.N,unconnected-(A1-D6-Pad9)*%
X184740000Y-88240000D03*
%TO.P,A1,10,D7*%
%TO.N,/LED3*%
X184740000Y-85700000D03*
%TO.P,A1,11,D8*%
%TO.N,/LED2*%
X184740000Y-83160000D03*
%TO.P,A1,12,D9*%
%TO.N,/LED1*%
X184740000Y-80620000D03*
%TO.P,A1,13,D10*%
%TO.N,Net-(A1-D10)*%
X184740000Y-78080000D03*
%TO.P,A1,14,D11*%
%TO.N,unconnected-(A1-D11-Pad14)*%
X184740000Y-75540000D03*
%TO.P,A1,15,D12*%
%TO.N,Net-(A1-D12)*%
X184740000Y-73000000D03*
%TO.P,A1,16,D13*%
%TO.N,Net-(A1-D13)*%
X169500000Y-73000000D03*
%TO.P,A1,17,3V3*%
%TO.N,unconnected-(A1-3V3-Pad17)*%
X169500000Y-75540000D03*
%TO.P,A1,18,AREF*%
%TO.N,unconnected-(A1-AREF-Pad18)*%
X169500000Y-78080000D03*
%TO.P,A1,19,A0*%
%TO.N,/SW_PUSH1*%
X169500000Y-80620000D03*
%TO.P,A1,20,A1*%
%TO.N,/SW_PUSH2*%
X169500000Y-83160000D03*
%TO.P,A1,21,A2*%
%TO.N,/SW_FLIP*%
X169500000Y-85700000D03*
%TO.P,A1,22,A3*%
%TO.N,unconnected-(A1-A3-Pad22)*%
X169500000Y-88240000D03*
%TO.P,A1,23,A4*%
%TO.N,/SDA_DISPLAY*%
X169500000Y-90780000D03*
%TO.P,A1,24,A5*%
%TO.N,/SDL_DISPLAY*%
X169500000Y-93320000D03*
%TO.P,A1,25,A6*%
%TO.N,unconnected-(A1-A6-Pad25)*%
X169500000Y-95860000D03*
%TO.P,A1,26,A7*%
%TO.N,/PD_EN*%
X169500000Y-98400000D03*
%TO.P,A1,27,+5V*%
%TO.N,unconnected-(A1-+5V-Pad27)*%
X169500000Y-100940000D03*
%TO.P,A1,28,~{RESET}*%
%TO.N,unconnected-(A1-~{RESET}-Pad28)*%
X169500000Y-103480000D03*
%TO.P,A1,29,GND*%
%TO.N,GND*%
X169500000Y-106020000D03*
%TO.P,A1,30,VIN*%
%TO.N,Net-(A1-VIN)*%
X169500000Y-108560000D03*
%TD*%
D15*
%TO.P,U1,1,VCC*%
%TO.N,+3V3*%
X196000000Y-104880000D03*
D16*
%TO.P,U1,2,IO*%
%TO.N,/TEMP_SENS_OUT*%
X196000000Y-107420000D03*
%TO.P,U1,3,NC*%
%TO.N,unconnected-(U1-NC-Pad3)*%
X196000000Y-109960000D03*
%TO.P,U1,4,GND*%
%TO.N,GND*%
X196000000Y-112500000D03*
%TD*%
D17*
%TO.P,SW3,1,1*%
%TO.N,+3V3*%
X158600000Y-79100000D03*
X152100000Y-79100000D03*
%TO.P,SW3,2,2*%
%TO.N,/SW_PUSH2_R*%
X158600000Y-83600000D03*
X152100000Y-83600000D03*
%TD*%
D10*
%TO.P,J2,1,Pin_1*%
%TO.N,/SDA_DISPLAY*%
X177400000Y-118600000D03*
D11*
%TO.P,J2,2,Pin_2*%
%TO.N,/SDL_DISPLAY*%
X174860000Y-118600000D03*
%TO.P,J2,3,Pin_3*%
%TO.N,+3V3*%
X172320000Y-118600000D03*
%TO.P,J2,4,Pin_4*%
%TO.N,GND*%
X169780000Y-118600000D03*
%TD*%
D17*
%TO.P,SW2,1,1*%
%TO.N,+3V3*%
X158600000Y-69700000D03*
X152100000Y-69700000D03*
%TO.P,SW2,2,2*%
%TO.N,/SW_PUSH1_R*%
X158600000Y-74200000D03*
X152100000Y-74200000D03*
%TD*%
%TO.P,SW1,1,1*%
%TO.N,+3V3*%
X152200000Y-93100000D03*
X158700000Y-93100000D03*
%TO.P,SW1,2,2*%
%TO.N,/SW_FLIP_R*%
X152200000Y-88600000D03*
X158700000Y-88600000D03*
%TD*%
D18*
%TO.N,GND*%
X187600000Y-75400000D03*
X198500000Y-96500000D03*
X196000000Y-94000000D03*
X198800000Y-73200000D03*
X197000000Y-76600000D03*
X194600000Y-71400000D03*
X190800000Y-75200000D03*
X187600000Y-71000000D03*
%TO.N,/TEMP_SENS_OUT*%
X189200000Y-98800000D03*
%TO.N,+3V3*%
X164000000Y-97200000D03*
X161000000Y-91500000D03*
X189000000Y-94000000D03*
X196000000Y-99680000D03*
X160600000Y-97200000D03*
X195200000Y-74800000D03*
X161000000Y-94500000D03*
X148500000Y-114500000D03*
%TO.N,SPI_3V3_ADC_SCLK*%
X162500000Y-73500000D03*
%TD*%
D19*
%TO.N,GND*%
X190800000Y-75200000D02*
X194600000Y-71400000D01*
X187600000Y-71000000D02*
X187600000Y-75400000D01*
X198500000Y-96500000D02*
X196000000Y-94000000D01*
X198800000Y-73200000D02*
X197000000Y-75000000D01*
X197000000Y-75000000D02*
X197000000Y-76600000D01*
D20*
%TO.N,/TEMP_SENS_OUT*%
X194920000Y-107420000D02*
X196000000Y-107420000D01*
X189200000Y-98800000D02*
X189200000Y-101700000D01*
X189200000Y-101700000D02*
X194920000Y-107420000D01*
%TO.N,VDAC_POT_PWM_3V3*%
X186800000Y-97920000D02*
X184740000Y-95860000D01*
X186800000Y-123800000D02*
X186800000Y-97920000D01*
%TO.N,SPI_3V3_ADC_SCLK*%
X162500000Y-73500000D02*
X162500000Y-123780000D01*
X162500000Y-123780000D02*
X162520000Y-123800000D01*
%TD*%
%TA.AperFunction,Conductor*%
%TO.N,+3V3*%
G36*
X200942539Y-56620185D02*
G01*
X200988294Y-56672989D01*
X200999500Y-56724500D01*
X200999500Y-127075500D01*
X200979815Y-127142539D01*
X200927011Y-127188294D01*
X200875500Y-127199500D01*
X146524500Y-127199500D01*
X146457461Y-127179815D01*
X146411706Y-127127011D01*
X146400500Y-127075500D01*
X146400500Y-122400000D01*
X147494422Y-122400000D01*
X147494592Y-122403243D01*
X147510546Y-122707669D01*
X147514722Y-122787338D01*
X147515227Y-122790531D01*
X147515229Y-122790543D01*
X147574889Y-123167224D01*
X147574891Y-123167237D01*
X147575398Y-123170433D01*
X147576235Y-123173557D01*
X147576237Y-123173566D01*
X147674947Y-123541957D01*
X147675786Y-123545087D01*
X147814786Y-123907194D01*
X147816255Y-123910077D01*
X147816259Y-123910086D01*
X147880114Y-124035408D01*
X147990875Y-124252789D01*
X148202124Y-124578084D01*
X148299127Y-124697873D01*
X148412997Y-124838491D01*
X148446219Y-124879516D01*
X148720484Y-125153781D01*
X149021916Y-125397876D01*
X149347211Y-125609125D01*
X149692806Y-125785214D01*
X150054913Y-125924214D01*
X150429567Y-126024602D01*
X150812662Y-126085278D01*
X151200000Y-126105578D01*
X151587338Y-126085278D01*
X151970433Y-126024602D01*
X152345087Y-125924214D01*
X152707194Y-125785214D01*
X153052789Y-125609125D01*
X153378084Y-125397876D01*
X153679516Y-125153781D01*
X153953781Y-124879516D01*
X154197876Y-124578084D01*
X154409125Y-124252789D01*
X154585214Y-123907194D01*
X154626362Y-123800000D01*
X158624340Y-123800000D01*
X158644936Y-124035407D01*
X158689709Y-124202502D01*
X158706097Y-124263663D01*
X158805965Y-124477830D01*
X158941505Y-124671401D01*
X159108599Y-124838495D01*
X159302170Y-124974035D01*
X159516337Y-125073903D01*
X159744592Y-125135063D01*
X159980000Y-125155659D01*
X160215408Y-125135063D01*
X160443663Y-125073903D01*
X160657830Y-124974035D01*
X160851401Y-124838495D01*
X161018495Y-124671401D01*
X161148426Y-124485839D01*
X161203002Y-124442217D01*
X161272501Y-124435024D01*
X161334855Y-124466546D01*
X161351571Y-124485837D01*
X161481505Y-124671401D01*
X161648599Y-124838495D01*
X161842170Y-124974035D01*
X162056337Y-125073903D01*
X162284592Y-125135063D01*
X162520000Y-125155659D01*
X162755408Y-125135063D01*
X162983663Y-125073903D01*
X163197830Y-124974035D01*
X163391401Y-124838495D01*
X163558495Y-124671401D01*
X163688426Y-124485839D01*
X163743002Y-124442216D01*
X163812500Y-124435022D01*
X163874855Y-124466545D01*
X163891571Y-124485837D01*
X164021505Y-124671401D01*
X164188599Y-124838495D01*
X164382170Y-124974035D01*
X164596337Y-125073903D01*
X164824592Y-125135062D01*
X164824592Y-125135063D01*
X165059999Y-125155659D01*
X165059999Y-125155658D01*
X165060000Y-125155659D01*
X165295408Y-125135063D01*
X165523663Y-125073903D01*
X165737830Y-124974035D01*
X165931401Y-124838495D01*
X166053329Y-124716566D01*
X166114648Y-124683084D01*
X166184340Y-124688068D01*
X166240274Y-124729939D01*
X166257189Y-124760916D01*
X166306204Y-124892331D01*
X166392454Y-125007546D01*
X166507669Y-125093796D01*
X166642517Y-125144091D01*
X166702127Y-125150500D01*
X168497872Y-125150499D01*
X168557483Y-125144091D01*
X168692331Y-125093796D01*
X168807546Y-125007546D01*
X168893796Y-124892331D01*
X168944091Y-124757483D01*
X168950500Y-124697873D01*
X168950499Y-123800000D01*
X182904340Y-123800000D01*
X182924936Y-124035407D01*
X182969709Y-124202501D01*
X182986097Y-124263663D01*
X183085965Y-124477830D01*
X183221505Y-124671401D01*
X183388599Y-124838495D01*
X183582170Y-124974035D01*
X183796337Y-125073903D01*
X184024592Y-125135062D01*
X184024592Y-125135063D01*
X184259999Y-125155659D01*
X184259999Y-125155658D01*
X184260000Y-125155659D01*
X184495408Y-125135063D01*
X184723663Y-125073903D01*
X184937830Y-124974035D01*
X185131401Y-124838495D01*
X185253329Y-124716566D01*
X185314648Y-124683084D01*
X185384340Y-124688068D01*
X185440274Y-124729939D01*
X185457189Y-124760916D01*
X185506204Y-124892331D01*
X185592454Y-125007546D01*
X185707669Y-125093796D01*
X185842517Y-125144091D01*
X185902127Y-125150500D01*
X187697872Y-125150499D01*
X187757483Y-125144091D01*
X187892331Y-125093796D01*
X188007546Y-125007546D01*
X188093796Y-124892331D01*
X188144091Y-124757483D01*
X188150500Y-124697873D01*
X188150499Y-122902128D01*
X188144091Y-122842517D01*
X188093796Y-122707669D01*
X188007546Y-122592454D01*
X187892331Y-122506204D01*
X187757483Y-122455909D01*
X187697873Y-122449500D01*
X187694551Y-122449500D01*
X187549500Y-122449500D01*
X187482461Y-122429815D01*
X187456626Y-122400000D01*
X192494422Y-122400000D01*
X192494592Y-122403243D01*
X192510546Y-122707669D01*
X192514722Y-122787338D01*
X192515227Y-122790531D01*
X192515229Y-122790543D01*
X192574889Y-123167224D01*
X192574891Y-123167237D01*
X192575398Y-123170433D01*
X192576235Y-123173557D01*
X192576237Y-123173566D01*
X192674947Y-123541957D01*
X192675786Y-123545087D01*
X192814786Y-123907194D01*
X192816255Y-123910077D01*
X192816259Y-123910086D01*
X192880114Y-124035408D01*
X192990875Y-124252789D01*
X193202124Y-124578084D01*
X193299127Y-124697873D01*
X193412997Y-124838491D01*
X193446219Y-124879516D01*
X193720484Y-125153781D01*
X194021916Y-125397876D01*
X194347211Y-125609125D01*
X194692806Y-125785214D01*
X195054913Y-125924214D01*
X195429567Y-126024602D01*
X195812662Y-126085278D01*
X196200000Y-126105578D01*
X196587338Y-126085278D01*
X196970433Y-126024602D01*
X197345087Y-125924214D01*
X197707194Y-125785214D01*
X198052789Y-125609125D01*
X198378084Y-125397876D01*
X198679516Y-125153781D01*
X198953781Y-124879516D01*
X199197876Y-124578084D01*
X199409125Y-124252789D01*
X199585214Y-123907194D01*
X199724214Y-123545087D01*
X199824602Y-123170433D01*
X199885278Y-122787338D01*
X199905578Y-122400000D01*
X199885278Y-122012662D01*
X199824602Y-121629567D01*
X199724214Y-121254913D01*
X199585214Y-120892806D01*
X199409125Y-120547211D01*
X199197876Y-120221916D01*
X198953781Y-119920484D01*
X198679516Y-119646219D01*
X198669976Y-119638494D01*
X198519412Y-119516569D01*
X198378084Y-119402124D01*
X198052789Y-119190875D01*
X198049901Y-119189403D01*
X198049895Y-119189400D01*
X197710086Y-119016259D01*
X197710077Y-119016255D01*
X197707194Y-119014786D01*
X197704162Y-119013622D01*
X197348110Y-118876946D01*
X197348102Y-118876943D01*
X197345087Y-118875786D01*
X197341962Y-118874948D01*
X197341957Y-118874947D01*
X196973566Y-118776237D01*
X196973557Y-118776235D01*
X196970433Y-118775398D01*
X196967237Y-118774891D01*
X196967224Y-118774889D01*
X196590543Y-118715229D01*
X196590531Y-118715227D01*
X196587338Y-118714722D01*
X196584103Y-118714552D01*
X196584099Y-118714552D01*
X196203244Y-118694592D01*
X196200000Y-118694422D01*
X196196756Y-118694592D01*
X195815900Y-118714552D01*
X195815894Y-118714552D01*
X195812662Y-118714722D01*
X195809470Y-118715227D01*
X195809456Y-118715229D01*
X195432775Y-118774889D01*
X195432758Y-118774892D01*
X195429567Y-118775398D01*
X195426446Y-118776234D01*
X195426433Y-118776237D01*
X195058042Y-118874947D01*
X195058031Y-118874950D01*
X195054913Y-118875786D01*
X195051902Y-118876941D01*
X195051889Y-118876946D01*
X194695837Y-119013622D01*
X194695828Y-119013625D01*
X194692806Y-119014786D01*
X194689929Y-119016251D01*
X194689913Y-119016259D01*
X194350104Y-119189400D01*
X194350090Y-119189408D01*
X194347211Y-119190875D01*
X194344491Y-119192641D01*
X194344483Y-119192646D01*
X194024644Y-119400352D01*
X194024638Y-119400355D01*
X194021916Y-119402124D01*
X194019396Y-119404164D01*
X194019390Y-119404169D01*
X193723002Y-119644179D01*
X193722991Y-119644188D01*
X193720484Y-119646219D01*
X193718199Y-119648503D01*
X193718189Y-119648513D01*
X193448513Y-119918189D01*
X193448503Y-119918199D01*
X193446219Y-119920484D01*
X193444188Y-119922991D01*
X193444179Y-119923002D01*
X193204169Y-120219390D01*
X193204164Y-120219396D01*
X193202124Y-120221916D01*
X193200355Y-120224638D01*
X193200352Y-120224644D01*
X192992646Y-120544483D01*
X192992641Y-120544491D01*
X192990875Y-120547211D01*
X192989408Y-120550090D01*
X192989400Y-120550104D01*
X192816259Y-120889913D01*
X192816251Y-120889929D01*
X192814786Y-120892806D01*
X192813625Y-120895828D01*
X192813622Y-120895837D01*
X192676946Y-121251889D01*
X192676941Y-121251902D01*
X192675786Y-121254913D01*
X192674950Y-121258031D01*
X192674947Y-121258042D01*
X192576237Y-121626433D01*
X192576234Y-121626446D01*
X192575398Y-121629567D01*
X192574892Y-121632758D01*
X192574889Y-121632775D01*
X192515229Y-122009456D01*
X192515227Y-122009470D01*
X192514722Y-122012662D01*
X192494422Y-122400000D01*
X187456626Y-122400000D01*
X187436706Y-122377011D01*
X187425500Y-122325500D01*
X187425500Y-98800000D01*
X188294540Y-98800000D01*
X188314326Y-98988257D01*
X188372820Y-99168284D01*
X188467466Y-99332216D01*
X188542649Y-99415715D01*
X188572879Y-99478707D01*
X188574499Y-99498687D01*
X188574499Y-101617260D01*
X188572235Y-101637771D01*
X188574439Y-101707873D01*
X188574500Y-101711768D01*
X188574500Y-101739350D01*
X188574988Y-101743219D01*
X188574989Y-101743225D01*
X188575004Y-101743343D01*
X188575918Y-101754967D01*
X188577290Y-101798626D01*
X188582879Y-101817860D01*
X188586825Y-101836916D01*
X188589335Y-101856792D01*
X188605414Y-101897404D01*
X188609197Y-101908451D01*
X188621382Y-101950391D01*
X188631580Y-101967635D01*
X188640136Y-101985100D01*
X188647514Y-102003732D01*
X188647515Y-102003733D01*
X188673180Y-102039059D01*
X188679593Y-102048822D01*
X188701826Y-102086416D01*
X188701829Y-102086419D01*
X188701830Y-102086420D01*
X188715995Y-102100585D01*
X188728627Y-102115375D01*
X188740406Y-102131587D01*
X188753156Y-102142135D01*
X188774058Y-102159426D01*
X188782699Y-102167289D01*
X194419197Y-107803787D01*
X194432098Y-107819889D01*
X194434212Y-107821874D01*
X194434214Y-107821877D01*
X194481561Y-107866339D01*
X194483240Y-107867916D01*
X194486036Y-107870626D01*
X194505530Y-107890120D01*
X194508615Y-107892513D01*
X194508701Y-107892580D01*
X194517573Y-107900158D01*
X194549418Y-107930062D01*
X194566974Y-107939714D01*
X194583231Y-107950392D01*
X194599064Y-107962674D01*
X194615185Y-107969649D01*
X194639156Y-107980023D01*
X194649643Y-107985160D01*
X194687908Y-108006197D01*
X194707316Y-108011180D01*
X194725710Y-108017478D01*
X194744105Y-108025438D01*
X194787254Y-108032271D01*
X194798680Y-108034638D01*
X194814222Y-108038629D01*
X194840980Y-108045500D01*
X194840981Y-108045500D01*
X194846850Y-108045500D01*
X194913889Y-108065185D01*
X194948423Y-108098374D01*
X195038402Y-108226877D01*
X195193123Y-108381598D01*
X195372361Y-108507102D01*
X195471237Y-108553208D01*
X195523582Y-108577618D01*
X195576021Y-108623791D01*
X195595173Y-108690984D01*
X195574957Y-108757865D01*
X195523582Y-108802382D01*
X195372361Y-108872898D01*
X195193122Y-108998402D01*
X195038402Y-109153122D01*
X194912898Y-109332361D01*
X194820425Y-109530668D01*
X194763792Y-109742025D01*
X194744722Y-109960000D01*
X194763792Y-110177974D01*
X194763793Y-110177977D01*
X194820425Y-110389330D01*
X194912898Y-110587639D01*
X195038402Y-110766877D01*
X195193123Y-110921598D01*
X195372361Y-111047102D01*
X195471237Y-111093208D01*
X195523582Y-111117618D01*
X195576021Y-111163791D01*
X195595173Y-111230984D01*
X195574957Y-111297865D01*
X195523582Y-111342382D01*
X195372361Y-111412898D01*
X195193122Y-111538402D01*
X195038402Y-111693122D01*
X194912898Y-111872361D01*
X194820425Y-112070668D01*
X194763792Y-112282025D01*
X194744722Y-112499999D01*
X194763792Y-112717974D01*
X194763793Y-112717977D01*
X194820425Y-112929330D01*
X194912898Y-113127639D01*
X195038402Y-113306877D01*
X195193123Y-113461598D01*
X195372361Y-113587102D01*
X195570670Y-113679575D01*
X195782023Y-113736207D01*
X196000000Y-113755277D01*
X196217977Y-113736207D01*
X196429330Y-113679575D01*
X196627639Y-113587102D01*
X196806877Y-113461598D01*
X196961598Y-113306877D01*
X197087102Y-113127639D01*
X197179575Y-112929330D01*
X197236207Y-112717977D01*
X197255277Y-112500000D01*
X197236207Y-112282023D01*
X197179575Y-112070670D01*
X197087102Y-111872362D01*
X196961598Y-111693123D01*
X196806877Y-111538402D01*
X196627639Y-111412898D01*
X196476417Y-111342382D01*
X196423978Y-111296210D01*
X196404826Y-111229016D01*
X196425042Y-111162135D01*
X196476417Y-111117618D01*
X196479324Y-111116262D01*
X196627639Y-111047102D01*
X196806877Y-110921598D01*
X196961598Y-110766877D01*
X197087102Y-110587639D01*
X197179575Y-110389330D01*
X197236207Y-110177977D01*
X197255277Y-109960000D01*
X197236207Y-109742023D01*
X197179575Y-109530670D01*
X197087102Y-109332362D01*
X196961598Y-109153123D01*
X196806877Y-108998402D01*
X196627639Y-108872898D01*
X196476417Y-108802382D01*
X196423978Y-108756210D01*
X196404826Y-108689016D01*
X196425042Y-108622135D01*
X196476417Y-108577618D01*
X196479324Y-108576262D01*
X196627639Y-108507102D01*
X196806877Y-108381598D01*
X196961598Y-108226877D01*
X197087102Y-108047639D01*
X197179575Y-107849330D01*
X197236207Y-107637977D01*
X197255277Y-107420000D01*
X197236207Y-107202023D01*
X197179575Y-106990670D01*
X197087102Y-106792362D01*
X196961598Y-106613123D01*
X196806877Y-106458402D01*
X196660022Y-106355573D01*
X196616400Y-106300998D01*
X196609207Y-106231499D01*
X196640729Y-106169145D01*
X196700959Y-106133731D01*
X196731148Y-106130000D01*
X196794518Y-106130000D01*
X196801132Y-106129645D01*
X196857371Y-106123599D01*
X196992089Y-106073352D01*
X197107188Y-105987188D01*
X197193352Y-105872089D01*
X197243599Y-105737371D01*
X197249645Y-105681132D01*
X197250000Y-105674518D01*
X197250000Y-105280000D01*
X196031481Y-105280000D01*
X196125148Y-105265165D01*
X196238045Y-105207641D01*
X196327641Y-105118045D01*
X196385165Y-105005148D01*
X196404986Y-104880000D01*
X196385165Y-104754852D01*
X196327641Y-104641955D01*
X196238045Y-104552359D01*
X196125148Y-104494835D01*
X196031481Y-104480000D01*
X195968519Y-104480000D01*
X195874852Y-104494835D01*
X195761955Y-104552359D01*
X195672359Y-104641955D01*
X195614835Y-104754852D01*
X195595014Y-104880000D01*
X195614835Y-105005148D01*
X195672359Y-105118045D01*
X195761955Y-105207641D01*
X195874852Y-105265165D01*
X195968519Y-105280000D01*
X194750000Y-105280000D01*
X194750000Y-105674518D01*
X194750354Y-105681132D01*
X194756400Y-105737371D01*
X194806647Y-105872089D01*
X194892811Y-105987188D01*
X195007910Y-106073352D01*
X195142628Y-106123599D01*
X195198867Y-106129645D01*
X195205482Y-106130000D01*
X195268853Y-106130000D01*
X195335892Y-106149685D01*
X195381647Y-106202489D01*
X195391591Y-106271647D01*
X195362566Y-106335203D01*
X195339976Y-106355575D01*
X195193125Y-106458400D01*
X195105738Y-106545787D01*
X195044414Y-106579271D01*
X194974723Y-106574287D01*
X194930376Y-106545786D01*
X192864590Y-104480000D01*
X194750000Y-104480000D01*
X195600000Y-104480000D01*
X195600000Y-103630000D01*
X196400000Y-103630000D01*
X196400000Y-104480000D01*
X197250000Y-104480000D01*
X197250000Y-104085481D01*
X197249645Y-104078867D01*
X197243599Y-104022628D01*
X197193352Y-103887910D01*
X197107188Y-103772811D01*
X196992089Y-103686647D01*
X196857371Y-103636400D01*
X196801132Y-103630354D01*
X196794518Y-103630000D01*
X196400000Y-103630000D01*
X195600000Y-103630000D01*
X195205482Y-103630000D01*
X195198867Y-103630354D01*
X195142628Y-103636400D01*
X195007910Y-103686647D01*
X194892811Y-103772811D01*
X194806647Y-103887910D01*
X194756400Y-104022628D01*
X194750354Y-104078867D01*
X194750000Y-104085481D01*
X194750000Y-104480000D01*
X192864590Y-104480000D01*
X192407218Y-104022628D01*
X189861819Y-101477228D01*
X189828334Y-101415905D01*
X189825500Y-101389547D01*
X189825500Y-99498687D01*
X189845185Y-99431648D01*
X189857350Y-99415714D01*
X189924166Y-99341508D01*
X189932533Y-99332216D01*
X190005425Y-99205964D01*
X190027179Y-99168284D01*
X190064723Y-99052735D01*
X190085674Y-98988256D01*
X190105460Y-98800000D01*
X190085674Y-98611744D01*
X190027179Y-98431716D01*
X190027179Y-98431715D01*
X189932533Y-98267783D01*
X189805870Y-98127110D01*
X189652730Y-98015848D01*
X189479802Y-97938855D01*
X189294648Y-97899500D01*
X189294646Y-97899500D01*
X189105354Y-97899500D01*
X189105352Y-97899500D01*
X188920197Y-97938855D01*
X188747269Y-98015848D01*
X188594129Y-98127110D01*
X188467466Y-98267783D01*
X188372820Y-98431715D01*
X188314326Y-98611742D01*
X188294540Y-98800000D01*
X187425500Y-98800000D01*
X187425500Y-98002743D01*
X187427764Y-97982239D01*
X187427626Y-97977854D01*
X187425561Y-97912126D01*
X187425500Y-97908231D01*
X187425500Y-97884540D01*
X187425500Y-97880650D01*
X187424998Y-97876677D01*
X187424080Y-97865018D01*
X187422709Y-97821373D01*
X187417120Y-97802140D01*
X187413174Y-97783082D01*
X187410664Y-97763206D01*
X187394588Y-97722604D01*
X187390804Y-97711553D01*
X187384881Y-97691168D01*
X187378618Y-97669610D01*
X187368414Y-97652355D01*
X187359861Y-97634895D01*
X187352486Y-97616269D01*
X187352486Y-97616268D01*
X187326808Y-97580925D01*
X187320401Y-97571171D01*
X187314304Y-97560861D01*
X187298170Y-97533580D01*
X187284006Y-97519416D01*
X187271367Y-97504617D01*
X187259595Y-97488413D01*
X187225941Y-97460573D01*
X187217299Y-97452709D01*
X186039413Y-96274822D01*
X186005928Y-96213499D01*
X186007319Y-96155047D01*
X186025635Y-96086692D01*
X186045468Y-95860000D01*
X186025635Y-95633308D01*
X185966739Y-95413504D01*
X185870568Y-95207266D01*
X185740047Y-95020861D01*
X185740046Y-95020859D01*
X185579140Y-94859953D01*
X185392733Y-94729431D01*
X185334725Y-94702382D01*
X185282285Y-94656210D01*
X185263133Y-94589017D01*
X185283348Y-94522135D01*
X185334725Y-94477618D01*
X185392734Y-94450568D01*
X185579139Y-94320047D01*
X185740047Y-94159139D01*
X185851476Y-94000000D01*
X195094540Y-94000000D01*
X195114326Y-94188257D01*
X195172820Y-94368284D01*
X195267466Y-94532216D01*
X195394129Y-94672889D01*
X195547269Y-94784151D01*
X195720193Y-94861143D01*
X195720196Y-94861143D01*
X195720197Y-94861144D01*
X195785329Y-94874987D01*
X195846808Y-94908178D01*
X195847228Y-94908596D01*
X197587228Y-96648596D01*
X197617478Y-96697958D01*
X197672821Y-96868285D01*
X197767466Y-97032216D01*
X197894129Y-97172889D01*
X198047269Y-97284151D01*
X198220197Y-97361144D01*
X198405352Y-97400500D01*
X198405354Y-97400500D01*
X198594648Y-97400500D01*
X198718083Y-97374262D01*
X198779803Y-97361144D01*
X198952730Y-97284151D01*
X199105871Y-97172888D01*
X199232533Y-97032216D01*
X199327179Y-96868284D01*
X199385674Y-96688256D01*
X199405460Y-96500000D01*
X199385674Y-96311744D01*
X199327179Y-96131716D01*
X199327179Y-96131715D01*
X199232533Y-95967783D01*
X199105870Y-95827110D01*
X198952730Y-95715848D01*
X198779803Y-95638855D01*
X198714669Y-95625011D01*
X198653187Y-95591819D01*
X198652769Y-95591402D01*
X196912771Y-93851403D01*
X196882521Y-93802040D01*
X196827179Y-93631715D01*
X196732533Y-93467783D01*
X196605870Y-93327110D01*
X196452730Y-93215848D01*
X196279802Y-93138855D01*
X196094648Y-93099500D01*
X196094646Y-93099500D01*
X195905354Y-93099500D01*
X195905352Y-93099500D01*
X195720197Y-93138855D01*
X195547269Y-93215848D01*
X195394129Y-93327110D01*
X195267466Y-93467783D01*
X195172820Y-93631715D01*
X195114326Y-93811742D01*
X195094540Y-94000000D01*
X185851476Y-94000000D01*
X185870568Y-93972734D01*
X185966739Y-93766496D01*
X186025635Y-93546692D01*
X186045468Y-93320000D01*
X186025635Y-93093308D01*
X185966739Y-92873504D01*
X185870568Y-92667266D01*
X185841430Y-92625651D01*
X185740046Y-92480859D01*
X185579140Y-92319953D01*
X185392736Y-92189433D01*
X185334723Y-92162381D01*
X185282284Y-92116208D01*
X185263133Y-92049014D01*
X185283349Y-91982133D01*
X185334721Y-91937619D01*
X185392734Y-91910568D01*
X185579139Y-91780047D01*
X185740047Y-91619139D01*
X185870568Y-91432734D01*
X185966739Y-91226496D01*
X186025635Y-91006692D01*
X186045468Y-90780000D01*
X186025635Y-90553308D01*
X185966739Y-90333504D01*
X185870568Y-90127266D01*
X185851827Y-90100500D01*
X185740046Y-89940859D01*
X185579140Y-89779953D01*
X185392733Y-89649431D01*
X185334725Y-89622382D01*
X185282285Y-89576210D01*
X185263133Y-89509017D01*
X185283348Y-89442135D01*
X185334725Y-89397618D01*
X185392734Y-89370568D01*
X185579139Y-89240047D01*
X185740047Y-89079139D01*
X185870568Y-88892734D01*
X185966739Y-88686496D01*
X186025635Y-88466692D01*
X186045468Y-88240000D01*
X186025635Y-88013308D01*
X185966739Y-87793504D01*
X185870568Y-87587266D01*
X185740047Y-87400861D01*
X185740046Y-87400859D01*
X185579140Y-87239953D01*
X185392733Y-87109431D01*
X185334725Y-87082382D01*
X185282285Y-87036210D01*
X185263133Y-86969017D01*
X185283348Y-86902135D01*
X185334725Y-86857618D01*
X185392734Y-86830568D01*
X185579139Y-86700047D01*
X185740047Y-86539139D01*
X185870568Y-86352734D01*
X185966739Y-86146496D01*
X186025635Y-85926692D01*
X186045468Y-85700000D01*
X186025635Y-85473308D01*
X185966739Y-85253504D01*
X185870568Y-85047266D01*
X185822649Y-84978829D01*
X185740046Y-84860859D01*
X185579140Y-84699953D01*
X185392733Y-84569431D01*
X185334725Y-84542382D01*
X185282285Y-84496210D01*
X185263133Y-84429017D01*
X185283348Y-84362135D01*
X185334725Y-84317618D01*
X185392734Y-84290568D01*
X185579139Y-84160047D01*
X185740047Y-83999139D01*
X185870568Y-83812734D01*
X185966739Y-83606496D01*
X186025635Y-83386692D01*
X186045468Y-83160000D01*
X186025635Y-82933308D01*
X185966739Y-82713504D01*
X185870568Y-82507266D01*
X185860063Y-82492262D01*
X185740046Y-82320859D01*
X185579140Y-82159953D01*
X185392733Y-82029431D01*
X185334725Y-82002382D01*
X185282285Y-81956210D01*
X185263133Y-81889017D01*
X185283348Y-81822135D01*
X185334725Y-81777618D01*
X185392734Y-81750568D01*
X185579139Y-81620047D01*
X185740047Y-81459139D01*
X185870568Y-81272734D01*
X185966739Y-81066496D01*
X186025635Y-80846692D01*
X186045468Y-80620000D01*
X186025635Y-80393308D01*
X185966739Y-80173504D01*
X185870568Y-79967266D01*
X185782561Y-79841577D01*
X185740046Y-79780859D01*
X185579140Y-79619953D01*
X185392736Y-79489433D01*
X185334723Y-79462381D01*
X185282284Y-79416208D01*
X185263133Y-79349014D01*
X185283349Y-79282133D01*
X185334721Y-79237619D01*
X185392734Y-79210568D01*
X185579139Y-79080047D01*
X185740047Y-78919139D01*
X185870568Y-78732734D01*
X185966739Y-78526496D01*
X186025635Y-78306692D01*
X186045468Y-78080000D01*
X186025635Y-77853308D01*
X185966739Y-77633504D01*
X185870568Y-77427266D01*
X185762473Y-77272888D01*
X185740046Y-77240859D01*
X185579140Y-77079953D01*
X185392733Y-76949431D01*
X185334725Y-76922382D01*
X185282285Y-76876210D01*
X185263133Y-76809017D01*
X185283348Y-76742135D01*
X185334725Y-76697618D01*
X185392734Y-76670568D01*
X185493516Y-76600000D01*
X196094540Y-76600000D01*
X196114326Y-76788257D01*
X196172820Y-76968284D01*
X196267466Y-77132216D01*
X196394129Y-77272889D01*
X196547269Y-77384151D01*
X196720197Y-77461144D01*
X196905352Y-77500500D01*
X196905354Y-77500500D01*
X197094648Y-77500500D01*
X197218083Y-77474262D01*
X197279803Y-77461144D01*
X197452730Y-77384151D01*
X197605871Y-77272888D01*
X197732533Y-77132216D01*
X197827179Y-76968284D01*
X197885674Y-76788256D01*
X197905460Y-76600000D01*
X197885674Y-76411744D01*
X197827179Y-76231716D01*
X197827179Y-76231715D01*
X197767113Y-76127677D01*
X197750500Y-76065677D01*
X197750500Y-75362228D01*
X197770185Y-75295189D01*
X197786814Y-75274551D01*
X198952770Y-74108595D01*
X199014091Y-74075112D01*
X199014464Y-74075031D01*
X199079803Y-74061144D01*
X199079804Y-74061143D01*
X199079806Y-74061143D01*
X199252730Y-73984151D01*
X199405870Y-73872889D01*
X199532533Y-73732216D01*
X199627179Y-73568284D01*
X199666750Y-73446497D01*
X199685674Y-73388256D01*
X199705460Y-73200000D01*
X199685674Y-73011744D01*
X199627179Y-72831716D01*
X199627179Y-72831715D01*
X199532533Y-72667783D01*
X199405870Y-72527110D01*
X199252730Y-72415848D01*
X199079802Y-72338855D01*
X198894648Y-72299500D01*
X198894646Y-72299500D01*
X198705354Y-72299500D01*
X198705352Y-72299500D01*
X198520197Y-72338855D01*
X198347269Y-72415848D01*
X198194129Y-72527110D01*
X198067466Y-72667783D01*
X197972821Y-72831714D01*
X197917478Y-73002041D01*
X197887228Y-73051403D01*
X196514358Y-74424272D01*
X196500727Y-74436053D01*
X196481468Y-74450391D01*
X196449635Y-74488328D01*
X196442338Y-74496292D01*
X196440972Y-74497657D01*
X196440950Y-74497681D01*
X196438409Y-74500223D01*
X196436173Y-74503050D01*
X196436171Y-74503053D01*
X196419176Y-74524546D01*
X196416902Y-74527337D01*
X196367894Y-74585744D01*
X196357418Y-74602187D01*
X196325192Y-74671294D01*
X196323622Y-74674536D01*
X196289393Y-74742692D01*
X196282996Y-74761098D01*
X196267573Y-74835788D01*
X196266793Y-74839305D01*
X196249208Y-74913506D01*
X196247229Y-74932879D01*
X196249448Y-75009129D01*
X196249500Y-75012735D01*
X196249500Y-76065677D01*
X196232887Y-76127677D01*
X196172820Y-76231715D01*
X196114326Y-76411742D01*
X196094540Y-76600000D01*
X185493516Y-76600000D01*
X185579139Y-76540047D01*
X185740047Y-76379139D01*
X185870568Y-76192734D01*
X185966739Y-75986496D01*
X186025635Y-75766692D01*
X186045468Y-75540000D01*
X186033220Y-75400000D01*
X186694540Y-75400000D01*
X186700896Y-75460474D01*
X186714326Y-75588257D01*
X186772820Y-75768284D01*
X186867466Y-75932216D01*
X186994129Y-76072889D01*
X187147269Y-76184151D01*
X187320197Y-76261144D01*
X187505352Y-76300500D01*
X187505354Y-76300500D01*
X187694648Y-76300500D01*
X187818083Y-76274262D01*
X187879803Y-76261144D01*
X188052730Y-76184151D01*
X188167866Y-76100500D01*
X188205870Y-76072889D01*
X188332533Y-75932216D01*
X188427179Y-75768284D01*
X188462502Y-75659571D01*
X188485674Y-75588256D01*
X188505460Y-75400000D01*
X188485674Y-75211744D01*
X188481858Y-75200000D01*
X189894540Y-75200000D01*
X189914326Y-75388257D01*
X189972820Y-75568284D01*
X190067466Y-75732216D01*
X190194129Y-75872889D01*
X190347269Y-75984151D01*
X190520197Y-76061144D01*
X190705352Y-76100500D01*
X190705354Y-76100500D01*
X190894648Y-76100500D01*
X191024551Y-76072888D01*
X191079803Y-76061144D01*
X191252730Y-75984151D01*
X191405871Y-75872888D01*
X191532533Y-75732216D01*
X191627179Y-75568284D01*
X191682522Y-75397955D01*
X191712769Y-75348597D01*
X194752770Y-72308595D01*
X194814091Y-72275112D01*
X194814464Y-72275031D01*
X194879803Y-72261144D01*
X194879804Y-72261143D01*
X194879806Y-72261143D01*
X195052730Y-72184151D01*
X195205870Y-72072889D01*
X195332533Y-71932216D01*
X195427179Y-71768284D01*
X195444699Y-71714364D01*
X195485674Y-71588256D01*
X195505460Y-71400000D01*
X195485674Y-71211744D01*
X195427179Y-71031716D01*
X195427179Y-71031715D01*
X195332533Y-70867783D01*
X195205870Y-70727110D01*
X195052730Y-70615848D01*
X194879802Y-70538855D01*
X194694648Y-70499500D01*
X194694646Y-70499500D01*
X194505354Y-70499500D01*
X194505352Y-70499500D01*
X194320197Y-70538855D01*
X194147269Y-70615848D01*
X193994129Y-70727110D01*
X193867466Y-70867783D01*
X193772821Y-71031714D01*
X193717478Y-71202041D01*
X193687228Y-71251403D01*
X190647228Y-74291402D01*
X190585905Y-74324887D01*
X190585330Y-74325011D01*
X190520197Y-74338856D01*
X190347267Y-74415849D01*
X190194129Y-74527110D01*
X190067466Y-74667783D01*
X189972820Y-74831715D01*
X189914326Y-75011742D01*
X189894540Y-75200000D01*
X188481858Y-75200000D01*
X188427179Y-75031716D01*
X188427179Y-75031715D01*
X188367113Y-74927677D01*
X188350500Y-74865677D01*
X188350500Y-71534321D01*
X188367113Y-71472321D01*
X188427179Y-71368284D01*
X188465156Y-71251403D01*
X188485674Y-71188256D01*
X188505460Y-71000000D01*
X188485674Y-70811744D01*
X188427179Y-70631716D01*
X188427179Y-70631715D01*
X188332533Y-70467783D01*
X188205870Y-70327110D01*
X188052730Y-70215848D01*
X187879802Y-70138855D01*
X187694648Y-70099500D01*
X187694646Y-70099500D01*
X187505354Y-70099500D01*
X187505352Y-70099500D01*
X187320197Y-70138855D01*
X187147269Y-70215848D01*
X186994129Y-70327110D01*
X186867466Y-70467783D01*
X186772820Y-70631715D01*
X186714326Y-70811742D01*
X186714325Y-70811744D01*
X186714326Y-70811744D01*
X186694540Y-71000000D01*
X186702777Y-71078369D01*
X186714326Y-71188257D01*
X186772820Y-71368284D01*
X186832887Y-71472321D01*
X186849500Y-71534321D01*
X186849500Y-74865677D01*
X186832887Y-74927677D01*
X186772820Y-75031715D01*
X186714326Y-75211742D01*
X186714325Y-75211744D01*
X186714326Y-75211744D01*
X186694540Y-75400000D01*
X186033220Y-75400000D01*
X186025635Y-75313308D01*
X185966739Y-75093504D01*
X185870568Y-74887266D01*
X185855452Y-74865677D01*
X185740046Y-74700859D01*
X185579140Y-74539953D01*
X185392733Y-74409431D01*
X185334725Y-74382382D01*
X185282285Y-74336210D01*
X185263133Y-74269017D01*
X185283348Y-74202135D01*
X185334725Y-74157618D01*
X185348731Y-74151087D01*
X185392734Y-74130568D01*
X185579139Y-74000047D01*
X185740047Y-73839139D01*
X185870568Y-73652734D01*
X185966739Y-73446496D01*
X186025635Y-73226692D01*
X186045468Y-73000000D01*
X186042649Y-72967784D01*
X186030342Y-72827110D01*
X186025635Y-72773308D01*
X185966739Y-72553504D01*
X185870568Y-72347266D01*
X185864680Y-72338856D01*
X185740046Y-72160859D01*
X185579140Y-71999953D01*
X185392735Y-71869432D01*
X185186497Y-71773261D01*
X184966689Y-71714364D01*
X184740000Y-71694531D01*
X184513310Y-71714364D01*
X184293502Y-71773261D01*
X184087264Y-71869432D01*
X183900859Y-71999953D01*
X183739953Y-72160859D01*
X183609432Y-72347264D01*
X183513261Y-72553502D01*
X183454364Y-72773310D01*
X183434531Y-72999999D01*
X183454364Y-73226689D01*
X183513261Y-73446497D01*
X183609432Y-73652735D01*
X183739953Y-73839140D01*
X183900859Y-74000046D01*
X183988116Y-74061143D01*
X184087266Y-74130568D01*
X184145275Y-74157618D01*
X184197714Y-74203791D01*
X184216865Y-74270985D01*
X184196649Y-74337866D01*
X184145275Y-74382382D01*
X184087263Y-74409433D01*
X183900859Y-74539953D01*
X183739953Y-74700859D01*
X183609432Y-74887264D01*
X183513261Y-75093502D01*
X183454364Y-75313310D01*
X183434531Y-75540000D01*
X183454364Y-75766689D01*
X183513261Y-75986497D01*
X183609432Y-76192735D01*
X183739953Y-76379140D01*
X183900859Y-76540046D01*
X184087263Y-76670566D01*
X184087266Y-76670568D01*
X184145275Y-76697618D01*
X184197714Y-76743791D01*
X184216865Y-76810985D01*
X184196649Y-76877866D01*
X184145275Y-76922382D01*
X184087263Y-76949433D01*
X183900859Y-77079953D01*
X183739953Y-77240859D01*
X183609432Y-77427264D01*
X183513261Y-77633502D01*
X183454364Y-77853310D01*
X183434531Y-78080000D01*
X183454364Y-78306689D01*
X183513261Y-78526497D01*
X183609432Y-78732735D01*
X183739953Y-78919140D01*
X183900859Y-79080046D01*
X183983464Y-79137886D01*
X184087266Y-79210568D01*
X184145275Y-79237618D01*
X184197714Y-79283791D01*
X184216865Y-79350985D01*
X184196649Y-79417866D01*
X184145275Y-79462382D01*
X184087263Y-79489433D01*
X183900859Y-79619953D01*
X183739953Y-79780859D01*
X183609432Y-79967264D01*
X183513261Y-80173502D01*
X183454364Y-80393310D01*
X183434531Y-80619999D01*
X183454364Y-80846689D01*
X183513261Y-81066497D01*
X183609432Y-81272735D01*
X183739953Y-81459140D01*
X183900859Y-81620046D01*
X184087263Y-81750566D01*
X184087266Y-81750568D01*
X184145275Y-81777618D01*
X184197714Y-81823791D01*
X184216865Y-81890985D01*
X184196649Y-81957866D01*
X184145275Y-82002382D01*
X184087263Y-82029433D01*
X183900859Y-82159953D01*
X183739953Y-82320859D01*
X183609432Y-82507264D01*
X183513261Y-82713502D01*
X183454364Y-82933310D01*
X183434531Y-83160000D01*
X183454364Y-83386689D01*
X183513261Y-83606497D01*
X183609432Y-83812735D01*
X183739953Y-83999140D01*
X183900859Y-84160046D01*
X184087263Y-84290566D01*
X184087266Y-84290568D01*
X184145275Y-84317618D01*
X184197714Y-84363791D01*
X184216865Y-84430985D01*
X184196649Y-84497866D01*
X184145275Y-84542382D01*
X184087263Y-84569433D01*
X183900859Y-84699953D01*
X183739953Y-84860859D01*
X183609432Y-85047264D01*
X183513261Y-85253502D01*
X183454364Y-85473310D01*
X183434531Y-85699999D01*
X183454364Y-85926689D01*
X183513261Y-86146497D01*
X183609432Y-86352735D01*
X183739953Y-86539140D01*
X183900859Y-86700046D01*
X184087263Y-86830566D01*
X184087266Y-86830568D01*
X184145275Y-86857618D01*
X184197714Y-86903791D01*
X184216865Y-86970985D01*
X184196649Y-87037866D01*
X184145275Y-87082382D01*
X184087263Y-87109433D01*
X183900859Y-87239953D01*
X183739953Y-87400859D01*
X183609432Y-87587264D01*
X183513261Y-87793502D01*
X183454364Y-88013310D01*
X183434531Y-88240000D01*
X183454364Y-88466689D01*
X183513261Y-88686497D01*
X183609432Y-88892735D01*
X183739953Y-89079140D01*
X183900859Y-89240046D01*
X184010201Y-89316607D01*
X184087266Y-89370568D01*
X184145275Y-89397618D01*
X184197714Y-89443791D01*
X184216865Y-89510985D01*
X184196649Y-89577866D01*
X184145275Y-89622382D01*
X184087263Y-89649433D01*
X183900859Y-89779953D01*
X183739953Y-89940859D01*
X183609432Y-90127264D01*
X183513261Y-90333502D01*
X183454364Y-90553310D01*
X183434531Y-90780000D01*
X183454364Y-91006689D01*
X183513261Y-91226497D01*
X183609432Y-91432735D01*
X183739953Y-91619140D01*
X183900859Y-91780046D01*
X183921782Y-91794696D01*
X184087266Y-91910568D01*
X184145275Y-91937618D01*
X184197714Y-91983791D01*
X184216865Y-92050985D01*
X184196649Y-92117866D01*
X184145275Y-92162382D01*
X184087263Y-92189433D01*
X183900859Y-92319953D01*
X183739953Y-92480859D01*
X183609432Y-92667264D01*
X183513261Y-92873502D01*
X183454364Y-93093310D01*
X183434531Y-93319999D01*
X183454364Y-93546689D01*
X183513261Y-93766497D01*
X183609432Y-93972735D01*
X183739953Y-94159140D01*
X183900859Y-94320046D01*
X184087263Y-94450566D01*
X184087266Y-94450568D01*
X184145275Y-94477618D01*
X184197714Y-94523791D01*
X184216865Y-94590985D01*
X184196649Y-94657866D01*
X184145275Y-94702382D01*
X184087263Y-94729433D01*
X183900859Y-94859953D01*
X183739953Y-95020859D01*
X183609432Y-95207264D01*
X183513261Y-95413502D01*
X183454364Y-95633310D01*
X183434531Y-95860000D01*
X183454364Y-96086689D01*
X183513261Y-96306497D01*
X183609432Y-96512735D01*
X183739953Y-96699140D01*
X183900859Y-96860046D01*
X183912626Y-96868285D01*
X184087266Y-96990568D01*
X184145275Y-97017618D01*
X184197714Y-97063791D01*
X184216865Y-97130985D01*
X184196649Y-97197866D01*
X184145275Y-97242382D01*
X184087263Y-97269433D01*
X183900859Y-97399953D01*
X183739953Y-97560859D01*
X183609432Y-97747264D01*
X183513261Y-97953502D01*
X183454364Y-98173310D01*
X183434531Y-98400000D01*
X183454364Y-98626689D01*
X183513261Y-98846497D01*
X183609432Y-99052735D01*
X183739953Y-99239140D01*
X183900859Y-99400046D01*
X183923237Y-99415715D01*
X184087266Y-99530568D01*
X184145275Y-99557618D01*
X184197714Y-99603791D01*
X184216865Y-99670985D01*
X184196649Y-99737866D01*
X184145275Y-99782382D01*
X184087263Y-99809433D01*
X183900859Y-99939953D01*
X183739953Y-100100859D01*
X183609432Y-100287264D01*
X183513261Y-100493502D01*
X183454364Y-100713310D01*
X183434531Y-100939999D01*
X183454364Y-101166689D01*
X183513261Y-101386497D01*
X183609432Y-101592735D01*
X183739953Y-101779140D01*
X183900859Y-101940046D01*
X184042266Y-102039059D01*
X184087266Y-102070568D01*
X184145275Y-102097618D01*
X184197714Y-102143791D01*
X184216865Y-102210985D01*
X184196649Y-102277866D01*
X184145275Y-102322382D01*
X184087263Y-102349433D01*
X183900859Y-102479953D01*
X183739953Y-102640859D01*
X183609432Y-102827264D01*
X183513261Y-103033502D01*
X183454364Y-103253310D01*
X183434531Y-103480000D01*
X183454364Y-103706689D01*
X183513261Y-103926497D01*
X183609432Y-104132735D01*
X183739953Y-104319140D01*
X183900859Y-104480046D01*
X184087263Y-104610566D01*
X184087266Y-104610568D01*
X184145275Y-104637618D01*
X184197714Y-104683791D01*
X184216865Y-104750985D01*
X184196649Y-104817866D01*
X184145275Y-104862382D01*
X184087263Y-104889433D01*
X183900859Y-105019953D01*
X183739953Y-105180859D01*
X183609432Y-105367264D01*
X183513261Y-105573502D01*
X183454364Y-105793310D01*
X183434531Y-106019999D01*
X183454364Y-106246689D01*
X183513261Y-106466497D01*
X183609432Y-106672735D01*
X183739953Y-106859140D01*
X183900858Y-107020045D01*
X183925461Y-107037272D01*
X183969087Y-107091849D01*
X183976281Y-107161347D01*
X183944759Y-107223702D01*
X183884530Y-107259117D01*
X183867594Y-107262138D01*
X183832515Y-107265909D01*
X183697669Y-107316204D01*
X183582454Y-107402454D01*
X183496204Y-107517668D01*
X183494366Y-107522598D01*
X183445909Y-107652517D01*
X183439500Y-107712127D01*
X183439500Y-107715448D01*
X183439500Y-107715449D01*
X183439500Y-109404560D01*
X183439500Y-109404578D01*
X183439501Y-109407872D01*
X183445909Y-109467483D01*
X183496204Y-109602331D01*
X183582454Y-109717546D01*
X183697669Y-109803796D01*
X183832517Y-109854091D01*
X183892127Y-109860500D01*
X185587872Y-109860499D01*
X185647483Y-109854091D01*
X185782331Y-109803796D01*
X185897546Y-109717546D01*
X185951233Y-109645828D01*
X186007166Y-109603957D01*
X186076858Y-109598973D01*
X186138181Y-109632458D01*
X186171666Y-109693781D01*
X186174500Y-109720139D01*
X186174500Y-122325500D01*
X186154815Y-122392539D01*
X186102011Y-122438294D01*
X186050501Y-122449500D01*
X185905439Y-122449500D01*
X185905420Y-122449500D01*
X185902128Y-122449501D01*
X185898848Y-122449853D01*
X185898840Y-122449854D01*
X185842515Y-122455909D01*
X185707669Y-122506204D01*
X185592454Y-122592454D01*
X185506204Y-122707669D01*
X185457189Y-122839083D01*
X185415317Y-122895016D01*
X185349852Y-122919433D01*
X185281580Y-122904581D01*
X185253326Y-122883430D01*
X185131404Y-122761508D01*
X185131401Y-122761505D01*
X184937830Y-122625965D01*
X184723663Y-122526097D01*
X184662501Y-122509709D01*
X184495407Y-122464936D01*
X184259999Y-122444340D01*
X184024592Y-122464936D01*
X183796336Y-122526097D01*
X183582170Y-122625965D01*
X183388598Y-122761505D01*
X183221505Y-122928598D01*
X183085965Y-123122170D01*
X182986097Y-123336336D01*
X182924936Y-123564592D01*
X182904340Y-123800000D01*
X168950499Y-123800000D01*
X168950499Y-122902128D01*
X168944091Y-122842517D01*
X168893796Y-122707669D01*
X168807546Y-122592454D01*
X168692331Y-122506204D01*
X168557483Y-122455909D01*
X168497873Y-122449500D01*
X168494550Y-122449500D01*
X166705439Y-122449500D01*
X166705420Y-122449500D01*
X166702128Y-122449501D01*
X166698848Y-122449853D01*
X166698840Y-122449854D01*
X166642515Y-122455909D01*
X166507669Y-122506204D01*
X166392454Y-122592454D01*
X166306204Y-122707669D01*
X166257189Y-122839083D01*
X166215317Y-122895016D01*
X166149852Y-122919433D01*
X166081580Y-122904581D01*
X166053326Y-122883430D01*
X165931404Y-122761508D01*
X165931401Y-122761505D01*
X165737830Y-122625965D01*
X165523663Y-122526097D01*
X165462501Y-122509709D01*
X165295407Y-122464936D01*
X165059999Y-122444340D01*
X164824592Y-122464936D01*
X164596336Y-122526097D01*
X164382170Y-122625965D01*
X164188598Y-122761505D01*
X164021505Y-122928598D01*
X163891575Y-123114159D01*
X163836998Y-123157784D01*
X163767500Y-123164978D01*
X163705145Y-123133455D01*
X163688425Y-123114159D01*
X163558494Y-122928598D01*
X163391404Y-122761508D01*
X163391401Y-122761505D01*
X163197830Y-122625965D01*
X163197827Y-122625964D01*
X163197825Y-122625962D01*
X163197091Y-122625620D01*
X163196139Y-122624781D01*
X163188943Y-122619743D01*
X163189505Y-122618940D01*
X163144653Y-122579445D01*
X163125500Y-122513240D01*
X163125500Y-118600000D01*
X168424340Y-118600000D01*
X168444936Y-118835407D01*
X168470496Y-118930798D01*
X168506097Y-119063663D01*
X168605965Y-119277830D01*
X168741505Y-119471401D01*
X168908599Y-119638495D01*
X169102170Y-119774035D01*
X169316337Y-119873903D01*
X169544592Y-119935063D01*
X169780000Y-119955659D01*
X170015408Y-119935063D01*
X170243663Y-119873903D01*
X170457830Y-119774035D01*
X170651401Y-119638495D01*
X170818495Y-119471401D01*
X170948732Y-119285403D01*
X171003307Y-119241780D01*
X171072805Y-119234586D01*
X171135160Y-119266109D01*
X171151880Y-119285404D01*
X171281893Y-119471081D01*
X171448918Y-119638106D01*
X171642423Y-119773600D01*
X171856508Y-119873430D01*
X171920000Y-119890442D01*
X171920000Y-118902417D01*
X171938239Y-118930798D01*
X172046900Y-119024952D01*
X172177685Y-119084680D01*
X172284237Y-119100000D01*
X172355763Y-119100000D01*
X172462315Y-119084680D01*
X172593100Y-119024952D01*
X172701761Y-118930798D01*
X172720000Y-118902417D01*
X172720000Y-119890441D01*
X172783491Y-119873430D01*
X172997576Y-119773600D01*
X173191081Y-119638106D01*
X173358109Y-119471078D01*
X173488119Y-119285405D01*
X173542696Y-119241780D01*
X173612194Y-119234586D01*
X173674549Y-119266109D01*
X173691265Y-119285400D01*
X173821505Y-119471401D01*
X173988599Y-119638495D01*
X174182170Y-119774035D01*
X174396337Y-119873903D01*
X174624592Y-119935063D01*
X174860000Y-119955659D01*
X175095408Y-119935063D01*
X175323663Y-119873903D01*
X175537830Y-119774035D01*
X175731401Y-119638495D01*
X175853329Y-119516566D01*
X175914648Y-119483084D01*
X175984340Y-119488068D01*
X176040274Y-119529939D01*
X176057189Y-119560916D01*
X176106204Y-119692331D01*
X176192454Y-119807546D01*
X176307669Y-119893796D01*
X176442517Y-119944091D01*
X176502127Y-119950500D01*
X178297872Y-119950499D01*
X178357483Y-119944091D01*
X178492331Y-119893796D01*
X178607546Y-119807546D01*
X178693796Y-119692331D01*
X178744091Y-119557483D01*
X178750500Y-119497873D01*
X178750499Y-117702128D01*
X178744091Y-117642517D01*
X178693796Y-117507669D01*
X178607546Y-117392454D01*
X178492331Y-117306204D01*
X178357483Y-117255909D01*
X178297873Y-117249500D01*
X178294550Y-117249500D01*
X176505439Y-117249500D01*
X176505420Y-117249500D01*
X176502128Y-117249501D01*
X176498848Y-117249853D01*
X176498840Y-117249854D01*
X176442515Y-117255909D01*
X176307669Y-117306204D01*
X176192454Y-117392454D01*
X176106204Y-117507669D01*
X176057189Y-117639083D01*
X176015317Y-117695016D01*
X175949852Y-117719433D01*
X175881580Y-117704581D01*
X175853326Y-117683430D01*
X175731404Y-117561508D01*
X175731404Y-117561507D01*
X175731401Y-117561505D01*
X175537830Y-117425965D01*
X175323663Y-117326097D01*
X175261930Y-117309556D01*
X175095407Y-117264936D01*
X174860000Y-117244340D01*
X174624592Y-117264936D01*
X174396336Y-117326097D01*
X174182170Y-117425965D01*
X173988598Y-117561505D01*
X173821508Y-117728595D01*
X173691269Y-117914596D01*
X173636692Y-117958220D01*
X173567193Y-117965413D01*
X173504839Y-117933891D01*
X173488119Y-117914595D01*
X173358109Y-117728921D01*
X173191081Y-117561893D01*
X172997576Y-117426399D01*
X172783492Y-117326569D01*
X172720000Y-117309556D01*
X172720000Y-118297582D01*
X172701761Y-118269202D01*
X172593100Y-118175048D01*
X172462315Y-118115320D01*
X172355763Y-118100000D01*
X172284237Y-118100000D01*
X172177685Y-118115320D01*
X172046900Y-118175048D01*
X171938239Y-118269202D01*
X171920000Y-118297582D01*
X171920000Y-117309556D01*
X171856507Y-117326569D01*
X171642421Y-117426400D01*
X171448921Y-117561890D01*
X171281893Y-117728918D01*
X171151880Y-117914596D01*
X171097303Y-117958220D01*
X171027804Y-117965413D01*
X170965450Y-117933891D01*
X170948730Y-117914595D01*
X170818494Y-117728598D01*
X170651404Y-117561508D01*
X170651404Y-117561507D01*
X170651401Y-117561505D01*
X170457830Y-117425965D01*
X170243663Y-117326097D01*
X170181930Y-117309556D01*
X170015407Y-117264936D01*
X169780000Y-117244340D01*
X169544592Y-117264936D01*
X169316336Y-117326097D01*
X169102170Y-117425965D01*
X168908598Y-117561505D01*
X168741505Y-117728598D01*
X168605965Y-117922170D01*
X168506097Y-118136336D01*
X168444936Y-118364592D01*
X168424340Y-118600000D01*
X163125500Y-118600000D01*
X163125500Y-108560000D01*
X168194531Y-108560000D01*
X168214364Y-108786689D01*
X168273261Y-109006497D01*
X168369432Y-109212735D01*
X168499953Y-109399140D01*
X168660859Y-109560046D01*
X168847264Y-109690567D01*
X168847265Y-109690567D01*
X168847266Y-109690568D01*
X169053504Y-109786739D01*
X169273308Y-109845635D01*
X169424436Y-109858856D01*
X169499999Y-109865468D01*
X169499999Y-109865467D01*
X169500000Y-109865468D01*
X169726692Y-109845635D01*
X169946496Y-109786739D01*
X170152734Y-109690568D01*
X170339139Y-109560047D01*
X170500047Y-109399139D01*
X170630568Y-109212734D01*
X170726739Y-109006496D01*
X170785635Y-108786692D01*
X170805468Y-108560000D01*
X170785635Y-108333308D01*
X170726739Y-108113504D01*
X170630568Y-107907266D01*
X170618563Y-107890120D01*
X170500046Y-107720859D01*
X170339140Y-107559953D01*
X170152733Y-107429431D01*
X170111727Y-107410310D01*
X170094724Y-107402381D01*
X170042285Y-107356210D01*
X170023133Y-107289017D01*
X170043348Y-107222135D01*
X170094725Y-107177618D01*
X170152734Y-107150568D01*
X170339139Y-107020047D01*
X170500047Y-106859139D01*
X170630568Y-106672734D01*
X170726739Y-106466496D01*
X170785635Y-106246692D01*
X170805468Y-106020000D01*
X170785635Y-105793308D01*
X170726739Y-105573504D01*
X170630568Y-105367266D01*
X170569465Y-105280000D01*
X170500046Y-105180859D01*
X170339140Y-105019953D01*
X170152733Y-104889431D01*
X170094725Y-104862382D01*
X170042285Y-104816210D01*
X170023133Y-104749017D01*
X170043348Y-104682135D01*
X170094725Y-104637618D01*
X170152734Y-104610568D01*
X170339139Y-104480047D01*
X170500047Y-104319139D01*
X170630568Y-104132734D01*
X170726739Y-103926496D01*
X170785635Y-103706692D01*
X170805468Y-103480000D01*
X170785635Y-103253308D01*
X170726739Y-103033504D01*
X170630568Y-102827266D01*
X170530668Y-102684592D01*
X170500046Y-102640859D01*
X170339140Y-102479953D01*
X170152733Y-102349431D01*
X170094725Y-102322382D01*
X170042285Y-102276210D01*
X170023133Y-102209017D01*
X170043348Y-102142135D01*
X170094725Y-102097618D01*
X170152734Y-102070568D01*
X170339139Y-101940047D01*
X170500047Y-101779139D01*
X170630568Y-101592734D01*
X170726739Y-101386496D01*
X170785635Y-101166692D01*
X170805468Y-100940000D01*
X170785635Y-100713308D01*
X170726739Y-100493504D01*
X170630568Y-100287266D01*
X170530668Y-100144592D01*
X170500046Y-100100859D01*
X170339140Y-99939953D01*
X170152736Y-99809433D01*
X170094723Y-99782381D01*
X170042284Y-99736208D01*
X170023133Y-99669014D01*
X170043349Y-99602133D01*
X170094721Y-99557619D01*
X170152734Y-99530568D01*
X170339139Y-99400047D01*
X170500047Y-99239139D01*
X170630568Y-99052734D01*
X170726739Y-98846496D01*
X170785635Y-98626692D01*
X170805468Y-98400000D01*
X170785635Y-98173308D01*
X170726739Y-97953504D01*
X170630568Y-97747266D01*
X170609490Y-97717162D01*
X170500046Y-97560859D01*
X170339140Y-97399953D01*
X170152736Y-97269433D01*
X170094723Y-97242381D01*
X170042284Y-97196208D01*
X170023133Y-97129014D01*
X170043349Y-97062133D01*
X170094721Y-97017619D01*
X170152734Y-96990568D01*
X170339139Y-96860047D01*
X170500047Y-96699139D01*
X170630568Y-96512734D01*
X170726739Y-96306496D01*
X170785635Y-96086692D01*
X170805468Y-95860000D01*
X170802590Y-95827110D01*
X170785635Y-95633310D01*
X170785635Y-95633308D01*
X170726739Y-95413504D01*
X170630568Y-95207266D01*
X170500047Y-95020861D01*
X170500046Y-95020859D01*
X170339140Y-94859953D01*
X170152733Y-94729431D01*
X170094725Y-94702382D01*
X170042285Y-94656210D01*
X170023133Y-94589017D01*
X170043348Y-94522135D01*
X170094725Y-94477618D01*
X170152734Y-94450568D01*
X170339139Y-94320047D01*
X170500047Y-94159139D01*
X170630568Y-93972734D01*
X170726739Y-93766496D01*
X170785635Y-93546692D01*
X170805468Y-93320000D01*
X170785635Y-93093308D01*
X170726739Y-92873504D01*
X170630568Y-92667266D01*
X170601430Y-92625651D01*
X170500046Y-92480859D01*
X170339140Y-92319953D01*
X170152733Y-92189431D01*
X170094725Y-92162382D01*
X170042285Y-92116210D01*
X170023133Y-92049017D01*
X170043348Y-91982135D01*
X170094725Y-91937618D01*
X170152734Y-91910568D01*
X170339139Y-91780047D01*
X170500047Y-91619139D01*
X170630568Y-91432734D01*
X170726739Y-91226496D01*
X170785635Y-91006692D01*
X170805468Y-90780000D01*
X170785635Y-90553308D01*
X170726739Y-90333504D01*
X170630568Y-90127266D01*
X170611827Y-90100500D01*
X170500046Y-89940859D01*
X170339140Y-89779953D01*
X170152733Y-89649431D01*
X170094725Y-89622382D01*
X170042285Y-89576210D01*
X170023133Y-89509017D01*
X170043348Y-89442135D01*
X170094725Y-89397618D01*
X170152734Y-89370568D01*
X170339139Y-89240047D01*
X170500047Y-89079139D01*
X170630568Y-88892734D01*
X170726739Y-88686496D01*
X170785635Y-88466692D01*
X170805468Y-88240000D01*
X170785635Y-88013308D01*
X170726739Y-87793504D01*
X170630568Y-87587266D01*
X170500047Y-87400861D01*
X170500046Y-87400859D01*
X170339140Y-87239953D01*
X170152733Y-87109431D01*
X170094725Y-87082382D01*
X170042285Y-87036210D01*
X170023133Y-86969017D01*
X170043348Y-86902135D01*
X170094725Y-86857618D01*
X170152734Y-86830568D01*
X170339139Y-86700047D01*
X170500047Y-86539139D01*
X170630568Y-86352734D01*
X170726739Y-86146496D01*
X170785635Y-85926692D01*
X170805468Y-85700000D01*
X170785635Y-85473308D01*
X170726739Y-85253504D01*
X170630568Y-85047266D01*
X170582649Y-84978829D01*
X170500046Y-84860859D01*
X170339140Y-84699953D01*
X170152733Y-84569431D01*
X170094725Y-84542382D01*
X170042285Y-84496210D01*
X170023133Y-84429017D01*
X170043348Y-84362135D01*
X170094725Y-84317618D01*
X170152734Y-84290568D01*
X170339139Y-84160047D01*
X170500047Y-83999139D01*
X170630568Y-83812734D01*
X170726739Y-83606496D01*
X170785635Y-83386692D01*
X170805468Y-83160000D01*
X170785635Y-82933308D01*
X170726739Y-82713504D01*
X170630568Y-82507266D01*
X170620063Y-82492262D01*
X170500046Y-82320859D01*
X170339140Y-82159953D01*
X170152733Y-82029431D01*
X170094725Y-82002382D01*
X170042285Y-81956210D01*
X170023133Y-81889017D01*
X170043348Y-81822135D01*
X170094725Y-81777618D01*
X170152734Y-81750568D01*
X170339139Y-81620047D01*
X170500047Y-81459139D01*
X170630568Y-81272734D01*
X170726739Y-81066496D01*
X170785635Y-80846692D01*
X170805468Y-80620000D01*
X170785635Y-80393308D01*
X170726739Y-80173504D01*
X170630568Y-79967266D01*
X170542561Y-79841577D01*
X170500046Y-79780859D01*
X170339140Y-79619953D01*
X170152733Y-79489431D01*
X170094725Y-79462382D01*
X170042285Y-79416210D01*
X170023133Y-79349017D01*
X170043348Y-79282135D01*
X170094725Y-79237618D01*
X170152734Y-79210568D01*
X170339139Y-79080047D01*
X170500047Y-78919139D01*
X170630568Y-78732734D01*
X170726739Y-78526496D01*
X170785635Y-78306692D01*
X170805468Y-78080000D01*
X170785635Y-77853308D01*
X170726739Y-77633504D01*
X170630568Y-77427266D01*
X170522473Y-77272888D01*
X170500046Y-77240859D01*
X170339140Y-77079953D01*
X170152733Y-76949431D01*
X170094725Y-76922382D01*
X170042285Y-76876210D01*
X170023133Y-76809017D01*
X170043348Y-76742135D01*
X170094725Y-76697618D01*
X170152734Y-76670568D01*
X170339139Y-76540047D01*
X170500047Y-76379139D01*
X170630568Y-76192734D01*
X170726739Y-75986496D01*
X170785635Y-75766692D01*
X170805468Y-75540000D01*
X170785635Y-75313308D01*
X170726739Y-75093504D01*
X170630568Y-74887266D01*
X170615452Y-74865677D01*
X170500046Y-74700859D01*
X170339140Y-74539953D01*
X170152733Y-74409431D01*
X170094725Y-74382382D01*
X170042285Y-74336210D01*
X170023133Y-74269017D01*
X170043348Y-74202135D01*
X170094725Y-74157618D01*
X170108731Y-74151087D01*
X170152734Y-74130568D01*
X170339139Y-74000047D01*
X170500047Y-73839139D01*
X170630568Y-73652734D01*
X170726739Y-73446496D01*
X170785635Y-73226692D01*
X170805468Y-73000000D01*
X170802649Y-72967784D01*
X170790342Y-72827110D01*
X170785635Y-72773308D01*
X170726739Y-72553504D01*
X170630568Y-72347266D01*
X170624680Y-72338856D01*
X170500046Y-72160859D01*
X170339140Y-71999953D01*
X170152735Y-71869432D01*
X169946497Y-71773261D01*
X169726689Y-71714364D01*
X169499999Y-71694531D01*
X169273310Y-71714364D01*
X169053502Y-71773261D01*
X168847264Y-71869432D01*
X168660859Y-71999953D01*
X168499953Y-72160859D01*
X168369432Y-72347264D01*
X168273261Y-72553502D01*
X168214364Y-72773310D01*
X168194531Y-72999999D01*
X168214364Y-73226689D01*
X168273261Y-73446497D01*
X168369432Y-73652735D01*
X168499953Y-73839140D01*
X168660859Y-74000046D01*
X168748116Y-74061143D01*
X168847266Y-74130568D01*
X168905275Y-74157618D01*
X168957714Y-74203791D01*
X168976865Y-74270985D01*
X168956649Y-74337866D01*
X168905275Y-74382382D01*
X168847263Y-74409433D01*
X168660859Y-74539953D01*
X168499953Y-74700859D01*
X168369432Y-74887264D01*
X168273261Y-75093502D01*
X168214364Y-75313310D01*
X168194531Y-75540000D01*
X168214364Y-75766689D01*
X168273261Y-75986497D01*
X168369432Y-76192735D01*
X168499953Y-76379140D01*
X168660859Y-76540046D01*
X168847263Y-76670566D01*
X168847266Y-76670568D01*
X168905275Y-76697618D01*
X168957714Y-76743791D01*
X168976865Y-76810985D01*
X168956649Y-76877866D01*
X168905275Y-76922382D01*
X168847263Y-76949433D01*
X168660859Y-77079953D01*
X168499953Y-77240859D01*
X168369432Y-77427264D01*
X168273261Y-77633502D01*
X168214364Y-77853310D01*
X168194531Y-78080000D01*
X168214364Y-78306689D01*
X168273261Y-78526497D01*
X168369432Y-78732735D01*
X168499953Y-78919140D01*
X168660859Y-79080046D01*
X168743464Y-79137886D01*
X168847266Y-79210568D01*
X168905275Y-79237618D01*
X168957714Y-79283791D01*
X168976865Y-79350985D01*
X168956649Y-79417866D01*
X168905275Y-79462382D01*
X168847263Y-79489433D01*
X168660859Y-79619953D01*
X168499953Y-79780859D01*
X168369432Y-79967264D01*
X168273261Y-80173502D01*
X168214364Y-80393310D01*
X168194531Y-80619999D01*
X168214364Y-80846689D01*
X168273261Y-81066497D01*
X168369432Y-81272735D01*
X168499953Y-81459140D01*
X168660859Y-81620046D01*
X168847263Y-81750566D01*
X168847266Y-81750568D01*
X168905275Y-81777618D01*
X168957714Y-81823791D01*
X168976865Y-81890985D01*
X168956649Y-81957866D01*
X168905275Y-82002382D01*
X168847263Y-82029433D01*
X168660859Y-82159953D01*
X168499953Y-82320859D01*
X168369432Y-82507264D01*
X168273261Y-82713502D01*
X168214364Y-82933310D01*
X168194531Y-83160000D01*
X168214364Y-83386689D01*
X168273261Y-83606497D01*
X168369432Y-83812735D01*
X168499953Y-83999140D01*
X168660859Y-84160046D01*
X168847263Y-84290566D01*
X168847266Y-84290568D01*
X168905275Y-84317618D01*
X168957714Y-84363791D01*
X168976865Y-84430985D01*
X168956649Y-84497866D01*
X168905275Y-84542382D01*
X168847263Y-84569433D01*
X168660859Y-84699953D01*
X168499953Y-84860859D01*
X168369432Y-85047264D01*
X168273261Y-85253502D01*
X168214364Y-85473310D01*
X168194531Y-85699999D01*
X168214364Y-85926689D01*
X168273261Y-86146497D01*
X168369432Y-86352735D01*
X168499953Y-86539140D01*
X168660859Y-86700046D01*
X168847263Y-86830566D01*
X168847266Y-86830568D01*
X168905275Y-86857618D01*
X168957714Y-86903791D01*
X168976865Y-86970985D01*
X168956649Y-87037866D01*
X168905275Y-87082382D01*
X168847263Y-87109433D01*
X168660859Y-87239953D01*
X168499953Y-87400859D01*
X168369432Y-87587264D01*
X168273261Y-87793502D01*
X168214364Y-88013310D01*
X168194531Y-88239999D01*
X168214364Y-88466689D01*
X168273261Y-88686497D01*
X168369432Y-88892735D01*
X168499953Y-89079140D01*
X168660859Y-89240046D01*
X168770201Y-89316607D01*
X168847266Y-89370568D01*
X168905275Y-89397618D01*
X168957714Y-89443791D01*
X168976865Y-89510985D01*
X168956649Y-89577866D01*
X168905275Y-89622382D01*
X168847263Y-89649433D01*
X168660859Y-89779953D01*
X168499953Y-89940859D01*
X168369432Y-90127264D01*
X168273261Y-90333502D01*
X168214364Y-90553310D01*
X168194531Y-90780000D01*
X168214364Y-91006689D01*
X168273261Y-91226497D01*
X168369432Y-91432735D01*
X168499953Y-91619140D01*
X168660859Y-91780046D01*
X168681782Y-91794696D01*
X168847266Y-91910568D01*
X168905275Y-91937618D01*
X168957714Y-91983791D01*
X168976865Y-92050985D01*
X168956649Y-92117866D01*
X168905275Y-92162382D01*
X168847263Y-92189433D01*
X168660859Y-92319953D01*
X168499953Y-92480859D01*
X168369432Y-92667264D01*
X168273261Y-92873502D01*
X168214364Y-93093310D01*
X168194531Y-93320000D01*
X168214364Y-93546689D01*
X168273261Y-93766497D01*
X168369432Y-93972735D01*
X168499953Y-94159140D01*
X168660859Y-94320046D01*
X168847263Y-94450566D01*
X168847266Y-94450568D01*
X168905275Y-94477618D01*
X168957714Y-94523791D01*
X168976865Y-94590985D01*
X168956649Y-94657866D01*
X168905275Y-94702382D01*
X168847263Y-94729433D01*
X168660859Y-94859953D01*
X168499953Y-95020859D01*
X168369432Y-95207264D01*
X168273261Y-95413502D01*
X168214364Y-95633310D01*
X168194531Y-95859999D01*
X168214364Y-96086689D01*
X168273261Y-96306497D01*
X168369432Y-96512735D01*
X168499953Y-96699140D01*
X168660859Y-96860046D01*
X168672626Y-96868285D01*
X168847266Y-96990568D01*
X168905275Y-97017618D01*
X168957714Y-97063791D01*
X168976865Y-97130985D01*
X168956649Y-97197866D01*
X168905275Y-97242382D01*
X168847263Y-97269433D01*
X168660859Y-97399953D01*
X168499953Y-97560859D01*
X168369432Y-97747264D01*
X168273261Y-97953502D01*
X168214364Y-98173310D01*
X168194531Y-98400000D01*
X168214364Y-98626689D01*
X168273261Y-98846497D01*
X168369432Y-99052735D01*
X168499953Y-99239140D01*
X168660859Y-99400046D01*
X168683237Y-99415715D01*
X168847266Y-99530568D01*
X168905275Y-99557618D01*
X168957714Y-99603791D01*
X168976865Y-99670985D01*
X168956649Y-99737866D01*
X168905275Y-99782382D01*
X168847263Y-99809433D01*
X168660859Y-99939953D01*
X168499953Y-100100859D01*
X168369432Y-100287264D01*
X168273261Y-100493502D01*
X168214364Y-100713310D01*
X168194531Y-100940000D01*
X168214364Y-101166689D01*
X168273261Y-101386497D01*
X168369432Y-101592735D01*
X168499953Y-101779140D01*
X168660859Y-101940046D01*
X168802266Y-102039059D01*
X168847266Y-102070568D01*
X168905275Y-102097618D01*
X168957714Y-102143791D01*
X168976865Y-102210985D01*
X168956649Y-102277866D01*
X168905275Y-102322382D01*
X168847263Y-102349433D01*
X168660859Y-102479953D01*
X168499953Y-102640859D01*
X168369432Y-102827264D01*
X168273261Y-103033502D01*
X168214364Y-103253310D01*
X168194531Y-103479999D01*
X168214364Y-103706689D01*
X168273261Y-103926497D01*
X168369432Y-104132735D01*
X168499953Y-104319140D01*
X168660859Y-104480046D01*
X168847263Y-104610566D01*
X168847266Y-104610568D01*
X168905275Y-104637618D01*
X168957714Y-104683791D01*
X168976865Y-104750985D01*
X168956649Y-104817866D01*
X168905275Y-104862382D01*
X168847263Y-104889433D01*
X168660859Y-105019953D01*
X168499953Y-105180859D01*
X168369432Y-105367264D01*
X168273261Y-105573502D01*
X168214364Y-105793310D01*
X168194531Y-106019999D01*
X168214364Y-106246689D01*
X168273261Y-106466497D01*
X168369432Y-106672735D01*
X168499953Y-106859140D01*
X168660859Y-107020046D01*
X168797847Y-107115965D01*
X168847266Y-107150568D01*
X168905275Y-107177618D01*
X168957714Y-107223791D01*
X168976865Y-107290985D01*
X168956649Y-107357866D01*
X168905275Y-107402381D01*
X168884576Y-107412033D01*
X168847263Y-107429433D01*
X168660859Y-107559953D01*
X168499953Y-107720859D01*
X168369432Y-107907264D01*
X168273261Y-108113502D01*
X168214364Y-108333310D01*
X168194531Y-108560000D01*
X163125500Y-108560000D01*
X163125500Y-74198687D01*
X163145185Y-74131648D01*
X163157350Y-74115714D01*
X163232533Y-74032216D01*
X163251107Y-74000046D01*
X163327179Y-73868284D01*
X163327179Y-73868283D01*
X163385674Y-73688256D01*
X163405460Y-73500000D01*
X163385674Y-73311744D01*
X163327179Y-73131716D01*
X163327179Y-73131715D01*
X163232533Y-72967783D01*
X163105870Y-72827110D01*
X162952730Y-72715848D01*
X162779802Y-72638855D01*
X162594648Y-72599500D01*
X162594646Y-72599500D01*
X162405354Y-72599500D01*
X162405352Y-72599500D01*
X162220197Y-72638855D01*
X162047269Y-72715848D01*
X161894129Y-72827110D01*
X161767466Y-72967783D01*
X161672820Y-73131715D01*
X161614326Y-73311742D01*
X161594540Y-73500000D01*
X161614326Y-73688257D01*
X161672820Y-73868284D01*
X161767464Y-74032213D01*
X161767467Y-74032216D01*
X161836241Y-74108597D01*
X161842650Y-74115714D01*
X161872880Y-74178706D01*
X161874500Y-74198687D01*
X161874500Y-122538777D01*
X161854815Y-122605816D01*
X161821624Y-122640352D01*
X161648595Y-122761508D01*
X161481505Y-122928598D01*
X161351575Y-123114159D01*
X161296998Y-123157784D01*
X161227500Y-123164978D01*
X161165145Y-123133455D01*
X161148425Y-123114159D01*
X161018494Y-122928598D01*
X160851404Y-122761508D01*
X160851401Y-122761505D01*
X160657830Y-122625965D01*
X160443663Y-122526097D01*
X160382501Y-122509709D01*
X160215407Y-122464936D01*
X159980000Y-122444340D01*
X159744592Y-122464936D01*
X159516336Y-122526097D01*
X159302170Y-122625965D01*
X159108598Y-122761505D01*
X158941505Y-122928598D01*
X158805965Y-123122170D01*
X158706097Y-123336336D01*
X158644936Y-123564592D01*
X158624340Y-123800000D01*
X154626362Y-123800000D01*
X154724214Y-123545087D01*
X154824602Y-123170433D01*
X154885278Y-122787338D01*
X154905578Y-122400000D01*
X154885278Y-122012662D01*
X154824602Y-121629567D01*
X154724214Y-121254913D01*
X154585214Y-120892806D01*
X154409125Y-120547211D01*
X154197876Y-120221916D01*
X153953781Y-119920484D01*
X153679516Y-119646219D01*
X153669976Y-119638494D01*
X153519412Y-119516569D01*
X153378084Y-119402124D01*
X153052789Y-119190875D01*
X153049901Y-119189403D01*
X153049895Y-119189400D01*
X152710086Y-119016259D01*
X152710077Y-119016255D01*
X152707194Y-119014786D01*
X152704162Y-119013622D01*
X152348110Y-118876946D01*
X152348102Y-118876943D01*
X152345087Y-118875786D01*
X152341962Y-118874948D01*
X152341957Y-118874947D01*
X151973566Y-118776237D01*
X151973557Y-118776235D01*
X151970433Y-118775398D01*
X151967237Y-118774891D01*
X151967224Y-118774889D01*
X151590543Y-118715229D01*
X151590531Y-118715227D01*
X151587338Y-118714722D01*
X151584103Y-118714552D01*
X151584099Y-118714552D01*
X151203244Y-118694592D01*
X151200000Y-118694422D01*
X151196756Y-118694592D01*
X150815900Y-118714552D01*
X150815894Y-118714552D01*
X150812662Y-118714722D01*
X150809470Y-118715227D01*
X150809456Y-118715229D01*
X150432775Y-118774889D01*
X150432758Y-118774892D01*
X150429567Y-118775398D01*
X150426446Y-118776234D01*
X150426433Y-118776237D01*
X150058042Y-118874947D01*
X150058031Y-118874950D01*
X150054913Y-118875786D01*
X150051902Y-118876941D01*
X150051889Y-118876946D01*
X149695837Y-119013622D01*
X149695828Y-119013625D01*
X149692806Y-119014786D01*
X149689929Y-119016251D01*
X149689913Y-119016259D01*
X149350104Y-119189400D01*
X149350090Y-119189408D01*
X149347211Y-119190875D01*
X149344491Y-119192641D01*
X149344483Y-119192646D01*
X149024644Y-119400352D01*
X149024638Y-119400355D01*
X149021916Y-119402124D01*
X149019396Y-119404164D01*
X149019390Y-119404169D01*
X148723002Y-119644179D01*
X148722991Y-119644188D01*
X148720484Y-119646219D01*
X148718199Y-119648503D01*
X148718189Y-119648513D01*
X148448513Y-119918189D01*
X148448503Y-119918199D01*
X148446219Y-119920484D01*
X148444188Y-119922991D01*
X148444179Y-119923002D01*
X148204169Y-120219390D01*
X148204164Y-120219396D01*
X148202124Y-120221916D01*
X148200355Y-120224638D01*
X148200352Y-120224644D01*
X147992646Y-120544483D01*
X147992641Y-120544491D01*
X147990875Y-120547211D01*
X147989408Y-120550090D01*
X147989400Y-120550104D01*
X147816259Y-120889913D01*
X147816251Y-120889929D01*
X147814786Y-120892806D01*
X147813625Y-120895828D01*
X147813622Y-120895837D01*
X147676946Y-121251889D01*
X147676941Y-121251902D01*
X147675786Y-121254913D01*
X147674950Y-121258031D01*
X147674947Y-121258042D01*
X147576237Y-121626433D01*
X147576234Y-121626446D01*
X147575398Y-121629567D01*
X147574892Y-121632758D01*
X147574889Y-121632775D01*
X147515229Y-122009456D01*
X147515227Y-122009470D01*
X147514722Y-122012662D01*
X147494422Y-122400000D01*
X146400500Y-122400000D01*
X146400500Y-102919999D01*
X151644340Y-102919999D01*
X151664936Y-103155407D01*
X151691169Y-103253308D01*
X151726097Y-103383663D01*
X151825965Y-103597830D01*
X151961505Y-103791401D01*
X152128599Y-103958495D01*
X152314596Y-104088732D01*
X152358219Y-104143307D01*
X152365412Y-104212806D01*
X152333890Y-104275160D01*
X152314595Y-104291880D01*
X152128919Y-104421892D01*
X151961890Y-104588921D01*
X151826400Y-104782421D01*
X151726569Y-104996509D01*
X151709557Y-105060000D01*
X152698103Y-105060000D01*
X152618239Y-105129202D01*
X152540507Y-105250156D01*
X152500000Y-105388111D01*
X152500000Y-105531889D01*
X152540507Y-105669844D01*
X152618239Y-105790798D01*
X152698103Y-105860000D01*
X151709557Y-105860000D01*
X151726569Y-105923491D01*
X151826399Y-106137576D01*
X151961893Y-106331081D01*
X152083946Y-106453134D01*
X152117431Y-106514457D01*
X152112447Y-106584149D01*
X152070575Y-106640082D01*
X152039599Y-106656997D01*
X151907669Y-106706204D01*
X151792454Y-106792454D01*
X151706204Y-106907668D01*
X151655909Y-107042516D01*
X151655772Y-107043795D01*
X151649500Y-107102127D01*
X151649500Y-107105448D01*
X151649500Y-107105449D01*
X151649500Y-108894560D01*
X151649500Y-108894578D01*
X151649501Y-108897872D01*
X151655909Y-108957483D01*
X151706204Y-109092331D01*
X151792454Y-109207546D01*
X151907669Y-109293796D01*
X152042517Y-109344091D01*
X152102127Y-109350500D01*
X153897872Y-109350499D01*
X153957483Y-109344091D01*
X154092331Y-109293796D01*
X154207546Y-109207546D01*
X154293796Y-109092331D01*
X154344091Y-108957483D01*
X154350500Y-108897873D01*
X154350500Y-108289999D01*
X157394340Y-108289999D01*
X157414936Y-108525407D01*
X157441298Y-108623791D01*
X157476097Y-108753663D01*
X157575965Y-108967830D01*
X157711505Y-109161401D01*
X157878599Y-109328495D01*
X158072170Y-109464035D01*
X158286337Y-109563903D01*
X158514592Y-109625063D01*
X158749999Y-109645659D01*
X158749999Y-109645658D01*
X158750000Y-109645659D01*
X158985408Y-109625063D01*
X159213663Y-109563903D01*
X159427830Y-109464035D01*
X159621401Y-109328495D01*
X159788495Y-109161401D01*
X159924035Y-108967830D01*
X160023903Y-108753663D01*
X160085063Y-108525408D01*
X160105659Y-108290000D01*
X160085063Y-108054592D01*
X160023903Y-107826337D01*
X159924035Y-107612171D01*
X159788495Y-107418599D01*
X159666569Y-107296673D01*
X159633084Y-107235350D01*
X159638068Y-107165658D01*
X159679940Y-107109725D01*
X159710915Y-107092810D01*
X159842331Y-107043796D01*
X159957546Y-106957546D01*
X160043796Y-106842331D01*
X160094091Y-106707483D01*
X160100500Y-106647873D01*
X160100499Y-104852128D01*
X160094091Y-104792517D01*
X160043796Y-104657669D01*
X159957546Y-104542454D01*
X159842331Y-104456204D01*
X159707483Y-104405909D01*
X159647873Y-104399500D01*
X159644550Y-104399500D01*
X157855439Y-104399500D01*
X157855420Y-104399500D01*
X157852128Y-104399501D01*
X157848848Y-104399853D01*
X157848840Y-104399854D01*
X157792515Y-104405909D01*
X157657669Y-104456204D01*
X157542454Y-104542454D01*
X157456204Y-104657668D01*
X157405909Y-104792516D01*
X157403184Y-104817866D01*
X157399500Y-104852127D01*
X157399500Y-104855448D01*
X157399500Y-104855449D01*
X157399500Y-106644560D01*
X157399500Y-106644578D01*
X157399501Y-106647872D01*
X157399853Y-106651152D01*
X157399854Y-106651159D01*
X157405909Y-106707483D01*
X157456204Y-106842331D01*
X157542454Y-106957546D01*
X157657669Y-107043796D01*
X157769907Y-107085658D01*
X157789082Y-107092810D01*
X157845016Y-107134681D01*
X157869433Y-107200146D01*
X157854581Y-107268419D01*
X157833431Y-107296673D01*
X157711503Y-107418601D01*
X157575965Y-107612170D01*
X157476097Y-107826336D01*
X157414936Y-108054592D01*
X157394340Y-108289999D01*
X154350500Y-108289999D01*
X154350499Y-107102128D01*
X154344091Y-107042517D01*
X154293796Y-106907669D01*
X154207546Y-106792454D01*
X154092331Y-106706204D01*
X153960399Y-106656996D01*
X153904467Y-106615125D01*
X153880050Y-106549661D01*
X153894902Y-106481388D01*
X153916053Y-106453133D01*
X154038109Y-106331077D01*
X154173600Y-106137576D01*
X154273430Y-105923491D01*
X154290443Y-105860000D01*
X153301897Y-105860000D01*
X153381761Y-105790798D01*
X153459493Y-105669844D01*
X153500000Y-105531889D01*
X153500000Y-105388111D01*
X153459493Y-105250156D01*
X153381761Y-105129202D01*
X153301897Y-105060000D01*
X154290442Y-105060000D01*
X154273430Y-104996509D01*
X154173599Y-104782421D01*
X154038109Y-104588921D01*
X153871081Y-104421893D01*
X153685404Y-104291880D01*
X153641780Y-104237303D01*
X153634587Y-104167804D01*
X153666109Y-104105450D01*
X153685399Y-104088734D01*
X153871401Y-103958495D01*
X154038495Y-103791401D01*
X154174035Y-103597830D01*
X154273903Y-103383663D01*
X154335063Y-103155408D01*
X154355659Y-102920000D01*
X154347545Y-102827264D01*
X154335063Y-102684592D01*
X154323345Y-102640859D01*
X154273903Y-102456337D01*
X154174035Y-102242171D01*
X154038495Y-102048599D01*
X153871401Y-101881505D01*
X153685839Y-101751573D01*
X153642216Y-101696998D01*
X153635022Y-101627500D01*
X153666545Y-101565145D01*
X153685837Y-101548428D01*
X153871401Y-101418495D01*
X154038495Y-101251401D01*
X154174035Y-101057830D01*
X154273903Y-100843663D01*
X154335063Y-100615408D01*
X154355659Y-100380000D01*
X154347545Y-100287264D01*
X154335063Y-100144592D01*
X154323345Y-100100859D01*
X154273903Y-99916337D01*
X154174035Y-99702171D01*
X154038495Y-99508599D01*
X153871401Y-99341505D01*
X153677830Y-99205965D01*
X153463663Y-99106097D01*
X153402502Y-99089709D01*
X153235407Y-99044936D01*
X153000000Y-99024340D01*
X152764592Y-99044936D01*
X152536336Y-99106097D01*
X152322170Y-99205965D01*
X152128598Y-99341505D01*
X151961505Y-99508598D01*
X151825965Y-99702170D01*
X151726097Y-99916336D01*
X151664936Y-100144592D01*
X151644340Y-100380000D01*
X151664936Y-100615407D01*
X151691169Y-100713308D01*
X151726097Y-100843663D01*
X151825965Y-101057830D01*
X151961505Y-101251401D01*
X152128599Y-101418495D01*
X152314160Y-101548426D01*
X152357783Y-101603002D01*
X152364976Y-101672501D01*
X152333454Y-101734855D01*
X152314159Y-101751575D01*
X152128595Y-101881508D01*
X151961505Y-102048598D01*
X151825965Y-102242170D01*
X151726097Y-102456336D01*
X151664936Y-102684592D01*
X151644340Y-102919999D01*
X146400500Y-102919999D01*
X146400500Y-94405302D01*
X151460381Y-94405302D01*
X151595396Y-94478369D01*
X151830506Y-94559083D01*
X152075707Y-94600000D01*
X152324293Y-94600000D01*
X152569493Y-94559083D01*
X152804608Y-94478367D01*
X152939617Y-94405304D01*
X152939617Y-94405302D01*
X157960381Y-94405302D01*
X158095396Y-94478369D01*
X158330506Y-94559083D01*
X158575707Y-94600000D01*
X158824293Y-94600000D01*
X159069493Y-94559083D01*
X159304608Y-94478367D01*
X159439617Y-94405304D01*
X159439617Y-94405302D01*
X158700000Y-93665685D01*
X157960381Y-94405302D01*
X152939617Y-94405302D01*
X152200000Y-93665685D01*
X151460381Y-94405302D01*
X146400500Y-94405302D01*
X146400500Y-93099999D01*
X150694858Y-93099999D01*
X150715386Y-93347732D01*
X150776413Y-93588721D01*
X150876268Y-93816369D01*
X150892737Y-93841577D01*
X151596429Y-93137886D01*
X151646123Y-93137886D01*
X151676884Y-93285915D01*
X151746442Y-93420156D01*
X151849638Y-93530652D01*
X151978819Y-93609209D01*
X152124404Y-93650000D01*
X152237622Y-93650000D01*
X152349783Y-93634584D01*
X152488458Y-93574349D01*
X152605739Y-93478934D01*
X152692928Y-93355415D01*
X152743559Y-93212953D01*
X152751285Y-93100001D01*
X152765685Y-93100001D01*
X153507261Y-93841577D01*
X153523730Y-93816369D01*
X153623586Y-93588721D01*
X153684613Y-93347732D01*
X153705141Y-93099999D01*
X157194858Y-93099999D01*
X157215386Y-93347732D01*
X157276413Y-93588721D01*
X157376268Y-93816369D01*
X157392737Y-93841577D01*
X158096429Y-93137886D01*
X158146123Y-93137886D01*
X158176884Y-93285915D01*
X158246442Y-93420156D01*
X158349638Y-93530652D01*
X158478819Y-93609209D01*
X158624404Y-93650000D01*
X158737622Y-93650000D01*
X158849783Y-93634584D01*
X158988458Y-93574349D01*
X159105739Y-93478934D01*
X159192928Y-93355415D01*
X159243559Y-93212953D01*
X159251286Y-93099999D01*
X159265684Y-93099999D01*
X160007261Y-93841577D01*
X160023730Y-93816369D01*
X160123586Y-93588721D01*
X160184613Y-93347732D01*
X160205141Y-93099999D01*
X160184613Y-92852267D01*
X160123586Y-92611278D01*
X160023732Y-92383631D01*
X160007261Y-92358422D01*
X159265684Y-93099998D01*
X159265684Y-93099999D01*
X159251286Y-93099999D01*
X159253877Y-93062114D01*
X159223116Y-92914085D01*
X159153558Y-92779844D01*
X159050362Y-92669348D01*
X158921181Y-92590791D01*
X158775596Y-92550000D01*
X158662378Y-92550000D01*
X158550217Y-92565416D01*
X158411542Y-92625651D01*
X158294261Y-92721066D01*
X158207072Y-92844585D01*
X158156441Y-92987047D01*
X158146123Y-93137886D01*
X158096429Y-93137886D01*
X158134315Y-93100000D01*
X157392736Y-92358421D01*
X157392736Y-92358422D01*
X157376268Y-92383629D01*
X157276413Y-92611278D01*
X157215386Y-92852267D01*
X157194858Y-93099999D01*
X153705141Y-93099999D01*
X153684613Y-92852267D01*
X153623586Y-92611278D01*
X153523732Y-92383631D01*
X153507261Y-92358422D01*
X152765685Y-93099999D01*
X152765685Y-93100001D01*
X152751285Y-93100001D01*
X152753877Y-93062114D01*
X152723116Y-92914085D01*
X152653558Y-92779844D01*
X152550362Y-92669348D01*
X152421181Y-92590791D01*
X152275596Y-92550000D01*
X152162378Y-92550000D01*
X152050217Y-92565416D01*
X151911542Y-92625651D01*
X151794261Y-92721066D01*
X151707072Y-92844585D01*
X151656441Y-92987047D01*
X151646123Y-93137886D01*
X151596429Y-93137886D01*
X151634315Y-93100000D01*
X150892736Y-92358421D01*
X150892736Y-92358422D01*
X150876268Y-92383629D01*
X150776413Y-92611278D01*
X150715386Y-92852267D01*
X150694858Y-93099999D01*
X146400500Y-93099999D01*
X146400500Y-91794696D01*
X151460381Y-91794696D01*
X152200000Y-92534315D01*
X152200001Y-92534315D01*
X152939617Y-91794696D01*
X157960381Y-91794696D01*
X158700000Y-92534315D01*
X158700001Y-92534315D01*
X159439617Y-91794696D01*
X159304603Y-91721630D01*
X159069493Y-91640916D01*
X158824293Y-91600000D01*
X158575707Y-91600000D01*
X158330506Y-91640916D01*
X158095396Y-91721630D01*
X157960381Y-91794696D01*
X152939617Y-91794696D01*
X152804603Y-91721630D01*
X152569493Y-91640916D01*
X152324293Y-91600000D01*
X152075707Y-91600000D01*
X151830506Y-91640916D01*
X151595396Y-91721630D01*
X151460381Y-91794696D01*
X146400500Y-91794696D01*
X146400500Y-88600000D01*
X150694356Y-88600000D01*
X150714891Y-88847816D01*
X150714891Y-88847819D01*
X150714892Y-88847821D01*
X150775937Y-89088881D01*
X150820960Y-89191523D01*
X150875825Y-89316604D01*
X150875827Y-89316607D01*
X151011836Y-89524785D01*
X151180256Y-89707738D01*
X151180259Y-89707740D01*
X151376485Y-89860470D01*
X151376487Y-89860471D01*
X151376491Y-89860474D01*
X151595190Y-89978828D01*
X151830386Y-90059571D01*
X152075665Y-90100500D01*
X152324335Y-90100500D01*
X152569614Y-90059571D01*
X152804810Y-89978828D01*
X153023509Y-89860474D01*
X153219744Y-89707738D01*
X153388164Y-89524785D01*
X153524173Y-89316607D01*
X153624063Y-89088881D01*
X153685108Y-88847821D01*
X153705643Y-88600000D01*
X157194356Y-88600000D01*
X157214891Y-88847816D01*
X157214891Y-88847819D01*
X157214892Y-88847821D01*
X157275937Y-89088881D01*
X157320960Y-89191523D01*
X157375825Y-89316604D01*
X157375827Y-89316607D01*
X157511836Y-89524785D01*
X157680256Y-89707738D01*
X157680259Y-89707740D01*
X157876485Y-89860470D01*
X157876487Y-89860471D01*
X157876491Y-89860474D01*
X158095190Y-89978828D01*
X158330386Y-90059571D01*
X158575665Y-90100500D01*
X158824335Y-90100500D01*
X159069614Y-90059571D01*
X159304810Y-89978828D01*
X159523509Y-89860474D01*
X159719744Y-89707738D01*
X159888164Y-89524785D01*
X160024173Y-89316607D01*
X160124063Y-89088881D01*
X160185108Y-88847821D01*
X160205643Y-88600000D01*
X160185108Y-88352179D01*
X160124063Y-88111119D01*
X160024173Y-87883393D01*
X159888164Y-87675215D01*
X159719744Y-87492262D01*
X159697612Y-87475036D01*
X159523514Y-87339529D01*
X159523510Y-87339526D01*
X159523509Y-87339526D01*
X159304810Y-87221172D01*
X159304806Y-87221170D01*
X159304805Y-87221170D01*
X159069615Y-87140429D01*
X158824335Y-87099500D01*
X158575665Y-87099500D01*
X158330384Y-87140429D01*
X158095194Y-87221170D01*
X157876485Y-87339529D01*
X157680259Y-87492259D01*
X157511837Y-87675214D01*
X157375825Y-87883395D01*
X157275938Y-88111117D01*
X157214891Y-88352183D01*
X157194356Y-88600000D01*
X153705643Y-88600000D01*
X153685108Y-88352179D01*
X153624063Y-88111119D01*
X153524173Y-87883393D01*
X153388164Y-87675215D01*
X153219744Y-87492262D01*
X153197612Y-87475036D01*
X153023514Y-87339529D01*
X153023510Y-87339526D01*
X153023509Y-87339526D01*
X152804810Y-87221172D01*
X152804806Y-87221170D01*
X152804805Y-87221170D01*
X152569615Y-87140429D01*
X152324335Y-87099500D01*
X152075665Y-87099500D01*
X151830384Y-87140429D01*
X151595194Y-87221170D01*
X151376485Y-87339529D01*
X151180259Y-87492259D01*
X151011837Y-87675214D01*
X150875825Y-87883395D01*
X150775938Y-88111117D01*
X150714891Y-88352183D01*
X150694356Y-88600000D01*
X146400500Y-88600000D01*
X146400500Y-83600000D01*
X150594356Y-83600000D01*
X150614891Y-83847816D01*
X150614891Y-83847819D01*
X150614892Y-83847821D01*
X150675937Y-84088881D01*
X150720960Y-84191523D01*
X150775825Y-84316604D01*
X150781057Y-84324612D01*
X150911836Y-84524785D01*
X151080256Y-84707738D01*
X151080259Y-84707740D01*
X151276485Y-84860470D01*
X151276487Y-84860471D01*
X151276491Y-84860474D01*
X151495190Y-84978828D01*
X151730386Y-85059571D01*
X151975665Y-85100500D01*
X152224335Y-85100500D01*
X152469614Y-85059571D01*
X152704810Y-84978828D01*
X152923509Y-84860474D01*
X153119744Y-84707738D01*
X153288164Y-84524785D01*
X153424173Y-84316607D01*
X153524063Y-84088881D01*
X153585108Y-83847821D01*
X153605643Y-83600000D01*
X157094356Y-83600000D01*
X157114891Y-83847816D01*
X157114891Y-83847819D01*
X157114892Y-83847821D01*
X157175937Y-84088881D01*
X157220960Y-84191523D01*
X157275825Y-84316604D01*
X157281057Y-84324612D01*
X157411836Y-84524785D01*
X157580256Y-84707738D01*
X157580259Y-84707740D01*
X157776485Y-84860470D01*
X157776487Y-84860471D01*
X157776491Y-84860474D01*
X157995190Y-84978828D01*
X158230386Y-85059571D01*
X158475665Y-85100500D01*
X158724335Y-85100500D01*
X158969614Y-85059571D01*
X159204810Y-84978828D01*
X159423509Y-84860474D01*
X159619744Y-84707738D01*
X159788164Y-84524785D01*
X159924173Y-84316607D01*
X160024063Y-84088881D01*
X160085108Y-83847821D01*
X160105643Y-83600000D01*
X160085108Y-83352179D01*
X160024063Y-83111119D01*
X159924173Y-82883393D01*
X159788164Y-82675215D01*
X159619744Y-82492262D01*
X159597612Y-82475036D01*
X159423514Y-82339529D01*
X159423510Y-82339526D01*
X159423509Y-82339526D01*
X159204810Y-82221172D01*
X159204806Y-82221170D01*
X159204805Y-82221170D01*
X158969615Y-82140429D01*
X158724335Y-82099500D01*
X158475665Y-82099500D01*
X158230384Y-82140429D01*
X157995194Y-82221170D01*
X157776485Y-82339529D01*
X157580259Y-82492259D01*
X157411837Y-82675214D01*
X157275825Y-82883395D01*
X157175938Y-83111117D01*
X157114891Y-83352183D01*
X157094356Y-83600000D01*
X153605643Y-83600000D01*
X153585108Y-83352179D01*
X153524063Y-83111119D01*
X153424173Y-82883393D01*
X153288164Y-82675215D01*
X153119744Y-82492262D01*
X153097612Y-82475036D01*
X152923514Y-82339529D01*
X152923510Y-82339526D01*
X152923509Y-82339526D01*
X152704810Y-82221172D01*
X152704806Y-82221170D01*
X152704805Y-82221170D01*
X152469615Y-82140429D01*
X152224335Y-82099500D01*
X151975665Y-82099500D01*
X151730384Y-82140429D01*
X151495194Y-82221170D01*
X151276485Y-82339529D01*
X151080259Y-82492259D01*
X150911837Y-82675214D01*
X150775825Y-82883395D01*
X150675938Y-83111117D01*
X150614891Y-83352183D01*
X150594356Y-83600000D01*
X146400500Y-83600000D01*
X146400500Y-80405302D01*
X151360381Y-80405302D01*
X151495396Y-80478369D01*
X151730506Y-80559083D01*
X151975707Y-80600000D01*
X152224293Y-80600000D01*
X152469493Y-80559083D01*
X152704608Y-80478367D01*
X152839617Y-80405304D01*
X152839617Y-80405302D01*
X157860381Y-80405302D01*
X157995396Y-80478369D01*
X158230506Y-80559083D01*
X158475707Y-80600000D01*
X158724293Y-80600000D01*
X158969493Y-80559083D01*
X159204608Y-80478367D01*
X159339617Y-80405304D01*
X159339617Y-80405302D01*
X158600000Y-79665685D01*
X157860381Y-80405302D01*
X152839617Y-80405302D01*
X152100000Y-79665685D01*
X151360381Y-80405302D01*
X146400500Y-80405302D01*
X146400500Y-79099999D01*
X150594858Y-79099999D01*
X150615386Y-79347732D01*
X150676413Y-79588721D01*
X150776268Y-79816369D01*
X150792737Y-79841577D01*
X151496429Y-79137886D01*
X151546123Y-79137886D01*
X151576884Y-79285915D01*
X151646442Y-79420156D01*
X151749638Y-79530652D01*
X151878819Y-79609209D01*
X152024404Y-79650000D01*
X152137622Y-79650000D01*
X152249783Y-79634584D01*
X152388458Y-79574349D01*
X152505739Y-79478934D01*
X152592928Y-79355415D01*
X152643559Y-79212953D01*
X152651285Y-79100001D01*
X152665685Y-79100001D01*
X153407261Y-79841577D01*
X153423730Y-79816369D01*
X153523586Y-79588721D01*
X153584613Y-79347732D01*
X153605141Y-79100000D01*
X153605141Y-79099999D01*
X157094858Y-79099999D01*
X157115386Y-79347732D01*
X157176413Y-79588721D01*
X157276268Y-79816369D01*
X157292737Y-79841577D01*
X157996429Y-79137886D01*
X158046123Y-79137886D01*
X158076884Y-79285915D01*
X158146442Y-79420156D01*
X158249638Y-79530652D01*
X158378819Y-79609209D01*
X158524404Y-79650000D01*
X158637622Y-79650000D01*
X158749783Y-79634584D01*
X158888458Y-79574349D01*
X159005739Y-79478934D01*
X159092928Y-79355415D01*
X159143559Y-79212953D01*
X159151285Y-79100001D01*
X159165685Y-79100001D01*
X159907261Y-79841577D01*
X159923730Y-79816369D01*
X160023586Y-79588721D01*
X160084613Y-79347732D01*
X160105141Y-79100000D01*
X160084613Y-78852267D01*
X160023586Y-78611278D01*
X159923732Y-78383631D01*
X159907261Y-78358422D01*
X159165685Y-79099999D01*
X159165685Y-79100001D01*
X159151285Y-79100001D01*
X159153877Y-79062114D01*
X159123116Y-78914085D01*
X159053558Y-78779844D01*
X158950362Y-78669348D01*
X158821181Y-78590791D01*
X158675596Y-78550000D01*
X158562378Y-78550000D01*
X158450217Y-78565416D01*
X158311542Y-78625651D01*
X158194261Y-78721066D01*
X158107072Y-78844585D01*
X158056441Y-78987047D01*
X158046123Y-79137886D01*
X157996429Y-79137886D01*
X158034315Y-79100000D01*
X157292736Y-78358421D01*
X157292736Y-78358422D01*
X157276268Y-78383629D01*
X157176413Y-78611278D01*
X157115386Y-78852267D01*
X157094858Y-79099999D01*
X153605141Y-79099999D01*
X153584613Y-78852267D01*
X153523586Y-78611278D01*
X153423732Y-78383631D01*
X153407261Y-78358422D01*
X152665685Y-79099999D01*
X152665685Y-79100001D01*
X152651285Y-79100001D01*
X152653877Y-79062114D01*
X152623116Y-78914085D01*
X152553558Y-78779844D01*
X152450362Y-78669348D01*
X152321181Y-78590791D01*
X152175596Y-78550000D01*
X152062378Y-78550000D01*
X151950217Y-78565416D01*
X151811542Y-78625651D01*
X151694261Y-78721066D01*
X151607072Y-78844585D01*
X151556441Y-78987047D01*
X151546123Y-79137886D01*
X151496429Y-79137886D01*
X151534315Y-79100000D01*
X150792736Y-78358421D01*
X150792736Y-78358422D01*
X150776268Y-78383629D01*
X150676413Y-78611278D01*
X150615386Y-78852267D01*
X150594858Y-79099999D01*
X146400500Y-79099999D01*
X146400500Y-77794696D01*
X151360381Y-77794696D01*
X152100000Y-78534315D01*
X152100001Y-78534315D01*
X152839617Y-77794696D01*
X157860381Y-77794696D01*
X158600000Y-78534315D01*
X158600001Y-78534315D01*
X159339617Y-77794696D01*
X159204603Y-77721630D01*
X158969493Y-77640916D01*
X158724293Y-77600000D01*
X158475707Y-77600000D01*
X158230506Y-77640916D01*
X157995396Y-77721630D01*
X157860381Y-77794696D01*
X152839617Y-77794696D01*
X152704603Y-77721630D01*
X152469493Y-77640916D01*
X152224293Y-77600000D01*
X151975707Y-77600000D01*
X151730506Y-77640916D01*
X151495396Y-77721630D01*
X151360381Y-77794696D01*
X146400500Y-77794696D01*
X146400500Y-74200000D01*
X150594356Y-74200000D01*
X150614891Y-74447816D01*
X150614891Y-74447819D01*
X150614892Y-74447821D01*
X150675937Y-74688881D01*
X150720960Y-74791523D01*
X150775825Y-74916604D01*
X150775827Y-74916607D01*
X150911836Y-75124785D01*
X151080256Y-75307738D01*
X151087415Y-75313310D01*
X151276485Y-75460470D01*
X151276487Y-75460471D01*
X151276491Y-75460474D01*
X151495190Y-75578828D01*
X151730386Y-75659571D01*
X151975665Y-75700500D01*
X152224335Y-75700500D01*
X152469614Y-75659571D01*
X152704810Y-75578828D01*
X152923509Y-75460474D01*
X153119744Y-75307738D01*
X153288164Y-75124785D01*
X153424173Y-74916607D01*
X153524063Y-74688881D01*
X153585108Y-74447821D01*
X153605643Y-74200000D01*
X157094356Y-74200000D01*
X157114891Y-74447816D01*
X157114891Y-74447819D01*
X157114892Y-74447821D01*
X157175937Y-74688881D01*
X157220960Y-74791523D01*
X157275825Y-74916604D01*
X157275827Y-74916607D01*
X157411836Y-75124785D01*
X157580256Y-75307738D01*
X157587415Y-75313310D01*
X157776485Y-75460470D01*
X157776487Y-75460471D01*
X157776491Y-75460474D01*
X157995190Y-75578828D01*
X158230386Y-75659571D01*
X158475665Y-75700500D01*
X158724335Y-75700500D01*
X158969614Y-75659571D01*
X159204810Y-75578828D01*
X159423509Y-75460474D01*
X159619744Y-75307738D01*
X159788164Y-75124785D01*
X159924173Y-74916607D01*
X160024063Y-74688881D01*
X160085108Y-74447821D01*
X160105643Y-74200000D01*
X160085108Y-73952179D01*
X160024063Y-73711119D01*
X159924173Y-73483393D01*
X159788164Y-73275215D01*
X159619744Y-73092262D01*
X159597612Y-73075036D01*
X159423514Y-72939529D01*
X159423510Y-72939526D01*
X159423509Y-72939526D01*
X159204810Y-72821172D01*
X159204806Y-72821170D01*
X159204805Y-72821170D01*
X158969615Y-72740429D01*
X158724335Y-72699500D01*
X158475665Y-72699500D01*
X158230384Y-72740429D01*
X157995194Y-72821170D01*
X157995190Y-72821171D01*
X157995190Y-72821172D01*
X157907710Y-72868513D01*
X157776485Y-72939529D01*
X157580259Y-73092259D01*
X157580256Y-73092261D01*
X157580256Y-73092262D01*
X157411836Y-73275215D01*
X157366499Y-73344607D01*
X157275825Y-73483395D01*
X157185966Y-73688256D01*
X157175937Y-73711119D01*
X157143518Y-73839139D01*
X157114891Y-73952183D01*
X157094356Y-74200000D01*
X153605643Y-74200000D01*
X153585108Y-73952179D01*
X153524063Y-73711119D01*
X153424173Y-73483393D01*
X153288164Y-73275215D01*
X153119744Y-73092262D01*
X153097612Y-73075036D01*
X152923514Y-72939529D01*
X152923510Y-72939526D01*
X152923509Y-72939526D01*
X152704810Y-72821172D01*
X152704806Y-72821170D01*
X152704805Y-72821170D01*
X152469615Y-72740429D01*
X152224335Y-72699500D01*
X151975665Y-72699500D01*
X151730384Y-72740429D01*
X151495194Y-72821170D01*
X151495190Y-72821171D01*
X151495190Y-72821172D01*
X151407710Y-72868513D01*
X151276485Y-72939529D01*
X151080259Y-73092259D01*
X151080256Y-73092261D01*
X151080256Y-73092262D01*
X150911836Y-73275215D01*
X150866499Y-73344607D01*
X150775825Y-73483395D01*
X150685966Y-73688256D01*
X150675937Y-73711119D01*
X150643518Y-73839139D01*
X150614891Y-73952183D01*
X150594356Y-74200000D01*
X146400500Y-74200000D01*
X146400500Y-71005302D01*
X151360381Y-71005302D01*
X151495396Y-71078369D01*
X151730506Y-71159083D01*
X151975707Y-71200000D01*
X152224293Y-71200000D01*
X152469493Y-71159083D01*
X152704608Y-71078367D01*
X152839617Y-71005304D01*
X152839617Y-71005302D01*
X157860381Y-71005302D01*
X157995396Y-71078369D01*
X158230506Y-71159083D01*
X158475707Y-71200000D01*
X158724293Y-71200000D01*
X158969493Y-71159083D01*
X159204608Y-71078367D01*
X159339617Y-71005304D01*
X159339617Y-71005302D01*
X158600000Y-70265685D01*
X157860381Y-71005302D01*
X152839617Y-71005302D01*
X152100000Y-70265685D01*
X151360381Y-71005302D01*
X146400500Y-71005302D01*
X146400500Y-69699999D01*
X150594858Y-69699999D01*
X150615386Y-69947732D01*
X150676413Y-70188721D01*
X150776268Y-70416369D01*
X150792737Y-70441577D01*
X151496429Y-69737886D01*
X151546123Y-69737886D01*
X151576884Y-69885915D01*
X151646442Y-70020156D01*
X151749638Y-70130652D01*
X151878819Y-70209209D01*
X152024404Y-70250000D01*
X152137622Y-70250000D01*
X152249783Y-70234584D01*
X152388458Y-70174349D01*
X152505739Y-70078934D01*
X152592928Y-69955415D01*
X152643559Y-69812953D01*
X152651285Y-69700001D01*
X152665685Y-69700001D01*
X153407261Y-70441577D01*
X153423730Y-70416369D01*
X153523586Y-70188721D01*
X153584613Y-69947732D01*
X153605141Y-69700000D01*
X153605141Y-69699999D01*
X157094858Y-69699999D01*
X157115386Y-69947732D01*
X157176413Y-70188721D01*
X157276268Y-70416369D01*
X157292737Y-70441577D01*
X157996429Y-69737886D01*
X158046123Y-69737886D01*
X158076884Y-69885915D01*
X158146442Y-70020156D01*
X158249638Y-70130652D01*
X158378819Y-70209209D01*
X158524404Y-70250000D01*
X158637622Y-70250000D01*
X158749783Y-70234584D01*
X158888458Y-70174349D01*
X159005739Y-70078934D01*
X159092928Y-69955415D01*
X159143559Y-69812953D01*
X159151285Y-69700000D01*
X159165684Y-69700000D01*
X159907261Y-70441577D01*
X159923730Y-70416369D01*
X160023586Y-70188721D01*
X160084613Y-69947732D01*
X160105141Y-69700000D01*
X160084613Y-69452267D01*
X160023586Y-69211278D01*
X159923732Y-68983631D01*
X159907261Y-68958422D01*
X159165684Y-69700000D01*
X159151285Y-69700000D01*
X159153877Y-69662114D01*
X159123116Y-69514085D01*
X159053558Y-69379844D01*
X158950362Y-69269348D01*
X158821181Y-69190791D01*
X158675596Y-69150000D01*
X158562378Y-69150000D01*
X158450217Y-69165416D01*
X158311542Y-69225651D01*
X158194261Y-69321066D01*
X158107072Y-69444585D01*
X158056441Y-69587047D01*
X158046123Y-69737886D01*
X157996429Y-69737886D01*
X158034315Y-69700000D01*
X157292736Y-68958421D01*
X157292736Y-68958422D01*
X157276268Y-68983629D01*
X157176413Y-69211278D01*
X157115386Y-69452267D01*
X157094858Y-69699999D01*
X153605141Y-69699999D01*
X153584613Y-69452267D01*
X153523586Y-69211278D01*
X153423732Y-68983631D01*
X153407261Y-68958422D01*
X152665685Y-69699999D01*
X152665685Y-69700001D01*
X152651285Y-69700001D01*
X152653877Y-69662114D01*
X152623116Y-69514085D01*
X152553558Y-69379844D01*
X152450362Y-69269348D01*
X152321181Y-69190791D01*
X152175596Y-69150000D01*
X152062378Y-69150000D01*
X151950217Y-69165416D01*
X151811542Y-69225651D01*
X151694261Y-69321066D01*
X151607072Y-69444585D01*
X151556441Y-69587047D01*
X151546123Y-69737886D01*
X151496429Y-69737886D01*
X151534315Y-69700000D01*
X150792736Y-68958421D01*
X150792736Y-68958422D01*
X150776268Y-68983629D01*
X150676413Y-69211278D01*
X150615386Y-69452267D01*
X150594858Y-69699999D01*
X146400500Y-69699999D01*
X146400500Y-68394696D01*
X151360381Y-68394696D01*
X152100000Y-69134315D01*
X152100001Y-69134315D01*
X152839617Y-68394696D01*
X157860381Y-68394696D01*
X158600000Y-69134315D01*
X158600001Y-69134315D01*
X159339617Y-68394696D01*
X159204603Y-68321630D01*
X158969493Y-68240916D01*
X158724293Y-68200000D01*
X158475707Y-68200000D01*
X158230506Y-68240916D01*
X157995396Y-68321630D01*
X157860381Y-68394696D01*
X152839617Y-68394696D01*
X152704603Y-68321630D01*
X152469493Y-68240916D01*
X152224293Y-68200000D01*
X151975707Y-68200000D01*
X151730506Y-68240916D01*
X151495396Y-68321630D01*
X151360381Y-68394696D01*
X146400500Y-68394696D01*
X146400500Y-61400000D01*
X147494422Y-61400000D01*
X147514722Y-61787338D01*
X147515227Y-61790531D01*
X147515229Y-61790543D01*
X147574889Y-62167224D01*
X147574891Y-62167237D01*
X147575398Y-62170433D01*
X147675786Y-62545087D01*
X147814786Y-62907194D01*
X147816255Y-62910077D01*
X147816259Y-62910086D01*
X147989400Y-63249895D01*
X147990875Y-63252789D01*
X148202124Y-63578084D01*
X148446219Y-63879516D01*
X148720484Y-64153781D01*
X149021916Y-64397876D01*
X149347211Y-64609125D01*
X149692806Y-64785214D01*
X150054913Y-64924214D01*
X150429567Y-65024602D01*
X150812662Y-65085278D01*
X151200000Y-65105578D01*
X151587338Y-65085278D01*
X151970433Y-65024602D01*
X152345087Y-64924214D01*
X152707194Y-64785214D01*
X153052789Y-64609125D01*
X153378084Y-64397876D01*
X153679516Y-64153781D01*
X153953781Y-63879516D01*
X154197876Y-63578084D01*
X154409125Y-63252789D01*
X154585214Y-62907194D01*
X154724214Y-62545087D01*
X154824602Y-62170433D01*
X154885278Y-61787338D01*
X154905578Y-61400000D01*
X192494422Y-61400000D01*
X192514722Y-61787338D01*
X192515227Y-61790531D01*
X192515229Y-61790543D01*
X192574889Y-62167224D01*
X192574891Y-62167237D01*
X192575398Y-62170433D01*
X192675786Y-62545087D01*
X192814786Y-62907194D01*
X192816255Y-62910077D01*
X192816259Y-62910086D01*
X192989400Y-63249895D01*
X192990875Y-63252789D01*
X193202124Y-63578084D01*
X193446219Y-63879516D01*
X193720484Y-64153781D01*
X194021916Y-64397876D01*
X194347211Y-64609125D01*
X194692806Y-64785214D01*
X195054913Y-64924214D01*
X195429567Y-65024602D01*
X195812662Y-65085278D01*
X196200000Y-65105578D01*
X196587338Y-65085278D01*
X196970433Y-65024602D01*
X197345087Y-64924214D01*
X197707194Y-64785214D01*
X198052789Y-64609125D01*
X198378084Y-64397876D01*
X198679516Y-64153781D01*
X198953781Y-63879516D01*
X199197876Y-63578084D01*
X199409125Y-63252789D01*
X199585214Y-62907194D01*
X199724214Y-62545087D01*
X199824602Y-62170433D01*
X199885278Y-61787338D01*
X199905578Y-61400000D01*
X199885278Y-61012662D01*
X199824602Y-60629567D01*
X199724214Y-60254913D01*
X199585214Y-59892806D01*
X199409125Y-59547211D01*
X199197876Y-59221916D01*
X198953781Y-58920484D01*
X198679516Y-58646219D01*
X198378084Y-58402124D01*
X198052789Y-58190875D01*
X198049901Y-58189403D01*
X198049895Y-58189400D01*
X197710086Y-58016259D01*
X197710077Y-58016255D01*
X197707194Y-58014786D01*
X197704162Y-58013622D01*
X197348110Y-57876946D01*
X197348102Y-57876943D01*
X197345087Y-57875786D01*
X197341962Y-57874948D01*
X197341957Y-57874947D01*
X196973566Y-57776237D01*
X196973557Y-57776235D01*
X196970433Y-57775398D01*
X196967237Y-57774891D01*
X196967224Y-57774889D01*
X196590543Y-57715229D01*
X196590531Y-57715227D01*
X196587338Y-57714722D01*
X196584103Y-57714552D01*
X196584099Y-57714552D01*
X196203244Y-57694592D01*
X196200000Y-57694422D01*
X196196756Y-57694592D01*
X195815900Y-57714552D01*
X195815894Y-57714552D01*
X195812662Y-57714722D01*
X195809470Y-57715227D01*
X195809456Y-57715229D01*
X195432775Y-57774889D01*
X195432758Y-57774892D01*
X195429567Y-57775398D01*
X195426446Y-57776234D01*
X195426433Y-57776237D01*
X195058042Y-57874947D01*
X195058031Y-57874950D01*
X195054913Y-57875786D01*
X195051902Y-57876941D01*
X195051889Y-57876946D01*
X194695837Y-58013622D01*
X194695828Y-58013625D01*
X194692806Y-58014786D01*
X194689929Y-58016251D01*
X194689913Y-58016259D01*
X194350104Y-58189400D01*
X194350090Y-58189408D01*
X194347211Y-58190875D01*
X194344491Y-58192641D01*
X194344483Y-58192646D01*
X194024644Y-58400352D01*
X194024638Y-58400355D01*
X194021916Y-58402124D01*
X194019396Y-58404164D01*
X194019390Y-58404169D01*
X193723002Y-58644179D01*
X193722991Y-58644188D01*
X193720484Y-58646219D01*
X193718199Y-58648503D01*
X193718189Y-58648513D01*
X193448513Y-58918189D01*
X193448503Y-58918199D01*
X193446219Y-58920484D01*
X193444188Y-58922991D01*
X193444179Y-58923002D01*
X193204169Y-59219390D01*
X193204164Y-59219396D01*
X193202124Y-59221916D01*
X193200355Y-59224638D01*
X193200352Y-59224644D01*
X192992646Y-59544483D01*
X192992641Y-59544491D01*
X192990875Y-59547211D01*
X192989408Y-59550090D01*
X192989400Y-59550104D01*
X192816259Y-59889913D01*
X192816251Y-59889929D01*
X192814786Y-59892806D01*
X192813625Y-59895828D01*
X192813622Y-59895837D01*
X192676946Y-60251889D01*
X192676941Y-60251902D01*
X192675786Y-60254913D01*
X192674950Y-60258031D01*
X192674947Y-60258042D01*
X192576237Y-60626433D01*
X192576234Y-60626446D01*
X192575398Y-60629567D01*
X192574892Y-60632758D01*
X192574889Y-60632775D01*
X192515229Y-61009456D01*
X192515227Y-61009470D01*
X192514722Y-61012662D01*
X192494422Y-61400000D01*
X154905578Y-61400000D01*
X154885278Y-61012662D01*
X154824602Y-60629567D01*
X154724214Y-60254913D01*
X154585214Y-59892806D01*
X154409125Y-59547211D01*
X154197876Y-59221916D01*
X153953781Y-58920484D01*
X153679516Y-58646219D01*
X153378084Y-58402124D01*
X153052789Y-58190875D01*
X153049901Y-58189403D01*
X153049895Y-58189400D01*
X152710086Y-58016259D01*
X152710077Y-58016255D01*
X152707194Y-58014786D01*
X152704162Y-58013622D01*
X152348110Y-57876946D01*
X152348102Y-57876943D01*
X152345087Y-57875786D01*
X152341962Y-57874948D01*
X152341957Y-57874947D01*
X151973566Y-57776237D01*
X151973557Y-57776235D01*
X151970433Y-57775398D01*
X151967237Y-57774891D01*
X151967224Y-57774889D01*
X151590543Y-57715229D01*
X151590531Y-57715227D01*
X151587338Y-57714722D01*
X151584103Y-57714552D01*
X151584099Y-57714552D01*
X151203244Y-57694592D01*
X151200000Y-57694422D01*
X151196756Y-57694592D01*
X150815900Y-57714552D01*
X150815894Y-57714552D01*
X150812662Y-57714722D01*
X150809470Y-57715227D01*
X150809456Y-57715229D01*
X150432775Y-57774889D01*
X150432758Y-57774892D01*
X150429567Y-57775398D01*
X150426446Y-57776234D01*
X150426433Y-57776237D01*
X150058042Y-57874947D01*
X150058031Y-57874950D01*
X150054913Y-57875786D01*
X150051902Y-57876941D01*
X150051889Y-57876946D01*
X149695837Y-58013622D01*
X149695828Y-58013625D01*
X149692806Y-58014786D01*
X149689929Y-58016251D01*
X149689913Y-58016259D01*
X149350104Y-58189400D01*
X149350090Y-58189408D01*
X149347211Y-58190875D01*
X149344491Y-58192641D01*
X149344483Y-58192646D01*
X149024644Y-58400352D01*
X149024638Y-58400355D01*
X149021916Y-58402124D01*
X149019396Y-58404164D01*
X149019390Y-58404169D01*
X148723002Y-58644179D01*
X148722991Y-58644188D01*
X148720484Y-58646219D01*
X148718199Y-58648503D01*
X148718189Y-58648513D01*
X148448513Y-58918189D01*
X148448503Y-58918199D01*
X148446219Y-58920484D01*
X148444188Y-58922991D01*
X148444179Y-58923002D01*
X148204169Y-59219390D01*
X148204164Y-59219396D01*
X148202124Y-59221916D01*
X148200355Y-59224638D01*
X148200352Y-59224644D01*
X147992646Y-59544483D01*
X147992641Y-59544491D01*
X147990875Y-59547211D01*
X147989408Y-59550090D01*
X147989400Y-59550104D01*
X147816259Y-59889913D01*
X147816251Y-59889929D01*
X147814786Y-59892806D01*
X147813625Y-59895828D01*
X147813622Y-59895837D01*
X147676946Y-60251889D01*
X147676941Y-60251902D01*
X147675786Y-60254913D01*
X147674950Y-60258031D01*
X147674947Y-60258042D01*
X147576237Y-60626433D01*
X147576234Y-60626446D01*
X147575398Y-60629567D01*
X147574892Y-60632758D01*
X147574889Y-60632775D01*
X147515229Y-61009456D01*
X147515227Y-61009470D01*
X147514722Y-61012662D01*
X147494422Y-61400000D01*
X146400500Y-61400000D01*
X146400500Y-56724500D01*
X146420185Y-56657461D01*
X146472989Y-56611706D01*
X146524500Y-56600500D01*
X200875500Y-56600500D01*
X200942539Y-56620185D01*
G37*
%TD.AperFunction*%
%TD*%
M02*
