M48
; DRILL file {KiCad 7.0.2-0} date 2025 January 08, Wednesday 13:47:28
; FORMAT={-:-/ absolute / inch / decimal}
; #@! TF.CreationDate,2025-01-08T13:47:28-05:00
; #@! TF.GenerationSoftware,Kicad,Pcbnew,7.0.2-0
; #@! TF.FileFunction,Plated,1,2,PTH
FMAT,2
INCH
; #@! TA.AperFunction,Plated,PTH,ViaDrill
T1C0.0157
; #@! TA.AperFunction,Plated,PTH,ComponentDrill
T2C0.0315
; #@! TA.AperFunction,Plated,PTH,ComponentDrill
T3C0.0394
; #@! TA.AperFunction,Plated,PTH,ComponentDrill
T4C0.0433
; #@! TA.AperFunction,Plated,PTH,ComponentDrill
T5C0.1260
%
G90
G05
T1
X5.8465Y-4.5079
X6.3228Y-3.8268
X6.3386Y-3.6024
X6.3386Y-3.7205
X6.3976Y-2.8937
X6.4567Y-3.8268
X7.3858Y-2.7953
X7.3858Y-2.9685
X7.4409Y-3.7008
X7.4488Y-3.8898
X7.5118Y-2.9606
X7.6614Y-2.811
X7.685Y-2.9449
X7.7165Y-3.7008
X7.7165Y-3.9244
X7.7559Y-3.0157
X7.815Y-3.7992
X7.8268Y-2.8819
T2
X7.7165Y-4.1291
X7.7165Y-4.2291
X7.7165Y-4.3291
X7.7165Y-4.4291
T3
X6.0236Y-3.952
X6.0236Y-4.052
X6.0236Y-4.152
X6.0236Y-4.252
X6.25Y-4.1634
X6.25Y-4.2634
X6.2984Y-4.874
X6.3984Y-4.874
X6.4984Y-4.874
X6.5984Y-4.874
X6.6732Y-2.874
X6.6732Y-2.974
X6.6732Y-3.074
X6.6732Y-3.174
X6.6732Y-3.274
X6.6732Y-3.374
X6.6732Y-3.474
X6.6732Y-3.574
X6.6732Y-3.674
X6.6732Y-3.774
X6.6732Y-3.874
X6.6732Y-3.974
X6.6732Y-4.074
X6.6732Y-4.174
X6.6732Y-4.274
X6.6843Y-4.6693
X6.7843Y-4.6693
X6.8843Y-4.6693
X6.9843Y-4.6693
X7.2543Y-4.874
X7.2732Y-2.874
X7.2732Y-2.974
X7.2732Y-3.074
X7.2732Y-3.174
X7.2732Y-3.274
X7.2732Y-3.374
X7.2732Y-3.474
X7.2732Y-3.574
X7.2732Y-3.674
X7.2732Y-3.774
X7.2732Y-3.874
X7.2732Y-3.974
X7.2732Y-4.074
X7.2732Y-4.174
X7.2732Y-4.274
X7.3543Y-4.874
T4
X5.9882Y-2.7441
X5.9882Y-2.9213
X5.9882Y-3.1142
X5.9882Y-3.2913
X5.9921Y-3.4882
X5.9921Y-3.6654
X6.2441Y-2.7441
X6.2441Y-2.9213
X6.2441Y-3.1142
X6.2441Y-3.2913
X6.248Y-3.4882
X6.248Y-3.6654
T5
X5.9528Y-2.4173
X5.9528Y-4.8189
X7.7244Y-2.4173
X7.7244Y-4.8189
T0
M30
