%TF.GenerationSoftware,KiCad,Pcbnew,7.0.2-0*%
%TF.CreationDate,2025-01-08T13:47:24-05:00*%
%TF.ProjectId,plaqchek_mlb,706c6171-6368-4656-9b5f-6d6c622e6b69,rev?*%
%TF.SameCoordinates,Original*%
%TF.FileFunction,Copper,L1,Top*%
%TF.FilePolarity,Positive*%
%FSLAX46Y46*%
G04 Gerber Fmt 4.6, Leading zero omitted, Abs format (unit mm)*
G04 Created by KiCad (PCBNEW 7.0.2-0) date 2025-01-08 13:47:24*
%MOMM*%
%LPD*%
G01*
G04 APERTURE LIST*
G04 Aperture macros list*
%AMRoundRect*
0 Rectangle with rounded corners*
0 $1 Rounding radius*
0 $2 $3 $4 $5 $6 $7 $8 $9 X,Y pos of 4 corners*
0 Add a 4 corners polygon primitive as box body*
4,1,4,$2,$3,$4,$5,$6,$7,$8,$9,$2,$3,0*
0 Add four circle primitives for the rounded corners*
1,1,$1+$1,$2,$3*
1,1,$1+$1,$4,$5*
1,1,$1+$1,$6,$7*
1,1,$1+$1,$8,$9*
0 Add four rect primitives between the rounded corners*
20,1,$1+$1,$2,$3,$4,$5,0*
20,1,$1+$1,$4,$5,$6,$7,0*
20,1,$1+$1,$6,$7,$8,$9,0*
20,1,$1+$1,$8,$9,$2,$3,0*%
G04 Aperture macros list end*
%TA.AperFunction,SMDPad,CuDef*%
%ADD10C,1.000000*%
%TD*%
%TA.AperFunction,SMDPad,CuDef*%
%ADD11RoundRect,0.237500X-0.250000X-0.237500X0.250000X-0.237500X0.250000X0.237500X-0.250000X0.237500X0*%
%TD*%
%TA.AperFunction,SMDPad,CuDef*%
%ADD12RoundRect,0.237500X0.237500X-0.300000X0.237500X0.300000X-0.237500X0.300000X-0.237500X-0.300000X0*%
%TD*%
%TA.AperFunction,SMDPad,CuDef*%
%ADD13RoundRect,0.250000X0.325000X0.450000X-0.325000X0.450000X-0.325000X-0.450000X0.325000X-0.450000X0*%
%TD*%
%TA.AperFunction,SMDPad,CuDef*%
%ADD14RoundRect,0.237500X0.250000X0.237500X-0.250000X0.237500X-0.250000X-0.237500X0.250000X-0.237500X0*%
%TD*%
%TA.AperFunction,ComponentPad*%
%ADD15R,1.700000X1.700000*%
%TD*%
%TA.AperFunction,ComponentPad*%
%ADD16O,1.700000X1.700000*%
%TD*%
%TA.AperFunction,ComponentPad*%
%ADD17C,6.400000*%
%TD*%
%TA.AperFunction,SMDPad,CuDef*%
%ADD18RoundRect,0.237500X-0.237500X0.250000X-0.237500X-0.250000X0.237500X-0.250000X0.237500X0.250000X0*%
%TD*%
%TA.AperFunction,SMDPad,CuDef*%
%ADD19RoundRect,0.237500X0.237500X-0.250000X0.237500X0.250000X-0.237500X0.250000X-0.237500X-0.250000X0*%
%TD*%
%TA.AperFunction,SMDPad,CuDef*%
%ADD20RoundRect,0.237500X-0.237500X0.300000X-0.237500X-0.300000X0.237500X-0.300000X0.237500X0.300000X0*%
%TD*%
%TA.AperFunction,ComponentPad*%
%ADD21R,1.600000X1.600000*%
%TD*%
%TA.AperFunction,ComponentPad*%
%ADD22O,1.600000X1.600000*%
%TD*%
%TA.AperFunction,ComponentPad*%
%ADD23R,1.500000X1.500000*%
%TD*%
%TA.AperFunction,ComponentPad*%
%ADD24C,1.500000*%
%TD*%
%TA.AperFunction,SMDPad,CuDef*%
%ADD25RoundRect,0.237500X-0.300000X-0.237500X0.300000X-0.237500X0.300000X0.237500X-0.300000X0.237500X0*%
%TD*%
%TA.AperFunction,ComponentPad*%
%ADD26C,2.000000*%
%TD*%
%TA.AperFunction,ViaPad*%
%ADD27C,0.800000*%
%TD*%
%TA.AperFunction,Conductor*%
%ADD28C,0.250000*%
%TD*%
%TA.AperFunction,Conductor*%
%ADD29C,1.000000*%
%TD*%
G04 APERTURE END LIST*
D10*
%TO.P,TP4,1,1*%
%TO.N,GND*%
X158500000Y-116000000D03*
%TD*%
D11*
%TO.P,R17,1*%
%TO.N,Net-(H4-Pad1)*%
X151175000Y-117000000D03*
%TO.P,R17,2*%
%TO.N,GND*%
X153000000Y-117000000D03*
%TD*%
%TO.P,R1,1*%
%TO.N,Net-(A1-D10)*%
X189000000Y-77500000D03*
%TO.P,R1,2*%
%TO.N,SPI_3V3_ADC_CS*%
X190825000Y-77500000D03*
%TD*%
D12*
%TO.P,C5,1*%
%TO.N,Net-(A1-VIN)*%
X163250000Y-108600000D03*
%TO.P,C5,2*%
%TO.N,GND*%
X163250000Y-106875000D03*
%TD*%
D13*
%TO.P,D3,1,K*%
%TO.N,GND*%
X196050000Y-87250000D03*
%TO.P,D3,2,A*%
%TO.N,Net-(D3-A)*%
X194000000Y-87250000D03*
%TD*%
D14*
%TO.P,R5,1*%
%TO.N,/SW_PUSH2*%
X166000000Y-84000000D03*
%TO.P,R5,2*%
%TO.N,/SW_PUSH2_R*%
X164175000Y-84000000D03*
%TD*%
D12*
%TO.P,C3,1*%
%TO.N,+3V3*%
X148800000Y-113000000D03*
%TO.P,C3,2*%
%TO.N,GND*%
X148800000Y-111275000D03*
%TD*%
D15*
%TO.P,J3,1,Pin_1*%
%TO.N,VDAC_POT_PWM_3V3*%
X186800000Y-123800000D03*
D16*
%TO.P,J3,2,Pin_2*%
%TO.N,GND*%
X184260000Y-123800000D03*
%TD*%
D12*
%TO.P,C4,1*%
%TO.N,Net-(A1-VIN)*%
X166000000Y-108600000D03*
%TO.P,C4,2*%
%TO.N,GND*%
X166000000Y-106875000D03*
%TD*%
D15*
%TO.P,JP1,1,A*%
%TO.N,+12V*%
X158750000Y-105750000D03*
D16*
%TO.P,JP1,2,B*%
%TO.N,Net-(A1-VIN)*%
X158750000Y-108290000D03*
%TD*%
D14*
%TO.P,R6,1*%
%TO.N,/SW_FLIP*%
X166000000Y-87000000D03*
%TO.P,R6,2*%
%TO.N,/SW_FLIP_R*%
X164175000Y-87000000D03*
%TD*%
D17*
%TO.P,H4,1,1*%
%TO.N,Net-(H4-Pad1)*%
X151200000Y-122400000D03*
%TD*%
D18*
%TO.P,R33,1*%
%TO.N,GND*%
X148600000Y-70487500D03*
%TO.P,R33,2*%
%TO.N,/SW_PUSH1_R*%
X148600000Y-72312500D03*
%TD*%
D19*
%TO.P,R16,1*%
%TO.N,Net-(H3-Pad1)*%
X191000000Y-61412500D03*
%TO.P,R16,2*%
%TO.N,GND*%
X191000000Y-59587500D03*
%TD*%
D14*
%TO.P,R11,1*%
%TO.N,Net-(D2-A)*%
X190825000Y-84250000D03*
%TO.P,R11,2*%
%TO.N,/LED2*%
X189000000Y-84250000D03*
%TD*%
D13*
%TO.P,D2,1,K*%
%TO.N,GND*%
X196050000Y-84250000D03*
%TO.P,D2,2,A*%
%TO.N,Net-(D2-A)*%
X194000000Y-84250000D03*
%TD*%
D20*
%TO.P,C1,1*%
%TO.N,+12V*%
X153000000Y-111400000D03*
%TO.P,C1,2*%
%TO.N,GND*%
X153000000Y-113125000D03*
%TD*%
D14*
%TO.P,R3,1*%
%TO.N,Net-(A1-D13)*%
X166000000Y-73000000D03*
%TO.P,R3,2*%
%TO.N,SPI_3V3_ADC_SCLK*%
X164175000Y-73000000D03*
%TD*%
D15*
%TO.P,J5,1,Pin_1*%
%TO.N,+12V*%
X153000000Y-108000000D03*
D16*
%TO.P,J5,2,Pin_2*%
%TO.N,+3V3*%
X153000000Y-105460000D03*
%TO.P,J5,3,Pin_3*%
%TO.N,/PD_EN*%
X153000000Y-102920000D03*
%TO.P,J5,4,Pin_4*%
%TO.N,GND*%
X153000000Y-100380000D03*
%TD*%
D11*
%TO.P,R2,1*%
%TO.N,Net-(A1-D12)*%
X189000000Y-73000000D03*
%TO.P,R2,2*%
%TO.N,SPI_3V3_ADC_MISO*%
X190825000Y-73000000D03*
%TD*%
D17*
%TO.P,H3,1,1*%
%TO.N,Net-(H3-Pad1)*%
X196200000Y-61400000D03*
%TD*%
%TO.P,H1,1,1*%
%TO.N,Net-(H1-Pad1)*%
X196200000Y-122400000D03*
%TD*%
D18*
%TO.P,R15,1*%
%TO.N,Net-(H2-Pad1)*%
X156500000Y-61587500D03*
%TO.P,R15,2*%
%TO.N,GND*%
X156500000Y-63412500D03*
%TD*%
D15*
%TO.P,J1,1,Pin_1*%
%TO.N,SPI_3V3_ADC_CS*%
X167600000Y-123800000D03*
D16*
%TO.P,J1,2,Pin_2*%
%TO.N,SPI_3V3_ADC_MISO*%
X165060000Y-123800000D03*
%TO.P,J1,3,Pin_3*%
%TO.N,SPI_3V3_ADC_SCLK*%
X162520000Y-123800000D03*
%TO.P,J1,4,Pin_4*%
%TO.N,GND*%
X159980000Y-123800000D03*
%TD*%
D19*
%TO.P,R14,1*%
%TO.N,Net-(H1-Pad1)*%
X191000000Y-122412500D03*
%TO.P,R14,2*%
%TO.N,GND*%
X191000000Y-120587500D03*
%TD*%
D10*
%TO.P,TP1,1,1*%
%TO.N,GND*%
X191000000Y-115500000D03*
%TD*%
D19*
%TO.P,R8,1*%
%TO.N,/TEMP_SENS_OUT*%
X189000000Y-97400000D03*
%TO.P,R8,2*%
%TO.N,+3V3*%
X189000000Y-95575000D03*
%TD*%
D17*
%TO.P,H2,1,1*%
%TO.N,Net-(H2-Pad1)*%
X151200000Y-61400000D03*
%TD*%
D14*
%TO.P,R12,1*%
%TO.N,Net-(D3-A)*%
X190825000Y-87250000D03*
%TO.P,R12,2*%
%TO.N,/LED3*%
X189000000Y-87250000D03*
%TD*%
D19*
%TO.P,R10,1*%
%TO.N,SPI_3V3_ADC_CS*%
X193587500Y-76162500D03*
%TO.P,R10,2*%
%TO.N,+3V3*%
X193587500Y-74337500D03*
%TD*%
D10*
%TO.P,TP2,1,1*%
%TO.N,GND*%
X192800000Y-69800000D03*
%TD*%
D14*
%TO.P,R31,1*%
%TO.N,/SDL_DISPLAY*%
X166000000Y-94000000D03*
%TO.P,R31,2*%
%TO.N,+3V3*%
X164175000Y-94000000D03*
%TD*%
D10*
%TO.P,TP3,1,1*%
%TO.N,GND*%
X164000000Y-66000000D03*
%TD*%
D14*
%TO.P,R7,1*%
%TO.N,/SDA_DISPLAY*%
X166000000Y-90800000D03*
%TO.P,R7,2*%
%TO.N,+3V3*%
X164175000Y-90800000D03*
%TD*%
D21*
%TO.P,A1,1,D1/TX*%
%TO.N,unconnected-(A1-D1{slash}TX-Pad1)*%
X184740000Y-108560000D03*
D22*
%TO.P,A1,2,D0/RX*%
%TO.N,unconnected-(A1-D0{slash}RX-Pad2)*%
X184740000Y-106020000D03*
%TO.P,A1,3,~{RESET}*%
%TO.N,unconnected-(A1-~{RESET}-Pad3)*%
X184740000Y-103480000D03*
%TO.P,A1,4,GND*%
%TO.N,GND*%
X184740000Y-100940000D03*
%TO.P,A1,5,D2*%
%TO.N,/TEMP_SENS_OUT*%
X184740000Y-98400000D03*
%TO.P,A1,6,D3*%
%TO.N,VDAC_POT_PWM_3V3*%
X184740000Y-95860000D03*
%TO.P,A1,7,D4*%
%TO.N,unconnected-(A1-D4-Pad7)*%
X184740000Y-93320000D03*
%TO.P,A1,8,D5*%
%TO.N,unconnected-(A1-D5-Pad8)*%
X184740000Y-90780000D03*
%TO.P,A1,9,D6*%
%TO.N,unconnected-(A1-D6-Pad9)*%
X184740000Y-88240000D03*
%TO.P,A1,10,D7*%
%TO.N,/LED3*%
X184740000Y-85700000D03*
%TO.P,A1,11,D8*%
%TO.N,/LED2*%
X184740000Y-83160000D03*
%TO.P,A1,12,D9*%
%TO.N,/LED1*%
X184740000Y-80620000D03*
%TO.P,A1,13,D10*%
%TO.N,Net-(A1-D10)*%
X184740000Y-78080000D03*
%TO.P,A1,14,D11*%
%TO.N,unconnected-(A1-D11-Pad14)*%
X184740000Y-75540000D03*
%TO.P,A1,15,D12*%
%TO.N,Net-(A1-D12)*%
X184740000Y-73000000D03*
%TO.P,A1,16,D13*%
%TO.N,Net-(A1-D13)*%
X169500000Y-73000000D03*
%TO.P,A1,17,3V3*%
%TO.N,unconnected-(A1-3V3-Pad17)*%
X169500000Y-75540000D03*
%TO.P,A1,18,AREF*%
%TO.N,unconnected-(A1-AREF-Pad18)*%
X169500000Y-78080000D03*
%TO.P,A1,19,A0*%
%TO.N,/SW_PUSH1*%
X169500000Y-80620000D03*
%TO.P,A1,20,A1*%
%TO.N,/SW_PUSH2*%
X169500000Y-83160000D03*
%TO.P,A1,21,A2*%
%TO.N,/SW_FLIP*%
X169500000Y-85700000D03*
%TO.P,A1,22,A3*%
%TO.N,unconnected-(A1-A3-Pad22)*%
X169500000Y-88240000D03*
%TO.P,A1,23,A4*%
%TO.N,/SDA_DISPLAY*%
X169500000Y-90780000D03*
%TO.P,A1,24,A5*%
%TO.N,/SDL_DISPLAY*%
X169500000Y-93320000D03*
%TO.P,A1,25,A6*%
%TO.N,unconnected-(A1-A6-Pad25)*%
X169500000Y-95860000D03*
%TO.P,A1,26,A7*%
%TO.N,/PD_EN*%
X169500000Y-98400000D03*
%TO.P,A1,27,+5V*%
%TO.N,unconnected-(A1-+5V-Pad27)*%
X169500000Y-100940000D03*
%TO.P,A1,28,~{RESET}*%
%TO.N,unconnected-(A1-~{RESET}-Pad28)*%
X169500000Y-103480000D03*
%TO.P,A1,29,GND*%
%TO.N,GND*%
X169500000Y-106020000D03*
%TO.P,A1,30,VIN*%
%TO.N,Net-(A1-VIN)*%
X169500000Y-108560000D03*
%TD*%
D23*
%TO.P,U1,1,VCC*%
%TO.N,+3V3*%
X196000000Y-104880000D03*
D24*
%TO.P,U1,2,IO*%
%TO.N,/TEMP_SENS_OUT*%
X196000000Y-107420000D03*
%TO.P,U1,3,NC*%
%TO.N,unconnected-(U1-NC-Pad3)*%
X196000000Y-109960000D03*
%TO.P,U1,4,GND*%
%TO.N,GND*%
X196000000Y-112500000D03*
%TD*%
D14*
%TO.P,R4,1*%
%TO.N,/SW_PUSH1*%
X166000000Y-81000000D03*
%TO.P,R4,2*%
%TO.N,/SW_PUSH1_R*%
X164175000Y-81000000D03*
%TD*%
D25*
%TO.P,C2,1*%
%TO.N,+3V3*%
X196000000Y-101280000D03*
%TO.P,C2,2*%
%TO.N,GND*%
X197725000Y-101280000D03*
%TD*%
D13*
%TO.P,D1,1,K*%
%TO.N,GND*%
X196050000Y-81250000D03*
%TO.P,D1,2,A*%
%TO.N,Net-(D1-A)*%
X194000000Y-81250000D03*
%TD*%
D19*
%TO.P,R34,1*%
%TO.N,GND*%
X148200000Y-83425000D03*
%TO.P,R34,2*%
%TO.N,/SW_PUSH2_R*%
X148200000Y-81600000D03*
%TD*%
%TO.P,R13,1*%
%TO.N,GND*%
X148000000Y-93000000D03*
%TO.P,R13,2*%
%TO.N,/SW_FLIP_R*%
X148000000Y-91175000D03*
%TD*%
D14*
%TO.P,R9,1*%
%TO.N,Net-(D1-A)*%
X190825000Y-81250000D03*
%TO.P,R9,2*%
%TO.N,/LED1*%
X189000000Y-81250000D03*
%TD*%
D26*
%TO.P,SW3,1,1*%
%TO.N,+3V3*%
X158600000Y-79100000D03*
X152100000Y-79100000D03*
%TO.P,SW3,2,2*%
%TO.N,/SW_PUSH2_R*%
X158600000Y-83600000D03*
X152100000Y-83600000D03*
%TD*%
D15*
%TO.P,J2,1,Pin_1*%
%TO.N,/SDA_DISPLAY*%
X177400000Y-118600000D03*
D16*
%TO.P,J2,2,Pin_2*%
%TO.N,/SDL_DISPLAY*%
X174860000Y-118600000D03*
%TO.P,J2,3,Pin_3*%
%TO.N,+3V3*%
X172320000Y-118600000D03*
%TO.P,J2,4,Pin_4*%
%TO.N,GND*%
X169780000Y-118600000D03*
%TD*%
D26*
%TO.P,SW2,1,1*%
%TO.N,+3V3*%
X158600000Y-69700000D03*
X152100000Y-69700000D03*
%TO.P,SW2,2,2*%
%TO.N,/SW_PUSH1_R*%
X158600000Y-74200000D03*
X152100000Y-74200000D03*
%TD*%
%TO.P,SW1,1,1*%
%TO.N,+3V3*%
X152200000Y-93100000D03*
X158700000Y-93100000D03*
%TO.P,SW1,2,2*%
%TO.N,/SW_FLIP_R*%
X152200000Y-88600000D03*
X158700000Y-88600000D03*
%TD*%
D27*
%TO.N,GND*%
X187600000Y-75400000D03*
X198500000Y-96500000D03*
X196000000Y-94000000D03*
X198800000Y-73200000D03*
X197000000Y-76600000D03*
X194600000Y-71400000D03*
X190800000Y-75200000D03*
X187600000Y-71000000D03*
%TO.N,/TEMP_SENS_OUT*%
X189200000Y-98800000D03*
%TO.N,+3V3*%
X164000000Y-97200000D03*
X161000000Y-91500000D03*
X189000000Y-94000000D03*
X196000000Y-99680000D03*
X160600000Y-97200000D03*
X195200000Y-74800000D03*
X161000000Y-94500000D03*
X148500000Y-114500000D03*
%TO.N,SPI_3V3_ADC_SCLK*%
X162500000Y-73500000D03*
%TD*%
D28*
%TO.N,/TEMP_SENS_OUT*%
X184740000Y-98400000D02*
X188000000Y-98400000D01*
X188800000Y-98400000D02*
X189200000Y-98800000D01*
X188000000Y-98400000D02*
X188800000Y-98400000D01*
X188000000Y-98400000D02*
X189000000Y-97400000D01*
%TO.N,/PD_EN*%
X153000000Y-102920000D02*
X161880000Y-102920000D01*
X166400000Y-98400000D02*
X169500000Y-98400000D01*
X161880000Y-102920000D02*
X166400000Y-98400000D01*
%TO.N,/LED3*%
X186350000Y-85700000D02*
X187900000Y-87250000D01*
X187900000Y-87250000D02*
X189000000Y-87250000D01*
X184740000Y-85700000D02*
X186350000Y-85700000D01*
%TO.N,/LED2*%
X186160000Y-83160000D02*
X187250000Y-84250000D01*
X184740000Y-83160000D02*
X186160000Y-83160000D01*
X187250000Y-84250000D02*
X189000000Y-84250000D01*
%TO.N,/LED1*%
X189000000Y-81250000D02*
X187250000Y-81250000D01*
X187250000Y-81250000D02*
X186620000Y-80620000D01*
X186620000Y-80620000D02*
X184740000Y-80620000D01*
%TO.N,Net-(A1-D10)*%
X187170000Y-78080000D02*
X184740000Y-78080000D01*
X189000000Y-77500000D02*
X187750000Y-77500000D01*
X187750000Y-77500000D02*
X187170000Y-78080000D01*
%TO.N,Net-(A1-D12)*%
X184740000Y-73000000D02*
X189000000Y-73000000D01*
%TO.N,Net-(A1-D13)*%
X166000000Y-73000000D02*
X169500000Y-73000000D01*
%TO.N,/SW_PUSH1*%
X169500000Y-80620000D02*
X167980000Y-80620000D01*
X167600000Y-81000000D02*
X166000000Y-81000000D01*
X167980000Y-80620000D02*
X167600000Y-81000000D01*
%TO.N,/SW_PUSH2*%
X168240000Y-83160000D02*
X167400000Y-84000000D01*
X169500000Y-83160000D02*
X168240000Y-83160000D01*
X167400000Y-84000000D02*
X166000000Y-84000000D01*
%TO.N,/SW_FLIP*%
X168200000Y-87000000D02*
X166000000Y-87000000D01*
X169500000Y-85700000D02*
X168200000Y-87000000D01*
%TO.N,/SDA_DISPLAY*%
X166000000Y-90800000D02*
X166020000Y-90780000D01*
X177400000Y-98680000D02*
X177400000Y-118600000D01*
X166020000Y-90780000D02*
X169500000Y-90780000D01*
X169500000Y-90780000D02*
X177400000Y-98680000D01*
%TO.N,/SDL_DISPLAY*%
X166000000Y-94000000D02*
X167000000Y-94000000D01*
X174860000Y-118600000D02*
X176800000Y-116660000D01*
X176800000Y-116660000D02*
X176800000Y-98800000D01*
X167000000Y-94000000D02*
X167680000Y-93320000D01*
X176800000Y-98800000D02*
X171320000Y-93320000D01*
X167680000Y-93320000D02*
X169500000Y-93320000D01*
X171320000Y-93320000D02*
X169500000Y-93320000D01*
D29*
%TO.N,Net-(A1-VIN)*%
X166000000Y-108600000D02*
X163250000Y-108600000D01*
X169460000Y-108600000D02*
X169500000Y-108560000D01*
X166000000Y-108600000D02*
X169460000Y-108600000D01*
X160890000Y-108290000D02*
X161200000Y-108600000D01*
X158750000Y-108290000D02*
X160890000Y-108290000D01*
X161200000Y-108600000D02*
X163250000Y-108600000D01*
%TO.N,+12V*%
X157450000Y-105750000D02*
X155200000Y-108000000D01*
X158750000Y-105750000D02*
X157450000Y-105750000D01*
X155200000Y-108000000D02*
X153000000Y-108000000D01*
X153000000Y-111400000D02*
X153000000Y-108000000D01*
%TO.N,+3V3*%
X196000000Y-104880000D02*
X196000000Y-101280000D01*
D28*
X164175000Y-90800000D02*
X161700000Y-90800000D01*
X194737500Y-74337500D02*
X195200000Y-74800000D01*
D29*
X148800000Y-114200000D02*
X148500000Y-114500000D01*
X164000000Y-97200000D02*
X160600000Y-97200000D01*
D28*
X189000000Y-95575000D02*
X189000000Y-94000000D01*
X164175000Y-94000000D02*
X161500000Y-94000000D01*
X161700000Y-90800000D02*
X161000000Y-91500000D01*
X193587500Y-74337500D02*
X194737500Y-74337500D01*
X161500000Y-94000000D02*
X161000000Y-94500000D01*
D29*
X196000000Y-101280000D02*
X196000000Y-99680000D01*
X148800000Y-113000000D02*
X148800000Y-114200000D01*
D28*
%TO.N,Net-(D1-A)*%
X190825000Y-81250000D02*
X194000000Y-81250000D01*
%TO.N,Net-(D2-A)*%
X190825000Y-84250000D02*
X194000000Y-84250000D01*
%TO.N,Net-(D3-A)*%
X190825000Y-87250000D02*
X194000000Y-87250000D01*
%TO.N,SPI_3V3_ADC_CS*%
X192000000Y-100363604D02*
X192000000Y-109400000D01*
X194412500Y-76162500D02*
X193587500Y-76162500D01*
X198300000Y-80050000D02*
X198300000Y-94063604D01*
X190825000Y-77500000D02*
X195750000Y-77500000D01*
X195750000Y-77500000D02*
X194412500Y-76162500D01*
X192000000Y-109400000D02*
X177600000Y-123800000D01*
X198300000Y-94063604D02*
X192000000Y-100363604D01*
X177600000Y-123800000D02*
X167600000Y-123800000D01*
X195750000Y-77500000D02*
X198300000Y-80050000D01*
%TO.N,SPI_3V3_ADC_MISO*%
X165060000Y-123800000D02*
X166760000Y-125500000D01*
X192500000Y-100500000D02*
X198750000Y-94250000D01*
X196000000Y-73000000D02*
X190825000Y-73000000D01*
X192500000Y-109536396D02*
X192500000Y-100500000D01*
X198750000Y-94250000D02*
X198750000Y-75750000D01*
X169000000Y-125500000D02*
X170250000Y-124250000D01*
X198750000Y-75750000D02*
X196000000Y-73000000D01*
X166760000Y-125500000D02*
X169000000Y-125500000D01*
X170250000Y-124250000D02*
X177786396Y-124250000D01*
X177786396Y-124250000D02*
X192500000Y-109536396D01*
%TO.N,SPI_3V3_ADC_SCLK*%
X163000000Y-73000000D02*
X162500000Y-73500000D01*
X164175000Y-73000000D02*
X163000000Y-73000000D01*
%TO.N,/SW_PUSH1_R*%
X158600000Y-74200000D02*
X158600000Y-76400000D01*
X163200000Y-81000000D02*
X158800000Y-76600000D01*
X154512500Y-72312500D02*
X148600000Y-72312500D01*
X156400000Y-74200000D02*
X154512500Y-72312500D01*
X158800000Y-76600000D02*
X158500000Y-76300000D01*
X152100000Y-74200000D02*
X156400000Y-74200000D01*
X158800000Y-76600000D02*
X156400000Y-74200000D01*
X164175000Y-81000000D02*
X163200000Y-81000000D01*
X158600000Y-76400000D02*
X158800000Y-76600000D01*
%TO.N,/SW_PUSH2_R*%
X161200000Y-84000000D02*
X158800000Y-81600000D01*
X154100000Y-81600000D02*
X154200000Y-81600000D01*
X161200000Y-84000000D02*
X160800000Y-83600000D01*
X148200000Y-81600000D02*
X154000000Y-81600000D01*
X164175000Y-84000000D02*
X161200000Y-84000000D01*
X154200000Y-81600000D02*
X154000000Y-81600000D01*
X152100000Y-83600000D02*
X154100000Y-81600000D01*
X158600000Y-83600000D02*
X160800000Y-83600000D01*
X158800000Y-81600000D02*
X154200000Y-81600000D01*
%TO.N,/SW_FLIP_R*%
X160300000Y-87000000D02*
X160600000Y-87000000D01*
X148000000Y-89600000D02*
X148000000Y-91175000D01*
X160200000Y-87000000D02*
X160600000Y-87000000D01*
X153700000Y-87000000D02*
X154800000Y-87000000D01*
X160600000Y-87000000D02*
X154800000Y-87000000D01*
X153800000Y-87000000D02*
X154400000Y-87000000D01*
X150600000Y-87000000D02*
X148000000Y-89600000D01*
X158700000Y-88600000D02*
X160300000Y-87000000D01*
X154800000Y-87000000D02*
X154400000Y-87000000D01*
X154400000Y-87000000D02*
X150600000Y-87000000D01*
X152200000Y-88600000D02*
X153800000Y-87000000D01*
X164175000Y-87000000D02*
X160600000Y-87000000D01*
D29*
%TO.N,Net-(H1-Pad1)*%
X196187500Y-122412500D02*
X196200000Y-122400000D01*
X191000000Y-122412500D02*
X196187500Y-122412500D01*
%TO.N,Net-(H2-Pad1)*%
X151387500Y-61587500D02*
X151200000Y-61400000D01*
X156500000Y-61587500D02*
X151387500Y-61587500D01*
%TO.N,Net-(H3-Pad1)*%
X196187500Y-61412500D02*
X196200000Y-61400000D01*
X191000000Y-61412500D02*
X196187500Y-61412500D01*
%TO.N,Net-(H4-Pad1)*%
X151175000Y-117000000D02*
X151175000Y-122375000D01*
X151175000Y-122375000D02*
X151200000Y-122400000D01*
%TD*%
%TA.AperFunction,Conductor*%
%TO.N,GND*%
G36*
X168352851Y-99045185D02*
G01*
X168387387Y-99078377D01*
X168499953Y-99239140D01*
X168660859Y-99400046D01*
X168847263Y-99530566D01*
X168847266Y-99530568D01*
X168905275Y-99557618D01*
X168957714Y-99603791D01*
X168976865Y-99670985D01*
X168956649Y-99737866D01*
X168905275Y-99782382D01*
X168847263Y-99809433D01*
X168660859Y-99939953D01*
X168499953Y-100100859D01*
X168369432Y-100287264D01*
X168273261Y-100493502D01*
X168214364Y-100713310D01*
X168194531Y-100940000D01*
X168214364Y-101166689D01*
X168273261Y-101386497D01*
X168369432Y-101592735D01*
X168499953Y-101779140D01*
X168660859Y-101940046D01*
X168847263Y-102070566D01*
X168847266Y-102070568D01*
X168904683Y-102097342D01*
X168905275Y-102097618D01*
X168957714Y-102143791D01*
X168976865Y-102210985D01*
X168956649Y-102277866D01*
X168905275Y-102322381D01*
X168884576Y-102332033D01*
X168847263Y-102349433D01*
X168660859Y-102479953D01*
X168499953Y-102640859D01*
X168369432Y-102827264D01*
X168273261Y-103033502D01*
X168214364Y-103253310D01*
X168194531Y-103479999D01*
X168214364Y-103706689D01*
X168273261Y-103926497D01*
X168369432Y-104132735D01*
X168499953Y-104319140D01*
X168660859Y-104480046D01*
X168847264Y-104610567D01*
X168847265Y-104610567D01*
X168847266Y-104610568D01*
X168905865Y-104637893D01*
X168958304Y-104684065D01*
X168977456Y-104751259D01*
X168957240Y-104818140D01*
X168905866Y-104862656D01*
X168847522Y-104889863D01*
X168661180Y-105020341D01*
X168500341Y-105181180D01*
X168369865Y-105367519D01*
X168273733Y-105573673D01*
X168261320Y-105620000D01*
X169198103Y-105620000D01*
X169118239Y-105689202D01*
X169040507Y-105810156D01*
X169000000Y-105948111D01*
X169000000Y-106091889D01*
X169040507Y-106229844D01*
X169118239Y-106350798D01*
X169198103Y-106420000D01*
X168261320Y-106420000D01*
X168273733Y-106466326D01*
X168369865Y-106672480D01*
X168500341Y-106858819D01*
X168661180Y-107019658D01*
X168847519Y-107150134D01*
X168905865Y-107177342D01*
X168958304Y-107223514D01*
X168977456Y-107290708D01*
X168957240Y-107357589D01*
X168905866Y-107402105D01*
X168847267Y-107429430D01*
X168660859Y-107559953D01*
X168657632Y-107563181D01*
X168596309Y-107596666D01*
X168569951Y-107599500D01*
X167045491Y-107599500D01*
X166978452Y-107579815D01*
X166932697Y-107527011D01*
X166922753Y-107457853D01*
X166927785Y-107436496D01*
X166964681Y-107325151D01*
X166969805Y-107275000D01*
X165030196Y-107275000D01*
X165035318Y-107325150D01*
X165072215Y-107436496D01*
X165074617Y-107506325D01*
X165038885Y-107566366D01*
X164976365Y-107597559D01*
X164954509Y-107599500D01*
X164295491Y-107599500D01*
X164228452Y-107579815D01*
X164182697Y-107527011D01*
X164172753Y-107457853D01*
X164177785Y-107436496D01*
X164214681Y-107325151D01*
X164219805Y-107275000D01*
X162280196Y-107275000D01*
X162285318Y-107325150D01*
X162322215Y-107436496D01*
X162324617Y-107506325D01*
X162288885Y-107566366D01*
X162226365Y-107597559D01*
X162204509Y-107599500D01*
X161667238Y-107599500D01*
X161600199Y-107579815D01*
X161577363Y-107560931D01*
X161576433Y-107559953D01*
X161545059Y-107526947D01*
X161545058Y-107526946D01*
X161496642Y-107493247D01*
X161489119Y-107487575D01*
X161443405Y-107450300D01*
X161416440Y-107436215D01*
X161403019Y-107428084D01*
X161378049Y-107410705D01*
X161378048Y-107410704D01*
X161378046Y-107410703D01*
X161323845Y-107387443D01*
X161315336Y-107383402D01*
X161263053Y-107356092D01*
X161257126Y-107354396D01*
X161233798Y-107347721D01*
X161219020Y-107342459D01*
X161191058Y-107330460D01*
X161133272Y-107318583D01*
X161124128Y-107316338D01*
X161067421Y-107300113D01*
X161037075Y-107297802D01*
X161021534Y-107295622D01*
X160991742Y-107289500D01*
X160991741Y-107289500D01*
X160932758Y-107289500D01*
X160923344Y-107289142D01*
X160914198Y-107288445D01*
X160864524Y-107284663D01*
X160864523Y-107284663D01*
X160864522Y-107284663D01*
X160834349Y-107288506D01*
X160818683Y-107289500D01*
X159870858Y-107289500D01*
X159803819Y-107269815D01*
X159758064Y-107217011D01*
X159748120Y-107147853D01*
X159777145Y-107084297D01*
X159827521Y-107049319D01*
X159842331Y-107043796D01*
X159957546Y-106957546D01*
X160043796Y-106842331D01*
X160094091Y-106707483D01*
X160100500Y-106647873D01*
X160100500Y-106474999D01*
X162280195Y-106474999D01*
X162280196Y-106475000D01*
X162850000Y-106475000D01*
X162850000Y-105851910D01*
X163650000Y-105851910D01*
X163650000Y-106475000D01*
X164219803Y-106475000D01*
X164219803Y-106474999D01*
X165030195Y-106474999D01*
X165030196Y-106475000D01*
X165599999Y-106475000D01*
X165599999Y-105851910D01*
X166400000Y-105851910D01*
X166400000Y-106475000D01*
X166969803Y-106475000D01*
X166964681Y-106424849D01*
X166910453Y-106261198D01*
X166819943Y-106114459D01*
X166698038Y-105992554D01*
X166551305Y-105902047D01*
X166400000Y-105851910D01*
X165599999Y-105851910D01*
X165448694Y-105902047D01*
X165301961Y-105992554D01*
X165180056Y-106114459D01*
X165089546Y-106261198D01*
X165035318Y-106424848D01*
X165030195Y-106474999D01*
X164219803Y-106474999D01*
X164214681Y-106424849D01*
X164160453Y-106261198D01*
X164069943Y-106114459D01*
X163948038Y-105992554D01*
X163801305Y-105902047D01*
X163650000Y-105851910D01*
X162850000Y-105851910D01*
X162698694Y-105902047D01*
X162551961Y-105992554D01*
X162430056Y-106114459D01*
X162339546Y-106261198D01*
X162285318Y-106424848D01*
X162280195Y-106474999D01*
X160100500Y-106474999D01*
X160100499Y-104852128D01*
X160094091Y-104792517D01*
X160043796Y-104657669D01*
X159957546Y-104542454D01*
X159842331Y-104456204D01*
X159707483Y-104405909D01*
X159647873Y-104399500D01*
X159644550Y-104399500D01*
X157855439Y-104399500D01*
X157855420Y-104399500D01*
X157852128Y-104399501D01*
X157848848Y-104399853D01*
X157848840Y-104399854D01*
X157792515Y-104405909D01*
X157657669Y-104456204D01*
X157542453Y-104542454D01*
X157456202Y-104657670D01*
X157451024Y-104671555D01*
X157409152Y-104727488D01*
X157356717Y-104750275D01*
X157315571Y-104757649D01*
X157306244Y-104758958D01*
X157247559Y-104764926D01*
X157218531Y-104774033D01*
X157203296Y-104777772D01*
X157173350Y-104783140D01*
X157118555Y-104805026D01*
X157109685Y-104808184D01*
X157053410Y-104825841D01*
X157026814Y-104840602D01*
X157012644Y-104847331D01*
X156984382Y-104858621D01*
X156935122Y-104891086D01*
X156927066Y-104895967D01*
X156875495Y-104924591D01*
X156852406Y-104944412D01*
X156839883Y-104953855D01*
X156814484Y-104970596D01*
X156772782Y-105012297D01*
X156765875Y-105018698D01*
X156721104Y-105057134D01*
X156702480Y-105081194D01*
X156692107Y-105092971D01*
X154821899Y-106963181D01*
X154760576Y-106996666D01*
X154734218Y-106999500D01*
X154414142Y-106999500D01*
X154347103Y-106979815D01*
X154301348Y-106927011D01*
X154297961Y-106918835D01*
X154296708Y-106915478D01*
X154293796Y-106907669D01*
X154207546Y-106792454D01*
X154092331Y-106706204D01*
X154002596Y-106672735D01*
X153960916Y-106657189D01*
X153904983Y-106615317D01*
X153880566Y-106549853D01*
X153895418Y-106481580D01*
X153916563Y-106453332D01*
X154038495Y-106331401D01*
X154174035Y-106137830D01*
X154273903Y-105923663D01*
X154335063Y-105695408D01*
X154355659Y-105460000D01*
X154335063Y-105224592D01*
X154273903Y-104996337D01*
X154174035Y-104782171D01*
X154038495Y-104588599D01*
X153871401Y-104421505D01*
X153685839Y-104291573D01*
X153642215Y-104236997D01*
X153635023Y-104167498D01*
X153666545Y-104105144D01*
X153685831Y-104088432D01*
X153871401Y-103958495D01*
X154038495Y-103791401D01*
X154173653Y-103598374D01*
X154228229Y-103554752D01*
X154275227Y-103545500D01*
X161797256Y-103545500D01*
X161817762Y-103547764D01*
X161820665Y-103547672D01*
X161820667Y-103547673D01*
X161887872Y-103545561D01*
X161891768Y-103545500D01*
X161915448Y-103545500D01*
X161919350Y-103545500D01*
X161923313Y-103544999D01*
X161934962Y-103544080D01*
X161978627Y-103542709D01*
X161997859Y-103537120D01*
X162016918Y-103533174D01*
X162023196Y-103532381D01*
X162036792Y-103530664D01*
X162077407Y-103514582D01*
X162088444Y-103510803D01*
X162130390Y-103498618D01*
X162147629Y-103488422D01*
X162165102Y-103479862D01*
X162183732Y-103472486D01*
X162219064Y-103446814D01*
X162228830Y-103440400D01*
X162266418Y-103418171D01*
X162266417Y-103418171D01*
X162266420Y-103418170D01*
X162280585Y-103404004D01*
X162295373Y-103391373D01*
X162311587Y-103379594D01*
X162339438Y-103345926D01*
X162347279Y-103337309D01*
X166622771Y-99061819D01*
X166684095Y-99028334D01*
X166710453Y-99025500D01*
X168285812Y-99025500D01*
X168352851Y-99045185D01*
G37*
%TD.AperFunction*%
%TA.AperFunction,Conductor*%
G36*
X188120058Y-73645185D02*
G01*
X188158559Y-73684405D01*
X188167161Y-73698352D01*
X188289147Y-73820338D01*
X188289149Y-73820339D01*
X188289150Y-73820340D01*
X188319628Y-73839139D01*
X188435984Y-73910908D01*
X188599746Y-73965174D01*
X188697690Y-73975180D01*
X188697691Y-73975180D01*
X188700823Y-73975500D01*
X189299176Y-73975499D01*
X189400253Y-73965174D01*
X189564016Y-73910908D01*
X189710850Y-73820340D01*
X189764043Y-73767147D01*
X189824819Y-73706372D01*
X189886142Y-73672887D01*
X189955834Y-73677871D01*
X190000181Y-73706372D01*
X190114147Y-73820338D01*
X190114149Y-73820339D01*
X190114150Y-73820340D01*
X190144628Y-73839139D01*
X190260984Y-73910908D01*
X190424746Y-73965174D01*
X190522690Y-73975180D01*
X190522691Y-73975180D01*
X190525823Y-73975500D01*
X191124176Y-73975499D01*
X191225253Y-73965174D01*
X191389016Y-73910908D01*
X191535850Y-73820340D01*
X191657840Y-73698350D01*
X191666441Y-73684404D01*
X191718389Y-73637679D01*
X191771981Y-73625500D01*
X192553909Y-73625500D01*
X192620948Y-73645185D01*
X192666703Y-73697989D01*
X192676647Y-73767147D01*
X192671615Y-73788504D01*
X192622325Y-73937246D01*
X192612319Y-74035190D01*
X192612317Y-74035210D01*
X192612000Y-74038323D01*
X192612000Y-74041470D01*
X192612000Y-74041471D01*
X192612000Y-74633526D01*
X192612000Y-74633545D01*
X192612001Y-74636676D01*
X192612320Y-74639808D01*
X192612321Y-74639809D01*
X192622325Y-74737752D01*
X192676591Y-74901515D01*
X192767161Y-75048352D01*
X192881128Y-75162319D01*
X192914613Y-75223642D01*
X192909629Y-75293334D01*
X192881128Y-75337681D01*
X192767161Y-75451647D01*
X192676591Y-75598484D01*
X192622325Y-75762246D01*
X192612319Y-75860190D01*
X192612317Y-75860210D01*
X192612000Y-75863323D01*
X192612000Y-75866470D01*
X192612000Y-75866471D01*
X192612000Y-76458526D01*
X192612000Y-76458545D01*
X192612001Y-76461676D01*
X192612320Y-76464808D01*
X192612321Y-76464809D01*
X192622325Y-76562752D01*
X192671615Y-76711496D01*
X192674017Y-76781324D01*
X192638285Y-76841366D01*
X192575765Y-76872559D01*
X192553909Y-76874500D01*
X191771981Y-76874500D01*
X191704942Y-76854815D01*
X191666441Y-76815595D01*
X191657838Y-76801647D01*
X191535852Y-76679661D01*
X191389015Y-76589091D01*
X191225253Y-76534825D01*
X191127309Y-76524819D01*
X191127290Y-76524818D01*
X191124177Y-76524500D01*
X191121028Y-76524500D01*
X190528973Y-76524500D01*
X190528953Y-76524500D01*
X190525824Y-76524501D01*
X190522692Y-76524820D01*
X190522690Y-76524821D01*
X190424747Y-76534825D01*
X190260984Y-76589091D01*
X190114147Y-76679661D01*
X190000181Y-76793628D01*
X189938858Y-76827113D01*
X189869166Y-76822129D01*
X189824819Y-76793628D01*
X189710852Y-76679661D01*
X189564015Y-76589091D01*
X189400253Y-76534825D01*
X189302309Y-76524819D01*
X189302290Y-76524818D01*
X189299177Y-76524500D01*
X189296028Y-76524500D01*
X188703973Y-76524500D01*
X188703953Y-76524500D01*
X188700824Y-76524501D01*
X188697692Y-76524820D01*
X188697690Y-76524821D01*
X188599747Y-76534825D01*
X188435984Y-76589091D01*
X188289147Y-76679661D01*
X188167161Y-76801647D01*
X188158559Y-76815595D01*
X188106611Y-76862321D01*
X188053019Y-76874500D01*
X187832744Y-76874500D01*
X187812237Y-76872235D01*
X187742127Y-76874439D01*
X187738232Y-76874500D01*
X187710650Y-76874500D01*
X187706805Y-76874985D01*
X187706780Y-76874987D01*
X187706653Y-76875004D01*
X187695033Y-76875918D01*
X187651369Y-76877290D01*
X187632129Y-76882880D01*
X187613081Y-76886825D01*
X187593209Y-76889335D01*
X187552599Y-76905413D01*
X187541554Y-76909194D01*
X187499610Y-76921381D01*
X187482365Y-76931579D01*
X187464904Y-76940133D01*
X187446267Y-76947512D01*
X187410931Y-76973185D01*
X187401174Y-76979595D01*
X187363580Y-77001829D01*
X187349413Y-77015996D01*
X187334624Y-77028626D01*
X187318413Y-77040404D01*
X187290572Y-77074058D01*
X187282711Y-77082697D01*
X186947228Y-77418181D01*
X186885905Y-77451666D01*
X186859547Y-77454500D01*
X185954188Y-77454500D01*
X185887149Y-77434815D01*
X185852613Y-77401623D01*
X185740046Y-77240859D01*
X185579140Y-77079953D01*
X185392733Y-76949431D01*
X185334725Y-76922382D01*
X185282285Y-76876210D01*
X185263133Y-76809017D01*
X185283348Y-76742135D01*
X185334725Y-76697618D01*
X185392734Y-76670568D01*
X185579139Y-76540047D01*
X185740047Y-76379139D01*
X185870568Y-76192734D01*
X185966739Y-75986496D01*
X186025635Y-75766692D01*
X186045468Y-75540000D01*
X186025635Y-75313308D01*
X185966739Y-75093504D01*
X185870568Y-74887266D01*
X185841817Y-74846204D01*
X185740046Y-74700859D01*
X185579140Y-74539953D01*
X185392733Y-74409431D01*
X185334725Y-74382382D01*
X185282285Y-74336210D01*
X185263133Y-74269017D01*
X185283348Y-74202135D01*
X185334725Y-74157618D01*
X185392734Y-74130568D01*
X185579139Y-74000047D01*
X185740047Y-73839139D01*
X185806737Y-73743895D01*
X185852613Y-73678377D01*
X185907189Y-73634752D01*
X185954188Y-73625500D01*
X188053019Y-73625500D01*
X188120058Y-73645185D01*
G37*
%TD.AperFunction*%
%TA.AperFunction,Conductor*%
G36*
X195756587Y-73645185D02*
G01*
X195777229Y-73661818D01*
X198088182Y-75972772D01*
X198121666Y-76034093D01*
X198124500Y-76060451D01*
X198124500Y-78690547D01*
X198104815Y-78757586D01*
X198052011Y-78803341D01*
X197982853Y-78813285D01*
X197919297Y-78784260D01*
X197912819Y-78778228D01*
X196250802Y-77116211D01*
X196237906Y-77100113D01*
X196186775Y-77052098D01*
X196183978Y-77049387D01*
X196164480Y-77029889D01*
X196164471Y-77029880D01*
X196164466Y-77029876D01*
X195659090Y-76524500D01*
X195046772Y-75912181D01*
X195013287Y-75850858D01*
X195018271Y-75781166D01*
X195060143Y-75725233D01*
X195125607Y-75700816D01*
X195134453Y-75700500D01*
X195294648Y-75700500D01*
X195418083Y-75674262D01*
X195479803Y-75661144D01*
X195652730Y-75584151D01*
X195700679Y-75549314D01*
X195805870Y-75472889D01*
X195824997Y-75451647D01*
X195932533Y-75332216D01*
X196027179Y-75168284D01*
X196085674Y-74988256D01*
X196105460Y-74800000D01*
X196085674Y-74611744D01*
X196032412Y-74447821D01*
X196027179Y-74431715D01*
X195932533Y-74267783D01*
X195805870Y-74127110D01*
X195652730Y-74015848D01*
X195479802Y-73938855D01*
X195294648Y-73899500D01*
X195294646Y-73899500D01*
X195234890Y-73899500D01*
X195167851Y-73879815D01*
X195153771Y-73869180D01*
X195151971Y-73867380D01*
X195148908Y-73865003D01*
X195148898Y-73864995D01*
X195148790Y-73864912D01*
X195139922Y-73857337D01*
X195121342Y-73839890D01*
X195085949Y-73779649D01*
X195088743Y-73709835D01*
X195128838Y-73652615D01*
X195193503Y-73626155D01*
X195206228Y-73625500D01*
X195689548Y-73625500D01*
X195756587Y-73645185D01*
G37*
%TD.AperFunction*%
%TA.AperFunction,Conductor*%
G36*
X200942539Y-56620185D02*
G01*
X200988294Y-56672989D01*
X200999500Y-56724500D01*
X200999500Y-127075500D01*
X200979815Y-127142539D01*
X200927011Y-127188294D01*
X200875500Y-127199500D01*
X146524500Y-127199500D01*
X146457461Y-127179815D01*
X146411706Y-127127011D01*
X146400500Y-127075500D01*
X146400500Y-122400000D01*
X147494422Y-122400000D01*
X147494592Y-122403243D01*
X147510756Y-122711676D01*
X147514722Y-122787338D01*
X147515227Y-122790531D01*
X147515229Y-122790543D01*
X147574889Y-123167224D01*
X147574891Y-123167237D01*
X147575398Y-123170433D01*
X147576235Y-123173557D01*
X147576237Y-123173566D01*
X147665019Y-123504905D01*
X147675786Y-123545087D01*
X147676943Y-123548102D01*
X147676945Y-123548108D01*
X147814786Y-123907194D01*
X147816255Y-123910077D01*
X147816259Y-123910086D01*
X147976691Y-124224952D01*
X147990875Y-124252789D01*
X148202124Y-124578084D01*
X148299127Y-124697873D01*
X148436182Y-124867122D01*
X148446219Y-124879516D01*
X148720484Y-125153781D01*
X149021916Y-125397876D01*
X149347211Y-125609125D01*
X149692806Y-125785214D01*
X150054913Y-125924214D01*
X150429567Y-126024602D01*
X150812662Y-126085278D01*
X151200000Y-126105578D01*
X151587338Y-126085278D01*
X151970433Y-126024602D01*
X152345087Y-125924214D01*
X152707194Y-125785214D01*
X153052789Y-125609125D01*
X153378084Y-125397876D01*
X153679516Y-125153781D01*
X153953781Y-124879516D01*
X154197876Y-124578084D01*
X154409125Y-124252789D01*
X154436022Y-124200000D01*
X158689557Y-124200000D01*
X158706569Y-124263491D01*
X158806399Y-124477576D01*
X158941893Y-124671081D01*
X159108918Y-124838106D01*
X159302423Y-124973600D01*
X159516508Y-125073430D01*
X159580000Y-125090442D01*
X159580000Y-124200000D01*
X158689557Y-124200000D01*
X154436022Y-124200000D01*
X154585214Y-123907194D01*
X154598766Y-123871889D01*
X159480000Y-123871889D01*
X159520507Y-124009844D01*
X159598239Y-124130798D01*
X159706900Y-124224952D01*
X159837685Y-124284680D01*
X159944237Y-124300000D01*
X160015763Y-124300000D01*
X160122315Y-124284680D01*
X160253100Y-124224952D01*
X160361761Y-124130798D01*
X160380000Y-124102417D01*
X160380000Y-125090441D01*
X160443491Y-125073430D01*
X160657576Y-124973600D01*
X160851081Y-124838106D01*
X161018109Y-124671078D01*
X161148119Y-124485405D01*
X161202696Y-124441780D01*
X161272194Y-124434586D01*
X161334549Y-124466109D01*
X161351265Y-124485400D01*
X161481505Y-124671401D01*
X161648599Y-124838495D01*
X161842170Y-124974035D01*
X162056337Y-125073903D01*
X162284592Y-125135063D01*
X162520000Y-125155659D01*
X162755408Y-125135063D01*
X162983663Y-125073903D01*
X163197830Y-124974035D01*
X163391401Y-124838495D01*
X163558495Y-124671401D01*
X163688426Y-124485839D01*
X163743002Y-124442216D01*
X163812500Y-124435022D01*
X163874855Y-124466545D01*
X163891571Y-124485837D01*
X164021505Y-124671401D01*
X164188599Y-124838495D01*
X164382170Y-124974035D01*
X164596337Y-125073903D01*
X164824592Y-125135062D01*
X164824592Y-125135063D01*
X165059999Y-125155659D01*
X165059999Y-125155658D01*
X165060000Y-125155659D01*
X165295408Y-125135063D01*
X165395873Y-125108143D01*
X165465721Y-125109806D01*
X165515647Y-125140237D01*
X166259196Y-125883787D01*
X166272096Y-125899888D01*
X166323223Y-125947900D01*
X166326020Y-125950611D01*
X166345529Y-125970120D01*
X166348709Y-125972587D01*
X166357571Y-125980155D01*
X166389418Y-126010062D01*
X166406972Y-126019712D01*
X166423236Y-126030396D01*
X166434972Y-126039499D01*
X166439064Y-126042673D01*
X166463909Y-126053424D01*
X166479152Y-126060021D01*
X166489631Y-126065154D01*
X166527908Y-126086197D01*
X166547306Y-126091177D01*
X166565708Y-126097477D01*
X166584104Y-126105438D01*
X166627261Y-126112273D01*
X166638664Y-126114634D01*
X166680981Y-126125500D01*
X166701016Y-126125500D01*
X166720413Y-126127026D01*
X166740196Y-126130160D01*
X166783674Y-126126050D01*
X166795344Y-126125500D01*
X168917256Y-126125500D01*
X168937762Y-126127764D01*
X168940665Y-126127672D01*
X168940667Y-126127673D01*
X169007872Y-126125561D01*
X169011768Y-126125500D01*
X169035448Y-126125500D01*
X169039350Y-126125500D01*
X169043313Y-126124999D01*
X169054962Y-126124080D01*
X169098627Y-126122709D01*
X169117859Y-126117120D01*
X169136918Y-126113174D01*
X169144091Y-126112268D01*
X169156792Y-126110664D01*
X169197407Y-126094582D01*
X169208444Y-126090803D01*
X169250390Y-126078618D01*
X169267629Y-126068422D01*
X169285102Y-126059862D01*
X169303732Y-126052486D01*
X169339064Y-126026814D01*
X169348830Y-126020400D01*
X169386418Y-125998171D01*
X169386417Y-125998171D01*
X169386420Y-125998170D01*
X169400585Y-125984004D01*
X169415373Y-125971373D01*
X169431587Y-125959594D01*
X169459438Y-125925926D01*
X169467279Y-125917309D01*
X170472771Y-124911819D01*
X170534095Y-124878334D01*
X170560453Y-124875500D01*
X177703652Y-124875500D01*
X177724158Y-124877764D01*
X177727061Y-124877672D01*
X177727063Y-124877673D01*
X177794268Y-124875561D01*
X177798164Y-124875500D01*
X177821844Y-124875500D01*
X177825746Y-124875500D01*
X177829709Y-124874999D01*
X177841358Y-124874080D01*
X177885023Y-124872709D01*
X177904255Y-124867120D01*
X177923314Y-124863174D01*
X177929592Y-124862381D01*
X177943188Y-124860664D01*
X177983803Y-124844582D01*
X177994840Y-124840803D01*
X178036786Y-124828618D01*
X178054025Y-124818422D01*
X178071498Y-124809862D01*
X178090128Y-124802486D01*
X178125460Y-124776814D01*
X178135226Y-124770400D01*
X178137018Y-124769340D01*
X178172816Y-124748170D01*
X178186981Y-124734004D01*
X178201769Y-124721373D01*
X178217983Y-124709594D01*
X178245834Y-124675926D01*
X178253675Y-124667309D01*
X178720984Y-124200000D01*
X182969557Y-124200000D01*
X182986569Y-124263491D01*
X183086399Y-124477576D01*
X183221893Y-124671081D01*
X183388918Y-124838106D01*
X183582423Y-124973600D01*
X183796508Y-125073430D01*
X183859998Y-125090442D01*
X183859999Y-125090442D01*
X183860000Y-124200000D01*
X182969557Y-124200000D01*
X178720984Y-124200000D01*
X179049095Y-123871889D01*
X183760000Y-123871889D01*
X183800507Y-124009844D01*
X183878239Y-124130798D01*
X183986900Y-124224952D01*
X184117685Y-124284680D01*
X184224237Y-124300000D01*
X184295763Y-124300000D01*
X184402315Y-124284680D01*
X184533100Y-124224952D01*
X184641761Y-124130798D01*
X184659999Y-124102417D01*
X184660000Y-125090441D01*
X184723491Y-125073430D01*
X184937576Y-124973600D01*
X185131077Y-124838109D01*
X185253133Y-124716053D01*
X185314456Y-124682568D01*
X185384148Y-124687552D01*
X185440082Y-124729423D01*
X185456996Y-124760399D01*
X185506204Y-124892331D01*
X185592454Y-125007546D01*
X185707669Y-125093796D01*
X185842517Y-125144091D01*
X185902127Y-125150500D01*
X187697872Y-125150499D01*
X187757483Y-125144091D01*
X187892331Y-125093796D01*
X188007546Y-125007546D01*
X188093796Y-124892331D01*
X188144091Y-124757483D01*
X188150500Y-124697873D01*
X188150499Y-122902128D01*
X188144091Y-122842517D01*
X188093796Y-122707669D01*
X188007546Y-122592454D01*
X187892331Y-122506204D01*
X187777669Y-122463438D01*
X189995631Y-122463438D01*
X190023070Y-122642554D01*
X190024500Y-122661328D01*
X190024500Y-122708526D01*
X190024500Y-122708544D01*
X190024501Y-122711676D01*
X190024820Y-122714808D01*
X190024821Y-122714809D01*
X190034825Y-122812752D01*
X190089091Y-122976515D01*
X190179661Y-123123352D01*
X190301647Y-123245338D01*
X190448484Y-123335908D01*
X190612246Y-123390174D01*
X190686535Y-123397763D01*
X190713323Y-123400500D01*
X190824818Y-123400499D01*
X190849780Y-123403037D01*
X190866556Y-123406484D01*
X190898259Y-123413000D01*
X192545244Y-123413000D01*
X192612283Y-123432685D01*
X192658038Y-123485489D01*
X192665018Y-123504905D01*
X192674944Y-123541949D01*
X192674947Y-123541957D01*
X192675786Y-123545087D01*
X192676941Y-123548096D01*
X192676945Y-123548108D01*
X192813622Y-123904162D01*
X192814786Y-123907194D01*
X192816255Y-123910077D01*
X192816259Y-123910086D01*
X192976691Y-124224952D01*
X192990875Y-124252789D01*
X193202124Y-124578084D01*
X193299127Y-124697873D01*
X193436182Y-124867122D01*
X193446219Y-124879516D01*
X193720484Y-125153781D01*
X194021916Y-125397876D01*
X194347211Y-125609125D01*
X194692806Y-125785214D01*
X195054913Y-125924214D01*
X195429567Y-126024602D01*
X195812662Y-126085278D01*
X196200000Y-126105578D01*
X196587338Y-126085278D01*
X196970433Y-126024602D01*
X197345087Y-125924214D01*
X197707194Y-125785214D01*
X198052789Y-125609125D01*
X198378084Y-125397876D01*
X198679516Y-125153781D01*
X198953781Y-124879516D01*
X199197876Y-124578084D01*
X199409125Y-124252789D01*
X199585214Y-123907194D01*
X199724214Y-123545087D01*
X199824602Y-123170433D01*
X199885278Y-122787338D01*
X199905578Y-122400000D01*
X199885278Y-122012662D01*
X199824602Y-121629567D01*
X199724214Y-121254913D01*
X199585214Y-120892806D01*
X199409125Y-120547211D01*
X199197876Y-120221916D01*
X198953781Y-119920484D01*
X198679516Y-119646219D01*
X198669976Y-119638494D01*
X198519412Y-119516569D01*
X198378084Y-119402124D01*
X198052789Y-119190875D01*
X198049901Y-119189403D01*
X198049895Y-119189400D01*
X197710086Y-119016259D01*
X197710077Y-119016255D01*
X197707194Y-119014786D01*
X197704162Y-119013622D01*
X197348110Y-118876946D01*
X197348102Y-118876943D01*
X197345087Y-118875786D01*
X197341962Y-118874948D01*
X197341957Y-118874947D01*
X196973566Y-118776237D01*
X196973557Y-118776235D01*
X196970433Y-118775398D01*
X196967237Y-118774891D01*
X196967224Y-118774889D01*
X196590543Y-118715229D01*
X196590531Y-118715227D01*
X196587338Y-118714722D01*
X196584103Y-118714552D01*
X196584099Y-118714552D01*
X196203244Y-118694592D01*
X196200000Y-118694422D01*
X196196756Y-118694592D01*
X195815900Y-118714552D01*
X195815894Y-118714552D01*
X195812662Y-118714722D01*
X195809470Y-118715227D01*
X195809456Y-118715229D01*
X195432775Y-118774889D01*
X195432758Y-118774892D01*
X195429567Y-118775398D01*
X195426446Y-118776234D01*
X195426433Y-118776237D01*
X195058042Y-118874947D01*
X195058031Y-118874950D01*
X195054913Y-118875786D01*
X195051902Y-118876941D01*
X195051889Y-118876946D01*
X194695837Y-119013622D01*
X194695828Y-119013625D01*
X194692806Y-119014786D01*
X194689929Y-119016251D01*
X194689913Y-119016259D01*
X194350104Y-119189400D01*
X194350090Y-119189408D01*
X194347211Y-119190875D01*
X194344491Y-119192641D01*
X194344483Y-119192646D01*
X194024644Y-119400352D01*
X194024638Y-119400355D01*
X194021916Y-119402124D01*
X194019396Y-119404164D01*
X194019390Y-119404169D01*
X193723002Y-119644179D01*
X193722991Y-119644188D01*
X193720484Y-119646219D01*
X193718199Y-119648503D01*
X193718189Y-119648513D01*
X193448513Y-119918189D01*
X193448503Y-119918199D01*
X193446219Y-119920484D01*
X193444188Y-119922991D01*
X193444179Y-119923002D01*
X193204169Y-120219390D01*
X193204164Y-120219396D01*
X193202124Y-120221916D01*
X193200355Y-120224638D01*
X193200352Y-120224644D01*
X192992646Y-120544483D01*
X192992641Y-120544491D01*
X192990875Y-120547211D01*
X192989408Y-120550090D01*
X192989400Y-120550104D01*
X192816259Y-120889913D01*
X192816251Y-120889929D01*
X192814786Y-120892806D01*
X192813625Y-120895828D01*
X192813622Y-120895837D01*
X192676946Y-121251889D01*
X192676941Y-121251902D01*
X192675786Y-121254913D01*
X192674949Y-121258037D01*
X192658321Y-121320094D01*
X192621956Y-121379754D01*
X192559109Y-121410283D01*
X192538546Y-121412000D01*
X191971828Y-121412000D01*
X191904789Y-121392315D01*
X191859034Y-121339511D01*
X191849090Y-121270353D01*
X191866289Y-121222903D01*
X191910453Y-121151301D01*
X191964680Y-120987652D01*
X191964696Y-120987500D01*
X190035304Y-120987500D01*
X190035319Y-120987652D01*
X190089546Y-121151301D01*
X190180056Y-121298040D01*
X190293981Y-121411965D01*
X190327466Y-121473288D01*
X190322482Y-121542980D01*
X190293982Y-121587327D01*
X190179660Y-121701649D01*
X190089091Y-121848484D01*
X190034825Y-122012246D01*
X190024819Y-122110190D01*
X190024817Y-122110210D01*
X190024500Y-122113323D01*
X190024500Y-122116471D01*
X190024500Y-122172726D01*
X190020541Y-122203806D01*
X190005937Y-122260215D01*
X189996600Y-122444340D01*
X189995631Y-122463438D01*
X187777669Y-122463438D01*
X187757483Y-122455909D01*
X187697873Y-122449500D01*
X187694550Y-122449500D01*
X185905439Y-122449500D01*
X185905420Y-122449500D01*
X185902128Y-122449501D01*
X185898848Y-122449853D01*
X185898840Y-122449854D01*
X185842515Y-122455909D01*
X185707669Y-122506204D01*
X185592454Y-122592454D01*
X185506204Y-122707669D01*
X185456997Y-122839599D01*
X185415125Y-122895532D01*
X185349661Y-122919949D01*
X185281388Y-122905097D01*
X185253134Y-122883946D01*
X185131081Y-122761893D01*
X184937576Y-122626399D01*
X184723492Y-122526569D01*
X184660000Y-122509556D01*
X184659999Y-123497582D01*
X184641761Y-123469202D01*
X184533100Y-123375048D01*
X184402315Y-123315320D01*
X184295763Y-123300000D01*
X184224237Y-123300000D01*
X184117685Y-123315320D01*
X183986900Y-123375048D01*
X183878239Y-123469202D01*
X183800507Y-123590156D01*
X183760000Y-123728111D01*
X183760000Y-123871889D01*
X179049095Y-123871889D01*
X179520984Y-123400000D01*
X182969557Y-123400000D01*
X183859999Y-123400000D01*
X183859999Y-122509556D01*
X183859998Y-122509555D01*
X183796511Y-122526567D01*
X183582421Y-122626400D01*
X183388921Y-122761890D01*
X183221890Y-122928921D01*
X183086400Y-123122421D01*
X182986569Y-123336509D01*
X182969557Y-123400000D01*
X179520984Y-123400000D01*
X182733484Y-120187500D01*
X190035304Y-120187500D01*
X190600000Y-120187500D01*
X190600000Y-119614410D01*
X191400000Y-119614410D01*
X191400000Y-120187500D01*
X191964695Y-120187500D01*
X191964680Y-120187347D01*
X191910453Y-120023698D01*
X191819943Y-119876959D01*
X191698038Y-119755054D01*
X191551305Y-119664547D01*
X191400000Y-119614410D01*
X190600000Y-119614410D01*
X190448694Y-119664547D01*
X190301961Y-119755054D01*
X190180056Y-119876959D01*
X190089546Y-120023698D01*
X190035319Y-120187347D01*
X190035304Y-120187500D01*
X182733484Y-120187500D01*
X186487545Y-116433440D01*
X190632244Y-116433440D01*
X190803967Y-116485531D01*
X191000000Y-116504838D01*
X191196035Y-116485530D01*
X191367754Y-116433440D01*
X191367754Y-116433439D01*
X191000001Y-116065685D01*
X191000000Y-116065685D01*
X190632244Y-116433440D01*
X186487545Y-116433440D01*
X187420985Y-115500000D01*
X189995161Y-115500000D01*
X190014468Y-115696032D01*
X190066559Y-115867753D01*
X190434314Y-115500000D01*
X191565685Y-115500000D01*
X191933439Y-115867754D01*
X191933440Y-115867754D01*
X191985530Y-115696035D01*
X192004838Y-115500000D01*
X191985531Y-115303967D01*
X191933440Y-115132244D01*
X191565685Y-115500000D01*
X190434314Y-115500000D01*
X190066559Y-115132245D01*
X190014468Y-115303967D01*
X189995161Y-115500000D01*
X187420985Y-115500000D01*
X188354426Y-114566559D01*
X190632245Y-114566559D01*
X191000000Y-114934314D01*
X191000001Y-114934314D01*
X191367753Y-114566559D01*
X191196032Y-114514468D01*
X190999999Y-114495161D01*
X190803967Y-114514468D01*
X190632245Y-114566559D01*
X188354426Y-114566559D01*
X189300480Y-113620505D01*
X195445178Y-113620505D01*
X195570840Y-113679102D01*
X195782113Y-113735712D01*
X196000000Y-113754775D01*
X196217886Y-113735712D01*
X196429159Y-113679102D01*
X196554820Y-113620505D01*
X196000001Y-113065685D01*
X196000000Y-113065685D01*
X195445178Y-113620505D01*
X189300480Y-113620505D01*
X190420985Y-112500000D01*
X194745224Y-112500000D01*
X194764287Y-112717886D01*
X194820897Y-112929159D01*
X194879494Y-113054819D01*
X195434315Y-112500000D01*
X195595014Y-112500000D01*
X195614835Y-112625148D01*
X195672359Y-112738045D01*
X195761955Y-112827641D01*
X195874852Y-112885165D01*
X195968519Y-112900000D01*
X196031481Y-112900000D01*
X196125148Y-112885165D01*
X196238045Y-112827641D01*
X196327641Y-112738045D01*
X196385165Y-112625148D01*
X196404986Y-112500000D01*
X196565685Y-112500000D01*
X197120505Y-113054820D01*
X197179102Y-112929159D01*
X197235712Y-112717886D01*
X197254775Y-112500000D01*
X197235712Y-112282113D01*
X197179102Y-112070840D01*
X197120505Y-111945178D01*
X196565685Y-112499999D01*
X196565685Y-112500000D01*
X196404986Y-112500000D01*
X196385165Y-112374852D01*
X196327641Y-112261955D01*
X196238045Y-112172359D01*
X196125148Y-112114835D01*
X196031481Y-112100000D01*
X195968519Y-112100000D01*
X195874852Y-112114835D01*
X195761955Y-112172359D01*
X195672359Y-112261955D01*
X195614835Y-112374852D01*
X195595014Y-112500000D01*
X195434315Y-112500000D01*
X195434315Y-112499999D01*
X194879493Y-111945178D01*
X194820898Y-112070838D01*
X194764287Y-112282113D01*
X194745224Y-112500000D01*
X190420985Y-112500000D01*
X192883789Y-110037196D01*
X192899885Y-110024302D01*
X192901873Y-110022183D01*
X192901877Y-110022182D01*
X192947949Y-109973119D01*
X192950534Y-109970451D01*
X192960986Y-109960000D01*
X194744722Y-109960000D01*
X194763792Y-110177974D01*
X194797037Y-110302047D01*
X194820425Y-110389330D01*
X194912898Y-110587639D01*
X195038402Y-110766877D01*
X195193123Y-110921598D01*
X195372361Y-111047102D01*
X195524175Y-111117894D01*
X195576614Y-111164066D01*
X195595766Y-111231260D01*
X195575550Y-111298141D01*
X195524174Y-111342658D01*
X195445178Y-111379493D01*
X196000000Y-111934314D01*
X196000001Y-111934314D01*
X196554820Y-111379493D01*
X196475825Y-111342658D01*
X196423385Y-111296486D01*
X196404233Y-111229293D01*
X196424449Y-111162411D01*
X196475822Y-111117895D01*
X196627639Y-111047102D01*
X196806877Y-110921598D01*
X196961598Y-110766877D01*
X197087102Y-110587639D01*
X197179575Y-110389330D01*
X197236207Y-110177977D01*
X197255277Y-109960000D01*
X197236207Y-109742023D01*
X197179575Y-109530670D01*
X197087102Y-109332362D01*
X196961598Y-109153123D01*
X196806877Y-108998402D01*
X196627639Y-108872898D01*
X196476417Y-108802382D01*
X196423978Y-108756210D01*
X196404826Y-108689016D01*
X196425042Y-108622135D01*
X196476417Y-108577618D01*
X196479324Y-108576262D01*
X196627639Y-108507102D01*
X196806877Y-108381598D01*
X196961598Y-108226877D01*
X197087102Y-108047639D01*
X197179575Y-107849330D01*
X197236207Y-107637977D01*
X197255277Y-107420000D01*
X197236207Y-107202023D01*
X197179575Y-106990670D01*
X197087102Y-106792362D01*
X196961598Y-106613123D01*
X196806877Y-106458402D01*
X196660736Y-106356072D01*
X196617112Y-106301497D01*
X196609918Y-106231999D01*
X196641441Y-106169644D01*
X196701671Y-106134230D01*
X196731859Y-106130499D01*
X196797872Y-106130499D01*
X196857483Y-106124091D01*
X196992331Y-106073796D01*
X197107546Y-105987546D01*
X197193796Y-105872331D01*
X197244091Y-105737483D01*
X197250500Y-105677873D01*
X197250499Y-104082128D01*
X197244091Y-104022517D01*
X197193796Y-103887669D01*
X197107546Y-103772454D01*
X197107544Y-103772452D01*
X197107543Y-103772451D01*
X197050189Y-103729515D01*
X197008318Y-103673581D01*
X197000500Y-103630249D01*
X197000500Y-102325491D01*
X197020185Y-102258452D01*
X197072989Y-102212697D01*
X197142147Y-102202753D01*
X197163504Y-102207785D01*
X197274849Y-102244681D01*
X197325000Y-102249803D01*
X197325000Y-101680000D01*
X198125000Y-101680000D01*
X198125000Y-102249802D01*
X198175150Y-102244681D01*
X198338801Y-102190453D01*
X198485540Y-102099943D01*
X198607443Y-101978040D01*
X198697953Y-101831301D01*
X198748089Y-101680000D01*
X198125000Y-101680000D01*
X197325000Y-101680000D01*
X197325000Y-100879999D01*
X198124999Y-100879999D01*
X198125000Y-100880000D01*
X198748088Y-100880000D01*
X198697953Y-100728698D01*
X198607443Y-100581959D01*
X198485540Y-100460056D01*
X198338801Y-100369546D01*
X198175151Y-100315318D01*
X198125000Y-100310195D01*
X198124999Y-100879999D01*
X197325000Y-100879999D01*
X197325000Y-100310195D01*
X197324999Y-100310195D01*
X197274846Y-100315319D01*
X197163502Y-100352214D01*
X197093674Y-100354615D01*
X197033632Y-100318883D01*
X197002440Y-100256363D01*
X197000499Y-100234508D01*
X197000499Y-100230847D01*
X197000500Y-99629258D01*
X196985074Y-99477562D01*
X196924159Y-99283412D01*
X196825409Y-99105498D01*
X196692866Y-98951105D01*
X196531958Y-98826552D01*
X196531957Y-98826551D01*
X196349272Y-98736940D01*
X196283608Y-98719938D01*
X196152285Y-98685937D01*
X196131670Y-98684891D01*
X195949062Y-98675630D01*
X195747928Y-98706443D01*
X195557113Y-98777113D01*
X195384431Y-98884745D01*
X195314623Y-98951104D01*
X195236947Y-99024941D01*
X195222857Y-99045185D01*
X195120705Y-99191950D01*
X195040460Y-99378941D01*
X194999500Y-99578260D01*
X194999500Y-100790230D01*
X194993206Y-100829234D01*
X194972325Y-100892246D01*
X194962319Y-100990190D01*
X194962317Y-100990210D01*
X194962000Y-100993323D01*
X194962000Y-100996470D01*
X194962000Y-100996471D01*
X194962000Y-101563526D01*
X194962000Y-101563545D01*
X194962001Y-101566676D01*
X194962320Y-101569808D01*
X194962321Y-101569809D01*
X194972325Y-101667752D01*
X194993206Y-101730764D01*
X194999500Y-101769768D01*
X194999499Y-103630249D01*
X194979814Y-103697289D01*
X194949811Y-103729515D01*
X194892455Y-103772452D01*
X194806204Y-103887668D01*
X194755910Y-104022515D01*
X194755909Y-104022517D01*
X194749500Y-104082127D01*
X194749500Y-104085448D01*
X194749500Y-104085449D01*
X194749500Y-105674560D01*
X194749500Y-105674578D01*
X194749501Y-105677872D01*
X194755909Y-105737483D01*
X194806204Y-105872331D01*
X194892454Y-105987546D01*
X195007669Y-106073796D01*
X195142517Y-106124091D01*
X195202127Y-106130500D01*
X195268139Y-106130499D01*
X195335176Y-106150183D01*
X195380932Y-106202986D01*
X195390876Y-106272144D01*
X195361852Y-106335700D01*
X195339262Y-106356073D01*
X195193123Y-106458401D01*
X195038402Y-106613122D01*
X194912898Y-106792361D01*
X194820425Y-106990668D01*
X194763792Y-107202025D01*
X194744722Y-107420000D01*
X194763792Y-107637974D01*
X194784551Y-107715449D01*
X194820425Y-107849330D01*
X194912898Y-108047639D01*
X195038402Y-108226877D01*
X195193123Y-108381598D01*
X195372361Y-108507102D01*
X195471237Y-108553208D01*
X195523582Y-108577618D01*
X195576021Y-108623791D01*
X195595173Y-108690984D01*
X195574957Y-108757865D01*
X195523582Y-108802382D01*
X195372361Y-108872898D01*
X195193122Y-108998402D01*
X195038402Y-109153122D01*
X194912898Y-109332361D01*
X194820425Y-109530668D01*
X194763792Y-109742025D01*
X194744722Y-109960000D01*
X192960986Y-109960000D01*
X192970120Y-109950867D01*
X192972585Y-109947688D01*
X192980167Y-109938812D01*
X193010062Y-109906978D01*
X193019717Y-109889414D01*
X193030394Y-109873160D01*
X193042673Y-109857332D01*
X193060018Y-109817248D01*
X193065160Y-109806752D01*
X193086197Y-109768488D01*
X193091179Y-109749080D01*
X193097481Y-109730676D01*
X193105437Y-109712292D01*
X193112269Y-109669148D01*
X193114633Y-109657734D01*
X193125500Y-109615415D01*
X193125500Y-109595379D01*
X193127027Y-109575980D01*
X193127750Y-109571414D01*
X193130160Y-109556200D01*
X193126050Y-109512720D01*
X193125500Y-109501051D01*
X193125500Y-100810451D01*
X193145185Y-100743412D01*
X193161814Y-100722775D01*
X199133786Y-94750802D01*
X199149886Y-94737905D01*
X199151874Y-94735787D01*
X199151877Y-94735786D01*
X199197964Y-94686707D01*
X199200549Y-94684039D01*
X199220120Y-94664470D01*
X199222565Y-94661316D01*
X199230154Y-94652429D01*
X199260062Y-94620582D01*
X199269713Y-94603026D01*
X199280393Y-94586767D01*
X199292674Y-94570936D01*
X199310018Y-94530851D01*
X199315160Y-94520356D01*
X199326351Y-94500000D01*
X199336197Y-94482092D01*
X199341178Y-94462688D01*
X199347480Y-94444283D01*
X199355438Y-94425895D01*
X199362270Y-94382748D01*
X199364639Y-94371316D01*
X199375500Y-94329020D01*
X199375500Y-94308983D01*
X199377027Y-94289584D01*
X199380160Y-94269804D01*
X199376050Y-94226324D01*
X199375500Y-94214655D01*
X199375500Y-75832739D01*
X199377763Y-75812238D01*
X199375561Y-75742144D01*
X199375500Y-75738250D01*
X199375500Y-75714544D01*
X199375500Y-75710650D01*
X199374998Y-75706681D01*
X199374080Y-75695024D01*
X199373807Y-75686336D01*
X199372709Y-75651373D01*
X199367120Y-75632137D01*
X199363176Y-75613093D01*
X199360664Y-75593208D01*
X199344582Y-75552591D01*
X199340798Y-75541540D01*
X199340351Y-75540000D01*
X199328617Y-75499610D01*
X199318421Y-75482369D01*
X199309863Y-75464902D01*
X199302486Y-75446268D01*
X199276798Y-75410912D01*
X199270409Y-75401184D01*
X199248170Y-75363579D01*
X199234005Y-75349414D01*
X199221369Y-75334620D01*
X199209595Y-75318414D01*
X199209594Y-75318413D01*
X199175935Y-75290568D01*
X199167305Y-75282714D01*
X196500802Y-72616211D01*
X196487906Y-72600113D01*
X196436775Y-72552098D01*
X196433978Y-72549387D01*
X196417227Y-72532636D01*
X196414471Y-72529880D01*
X196411290Y-72527412D01*
X196402422Y-72519837D01*
X196370582Y-72489938D01*
X196353024Y-72480285D01*
X196336764Y-72469604D01*
X196320936Y-72457327D01*
X196280851Y-72439980D01*
X196270361Y-72434841D01*
X196232091Y-72413802D01*
X196212691Y-72408821D01*
X196194284Y-72402519D01*
X196175897Y-72394562D01*
X196132758Y-72387729D01*
X196121324Y-72385361D01*
X196079019Y-72374500D01*
X196058984Y-72374500D01*
X196039586Y-72372973D01*
X196032162Y-72371797D01*
X196019805Y-72369840D01*
X196019804Y-72369840D01*
X195994468Y-72372235D01*
X195976325Y-72373950D01*
X195964656Y-72374500D01*
X191771981Y-72374500D01*
X191704942Y-72354815D01*
X191666441Y-72315595D01*
X191657838Y-72301647D01*
X191535852Y-72179661D01*
X191389015Y-72089091D01*
X191225253Y-72034825D01*
X191127309Y-72024819D01*
X191127290Y-72024818D01*
X191124177Y-72024500D01*
X191121028Y-72024500D01*
X190528973Y-72024500D01*
X190528953Y-72024500D01*
X190525824Y-72024501D01*
X190522692Y-72024820D01*
X190522690Y-72024821D01*
X190424747Y-72034825D01*
X190260984Y-72089091D01*
X190114147Y-72179661D01*
X190000181Y-72293628D01*
X189938858Y-72327113D01*
X189869166Y-72322129D01*
X189824819Y-72293628D01*
X189710852Y-72179661D01*
X189564015Y-72089091D01*
X189400253Y-72034825D01*
X189302309Y-72024819D01*
X189302290Y-72024818D01*
X189299177Y-72024500D01*
X189296028Y-72024500D01*
X188703973Y-72024500D01*
X188703953Y-72024500D01*
X188700824Y-72024501D01*
X188697692Y-72024820D01*
X188697690Y-72024821D01*
X188599747Y-72034825D01*
X188435984Y-72089091D01*
X188289147Y-72179661D01*
X188167161Y-72301647D01*
X188158559Y-72315595D01*
X188106611Y-72362321D01*
X188053019Y-72374500D01*
X185954188Y-72374500D01*
X185887149Y-72354815D01*
X185852613Y-72321623D01*
X185740046Y-72160859D01*
X185579140Y-71999953D01*
X185392735Y-71869432D01*
X185186497Y-71773261D01*
X184966689Y-71714364D01*
X184740000Y-71694531D01*
X184513310Y-71714364D01*
X184293502Y-71773261D01*
X184087264Y-71869432D01*
X183900859Y-71999953D01*
X183739953Y-72160859D01*
X183609432Y-72347264D01*
X183513261Y-72553502D01*
X183454364Y-72773310D01*
X183434531Y-72999999D01*
X183454364Y-73226689D01*
X183513261Y-73446497D01*
X183609432Y-73652735D01*
X183739953Y-73839140D01*
X183900859Y-74000046D01*
X183955525Y-74038323D01*
X184087266Y-74130568D01*
X184145275Y-74157618D01*
X184197714Y-74203791D01*
X184216865Y-74270985D01*
X184196649Y-74337866D01*
X184145275Y-74382382D01*
X184087263Y-74409433D01*
X183900859Y-74539953D01*
X183739953Y-74700859D01*
X183609432Y-74887264D01*
X183513261Y-75093502D01*
X183454364Y-75313310D01*
X183434531Y-75540000D01*
X183454364Y-75766689D01*
X183513261Y-75986497D01*
X183609432Y-76192735D01*
X183739953Y-76379140D01*
X183900859Y-76540046D01*
X183970905Y-76589092D01*
X184087266Y-76670568D01*
X184145275Y-76697618D01*
X184197714Y-76743791D01*
X184216865Y-76810985D01*
X184196649Y-76877866D01*
X184145275Y-76922382D01*
X184087263Y-76949433D01*
X183900859Y-77079953D01*
X183739953Y-77240859D01*
X183609432Y-77427264D01*
X183513261Y-77633502D01*
X183454364Y-77853310D01*
X183434531Y-78080000D01*
X183454364Y-78306689D01*
X183513261Y-78526497D01*
X183609432Y-78732735D01*
X183739953Y-78919140D01*
X183900859Y-79080046D01*
X183929357Y-79100000D01*
X184087266Y-79210568D01*
X184145275Y-79237618D01*
X184197714Y-79283791D01*
X184216865Y-79350985D01*
X184196649Y-79417866D01*
X184145275Y-79462382D01*
X184087263Y-79489433D01*
X183900859Y-79619953D01*
X183739953Y-79780859D01*
X183609432Y-79967264D01*
X183513261Y-80173502D01*
X183454364Y-80393310D01*
X183434531Y-80619999D01*
X183454364Y-80846689D01*
X183513261Y-81066497D01*
X183609432Y-81272735D01*
X183739953Y-81459140D01*
X183900859Y-81620046D01*
X184052406Y-81726159D01*
X184087266Y-81750568D01*
X184145275Y-81777618D01*
X184197714Y-81823791D01*
X184216865Y-81890985D01*
X184196649Y-81957866D01*
X184145275Y-82002382D01*
X184087263Y-82029433D01*
X183900859Y-82159953D01*
X183739953Y-82320859D01*
X183609432Y-82507264D01*
X183513261Y-82713502D01*
X183454364Y-82933310D01*
X183434531Y-83160000D01*
X183454364Y-83386689D01*
X183513261Y-83606497D01*
X183609432Y-83812735D01*
X183739953Y-83999140D01*
X183900859Y-84160046D01*
X184023907Y-84246204D01*
X184087266Y-84290568D01*
X184145275Y-84317618D01*
X184197714Y-84363791D01*
X184216865Y-84430985D01*
X184196649Y-84497866D01*
X184145275Y-84542381D01*
X184124576Y-84552033D01*
X184087263Y-84569433D01*
X183900859Y-84699953D01*
X183739953Y-84860859D01*
X183609432Y-85047264D01*
X183513261Y-85253502D01*
X183454364Y-85473310D01*
X183434531Y-85699999D01*
X183454364Y-85926689D01*
X183513261Y-86146497D01*
X183609432Y-86352735D01*
X183739953Y-86539140D01*
X183900859Y-86700046D01*
X183976729Y-86753170D01*
X184087266Y-86830568D01*
X184128938Y-86850000D01*
X184145275Y-86857618D01*
X184197714Y-86903791D01*
X184216865Y-86970985D01*
X184196649Y-87037866D01*
X184145275Y-87082382D01*
X184087263Y-87109433D01*
X183900859Y-87239953D01*
X183739953Y-87400859D01*
X183609432Y-87587264D01*
X183513261Y-87793502D01*
X183454364Y-88013310D01*
X183434531Y-88240000D01*
X183454364Y-88466689D01*
X183513261Y-88686497D01*
X183609432Y-88892735D01*
X183739953Y-89079140D01*
X183900859Y-89240046D01*
X184010201Y-89316607D01*
X184087266Y-89370568D01*
X184145275Y-89397618D01*
X184197714Y-89443791D01*
X184216865Y-89510985D01*
X184196649Y-89577866D01*
X184145275Y-89622382D01*
X184087263Y-89649433D01*
X183900859Y-89779953D01*
X183739953Y-89940859D01*
X183609432Y-90127264D01*
X183513261Y-90333502D01*
X183454364Y-90553310D01*
X183434531Y-90780000D01*
X183454364Y-91006689D01*
X183513261Y-91226497D01*
X183609432Y-91432735D01*
X183739953Y-91619140D01*
X183900859Y-91780046D01*
X184087263Y-91910566D01*
X184087266Y-91910568D01*
X184145275Y-91937618D01*
X184197714Y-91983791D01*
X184216865Y-92050985D01*
X184196649Y-92117866D01*
X184145275Y-92162381D01*
X184124576Y-92172033D01*
X184087263Y-92189433D01*
X183900859Y-92319953D01*
X183739953Y-92480859D01*
X183609432Y-92667264D01*
X183513261Y-92873502D01*
X183454364Y-93093310D01*
X183434531Y-93319999D01*
X183454364Y-93546689D01*
X183513261Y-93766497D01*
X183609432Y-93972735D01*
X183739953Y-94159140D01*
X183900859Y-94320046D01*
X184045662Y-94421437D01*
X184087266Y-94450568D01*
X184145275Y-94477618D01*
X184197714Y-94523791D01*
X184216865Y-94590985D01*
X184196649Y-94657866D01*
X184145275Y-94702382D01*
X184087263Y-94729433D01*
X183900859Y-94859953D01*
X183739953Y-95020859D01*
X183609432Y-95207264D01*
X183513261Y-95413502D01*
X183454364Y-95633310D01*
X183434531Y-95860000D01*
X183454364Y-96086689D01*
X183513261Y-96306497D01*
X183609432Y-96512735D01*
X183739953Y-96699140D01*
X183900859Y-96860046D01*
X184087263Y-96990566D01*
X184087266Y-96990568D01*
X184145275Y-97017618D01*
X184197714Y-97063791D01*
X184216865Y-97130985D01*
X184196649Y-97197866D01*
X184145275Y-97242382D01*
X184087263Y-97269433D01*
X183900859Y-97399953D01*
X183739953Y-97560859D01*
X183609432Y-97747264D01*
X183513261Y-97953502D01*
X183454364Y-98173310D01*
X183434531Y-98400000D01*
X183454364Y-98626689D01*
X183513261Y-98846497D01*
X183609432Y-99052735D01*
X183739953Y-99239140D01*
X183900859Y-99400046D01*
X184087264Y-99530567D01*
X184087265Y-99530567D01*
X184087266Y-99530568D01*
X184145865Y-99557893D01*
X184198304Y-99604065D01*
X184217456Y-99671259D01*
X184197240Y-99738140D01*
X184145866Y-99782656D01*
X184087522Y-99809863D01*
X183901180Y-99940341D01*
X183740341Y-100101180D01*
X183609865Y-100287519D01*
X183513733Y-100493673D01*
X183501320Y-100540000D01*
X184438103Y-100540000D01*
X184358239Y-100609202D01*
X184280507Y-100730156D01*
X184240000Y-100868111D01*
X184240000Y-101011889D01*
X184280507Y-101149844D01*
X184358239Y-101270798D01*
X184438103Y-101340000D01*
X183501320Y-101340000D01*
X183513733Y-101386326D01*
X183609865Y-101592480D01*
X183740341Y-101778819D01*
X183901180Y-101939658D01*
X184087519Y-102070134D01*
X184145865Y-102097342D01*
X184198304Y-102143514D01*
X184217456Y-102210708D01*
X184197240Y-102277589D01*
X184145866Y-102322105D01*
X184087267Y-102349430D01*
X183900859Y-102479953D01*
X183739953Y-102640859D01*
X183609432Y-102827264D01*
X183513261Y-103033502D01*
X183454364Y-103253310D01*
X183434531Y-103480000D01*
X183454364Y-103706689D01*
X183513261Y-103926497D01*
X183609432Y-104132735D01*
X183739953Y-104319140D01*
X183900859Y-104480046D01*
X183989988Y-104542454D01*
X184087266Y-104610568D01*
X184145275Y-104637618D01*
X184197714Y-104683791D01*
X184216865Y-104750985D01*
X184196649Y-104817866D01*
X184145275Y-104862382D01*
X184087263Y-104889433D01*
X183900859Y-105019953D01*
X183739953Y-105180859D01*
X183609432Y-105367264D01*
X183513261Y-105573502D01*
X183454364Y-105793310D01*
X183434531Y-106019999D01*
X183454364Y-106246689D01*
X183513261Y-106466497D01*
X183609432Y-106672735D01*
X183739953Y-106859140D01*
X183900858Y-107020045D01*
X183925461Y-107037272D01*
X183969087Y-107091849D01*
X183976281Y-107161347D01*
X183944759Y-107223702D01*
X183884530Y-107259117D01*
X183867594Y-107262138D01*
X183832515Y-107265909D01*
X183697669Y-107316204D01*
X183582454Y-107402454D01*
X183496204Y-107517668D01*
X183445910Y-107652515D01*
X183445909Y-107652517D01*
X183439500Y-107712127D01*
X183439500Y-107715448D01*
X183439500Y-107715449D01*
X183439500Y-109404560D01*
X183439500Y-109404578D01*
X183439501Y-109407872D01*
X183439853Y-109411152D01*
X183439854Y-109411159D01*
X183445909Y-109467484D01*
X183458429Y-109501051D01*
X183496204Y-109602331D01*
X183582454Y-109717546D01*
X183697669Y-109803796D01*
X183832517Y-109854091D01*
X183892127Y-109860500D01*
X185587872Y-109860499D01*
X185647483Y-109854091D01*
X185782331Y-109803796D01*
X185897546Y-109717546D01*
X185983796Y-109602331D01*
X186034091Y-109467483D01*
X186040500Y-109407873D01*
X186040499Y-107712128D01*
X186034091Y-107652517D01*
X185983796Y-107517669D01*
X185897546Y-107402454D01*
X185782331Y-107316204D01*
X185647483Y-107265909D01*
X185612403Y-107262137D01*
X185547854Y-107235400D01*
X185508006Y-107178008D01*
X185505512Y-107108182D01*
X185541164Y-107048093D01*
X185554530Y-107037278D01*
X185579139Y-107020047D01*
X185740047Y-106859139D01*
X185870568Y-106672734D01*
X185966739Y-106466496D01*
X186025635Y-106246692D01*
X186045468Y-106020000D01*
X186025635Y-105793308D01*
X185966739Y-105573504D01*
X185870568Y-105367266D01*
X185770668Y-105224592D01*
X185740046Y-105180859D01*
X185579140Y-105019953D01*
X185392733Y-104889431D01*
X185334725Y-104862382D01*
X185282285Y-104816210D01*
X185263133Y-104749017D01*
X185283348Y-104682135D01*
X185334725Y-104637618D01*
X185392734Y-104610568D01*
X185579139Y-104480047D01*
X185740047Y-104319139D01*
X185870568Y-104132734D01*
X185966739Y-103926496D01*
X186025635Y-103706692D01*
X186045468Y-103480000D01*
X186025635Y-103253308D01*
X185966739Y-103033504D01*
X185870568Y-102827266D01*
X185770668Y-102684592D01*
X185740046Y-102640859D01*
X185579140Y-102479953D01*
X185392736Y-102349433D01*
X185392730Y-102349430D01*
X185334132Y-102322105D01*
X185281695Y-102275933D01*
X185262543Y-102208739D01*
X185282759Y-102141858D01*
X185334135Y-102097342D01*
X185392479Y-102070135D01*
X185578819Y-101939658D01*
X185739658Y-101778819D01*
X185870134Y-101592480D01*
X185966266Y-101386326D01*
X185978680Y-101340000D01*
X185041897Y-101340000D01*
X185121761Y-101270798D01*
X185199493Y-101149844D01*
X185240000Y-101011889D01*
X185240000Y-100868111D01*
X185199493Y-100730156D01*
X185121761Y-100609202D01*
X185041897Y-100540000D01*
X185978679Y-100540000D01*
X185966266Y-100493673D01*
X185870134Y-100287519D01*
X185739658Y-100101180D01*
X185578819Y-99940341D01*
X185392482Y-99809866D01*
X185334133Y-99782657D01*
X185281694Y-99736484D01*
X185262543Y-99669290D01*
X185282759Y-99602409D01*
X185334134Y-99557893D01*
X185392734Y-99530568D01*
X185579139Y-99400047D01*
X185740047Y-99239139D01*
X185833623Y-99105498D01*
X185852613Y-99078377D01*
X185907189Y-99034752D01*
X185954188Y-99025500D01*
X187917256Y-99025500D01*
X187937762Y-99027764D01*
X187940665Y-99027672D01*
X187940667Y-99027673D01*
X188007872Y-99025561D01*
X188011768Y-99025500D01*
X188236336Y-99025500D01*
X188303375Y-99045185D01*
X188349130Y-99097989D01*
X188354266Y-99111180D01*
X188372821Y-99168284D01*
X188467465Y-99332214D01*
X188594129Y-99472889D01*
X188747269Y-99584151D01*
X188920197Y-99661144D01*
X189105352Y-99700500D01*
X189105354Y-99700500D01*
X189294648Y-99700500D01*
X189438138Y-99670000D01*
X189479803Y-99661144D01*
X189652730Y-99584151D01*
X189689250Y-99557618D01*
X189805870Y-99472889D01*
X189871458Y-99400047D01*
X189932533Y-99332216D01*
X190027179Y-99168284D01*
X190085674Y-98988256D01*
X190105460Y-98800000D01*
X190085674Y-98611744D01*
X190043714Y-98482606D01*
X190027179Y-98431715D01*
X189932535Y-98267786D01*
X189915091Y-98248413D01*
X189870650Y-98199056D01*
X189840421Y-98136066D01*
X189849046Y-98066731D01*
X189857258Y-98050995D01*
X189910908Y-97964016D01*
X189965174Y-97800253D01*
X189975500Y-97699177D01*
X189975499Y-97100824D01*
X189965174Y-96999747D01*
X189910908Y-96835984D01*
X189820340Y-96689150D01*
X189799232Y-96668042D01*
X189706371Y-96575180D01*
X189672887Y-96513857D01*
X189677871Y-96444165D01*
X189706370Y-96399819D01*
X189820340Y-96285850D01*
X189910908Y-96139016D01*
X189965174Y-95975253D01*
X189975500Y-95874177D01*
X189975499Y-95275824D01*
X189965174Y-95174747D01*
X189910908Y-95010984D01*
X189820340Y-94864150D01*
X189820339Y-94864149D01*
X189820338Y-94864147D01*
X189700073Y-94743882D01*
X189666588Y-94682559D01*
X189671572Y-94612867D01*
X189695602Y-94573230D01*
X189732533Y-94532216D01*
X189827179Y-94368284D01*
X189885674Y-94188256D01*
X189905460Y-94000000D01*
X189885674Y-93811744D01*
X189827179Y-93631716D01*
X189827179Y-93631715D01*
X189732533Y-93467783D01*
X189605870Y-93327110D01*
X189452730Y-93215848D01*
X189279802Y-93138855D01*
X189094648Y-93099500D01*
X189094646Y-93099500D01*
X188905354Y-93099500D01*
X188905352Y-93099500D01*
X188720197Y-93138855D01*
X188547269Y-93215848D01*
X188394129Y-93327110D01*
X188267466Y-93467783D01*
X188172820Y-93631715D01*
X188114326Y-93811742D01*
X188094540Y-93999999D01*
X188114326Y-94188257D01*
X188172820Y-94368284D01*
X188267464Y-94532213D01*
X188304395Y-94573228D01*
X188334625Y-94636220D01*
X188326000Y-94705555D01*
X188299927Y-94743882D01*
X188179660Y-94864149D01*
X188089091Y-95010984D01*
X188034825Y-95174746D01*
X188024819Y-95272690D01*
X188024817Y-95272710D01*
X188024500Y-95275823D01*
X188024500Y-95278970D01*
X188024500Y-95278971D01*
X188024500Y-95871026D01*
X188024500Y-95871045D01*
X188024501Y-95874176D01*
X188024820Y-95877308D01*
X188024821Y-95877309D01*
X188034825Y-95975252D01*
X188089091Y-96139015D01*
X188179661Y-96285852D01*
X188293628Y-96399819D01*
X188327113Y-96461142D01*
X188322129Y-96530834D01*
X188293628Y-96575181D01*
X188179661Y-96689147D01*
X188089091Y-96835984D01*
X188034825Y-96999746D01*
X188024819Y-97097690D01*
X188024817Y-97097710D01*
X188024500Y-97100823D01*
X188024500Y-97103970D01*
X188024500Y-97103971D01*
X188024500Y-97439546D01*
X188004815Y-97506585D01*
X187988181Y-97527227D01*
X187777228Y-97738181D01*
X187715905Y-97771666D01*
X187689547Y-97774500D01*
X185954188Y-97774500D01*
X185887149Y-97754815D01*
X185852613Y-97721623D01*
X185740046Y-97560859D01*
X185579140Y-97399953D01*
X185392733Y-97269431D01*
X185334725Y-97242382D01*
X185282285Y-97196210D01*
X185263133Y-97129017D01*
X185283348Y-97062135D01*
X185334725Y-97017618D01*
X185392734Y-96990568D01*
X185579139Y-96860047D01*
X185740047Y-96699139D01*
X185870568Y-96512734D01*
X185966739Y-96306496D01*
X186025635Y-96086692D01*
X186045468Y-95860000D01*
X186025635Y-95633308D01*
X185966739Y-95413504D01*
X185870568Y-95207266D01*
X185847799Y-95174747D01*
X185740046Y-95020859D01*
X185579140Y-94859953D01*
X185392733Y-94729431D01*
X185334725Y-94702382D01*
X185282285Y-94656210D01*
X185263133Y-94589017D01*
X185283348Y-94522135D01*
X185334725Y-94477618D01*
X185392734Y-94450568D01*
X185579139Y-94320047D01*
X185740047Y-94159139D01*
X185870568Y-93972734D01*
X185966739Y-93766496D01*
X186025635Y-93546692D01*
X186045468Y-93320000D01*
X186025635Y-93093308D01*
X185966739Y-92873504D01*
X185870568Y-92667266D01*
X185831253Y-92611117D01*
X185740046Y-92480859D01*
X185579140Y-92319953D01*
X185392736Y-92189433D01*
X185362246Y-92175215D01*
X185334722Y-92162380D01*
X185282284Y-92116208D01*
X185263133Y-92049014D01*
X185283349Y-91982133D01*
X185334721Y-91937619D01*
X185392734Y-91910568D01*
X185579139Y-91780047D01*
X185740047Y-91619139D01*
X185870568Y-91432734D01*
X185966739Y-91226496D01*
X186025635Y-91006692D01*
X186045468Y-90780000D01*
X186025635Y-90553308D01*
X185966739Y-90333504D01*
X185870568Y-90127266D01*
X185859808Y-90111898D01*
X185740046Y-89940859D01*
X185579140Y-89779953D01*
X185392733Y-89649431D01*
X185334725Y-89622382D01*
X185282285Y-89576210D01*
X185263133Y-89509017D01*
X185283348Y-89442135D01*
X185334725Y-89397618D01*
X185392734Y-89370568D01*
X185579139Y-89240047D01*
X185740047Y-89079139D01*
X185870568Y-88892734D01*
X185966739Y-88686496D01*
X186025635Y-88466692D01*
X186045468Y-88240000D01*
X186025635Y-88013308D01*
X185966739Y-87793504D01*
X185870568Y-87587266D01*
X185857919Y-87569200D01*
X185740046Y-87400859D01*
X185579140Y-87239953D01*
X185392733Y-87109431D01*
X185334725Y-87082382D01*
X185282285Y-87036210D01*
X185263133Y-86969017D01*
X185283348Y-86902135D01*
X185334725Y-86857618D01*
X185351062Y-86850000D01*
X185392734Y-86830568D01*
X185579139Y-86700047D01*
X185740047Y-86539139D01*
X185833682Y-86405413D01*
X185852613Y-86378377D01*
X185907189Y-86334752D01*
X185954188Y-86325500D01*
X186039548Y-86325500D01*
X186106587Y-86345185D01*
X186127229Y-86361819D01*
X187399196Y-87633787D01*
X187412096Y-87649888D01*
X187463223Y-87697900D01*
X187466020Y-87700611D01*
X187485529Y-87720120D01*
X187488709Y-87722587D01*
X187497571Y-87730155D01*
X187529418Y-87760062D01*
X187542306Y-87767147D01*
X187546972Y-87769712D01*
X187563236Y-87780396D01*
X187574972Y-87789499D01*
X187579064Y-87792673D01*
X187603909Y-87803424D01*
X187619152Y-87810021D01*
X187629631Y-87815154D01*
X187667908Y-87836197D01*
X187687306Y-87841177D01*
X187705708Y-87847477D01*
X187724104Y-87855438D01*
X187767261Y-87862273D01*
X187778664Y-87864634D01*
X187820981Y-87875500D01*
X187841016Y-87875500D01*
X187860413Y-87877026D01*
X187880196Y-87880160D01*
X187923674Y-87876050D01*
X187935344Y-87875500D01*
X188053019Y-87875500D01*
X188120058Y-87895185D01*
X188158559Y-87934405D01*
X188167161Y-87948352D01*
X188289147Y-88070338D01*
X188289149Y-88070339D01*
X188289150Y-88070340D01*
X188400547Y-88139050D01*
X188435984Y-88160908D01*
X188599746Y-88215174D01*
X188697690Y-88225180D01*
X188697691Y-88225180D01*
X188700823Y-88225500D01*
X189299176Y-88225499D01*
X189400253Y-88215174D01*
X189564016Y-88160908D01*
X189710850Y-88070340D01*
X189762068Y-88019122D01*
X189824819Y-87956372D01*
X189886142Y-87922887D01*
X189955834Y-87927871D01*
X190000181Y-87956372D01*
X190114147Y-88070338D01*
X190114149Y-88070339D01*
X190114150Y-88070340D01*
X190225547Y-88139050D01*
X190260984Y-88160908D01*
X190424746Y-88215174D01*
X190522690Y-88225180D01*
X190522691Y-88225180D01*
X190525823Y-88225500D01*
X191124176Y-88225499D01*
X191225253Y-88215174D01*
X191389016Y-88160908D01*
X191535850Y-88070340D01*
X191657840Y-87948350D01*
X191666441Y-87934404D01*
X191718389Y-87887679D01*
X191771981Y-87875500D01*
X192852983Y-87875500D01*
X192920022Y-87895185D01*
X192965777Y-87947989D01*
X192970688Y-87960495D01*
X192975661Y-87975500D01*
X192990186Y-88019334D01*
X193082288Y-88168657D01*
X193206342Y-88292711D01*
X193206344Y-88292712D01*
X193355666Y-88384814D01*
X193467017Y-88421712D01*
X193522202Y-88439999D01*
X193621858Y-88450180D01*
X193621859Y-88450180D01*
X193624991Y-88450500D01*
X194375008Y-88450499D01*
X194477797Y-88439999D01*
X194644334Y-88384814D01*
X194793656Y-88292712D01*
X194917712Y-88168656D01*
X194919752Y-88165347D01*
X194971695Y-88118622D01*
X195040657Y-88107395D01*
X195104741Y-88135235D01*
X195130831Y-88165343D01*
X195132682Y-88168344D01*
X195256654Y-88292316D01*
X195405877Y-88384357D01*
X195572304Y-88439506D01*
X195649999Y-88447443D01*
X195650000Y-88447442D01*
X195650000Y-87650000D01*
X196450000Y-87650000D01*
X196450000Y-88447442D01*
X196527694Y-88439506D01*
X196694122Y-88384357D01*
X196843345Y-88292316D01*
X196967316Y-88168345D01*
X197059357Y-88019122D01*
X197114506Y-87852696D01*
X197124680Y-87753109D01*
X197125000Y-87746831D01*
X197125000Y-87650000D01*
X196450000Y-87650000D01*
X195650000Y-87650000D01*
X195650000Y-86052557D01*
X195649999Y-86052556D01*
X196450000Y-86052556D01*
X196450000Y-86850000D01*
X197124999Y-86850000D01*
X197124999Y-86753170D01*
X197124678Y-86746888D01*
X197114506Y-86647304D01*
X197059357Y-86480877D01*
X196967316Y-86331654D01*
X196843345Y-86207683D01*
X196694122Y-86115642D01*
X196527696Y-86060493D01*
X196450000Y-86052556D01*
X195649999Y-86052556D01*
X195572304Y-86060493D01*
X195405877Y-86115642D01*
X195256654Y-86207683D01*
X195132683Y-86331654D01*
X195130830Y-86334659D01*
X195078880Y-86381382D01*
X195009917Y-86392602D01*
X194945836Y-86364757D01*
X194919752Y-86334652D01*
X194917903Y-86331654D01*
X194917712Y-86331344D01*
X194917710Y-86331342D01*
X194917709Y-86331340D01*
X194793657Y-86207288D01*
X194644334Y-86115186D01*
X194477797Y-86060000D01*
X194378141Y-86049819D01*
X194378122Y-86049818D01*
X194375009Y-86049500D01*
X194371860Y-86049500D01*
X193628141Y-86049500D01*
X193628121Y-86049500D01*
X193624992Y-86049501D01*
X193621860Y-86049820D01*
X193621858Y-86049821D01*
X193522203Y-86060000D01*
X193355665Y-86115186D01*
X193206342Y-86207288D01*
X193082288Y-86331342D01*
X192990186Y-86480665D01*
X192970689Y-86539504D01*
X192930916Y-86596949D01*
X192866400Y-86623772D01*
X192852983Y-86624500D01*
X191771981Y-86624500D01*
X191704942Y-86604815D01*
X191666441Y-86565595D01*
X191657838Y-86551647D01*
X191535852Y-86429661D01*
X191389015Y-86339091D01*
X191225253Y-86284825D01*
X191127309Y-86274819D01*
X191127290Y-86274818D01*
X191124177Y-86274500D01*
X191121028Y-86274500D01*
X190528973Y-86274500D01*
X190528953Y-86274500D01*
X190525824Y-86274501D01*
X190522692Y-86274820D01*
X190522690Y-86274821D01*
X190424747Y-86284825D01*
X190260984Y-86339091D01*
X190114147Y-86429661D01*
X190000181Y-86543628D01*
X189938858Y-86577113D01*
X189869166Y-86572129D01*
X189824819Y-86543628D01*
X189710852Y-86429661D01*
X189564015Y-86339091D01*
X189400253Y-86284825D01*
X189302309Y-86274819D01*
X189302290Y-86274818D01*
X189299177Y-86274500D01*
X189296028Y-86274500D01*
X188703973Y-86274500D01*
X188703953Y-86274500D01*
X188700824Y-86274501D01*
X188697692Y-86274820D01*
X188697690Y-86274821D01*
X188599747Y-86284825D01*
X188435984Y-86339091D01*
X188289149Y-86429660D01*
X188214380Y-86504429D01*
X188153056Y-86537913D01*
X188083365Y-86532929D01*
X188039018Y-86504428D01*
X187461282Y-85926692D01*
X186850802Y-85316211D01*
X186837906Y-85300113D01*
X186786775Y-85252098D01*
X186783978Y-85249387D01*
X186767227Y-85232636D01*
X186764471Y-85229880D01*
X186761290Y-85227412D01*
X186752422Y-85219837D01*
X186720582Y-85189938D01*
X186703024Y-85180285D01*
X186686764Y-85169604D01*
X186670936Y-85157327D01*
X186630851Y-85139980D01*
X186620361Y-85134841D01*
X186582091Y-85113802D01*
X186562691Y-85108821D01*
X186544284Y-85102519D01*
X186525897Y-85094562D01*
X186482758Y-85087729D01*
X186471324Y-85085361D01*
X186429019Y-85074500D01*
X186408984Y-85074500D01*
X186389586Y-85072973D01*
X186382162Y-85071797D01*
X186369805Y-85069840D01*
X186369804Y-85069840D01*
X186364515Y-85070340D01*
X186326325Y-85073950D01*
X186314656Y-85074500D01*
X185954188Y-85074500D01*
X185887149Y-85054815D01*
X185852613Y-85021623D01*
X185740046Y-84860859D01*
X185579140Y-84699953D01*
X185392733Y-84569431D01*
X185351727Y-84550310D01*
X185334724Y-84542381D01*
X185282285Y-84496210D01*
X185263133Y-84429017D01*
X185283348Y-84362135D01*
X185334725Y-84317618D01*
X185392734Y-84290568D01*
X185579139Y-84160047D01*
X185740047Y-83999139D01*
X185809519Y-83899920D01*
X185864093Y-83856297D01*
X185933592Y-83849103D01*
X185995947Y-83880625D01*
X185998774Y-83883364D01*
X186749197Y-84633787D01*
X186762098Y-84649889D01*
X186764212Y-84651874D01*
X186764214Y-84651877D01*
X186811561Y-84696339D01*
X186813240Y-84697916D01*
X186816036Y-84700626D01*
X186835530Y-84720120D01*
X186838615Y-84722513D01*
X186838701Y-84722580D01*
X186847573Y-84730158D01*
X186879418Y-84760062D01*
X186896970Y-84769711D01*
X186913238Y-84780397D01*
X186929064Y-84792673D01*
X186969148Y-84810018D01*
X186979628Y-84815152D01*
X187017908Y-84836197D01*
X187022754Y-84837441D01*
X187037313Y-84841180D01*
X187055716Y-84847480D01*
X187074105Y-84855438D01*
X187117254Y-84862271D01*
X187128680Y-84864638D01*
X187144222Y-84868629D01*
X187170980Y-84875500D01*
X187170981Y-84875500D01*
X187191016Y-84875500D01*
X187210413Y-84877026D01*
X187230196Y-84880160D01*
X187273674Y-84876050D01*
X187285344Y-84875500D01*
X188053019Y-84875500D01*
X188120058Y-84895185D01*
X188158559Y-84934405D01*
X188167161Y-84948352D01*
X188289147Y-85070338D01*
X188289149Y-85070339D01*
X188289150Y-85070340D01*
X188398290Y-85137658D01*
X188435984Y-85160908D01*
X188599746Y-85215174D01*
X188697690Y-85225180D01*
X188697691Y-85225180D01*
X188700823Y-85225500D01*
X189299176Y-85225499D01*
X189400253Y-85215174D01*
X189564016Y-85160908D01*
X189710850Y-85070340D01*
X189762068Y-85019122D01*
X189824819Y-84956372D01*
X189886142Y-84922887D01*
X189955834Y-84927871D01*
X190000181Y-84956372D01*
X190114147Y-85070338D01*
X190114149Y-85070339D01*
X190114150Y-85070340D01*
X190223290Y-85137658D01*
X190260984Y-85160908D01*
X190424746Y-85215174D01*
X190522690Y-85225180D01*
X190522691Y-85225180D01*
X190525823Y-85225500D01*
X191124176Y-85225499D01*
X191225253Y-85215174D01*
X191389016Y-85160908D01*
X191535850Y-85070340D01*
X191657840Y-84948350D01*
X191666441Y-84934404D01*
X191718389Y-84887679D01*
X191771981Y-84875500D01*
X192852983Y-84875500D01*
X192920022Y-84895185D01*
X192965777Y-84947989D01*
X192970688Y-84960495D01*
X192975661Y-84975500D01*
X192990186Y-85019334D01*
X193082288Y-85168657D01*
X193206342Y-85292711D01*
X193244442Y-85316211D01*
X193355666Y-85384814D01*
X193467017Y-85421712D01*
X193522202Y-85439999D01*
X193621858Y-85450180D01*
X193621859Y-85450180D01*
X193624991Y-85450500D01*
X194375008Y-85450499D01*
X194477797Y-85439999D01*
X194644334Y-85384814D01*
X194793656Y-85292712D01*
X194917712Y-85168656D01*
X194919752Y-85165347D01*
X194971695Y-85118622D01*
X195040657Y-85107395D01*
X195104741Y-85135235D01*
X195130831Y-85165343D01*
X195132682Y-85168344D01*
X195256654Y-85292316D01*
X195405877Y-85384357D01*
X195572304Y-85439506D01*
X195649999Y-85447443D01*
X195650000Y-85447442D01*
X195650000Y-84650000D01*
X196450000Y-84650000D01*
X196450000Y-85447442D01*
X196527694Y-85439506D01*
X196694122Y-85384357D01*
X196843345Y-85292316D01*
X196967316Y-85168345D01*
X197059357Y-85019122D01*
X197114506Y-84852696D01*
X197124680Y-84753109D01*
X197125000Y-84746831D01*
X197125000Y-84650000D01*
X196450000Y-84650000D01*
X195650000Y-84650000D01*
X195650000Y-83052557D01*
X195649999Y-83052556D01*
X196450000Y-83052556D01*
X196450000Y-83850000D01*
X197124999Y-83850000D01*
X197124999Y-83753170D01*
X197124678Y-83746888D01*
X197114506Y-83647304D01*
X197059357Y-83480877D01*
X196967316Y-83331654D01*
X196843345Y-83207683D01*
X196694122Y-83115642D01*
X196527696Y-83060493D01*
X196450000Y-83052556D01*
X195649999Y-83052556D01*
X195572304Y-83060493D01*
X195405877Y-83115642D01*
X195256654Y-83207683D01*
X195132683Y-83331654D01*
X195130830Y-83334659D01*
X195078880Y-83381382D01*
X195009917Y-83392602D01*
X194945836Y-83364757D01*
X194919752Y-83334652D01*
X194917903Y-83331654D01*
X194917712Y-83331344D01*
X194917710Y-83331342D01*
X194917709Y-83331340D01*
X194793657Y-83207288D01*
X194644334Y-83115186D01*
X194477797Y-83060000D01*
X194378141Y-83049819D01*
X194378122Y-83049818D01*
X194375009Y-83049500D01*
X194371860Y-83049500D01*
X193628141Y-83049500D01*
X193628121Y-83049500D01*
X193624992Y-83049501D01*
X193621860Y-83049820D01*
X193621858Y-83049821D01*
X193522203Y-83060000D01*
X193355665Y-83115186D01*
X193206342Y-83207288D01*
X193082288Y-83331342D01*
X192990186Y-83480665D01*
X192970689Y-83539504D01*
X192930916Y-83596949D01*
X192866400Y-83623772D01*
X192852983Y-83624500D01*
X191771981Y-83624500D01*
X191704942Y-83604815D01*
X191666441Y-83565595D01*
X191657838Y-83551647D01*
X191535852Y-83429661D01*
X191389015Y-83339091D01*
X191225253Y-83284825D01*
X191127309Y-83274819D01*
X191127290Y-83274818D01*
X191124177Y-83274500D01*
X191121028Y-83274500D01*
X190528973Y-83274500D01*
X190528953Y-83274500D01*
X190525824Y-83274501D01*
X190522692Y-83274820D01*
X190522690Y-83274821D01*
X190424747Y-83284825D01*
X190260984Y-83339091D01*
X190114147Y-83429661D01*
X190000181Y-83543628D01*
X189938858Y-83577113D01*
X189869166Y-83572129D01*
X189824819Y-83543628D01*
X189710852Y-83429661D01*
X189564015Y-83339091D01*
X189400253Y-83284825D01*
X189302309Y-83274819D01*
X189302290Y-83274818D01*
X189299177Y-83274500D01*
X189296028Y-83274500D01*
X188703973Y-83274500D01*
X188703953Y-83274500D01*
X188700824Y-83274501D01*
X188697692Y-83274820D01*
X188697690Y-83274821D01*
X188599747Y-83284825D01*
X188435984Y-83339091D01*
X188289147Y-83429661D01*
X188167161Y-83551647D01*
X188158559Y-83565595D01*
X188106611Y-83612321D01*
X188053019Y-83624500D01*
X187560452Y-83624500D01*
X187493413Y-83604815D01*
X187472771Y-83588181D01*
X186660802Y-82776211D01*
X186647906Y-82760113D01*
X186596775Y-82712098D01*
X186593978Y-82709387D01*
X186577227Y-82692636D01*
X186574471Y-82689880D01*
X186571290Y-82687412D01*
X186562422Y-82679837D01*
X186530582Y-82649938D01*
X186513024Y-82640285D01*
X186496764Y-82629604D01*
X186480936Y-82617327D01*
X186440851Y-82599980D01*
X186430361Y-82594841D01*
X186392091Y-82573802D01*
X186372691Y-82568821D01*
X186354284Y-82562519D01*
X186335897Y-82554562D01*
X186292758Y-82547729D01*
X186281324Y-82545361D01*
X186239019Y-82534500D01*
X186218984Y-82534500D01*
X186199586Y-82532973D01*
X186192162Y-82531797D01*
X186179805Y-82529840D01*
X186179804Y-82529840D01*
X186153484Y-82532328D01*
X186136325Y-82533950D01*
X186124656Y-82534500D01*
X185954188Y-82534500D01*
X185887149Y-82514815D01*
X185852613Y-82481623D01*
X185740046Y-82320859D01*
X185579140Y-82159953D01*
X185392733Y-82029431D01*
X185334725Y-82002382D01*
X185282285Y-81956210D01*
X185263133Y-81889017D01*
X185283348Y-81822135D01*
X185334725Y-81777618D01*
X185392734Y-81750568D01*
X185579139Y-81620047D01*
X185740047Y-81459139D01*
X185852612Y-81298377D01*
X185907189Y-81254752D01*
X185954188Y-81245500D01*
X186309548Y-81245500D01*
X186376587Y-81265185D01*
X186397229Y-81281819D01*
X186749197Y-81633787D01*
X186762098Y-81649889D01*
X186764212Y-81651874D01*
X186764214Y-81651877D01*
X186799548Y-81685058D01*
X186813240Y-81697916D01*
X186816036Y-81700626D01*
X186835530Y-81720120D01*
X186838615Y-81722513D01*
X186838701Y-81722580D01*
X186847573Y-81730158D01*
X186879418Y-81760062D01*
X186896974Y-81769714D01*
X186913231Y-81780392D01*
X186929064Y-81792674D01*
X186945185Y-81799649D01*
X186969156Y-81810023D01*
X186979643Y-81815160D01*
X187017908Y-81836197D01*
X187037316Y-81841180D01*
X187055710Y-81847478D01*
X187074105Y-81855438D01*
X187117254Y-81862271D01*
X187128680Y-81864638D01*
X187144222Y-81868629D01*
X187170980Y-81875500D01*
X187170981Y-81875500D01*
X187191016Y-81875500D01*
X187210413Y-81877026D01*
X187230196Y-81880160D01*
X187273674Y-81876050D01*
X187285344Y-81875500D01*
X188053019Y-81875500D01*
X188120058Y-81895185D01*
X188158559Y-81934405D01*
X188167161Y-81948352D01*
X188289147Y-82070338D01*
X188289149Y-82070339D01*
X188289150Y-82070340D01*
X188434436Y-82159953D01*
X188435984Y-82160908D01*
X188599746Y-82215174D01*
X188697690Y-82225180D01*
X188697691Y-82225180D01*
X188700823Y-82225500D01*
X189299176Y-82225499D01*
X189400253Y-82215174D01*
X189564016Y-82160908D01*
X189710850Y-82070340D01*
X189762068Y-82019122D01*
X189824819Y-81956372D01*
X189886142Y-81922887D01*
X189955834Y-81927871D01*
X190000181Y-81956372D01*
X190114147Y-82070338D01*
X190114149Y-82070339D01*
X190114150Y-82070340D01*
X190259436Y-82159953D01*
X190260984Y-82160908D01*
X190424746Y-82215174D01*
X190522690Y-82225180D01*
X190522691Y-82225180D01*
X190525823Y-82225500D01*
X191124176Y-82225499D01*
X191225253Y-82215174D01*
X191389016Y-82160908D01*
X191535850Y-82070340D01*
X191657840Y-81948350D01*
X191666441Y-81934404D01*
X191718389Y-81887679D01*
X191771981Y-81875500D01*
X192852983Y-81875500D01*
X192920022Y-81895185D01*
X192965777Y-81947989D01*
X192970688Y-81960495D01*
X192975661Y-81975500D01*
X192990186Y-82019334D01*
X193082288Y-82168657D01*
X193206342Y-82292711D01*
X193235754Y-82310852D01*
X193355666Y-82384814D01*
X193467016Y-82421712D01*
X193522202Y-82439999D01*
X193621858Y-82450180D01*
X193621859Y-82450180D01*
X193624991Y-82450500D01*
X194375008Y-82450499D01*
X194477797Y-82439999D01*
X194644334Y-82384814D01*
X194793656Y-82292712D01*
X194917712Y-82168656D01*
X194919752Y-82165347D01*
X194971695Y-82118622D01*
X195040657Y-82107395D01*
X195104741Y-82135235D01*
X195130831Y-82165343D01*
X195132682Y-82168344D01*
X195256654Y-82292316D01*
X195405877Y-82384357D01*
X195572304Y-82439506D01*
X195649999Y-82447443D01*
X195650000Y-82447442D01*
X195650000Y-81650000D01*
X196450000Y-81650000D01*
X196450000Y-82447442D01*
X196527694Y-82439506D01*
X196694122Y-82384357D01*
X196843345Y-82292316D01*
X196967316Y-82168345D01*
X197059357Y-82019122D01*
X197114506Y-81852696D01*
X197124680Y-81753109D01*
X197125000Y-81746831D01*
X197125000Y-81650000D01*
X196450000Y-81650000D01*
X195650000Y-81650000D01*
X195650000Y-80052557D01*
X195649999Y-80052556D01*
X196450000Y-80052556D01*
X196450000Y-80850000D01*
X197124999Y-80850000D01*
X197124999Y-80753170D01*
X197124678Y-80746888D01*
X197114506Y-80647304D01*
X197059357Y-80480877D01*
X196967316Y-80331654D01*
X196843345Y-80207683D01*
X196694122Y-80115642D01*
X196527696Y-80060493D01*
X196450000Y-80052556D01*
X195649999Y-80052556D01*
X195572304Y-80060493D01*
X195405877Y-80115642D01*
X195256654Y-80207683D01*
X195132683Y-80331654D01*
X195130830Y-80334659D01*
X195078880Y-80381382D01*
X195009917Y-80392602D01*
X194945836Y-80364757D01*
X194919752Y-80334652D01*
X194917712Y-80331344D01*
X194917710Y-80331342D01*
X194917709Y-80331340D01*
X194793657Y-80207288D01*
X194644334Y-80115186D01*
X194477797Y-80060000D01*
X194378141Y-80049819D01*
X194378122Y-80049818D01*
X194375009Y-80049500D01*
X194371860Y-80049500D01*
X193628141Y-80049500D01*
X193628121Y-80049500D01*
X193624992Y-80049501D01*
X193621860Y-80049820D01*
X193621858Y-80049821D01*
X193522203Y-80060000D01*
X193355665Y-80115186D01*
X193206342Y-80207288D01*
X193082288Y-80331342D01*
X192990186Y-80480665D01*
X192970689Y-80539504D01*
X192930916Y-80596949D01*
X192866400Y-80623772D01*
X192852983Y-80624500D01*
X191771981Y-80624500D01*
X191704942Y-80604815D01*
X191666441Y-80565595D01*
X191662725Y-80559571D01*
X191657840Y-80551650D01*
X191657839Y-80551649D01*
X191657838Y-80551647D01*
X191535852Y-80429661D01*
X191389015Y-80339091D01*
X191225253Y-80284825D01*
X191127309Y-80274819D01*
X191127290Y-80274818D01*
X191124177Y-80274500D01*
X191121028Y-80274500D01*
X190528973Y-80274500D01*
X190528953Y-80274500D01*
X190525824Y-80274501D01*
X190522692Y-80274820D01*
X190522690Y-80274821D01*
X190424747Y-80284825D01*
X190260984Y-80339091D01*
X190114149Y-80429660D01*
X190000181Y-80543628D01*
X189938858Y-80577112D01*
X189869166Y-80572128D01*
X189824819Y-80543628D01*
X189710850Y-80429660D01*
X189564015Y-80339091D01*
X189400253Y-80284825D01*
X189302309Y-80274819D01*
X189302290Y-80274818D01*
X189299177Y-80274500D01*
X189296028Y-80274500D01*
X188703973Y-80274500D01*
X188703953Y-80274500D01*
X188700824Y-80274501D01*
X188697692Y-80274820D01*
X188697690Y-80274821D01*
X188599747Y-80284825D01*
X188435984Y-80339091D01*
X188289147Y-80429661D01*
X188167161Y-80551647D01*
X188158559Y-80565595D01*
X188106611Y-80612321D01*
X188053019Y-80624500D01*
X187560452Y-80624500D01*
X187493413Y-80604815D01*
X187472771Y-80588181D01*
X187120802Y-80236211D01*
X187107906Y-80220113D01*
X187056775Y-80172098D01*
X187053978Y-80169387D01*
X187037227Y-80152636D01*
X187034471Y-80149880D01*
X187031290Y-80147412D01*
X187022422Y-80139837D01*
X186990582Y-80109938D01*
X186973024Y-80100285D01*
X186956764Y-80089604D01*
X186940936Y-80077327D01*
X186900851Y-80059980D01*
X186890361Y-80054841D01*
X186852091Y-80033802D01*
X186832691Y-80028821D01*
X186814284Y-80022519D01*
X186795897Y-80014562D01*
X186752758Y-80007729D01*
X186741324Y-80005361D01*
X186699019Y-79994500D01*
X186678984Y-79994500D01*
X186659586Y-79992973D01*
X186652162Y-79991797D01*
X186639805Y-79989840D01*
X186639804Y-79989840D01*
X186613484Y-79992328D01*
X186596325Y-79993950D01*
X186584656Y-79994500D01*
X185954188Y-79994500D01*
X185887149Y-79974815D01*
X185852613Y-79941623D01*
X185740046Y-79780859D01*
X185579140Y-79619953D01*
X185392736Y-79489433D01*
X185334723Y-79462381D01*
X185282284Y-79416208D01*
X185263133Y-79349014D01*
X185283349Y-79282133D01*
X185334721Y-79237619D01*
X185392734Y-79210568D01*
X185579139Y-79080047D01*
X185740047Y-78919139D01*
X185821129Y-78803341D01*
X185852613Y-78758377D01*
X185907189Y-78714752D01*
X185954188Y-78705500D01*
X187087256Y-78705500D01*
X187107762Y-78707764D01*
X187110665Y-78707672D01*
X187110667Y-78707673D01*
X187177872Y-78705561D01*
X187181768Y-78705500D01*
X187205448Y-78705500D01*
X187209350Y-78705500D01*
X187213313Y-78704999D01*
X187224962Y-78704080D01*
X187268627Y-78702709D01*
X187287859Y-78697120D01*
X187306918Y-78693174D01*
X187313196Y-78692381D01*
X187326792Y-78690664D01*
X187367407Y-78674582D01*
X187378444Y-78670803D01*
X187420390Y-78658618D01*
X187437629Y-78648422D01*
X187455102Y-78639862D01*
X187473732Y-78632486D01*
X187509064Y-78606814D01*
X187518830Y-78600400D01*
X187556418Y-78578171D01*
X187556417Y-78578171D01*
X187556420Y-78578170D01*
X187570585Y-78564004D01*
X187585373Y-78551373D01*
X187601587Y-78539594D01*
X187629438Y-78505926D01*
X187637269Y-78497319D01*
X187968176Y-78166413D01*
X188029496Y-78132932D01*
X188099188Y-78137916D01*
X188155121Y-78179788D01*
X188161391Y-78188999D01*
X188167158Y-78198349D01*
X188289147Y-78320338D01*
X188435984Y-78410908D01*
X188599746Y-78465174D01*
X188697690Y-78475180D01*
X188697691Y-78475180D01*
X188700823Y-78475500D01*
X189299176Y-78475499D01*
X189400253Y-78465174D01*
X189564016Y-78410908D01*
X189710850Y-78320340D01*
X189724501Y-78306689D01*
X189824819Y-78206372D01*
X189886142Y-78172887D01*
X189955834Y-78177871D01*
X190000181Y-78206372D01*
X190114147Y-78320338D01*
X190260984Y-78410908D01*
X190424746Y-78465174D01*
X190522690Y-78475180D01*
X190522691Y-78475180D01*
X190525823Y-78475500D01*
X191124176Y-78475499D01*
X191225253Y-78465174D01*
X191389016Y-78410908D01*
X191535850Y-78320340D01*
X191657840Y-78198350D01*
X191666441Y-78184404D01*
X191718389Y-78137679D01*
X191771981Y-78125500D01*
X195439548Y-78125500D01*
X195506587Y-78145185D01*
X195527229Y-78161819D01*
X197638180Y-80272770D01*
X197671665Y-80334093D01*
X197674499Y-80360451D01*
X197674500Y-93753150D01*
X197654815Y-93820189D01*
X197638181Y-93840831D01*
X191616208Y-99862803D01*
X191600110Y-99875700D01*
X191552096Y-99926829D01*
X191549392Y-99929620D01*
X191532628Y-99946384D01*
X191532621Y-99946391D01*
X191529880Y-99949133D01*
X191527499Y-99952201D01*
X191527490Y-99952212D01*
X191527411Y-99952315D01*
X191519842Y-99961176D01*
X191489935Y-99993024D01*
X191480285Y-100010578D01*
X191469609Y-100026832D01*
X191457326Y-100042667D01*
X191439975Y-100082762D01*
X191434838Y-100093248D01*
X191413802Y-100131511D01*
X191408821Y-100150913D01*
X191402520Y-100169315D01*
X191394561Y-100187706D01*
X191387728Y-100230847D01*
X191385361Y-100242279D01*
X191374500Y-100284586D01*
X191374499Y-100304624D01*
X191372973Y-100324009D01*
X191369839Y-100343797D01*
X191373950Y-100387277D01*
X191374500Y-100398947D01*
X191374500Y-109089546D01*
X191354815Y-109156585D01*
X191338181Y-109177227D01*
X177377228Y-123138181D01*
X177315905Y-123171666D01*
X177289547Y-123174500D01*
X169074499Y-123174500D01*
X169007460Y-123154815D01*
X168961705Y-123102011D01*
X168950499Y-123050500D01*
X168950499Y-122905439D01*
X168950499Y-122905438D01*
X168950499Y-122902128D01*
X168944091Y-122842517D01*
X168893796Y-122707669D01*
X168807546Y-122592454D01*
X168692331Y-122506204D01*
X168557483Y-122455909D01*
X168497873Y-122449500D01*
X168494550Y-122449500D01*
X166705439Y-122449500D01*
X166705420Y-122449500D01*
X166702128Y-122449501D01*
X166698848Y-122449853D01*
X166698840Y-122449854D01*
X166642515Y-122455909D01*
X166507669Y-122506204D01*
X166392454Y-122592454D01*
X166306204Y-122707669D01*
X166257189Y-122839083D01*
X166215317Y-122895016D01*
X166149852Y-122919433D01*
X166081580Y-122904581D01*
X166053326Y-122883430D01*
X165931404Y-122761508D01*
X165931401Y-122761505D01*
X165737830Y-122625965D01*
X165523663Y-122526097D01*
X165461927Y-122509555D01*
X165295407Y-122464936D01*
X165059999Y-122444340D01*
X164824592Y-122464936D01*
X164596336Y-122526097D01*
X164382170Y-122625965D01*
X164188598Y-122761505D01*
X164021505Y-122928598D01*
X163891575Y-123114159D01*
X163836998Y-123157784D01*
X163767500Y-123164978D01*
X163705145Y-123133455D01*
X163688425Y-123114159D01*
X163643851Y-123050500D01*
X163558495Y-122928599D01*
X163391401Y-122761505D01*
X163197830Y-122625965D01*
X162983663Y-122526097D01*
X162921927Y-122509555D01*
X162755407Y-122464936D01*
X162520000Y-122444340D01*
X162284592Y-122464936D01*
X162056336Y-122526097D01*
X161842170Y-122625965D01*
X161648598Y-122761505D01*
X161481508Y-122928595D01*
X161351269Y-123114596D01*
X161296692Y-123158220D01*
X161227193Y-123165413D01*
X161164839Y-123133891D01*
X161148119Y-123114595D01*
X161018109Y-122928921D01*
X160851081Y-122761893D01*
X160657576Y-122626399D01*
X160443492Y-122526569D01*
X160380000Y-122509556D01*
X160380000Y-123497582D01*
X160361761Y-123469202D01*
X160253100Y-123375048D01*
X160122315Y-123315320D01*
X160015763Y-123300000D01*
X159944237Y-123300000D01*
X159837685Y-123315320D01*
X159706900Y-123375048D01*
X159598239Y-123469202D01*
X159520507Y-123590156D01*
X159480000Y-123728111D01*
X159480000Y-123871889D01*
X154598766Y-123871889D01*
X154724214Y-123545087D01*
X154763090Y-123400000D01*
X158689557Y-123400000D01*
X159580000Y-123400000D01*
X159580000Y-122509556D01*
X159516507Y-122526569D01*
X159302421Y-122626400D01*
X159108921Y-122761890D01*
X158941890Y-122928921D01*
X158806400Y-123122421D01*
X158706569Y-123336509D01*
X158689557Y-123400000D01*
X154763090Y-123400000D01*
X154824602Y-123170433D01*
X154885278Y-122787338D01*
X154905578Y-122400000D01*
X154885278Y-122012662D01*
X154824602Y-121629567D01*
X154724214Y-121254913D01*
X154585214Y-120892806D01*
X154409125Y-120547211D01*
X154197876Y-120221916D01*
X153953781Y-119920484D01*
X153679516Y-119646219D01*
X153669976Y-119638494D01*
X153519412Y-119516569D01*
X153378084Y-119402124D01*
X153052789Y-119190875D01*
X153049901Y-119189403D01*
X153049895Y-119189400D01*
X152710086Y-119016259D01*
X152710077Y-119016255D01*
X152707194Y-119014786D01*
X152704162Y-119013622D01*
X152668676Y-119000000D01*
X168489557Y-119000000D01*
X168506569Y-119063491D01*
X168606399Y-119277576D01*
X168741893Y-119471081D01*
X168908918Y-119638106D01*
X169102423Y-119773600D01*
X169316508Y-119873430D01*
X169380000Y-119890442D01*
X169380000Y-119000000D01*
X168489557Y-119000000D01*
X152668676Y-119000000D01*
X152348108Y-118876945D01*
X152348096Y-118876941D01*
X152345087Y-118875786D01*
X152341973Y-118874951D01*
X152341962Y-118874948D01*
X152267406Y-118854971D01*
X152207746Y-118818605D01*
X152177217Y-118755758D01*
X152175500Y-118735196D01*
X152175500Y-118200000D01*
X168489557Y-118200000D01*
X169380000Y-118200000D01*
X169380000Y-117309556D01*
X169316507Y-117326569D01*
X169102421Y-117426400D01*
X168908921Y-117561890D01*
X168741890Y-117728921D01*
X168606400Y-117922421D01*
X168506569Y-118136509D01*
X168489557Y-118200000D01*
X152175500Y-118200000D01*
X152175500Y-117971827D01*
X152195185Y-117904788D01*
X152247989Y-117859033D01*
X152317147Y-117849089D01*
X152364598Y-117866289D01*
X152436197Y-117910452D01*
X152599847Y-117964680D01*
X152600000Y-117964695D01*
X152600000Y-117400000D01*
X153400000Y-117400000D01*
X153400000Y-117964695D01*
X153400152Y-117964680D01*
X153563801Y-117910453D01*
X153710540Y-117819943D01*
X153832443Y-117698040D01*
X153922953Y-117551301D01*
X153973089Y-117400000D01*
X153400000Y-117400000D01*
X152600000Y-117400000D01*
X152600000Y-116933440D01*
X158132244Y-116933440D01*
X158303967Y-116985531D01*
X158499999Y-117004838D01*
X158696035Y-116985530D01*
X158867754Y-116933440D01*
X158867754Y-116933439D01*
X158500001Y-116565685D01*
X158500000Y-116565685D01*
X158132244Y-116933440D01*
X152600000Y-116933440D01*
X152600000Y-116600000D01*
X153400000Y-116600000D01*
X153973088Y-116600000D01*
X153922953Y-116448698D01*
X153832443Y-116301959D01*
X153710540Y-116180056D01*
X153563801Y-116089546D01*
X153400151Y-116035319D01*
X153400001Y-116035303D01*
X153400000Y-116035304D01*
X153400000Y-116600000D01*
X152600000Y-116600000D01*
X152600000Y-116035304D01*
X152599998Y-116035303D01*
X152599848Y-116035319D01*
X152436198Y-116089546D01*
X152289461Y-116180055D01*
X152175534Y-116293982D01*
X152114211Y-116327466D01*
X152044519Y-116322482D01*
X152000172Y-116293981D01*
X151885852Y-116179661D01*
X151739015Y-116089091D01*
X151575253Y-116034825D01*
X151477309Y-116024819D01*
X151477290Y-116024818D01*
X151474177Y-116024500D01*
X151471028Y-116024500D01*
X151414774Y-116024500D01*
X151383694Y-116020542D01*
X151327285Y-116005937D01*
X151327284Y-116005936D01*
X151210223Y-116000000D01*
X157495161Y-116000000D01*
X157514468Y-116196032D01*
X157566559Y-116367753D01*
X157934314Y-116000000D01*
X159065685Y-116000000D01*
X159433439Y-116367754D01*
X159433440Y-116367754D01*
X159485530Y-116196035D01*
X159504838Y-116000000D01*
X159485531Y-115803967D01*
X159433440Y-115632244D01*
X159065685Y-116000000D01*
X157934314Y-116000000D01*
X157566559Y-115632245D01*
X157514468Y-115803967D01*
X157495161Y-116000000D01*
X151210223Y-116000000D01*
X151124064Y-115995631D01*
X151124063Y-115995631D01*
X151124061Y-115995631D01*
X150944944Y-116023070D01*
X150926170Y-116024500D01*
X150878973Y-116024500D01*
X150878954Y-116024500D01*
X150875824Y-116024501D01*
X150872692Y-116024820D01*
X150872690Y-116024821D01*
X150774747Y-116034825D01*
X150610984Y-116089091D01*
X150464147Y-116179661D01*
X150342161Y-116301647D01*
X150251591Y-116448484D01*
X150197325Y-116612246D01*
X150187319Y-116710190D01*
X150187317Y-116710210D01*
X150187000Y-116713323D01*
X150187000Y-116716471D01*
X150187000Y-116824821D01*
X150184462Y-116849781D01*
X150174500Y-116898259D01*
X150174500Y-118748593D01*
X150154815Y-118815632D01*
X150102011Y-118861387D01*
X150082597Y-118868367D01*
X150058042Y-118874947D01*
X150058032Y-118874950D01*
X150054913Y-118875786D01*
X150051908Y-118876939D01*
X150051891Y-118876945D01*
X149695837Y-119013622D01*
X149695828Y-119013625D01*
X149692806Y-119014786D01*
X149689929Y-119016251D01*
X149689913Y-119016259D01*
X149350104Y-119189400D01*
X149350090Y-119189408D01*
X149347211Y-119190875D01*
X149344491Y-119192641D01*
X149344483Y-119192646D01*
X149024644Y-119400352D01*
X149024638Y-119400355D01*
X149021916Y-119402124D01*
X149019396Y-119404164D01*
X149019390Y-119404169D01*
X148723002Y-119644179D01*
X148722991Y-119644188D01*
X148720484Y-119646219D01*
X148718199Y-119648503D01*
X148718189Y-119648513D01*
X148448513Y-119918189D01*
X148448503Y-119918199D01*
X148446219Y-119920484D01*
X148444188Y-119922991D01*
X148444179Y-119923002D01*
X148204169Y-120219390D01*
X148204164Y-120219396D01*
X148202124Y-120221916D01*
X148200355Y-120224638D01*
X148200352Y-120224644D01*
X147992646Y-120544483D01*
X147992641Y-120544491D01*
X147990875Y-120547211D01*
X147989408Y-120550090D01*
X147989400Y-120550104D01*
X147816259Y-120889913D01*
X147816251Y-120889929D01*
X147814786Y-120892806D01*
X147813625Y-120895828D01*
X147813622Y-120895837D01*
X147676946Y-121251889D01*
X147676941Y-121251902D01*
X147675786Y-121254913D01*
X147674950Y-121258031D01*
X147674947Y-121258042D01*
X147576237Y-121626433D01*
X147576234Y-121626446D01*
X147575398Y-121629567D01*
X147574892Y-121632758D01*
X147574889Y-121632775D01*
X147515229Y-122009456D01*
X147515227Y-122009470D01*
X147514722Y-122012662D01*
X147514552Y-122015894D01*
X147514552Y-122015900D01*
X147504704Y-122203806D01*
X147494422Y-122400000D01*
X146400500Y-122400000D01*
X146400500Y-114525477D01*
X147494663Y-114525477D01*
X147515367Y-114688051D01*
X147520370Y-114727328D01*
X147586184Y-114919872D01*
X147689410Y-115095227D01*
X147722854Y-115132244D01*
X147825823Y-115246215D01*
X147989833Y-115366650D01*
X148174730Y-115451605D01*
X148372946Y-115497603D01*
X148576361Y-115502757D01*
X148576361Y-115502756D01*
X148576363Y-115502757D01*
X148776653Y-115466858D01*
X148871134Y-115429117D01*
X148965616Y-115391378D01*
X149003137Y-115366649D01*
X149135519Y-115279402D01*
X149348360Y-115066559D01*
X158132245Y-115066559D01*
X158500000Y-115434314D01*
X158500001Y-115434314D01*
X158867753Y-115066559D01*
X158696032Y-115014468D01*
X158499999Y-114995161D01*
X158303967Y-115014468D01*
X158132245Y-115066559D01*
X149348360Y-115066559D01*
X149497429Y-114917489D01*
X149499560Y-114915412D01*
X149563053Y-114855059D01*
X149596759Y-114806630D01*
X149602428Y-114799113D01*
X149639698Y-114753407D01*
X149653783Y-114726439D01*
X149661918Y-114713015D01*
X149668373Y-114703740D01*
X149679295Y-114688049D01*
X149702568Y-114633815D01*
X149706598Y-114625331D01*
X149733908Y-114573051D01*
X149733909Y-114573049D01*
X149742278Y-114543797D01*
X149747534Y-114529032D01*
X149759540Y-114501058D01*
X149771418Y-114443256D01*
X149773651Y-114434156D01*
X149789887Y-114377418D01*
X149792197Y-114347077D01*
X149794376Y-114331535D01*
X149800500Y-114301741D01*
X149800500Y-114242757D01*
X149800858Y-114233342D01*
X149805337Y-114174524D01*
X149801493Y-114144339D01*
X149800500Y-114128676D01*
X149800500Y-113525000D01*
X152030196Y-113525000D01*
X152035318Y-113575150D01*
X152089546Y-113738801D01*
X152180056Y-113885540D01*
X152301959Y-114007443D01*
X152448698Y-114097953D01*
X152600000Y-114148088D01*
X152600000Y-113525000D01*
X153400000Y-113525000D01*
X153400000Y-114148088D01*
X153551301Y-114097953D01*
X153698040Y-114007443D01*
X153819943Y-113885540D01*
X153910453Y-113738801D01*
X153964681Y-113575151D01*
X153969805Y-113525000D01*
X153400000Y-113525000D01*
X152600000Y-113525000D01*
X152030196Y-113525000D01*
X149800500Y-113525000D01*
X149800500Y-112952399D01*
X149800500Y-112952398D01*
X149800500Y-112949258D01*
X149785074Y-112797562D01*
X149781186Y-112785169D01*
X149775499Y-112748048D01*
X149775499Y-112653972D01*
X149775499Y-112653971D01*
X149775499Y-112650824D01*
X149765174Y-112549747D01*
X149710908Y-112385984D01*
X149620340Y-112239150D01*
X149606019Y-112224829D01*
X149572532Y-112163507D01*
X149577515Y-112093815D01*
X149606019Y-112049463D01*
X149619945Y-112035536D01*
X149710452Y-111888804D01*
X149764681Y-111725151D01*
X149769805Y-111675000D01*
X147830196Y-111675000D01*
X147835318Y-111725150D01*
X147889546Y-111888801D01*
X147980056Y-112035540D01*
X147993981Y-112049465D01*
X148027466Y-112110788D01*
X148022482Y-112180480D01*
X147993985Y-112224824D01*
X147979661Y-112239148D01*
X147889091Y-112385985D01*
X147834825Y-112549746D01*
X147824819Y-112647690D01*
X147824817Y-112647710D01*
X147824500Y-112650823D01*
X147824500Y-112653970D01*
X147824500Y-112653971D01*
X147824500Y-112763994D01*
X147821962Y-112788954D01*
X147799500Y-112898259D01*
X147799500Y-113734217D01*
X147779815Y-113801256D01*
X147763188Y-113821892D01*
X147758880Y-113826199D01*
X147758871Y-113826208D01*
X147756660Y-113828420D01*
X147754680Y-113830847D01*
X147754672Y-113830857D01*
X147660303Y-113946591D01*
X147566089Y-114126955D01*
X147510112Y-114322580D01*
X147494663Y-114525477D01*
X146400500Y-114525477D01*
X146400500Y-110874999D01*
X147830195Y-110874999D01*
X147830196Y-110875000D01*
X148400000Y-110875000D01*
X148400000Y-110251910D01*
X149200000Y-110251910D01*
X149200000Y-110875000D01*
X149769803Y-110875000D01*
X149764681Y-110824849D01*
X149710453Y-110661198D01*
X149619943Y-110514459D01*
X149498038Y-110392554D01*
X149351305Y-110302047D01*
X149200000Y-110251910D01*
X148400000Y-110251910D01*
X148248694Y-110302047D01*
X148101961Y-110392554D01*
X147980056Y-110514459D01*
X147889546Y-110661198D01*
X147835318Y-110824848D01*
X147830195Y-110874999D01*
X146400500Y-110874999D01*
X146400500Y-99980000D01*
X151709557Y-99980000D01*
X152600000Y-99980000D01*
X152600000Y-99089556D01*
X153400000Y-99089556D01*
X153400000Y-99980000D01*
X154290442Y-99980000D01*
X154273430Y-99916509D01*
X154173599Y-99702421D01*
X154038109Y-99508921D01*
X153871081Y-99341893D01*
X153677576Y-99206399D01*
X153463492Y-99106569D01*
X153400000Y-99089556D01*
X152600000Y-99089556D01*
X152536507Y-99106569D01*
X152322421Y-99206400D01*
X152128921Y-99341890D01*
X151961890Y-99508921D01*
X151826400Y-99702421D01*
X151726569Y-99916509D01*
X151709557Y-99980000D01*
X146400500Y-99980000D01*
X146400500Y-97250937D01*
X159595630Y-97250937D01*
X159626443Y-97452071D01*
X159697113Y-97642886D01*
X159804745Y-97815568D01*
X159804748Y-97815571D01*
X159944941Y-97963053D01*
X160111951Y-98079295D01*
X160298942Y-98159540D01*
X160498259Y-98200500D01*
X160498261Y-98200500D01*
X164047600Y-98200500D01*
X164050742Y-98200500D01*
X164202438Y-98185074D01*
X164396588Y-98124159D01*
X164574502Y-98025409D01*
X164728895Y-97892866D01*
X164853448Y-97731958D01*
X164943060Y-97549271D01*
X164994063Y-97352285D01*
X165004369Y-97149064D01*
X165001599Y-97130985D01*
X164973556Y-96947928D01*
X164902886Y-96757113D01*
X164795254Y-96584431D01*
X164778836Y-96567160D01*
X164655059Y-96436947D01*
X164488049Y-96320705D01*
X164301058Y-96240460D01*
X164101741Y-96199500D01*
X160549258Y-96199500D01*
X160546147Y-96199816D01*
X160546134Y-96199817D01*
X160397559Y-96214926D01*
X160203412Y-96275841D01*
X160025500Y-96374589D01*
X159871104Y-96507135D01*
X159746551Y-96668042D01*
X159656940Y-96850727D01*
X159605937Y-97047716D01*
X159595630Y-97250937D01*
X146400500Y-97250937D01*
X146400500Y-93400000D01*
X147035304Y-93400000D01*
X147035319Y-93400152D01*
X147089546Y-93563801D01*
X147180056Y-93710540D01*
X147301959Y-93832443D01*
X147448698Y-93922953D01*
X147600000Y-93973088D01*
X147600000Y-93400000D01*
X148400000Y-93400000D01*
X148400000Y-93973088D01*
X148551301Y-93922953D01*
X148698040Y-93832443D01*
X148819943Y-93710540D01*
X148910453Y-93563801D01*
X148964680Y-93400152D01*
X148964696Y-93400000D01*
X148400000Y-93400000D01*
X147600000Y-93400000D01*
X147035304Y-93400000D01*
X146400500Y-93400000D01*
X146400500Y-93099999D01*
X150694356Y-93099999D01*
X150714891Y-93347816D01*
X150714891Y-93347819D01*
X150714892Y-93347821D01*
X150775937Y-93588881D01*
X150797858Y-93638855D01*
X150875825Y-93816604D01*
X150875827Y-93816607D01*
X151011836Y-94024785D01*
X151180256Y-94207738D01*
X151245667Y-94258650D01*
X151376485Y-94360470D01*
X151376487Y-94360471D01*
X151376491Y-94360474D01*
X151595190Y-94478828D01*
X151830386Y-94559571D01*
X152075665Y-94600500D01*
X152324335Y-94600500D01*
X152569614Y-94559571D01*
X152804810Y-94478828D01*
X153023509Y-94360474D01*
X153219744Y-94207738D01*
X153388164Y-94024785D01*
X153524173Y-93816607D01*
X153624063Y-93588881D01*
X153685108Y-93347821D01*
X153705643Y-93100000D01*
X157194356Y-93100000D01*
X157214891Y-93347816D01*
X157214891Y-93347819D01*
X157214892Y-93347821D01*
X157275937Y-93588881D01*
X157297858Y-93638855D01*
X157375825Y-93816604D01*
X157375827Y-93816607D01*
X157511836Y-94024785D01*
X157680256Y-94207738D01*
X157745667Y-94258650D01*
X157876485Y-94360470D01*
X157876487Y-94360471D01*
X157876491Y-94360474D01*
X158095190Y-94478828D01*
X158330386Y-94559571D01*
X158575665Y-94600500D01*
X158824335Y-94600500D01*
X159069614Y-94559571D01*
X159304810Y-94478828D01*
X159523509Y-94360474D01*
X159719744Y-94207738D01*
X159888164Y-94024785D01*
X160024173Y-93816607D01*
X160124063Y-93588881D01*
X160185108Y-93347821D01*
X160205643Y-93100000D01*
X160185108Y-92852179D01*
X160124063Y-92611119D01*
X160024173Y-92383393D01*
X159888164Y-92175215D01*
X159719744Y-91992262D01*
X159697612Y-91975036D01*
X159523514Y-91839529D01*
X159523510Y-91839526D01*
X159523509Y-91839526D01*
X159304810Y-91721172D01*
X159304806Y-91721170D01*
X159304805Y-91721170D01*
X159069615Y-91640429D01*
X158824335Y-91599500D01*
X158575665Y-91599500D01*
X158330384Y-91640429D01*
X158095194Y-91721170D01*
X157876485Y-91839529D01*
X157680259Y-91992259D01*
X157680256Y-91992261D01*
X157680256Y-91992262D01*
X157523651Y-92162381D01*
X157511837Y-92175214D01*
X157375825Y-92383395D01*
X157285780Y-92588678D01*
X157275937Y-92611119D01*
X157218990Y-92835998D01*
X157214891Y-92852183D01*
X157194356Y-93100000D01*
X153705643Y-93100000D01*
X153705088Y-93093308D01*
X153700242Y-93034825D01*
X153685108Y-92852179D01*
X153624063Y-92611119D01*
X153524173Y-92383393D01*
X153388164Y-92175215D01*
X153219744Y-91992262D01*
X153197612Y-91975036D01*
X153023514Y-91839529D01*
X153023510Y-91839526D01*
X153023509Y-91839526D01*
X152804810Y-91721172D01*
X152804806Y-91721170D01*
X152804805Y-91721170D01*
X152569615Y-91640429D01*
X152324335Y-91599500D01*
X152075665Y-91599500D01*
X151830384Y-91640429D01*
X151595194Y-91721170D01*
X151376485Y-91839529D01*
X151180259Y-91992259D01*
X151180256Y-91992261D01*
X151180256Y-91992262D01*
X151023651Y-92162381D01*
X151011837Y-92175214D01*
X150875825Y-92383395D01*
X150785780Y-92588678D01*
X150775937Y-92611119D01*
X150718990Y-92835998D01*
X150714891Y-92852183D01*
X150694356Y-93099999D01*
X146400500Y-93099999D01*
X146400500Y-91471045D01*
X147024500Y-91471045D01*
X147024501Y-91474176D01*
X147024820Y-91477308D01*
X147024821Y-91477309D01*
X147034825Y-91575252D01*
X147089091Y-91739015D01*
X147179661Y-91885852D01*
X147293981Y-92000172D01*
X147327466Y-92061495D01*
X147322482Y-92131187D01*
X147293982Y-92175534D01*
X147180055Y-92289461D01*
X147089546Y-92436198D01*
X147035319Y-92599847D01*
X147035304Y-92600000D01*
X148964695Y-92600000D01*
X148964680Y-92599847D01*
X148910453Y-92436198D01*
X148819943Y-92289459D01*
X148706018Y-92175534D01*
X148672533Y-92114211D01*
X148677517Y-92044519D01*
X148706016Y-92000173D01*
X148820340Y-91885850D01*
X148910908Y-91739016D01*
X148965174Y-91575253D01*
X148975500Y-91474177D01*
X148975499Y-90875824D01*
X148965174Y-90774747D01*
X148910908Y-90610984D01*
X148820340Y-90464150D01*
X148820339Y-90464149D01*
X148820338Y-90464147D01*
X148698351Y-90342160D01*
X148684402Y-90333556D01*
X148637678Y-90281607D01*
X148625500Y-90228018D01*
X148625500Y-89910452D01*
X148645185Y-89843413D01*
X148661819Y-89822771D01*
X149636774Y-88847816D01*
X150624504Y-87860085D01*
X150685826Y-87826602D01*
X150755518Y-87831586D01*
X150811451Y-87873458D01*
X150835868Y-87938922D01*
X150825740Y-87997578D01*
X150777570Y-88107395D01*
X150775937Y-88111119D01*
X150729951Y-88292711D01*
X150714891Y-88352183D01*
X150694356Y-88600000D01*
X150714891Y-88847816D01*
X150714891Y-88847819D01*
X150714892Y-88847821D01*
X150775937Y-89088881D01*
X150808547Y-89163225D01*
X150875825Y-89316604D01*
X150875827Y-89316607D01*
X151011836Y-89524785D01*
X151180256Y-89707738D01*
X151180259Y-89707740D01*
X151376485Y-89860470D01*
X151376487Y-89860471D01*
X151376491Y-89860474D01*
X151595190Y-89978828D01*
X151830386Y-90059571D01*
X152075665Y-90100500D01*
X152324335Y-90100500D01*
X152569614Y-90059571D01*
X152804810Y-89978828D01*
X153023509Y-89860474D01*
X153219744Y-89707738D01*
X153388164Y-89524785D01*
X153524173Y-89316607D01*
X153624063Y-89088881D01*
X153685108Y-88847821D01*
X153705643Y-88600000D01*
X153693229Y-88450180D01*
X153685109Y-88352184D01*
X153685108Y-88352179D01*
X153631135Y-88139046D01*
X153633760Y-88069229D01*
X153663658Y-88020930D01*
X154022770Y-87661819D01*
X154084094Y-87628334D01*
X154110452Y-87625500D01*
X154320981Y-87625500D01*
X154720981Y-87625500D01*
X157315184Y-87625500D01*
X157382223Y-87645185D01*
X157427978Y-87697989D01*
X157437922Y-87767147D01*
X157418993Y-87817321D01*
X157375826Y-87883392D01*
X157315498Y-88020928D01*
X157275937Y-88111119D01*
X157229951Y-88292712D01*
X157214891Y-88352183D01*
X157194356Y-88600000D01*
X157214891Y-88847816D01*
X157214891Y-88847819D01*
X157214892Y-88847821D01*
X157275937Y-89088881D01*
X157308547Y-89163225D01*
X157375825Y-89316604D01*
X157375827Y-89316607D01*
X157511836Y-89524785D01*
X157680256Y-89707738D01*
X157680259Y-89707740D01*
X157876485Y-89860470D01*
X157876487Y-89860471D01*
X157876491Y-89860474D01*
X158095190Y-89978828D01*
X158330386Y-90059571D01*
X158575665Y-90100500D01*
X158824335Y-90100500D01*
X159069614Y-90059571D01*
X159304810Y-89978828D01*
X159523509Y-89860474D01*
X159719744Y-89707738D01*
X159888164Y-89524785D01*
X160024173Y-89316607D01*
X160124063Y-89088881D01*
X160185108Y-88847821D01*
X160205643Y-88600000D01*
X160193229Y-88450180D01*
X160185109Y-88352184D01*
X160185108Y-88352179D01*
X160131135Y-88139046D01*
X160133760Y-88069229D01*
X160163658Y-88020930D01*
X160522770Y-87661819D01*
X160584094Y-87628334D01*
X160610452Y-87625500D01*
X163228019Y-87625500D01*
X163295058Y-87645185D01*
X163333559Y-87684405D01*
X163342161Y-87698352D01*
X163464147Y-87820338D01*
X163464149Y-87820339D01*
X163464150Y-87820340D01*
X163566375Y-87883393D01*
X163610984Y-87910908D01*
X163774746Y-87965174D01*
X163872690Y-87975180D01*
X163872691Y-87975180D01*
X163875823Y-87975500D01*
X164474176Y-87975499D01*
X164575253Y-87965174D01*
X164739016Y-87910908D01*
X164885850Y-87820340D01*
X164999820Y-87706369D01*
X165061141Y-87672886D01*
X165130833Y-87677870D01*
X165175179Y-87706369D01*
X165289150Y-87820340D01*
X165391375Y-87883393D01*
X165435984Y-87910908D01*
X165599746Y-87965174D01*
X165697690Y-87975180D01*
X165697691Y-87975180D01*
X165700823Y-87975500D01*
X166299176Y-87975499D01*
X166400253Y-87965174D01*
X166564016Y-87910908D01*
X166710850Y-87820340D01*
X166832840Y-87698350D01*
X166841441Y-87684404D01*
X166893389Y-87637679D01*
X166946981Y-87625500D01*
X168117256Y-87625500D01*
X168137758Y-87627763D01*
X168140661Y-87627671D01*
X168140667Y-87627673D01*
X168152313Y-87627306D01*
X168219935Y-87644873D01*
X168267328Y-87696212D01*
X168279441Y-87765024D01*
X168275984Y-87783338D01*
X168214364Y-88013308D01*
X168194531Y-88239999D01*
X168214364Y-88466689D01*
X168273261Y-88686497D01*
X168369432Y-88892735D01*
X168499953Y-89079140D01*
X168660859Y-89240046D01*
X168770201Y-89316607D01*
X168847266Y-89370568D01*
X168905275Y-89397618D01*
X168957714Y-89443791D01*
X168976865Y-89510985D01*
X168956649Y-89577866D01*
X168905275Y-89622382D01*
X168847263Y-89649433D01*
X168660859Y-89779953D01*
X168499953Y-89940859D01*
X168387387Y-90101623D01*
X168332811Y-90145248D01*
X168285812Y-90154500D01*
X166934645Y-90154500D01*
X166867606Y-90134815D01*
X166844108Y-90110878D01*
X166843089Y-90111898D01*
X166710852Y-89979661D01*
X166564015Y-89889091D01*
X166400253Y-89834825D01*
X166302309Y-89824819D01*
X166302290Y-89824818D01*
X166299177Y-89824500D01*
X166296028Y-89824500D01*
X165703973Y-89824500D01*
X165703953Y-89824500D01*
X165700824Y-89824501D01*
X165697692Y-89824820D01*
X165697690Y-89824821D01*
X165599747Y-89834825D01*
X165435984Y-89889091D01*
X165289147Y-89979661D01*
X165175181Y-90093628D01*
X165113858Y-90127113D01*
X165044166Y-90122129D01*
X164999819Y-90093628D01*
X164885852Y-89979661D01*
X164739015Y-89889091D01*
X164575253Y-89834825D01*
X164477309Y-89824819D01*
X164477290Y-89824818D01*
X164474177Y-89824500D01*
X164471028Y-89824500D01*
X163878973Y-89824500D01*
X163878953Y-89824500D01*
X163875824Y-89824501D01*
X163872692Y-89824820D01*
X163872690Y-89824821D01*
X163774747Y-89834825D01*
X163610984Y-89889091D01*
X163464147Y-89979661D01*
X163342161Y-90101647D01*
X163333559Y-90115595D01*
X163281611Y-90162321D01*
X163228019Y-90174500D01*
X161782740Y-90174500D01*
X161762236Y-90172236D01*
X161692144Y-90174439D01*
X161688250Y-90174500D01*
X161660650Y-90174500D01*
X161656789Y-90174987D01*
X161656778Y-90174988D01*
X161656645Y-90175005D01*
X161645029Y-90175918D01*
X161601368Y-90177290D01*
X161582129Y-90182880D01*
X161563080Y-90186825D01*
X161543208Y-90189335D01*
X161502593Y-90205415D01*
X161491549Y-90209196D01*
X161449611Y-90221382D01*
X161432364Y-90231581D01*
X161414900Y-90240136D01*
X161396267Y-90247514D01*
X161360926Y-90273189D01*
X161351168Y-90279599D01*
X161313579Y-90301829D01*
X161299410Y-90315998D01*
X161284622Y-90328628D01*
X161268410Y-90340407D01*
X161240570Y-90374059D01*
X161232710Y-90382697D01*
X161052226Y-90563182D01*
X160990906Y-90596666D01*
X160964547Y-90599500D01*
X160905352Y-90599500D01*
X160720197Y-90638855D01*
X160547269Y-90715848D01*
X160394129Y-90827110D01*
X160267466Y-90967783D01*
X160172820Y-91131715D01*
X160114326Y-91311742D01*
X160094540Y-91499999D01*
X160114326Y-91688257D01*
X160172820Y-91868284D01*
X160267466Y-92032216D01*
X160394129Y-92172889D01*
X160547269Y-92284151D01*
X160720197Y-92361144D01*
X160905352Y-92400500D01*
X160905354Y-92400500D01*
X161094648Y-92400500D01*
X161218084Y-92374262D01*
X161279803Y-92361144D01*
X161452730Y-92284151D01*
X161602229Y-92175534D01*
X161605870Y-92172889D01*
X161615332Y-92162381D01*
X161732533Y-92032216D01*
X161827179Y-91868284D01*
X161885674Y-91688256D01*
X161901619Y-91536536D01*
X161928203Y-91471924D01*
X161985501Y-91431939D01*
X162024940Y-91425500D01*
X163228019Y-91425500D01*
X163295058Y-91445185D01*
X163333559Y-91484405D01*
X163342161Y-91498352D01*
X163464147Y-91620338D01*
X163464149Y-91620339D01*
X163464150Y-91620340D01*
X163574259Y-91688256D01*
X163610984Y-91710908D01*
X163774746Y-91765174D01*
X163872690Y-91775180D01*
X163872691Y-91775180D01*
X163875823Y-91775500D01*
X164474176Y-91775499D01*
X164575253Y-91765174D01*
X164739016Y-91710908D01*
X164885850Y-91620340D01*
X164930938Y-91575252D01*
X164999819Y-91506372D01*
X165061142Y-91472887D01*
X165130834Y-91477871D01*
X165175181Y-91506372D01*
X165289147Y-91620338D01*
X165289149Y-91620339D01*
X165289150Y-91620340D01*
X165399259Y-91688256D01*
X165435984Y-91710908D01*
X165599746Y-91765174D01*
X165697690Y-91775180D01*
X165697691Y-91775180D01*
X165700823Y-91775500D01*
X166299176Y-91775499D01*
X166400253Y-91765174D01*
X166564016Y-91710908D01*
X166710850Y-91620340D01*
X166832840Y-91498350D01*
X166853777Y-91464404D01*
X166905725Y-91417679D01*
X166959317Y-91405500D01*
X168285812Y-91405500D01*
X168352851Y-91425185D01*
X168387387Y-91458377D01*
X168499953Y-91619140D01*
X168660859Y-91780046D01*
X168847263Y-91910566D01*
X168847266Y-91910568D01*
X168905275Y-91937618D01*
X168957714Y-91983791D01*
X168976865Y-92050985D01*
X168956649Y-92117866D01*
X168905275Y-92162381D01*
X168884576Y-92172033D01*
X168847263Y-92189433D01*
X168660859Y-92319953D01*
X168499953Y-92480859D01*
X168387387Y-92641623D01*
X168332811Y-92685248D01*
X168285812Y-92694500D01*
X167762740Y-92694500D01*
X167742236Y-92692236D01*
X167672144Y-92694439D01*
X167668250Y-92694500D01*
X167640650Y-92694500D01*
X167636799Y-92694986D01*
X167636768Y-92694988D01*
X167636640Y-92695005D01*
X167625028Y-92695918D01*
X167581368Y-92697290D01*
X167562128Y-92702880D01*
X167543081Y-92706825D01*
X167523209Y-92709335D01*
X167482599Y-92725413D01*
X167471554Y-92729194D01*
X167429611Y-92741380D01*
X167412369Y-92751578D01*
X167394897Y-92760138D01*
X167376266Y-92767514D01*
X167340938Y-92793181D01*
X167331180Y-92799591D01*
X167293579Y-92821829D01*
X167279410Y-92835998D01*
X167264622Y-92848628D01*
X167248413Y-92860405D01*
X167220572Y-92894058D01*
X167212711Y-92902696D01*
X166910980Y-93204427D01*
X166849657Y-93237912D01*
X166779965Y-93232928D01*
X166735618Y-93204427D01*
X166710852Y-93179661D01*
X166564015Y-93089091D01*
X166400253Y-93034825D01*
X166302309Y-93024819D01*
X166302290Y-93024818D01*
X166299177Y-93024500D01*
X166296028Y-93024500D01*
X165703973Y-93024500D01*
X165703953Y-93024500D01*
X165700824Y-93024501D01*
X165697692Y-93024820D01*
X165697690Y-93024821D01*
X165599747Y-93034825D01*
X165435984Y-93089091D01*
X165289147Y-93179661D01*
X165175181Y-93293628D01*
X165113858Y-93327113D01*
X165044166Y-93322129D01*
X164999819Y-93293628D01*
X164885852Y-93179661D01*
X164739015Y-93089091D01*
X164575253Y-93034825D01*
X164477309Y-93024819D01*
X164477290Y-93024818D01*
X164474177Y-93024500D01*
X164471028Y-93024500D01*
X163878973Y-93024500D01*
X163878953Y-93024500D01*
X163875824Y-93024501D01*
X163872692Y-93024820D01*
X163872690Y-93024821D01*
X163774747Y-93034825D01*
X163610984Y-93089091D01*
X163464147Y-93179661D01*
X163342161Y-93301647D01*
X163333559Y-93315595D01*
X163281611Y-93362321D01*
X163228019Y-93374500D01*
X161582744Y-93374500D01*
X161562237Y-93372235D01*
X161492127Y-93374439D01*
X161488232Y-93374500D01*
X161460650Y-93374500D01*
X161456805Y-93374985D01*
X161456780Y-93374987D01*
X161456653Y-93375004D01*
X161445033Y-93375918D01*
X161401369Y-93377290D01*
X161382129Y-93382880D01*
X161363081Y-93386825D01*
X161343209Y-93389335D01*
X161302599Y-93405413D01*
X161291554Y-93409194D01*
X161249610Y-93421381D01*
X161232365Y-93431579D01*
X161214904Y-93440133D01*
X161196267Y-93447512D01*
X161160931Y-93473185D01*
X161151174Y-93479595D01*
X161113580Y-93501829D01*
X161099413Y-93515996D01*
X161084624Y-93528626D01*
X161068414Y-93540404D01*
X161056719Y-93554541D01*
X160998819Y-93593648D01*
X160961176Y-93599500D01*
X160905352Y-93599500D01*
X160720197Y-93638855D01*
X160547269Y-93715848D01*
X160394129Y-93827110D01*
X160267466Y-93967783D01*
X160172820Y-94131715D01*
X160114326Y-94311742D01*
X160094540Y-94500000D01*
X160114326Y-94688257D01*
X160172820Y-94868284D01*
X160267466Y-95032216D01*
X160394129Y-95172889D01*
X160547269Y-95284151D01*
X160720197Y-95361144D01*
X160905352Y-95400500D01*
X160905354Y-95400500D01*
X161094648Y-95400500D01*
X161218084Y-95374262D01*
X161279803Y-95361144D01*
X161452730Y-95284151D01*
X161558554Y-95207266D01*
X161605870Y-95172889D01*
X161732533Y-95032216D01*
X161827179Y-94868284D01*
X161878225Y-94711182D01*
X161917662Y-94653506D01*
X161982021Y-94626308D01*
X161996156Y-94625500D01*
X163228019Y-94625500D01*
X163295058Y-94645185D01*
X163333558Y-94684404D01*
X163334840Y-94686482D01*
X163342161Y-94698352D01*
X163464147Y-94820338D01*
X163464149Y-94820339D01*
X163464150Y-94820340D01*
X163535176Y-94864149D01*
X163610984Y-94910908D01*
X163774746Y-94965174D01*
X163872690Y-94975180D01*
X163872691Y-94975180D01*
X163875823Y-94975500D01*
X164474176Y-94975499D01*
X164575253Y-94965174D01*
X164739016Y-94910908D01*
X164885850Y-94820340D01*
X164885851Y-94820337D01*
X164999819Y-94706372D01*
X165061142Y-94672887D01*
X165130834Y-94677871D01*
X165175181Y-94706372D01*
X165289147Y-94820338D01*
X165289149Y-94820339D01*
X165289150Y-94820340D01*
X165360176Y-94864149D01*
X165435984Y-94910908D01*
X165599746Y-94965174D01*
X165697690Y-94975180D01*
X165697691Y-94975180D01*
X165700823Y-94975500D01*
X166299176Y-94975499D01*
X166400253Y-94965174D01*
X166564016Y-94910908D01*
X166710850Y-94820340D01*
X166832840Y-94698350D01*
X166840161Y-94686479D01*
X166892106Y-94639756D01*
X166941805Y-94627637D01*
X166998528Y-94625854D01*
X167007874Y-94625561D01*
X167011768Y-94625500D01*
X167035448Y-94625500D01*
X167039350Y-94625500D01*
X167043313Y-94624999D01*
X167054962Y-94624080D01*
X167098627Y-94622709D01*
X167117859Y-94617120D01*
X167136918Y-94613174D01*
X167143196Y-94612381D01*
X167156792Y-94610664D01*
X167197407Y-94594582D01*
X167208444Y-94590803D01*
X167250390Y-94578618D01*
X167267629Y-94568422D01*
X167285102Y-94559862D01*
X167285837Y-94559571D01*
X167303732Y-94552486D01*
X167339064Y-94526814D01*
X167348830Y-94520400D01*
X167350622Y-94519340D01*
X167386420Y-94498170D01*
X167400585Y-94484004D01*
X167415373Y-94471373D01*
X167431587Y-94459594D01*
X167459438Y-94425926D01*
X167467269Y-94417319D01*
X167902773Y-93981816D01*
X167964095Y-93948334D01*
X167990453Y-93945500D01*
X168285812Y-93945500D01*
X168352851Y-93965185D01*
X168387387Y-93998377D01*
X168499953Y-94159140D01*
X168660859Y-94320046D01*
X168805662Y-94421437D01*
X168847266Y-94450568D01*
X168905275Y-94477618D01*
X168957714Y-94523791D01*
X168976865Y-94590985D01*
X168956649Y-94657866D01*
X168905275Y-94702382D01*
X168847263Y-94729433D01*
X168660859Y-94859953D01*
X168499953Y-95020859D01*
X168369432Y-95207264D01*
X168273261Y-95413502D01*
X168214364Y-95633310D01*
X168194531Y-95859999D01*
X168214364Y-96086689D01*
X168273261Y-96306497D01*
X168369432Y-96512735D01*
X168499953Y-96699140D01*
X168660859Y-96860046D01*
X168847263Y-96990566D01*
X168847266Y-96990568D01*
X168905275Y-97017618D01*
X168957714Y-97063791D01*
X168976865Y-97130985D01*
X168956649Y-97197866D01*
X168905275Y-97242382D01*
X168847263Y-97269433D01*
X168660859Y-97399953D01*
X168499953Y-97560859D01*
X168387387Y-97721623D01*
X168332811Y-97765248D01*
X168285812Y-97774500D01*
X166482740Y-97774500D01*
X166462236Y-97772236D01*
X166392144Y-97774439D01*
X166388250Y-97774500D01*
X166360650Y-97774500D01*
X166356799Y-97774986D01*
X166356768Y-97774988D01*
X166356640Y-97775005D01*
X166345028Y-97775918D01*
X166301372Y-97777290D01*
X166282135Y-97782879D01*
X166263094Y-97786822D01*
X166243208Y-97789335D01*
X166202582Y-97805419D01*
X166191537Y-97809200D01*
X166149613Y-97821381D01*
X166132365Y-97831581D01*
X166114903Y-97840135D01*
X166102915Y-97844881D01*
X166096265Y-97847515D01*
X166060926Y-97873189D01*
X166051168Y-97879599D01*
X166013579Y-97901829D01*
X165999410Y-97915998D01*
X165984622Y-97928628D01*
X165968413Y-97940405D01*
X165940572Y-97974058D01*
X165932711Y-97982696D01*
X161657228Y-102258181D01*
X161595905Y-102291666D01*
X161569547Y-102294500D01*
X154275226Y-102294500D01*
X154208187Y-102274815D01*
X154173651Y-102241623D01*
X154152004Y-102210708D01*
X154038495Y-102048599D01*
X153871401Y-101881505D01*
X153685402Y-101751267D01*
X153641780Y-101696692D01*
X153634587Y-101627193D01*
X153666109Y-101564839D01*
X153685405Y-101548119D01*
X153871078Y-101418109D01*
X154038106Y-101251081D01*
X154173600Y-101057576D01*
X154273430Y-100843491D01*
X154290443Y-100780000D01*
X153301897Y-100780000D01*
X153381761Y-100710798D01*
X153459493Y-100589844D01*
X153500000Y-100451889D01*
X153500000Y-100308111D01*
X153459493Y-100170156D01*
X153381761Y-100049202D01*
X153273100Y-99955048D01*
X153142315Y-99895320D01*
X153035763Y-99880000D01*
X152964237Y-99880000D01*
X152857685Y-99895320D01*
X152726900Y-99955048D01*
X152618239Y-100049202D01*
X152540507Y-100170156D01*
X152500000Y-100308111D01*
X152500000Y-100451889D01*
X152540507Y-100589844D01*
X152618239Y-100710798D01*
X152698103Y-100780000D01*
X151709557Y-100780000D01*
X151726569Y-100843491D01*
X151826399Y-101057576D01*
X151961893Y-101251081D01*
X152128918Y-101418106D01*
X152314595Y-101548119D01*
X152358219Y-101602696D01*
X152365412Y-101672195D01*
X152333890Y-101734549D01*
X152314595Y-101751269D01*
X152128595Y-101881508D01*
X151961505Y-102048598D01*
X151825965Y-102242170D01*
X151726097Y-102456336D01*
X151664936Y-102684592D01*
X151644340Y-102919999D01*
X151664936Y-103155407D01*
X151691169Y-103253308D01*
X151726097Y-103383663D01*
X151825965Y-103597830D01*
X151961505Y-103791401D01*
X152128599Y-103958495D01*
X152314160Y-104088426D01*
X152357783Y-104143002D01*
X152364976Y-104212501D01*
X152333454Y-104274855D01*
X152314160Y-104291574D01*
X152150873Y-104405909D01*
X152128595Y-104421508D01*
X151961505Y-104588598D01*
X151825965Y-104782170D01*
X151726097Y-104996336D01*
X151664936Y-105224592D01*
X151644340Y-105460000D01*
X151664936Y-105695407D01*
X151676211Y-105737484D01*
X151726097Y-105923663D01*
X151825965Y-106137830D01*
X151961505Y-106331401D01*
X151961507Y-106331403D01*
X151961508Y-106331404D01*
X152083430Y-106453326D01*
X152116915Y-106514649D01*
X152111931Y-106584341D01*
X152070059Y-106640274D01*
X152039083Y-106657189D01*
X151907669Y-106706204D01*
X151792454Y-106792454D01*
X151706204Y-106907668D01*
X151655909Y-107042516D01*
X151655772Y-107043795D01*
X151649500Y-107102127D01*
X151649500Y-107105448D01*
X151649500Y-107105449D01*
X151649500Y-108894560D01*
X151649500Y-108894578D01*
X151649501Y-108897872D01*
X151649853Y-108901152D01*
X151649854Y-108901159D01*
X151655909Y-108957484D01*
X151671171Y-108998402D01*
X151706204Y-109092331D01*
X151792454Y-109207546D01*
X151907669Y-109293796D01*
X151918831Y-109297959D01*
X151974766Y-109339830D01*
X151999184Y-109405294D01*
X151999500Y-109414141D01*
X151999500Y-111450742D01*
X151999816Y-111453853D01*
X151999817Y-111453865D01*
X152014926Y-111602439D01*
X152018814Y-111614831D01*
X152024500Y-111651948D01*
X152024500Y-111746026D01*
X152024500Y-111746045D01*
X152024501Y-111749176D01*
X152024820Y-111752307D01*
X152024821Y-111752310D01*
X152034825Y-111850252D01*
X152089091Y-112014015D01*
X152179661Y-112160852D01*
X152193981Y-112175172D01*
X152227466Y-112236495D01*
X152222482Y-112306187D01*
X152193983Y-112350532D01*
X152180057Y-112364458D01*
X152089546Y-112511198D01*
X152035318Y-112674848D01*
X152030195Y-112724999D01*
X152030196Y-112725000D01*
X153969803Y-112725000D01*
X153964681Y-112674849D01*
X153910453Y-112511198D01*
X153819943Y-112364459D01*
X153806018Y-112350534D01*
X153772533Y-112289211D01*
X153777517Y-112219519D01*
X153806020Y-112175170D01*
X153808831Y-112172359D01*
X153820340Y-112160850D01*
X153910908Y-112014016D01*
X153965174Y-111850253D01*
X153975500Y-111749177D01*
X153975499Y-111636005D01*
X153978037Y-111611044D01*
X154000500Y-111501741D01*
X154000500Y-109414142D01*
X154020185Y-109347103D01*
X154072989Y-109301348D01*
X154081169Y-109297959D01*
X154092331Y-109293796D01*
X154207546Y-109207546D01*
X154293796Y-109092331D01*
X154297960Y-109081165D01*
X154339833Y-109025232D01*
X154405298Y-109000816D01*
X154414142Y-109000500D01*
X155185721Y-109000500D01*
X155188862Y-109000539D01*
X155276363Y-109002757D01*
X155334432Y-108992348D01*
X155343736Y-108991043D01*
X155402438Y-108985074D01*
X155431467Y-108975965D01*
X155446700Y-108972226D01*
X155476653Y-108966858D01*
X155531426Y-108944978D01*
X155540301Y-108941819D01*
X155557675Y-108936367D01*
X155596588Y-108924159D01*
X155623194Y-108909390D01*
X155637362Y-108902662D01*
X155665617Y-108891377D01*
X155714879Y-108858909D01*
X155722910Y-108854043D01*
X155774502Y-108825409D01*
X155797587Y-108805589D01*
X155810114Y-108796144D01*
X155835519Y-108779402D01*
X155877251Y-108737668D01*
X155884123Y-108731300D01*
X155928895Y-108692866D01*
X155947519Y-108668803D01*
X155957880Y-108657039D01*
X157538287Y-107076632D01*
X157599608Y-107043149D01*
X157669296Y-107048132D01*
X157789083Y-107092810D01*
X157845016Y-107134682D01*
X157869433Y-107200146D01*
X157854581Y-107268419D01*
X157833431Y-107296673D01*
X157711503Y-107418601D01*
X157575965Y-107612170D01*
X157476097Y-107826336D01*
X157414936Y-108054592D01*
X157394340Y-108289999D01*
X157414936Y-108525407D01*
X157441298Y-108623791D01*
X157476097Y-108753663D01*
X157575965Y-108967830D01*
X157711505Y-109161401D01*
X157878599Y-109328495D01*
X158072170Y-109464035D01*
X158286337Y-109563903D01*
X158478585Y-109615415D01*
X158514592Y-109625063D01*
X158749999Y-109645659D01*
X158749999Y-109645658D01*
X158750000Y-109645659D01*
X158985408Y-109625063D01*
X159213663Y-109563903D01*
X159427830Y-109464035D01*
X159621401Y-109328495D01*
X159623077Y-109326819D01*
X159626330Y-109325042D01*
X159630287Y-109322272D01*
X159630596Y-109322713D01*
X159684400Y-109293334D01*
X159710758Y-109290500D01*
X160422762Y-109290500D01*
X160489801Y-109310185D01*
X160512635Y-109329067D01*
X160544941Y-109363053D01*
X160544942Y-109363054D01*
X160593362Y-109396755D01*
X160600871Y-109402416D01*
X160646593Y-109439698D01*
X160673562Y-109453785D01*
X160686982Y-109461916D01*
X160711949Y-109479294D01*
X160766163Y-109502559D01*
X160774673Y-109506601D01*
X160826951Y-109533909D01*
X160856200Y-109542277D01*
X160870970Y-109547535D01*
X160898942Y-109559540D01*
X160898945Y-109559540D01*
X160898946Y-109559541D01*
X160956726Y-109571414D01*
X160965869Y-109573657D01*
X161022582Y-109589886D01*
X161052920Y-109592196D01*
X161068448Y-109594373D01*
X161098259Y-109600500D01*
X161157244Y-109600500D01*
X161166659Y-109600858D01*
X161170806Y-109601173D01*
X161225476Y-109605337D01*
X161252278Y-109601923D01*
X161255652Y-109601494D01*
X161271317Y-109600500D01*
X162760232Y-109600500D01*
X162799234Y-109606793D01*
X162862247Y-109627674D01*
X162920492Y-109633624D01*
X162960190Y-109637680D01*
X162960191Y-109637680D01*
X162963323Y-109638000D01*
X163536676Y-109637999D01*
X163637753Y-109627674D01*
X163700764Y-109606793D01*
X163739768Y-109600500D01*
X165510232Y-109600500D01*
X165549234Y-109606793D01*
X165612247Y-109627674D01*
X165670492Y-109633624D01*
X165710190Y-109637680D01*
X165710191Y-109637680D01*
X165713323Y-109638000D01*
X166286676Y-109637999D01*
X166387753Y-109627674D01*
X166450764Y-109606793D01*
X166489768Y-109600500D01*
X168679538Y-109600500D01*
X168746577Y-109620185D01*
X168750651Y-109622918D01*
X168847266Y-109690568D01*
X169053504Y-109786739D01*
X169273308Y-109845635D01*
X169406994Y-109857331D01*
X169499999Y-109865468D01*
X169499999Y-109865467D01*
X169500000Y-109865468D01*
X169726692Y-109845635D01*
X169946496Y-109786739D01*
X170152734Y-109690568D01*
X170339139Y-109560047D01*
X170500047Y-109399139D01*
X170630568Y-109212734D01*
X170726739Y-109006496D01*
X170785635Y-108786692D01*
X170805468Y-108560000D01*
X170785635Y-108333308D01*
X170726739Y-108113504D01*
X170630568Y-107907266D01*
X170590002Y-107849330D01*
X170500046Y-107720859D01*
X170339140Y-107559953D01*
X170152736Y-107429433D01*
X170129507Y-107418601D01*
X170094132Y-107402105D01*
X170041695Y-107355933D01*
X170022543Y-107288739D01*
X170042759Y-107221858D01*
X170094135Y-107177342D01*
X170152479Y-107150135D01*
X170338819Y-107019658D01*
X170499658Y-106858819D01*
X170630134Y-106672480D01*
X170726266Y-106466326D01*
X170738680Y-106420000D01*
X169801897Y-106420000D01*
X169881761Y-106350798D01*
X169959493Y-106229844D01*
X170000000Y-106091889D01*
X170000000Y-105948111D01*
X169959493Y-105810156D01*
X169881761Y-105689202D01*
X169801897Y-105620000D01*
X170738679Y-105620000D01*
X170726266Y-105573673D01*
X170630134Y-105367519D01*
X170499658Y-105181180D01*
X170338819Y-105020341D01*
X170152482Y-104889866D01*
X170094133Y-104862657D01*
X170041694Y-104816484D01*
X170022543Y-104749290D01*
X170042759Y-104682409D01*
X170094134Y-104637893D01*
X170152734Y-104610568D01*
X170339139Y-104480047D01*
X170500047Y-104319139D01*
X170630568Y-104132734D01*
X170726739Y-103926496D01*
X170785635Y-103706692D01*
X170805468Y-103480000D01*
X170785635Y-103253308D01*
X170726739Y-103033504D01*
X170630568Y-102827266D01*
X170530668Y-102684592D01*
X170500046Y-102640859D01*
X170339140Y-102479953D01*
X170152733Y-102349431D01*
X170111727Y-102330310D01*
X170094724Y-102322381D01*
X170042285Y-102276210D01*
X170023133Y-102209017D01*
X170043348Y-102142135D01*
X170094725Y-102097618D01*
X170095317Y-102097342D01*
X170152734Y-102070568D01*
X170339139Y-101940047D01*
X170500047Y-101779139D01*
X170630568Y-101592734D01*
X170726739Y-101386496D01*
X170785635Y-101166692D01*
X170805468Y-100940000D01*
X170785635Y-100713308D01*
X170726739Y-100493504D01*
X170630568Y-100287266D01*
X170628692Y-100284586D01*
X170500046Y-100100859D01*
X170339140Y-99939953D01*
X170152736Y-99809433D01*
X170094723Y-99782381D01*
X170042284Y-99736208D01*
X170023133Y-99669014D01*
X170043349Y-99602133D01*
X170094721Y-99557619D01*
X170152734Y-99530568D01*
X170339139Y-99400047D01*
X170500047Y-99239139D01*
X170630568Y-99052734D01*
X170726739Y-98846496D01*
X170785635Y-98626692D01*
X170805468Y-98400000D01*
X170785635Y-98173308D01*
X170726739Y-97953504D01*
X170630568Y-97747266D01*
X170619850Y-97731958D01*
X170500046Y-97560859D01*
X170339140Y-97399953D01*
X170152736Y-97269433D01*
X170152732Y-97269431D01*
X170094722Y-97242380D01*
X170042284Y-97196208D01*
X170023133Y-97129014D01*
X170043349Y-97062133D01*
X170094721Y-97017619D01*
X170152734Y-96990568D01*
X170339139Y-96860047D01*
X170500047Y-96699139D01*
X170630568Y-96512734D01*
X170726739Y-96306496D01*
X170785635Y-96086692D01*
X170805468Y-95860000D01*
X170785635Y-95633308D01*
X170726739Y-95413504D01*
X170630568Y-95207266D01*
X170607799Y-95174747D01*
X170500046Y-95020859D01*
X170339140Y-94859953D01*
X170152733Y-94729431D01*
X170094725Y-94702382D01*
X170042285Y-94656210D01*
X170023133Y-94589017D01*
X170043348Y-94522135D01*
X170094725Y-94477618D01*
X170152734Y-94450568D01*
X170339139Y-94320047D01*
X170500047Y-94159139D01*
X170594122Y-94024785D01*
X170612613Y-93998377D01*
X170667189Y-93954752D01*
X170714188Y-93945500D01*
X171009548Y-93945500D01*
X171076587Y-93965185D01*
X171097229Y-93981819D01*
X176138181Y-99022771D01*
X176171666Y-99084094D01*
X176174500Y-99110452D01*
X176174500Y-116349546D01*
X176154815Y-116416585D01*
X176138181Y-116437227D01*
X175315646Y-117259761D01*
X175254323Y-117293246D01*
X175195873Y-117291855D01*
X175095408Y-117264936D01*
X174859999Y-117244340D01*
X174624592Y-117264936D01*
X174396336Y-117326097D01*
X174182170Y-117425965D01*
X173988598Y-117561505D01*
X173821505Y-117728598D01*
X173691575Y-117914159D01*
X173636998Y-117957784D01*
X173567500Y-117964978D01*
X173505145Y-117933455D01*
X173488425Y-117914159D01*
X173358494Y-117728598D01*
X173191404Y-117561508D01*
X173191404Y-117561507D01*
X173191401Y-117561505D01*
X172997830Y-117425965D01*
X172783663Y-117326097D01*
X172721930Y-117309556D01*
X172555407Y-117264936D01*
X172319999Y-117244340D01*
X172084592Y-117264936D01*
X171856336Y-117326097D01*
X171642170Y-117425965D01*
X171448598Y-117561505D01*
X171281508Y-117728595D01*
X171151269Y-117914596D01*
X171096692Y-117958220D01*
X171027193Y-117965413D01*
X170964839Y-117933891D01*
X170948119Y-117914595D01*
X170818109Y-117728921D01*
X170651081Y-117561893D01*
X170457576Y-117426399D01*
X170243492Y-117326569D01*
X170180000Y-117309556D01*
X170180000Y-118297582D01*
X170161761Y-118269202D01*
X170053100Y-118175048D01*
X169922315Y-118115320D01*
X169815763Y-118100000D01*
X169744237Y-118100000D01*
X169637685Y-118115320D01*
X169506900Y-118175048D01*
X169398239Y-118269202D01*
X169320507Y-118390156D01*
X169280000Y-118528111D01*
X169280000Y-118671889D01*
X169320507Y-118809844D01*
X169398239Y-118930798D01*
X169506900Y-119024952D01*
X169637685Y-119084680D01*
X169744237Y-119100000D01*
X169815763Y-119100000D01*
X169922315Y-119084680D01*
X170053100Y-119024952D01*
X170161761Y-118930798D01*
X170180000Y-118902417D01*
X170180000Y-119890441D01*
X170243491Y-119873430D01*
X170457576Y-119773600D01*
X170651081Y-119638106D01*
X170818109Y-119471078D01*
X170948119Y-119285405D01*
X171002696Y-119241780D01*
X171072194Y-119234586D01*
X171134549Y-119266109D01*
X171151265Y-119285400D01*
X171281505Y-119471401D01*
X171448599Y-119638495D01*
X171642170Y-119774035D01*
X171856337Y-119873903D01*
X172084592Y-119935063D01*
X172320000Y-119955659D01*
X172555408Y-119935063D01*
X172783663Y-119873903D01*
X172997830Y-119774035D01*
X173191401Y-119638495D01*
X173358495Y-119471401D01*
X173488426Y-119285839D01*
X173543002Y-119242216D01*
X173612500Y-119235022D01*
X173674855Y-119266545D01*
X173691571Y-119285837D01*
X173821505Y-119471401D01*
X173988599Y-119638495D01*
X174182170Y-119774035D01*
X174396337Y-119873903D01*
X174624592Y-119935063D01*
X174860000Y-119955659D01*
X175095408Y-119935063D01*
X175323663Y-119873903D01*
X175537830Y-119774035D01*
X175731401Y-119638495D01*
X175853329Y-119516566D01*
X175914648Y-119483084D01*
X175984340Y-119488068D01*
X176040274Y-119529939D01*
X176057189Y-119560916D01*
X176106204Y-119692331D01*
X176192454Y-119807546D01*
X176307669Y-119893796D01*
X176442517Y-119944091D01*
X176502127Y-119950500D01*
X178297872Y-119950499D01*
X178357483Y-119944091D01*
X178492331Y-119893796D01*
X178607546Y-119807546D01*
X178693796Y-119692331D01*
X178744091Y-119557483D01*
X178750500Y-119497873D01*
X178750499Y-117702128D01*
X178744091Y-117642517D01*
X178693796Y-117507669D01*
X178607546Y-117392454D01*
X178492331Y-117306204D01*
X178357483Y-117255909D01*
X178297873Y-117249500D01*
X178294551Y-117249500D01*
X178149500Y-117249500D01*
X178082461Y-117229815D01*
X178036706Y-117177011D01*
X178025500Y-117125500D01*
X178025500Y-98762740D01*
X178027763Y-98742239D01*
X178026638Y-98706443D01*
X178025561Y-98672144D01*
X178025500Y-98668250D01*
X178025500Y-98644544D01*
X178025500Y-98640650D01*
X178024998Y-98636681D01*
X178024080Y-98625024D01*
X178023663Y-98611742D01*
X178022709Y-98581373D01*
X178017120Y-98562140D01*
X178013174Y-98543082D01*
X178010664Y-98523208D01*
X177994588Y-98482606D01*
X177990804Y-98471552D01*
X177978619Y-98429613D01*
X177978618Y-98429612D01*
X177978618Y-98429610D01*
X177968417Y-98412361D01*
X177959860Y-98394895D01*
X177952486Y-98376268D01*
X177926813Y-98340932D01*
X177920402Y-98331172D01*
X177898169Y-98293578D01*
X177884006Y-98279415D01*
X177871369Y-98264620D01*
X177859595Y-98248414D01*
X177859594Y-98248413D01*
X177825935Y-98220568D01*
X177817305Y-98212714D01*
X170799413Y-91194822D01*
X170765928Y-91133499D01*
X170767319Y-91075047D01*
X170785635Y-91006692D01*
X170805468Y-90780000D01*
X170785635Y-90553308D01*
X170726739Y-90333504D01*
X170630568Y-90127266D01*
X170619808Y-90111898D01*
X170500046Y-89940859D01*
X170339140Y-89779953D01*
X170152733Y-89649431D01*
X170094725Y-89622382D01*
X170042285Y-89576210D01*
X170023133Y-89509017D01*
X170043348Y-89442135D01*
X170094725Y-89397618D01*
X170152734Y-89370568D01*
X170339139Y-89240047D01*
X170500047Y-89079139D01*
X170630568Y-88892734D01*
X170726739Y-88686496D01*
X170785635Y-88466692D01*
X170805468Y-88240000D01*
X170785635Y-88013308D01*
X170726739Y-87793504D01*
X170630568Y-87587266D01*
X170617919Y-87569200D01*
X170500046Y-87400859D01*
X170339140Y-87239953D01*
X170152733Y-87109431D01*
X170094725Y-87082382D01*
X170042285Y-87036210D01*
X170023133Y-86969017D01*
X170043348Y-86902135D01*
X170094725Y-86857618D01*
X170111062Y-86850000D01*
X170152734Y-86830568D01*
X170339139Y-86700047D01*
X170500047Y-86539139D01*
X170630568Y-86352734D01*
X170726739Y-86146496D01*
X170785635Y-85926692D01*
X170805468Y-85700000D01*
X170785635Y-85473308D01*
X170726739Y-85253504D01*
X170630568Y-85047266D01*
X170582649Y-84978829D01*
X170500046Y-84860859D01*
X170339140Y-84699953D01*
X170152733Y-84569431D01*
X170111727Y-84550310D01*
X170094724Y-84542381D01*
X170042285Y-84496210D01*
X170023133Y-84429017D01*
X170043348Y-84362135D01*
X170094725Y-84317618D01*
X170152734Y-84290568D01*
X170339139Y-84160047D01*
X170500047Y-83999139D01*
X170630568Y-83812734D01*
X170726739Y-83606496D01*
X170785635Y-83386692D01*
X170805468Y-83160000D01*
X170785635Y-82933308D01*
X170726739Y-82713504D01*
X170630568Y-82507266D01*
X170620063Y-82492262D01*
X170500046Y-82320859D01*
X170339140Y-82159953D01*
X170152733Y-82029431D01*
X170094725Y-82002382D01*
X170042285Y-81956210D01*
X170023133Y-81889017D01*
X170043348Y-81822135D01*
X170094725Y-81777618D01*
X170152734Y-81750568D01*
X170339139Y-81620047D01*
X170500047Y-81459139D01*
X170630568Y-81272734D01*
X170726739Y-81066496D01*
X170785635Y-80846692D01*
X170805468Y-80620000D01*
X170804139Y-80604815D01*
X170798786Y-80543628D01*
X170785635Y-80393308D01*
X170726739Y-80173504D01*
X170630568Y-79967266D01*
X170525077Y-79816607D01*
X170500046Y-79780859D01*
X170339140Y-79619953D01*
X170152733Y-79489431D01*
X170094725Y-79462382D01*
X170042285Y-79416210D01*
X170023133Y-79349017D01*
X170043348Y-79282135D01*
X170094725Y-79237618D01*
X170152734Y-79210568D01*
X170339139Y-79080047D01*
X170500047Y-78919139D01*
X170630568Y-78732734D01*
X170726739Y-78526496D01*
X170785635Y-78306692D01*
X170805468Y-78080000D01*
X170785635Y-77853308D01*
X170726739Y-77633504D01*
X170630568Y-77427266D01*
X170602948Y-77387819D01*
X170500046Y-77240859D01*
X170339140Y-77079953D01*
X170152733Y-76949431D01*
X170094725Y-76922382D01*
X170042285Y-76876210D01*
X170023133Y-76809017D01*
X170043348Y-76742135D01*
X170094725Y-76697618D01*
X170152734Y-76670568D01*
X170339139Y-76540047D01*
X170500047Y-76379139D01*
X170630568Y-76192734D01*
X170726739Y-75986496D01*
X170785635Y-75766692D01*
X170805468Y-75540000D01*
X170785635Y-75313308D01*
X170726739Y-75093504D01*
X170630568Y-74887266D01*
X170601817Y-74846204D01*
X170500046Y-74700859D01*
X170339140Y-74539953D01*
X170152733Y-74409431D01*
X170094725Y-74382382D01*
X170042285Y-74336210D01*
X170023133Y-74269017D01*
X170043348Y-74202135D01*
X170094725Y-74157618D01*
X170152734Y-74130568D01*
X170339139Y-74000047D01*
X170500047Y-73839139D01*
X170630568Y-73652734D01*
X170726739Y-73446496D01*
X170785635Y-73226692D01*
X170805468Y-73000000D01*
X170802649Y-72967784D01*
X170798856Y-72924436D01*
X170785635Y-72773308D01*
X170726739Y-72553504D01*
X170630568Y-72347266D01*
X170500047Y-72160861D01*
X170500046Y-72160859D01*
X170339140Y-71999953D01*
X170152735Y-71869432D01*
X169946497Y-71773261D01*
X169726689Y-71714364D01*
X169499999Y-71694531D01*
X169273310Y-71714364D01*
X169053502Y-71773261D01*
X168847264Y-71869432D01*
X168660859Y-71999953D01*
X168499953Y-72160859D01*
X168387387Y-72321623D01*
X168332811Y-72365248D01*
X168285812Y-72374500D01*
X166946981Y-72374500D01*
X166879942Y-72354815D01*
X166841441Y-72315595D01*
X166832838Y-72301647D01*
X166710852Y-72179661D01*
X166564015Y-72089091D01*
X166400253Y-72034825D01*
X166302309Y-72024819D01*
X166302290Y-72024818D01*
X166299177Y-72024500D01*
X166296028Y-72024500D01*
X165703973Y-72024500D01*
X165703953Y-72024500D01*
X165700824Y-72024501D01*
X165697692Y-72024820D01*
X165697690Y-72024821D01*
X165599747Y-72034825D01*
X165435984Y-72089091D01*
X165289147Y-72179661D01*
X165175181Y-72293628D01*
X165113858Y-72327113D01*
X165044166Y-72322129D01*
X164999819Y-72293628D01*
X164885852Y-72179661D01*
X164739015Y-72089091D01*
X164575253Y-72034825D01*
X164477309Y-72024819D01*
X164477290Y-72024818D01*
X164474177Y-72024500D01*
X164471028Y-72024500D01*
X163878973Y-72024500D01*
X163878953Y-72024500D01*
X163875824Y-72024501D01*
X163872692Y-72024820D01*
X163872690Y-72024821D01*
X163774747Y-72034825D01*
X163610984Y-72089091D01*
X163464147Y-72179661D01*
X163342161Y-72301647D01*
X163333559Y-72315595D01*
X163281611Y-72362321D01*
X163228019Y-72374500D01*
X163082744Y-72374500D01*
X163062237Y-72372235D01*
X162992127Y-72374439D01*
X162988232Y-72374500D01*
X162960650Y-72374500D01*
X162956805Y-72374985D01*
X162956780Y-72374987D01*
X162956653Y-72375004D01*
X162945033Y-72375918D01*
X162901369Y-72377290D01*
X162882129Y-72382880D01*
X162863081Y-72386825D01*
X162843209Y-72389335D01*
X162802599Y-72405413D01*
X162791554Y-72409194D01*
X162749610Y-72421381D01*
X162732365Y-72431579D01*
X162714904Y-72440133D01*
X162696267Y-72447512D01*
X162660931Y-72473185D01*
X162651174Y-72479595D01*
X162613580Y-72501829D01*
X162599413Y-72515996D01*
X162584624Y-72528626D01*
X162568414Y-72540404D01*
X162556719Y-72554541D01*
X162498819Y-72593648D01*
X162461176Y-72599500D01*
X162405352Y-72599500D01*
X162220197Y-72638855D01*
X162047269Y-72715848D01*
X161894129Y-72827110D01*
X161767466Y-72967783D01*
X161672820Y-73131715D01*
X161614326Y-73311742D01*
X161594540Y-73500000D01*
X161614326Y-73688257D01*
X161672820Y-73868284D01*
X161767466Y-74032216D01*
X161894129Y-74172889D01*
X162047269Y-74284151D01*
X162220197Y-74361144D01*
X162405352Y-74400500D01*
X162405354Y-74400500D01*
X162594648Y-74400500D01*
X162718084Y-74374262D01*
X162779803Y-74361144D01*
X162952730Y-74284151D01*
X163031751Y-74226739D01*
X163105870Y-74172889D01*
X163232533Y-74032216D01*
X163319729Y-73881188D01*
X163370296Y-73832973D01*
X163438903Y-73819749D01*
X163492211Y-73837648D01*
X163610984Y-73910908D01*
X163690466Y-73937246D01*
X163774746Y-73965174D01*
X163872690Y-73975180D01*
X163872691Y-73975180D01*
X163875823Y-73975500D01*
X164474176Y-73975499D01*
X164575253Y-73965174D01*
X164739016Y-73910908D01*
X164885850Y-73820340D01*
X164999819Y-73706370D01*
X165061140Y-73672887D01*
X165130832Y-73677871D01*
X165175180Y-73706371D01*
X165235957Y-73767147D01*
X165289150Y-73820340D01*
X165365414Y-73867380D01*
X165435984Y-73910908D01*
X165599746Y-73965174D01*
X165697690Y-73975180D01*
X165697691Y-73975180D01*
X165700823Y-73975500D01*
X166299176Y-73975499D01*
X166400253Y-73965174D01*
X166564016Y-73910908D01*
X166710850Y-73820340D01*
X166832840Y-73698350D01*
X166841441Y-73684404D01*
X166893389Y-73637679D01*
X166946981Y-73625500D01*
X168285812Y-73625500D01*
X168352851Y-73645185D01*
X168387387Y-73678377D01*
X168499953Y-73839140D01*
X168660859Y-74000046D01*
X168715525Y-74038323D01*
X168847266Y-74130568D01*
X168905275Y-74157618D01*
X168957714Y-74203791D01*
X168976865Y-74270985D01*
X168956649Y-74337866D01*
X168905275Y-74382382D01*
X168847263Y-74409433D01*
X168660859Y-74539953D01*
X168499953Y-74700859D01*
X168369432Y-74887264D01*
X168273261Y-75093502D01*
X168214364Y-75313310D01*
X168194531Y-75540000D01*
X168214364Y-75766689D01*
X168273261Y-75986497D01*
X168369432Y-76192735D01*
X168499953Y-76379140D01*
X168660859Y-76540046D01*
X168730905Y-76589092D01*
X168847266Y-76670568D01*
X168905275Y-76697618D01*
X168957714Y-76743791D01*
X168976865Y-76810985D01*
X168956649Y-76877866D01*
X168905275Y-76922382D01*
X168847263Y-76949433D01*
X168660859Y-77079953D01*
X168499953Y-77240859D01*
X168369432Y-77427264D01*
X168273261Y-77633502D01*
X168214364Y-77853310D01*
X168194531Y-78080000D01*
X168214364Y-78306689D01*
X168273261Y-78526497D01*
X168369432Y-78732735D01*
X168499953Y-78919140D01*
X168660859Y-79080046D01*
X168689357Y-79100000D01*
X168847266Y-79210568D01*
X168905275Y-79237618D01*
X168957714Y-79283791D01*
X168976865Y-79350985D01*
X168956649Y-79417866D01*
X168905275Y-79462382D01*
X168847263Y-79489433D01*
X168660859Y-79619953D01*
X168499953Y-79780859D01*
X168387387Y-79941623D01*
X168332811Y-79985248D01*
X168285812Y-79994500D01*
X168062741Y-79994500D01*
X168042237Y-79992236D01*
X167972145Y-79994439D01*
X167968251Y-79994500D01*
X167940650Y-79994500D01*
X167936799Y-79994986D01*
X167936768Y-79994988D01*
X167936640Y-79995005D01*
X167925028Y-79995918D01*
X167881368Y-79997290D01*
X167862128Y-80002880D01*
X167843081Y-80006825D01*
X167823209Y-80009335D01*
X167782599Y-80025413D01*
X167771554Y-80029194D01*
X167729611Y-80041380D01*
X167712369Y-80051578D01*
X167694897Y-80060138D01*
X167676266Y-80067514D01*
X167640938Y-80093181D01*
X167631180Y-80099591D01*
X167593579Y-80121829D01*
X167579410Y-80135998D01*
X167564622Y-80148628D01*
X167548410Y-80160407D01*
X167520570Y-80194059D01*
X167512710Y-80202697D01*
X167377226Y-80338182D01*
X167315906Y-80371666D01*
X167289547Y-80374500D01*
X166946981Y-80374500D01*
X166879942Y-80354815D01*
X166841441Y-80315595D01*
X166832838Y-80301647D01*
X166710852Y-80179661D01*
X166564015Y-80089091D01*
X166400253Y-80034825D01*
X166302309Y-80024819D01*
X166302290Y-80024818D01*
X166299177Y-80024500D01*
X166296028Y-80024500D01*
X165703973Y-80024500D01*
X165703953Y-80024500D01*
X165700824Y-80024501D01*
X165697692Y-80024820D01*
X165697690Y-80024821D01*
X165599747Y-80034825D01*
X165435984Y-80089091D01*
X165289149Y-80179660D01*
X165175181Y-80293628D01*
X165113858Y-80327112D01*
X165044166Y-80322128D01*
X164999819Y-80293628D01*
X164885850Y-80179660D01*
X164739015Y-80089091D01*
X164575253Y-80034825D01*
X164477309Y-80024819D01*
X164477290Y-80024818D01*
X164474177Y-80024500D01*
X164471028Y-80024500D01*
X163878973Y-80024500D01*
X163878953Y-80024500D01*
X163875824Y-80024501D01*
X163872692Y-80024820D01*
X163872690Y-80024821D01*
X163774747Y-80034825D01*
X163610985Y-80089091D01*
X163557909Y-80121829D01*
X163474131Y-80173504D01*
X163464147Y-80179662D01*
X163451879Y-80191930D01*
X163390555Y-80225414D01*
X163320864Y-80220428D01*
X163276519Y-80191928D01*
X159261819Y-76177228D01*
X159228334Y-76115905D01*
X159225500Y-76089547D01*
X159225500Y-75641518D01*
X159245185Y-75574479D01*
X159290480Y-75532465D01*
X159423509Y-75460474D01*
X159619744Y-75307738D01*
X159788164Y-75124785D01*
X159924173Y-74916607D01*
X160024063Y-74688881D01*
X160085108Y-74447821D01*
X160105643Y-74200000D01*
X160085108Y-73952179D01*
X160024063Y-73711119D01*
X159932340Y-73502011D01*
X159924174Y-73483395D01*
X159924173Y-73483393D01*
X159788164Y-73275215D01*
X159619744Y-73092262D01*
X159531209Y-73023352D01*
X159423514Y-72939529D01*
X159423510Y-72939526D01*
X159423509Y-72939526D01*
X159204810Y-72821172D01*
X159204806Y-72821170D01*
X159204805Y-72821170D01*
X158969615Y-72740429D01*
X158724335Y-72699500D01*
X158475665Y-72699500D01*
X158230384Y-72740429D01*
X157995194Y-72821170D01*
X157776485Y-72939529D01*
X157580259Y-73092259D01*
X157580256Y-73092261D01*
X157580256Y-73092262D01*
X157411836Y-73275215D01*
X157366499Y-73344607D01*
X157275825Y-73483395D01*
X157175936Y-73711120D01*
X157152678Y-73802962D01*
X157117138Y-73863117D01*
X157054717Y-73894508D01*
X156985234Y-73887169D01*
X156944793Y-73860202D01*
X156923730Y-73839139D01*
X156900799Y-73816208D01*
X156887906Y-73800113D01*
X156836775Y-73752098D01*
X156833978Y-73749387D01*
X156814480Y-73729889D01*
X156814471Y-73729880D01*
X156814466Y-73729876D01*
X155961105Y-72876515D01*
X155013302Y-71928711D01*
X155000406Y-71912613D01*
X154949275Y-71864598D01*
X154946478Y-71861887D01*
X154929727Y-71845136D01*
X154926971Y-71842380D01*
X154923790Y-71839912D01*
X154914922Y-71832337D01*
X154883082Y-71802438D01*
X154865524Y-71792785D01*
X154849264Y-71782104D01*
X154833436Y-71769827D01*
X154793351Y-71752480D01*
X154782861Y-71747341D01*
X154744591Y-71726302D01*
X154725191Y-71721321D01*
X154706784Y-71715019D01*
X154688397Y-71707062D01*
X154645258Y-71700229D01*
X154633824Y-71697861D01*
X154591519Y-71687000D01*
X154571484Y-71687000D01*
X154552086Y-71685473D01*
X154544662Y-71684297D01*
X154532305Y-71682340D01*
X154532304Y-71682340D01*
X154499251Y-71685464D01*
X154488825Y-71686450D01*
X154477156Y-71687000D01*
X149542191Y-71687000D01*
X149475152Y-71667315D01*
X149436652Y-71628096D01*
X149420339Y-71601648D01*
X149306018Y-71487327D01*
X149272533Y-71426004D01*
X149277517Y-71356312D01*
X149306018Y-71311964D01*
X149419944Y-71198037D01*
X149510453Y-71051301D01*
X149564680Y-70887652D01*
X149564696Y-70887500D01*
X147635304Y-70887500D01*
X147635319Y-70887652D01*
X147689546Y-71051301D01*
X147780056Y-71198040D01*
X147893981Y-71311965D01*
X147927466Y-71373288D01*
X147922482Y-71442980D01*
X147893982Y-71487327D01*
X147779660Y-71601649D01*
X147689091Y-71748484D01*
X147634825Y-71912246D01*
X147624819Y-72010190D01*
X147624817Y-72010210D01*
X147624500Y-72013323D01*
X147624500Y-72016470D01*
X147624500Y-72016471D01*
X147624500Y-72608526D01*
X147624500Y-72608545D01*
X147624501Y-72611676D01*
X147624820Y-72614808D01*
X147624821Y-72614809D01*
X147634825Y-72712752D01*
X147689091Y-72876515D01*
X147779661Y-73023352D01*
X147901647Y-73145338D01*
X147901649Y-73145339D01*
X147901650Y-73145340D01*
X148048484Y-73235907D01*
X148048484Y-73235908D01*
X148212246Y-73290174D01*
X148310190Y-73300180D01*
X148310191Y-73300180D01*
X148313323Y-73300500D01*
X148886676Y-73300499D01*
X148987753Y-73290174D01*
X149151516Y-73235908D01*
X149298350Y-73145340D01*
X149420340Y-73023350D01*
X149436651Y-72996904D01*
X149488599Y-72950179D01*
X149542191Y-72938000D01*
X150939573Y-72938000D01*
X151006612Y-72957685D01*
X151052367Y-73010489D01*
X151062311Y-73079647D01*
X151033286Y-73143203D01*
X151030823Y-73145959D01*
X150911836Y-73275215D01*
X150866499Y-73344607D01*
X150775825Y-73483395D01*
X150697562Y-73661819D01*
X150675937Y-73711119D01*
X150631355Y-73887169D01*
X150614891Y-73952183D01*
X150594356Y-74200000D01*
X150614891Y-74447816D01*
X150614891Y-74447819D01*
X150614892Y-74447821D01*
X150675937Y-74688881D01*
X150720960Y-74791523D01*
X150775825Y-74916604D01*
X150775827Y-74916607D01*
X150911836Y-75124785D01*
X151080256Y-75307738D01*
X151114794Y-75334620D01*
X151276485Y-75460470D01*
X151276487Y-75460471D01*
X151276491Y-75460474D01*
X151495190Y-75578828D01*
X151730386Y-75659571D01*
X151975665Y-75700500D01*
X152224335Y-75700500D01*
X152469614Y-75659571D01*
X152704810Y-75578828D01*
X152923509Y-75460474D01*
X153119744Y-75307738D01*
X153288164Y-75124785D01*
X153424173Y-74916607D01*
X153426851Y-74910500D01*
X153431594Y-74899690D01*
X153476550Y-74846204D01*
X153543286Y-74825514D01*
X153545150Y-74825500D01*
X156089548Y-74825500D01*
X156156587Y-74845185D01*
X156177229Y-74861819D01*
X158115993Y-76800583D01*
X158128630Y-76815379D01*
X158140405Y-76831586D01*
X158174057Y-76859425D01*
X158182698Y-76867288D01*
X158391756Y-77076347D01*
X158391764Y-77076354D01*
X158703229Y-77387819D01*
X158736714Y-77449142D01*
X158731730Y-77518834D01*
X158689858Y-77574767D01*
X158624394Y-77599184D01*
X158615548Y-77599500D01*
X158475665Y-77599500D01*
X158230384Y-77640429D01*
X157995194Y-77721170D01*
X157776485Y-77839529D01*
X157580259Y-77992259D01*
X157580256Y-77992261D01*
X157580256Y-77992262D01*
X157411836Y-78175215D01*
X157396722Y-78198349D01*
X157275825Y-78383395D01*
X157207311Y-78539593D01*
X157175937Y-78611119D01*
X157138646Y-78758377D01*
X157114891Y-78852183D01*
X157094356Y-79099999D01*
X157114891Y-79347816D01*
X157114891Y-79347819D01*
X157114892Y-79347821D01*
X157175937Y-79588881D01*
X157220960Y-79691523D01*
X157275825Y-79816604D01*
X157275827Y-79816607D01*
X157411836Y-80024785D01*
X157580256Y-80207738D01*
X157596560Y-80220428D01*
X157776485Y-80360470D01*
X157776487Y-80360471D01*
X157776491Y-80360474D01*
X157995190Y-80478828D01*
X158230386Y-80559571D01*
X158475665Y-80600500D01*
X158724335Y-80600500D01*
X158969614Y-80559571D01*
X159204810Y-80478828D01*
X159423509Y-80360474D01*
X159619744Y-80207738D01*
X159788164Y-80024785D01*
X159924173Y-79816607D01*
X160024063Y-79588881D01*
X160085108Y-79347821D01*
X160105643Y-79100000D01*
X160105590Y-79099360D01*
X160105768Y-79098494D01*
X160106492Y-79089760D01*
X160107547Y-79089847D01*
X160119669Y-79030925D01*
X160168513Y-78980964D01*
X160236614Y-78965342D01*
X160302350Y-78989018D01*
X160316847Y-79001437D01*
X162699197Y-81383787D01*
X162712098Y-81399889D01*
X162714212Y-81401874D01*
X162714214Y-81401877D01*
X162761561Y-81446339D01*
X162763240Y-81447916D01*
X162766036Y-81450626D01*
X162785530Y-81470120D01*
X162788615Y-81472513D01*
X162788701Y-81472580D01*
X162797573Y-81480158D01*
X162829418Y-81510062D01*
X162846974Y-81519714D01*
X162863231Y-81530392D01*
X162879064Y-81542674D01*
X162895185Y-81549649D01*
X162919156Y-81560023D01*
X162929643Y-81565160D01*
X162967908Y-81586197D01*
X162987316Y-81591180D01*
X163005710Y-81597478D01*
X163024105Y-81605438D01*
X163067254Y-81612271D01*
X163078680Y-81614638D01*
X163094222Y-81618629D01*
X163120980Y-81625500D01*
X163120981Y-81625500D01*
X163141016Y-81625500D01*
X163160413Y-81627026D01*
X163180196Y-81630160D01*
X163216753Y-81626704D01*
X163285347Y-81639992D01*
X163333961Y-81685058D01*
X163342160Y-81698351D01*
X163464147Y-81820338D01*
X163464149Y-81820339D01*
X163464150Y-81820340D01*
X163516771Y-81852797D01*
X163610984Y-81910908D01*
X163774746Y-81965174D01*
X163872690Y-81975180D01*
X163872691Y-81975180D01*
X163875823Y-81975500D01*
X164474176Y-81975499D01*
X164575253Y-81965174D01*
X164739016Y-81910908D01*
X164885850Y-81820340D01*
X164936476Y-81769714D01*
X164999819Y-81706372D01*
X165061142Y-81672887D01*
X165130834Y-81677871D01*
X165175181Y-81706372D01*
X165289147Y-81820338D01*
X165289149Y-81820339D01*
X165289150Y-81820340D01*
X165341771Y-81852797D01*
X165435984Y-81910908D01*
X165599746Y-81965174D01*
X165697690Y-81975180D01*
X165697691Y-81975180D01*
X165700823Y-81975500D01*
X166299176Y-81975499D01*
X166400253Y-81965174D01*
X166564016Y-81910908D01*
X166710850Y-81820340D01*
X166832840Y-81698350D01*
X166841441Y-81684404D01*
X166893389Y-81637679D01*
X166946981Y-81625500D01*
X167517256Y-81625500D01*
X167537762Y-81627764D01*
X167540665Y-81627672D01*
X167540667Y-81627673D01*
X167607872Y-81625561D01*
X167611768Y-81625500D01*
X167635448Y-81625500D01*
X167639350Y-81625500D01*
X167643313Y-81624999D01*
X167654962Y-81624080D01*
X167698627Y-81622709D01*
X167717859Y-81617120D01*
X167736918Y-81613174D01*
X167744091Y-81612268D01*
X167756792Y-81610664D01*
X167797407Y-81594582D01*
X167808444Y-81590803D01*
X167850390Y-81578618D01*
X167867629Y-81568422D01*
X167885102Y-81559862D01*
X167903732Y-81552486D01*
X167939064Y-81526814D01*
X167948830Y-81520400D01*
X167966311Y-81510062D01*
X167986420Y-81498170D01*
X168000587Y-81484002D01*
X168015376Y-81471371D01*
X168031587Y-81459594D01*
X168059437Y-81425928D01*
X168067267Y-81417322D01*
X168200045Y-81284544D01*
X168261365Y-81251063D01*
X168331057Y-81256047D01*
X168386990Y-81297919D01*
X168389298Y-81301106D01*
X168499953Y-81459140D01*
X168660859Y-81620046D01*
X168812406Y-81726159D01*
X168847266Y-81750568D01*
X168905275Y-81777618D01*
X168957714Y-81823791D01*
X168976865Y-81890985D01*
X168956649Y-81957866D01*
X168905275Y-82002382D01*
X168847263Y-82029433D01*
X168660859Y-82159953D01*
X168499953Y-82320859D01*
X168388682Y-82479773D01*
X168334105Y-82523398D01*
X168291003Y-82532589D01*
X168235967Y-82534318D01*
X168232142Y-82534439D01*
X168228250Y-82534500D01*
X168200650Y-82534500D01*
X168196789Y-82534987D01*
X168196778Y-82534988D01*
X168196645Y-82535005D01*
X168185029Y-82535918D01*
X168141368Y-82537290D01*
X168122129Y-82542880D01*
X168103080Y-82546825D01*
X168083208Y-82549335D01*
X168042593Y-82565415D01*
X168031549Y-82569196D01*
X167989611Y-82581382D01*
X167972364Y-82591581D01*
X167954900Y-82600136D01*
X167936267Y-82607514D01*
X167900926Y-82633189D01*
X167891168Y-82639599D01*
X167853579Y-82661829D01*
X167839410Y-82675998D01*
X167824622Y-82688628D01*
X167808413Y-82700405D01*
X167780572Y-82734058D01*
X167772711Y-82742696D01*
X167177228Y-83338181D01*
X167115905Y-83371666D01*
X167089547Y-83374500D01*
X166946981Y-83374500D01*
X166879942Y-83354815D01*
X166841441Y-83315595D01*
X166832838Y-83301647D01*
X166710852Y-83179661D01*
X166564015Y-83089091D01*
X166400253Y-83034825D01*
X166302309Y-83024819D01*
X166302290Y-83024818D01*
X166299177Y-83024500D01*
X166296028Y-83024500D01*
X165703973Y-83024500D01*
X165703953Y-83024500D01*
X165700824Y-83024501D01*
X165697692Y-83024820D01*
X165697690Y-83024821D01*
X165599747Y-83034825D01*
X165435984Y-83089091D01*
X165289147Y-83179661D01*
X165175181Y-83293628D01*
X165113858Y-83327113D01*
X165044166Y-83322129D01*
X164999819Y-83293628D01*
X164885852Y-83179661D01*
X164739015Y-83089091D01*
X164575253Y-83034825D01*
X164477309Y-83024819D01*
X164477290Y-83024818D01*
X164474177Y-83024500D01*
X164471028Y-83024500D01*
X163878973Y-83024500D01*
X163878953Y-83024500D01*
X163875824Y-83024501D01*
X163872692Y-83024820D01*
X163872690Y-83024821D01*
X163774747Y-83034825D01*
X163610984Y-83089091D01*
X163464147Y-83179661D01*
X163342161Y-83301647D01*
X163333559Y-83315595D01*
X163281611Y-83362321D01*
X163228019Y-83374500D01*
X161510453Y-83374500D01*
X161443414Y-83354815D01*
X161422772Y-83338181D01*
X161300802Y-83216211D01*
X161287906Y-83200113D01*
X161236776Y-83152099D01*
X161234009Y-83149418D01*
X161214471Y-83129880D01*
X161214470Y-83129879D01*
X161208238Y-83123647D01*
X161208237Y-83123647D01*
X161208232Y-83123642D01*
X159300802Y-81216211D01*
X159287906Y-81200113D01*
X159236775Y-81152098D01*
X159233978Y-81149387D01*
X159217227Y-81132636D01*
X159214471Y-81129880D01*
X159211290Y-81127412D01*
X159202422Y-81119837D01*
X159170582Y-81089938D01*
X159153024Y-81080285D01*
X159136764Y-81069604D01*
X159120936Y-81057327D01*
X159080851Y-81039980D01*
X159070361Y-81034841D01*
X159032091Y-81013802D01*
X159012691Y-81008821D01*
X158994284Y-81002519D01*
X158975897Y-80994562D01*
X158932758Y-80987729D01*
X158921324Y-80985361D01*
X158879019Y-80974500D01*
X158858984Y-80974500D01*
X158839586Y-80972973D01*
X158832162Y-80971797D01*
X158819805Y-80969840D01*
X158819804Y-80969840D01*
X158793484Y-80972328D01*
X158776325Y-80973950D01*
X158764656Y-80974500D01*
X154182741Y-80974500D01*
X154162237Y-80972236D01*
X154092145Y-80974439D01*
X154088251Y-80974500D01*
X149142191Y-80974500D01*
X149075152Y-80954815D01*
X149036652Y-80915596D01*
X149020339Y-80889148D01*
X148898352Y-80767161D01*
X148751515Y-80676591D01*
X148587753Y-80622325D01*
X148489809Y-80612319D01*
X148489790Y-80612318D01*
X148486677Y-80612000D01*
X148483528Y-80612000D01*
X147916473Y-80612000D01*
X147916453Y-80612000D01*
X147913324Y-80612001D01*
X147910192Y-80612320D01*
X147910190Y-80612321D01*
X147812247Y-80622325D01*
X147648484Y-80676591D01*
X147501647Y-80767161D01*
X147379661Y-80889147D01*
X147289091Y-81035984D01*
X147234825Y-81199746D01*
X147224819Y-81297690D01*
X147224817Y-81297710D01*
X147224500Y-81300823D01*
X147224500Y-81303970D01*
X147224500Y-81303971D01*
X147224500Y-81896026D01*
X147224500Y-81896045D01*
X147224501Y-81899176D01*
X147224820Y-81902308D01*
X147224821Y-81902309D01*
X147234825Y-82000252D01*
X147289091Y-82164015D01*
X147379661Y-82310852D01*
X147493981Y-82425172D01*
X147527466Y-82486495D01*
X147522482Y-82556187D01*
X147493982Y-82600534D01*
X147380055Y-82714461D01*
X147289546Y-82861198D01*
X147235319Y-83024847D01*
X147235304Y-83025000D01*
X149164695Y-83025000D01*
X149164680Y-83024847D01*
X149110453Y-82861198D01*
X149019943Y-82714459D01*
X148906018Y-82600534D01*
X148872533Y-82539211D01*
X148877517Y-82469519D01*
X148906016Y-82425173D01*
X149020340Y-82310850D01*
X149036651Y-82284404D01*
X149088599Y-82237679D01*
X149142191Y-82225500D01*
X151061792Y-82225500D01*
X151128831Y-82245185D01*
X151174586Y-82297989D01*
X151184530Y-82367147D01*
X151155505Y-82430703D01*
X151137955Y-82447353D01*
X151080256Y-82492261D01*
X150935105Y-82649938D01*
X150911836Y-82675215D01*
X150873392Y-82734058D01*
X150775825Y-82883395D01*
X150694312Y-83069229D01*
X150675937Y-83111119D01*
X150619329Y-83334659D01*
X150614891Y-83352183D01*
X150594356Y-83600000D01*
X150614891Y-83847816D01*
X150614891Y-83847819D01*
X150614892Y-83847821D01*
X150675937Y-84088881D01*
X150720960Y-84191523D01*
X150775825Y-84316604D01*
X150781057Y-84324612D01*
X150911836Y-84524785D01*
X151080256Y-84707738D01*
X151109061Y-84730158D01*
X151276485Y-84860470D01*
X151276487Y-84860471D01*
X151276491Y-84860474D01*
X151495190Y-84978828D01*
X151730386Y-85059571D01*
X151975665Y-85100500D01*
X152224335Y-85100500D01*
X152469614Y-85059571D01*
X152704810Y-84978828D01*
X152923509Y-84860474D01*
X153119744Y-84707738D01*
X153288164Y-84524785D01*
X153424173Y-84316607D01*
X153524063Y-84088881D01*
X153585108Y-83847821D01*
X153605643Y-83600000D01*
X153591623Y-83430799D01*
X153585109Y-83352184D01*
X153581794Y-83339092D01*
X153531135Y-83139046D01*
X153533760Y-83069229D01*
X153563658Y-83020930D01*
X154322771Y-82261819D01*
X154384095Y-82228334D01*
X154410453Y-82225500D01*
X157561792Y-82225500D01*
X157628831Y-82245185D01*
X157674586Y-82297989D01*
X157684530Y-82367147D01*
X157655505Y-82430703D01*
X157637955Y-82447353D01*
X157580256Y-82492261D01*
X157435105Y-82649938D01*
X157411836Y-82675215D01*
X157373392Y-82734058D01*
X157275825Y-82883395D01*
X157194312Y-83069229D01*
X157175937Y-83111119D01*
X157119329Y-83334659D01*
X157114891Y-83352183D01*
X157094356Y-83600000D01*
X157114891Y-83847816D01*
X157114891Y-83847819D01*
X157114892Y-83847821D01*
X157175937Y-84088881D01*
X157220960Y-84191523D01*
X157275825Y-84316604D01*
X157281057Y-84324612D01*
X157411836Y-84524785D01*
X157580256Y-84707738D01*
X157609061Y-84730158D01*
X157776485Y-84860470D01*
X157776487Y-84860471D01*
X157776491Y-84860474D01*
X157995190Y-84978828D01*
X158230386Y-85059571D01*
X158475665Y-85100500D01*
X158724335Y-85100500D01*
X158969614Y-85059571D01*
X159204810Y-84978828D01*
X159423509Y-84860474D01*
X159619744Y-84707738D01*
X159788164Y-84524785D01*
X159924173Y-84316607D01*
X159926851Y-84310500D01*
X159931594Y-84299690D01*
X159976550Y-84246204D01*
X160043286Y-84225514D01*
X160045150Y-84225500D01*
X160489548Y-84225500D01*
X160556587Y-84245185D01*
X160577229Y-84261819D01*
X160699194Y-84383784D01*
X160712094Y-84399886D01*
X160763223Y-84447900D01*
X160766020Y-84450611D01*
X160785529Y-84470120D01*
X160788709Y-84472587D01*
X160797571Y-84480155D01*
X160829418Y-84510062D01*
X160846974Y-84519714D01*
X160863231Y-84530392D01*
X160879064Y-84542674D01*
X160895185Y-84549649D01*
X160919156Y-84560023D01*
X160929643Y-84565160D01*
X160967908Y-84586197D01*
X160987316Y-84591180D01*
X161005710Y-84597478D01*
X161024105Y-84605438D01*
X161067254Y-84612271D01*
X161078680Y-84614638D01*
X161094222Y-84618629D01*
X161120980Y-84625500D01*
X161120981Y-84625500D01*
X161141016Y-84625500D01*
X161160413Y-84627026D01*
X161180196Y-84630160D01*
X161223674Y-84626050D01*
X161235344Y-84625500D01*
X163228019Y-84625500D01*
X163295058Y-84645185D01*
X163333559Y-84684405D01*
X163342161Y-84698352D01*
X163464147Y-84820338D01*
X163464149Y-84820339D01*
X163464150Y-84820340D01*
X163516771Y-84852797D01*
X163610984Y-84910908D01*
X163774746Y-84965174D01*
X163872690Y-84975180D01*
X163872691Y-84975180D01*
X163875823Y-84975500D01*
X164474176Y-84975499D01*
X164575253Y-84965174D01*
X164739016Y-84910908D01*
X164885850Y-84820340D01*
X164999821Y-84706368D01*
X165061140Y-84672886D01*
X165130832Y-84677870D01*
X165175180Y-84706371D01*
X165289147Y-84820338D01*
X165289149Y-84820339D01*
X165289150Y-84820340D01*
X165341771Y-84852797D01*
X165435984Y-84910908D01*
X165599746Y-84965174D01*
X165697690Y-84975180D01*
X165697691Y-84975180D01*
X165700823Y-84975500D01*
X166299176Y-84975499D01*
X166400253Y-84965174D01*
X166564016Y-84910908D01*
X166710850Y-84820340D01*
X166832840Y-84698350D01*
X166841441Y-84684404D01*
X166893389Y-84637679D01*
X166946981Y-84625500D01*
X167317256Y-84625500D01*
X167337762Y-84627764D01*
X167340665Y-84627672D01*
X167340667Y-84627673D01*
X167407872Y-84625561D01*
X167411768Y-84625500D01*
X167435448Y-84625500D01*
X167439350Y-84625500D01*
X167443313Y-84624999D01*
X167454962Y-84624080D01*
X167498627Y-84622709D01*
X167517859Y-84617120D01*
X167536918Y-84613174D01*
X167544091Y-84612268D01*
X167556792Y-84610664D01*
X167597407Y-84594582D01*
X167608444Y-84590803D01*
X167650390Y-84578618D01*
X167667629Y-84568422D01*
X167685102Y-84559862D01*
X167703732Y-84552486D01*
X167739064Y-84526814D01*
X167748830Y-84520400D01*
X167786418Y-84498171D01*
X167786417Y-84498171D01*
X167786420Y-84498170D01*
X167800585Y-84484004D01*
X167815373Y-84471373D01*
X167831587Y-84459594D01*
X167859438Y-84425926D01*
X167867279Y-84417309D01*
X168307120Y-83977468D01*
X168368441Y-83943985D01*
X168438133Y-83948969D01*
X168494066Y-83990841D01*
X168496372Y-83994025D01*
X168499953Y-83999139D01*
X168660861Y-84160047D01*
X168847266Y-84290568D01*
X168905275Y-84317618D01*
X168957714Y-84363791D01*
X168976865Y-84430985D01*
X168956649Y-84497866D01*
X168905275Y-84542381D01*
X168884576Y-84552033D01*
X168847263Y-84569433D01*
X168660859Y-84699953D01*
X168499953Y-84860859D01*
X168369432Y-85047264D01*
X168273261Y-85253502D01*
X168214364Y-85473310D01*
X168194531Y-85699999D01*
X168214364Y-85926690D01*
X168232680Y-85995047D01*
X168231017Y-86064897D01*
X168200586Y-86114821D01*
X167977226Y-86338182D01*
X167915906Y-86371666D01*
X167889547Y-86374500D01*
X166946981Y-86374500D01*
X166879942Y-86354815D01*
X166841441Y-86315595D01*
X166832838Y-86301647D01*
X166710852Y-86179661D01*
X166564015Y-86089091D01*
X166400253Y-86034825D01*
X166302309Y-86024819D01*
X166302290Y-86024818D01*
X166299177Y-86024500D01*
X166296028Y-86024500D01*
X165703973Y-86024500D01*
X165703953Y-86024500D01*
X165700824Y-86024501D01*
X165697692Y-86024820D01*
X165697690Y-86024821D01*
X165599747Y-86034825D01*
X165435984Y-86089091D01*
X165289147Y-86179661D01*
X165175181Y-86293628D01*
X165113858Y-86327113D01*
X165044166Y-86322129D01*
X164999819Y-86293628D01*
X164885852Y-86179661D01*
X164739015Y-86089091D01*
X164575253Y-86034825D01*
X164477309Y-86024819D01*
X164477290Y-86024818D01*
X164474177Y-86024500D01*
X164471028Y-86024500D01*
X163878973Y-86024500D01*
X163878953Y-86024500D01*
X163875824Y-86024501D01*
X163872692Y-86024820D01*
X163872690Y-86024821D01*
X163774747Y-86034825D01*
X163610984Y-86089091D01*
X163464147Y-86179661D01*
X163342161Y-86301647D01*
X163333559Y-86315595D01*
X163281611Y-86362321D01*
X163228019Y-86374500D01*
X160382744Y-86374500D01*
X160362236Y-86372235D01*
X160292113Y-86374439D01*
X160288219Y-86374500D01*
X153882744Y-86374500D01*
X153862236Y-86372235D01*
X153792113Y-86374439D01*
X153788219Y-86374500D01*
X150682740Y-86374500D01*
X150662236Y-86372236D01*
X150592144Y-86374439D01*
X150588250Y-86374500D01*
X150560650Y-86374500D01*
X150556799Y-86374986D01*
X150556768Y-86374988D01*
X150556640Y-86375005D01*
X150545028Y-86375918D01*
X150501368Y-86377290D01*
X150482128Y-86382880D01*
X150463081Y-86386825D01*
X150443209Y-86389335D01*
X150402599Y-86405413D01*
X150391554Y-86409194D01*
X150349611Y-86421380D01*
X150332369Y-86431578D01*
X150314897Y-86440138D01*
X150296266Y-86447514D01*
X150260938Y-86473181D01*
X150251180Y-86479591D01*
X150213579Y-86501829D01*
X150199410Y-86515998D01*
X150184622Y-86528628D01*
X150168413Y-86540405D01*
X150140572Y-86574058D01*
X150132711Y-86582696D01*
X147616208Y-89099199D01*
X147600110Y-89112096D01*
X147552096Y-89163225D01*
X147549392Y-89166016D01*
X147532628Y-89182780D01*
X147532621Y-89182787D01*
X147529880Y-89185529D01*
X147527499Y-89188597D01*
X147527490Y-89188608D01*
X147527411Y-89188711D01*
X147519842Y-89197572D01*
X147489935Y-89229420D01*
X147480285Y-89246974D01*
X147469609Y-89263228D01*
X147457326Y-89279063D01*
X147439975Y-89319158D01*
X147434838Y-89329644D01*
X147413802Y-89367907D01*
X147408821Y-89387309D01*
X147402520Y-89405711D01*
X147394561Y-89424102D01*
X147387728Y-89467242D01*
X147385360Y-89478674D01*
X147374500Y-89520977D01*
X147374500Y-89541016D01*
X147372973Y-89560414D01*
X147369840Y-89580194D01*
X147373950Y-89623673D01*
X147374500Y-89635343D01*
X147374500Y-90228018D01*
X147354815Y-90295057D01*
X147315598Y-90333556D01*
X147301648Y-90342160D01*
X147179661Y-90464147D01*
X147089091Y-90610984D01*
X147034825Y-90774746D01*
X147024819Y-90872690D01*
X147024817Y-90872710D01*
X147024500Y-90875823D01*
X147024500Y-90878970D01*
X147024500Y-90878971D01*
X147024500Y-91471026D01*
X147024500Y-91471045D01*
X146400500Y-91471045D01*
X146400500Y-83825000D01*
X147235304Y-83825000D01*
X147235319Y-83825152D01*
X147289546Y-83988801D01*
X147380056Y-84135540D01*
X147501959Y-84257443D01*
X147648698Y-84347953D01*
X147800000Y-84398088D01*
X147800000Y-83825000D01*
X148600000Y-83825000D01*
X148600000Y-84398088D01*
X148751301Y-84347953D01*
X148898040Y-84257443D01*
X149019943Y-84135540D01*
X149110453Y-83988801D01*
X149164680Y-83825152D01*
X149164696Y-83825000D01*
X148600000Y-83825000D01*
X147800000Y-83825000D01*
X147235304Y-83825000D01*
X146400500Y-83825000D01*
X146400500Y-79099999D01*
X150594356Y-79099999D01*
X150614891Y-79347816D01*
X150614891Y-79347819D01*
X150614892Y-79347821D01*
X150675937Y-79588881D01*
X150720960Y-79691523D01*
X150775825Y-79816604D01*
X150775827Y-79816607D01*
X150911836Y-80024785D01*
X151080256Y-80207738D01*
X151096560Y-80220428D01*
X151276485Y-80360470D01*
X151276487Y-80360471D01*
X151276491Y-80360474D01*
X151495190Y-80478828D01*
X151730386Y-80559571D01*
X151975665Y-80600500D01*
X152224335Y-80600500D01*
X152469614Y-80559571D01*
X152704810Y-80478828D01*
X152923509Y-80360474D01*
X153119744Y-80207738D01*
X153288164Y-80024785D01*
X153424173Y-79816607D01*
X153524063Y-79588881D01*
X153585108Y-79347821D01*
X153605643Y-79100000D01*
X153604794Y-79089760D01*
X153594485Y-78965342D01*
X153585108Y-78852179D01*
X153524063Y-78611119D01*
X153424173Y-78383393D01*
X153288164Y-78175215D01*
X153119744Y-77992262D01*
X153097612Y-77975036D01*
X152923514Y-77839529D01*
X152923510Y-77839526D01*
X152923509Y-77839526D01*
X152704810Y-77721172D01*
X152704806Y-77721170D01*
X152704805Y-77721170D01*
X152469615Y-77640429D01*
X152224335Y-77599500D01*
X151975665Y-77599500D01*
X151730384Y-77640429D01*
X151495194Y-77721170D01*
X151276485Y-77839529D01*
X151080259Y-77992259D01*
X151080256Y-77992261D01*
X151080256Y-77992262D01*
X150911836Y-78175215D01*
X150896722Y-78198349D01*
X150775825Y-78383395D01*
X150707311Y-78539593D01*
X150675937Y-78611119D01*
X150638646Y-78758377D01*
X150614891Y-78852183D01*
X150594356Y-79099999D01*
X146400500Y-79099999D01*
X146400500Y-70087500D01*
X147635304Y-70087500D01*
X148200000Y-70087500D01*
X148200000Y-69514410D01*
X149000000Y-69514410D01*
X149000000Y-70087500D01*
X149564695Y-70087500D01*
X149564680Y-70087347D01*
X149510453Y-69923698D01*
X149419943Y-69776959D01*
X149342984Y-69700000D01*
X150594356Y-69700000D01*
X150614891Y-69947816D01*
X150614891Y-69947819D01*
X150614892Y-69947821D01*
X150675937Y-70188881D01*
X150720960Y-70291523D01*
X150775825Y-70416604D01*
X150775827Y-70416607D01*
X150911836Y-70624785D01*
X151080256Y-70807738D01*
X151080259Y-70807740D01*
X151276485Y-70960470D01*
X151276487Y-70960471D01*
X151276491Y-70960474D01*
X151495190Y-71078828D01*
X151730386Y-71159571D01*
X151975665Y-71200500D01*
X152224335Y-71200500D01*
X152469614Y-71159571D01*
X152704810Y-71078828D01*
X152923509Y-70960474D01*
X153119744Y-70807738D01*
X153288164Y-70624785D01*
X153424173Y-70416607D01*
X153524063Y-70188881D01*
X153585108Y-69947821D01*
X153605643Y-69700000D01*
X157094356Y-69700000D01*
X157114891Y-69947816D01*
X157114891Y-69947819D01*
X157114892Y-69947821D01*
X157175937Y-70188881D01*
X157220960Y-70291523D01*
X157275825Y-70416604D01*
X157275827Y-70416607D01*
X157411836Y-70624785D01*
X157580256Y-70807738D01*
X157580259Y-70807740D01*
X157776485Y-70960470D01*
X157776487Y-70960471D01*
X157776491Y-70960474D01*
X157995190Y-71078828D01*
X158230386Y-71159571D01*
X158475665Y-71200500D01*
X158724335Y-71200500D01*
X158969614Y-71159571D01*
X159204810Y-71078828D01*
X159423509Y-70960474D01*
X159619744Y-70807738D01*
X159688140Y-70733440D01*
X192432244Y-70733440D01*
X192603967Y-70785531D01*
X192800000Y-70804838D01*
X192996035Y-70785530D01*
X193167754Y-70733440D01*
X193167754Y-70733439D01*
X192800001Y-70365685D01*
X192800000Y-70365685D01*
X192432244Y-70733440D01*
X159688140Y-70733440D01*
X159788164Y-70624785D01*
X159924173Y-70416607D01*
X160024063Y-70188881D01*
X160085108Y-69947821D01*
X160097357Y-69799999D01*
X191795161Y-69799999D01*
X191814468Y-69996032D01*
X191866559Y-70167753D01*
X192234314Y-69800000D01*
X193365685Y-69800000D01*
X193733439Y-70167754D01*
X193733440Y-70167754D01*
X193785530Y-69996035D01*
X193804838Y-69800000D01*
X193785531Y-69603967D01*
X193733440Y-69432244D01*
X193365685Y-69800000D01*
X192234314Y-69800000D01*
X191866559Y-69432245D01*
X191814468Y-69603967D01*
X191795161Y-69799999D01*
X160097357Y-69799999D01*
X160105643Y-69700000D01*
X160085108Y-69452179D01*
X160024063Y-69211119D01*
X159924173Y-68983393D01*
X159847842Y-68866559D01*
X192432245Y-68866559D01*
X192800000Y-69234314D01*
X192800001Y-69234314D01*
X193167753Y-68866559D01*
X192996032Y-68814468D01*
X192800000Y-68795161D01*
X192603967Y-68814468D01*
X192432245Y-68866559D01*
X159847842Y-68866559D01*
X159788164Y-68775215D01*
X159619744Y-68592262D01*
X159597612Y-68575036D01*
X159423514Y-68439529D01*
X159423510Y-68439526D01*
X159423509Y-68439526D01*
X159204810Y-68321172D01*
X159204806Y-68321170D01*
X159204805Y-68321170D01*
X158969615Y-68240429D01*
X158724335Y-68199500D01*
X158475665Y-68199500D01*
X158230384Y-68240429D01*
X157995194Y-68321170D01*
X157776485Y-68439529D01*
X157580259Y-68592259D01*
X157411837Y-68775214D01*
X157275825Y-68983395D01*
X157185780Y-69188678D01*
X157175937Y-69211119D01*
X157119940Y-69432244D01*
X157114891Y-69452183D01*
X157094356Y-69700000D01*
X153605643Y-69700000D01*
X153585108Y-69452179D01*
X153524063Y-69211119D01*
X153424173Y-68983393D01*
X153288164Y-68775215D01*
X153119744Y-68592262D01*
X153097612Y-68575036D01*
X152923514Y-68439529D01*
X152923510Y-68439526D01*
X152923509Y-68439526D01*
X152704810Y-68321172D01*
X152704806Y-68321170D01*
X152704805Y-68321170D01*
X152469615Y-68240429D01*
X152224335Y-68199500D01*
X151975665Y-68199500D01*
X151730384Y-68240429D01*
X151495194Y-68321170D01*
X151276485Y-68439529D01*
X151080259Y-68592259D01*
X150911837Y-68775214D01*
X150775825Y-68983395D01*
X150685780Y-69188678D01*
X150675937Y-69211119D01*
X150619940Y-69432244D01*
X150614891Y-69452183D01*
X150594356Y-69700000D01*
X149342984Y-69700000D01*
X149298038Y-69655054D01*
X149151305Y-69564547D01*
X149000000Y-69514410D01*
X148200000Y-69514410D01*
X148048694Y-69564547D01*
X147901961Y-69655054D01*
X147780056Y-69776959D01*
X147689546Y-69923698D01*
X147635319Y-70087347D01*
X147635304Y-70087500D01*
X146400500Y-70087500D01*
X146400500Y-66933440D01*
X163632244Y-66933440D01*
X163803967Y-66985531D01*
X164000000Y-67004838D01*
X164196035Y-66985530D01*
X164367754Y-66933440D01*
X164367754Y-66933439D01*
X164000001Y-66565685D01*
X164000000Y-66565685D01*
X163632244Y-66933440D01*
X146400500Y-66933440D01*
X146400500Y-66000000D01*
X162995161Y-66000000D01*
X163014468Y-66196032D01*
X163066559Y-66367753D01*
X163434314Y-66000000D01*
X163434313Y-65999999D01*
X164565685Y-65999999D01*
X164933440Y-66367754D01*
X164985530Y-66196035D01*
X165004838Y-66000000D01*
X164985531Y-65803967D01*
X164933440Y-65632244D01*
X164565685Y-65999998D01*
X164565685Y-65999999D01*
X163434313Y-65999999D01*
X163066559Y-65632245D01*
X163014468Y-65803967D01*
X162995161Y-66000000D01*
X146400500Y-66000000D01*
X146400500Y-61400000D01*
X147494422Y-61400000D01*
X147494592Y-61403243D01*
X147510756Y-61711676D01*
X147514722Y-61787338D01*
X147515227Y-61790531D01*
X147515229Y-61790543D01*
X147574889Y-62167224D01*
X147574891Y-62167237D01*
X147575398Y-62170433D01*
X147576235Y-62173557D01*
X147576237Y-62173566D01*
X147670862Y-62526711D01*
X147675786Y-62545087D01*
X147676943Y-62548102D01*
X147676946Y-62548110D01*
X147746632Y-62729647D01*
X147814786Y-62907194D01*
X147816255Y-62910077D01*
X147816259Y-62910086D01*
X147989400Y-63249895D01*
X147990875Y-63252789D01*
X148202124Y-63578084D01*
X148446219Y-63879516D01*
X148720484Y-64153781D01*
X149021916Y-64397876D01*
X149347211Y-64609125D01*
X149692806Y-64785214D01*
X150054913Y-64924214D01*
X150429567Y-65024602D01*
X150812662Y-65085278D01*
X151200000Y-65105578D01*
X151587338Y-65085278D01*
X151705526Y-65066559D01*
X163632245Y-65066559D01*
X164000000Y-65434314D01*
X164000001Y-65434314D01*
X164367753Y-65066559D01*
X164196032Y-65014468D01*
X164000000Y-64995161D01*
X163803967Y-65014468D01*
X163632245Y-65066559D01*
X151705526Y-65066559D01*
X151970433Y-65024602D01*
X152345087Y-64924214D01*
X152707194Y-64785214D01*
X153052789Y-64609125D01*
X153378084Y-64397876D01*
X153679516Y-64153781D01*
X153953781Y-63879516D01*
X154008050Y-63812500D01*
X155535304Y-63812500D01*
X155535319Y-63812652D01*
X155589546Y-63976301D01*
X155680056Y-64123040D01*
X155801959Y-64244943D01*
X155948698Y-64335453D01*
X156100000Y-64385588D01*
X156100000Y-63812500D01*
X156900000Y-63812500D01*
X156900000Y-64385588D01*
X157051301Y-64335453D01*
X157198040Y-64244943D01*
X157319943Y-64123040D01*
X157410453Y-63976301D01*
X157464680Y-63812652D01*
X157464696Y-63812500D01*
X156900000Y-63812500D01*
X156100000Y-63812500D01*
X155535304Y-63812500D01*
X154008050Y-63812500D01*
X154197876Y-63578084D01*
X154409125Y-63252789D01*
X154585214Y-62907194D01*
X154677200Y-62667561D01*
X154719602Y-62612030D01*
X154785296Y-62588237D01*
X154792964Y-62588000D01*
X155528172Y-62588000D01*
X155595211Y-62607685D01*
X155640966Y-62660489D01*
X155650910Y-62729647D01*
X155633711Y-62777097D01*
X155589546Y-62848698D01*
X155535319Y-63012347D01*
X155535304Y-63012500D01*
X157464695Y-63012500D01*
X157464680Y-63012347D01*
X157410453Y-62848698D01*
X157319943Y-62701959D01*
X157206018Y-62588034D01*
X157172533Y-62526711D01*
X157177517Y-62457019D01*
X157206016Y-62412673D01*
X157320340Y-62298350D01*
X157410908Y-62151516D01*
X157465174Y-61987753D01*
X157475500Y-61886677D01*
X157475499Y-61827271D01*
X157479457Y-61796192D01*
X157494063Y-61739785D01*
X157504369Y-61536564D01*
X157493166Y-61463438D01*
X189995631Y-61463438D01*
X190023070Y-61642554D01*
X190024500Y-61661328D01*
X190024500Y-61708526D01*
X190024500Y-61708544D01*
X190024501Y-61711676D01*
X190024820Y-61714808D01*
X190024821Y-61714809D01*
X190034825Y-61812752D01*
X190089091Y-61976515D01*
X190179661Y-62123352D01*
X190301647Y-62245338D01*
X190448484Y-62335908D01*
X190612246Y-62390174D01*
X190686535Y-62397763D01*
X190713323Y-62400500D01*
X190824818Y-62400499D01*
X190849780Y-62403037D01*
X190866556Y-62406484D01*
X190898259Y-62413000D01*
X192545244Y-62413000D01*
X192612283Y-62432685D01*
X192658038Y-62485489D01*
X192665018Y-62504905D01*
X192674944Y-62541949D01*
X192674947Y-62541957D01*
X192675786Y-62545087D01*
X192676941Y-62548096D01*
X192676945Y-62548108D01*
X192746632Y-62729647D01*
X192814786Y-62907194D01*
X192816255Y-62910077D01*
X192816259Y-62910086D01*
X192989400Y-63249895D01*
X192990875Y-63252789D01*
X193202124Y-63578084D01*
X193446219Y-63879516D01*
X193720484Y-64153781D01*
X194021916Y-64397876D01*
X194347211Y-64609125D01*
X194692806Y-64785214D01*
X195054913Y-64924214D01*
X195429567Y-65024602D01*
X195812662Y-65085278D01*
X196200000Y-65105578D01*
X196587338Y-65085278D01*
X196970433Y-65024602D01*
X197345087Y-64924214D01*
X197707194Y-64785214D01*
X198052789Y-64609125D01*
X198378084Y-64397876D01*
X198679516Y-64153781D01*
X198953781Y-63879516D01*
X199197876Y-63578084D01*
X199409125Y-63252789D01*
X199585214Y-62907194D01*
X199724214Y-62545087D01*
X199824602Y-62170433D01*
X199885278Y-61787338D01*
X199905578Y-61400000D01*
X199885278Y-61012662D01*
X199824602Y-60629567D01*
X199724214Y-60254913D01*
X199585214Y-59892806D01*
X199409125Y-59547211D01*
X199197876Y-59221916D01*
X198953781Y-58920484D01*
X198679516Y-58646219D01*
X198378084Y-58402124D01*
X198052789Y-58190875D01*
X198049901Y-58189403D01*
X198049895Y-58189400D01*
X197710086Y-58016259D01*
X197710077Y-58016255D01*
X197707194Y-58014786D01*
X197704162Y-58013622D01*
X197348110Y-57876946D01*
X197348102Y-57876943D01*
X197345087Y-57875786D01*
X197341962Y-57874948D01*
X197341957Y-57874947D01*
X196973566Y-57776237D01*
X196973557Y-57776235D01*
X196970433Y-57775398D01*
X196967237Y-57774891D01*
X196967224Y-57774889D01*
X196590543Y-57715229D01*
X196590531Y-57715227D01*
X196587338Y-57714722D01*
X196584103Y-57714552D01*
X196584099Y-57714552D01*
X196203244Y-57694592D01*
X196200000Y-57694422D01*
X196196756Y-57694592D01*
X195815900Y-57714552D01*
X195815894Y-57714552D01*
X195812662Y-57714722D01*
X195809470Y-57715227D01*
X195809456Y-57715229D01*
X195432775Y-57774889D01*
X195432758Y-57774892D01*
X195429567Y-57775398D01*
X195426446Y-57776234D01*
X195426433Y-57776237D01*
X195058042Y-57874947D01*
X195058031Y-57874950D01*
X195054913Y-57875786D01*
X195051902Y-57876941D01*
X195051889Y-57876946D01*
X194695837Y-58013622D01*
X194695828Y-58013625D01*
X194692806Y-58014786D01*
X194689929Y-58016251D01*
X194689913Y-58016259D01*
X194350104Y-58189400D01*
X194350090Y-58189408D01*
X194347211Y-58190875D01*
X194344491Y-58192641D01*
X194344483Y-58192646D01*
X194024644Y-58400352D01*
X194024638Y-58400355D01*
X194021916Y-58402124D01*
X194019396Y-58404164D01*
X194019390Y-58404169D01*
X193723002Y-58644179D01*
X193722991Y-58644188D01*
X193720484Y-58646219D01*
X193718199Y-58648503D01*
X193718189Y-58648513D01*
X193448513Y-58918189D01*
X193448503Y-58918199D01*
X193446219Y-58920484D01*
X193444188Y-58922991D01*
X193444179Y-58923002D01*
X193204169Y-59219390D01*
X193204164Y-59219396D01*
X193202124Y-59221916D01*
X193200355Y-59224638D01*
X193200352Y-59224644D01*
X192992646Y-59544483D01*
X192992641Y-59544491D01*
X192990875Y-59547211D01*
X192989408Y-59550090D01*
X192989400Y-59550104D01*
X192816259Y-59889913D01*
X192816251Y-59889929D01*
X192814786Y-59892806D01*
X192813625Y-59895828D01*
X192813622Y-59895837D01*
X192676946Y-60251889D01*
X192676941Y-60251902D01*
X192675786Y-60254913D01*
X192674949Y-60258037D01*
X192658321Y-60320094D01*
X192621956Y-60379754D01*
X192559109Y-60410283D01*
X192538546Y-60412000D01*
X191971828Y-60412000D01*
X191904789Y-60392315D01*
X191859034Y-60339511D01*
X191849090Y-60270353D01*
X191866289Y-60222903D01*
X191910453Y-60151301D01*
X191964680Y-59987652D01*
X191964696Y-59987500D01*
X190035304Y-59987500D01*
X190035319Y-59987652D01*
X190089546Y-60151301D01*
X190180056Y-60298040D01*
X190293981Y-60411965D01*
X190327466Y-60473288D01*
X190322482Y-60542980D01*
X190293982Y-60587327D01*
X190179660Y-60701649D01*
X190089091Y-60848484D01*
X190034825Y-61012246D01*
X190024819Y-61110190D01*
X190024817Y-61110210D01*
X190024500Y-61113323D01*
X190024500Y-61116471D01*
X190024500Y-61172726D01*
X190020542Y-61203806D01*
X190005937Y-61260214D01*
X189995631Y-61463438D01*
X157493166Y-61463438D01*
X157476929Y-61357446D01*
X157475499Y-61338669D01*
X157475499Y-61291472D01*
X157475499Y-61288324D01*
X157465174Y-61187247D01*
X157410908Y-61023484D01*
X157320340Y-60876650D01*
X157320339Y-60876649D01*
X157320338Y-60876647D01*
X157198352Y-60754661D01*
X157051515Y-60664091D01*
X156887753Y-60609825D01*
X156789809Y-60599819D01*
X156789790Y-60599818D01*
X156786677Y-60599500D01*
X156783528Y-60599500D01*
X156675178Y-60599500D01*
X156650218Y-60596962D01*
X156601741Y-60587000D01*
X154908345Y-60587000D01*
X154841306Y-60567315D01*
X154795551Y-60514511D01*
X154788570Y-60495094D01*
X154772421Y-60434826D01*
X154724214Y-60254913D01*
X154585214Y-59892806D01*
X154409125Y-59547211D01*
X154197876Y-59221916D01*
X154170006Y-59187500D01*
X190035304Y-59187500D01*
X190600000Y-59187500D01*
X190600000Y-58614410D01*
X191400000Y-58614410D01*
X191400000Y-59187500D01*
X191964695Y-59187500D01*
X191964680Y-59187347D01*
X191910453Y-59023698D01*
X191819943Y-58876959D01*
X191698038Y-58755054D01*
X191551305Y-58664547D01*
X191400000Y-58614410D01*
X190600000Y-58614410D01*
X190448694Y-58664547D01*
X190301961Y-58755054D01*
X190180056Y-58876959D01*
X190089546Y-59023698D01*
X190035319Y-59187347D01*
X190035304Y-59187500D01*
X154170006Y-59187500D01*
X153953781Y-58920484D01*
X153679516Y-58646219D01*
X153378084Y-58402124D01*
X153052789Y-58190875D01*
X153049901Y-58189403D01*
X153049895Y-58189400D01*
X152710086Y-58016259D01*
X152710077Y-58016255D01*
X152707194Y-58014786D01*
X152704162Y-58013622D01*
X152348110Y-57876946D01*
X152348102Y-57876943D01*
X152345087Y-57875786D01*
X152341962Y-57874948D01*
X152341957Y-57874947D01*
X151973566Y-57776237D01*
X151973557Y-57776235D01*
X151970433Y-57775398D01*
X151967237Y-57774891D01*
X151967224Y-57774889D01*
X151590543Y-57715229D01*
X151590531Y-57715227D01*
X151587338Y-57714722D01*
X151584103Y-57714552D01*
X151584099Y-57714552D01*
X151203244Y-57694592D01*
X151200000Y-57694422D01*
X151196756Y-57694592D01*
X150815900Y-57714552D01*
X150815894Y-57714552D01*
X150812662Y-57714722D01*
X150809470Y-57715227D01*
X150809456Y-57715229D01*
X150432775Y-57774889D01*
X150432758Y-57774892D01*
X150429567Y-57775398D01*
X150426446Y-57776234D01*
X150426433Y-57776237D01*
X150058042Y-57874947D01*
X150058031Y-57874950D01*
X150054913Y-57875786D01*
X150051902Y-57876941D01*
X150051889Y-57876946D01*
X149695837Y-58013622D01*
X149695828Y-58013625D01*
X149692806Y-58014786D01*
X149689929Y-58016251D01*
X149689913Y-58016259D01*
X149350104Y-58189400D01*
X149350090Y-58189408D01*
X149347211Y-58190875D01*
X149344491Y-58192641D01*
X149344483Y-58192646D01*
X149024644Y-58400352D01*
X149024638Y-58400355D01*
X149021916Y-58402124D01*
X149019396Y-58404164D01*
X149019390Y-58404169D01*
X148723002Y-58644179D01*
X148722991Y-58644188D01*
X148720484Y-58646219D01*
X148718199Y-58648503D01*
X148718189Y-58648513D01*
X148448513Y-58918189D01*
X148448503Y-58918199D01*
X148446219Y-58920484D01*
X148444188Y-58922991D01*
X148444179Y-58923002D01*
X148204169Y-59219390D01*
X148204164Y-59219396D01*
X148202124Y-59221916D01*
X148200355Y-59224638D01*
X148200352Y-59224644D01*
X147992646Y-59544483D01*
X147992641Y-59544491D01*
X147990875Y-59547211D01*
X147989408Y-59550090D01*
X147989400Y-59550104D01*
X147816259Y-59889913D01*
X147816251Y-59889929D01*
X147814786Y-59892806D01*
X147813625Y-59895828D01*
X147813622Y-59895837D01*
X147676946Y-60251889D01*
X147676941Y-60251902D01*
X147675786Y-60254913D01*
X147674950Y-60258031D01*
X147674947Y-60258042D01*
X147576237Y-60626433D01*
X147576234Y-60626446D01*
X147575398Y-60629567D01*
X147574892Y-60632758D01*
X147574889Y-60632775D01*
X147515229Y-61009456D01*
X147515227Y-61009470D01*
X147514722Y-61012662D01*
X147514552Y-61015894D01*
X147514552Y-61015900D01*
X147504704Y-61203806D01*
X147494422Y-61400000D01*
X146400500Y-61400000D01*
X146400500Y-56724500D01*
X146420185Y-56657461D01*
X146472989Y-56611706D01*
X146524500Y-56600500D01*
X200875500Y-56600500D01*
X200942539Y-56620185D01*
G37*
%TD.AperFunction*%
%TD*%
M02*
