%TF.GenerationSoftware,KiCad,Pcbnew,7.0.2-0*%
%TF.CreationDate,2025-01-08T13:19:12-05:00*%
%TF.ProjectId,plaqchek_sipm_sens,706c6171-6368-4656-9b5f-7369706d5f73,rev?*%
%TF.SameCoordinates,Original*%
%TF.FileFunction,Copper,L4,Bot*%
%TF.FilePolarity,Positive*%
%FSLAX46Y46*%
G04 Gerber Fmt 4.6, Leading zero omitted, Abs format (unit mm)*
G04 Created by KiCad (PCBNEW 7.0.2-0) date 2025-01-08 13:19:12*
%MOMM*%
%LPD*%
G01*
G04 APERTURE LIST*
%TA.AperFunction,ComponentPad*%
%ADD10C,6.400000*%
%TD*%
%TA.AperFunction,ComponentPad*%
%ADD11R,1.700000X1.700000*%
%TD*%
%TA.AperFunction,ComponentPad*%
%ADD12O,1.700000X1.700000*%
%TD*%
%TA.AperFunction,SMDPad,CuDef*%
%ADD13C,1.000000*%
%TD*%
%TA.AperFunction,ComponentPad*%
%ADD14R,1.350000X1.350000*%
%TD*%
%TA.AperFunction,ComponentPad*%
%ADD15O,1.350000X1.350000*%
%TD*%
%TA.AperFunction,ComponentPad*%
%ADD16C,1.350000*%
%TD*%
%TA.AperFunction,ViaPad*%
%ADD17C,0.800000*%
%TD*%
%TA.AperFunction,Conductor*%
%ADD18C,0.500000*%
%TD*%
%TA.AperFunction,Conductor*%
%ADD19C,0.250000*%
%TD*%
G04 APERTURE END LIST*
D10*
%TO.P,H3,1,1*%
%TO.N,Net-(H3-Pad1)*%
X156000000Y-111000000D03*
%TD*%
%TO.P,H2,1,1*%
%TO.N,Net-(H2-Pad1)*%
X197000000Y-62000000D03*
%TD*%
%TO.P,H1,1,1*%
%TO.N,Net-(H1-Pad1)*%
X156000000Y-62000000D03*
%TD*%
D11*
%TO.P,J2,1,Pin_1*%
%TO.N,SPI_3V3_ADC_CS*%
X196950000Y-103505000D03*
D12*
%TO.P,J2,2,Pin_2*%
%TO.N,SPI_3V3_ADC_MISO*%
X196950000Y-100965000D03*
%TO.P,J2,3,Pin_3*%
%TO.N,SPI_3V3_ADC_SCLK*%
X196950000Y-98425000D03*
%TO.P,J2,4,Pin_4*%
%TO.N,GND*%
X196950000Y-95885000D03*
%TD*%
D11*
%TO.P,J3,1,Pin_1*%
%TO.N,SIPM_BIAS_OUT*%
X167296000Y-64300000D03*
D12*
%TO.P,J3,2,Pin_2*%
%TO.N,+6V*%
X169836000Y-64300000D03*
%TO.P,J3,3,Pin_3*%
%TO.N,+3V3*%
X172376000Y-64300000D03*
%TO.P,J3,4,Pin_4*%
%TO.N,-6V5*%
X174916000Y-64300000D03*
%TO.P,J3,5,Pin_5*%
%TO.N,GND*%
X177456000Y-64300000D03*
%TD*%
D10*
%TO.P,H4,1,1*%
%TO.N,Net-(H4-Pad1)*%
X197000000Y-111000000D03*
%TD*%
D13*
%TO.P,TP18,1,1*%
%TO.N,GND*%
X157560000Y-87340000D03*
%TD*%
D14*
%TO.P,U10,1,C*%
%TO.N,/SIPM Readout/SIPM_BIAS*%
X161327000Y-87303000D03*
D15*
%TO.P,U10,2,A*%
%TO.N,/SIPM Readout/SIPM_OUT*%
X163327000Y-87303000D03*
D16*
%TO.P,U10,3,NC*%
%TO.N,unconnected-(U10-NC-Pad3)*%
X166327000Y-99303000D03*
D15*
%TO.P,U10,4,NC*%
%TO.N,unconnected-(U10-NC-Pad4)*%
X168327000Y-99303000D03*
%TD*%
D17*
%TO.N,+6V*%
X193200000Y-81800000D03*
X169926000Y-66294000D03*
X169926000Y-67310000D03*
X192800000Y-77600000D03*
%TO.N,GND*%
X162535000Y-75398000D03*
X184000000Y-58000000D03*
X183000000Y-63400000D03*
X201000000Y-83000000D03*
X186000000Y-109000000D03*
X152000000Y-94000000D03*
X152000000Y-66000000D03*
X176000000Y-58000000D03*
X168000000Y-113000000D03*
X192000000Y-58000000D03*
X164300000Y-78600000D03*
X193000000Y-96000000D03*
X194350000Y-105600000D03*
X152000000Y-78000000D03*
X180000000Y-58000000D03*
X165200000Y-85700000D03*
X152000000Y-106000000D03*
X193400000Y-98600000D03*
X175768000Y-78740000D03*
X190775000Y-111450000D03*
X163800000Y-85600000D03*
X196000000Y-58000000D03*
X181200000Y-81200000D03*
X189250000Y-87200000D03*
X165200000Y-83200000D03*
X152000000Y-70000000D03*
X185700000Y-90300000D03*
X160000000Y-58000000D03*
X160000000Y-85600000D03*
X183000000Y-66000000D03*
X170000000Y-115000000D03*
X201000000Y-111000000D03*
X172000000Y-58000000D03*
X201000000Y-103000000D03*
X172000000Y-80800000D03*
X159000000Y-87000000D03*
X164200000Y-74400000D03*
X179900000Y-96300000D03*
X184750000Y-107000000D03*
X175250000Y-107250000D03*
X163000000Y-89000000D03*
X166000000Y-112000000D03*
X192000000Y-76000000D03*
X180200000Y-66200000D03*
X194150000Y-104425000D03*
X165500000Y-88500000D03*
X163800000Y-82200000D03*
X183000000Y-91000000D03*
X162000000Y-115000000D03*
X174000000Y-115000000D03*
X157400000Y-72700000D03*
X201000000Y-95000000D03*
X168600000Y-70600000D03*
X193830000Y-101150000D03*
X194000000Y-115000000D03*
X189000000Y-109000000D03*
X177371216Y-104777203D03*
X163800000Y-84000000D03*
X185750000Y-107000000D03*
X172750000Y-101000000D03*
X167000000Y-72800000D03*
X188000000Y-58000000D03*
X179750000Y-93000000D03*
X156000000Y-58000000D03*
X154600000Y-79100000D03*
X201000000Y-71000000D03*
X159470000Y-82910000D03*
X162435000Y-73398000D03*
X155900000Y-80400000D03*
X152000000Y-58000000D03*
X190000000Y-115000000D03*
X178300000Y-98090000D03*
X191600000Y-86500000D03*
X158000000Y-115000000D03*
X152000000Y-114000000D03*
X168600000Y-66500000D03*
X190000000Y-98000000D03*
X186000000Y-92000000D03*
X186200000Y-61800000D03*
X152000000Y-62000000D03*
X190000000Y-95600000D03*
X170250000Y-88500000D03*
X164000000Y-58000000D03*
X161290000Y-78740000D03*
X201000000Y-59000000D03*
X152000000Y-110000000D03*
X201000000Y-91000000D03*
X156500000Y-76400000D03*
X168600000Y-67700000D03*
X159900000Y-60300000D03*
X201000000Y-107000000D03*
X201000000Y-87000000D03*
X180000000Y-89000000D03*
X172500000Y-93200000D03*
X177546000Y-101600000D03*
X200000000Y-58000000D03*
X181150000Y-109225000D03*
X163759750Y-68798000D03*
X184750000Y-105000000D03*
X201000000Y-63000000D03*
X162189750Y-65828000D03*
X181575000Y-106900000D03*
X193000000Y-85000000D03*
X182975000Y-107975000D03*
X189000000Y-75000000D03*
X201000000Y-99000000D03*
X182372000Y-82550000D03*
X186000000Y-115000000D03*
X193000000Y-93000000D03*
X152000000Y-90000000D03*
X152000000Y-82000000D03*
X176900000Y-90900000D03*
X192000000Y-109000000D03*
X165200000Y-72900000D03*
X183000000Y-89000000D03*
X185750000Y-102800000D03*
X156500000Y-77500000D03*
X178750000Y-107500000D03*
X183000000Y-87000000D03*
X201000000Y-67000000D03*
X195525000Y-105075000D03*
X152000000Y-102000000D03*
X174000000Y-105750000D03*
X154136000Y-66498000D03*
X194000000Y-67000000D03*
X177200000Y-94510000D03*
X163700000Y-72900000D03*
X167820000Y-86080000D03*
X181200000Y-64600000D03*
X201000000Y-75000000D03*
X178000000Y-115000000D03*
X184800000Y-64600000D03*
X160000000Y-89000000D03*
X190600000Y-93400000D03*
X176448455Y-83889720D03*
X166000000Y-67600000D03*
X168000000Y-88500000D03*
X166000000Y-115000000D03*
X182000000Y-115000000D03*
X162575000Y-109250000D03*
X168100000Y-72000000D03*
X162100000Y-85600000D03*
X169800000Y-106400000D03*
X177071831Y-73066898D03*
X166000000Y-66500000D03*
X201000000Y-79000000D03*
X168780000Y-101780000D03*
X177800000Y-86900000D03*
X192000000Y-72000000D03*
X198000000Y-115000000D03*
X164200000Y-80300000D03*
X192024000Y-78994000D03*
X152000000Y-86000000D03*
X152000000Y-74000000D03*
X168000000Y-58000000D03*
X178900000Y-67500000D03*
X185750000Y-105000000D03*
X154000000Y-115000000D03*
X172750000Y-99500000D03*
X177200000Y-95900000D03*
X190600000Y-94600000D03*
X165700000Y-68700000D03*
X168600000Y-68700000D03*
X179396036Y-105128700D03*
X184050000Y-83650000D03*
X173500000Y-87500000D03*
X160000000Y-81100000D03*
X156500000Y-75100000D03*
X166600000Y-82200000D03*
X201000000Y-115000000D03*
X177558734Y-85113874D03*
X161600000Y-79900000D03*
X192400000Y-99600000D03*
X186100000Y-100500000D03*
X152000000Y-98000000D03*
X182000000Y-84000000D03*
%TO.N,+5VA*%
X181102000Y-75692000D03*
X179832000Y-75692000D03*
X181102000Y-74422000D03*
X175000000Y-88100000D03*
X167770000Y-104510000D03*
X174200000Y-89800000D03*
%TO.N,Net-(U3-OUT)*%
X172724643Y-98012601D03*
X181000000Y-93000000D03*
%TO.N,+5.35V*%
X186600000Y-89400000D03*
X191600000Y-87800000D03*
%TO.N,+1V8*%
X177800000Y-109400000D03*
X180848000Y-102870000D03*
X175800000Y-109400000D03*
X177800000Y-111000000D03*
%TO.N,+3V3*%
X167600000Y-107200000D03*
X171400000Y-106400000D03*
X188710000Y-100840000D03*
X188720000Y-101700000D03*
%TO.N,-5VA*%
X175464448Y-99719320D03*
X173997000Y-78618000D03*
X177546000Y-103058500D03*
X185200000Y-71900000D03*
X183000000Y-74000000D03*
X185200000Y-73900000D03*
%TD*%
D18*
%TO.N,Net-(U3-OUT)*%
X176289481Y-98012601D02*
X181000000Y-93302082D01*
X181000000Y-93302082D02*
X181000000Y-93000000D01*
X172724643Y-98012601D02*
X176289481Y-98012601D01*
D19*
X181000000Y-93000000D02*
X181000000Y-93125305D01*
%TO.N,+5.35V*%
X190000000Y-89400000D02*
X186600000Y-89400000D01*
X191600000Y-87800000D02*
X190000000Y-89400000D01*
%TD*%
%TA.AperFunction,Conductor*%
%TO.N,GND*%
G36*
X201742539Y-57220185D02*
G01*
X201788294Y-57272989D01*
X201799500Y-57324500D01*
X201799500Y-115675500D01*
X201779815Y-115742539D01*
X201727011Y-115788294D01*
X201675500Y-115799500D01*
X151324500Y-115799500D01*
X151257461Y-115779815D01*
X151211706Y-115727011D01*
X151200500Y-115675500D01*
X151200500Y-111000000D01*
X152394559Y-111000000D01*
X152394729Y-111003243D01*
X152412876Y-111349523D01*
X152414310Y-111376871D01*
X152414815Y-111380064D01*
X152414817Y-111380076D01*
X152472838Y-111746404D01*
X152472840Y-111746417D01*
X152473347Y-111749613D01*
X152571022Y-112114143D01*
X152706266Y-112466465D01*
X152707735Y-112469348D01*
X152707739Y-112469357D01*
X152876122Y-112799827D01*
X152877597Y-112802721D01*
X153083137Y-113119225D01*
X153320635Y-113412511D01*
X153587489Y-113679365D01*
X153880775Y-113916863D01*
X154197279Y-114122403D01*
X154533535Y-114293734D01*
X154885857Y-114428978D01*
X155250387Y-114526653D01*
X155623129Y-114585690D01*
X156000000Y-114605441D01*
X156376871Y-114585690D01*
X156749613Y-114526653D01*
X157114143Y-114428978D01*
X157466465Y-114293734D01*
X157802721Y-114122403D01*
X158119225Y-113916863D01*
X158412511Y-113679365D01*
X158679365Y-113412511D01*
X158916863Y-113119225D01*
X159122403Y-112802721D01*
X159293734Y-112466465D01*
X159428978Y-112114143D01*
X159526653Y-111749613D01*
X159585690Y-111376871D01*
X159605441Y-111000000D01*
X159605441Y-110999999D01*
X176994434Y-110999999D01*
X177014631Y-111179251D01*
X177014631Y-111179253D01*
X177014632Y-111179255D01*
X177074211Y-111349522D01*
X177130978Y-111439867D01*
X177170185Y-111502264D01*
X177297735Y-111629814D01*
X177297737Y-111629815D01*
X177297738Y-111629816D01*
X177450478Y-111725789D01*
X177620745Y-111785368D01*
X177800000Y-111805565D01*
X177979255Y-111785368D01*
X178149522Y-111725789D01*
X178302262Y-111629816D01*
X178429816Y-111502262D01*
X178525789Y-111349522D01*
X178585368Y-111179255D01*
X178605565Y-111000000D01*
X193394559Y-111000000D01*
X193394729Y-111003243D01*
X193412876Y-111349523D01*
X193414310Y-111376871D01*
X193414815Y-111380064D01*
X193414817Y-111380076D01*
X193472838Y-111746404D01*
X193472840Y-111746417D01*
X193473347Y-111749613D01*
X193571022Y-112114143D01*
X193706266Y-112466465D01*
X193707735Y-112469348D01*
X193707739Y-112469357D01*
X193876122Y-112799827D01*
X193877597Y-112802721D01*
X194083137Y-113119225D01*
X194320635Y-113412511D01*
X194587489Y-113679365D01*
X194880775Y-113916863D01*
X195197279Y-114122403D01*
X195533535Y-114293734D01*
X195885857Y-114428978D01*
X196250387Y-114526653D01*
X196623129Y-114585690D01*
X197000000Y-114605441D01*
X197376871Y-114585690D01*
X197749613Y-114526653D01*
X198114143Y-114428978D01*
X198466465Y-114293734D01*
X198802721Y-114122403D01*
X199119225Y-113916863D01*
X199412511Y-113679365D01*
X199679365Y-113412511D01*
X199916863Y-113119225D01*
X200122403Y-112802721D01*
X200293734Y-112466465D01*
X200428978Y-112114143D01*
X200526653Y-111749613D01*
X200585690Y-111376871D01*
X200605441Y-111000000D01*
X200585690Y-110623129D01*
X200526653Y-110250387D01*
X200428978Y-109885857D01*
X200293734Y-109533535D01*
X200122403Y-109197280D01*
X199916863Y-108880775D01*
X199679365Y-108587489D01*
X199412511Y-108320635D01*
X199119225Y-108083137D01*
X198802721Y-107877597D01*
X198799833Y-107876125D01*
X198799827Y-107876122D01*
X198469357Y-107707739D01*
X198469348Y-107707735D01*
X198466465Y-107706266D01*
X198463433Y-107705102D01*
X198117166Y-107572182D01*
X198117158Y-107572179D01*
X198114143Y-107571022D01*
X198111018Y-107570184D01*
X198111013Y-107570183D01*
X197752746Y-107474186D01*
X197752737Y-107474184D01*
X197749613Y-107473347D01*
X197746417Y-107472840D01*
X197746404Y-107472838D01*
X197380076Y-107414817D01*
X197380064Y-107414815D01*
X197376871Y-107414310D01*
X197373638Y-107414140D01*
X197373633Y-107414140D01*
X197003244Y-107394729D01*
X197000000Y-107394559D01*
X196996756Y-107394729D01*
X196626366Y-107414140D01*
X196626359Y-107414140D01*
X196623129Y-107414310D01*
X196619937Y-107414815D01*
X196619923Y-107414817D01*
X196253595Y-107472838D01*
X196253578Y-107472841D01*
X196250387Y-107473347D01*
X196247266Y-107474183D01*
X196247253Y-107474186D01*
X195888986Y-107570183D01*
X195888975Y-107570186D01*
X195885857Y-107571022D01*
X195882846Y-107572177D01*
X195882833Y-107572182D01*
X195536566Y-107705102D01*
X195536557Y-107705105D01*
X195533535Y-107706266D01*
X195530658Y-107707731D01*
X195530642Y-107707739D01*
X195200173Y-107876122D01*
X195200159Y-107876129D01*
X195197280Y-107877597D01*
X195194560Y-107879363D01*
X195194552Y-107879368D01*
X194883503Y-108081365D01*
X194883497Y-108081368D01*
X194880775Y-108083137D01*
X194878255Y-108085177D01*
X194878249Y-108085182D01*
X194590007Y-108318595D01*
X194589996Y-108318604D01*
X194587489Y-108320635D01*
X194585204Y-108322919D01*
X194585194Y-108322929D01*
X194322929Y-108585194D01*
X194322919Y-108585204D01*
X194320635Y-108587489D01*
X194318604Y-108589996D01*
X194318595Y-108590007D01*
X194085182Y-108878249D01*
X194085177Y-108878255D01*
X194083137Y-108880775D01*
X194081368Y-108883497D01*
X194081365Y-108883503D01*
X193879368Y-109194552D01*
X193879363Y-109194560D01*
X193877597Y-109197280D01*
X193876129Y-109200159D01*
X193876122Y-109200173D01*
X193707739Y-109530642D01*
X193707731Y-109530658D01*
X193706266Y-109533535D01*
X193705105Y-109536557D01*
X193705102Y-109536566D01*
X193572182Y-109882833D01*
X193572177Y-109882846D01*
X193571022Y-109885857D01*
X193570186Y-109888975D01*
X193570183Y-109888986D01*
X193474186Y-110247253D01*
X193474183Y-110247266D01*
X193473347Y-110250387D01*
X193472841Y-110253578D01*
X193472838Y-110253595D01*
X193414817Y-110619923D01*
X193414815Y-110619937D01*
X193414310Y-110623129D01*
X193414140Y-110626359D01*
X193414140Y-110626366D01*
X193403953Y-110820745D01*
X193394559Y-111000000D01*
X178605565Y-111000000D01*
X178585368Y-110820745D01*
X178525789Y-110650478D01*
X178429816Y-110497738D01*
X178429815Y-110497737D01*
X178429814Y-110497735D01*
X178302264Y-110370185D01*
X178267602Y-110348406D01*
X178198510Y-110304992D01*
X178152221Y-110252660D01*
X178141572Y-110183606D01*
X178169947Y-110119758D01*
X178198509Y-110095007D01*
X178302262Y-110029816D01*
X178429816Y-109902262D01*
X178525789Y-109749522D01*
X178585368Y-109579255D01*
X178605565Y-109400000D01*
X178585368Y-109220745D01*
X178525789Y-109050478D01*
X178429816Y-108897738D01*
X178429815Y-108897737D01*
X178429814Y-108897735D01*
X178302264Y-108770185D01*
X178239867Y-108730979D01*
X178149522Y-108674211D01*
X177979255Y-108614632D01*
X177979253Y-108614631D01*
X177979251Y-108614631D01*
X177799999Y-108594434D01*
X177620748Y-108614631D01*
X177620745Y-108614631D01*
X177620745Y-108614632D01*
X177450478Y-108674211D01*
X177450476Y-108674211D01*
X177450476Y-108674212D01*
X177297735Y-108770185D01*
X177170185Y-108897735D01*
X177074212Y-109050476D01*
X177074211Y-109050478D01*
X177014632Y-109220745D01*
X177014631Y-109220748D01*
X176994434Y-109399999D01*
X177014631Y-109579251D01*
X177014631Y-109579253D01*
X177014632Y-109579255D01*
X177074211Y-109749522D01*
X177074212Y-109749523D01*
X177170185Y-109902264D01*
X177297736Y-110029815D01*
X177401487Y-110095006D01*
X177447778Y-110147341D01*
X177458426Y-110216394D01*
X177430051Y-110280243D01*
X177401487Y-110304994D01*
X177297736Y-110370184D01*
X177170185Y-110497735D01*
X177074212Y-110650476D01*
X177014631Y-110820748D01*
X176994434Y-110999999D01*
X159605441Y-110999999D01*
X159585690Y-110623129D01*
X159526653Y-110250387D01*
X159428978Y-109885857D01*
X159293734Y-109533535D01*
X159225694Y-109400000D01*
X174994434Y-109400000D01*
X175014631Y-109579251D01*
X175014631Y-109579253D01*
X175014632Y-109579255D01*
X175074211Y-109749522D01*
X175074212Y-109749523D01*
X175170185Y-109902264D01*
X175297735Y-110029814D01*
X175297737Y-110029815D01*
X175297738Y-110029816D01*
X175450478Y-110125789D01*
X175620745Y-110185368D01*
X175800000Y-110205565D01*
X175979255Y-110185368D01*
X176149522Y-110125789D01*
X176302262Y-110029816D01*
X176429816Y-109902262D01*
X176525789Y-109749522D01*
X176585368Y-109579255D01*
X176605565Y-109400000D01*
X176585368Y-109220745D01*
X176525789Y-109050478D01*
X176429816Y-108897738D01*
X176429815Y-108897737D01*
X176429814Y-108897735D01*
X176302264Y-108770185D01*
X176239867Y-108730979D01*
X176149522Y-108674211D01*
X175979255Y-108614632D01*
X175979253Y-108614631D01*
X175979251Y-108614631D01*
X175800000Y-108594434D01*
X175620748Y-108614631D01*
X175620745Y-108614631D01*
X175620745Y-108614632D01*
X175450478Y-108674211D01*
X175450476Y-108674211D01*
X175450476Y-108674212D01*
X175297735Y-108770185D01*
X175170185Y-108897735D01*
X175074212Y-109050476D01*
X175074211Y-109050478D01*
X175014632Y-109220745D01*
X175014631Y-109220748D01*
X174994434Y-109400000D01*
X159225694Y-109400000D01*
X159122403Y-109197280D01*
X158916863Y-108880775D01*
X158679365Y-108587489D01*
X158412511Y-108320635D01*
X158119225Y-108083137D01*
X157802721Y-107877597D01*
X157799833Y-107876125D01*
X157799827Y-107876122D01*
X157469357Y-107707739D01*
X157469348Y-107707735D01*
X157466465Y-107706266D01*
X157463433Y-107705102D01*
X157117166Y-107572182D01*
X157117158Y-107572179D01*
X157114143Y-107571022D01*
X157111018Y-107570184D01*
X157111013Y-107570183D01*
X156752746Y-107474186D01*
X156752737Y-107474184D01*
X156749613Y-107473347D01*
X156746417Y-107472840D01*
X156746404Y-107472838D01*
X156380076Y-107414817D01*
X156380064Y-107414815D01*
X156376871Y-107414310D01*
X156373638Y-107414140D01*
X156373633Y-107414140D01*
X156003244Y-107394729D01*
X156000000Y-107394559D01*
X155996756Y-107394729D01*
X155626366Y-107414140D01*
X155626359Y-107414140D01*
X155623129Y-107414310D01*
X155619937Y-107414815D01*
X155619923Y-107414817D01*
X155253595Y-107472838D01*
X155253578Y-107472841D01*
X155250387Y-107473347D01*
X155247266Y-107474183D01*
X155247253Y-107474186D01*
X154888986Y-107570183D01*
X154888975Y-107570186D01*
X154885857Y-107571022D01*
X154882846Y-107572177D01*
X154882833Y-107572182D01*
X154536566Y-107705102D01*
X154536557Y-107705105D01*
X154533535Y-107706266D01*
X154530658Y-107707731D01*
X154530642Y-107707739D01*
X154200173Y-107876122D01*
X154200159Y-107876129D01*
X154197280Y-107877597D01*
X154194560Y-107879363D01*
X154194552Y-107879368D01*
X153883503Y-108081365D01*
X153883497Y-108081368D01*
X153880775Y-108083137D01*
X153878255Y-108085177D01*
X153878249Y-108085182D01*
X153590007Y-108318595D01*
X153589996Y-108318604D01*
X153587489Y-108320635D01*
X153585204Y-108322919D01*
X153585194Y-108322929D01*
X153322929Y-108585194D01*
X153322919Y-108585204D01*
X153320635Y-108587489D01*
X153318604Y-108589996D01*
X153318595Y-108590007D01*
X153085182Y-108878249D01*
X153085177Y-108878255D01*
X153083137Y-108880775D01*
X153081368Y-108883497D01*
X153081365Y-108883503D01*
X152879368Y-109194552D01*
X152879363Y-109194560D01*
X152877597Y-109197280D01*
X152876129Y-109200159D01*
X152876122Y-109200173D01*
X152707739Y-109530642D01*
X152707731Y-109530658D01*
X152706266Y-109533535D01*
X152705105Y-109536557D01*
X152705102Y-109536566D01*
X152572182Y-109882833D01*
X152572177Y-109882846D01*
X152571022Y-109885857D01*
X152570186Y-109888975D01*
X152570183Y-109888986D01*
X152474186Y-110247253D01*
X152474183Y-110247266D01*
X152473347Y-110250387D01*
X152472841Y-110253578D01*
X152472838Y-110253595D01*
X152414817Y-110619923D01*
X152414815Y-110619937D01*
X152414310Y-110623129D01*
X152414140Y-110626359D01*
X152414140Y-110626366D01*
X152403953Y-110820745D01*
X152394559Y-111000000D01*
X151200500Y-111000000D01*
X151200500Y-107200000D01*
X166794434Y-107200000D01*
X166814631Y-107379251D01*
X166814631Y-107379253D01*
X166814632Y-107379255D01*
X166874211Y-107549522D01*
X166930978Y-107639867D01*
X166970185Y-107702264D01*
X167097735Y-107829814D01*
X167097737Y-107829815D01*
X167097738Y-107829816D01*
X167250478Y-107925789D01*
X167420745Y-107985368D01*
X167600000Y-108005565D01*
X167779255Y-107985368D01*
X167949522Y-107925789D01*
X168102262Y-107829816D01*
X168229816Y-107702262D01*
X168325789Y-107549522D01*
X168385368Y-107379255D01*
X168405565Y-107200000D01*
X168385368Y-107020745D01*
X168325789Y-106850478D01*
X168229816Y-106697738D01*
X168229815Y-106697737D01*
X168229814Y-106697735D01*
X168102264Y-106570185D01*
X168039867Y-106530978D01*
X167949522Y-106474211D01*
X167779255Y-106414632D01*
X167779253Y-106414631D01*
X167779251Y-106414631D01*
X167649399Y-106400000D01*
X170594434Y-106400000D01*
X170614631Y-106579251D01*
X170614631Y-106579253D01*
X170614632Y-106579255D01*
X170674211Y-106749522D01*
X170674212Y-106749523D01*
X170770185Y-106902264D01*
X170897735Y-107029814D01*
X170897737Y-107029815D01*
X170897738Y-107029816D01*
X171050478Y-107125789D01*
X171220745Y-107185368D01*
X171400000Y-107205565D01*
X171579255Y-107185368D01*
X171749522Y-107125789D01*
X171902262Y-107029816D01*
X172029816Y-106902262D01*
X172125789Y-106749522D01*
X172185368Y-106579255D01*
X172205565Y-106400000D01*
X172185368Y-106220745D01*
X172125789Y-106050478D01*
X172029816Y-105897738D01*
X172029815Y-105897737D01*
X172029814Y-105897735D01*
X171902264Y-105770185D01*
X171839867Y-105730979D01*
X171749522Y-105674211D01*
X171579255Y-105614632D01*
X171579253Y-105614631D01*
X171579251Y-105614631D01*
X171400000Y-105594434D01*
X171220748Y-105614631D01*
X171220745Y-105614631D01*
X171220745Y-105614632D01*
X171050478Y-105674211D01*
X171050476Y-105674211D01*
X171050476Y-105674212D01*
X170897735Y-105770185D01*
X170770185Y-105897735D01*
X170674212Y-106050476D01*
X170614631Y-106220748D01*
X170594434Y-106400000D01*
X167649399Y-106400000D01*
X167600000Y-106394434D01*
X167420748Y-106414631D01*
X167420745Y-106414631D01*
X167420745Y-106414632D01*
X167250478Y-106474211D01*
X167250476Y-106474211D01*
X167250476Y-106474212D01*
X167097735Y-106570185D01*
X166970185Y-106697735D01*
X166937645Y-106749523D01*
X166874211Y-106850478D01*
X166814632Y-107020745D01*
X166814631Y-107020748D01*
X166794434Y-107200000D01*
X151200500Y-107200000D01*
X151200500Y-104510000D01*
X166964434Y-104510000D01*
X166984631Y-104689251D01*
X166984631Y-104689253D01*
X166984632Y-104689255D01*
X167044211Y-104859522D01*
X167044212Y-104859523D01*
X167140185Y-105012264D01*
X167267735Y-105139814D01*
X167267737Y-105139815D01*
X167267738Y-105139816D01*
X167420478Y-105235789D01*
X167590745Y-105295368D01*
X167770000Y-105315565D01*
X167949255Y-105295368D01*
X168119522Y-105235789D01*
X168272262Y-105139816D01*
X168399816Y-105012262D01*
X168495789Y-104859522D01*
X168555368Y-104689255D01*
X168575565Y-104510000D01*
X168555368Y-104330745D01*
X168495789Y-104160478D01*
X168399816Y-104007738D01*
X168399815Y-104007737D01*
X168399814Y-104007735D01*
X168272264Y-103880185D01*
X168119646Y-103784289D01*
X168119522Y-103784211D01*
X167949255Y-103724632D01*
X167949253Y-103724631D01*
X167949251Y-103724631D01*
X167770000Y-103704434D01*
X167590748Y-103724631D01*
X167590745Y-103724631D01*
X167590745Y-103724632D01*
X167420478Y-103784211D01*
X167420476Y-103784211D01*
X167420476Y-103784212D01*
X167267735Y-103880185D01*
X167140185Y-104007735D01*
X167044212Y-104160476D01*
X166984631Y-104330748D01*
X166964434Y-104510000D01*
X151200500Y-104510000D01*
X151200500Y-103058499D01*
X176740434Y-103058499D01*
X176760631Y-103237751D01*
X176760631Y-103237753D01*
X176760632Y-103237755D01*
X176820211Y-103408022D01*
X176820212Y-103408023D01*
X176916185Y-103560764D01*
X177043735Y-103688314D01*
X177043737Y-103688315D01*
X177043738Y-103688316D01*
X177196478Y-103784289D01*
X177366745Y-103843868D01*
X177546000Y-103864065D01*
X177725255Y-103843868D01*
X177895522Y-103784289D01*
X178048262Y-103688316D01*
X178175816Y-103560762D01*
X178271789Y-103408022D01*
X178331368Y-103237755D01*
X178351565Y-103058500D01*
X178331368Y-102879245D01*
X178328133Y-102870000D01*
X180042434Y-102870000D01*
X180062631Y-103049251D01*
X180062631Y-103049253D01*
X180062632Y-103049255D01*
X180122211Y-103219522D01*
X180122212Y-103219523D01*
X180218185Y-103372264D01*
X180345735Y-103499814D01*
X180345737Y-103499815D01*
X180345738Y-103499816D01*
X180498478Y-103595789D01*
X180668745Y-103655368D01*
X180848000Y-103675565D01*
X181027255Y-103655368D01*
X181197522Y-103595789D01*
X181350262Y-103499816D01*
X181477816Y-103372262D01*
X181573789Y-103219522D01*
X181633368Y-103049255D01*
X181653565Y-102870000D01*
X181633368Y-102690745D01*
X181573789Y-102520478D01*
X181477816Y-102367738D01*
X181477815Y-102367737D01*
X181477814Y-102367735D01*
X181350264Y-102240185D01*
X181257680Y-102182011D01*
X181197522Y-102144211D01*
X181027255Y-102084632D01*
X181027253Y-102084631D01*
X181027251Y-102084631D01*
X180848000Y-102064434D01*
X180668748Y-102084631D01*
X180668745Y-102084631D01*
X180668745Y-102084632D01*
X180498478Y-102144211D01*
X180498476Y-102144211D01*
X180498476Y-102144212D01*
X180345735Y-102240185D01*
X180218185Y-102367735D01*
X180179888Y-102428685D01*
X180122211Y-102520478D01*
X180118985Y-102529697D01*
X180062631Y-102690748D01*
X180042434Y-102870000D01*
X178328133Y-102870000D01*
X178271789Y-102708978D01*
X178175816Y-102556238D01*
X178175815Y-102556237D01*
X178175814Y-102556235D01*
X178048264Y-102428685D01*
X177951262Y-102367735D01*
X177895522Y-102332711D01*
X177725255Y-102273132D01*
X177725253Y-102273131D01*
X177725251Y-102273131D01*
X177545999Y-102252934D01*
X177366748Y-102273131D01*
X177366745Y-102273131D01*
X177366745Y-102273132D01*
X177196478Y-102332711D01*
X177196476Y-102332711D01*
X177196476Y-102332712D01*
X177043735Y-102428685D01*
X176916185Y-102556235D01*
X176820212Y-102708976D01*
X176760631Y-102879248D01*
X176740434Y-103058499D01*
X151200500Y-103058499D01*
X151200500Y-100839999D01*
X187904434Y-100839999D01*
X187924631Y-101019251D01*
X187984212Y-101189524D01*
X187998325Y-101211984D01*
X188017326Y-101279221D01*
X187998328Y-101343925D01*
X187994211Y-101350477D01*
X187934631Y-101520744D01*
X187914434Y-101700000D01*
X187934631Y-101879251D01*
X187934631Y-101879253D01*
X187934632Y-101879255D01*
X187994211Y-102049522D01*
X188016272Y-102084632D01*
X188090185Y-102202264D01*
X188217735Y-102329814D01*
X188217737Y-102329815D01*
X188217738Y-102329816D01*
X188370478Y-102425789D01*
X188540745Y-102485368D01*
X188720000Y-102505565D01*
X188899255Y-102485368D01*
X189069522Y-102425789D01*
X189222262Y-102329816D01*
X189349816Y-102202262D01*
X189445789Y-102049522D01*
X189505368Y-101879255D01*
X189525565Y-101700000D01*
X189505368Y-101520745D01*
X189445789Y-101350478D01*
X189431673Y-101328013D01*
X189412673Y-101260779D01*
X189431676Y-101196067D01*
X189435789Y-101189522D01*
X189495368Y-101019255D01*
X189501481Y-100965000D01*
X195694722Y-100965000D01*
X195713792Y-101182974D01*
X195758674Y-101350477D01*
X195770425Y-101394330D01*
X195862898Y-101592639D01*
X195988402Y-101771877D01*
X196143123Y-101926598D01*
X196289263Y-102028926D01*
X196332887Y-102083502D01*
X196340081Y-102153000D01*
X196308558Y-102215355D01*
X196248328Y-102250769D01*
X196218140Y-102254500D01*
X196068485Y-102254500D01*
X196021589Y-102261927D01*
X195974696Y-102269354D01*
X195974694Y-102269354D01*
X195974693Y-102269355D01*
X195861657Y-102326949D01*
X195771950Y-102416656D01*
X195714353Y-102529697D01*
X195699500Y-102623478D01*
X195699500Y-104386514D01*
X195699501Y-104386518D01*
X195714354Y-104480304D01*
X195714354Y-104480305D01*
X195714355Y-104480306D01*
X195771949Y-104593342D01*
X195861656Y-104683049D01*
X195861658Y-104683050D01*
X195974696Y-104740646D01*
X196068481Y-104755500D01*
X197831518Y-104755499D01*
X197925304Y-104740646D01*
X198038342Y-104683050D01*
X198128050Y-104593342D01*
X198185646Y-104480304D01*
X198200500Y-104386519D01*
X198200499Y-102623482D01*
X198185646Y-102529696D01*
X198134178Y-102428684D01*
X198128050Y-102416657D01*
X198038343Y-102326950D01*
X197925302Y-102269353D01*
X197831521Y-102254500D01*
X197681861Y-102254500D01*
X197614822Y-102234815D01*
X197569067Y-102182011D01*
X197559123Y-102112853D01*
X197588148Y-102049297D01*
X197610734Y-102028928D01*
X197756877Y-101926598D01*
X197911598Y-101771877D01*
X198037102Y-101592639D01*
X198129575Y-101394330D01*
X198186207Y-101182977D01*
X198205277Y-100965000D01*
X198186207Y-100747023D01*
X198129575Y-100535670D01*
X198037102Y-100337362D01*
X197911598Y-100158123D01*
X197756877Y-100003402D01*
X197577639Y-99877898D01*
X197426417Y-99807382D01*
X197373978Y-99761210D01*
X197354826Y-99694016D01*
X197375042Y-99627135D01*
X197426417Y-99582618D01*
X197429324Y-99581262D01*
X197577639Y-99512102D01*
X197756877Y-99386598D01*
X197911598Y-99231877D01*
X198037102Y-99052639D01*
X198129575Y-98854330D01*
X198186207Y-98642977D01*
X198205277Y-98425000D01*
X198186207Y-98207023D01*
X198129575Y-97995670D01*
X198037102Y-97797362D01*
X197911598Y-97618123D01*
X197756877Y-97463402D01*
X197577639Y-97337898D01*
X197468085Y-97286812D01*
X197379331Y-97245425D01*
X197167974Y-97188792D01*
X196949999Y-97169722D01*
X196732025Y-97188792D01*
X196520668Y-97245425D01*
X196322361Y-97337898D01*
X196143122Y-97463402D01*
X195988402Y-97618122D01*
X195862898Y-97797361D01*
X195770425Y-97995668D01*
X195713792Y-98207025D01*
X195694722Y-98424999D01*
X195713792Y-98642974D01*
X195770425Y-98854331D01*
X195797699Y-98912820D01*
X195862898Y-99052639D01*
X195988402Y-99231877D01*
X196143123Y-99386598D01*
X196322361Y-99512102D01*
X196421237Y-99558208D01*
X196473582Y-99582618D01*
X196526021Y-99628791D01*
X196545173Y-99695984D01*
X196524957Y-99762865D01*
X196473582Y-99807382D01*
X196322361Y-99877898D01*
X196143122Y-100003402D01*
X195988402Y-100158122D01*
X195862898Y-100337361D01*
X195770425Y-100535668D01*
X195713792Y-100747025D01*
X195694722Y-100965000D01*
X189501481Y-100965000D01*
X189515565Y-100840000D01*
X189495368Y-100660745D01*
X189435789Y-100490478D01*
X189339816Y-100337738D01*
X189339815Y-100337737D01*
X189339814Y-100337735D01*
X189212264Y-100210185D01*
X189129406Y-100158122D01*
X189059522Y-100114211D01*
X188889255Y-100054632D01*
X188889253Y-100054631D01*
X188889251Y-100054631D01*
X188710000Y-100034434D01*
X188530748Y-100054631D01*
X188530745Y-100054631D01*
X188530745Y-100054632D01*
X188360478Y-100114211D01*
X188360476Y-100114211D01*
X188360476Y-100114212D01*
X188207735Y-100210185D01*
X188080185Y-100337735D01*
X188012718Y-100445109D01*
X187984211Y-100490478D01*
X187968398Y-100535670D01*
X187924631Y-100660748D01*
X187904434Y-100839999D01*
X151200500Y-100839999D01*
X151200500Y-99303000D01*
X165246892Y-99303000D01*
X165265282Y-99501470D01*
X165319827Y-99693178D01*
X165337562Y-99728793D01*
X165408674Y-99871604D01*
X165425954Y-99894486D01*
X165528791Y-100030665D01*
X165676087Y-100164943D01*
X165676089Y-100164944D01*
X165676090Y-100164945D01*
X165845554Y-100269873D01*
X166031414Y-100341876D01*
X166227340Y-100378500D01*
X166227342Y-100378500D01*
X166426658Y-100378500D01*
X166426660Y-100378500D01*
X166622586Y-100341876D01*
X166808446Y-100269873D01*
X166977910Y-100164945D01*
X167125209Y-100030664D01*
X167145797Y-100003402D01*
X167228046Y-99894486D01*
X167284154Y-99852849D01*
X167353866Y-99848157D01*
X167415048Y-99881900D01*
X167425954Y-99894486D01*
X167528789Y-100030663D01*
X167676087Y-100164943D01*
X167676089Y-100164944D01*
X167676090Y-100164945D01*
X167845554Y-100269873D01*
X168031414Y-100341876D01*
X168227340Y-100378500D01*
X168227342Y-100378500D01*
X168426658Y-100378500D01*
X168426660Y-100378500D01*
X168622586Y-100341876D01*
X168808446Y-100269873D01*
X168977910Y-100164945D01*
X169098917Y-100054632D01*
X169125208Y-100030665D01*
X169145796Y-100003402D01*
X169245326Y-99871604D01*
X169321155Y-99719319D01*
X174658882Y-99719319D01*
X174679079Y-99898571D01*
X174679079Y-99898573D01*
X174679080Y-99898575D01*
X174738659Y-100068842D01*
X174738660Y-100068843D01*
X174834633Y-100221584D01*
X174962183Y-100349134D01*
X174962185Y-100349135D01*
X174962186Y-100349136D01*
X175114926Y-100445109D01*
X175285193Y-100504688D01*
X175464448Y-100524885D01*
X175643703Y-100504688D01*
X175813970Y-100445109D01*
X175966710Y-100349136D01*
X176094264Y-100221582D01*
X176190237Y-100068842D01*
X176249816Y-99898575D01*
X176270013Y-99719320D01*
X176249816Y-99540065D01*
X176190237Y-99369798D01*
X176094264Y-99217058D01*
X176094263Y-99217057D01*
X176094262Y-99217055D01*
X175966712Y-99089505D01*
X175904315Y-99050298D01*
X175813970Y-98993531D01*
X175643703Y-98933952D01*
X175643701Y-98933951D01*
X175643699Y-98933951D01*
X175464447Y-98913754D01*
X175285196Y-98933951D01*
X175285193Y-98933951D01*
X175285193Y-98933952D01*
X175114926Y-98993531D01*
X175114924Y-98993531D01*
X175114924Y-98993532D01*
X174962183Y-99089505D01*
X174834633Y-99217055D01*
X174738660Y-99369796D01*
X174738659Y-99369798D01*
X174692585Y-99501469D01*
X174679079Y-99540068D01*
X174658882Y-99719319D01*
X169321155Y-99719319D01*
X169334171Y-99693180D01*
X169337843Y-99680277D01*
X169388717Y-99501470D01*
X169399361Y-99386598D01*
X169407108Y-99303000D01*
X169388717Y-99104531D01*
X169388717Y-99104529D01*
X169334172Y-98912821D01*
X169304475Y-98853183D01*
X169245326Y-98734396D01*
X169134145Y-98587169D01*
X169125208Y-98575334D01*
X168977912Y-98441056D01*
X168808447Y-98336127D01*
X168715516Y-98300125D01*
X168622586Y-98264124D01*
X168426660Y-98227500D01*
X168227340Y-98227500D01*
X168031414Y-98264124D01*
X167845552Y-98336127D01*
X167676087Y-98441056D01*
X167528791Y-98575334D01*
X167425954Y-98711513D01*
X167369845Y-98753149D01*
X167300133Y-98757840D01*
X167238951Y-98724098D01*
X167228046Y-98711513D01*
X167125208Y-98575334D01*
X166977912Y-98441056D01*
X166808447Y-98336127D01*
X166715516Y-98300125D01*
X166622586Y-98264124D01*
X166426660Y-98227500D01*
X166227340Y-98227500D01*
X166031414Y-98264124D01*
X165845552Y-98336127D01*
X165676087Y-98441056D01*
X165528791Y-98575334D01*
X165408674Y-98734396D01*
X165319827Y-98912821D01*
X165265282Y-99104529D01*
X165246892Y-99303000D01*
X151200500Y-99303000D01*
X151200500Y-98012600D01*
X171919077Y-98012600D01*
X171939274Y-98191852D01*
X171939274Y-98191854D01*
X171939275Y-98191856D01*
X171998854Y-98362123D01*
X171998855Y-98362124D01*
X172094828Y-98514865D01*
X172222378Y-98642415D01*
X172222380Y-98642416D01*
X172222381Y-98642417D01*
X172375121Y-98738390D01*
X172545388Y-98797969D01*
X172724643Y-98818166D01*
X172903898Y-98797969D01*
X173074165Y-98738390D01*
X173163739Y-98682106D01*
X173229711Y-98663101D01*
X176203976Y-98663101D01*
X176225185Y-98665442D01*
X176227775Y-98665360D01*
X176227777Y-98665361D01*
X176297743Y-98663161D01*
X176301638Y-98663101D01*
X176326506Y-98663101D01*
X176330406Y-98663101D01*
X176334775Y-98662548D01*
X176346420Y-98661631D01*
X176392050Y-98660198D01*
X176412430Y-98654276D01*
X176431470Y-98650333D01*
X176452539Y-98647672D01*
X176495001Y-98630859D01*
X176506038Y-98627081D01*
X176549879Y-98614345D01*
X176568151Y-98603537D01*
X176585617Y-98594981D01*
X176605352Y-98587169D01*
X176642297Y-98560326D01*
X176652029Y-98553933D01*
X176691346Y-98530682D01*
X176706355Y-98515672D01*
X176721144Y-98503040D01*
X176738318Y-98490564D01*
X176767427Y-98455375D01*
X176775271Y-98446755D01*
X181399513Y-93822513D01*
X181416162Y-93809176D01*
X181417936Y-93807286D01*
X181417940Y-93807284D01*
X181465897Y-93756213D01*
X181468515Y-93753511D01*
X181488911Y-93733117D01*
X181491610Y-93729636D01*
X181499184Y-93720767D01*
X181530448Y-93687475D01*
X181540672Y-93668875D01*
X181551351Y-93652618D01*
X181564363Y-93635845D01*
X181582498Y-93593934D01*
X181587633Y-93583456D01*
X181612354Y-93538490D01*
X181623857Y-93511744D01*
X181629813Y-93502264D01*
X181629816Y-93502262D01*
X181725789Y-93349522D01*
X181785368Y-93179255D01*
X181805565Y-93000000D01*
X181785368Y-92820745D01*
X181725789Y-92650478D01*
X181629816Y-92497738D01*
X181629815Y-92497737D01*
X181629814Y-92497735D01*
X181502264Y-92370185D01*
X181439867Y-92330979D01*
X181349522Y-92274211D01*
X181179255Y-92214632D01*
X181179253Y-92214631D01*
X181179251Y-92214631D01*
X181000000Y-92194434D01*
X180820748Y-92214631D01*
X180820745Y-92214631D01*
X180820745Y-92214632D01*
X180650478Y-92274211D01*
X180650476Y-92274211D01*
X180650476Y-92274212D01*
X180497735Y-92370185D01*
X180370185Y-92497735D01*
X180274212Y-92650476D01*
X180214631Y-92820748D01*
X180194434Y-93000000D01*
X180206755Y-93109354D01*
X180194700Y-93178176D01*
X180171216Y-93210918D01*
X176056354Y-97325782D01*
X175995031Y-97359267D01*
X175968673Y-97362101D01*
X173229711Y-97362101D01*
X173163739Y-97343095D01*
X173155466Y-97337897D01*
X173074165Y-97286812D01*
X172903898Y-97227233D01*
X172903896Y-97227232D01*
X172903894Y-97227232D01*
X172724643Y-97207035D01*
X172545391Y-97227232D01*
X172545388Y-97227232D01*
X172545388Y-97227233D01*
X172375121Y-97286812D01*
X172375119Y-97286812D01*
X172375119Y-97286813D01*
X172222378Y-97382786D01*
X172094828Y-97510336D01*
X171998855Y-97663077D01*
X171939274Y-97833349D01*
X171919077Y-98012600D01*
X151200500Y-98012600D01*
X151200500Y-89799999D01*
X173394434Y-89799999D01*
X173414631Y-89979251D01*
X173414631Y-89979253D01*
X173414632Y-89979255D01*
X173474211Y-90149522D01*
X173474212Y-90149523D01*
X173570185Y-90302264D01*
X173697735Y-90429814D01*
X173697737Y-90429815D01*
X173697738Y-90429816D01*
X173850478Y-90525789D01*
X174020745Y-90585368D01*
X174200000Y-90605565D01*
X174379255Y-90585368D01*
X174549522Y-90525789D01*
X174702262Y-90429816D01*
X174829816Y-90302262D01*
X174925789Y-90149522D01*
X174985368Y-89979255D01*
X175005565Y-89800000D01*
X174985368Y-89620745D01*
X174925789Y-89450478D01*
X174894071Y-89399999D01*
X185794434Y-89399999D01*
X185814631Y-89579251D01*
X185814631Y-89579253D01*
X185814632Y-89579255D01*
X185874211Y-89749522D01*
X185925290Y-89830813D01*
X185970185Y-89902264D01*
X186097735Y-90029814D01*
X186097737Y-90029815D01*
X186097738Y-90029816D01*
X186250478Y-90125789D01*
X186420745Y-90185368D01*
X186600000Y-90205565D01*
X186779255Y-90185368D01*
X186949522Y-90125789D01*
X187102262Y-90029816D01*
X187170260Y-89961817D01*
X187231581Y-89928334D01*
X187257940Y-89925500D01*
X189988890Y-89925500D01*
X189993123Y-89925571D01*
X190054245Y-89927660D01*
X190054245Y-89927659D01*
X190054246Y-89927660D01*
X190068706Y-89924135D01*
X190092070Y-89918441D01*
X190104532Y-89916073D01*
X190143111Y-89910771D01*
X190158392Y-89904132D01*
X190178421Y-89897397D01*
X190194594Y-89893457D01*
X190228531Y-89874374D01*
X190239879Y-89868737D01*
X190275609Y-89853219D01*
X190288521Y-89842713D01*
X190306008Y-89830813D01*
X190312291Y-89827279D01*
X190320512Y-89822658D01*
X190348043Y-89795125D01*
X190357458Y-89786628D01*
X190387665Y-89762054D01*
X190397269Y-89748447D01*
X190410881Y-89732287D01*
X191501698Y-88641470D01*
X191563019Y-88607987D01*
X191591335Y-88606541D01*
X191599998Y-88605564D01*
X191600000Y-88605565D01*
X191779255Y-88585368D01*
X191949522Y-88525789D01*
X192102262Y-88429816D01*
X192229816Y-88302262D01*
X192325789Y-88149522D01*
X192385368Y-87979255D01*
X192405565Y-87800000D01*
X192385368Y-87620745D01*
X192325789Y-87450478D01*
X192229816Y-87297738D01*
X192229815Y-87297737D01*
X192229814Y-87297735D01*
X192102264Y-87170185D01*
X191997776Y-87104531D01*
X191949522Y-87074211D01*
X191779255Y-87014632D01*
X191779253Y-87014631D01*
X191779251Y-87014631D01*
X191600000Y-86994434D01*
X191420748Y-87014631D01*
X191420745Y-87014631D01*
X191420745Y-87014632D01*
X191250478Y-87074211D01*
X191250476Y-87074211D01*
X191250476Y-87074212D01*
X191097735Y-87170185D01*
X190970185Y-87297735D01*
X190922132Y-87374212D01*
X190874211Y-87450478D01*
X190814632Y-87620745D01*
X190814631Y-87620748D01*
X190792870Y-87813884D01*
X190791098Y-87813684D01*
X190782008Y-87865567D01*
X190758527Y-87898302D01*
X189818650Y-88838181D01*
X189757327Y-88871666D01*
X189730969Y-88874500D01*
X187257940Y-88874500D01*
X187190901Y-88854815D01*
X187170263Y-88838185D01*
X187102262Y-88770184D01*
X186949522Y-88674211D01*
X186779255Y-88614632D01*
X186779253Y-88614631D01*
X186779251Y-88614631D01*
X186599999Y-88594434D01*
X186420748Y-88614631D01*
X186420745Y-88614631D01*
X186420745Y-88614632D01*
X186250478Y-88674211D01*
X186250476Y-88674211D01*
X186250476Y-88674212D01*
X186097735Y-88770185D01*
X185970185Y-88897735D01*
X185874212Y-89050476D01*
X185874211Y-89050478D01*
X185865906Y-89074212D01*
X185814631Y-89220748D01*
X185794434Y-89399999D01*
X174894071Y-89399999D01*
X174829816Y-89297738D01*
X174829815Y-89297737D01*
X174829814Y-89297735D01*
X174702264Y-89170185D01*
X174639867Y-89130979D01*
X174549522Y-89074211D01*
X174379255Y-89014632D01*
X174379253Y-89014631D01*
X174379251Y-89014631D01*
X174199999Y-88994434D01*
X174020748Y-89014631D01*
X174020745Y-89014631D01*
X174020745Y-89014632D01*
X173850478Y-89074211D01*
X173850476Y-89074211D01*
X173850476Y-89074212D01*
X173697735Y-89170185D01*
X173570185Y-89297735D01*
X173474212Y-89450476D01*
X173414631Y-89620748D01*
X173394434Y-89799999D01*
X151200500Y-89799999D01*
X151200500Y-88009514D01*
X160251500Y-88009514D01*
X160251501Y-88009518D01*
X160266354Y-88103304D01*
X160266354Y-88103305D01*
X160266355Y-88103306D01*
X160323949Y-88216342D01*
X160413656Y-88306049D01*
X160413658Y-88306050D01*
X160526696Y-88363646D01*
X160620481Y-88378500D01*
X162033518Y-88378499D01*
X162127304Y-88363646D01*
X162240342Y-88306050D01*
X162330050Y-88216342D01*
X162383851Y-88110751D01*
X162431825Y-88059955D01*
X162499646Y-88043160D01*
X162565781Y-88065697D01*
X162577865Y-88075401D01*
X162676090Y-88164945D01*
X162845554Y-88269873D01*
X163031414Y-88341876D01*
X163227340Y-88378500D01*
X163227342Y-88378500D01*
X163426658Y-88378500D01*
X163426660Y-88378500D01*
X163622586Y-88341876D01*
X163808446Y-88269873D01*
X163977910Y-88164945D01*
X164049152Y-88099999D01*
X174194434Y-88099999D01*
X174214631Y-88279251D01*
X174214631Y-88279253D01*
X174214632Y-88279255D01*
X174274211Y-88449522D01*
X174274212Y-88449523D01*
X174370185Y-88602264D01*
X174497735Y-88729814D01*
X174497737Y-88729815D01*
X174497738Y-88729816D01*
X174650478Y-88825789D01*
X174820745Y-88885368D01*
X175000000Y-88905565D01*
X175179255Y-88885368D01*
X175349522Y-88825789D01*
X175502262Y-88729816D01*
X175629816Y-88602262D01*
X175725789Y-88449522D01*
X175785368Y-88279255D01*
X175805565Y-88100000D01*
X175785368Y-87920745D01*
X175725789Y-87750478D01*
X175629816Y-87597738D01*
X175629815Y-87597737D01*
X175629814Y-87597735D01*
X175502264Y-87470185D01*
X175439867Y-87430979D01*
X175349522Y-87374211D01*
X175179255Y-87314632D01*
X175179253Y-87314631D01*
X175179251Y-87314631D01*
X175000000Y-87294434D01*
X174820748Y-87314631D01*
X174820745Y-87314631D01*
X174820745Y-87314632D01*
X174650478Y-87374211D01*
X174650476Y-87374211D01*
X174650476Y-87374212D01*
X174497735Y-87470185D01*
X174370185Y-87597735D01*
X174274212Y-87750476D01*
X174214631Y-87920748D01*
X174194434Y-88099999D01*
X164049152Y-88099999D01*
X164125209Y-88030664D01*
X164245326Y-87871604D01*
X164334171Y-87693180D01*
X164354780Y-87620748D01*
X164388717Y-87501470D01*
X164400509Y-87374211D01*
X164407108Y-87303000D01*
X164388717Y-87104531D01*
X164388717Y-87104529D01*
X164334172Y-86912821D01*
X164251500Y-86746796D01*
X164245326Y-86734396D01*
X164141175Y-86596478D01*
X164125208Y-86575334D01*
X163977912Y-86441056D01*
X163808447Y-86336127D01*
X163715060Y-86299949D01*
X163622586Y-86264124D01*
X163426660Y-86227500D01*
X163227340Y-86227500D01*
X163031413Y-86264124D01*
X163031414Y-86264124D01*
X162845552Y-86336127D01*
X162676090Y-86441054D01*
X162577873Y-86530591D01*
X162515068Y-86561207D01*
X162445681Y-86553009D01*
X162391741Y-86508599D01*
X162383853Y-86495253D01*
X162356238Y-86441054D01*
X162330050Y-86389657D01*
X162240343Y-86299950D01*
X162127302Y-86242353D01*
X162033521Y-86227500D01*
X160620485Y-86227500D01*
X160573589Y-86234927D01*
X160526696Y-86242354D01*
X160526694Y-86242354D01*
X160526693Y-86242355D01*
X160413657Y-86299949D01*
X160323950Y-86389656D01*
X160266353Y-86502697D01*
X160251500Y-86596478D01*
X160251500Y-88009514D01*
X151200500Y-88009514D01*
X151200500Y-81799999D01*
X192394434Y-81799999D01*
X192414631Y-81979251D01*
X192414631Y-81979253D01*
X192414632Y-81979255D01*
X192474211Y-82149522D01*
X192474212Y-82149523D01*
X192570185Y-82302264D01*
X192697735Y-82429814D01*
X192697737Y-82429815D01*
X192697738Y-82429816D01*
X192850478Y-82525789D01*
X193020745Y-82585368D01*
X193200000Y-82605565D01*
X193379255Y-82585368D01*
X193549522Y-82525789D01*
X193702262Y-82429816D01*
X193829816Y-82302262D01*
X193925789Y-82149522D01*
X193985368Y-81979255D01*
X194005565Y-81800000D01*
X193985368Y-81620745D01*
X193925789Y-81450478D01*
X193829816Y-81297738D01*
X193829815Y-81297737D01*
X193829814Y-81297735D01*
X193702264Y-81170185D01*
X193639867Y-81130978D01*
X193549522Y-81074211D01*
X193379255Y-81014632D01*
X193379253Y-81014631D01*
X193379251Y-81014631D01*
X193200000Y-80994434D01*
X193020748Y-81014631D01*
X193020745Y-81014631D01*
X193020745Y-81014632D01*
X192850478Y-81074211D01*
X192850476Y-81074211D01*
X192850476Y-81074212D01*
X192697735Y-81170185D01*
X192570185Y-81297735D01*
X192474212Y-81450476D01*
X192414631Y-81620748D01*
X192394434Y-81799999D01*
X151200500Y-81799999D01*
X151200500Y-78617999D01*
X173191434Y-78617999D01*
X173211631Y-78797251D01*
X173211631Y-78797253D01*
X173211632Y-78797255D01*
X173271211Y-78967522D01*
X173271212Y-78967523D01*
X173367185Y-79120264D01*
X173494735Y-79247814D01*
X173494737Y-79247815D01*
X173494738Y-79247816D01*
X173647478Y-79343789D01*
X173817745Y-79403368D01*
X173997000Y-79423565D01*
X174176255Y-79403368D01*
X174346522Y-79343789D01*
X174499262Y-79247816D01*
X174626816Y-79120262D01*
X174722789Y-78967522D01*
X174782368Y-78797255D01*
X174802565Y-78618000D01*
X174782368Y-78438745D01*
X174722789Y-78268478D01*
X174626816Y-78115738D01*
X174626815Y-78115737D01*
X174626814Y-78115735D01*
X174499264Y-77988185D01*
X174436867Y-77948979D01*
X174346522Y-77892211D01*
X174176255Y-77832632D01*
X174176253Y-77832631D01*
X174176251Y-77832631D01*
X173997000Y-77812434D01*
X173817748Y-77832631D01*
X173817745Y-77832631D01*
X173817745Y-77832632D01*
X173647478Y-77892211D01*
X173647476Y-77892211D01*
X173647476Y-77892212D01*
X173494735Y-77988185D01*
X173367185Y-78115735D01*
X173295505Y-78229814D01*
X173271211Y-78268478D01*
X173223242Y-78405565D01*
X173211631Y-78438748D01*
X173191434Y-78617999D01*
X151200500Y-78617999D01*
X151200500Y-77600000D01*
X191994434Y-77600000D01*
X192014631Y-77779251D01*
X192014631Y-77779253D01*
X192014632Y-77779255D01*
X192074211Y-77949522D01*
X192074212Y-77949523D01*
X192170185Y-78102264D01*
X192297735Y-78229814D01*
X192297737Y-78229815D01*
X192297738Y-78229816D01*
X192450478Y-78325789D01*
X192620745Y-78385368D01*
X192800000Y-78405565D01*
X192979255Y-78385368D01*
X193149522Y-78325789D01*
X193302262Y-78229816D01*
X193429816Y-78102262D01*
X193525789Y-77949522D01*
X193585368Y-77779255D01*
X193605565Y-77600000D01*
X193585368Y-77420745D01*
X193525789Y-77250478D01*
X193429816Y-77097738D01*
X193429815Y-77097737D01*
X193429814Y-77097735D01*
X193302264Y-76970185D01*
X193239867Y-76930979D01*
X193149522Y-76874211D01*
X192979255Y-76814632D01*
X192979253Y-76814631D01*
X192979251Y-76814631D01*
X192800000Y-76794434D01*
X192620748Y-76814631D01*
X192620745Y-76814631D01*
X192620745Y-76814632D01*
X192450478Y-76874211D01*
X192450476Y-76874211D01*
X192450476Y-76874212D01*
X192297735Y-76970185D01*
X192170185Y-77097735D01*
X192074212Y-77250476D01*
X192014631Y-77420748D01*
X191994434Y-77600000D01*
X151200500Y-77600000D01*
X151200500Y-75692000D01*
X179026434Y-75692000D01*
X179046631Y-75871251D01*
X179046631Y-75871253D01*
X179046632Y-75871255D01*
X179106211Y-76041522D01*
X179106212Y-76041523D01*
X179202185Y-76194264D01*
X179329735Y-76321814D01*
X179329737Y-76321815D01*
X179329738Y-76321816D01*
X179482478Y-76417789D01*
X179652745Y-76477368D01*
X179832000Y-76497565D01*
X180011255Y-76477368D01*
X180181522Y-76417789D01*
X180334262Y-76321816D01*
X180379320Y-76276757D01*
X180440639Y-76243274D01*
X180510330Y-76248257D01*
X180554680Y-76276759D01*
X180599735Y-76321814D01*
X180599737Y-76321815D01*
X180599738Y-76321816D01*
X180752478Y-76417789D01*
X180922745Y-76477368D01*
X181057186Y-76492515D01*
X181101999Y-76497565D01*
X181101999Y-76497564D01*
X181102000Y-76497565D01*
X181281255Y-76477368D01*
X181451522Y-76417789D01*
X181604262Y-76321816D01*
X181731816Y-76194262D01*
X181827789Y-76041522D01*
X181887368Y-75871255D01*
X181907565Y-75692000D01*
X181887368Y-75512745D01*
X181827789Y-75342478D01*
X181731816Y-75189738D01*
X181731815Y-75189736D01*
X181686760Y-75144682D01*
X181653274Y-75083359D01*
X181658258Y-75013667D01*
X181686760Y-74969318D01*
X181731815Y-74924263D01*
X181731816Y-74924262D01*
X181827789Y-74771522D01*
X181887368Y-74601255D01*
X181907565Y-74422000D01*
X181887368Y-74242745D01*
X181827789Y-74072478D01*
X181782248Y-74000000D01*
X182194434Y-74000000D01*
X182214631Y-74179251D01*
X182214631Y-74179253D01*
X182214632Y-74179255D01*
X182274211Y-74349522D01*
X182274212Y-74349523D01*
X182370185Y-74502264D01*
X182497735Y-74629814D01*
X182497737Y-74629815D01*
X182497738Y-74629816D01*
X182650478Y-74725789D01*
X182820745Y-74785368D01*
X183000000Y-74805565D01*
X183179255Y-74785368D01*
X183349522Y-74725789D01*
X183502262Y-74629816D01*
X183629816Y-74502262D01*
X183725789Y-74349522D01*
X183785368Y-74179255D01*
X183805565Y-74000000D01*
X183794298Y-73900000D01*
X184394434Y-73900000D01*
X184414631Y-74079251D01*
X184414631Y-74079253D01*
X184414632Y-74079255D01*
X184474211Y-74249522D01*
X184474212Y-74249523D01*
X184570185Y-74402264D01*
X184697735Y-74529814D01*
X184697737Y-74529815D01*
X184697738Y-74529816D01*
X184850478Y-74625789D01*
X185020745Y-74685368D01*
X185200000Y-74705565D01*
X185379255Y-74685368D01*
X185549522Y-74625789D01*
X185702262Y-74529816D01*
X185829816Y-74402262D01*
X185925789Y-74249522D01*
X185985368Y-74079255D01*
X186005565Y-73900000D01*
X185985368Y-73720745D01*
X185925789Y-73550478D01*
X185829816Y-73397738D01*
X185829815Y-73397737D01*
X185829814Y-73397735D01*
X185702264Y-73270185D01*
X185639867Y-73230979D01*
X185549522Y-73174211D01*
X185379255Y-73114632D01*
X185379253Y-73114631D01*
X185379251Y-73114631D01*
X185200000Y-73094434D01*
X185020748Y-73114631D01*
X185020745Y-73114631D01*
X185020745Y-73114632D01*
X184850478Y-73174211D01*
X184850476Y-73174211D01*
X184850476Y-73174212D01*
X184697735Y-73270185D01*
X184570185Y-73397735D01*
X184474212Y-73550476D01*
X184474211Y-73550478D01*
X184414632Y-73720745D01*
X184414631Y-73720748D01*
X184394434Y-73900000D01*
X183794298Y-73900000D01*
X183785368Y-73820745D01*
X183725789Y-73650478D01*
X183629816Y-73497738D01*
X183629815Y-73497737D01*
X183629814Y-73497735D01*
X183502264Y-73370185D01*
X183439867Y-73330978D01*
X183349522Y-73274211D01*
X183179255Y-73214632D01*
X183179253Y-73214631D01*
X183179251Y-73214631D01*
X182999999Y-73194434D01*
X182820748Y-73214631D01*
X182820745Y-73214631D01*
X182820745Y-73214632D01*
X182650478Y-73274211D01*
X182650476Y-73274211D01*
X182650476Y-73274212D01*
X182497735Y-73370185D01*
X182370185Y-73497735D01*
X182282911Y-73636632D01*
X182274211Y-73650478D01*
X182224626Y-73792184D01*
X182214631Y-73820748D01*
X182194434Y-74000000D01*
X181782248Y-74000000D01*
X181731816Y-73919738D01*
X181731815Y-73919737D01*
X181731814Y-73919735D01*
X181604264Y-73792185D01*
X181490572Y-73720748D01*
X181451522Y-73696211D01*
X181281255Y-73636632D01*
X181281253Y-73636631D01*
X181281251Y-73636631D01*
X181102000Y-73616434D01*
X180922748Y-73636631D01*
X180922745Y-73636631D01*
X180922745Y-73636632D01*
X180752478Y-73696211D01*
X180752476Y-73696211D01*
X180752476Y-73696212D01*
X180599735Y-73792185D01*
X180472185Y-73919735D01*
X180376212Y-74072476D01*
X180316631Y-74242748D01*
X180296434Y-74422000D01*
X180316631Y-74601251D01*
X180316631Y-74601253D01*
X180316632Y-74601255D01*
X180376211Y-74771522D01*
X180376212Y-74771523D01*
X180416318Y-74835352D01*
X180435318Y-74902589D01*
X180414950Y-74969424D01*
X180361682Y-75014638D01*
X180292426Y-75023875D01*
X180245352Y-75006318D01*
X180186635Y-74969424D01*
X180181522Y-74966211D01*
X180011255Y-74906632D01*
X180011253Y-74906631D01*
X180011251Y-74906631D01*
X179832000Y-74886434D01*
X179652748Y-74906631D01*
X179652745Y-74906631D01*
X179652745Y-74906632D01*
X179482478Y-74966211D01*
X179482476Y-74966211D01*
X179482476Y-74966212D01*
X179329735Y-75062185D01*
X179202185Y-75189735D01*
X179106212Y-75342476D01*
X179046631Y-75512748D01*
X179026434Y-75692000D01*
X151200500Y-75692000D01*
X151200500Y-71899999D01*
X184394434Y-71899999D01*
X184414631Y-72079251D01*
X184414631Y-72079253D01*
X184414632Y-72079255D01*
X184474211Y-72249522D01*
X184474212Y-72249523D01*
X184570185Y-72402264D01*
X184697735Y-72529814D01*
X184697737Y-72529815D01*
X184697738Y-72529816D01*
X184850478Y-72625789D01*
X185020745Y-72685368D01*
X185200000Y-72705565D01*
X185379255Y-72685368D01*
X185549522Y-72625789D01*
X185702262Y-72529816D01*
X185829816Y-72402262D01*
X185925789Y-72249522D01*
X185985368Y-72079255D01*
X186005565Y-71900000D01*
X185985368Y-71720745D01*
X185925789Y-71550478D01*
X185829816Y-71397738D01*
X185829815Y-71397737D01*
X185829814Y-71397735D01*
X185702264Y-71270185D01*
X185639867Y-71230979D01*
X185549522Y-71174211D01*
X185379255Y-71114632D01*
X185379253Y-71114631D01*
X185379251Y-71114631D01*
X185200000Y-71094434D01*
X185020748Y-71114631D01*
X185020745Y-71114631D01*
X185020745Y-71114632D01*
X184850478Y-71174211D01*
X184850476Y-71174211D01*
X184850476Y-71174212D01*
X184697735Y-71270185D01*
X184570185Y-71397735D01*
X184474212Y-71550476D01*
X184414631Y-71720748D01*
X184394434Y-71899999D01*
X151200500Y-71899999D01*
X151200500Y-62000000D01*
X152394559Y-62000000D01*
X152414310Y-62376871D01*
X152414815Y-62380064D01*
X152414817Y-62380076D01*
X152472838Y-62746404D01*
X152472840Y-62746417D01*
X152473347Y-62749613D01*
X152474184Y-62752737D01*
X152474186Y-62752746D01*
X152557681Y-63064353D01*
X152571022Y-63114143D01*
X152572179Y-63117158D01*
X152572182Y-63117166D01*
X152687847Y-63418482D01*
X152706266Y-63466465D01*
X152707735Y-63469348D01*
X152707739Y-63469357D01*
X152876122Y-63799827D01*
X152877597Y-63802721D01*
X153083137Y-64119225D01*
X153320635Y-64412511D01*
X153587489Y-64679365D01*
X153880775Y-64916863D01*
X154197279Y-65122403D01*
X154200172Y-65123877D01*
X154470464Y-65261598D01*
X154533535Y-65293734D01*
X154885857Y-65428978D01*
X155250387Y-65526653D01*
X155623129Y-65585690D01*
X156000000Y-65605441D01*
X156376871Y-65585690D01*
X156749613Y-65526653D01*
X157114143Y-65428978D01*
X157466465Y-65293734D01*
X157686709Y-65181514D01*
X166045500Y-65181514D01*
X166045501Y-65181518D01*
X166060354Y-65275304D01*
X166060354Y-65275305D01*
X166060355Y-65275306D01*
X166117949Y-65388342D01*
X166207656Y-65478049D01*
X166207658Y-65478050D01*
X166320696Y-65535646D01*
X166414481Y-65550500D01*
X168177518Y-65550499D01*
X168271304Y-65535646D01*
X168384342Y-65478050D01*
X168474050Y-65388342D01*
X168531646Y-65275304D01*
X168546500Y-65181519D01*
X168546499Y-65031858D01*
X168566183Y-64964822D01*
X168618987Y-64919067D01*
X168688145Y-64909123D01*
X168751701Y-64938148D01*
X168772071Y-64960734D01*
X168874402Y-65106877D01*
X169029123Y-65261598D01*
X169208361Y-65387102D01*
X169383713Y-65468870D01*
X169436151Y-65515041D01*
X169455303Y-65582235D01*
X169435087Y-65649116D01*
X169418989Y-65668932D01*
X169296183Y-65791738D01*
X169200212Y-65944476D01*
X169140631Y-66114748D01*
X169120434Y-66294000D01*
X169140631Y-66473251D01*
X169140631Y-66473253D01*
X169140632Y-66473255D01*
X169200211Y-66643522D01*
X169200212Y-66643523D01*
X169258336Y-66736027D01*
X169277336Y-66803264D01*
X169258336Y-66867970D01*
X169200213Y-66960473D01*
X169140631Y-67130748D01*
X169120434Y-67309999D01*
X169140631Y-67489251D01*
X169140631Y-67489253D01*
X169140632Y-67489255D01*
X169200211Y-67659522D01*
X169200212Y-67659523D01*
X169296185Y-67812264D01*
X169423735Y-67939814D01*
X169423737Y-67939815D01*
X169423738Y-67939816D01*
X169576478Y-68035789D01*
X169746745Y-68095368D01*
X169926000Y-68115565D01*
X170105255Y-68095368D01*
X170275522Y-68035789D01*
X170428262Y-67939816D01*
X170555816Y-67812262D01*
X170651789Y-67659522D01*
X170711368Y-67489255D01*
X170731565Y-67310000D01*
X170711368Y-67130745D01*
X170651789Y-66960478D01*
X170593662Y-66867970D01*
X170574663Y-66800736D01*
X170593662Y-66736029D01*
X170651789Y-66643522D01*
X170711368Y-66473255D01*
X170731565Y-66294000D01*
X170711368Y-66114745D01*
X170651789Y-65944478D01*
X170555816Y-65791738D01*
X170555815Y-65791737D01*
X170555814Y-65791735D01*
X170428261Y-65664182D01*
X170383009Y-65635748D01*
X170336718Y-65583414D01*
X170326070Y-65514360D01*
X170354445Y-65450512D01*
X170396571Y-65418375D01*
X170463639Y-65387102D01*
X170642877Y-65261598D01*
X170797598Y-65106877D01*
X170923102Y-64927639D01*
X170993617Y-64776417D01*
X171039790Y-64723978D01*
X171106984Y-64704826D01*
X171173865Y-64725042D01*
X171218382Y-64776417D01*
X171288898Y-64927639D01*
X171414402Y-65106877D01*
X171569123Y-65261598D01*
X171748361Y-65387102D01*
X171946670Y-65479575D01*
X172158023Y-65536207D01*
X172376000Y-65555277D01*
X172593977Y-65536207D01*
X172805330Y-65479575D01*
X173003639Y-65387102D01*
X173182877Y-65261598D01*
X173337598Y-65106877D01*
X173463102Y-64927639D01*
X173533617Y-64776417D01*
X173579790Y-64723978D01*
X173646984Y-64704826D01*
X173713865Y-64725042D01*
X173758382Y-64776417D01*
X173828898Y-64927639D01*
X173954402Y-65106877D01*
X174109123Y-65261598D01*
X174288361Y-65387102D01*
X174486670Y-65479575D01*
X174698023Y-65536207D01*
X174916000Y-65555277D01*
X175133977Y-65536207D01*
X175345330Y-65479575D01*
X175543639Y-65387102D01*
X175722877Y-65261598D01*
X175877598Y-65106877D01*
X176003102Y-64927639D01*
X176095575Y-64729330D01*
X176152207Y-64517977D01*
X176171277Y-64300000D01*
X176152207Y-64082023D01*
X176095575Y-63870670D01*
X176003102Y-63672362D01*
X175877598Y-63493123D01*
X175722877Y-63338402D01*
X175543639Y-63212898D01*
X175452205Y-63170261D01*
X175345331Y-63120425D01*
X175133974Y-63063792D01*
X174916000Y-63044722D01*
X174698025Y-63063792D01*
X174486668Y-63120425D01*
X174288361Y-63212898D01*
X174109122Y-63338402D01*
X173954402Y-63493122D01*
X173828898Y-63672361D01*
X173758382Y-63823583D01*
X173712209Y-63876022D01*
X173645016Y-63895174D01*
X173578135Y-63874958D01*
X173533618Y-63823583D01*
X173468010Y-63682888D01*
X173463102Y-63672362D01*
X173337598Y-63493123D01*
X173182877Y-63338402D01*
X173003639Y-63212898D01*
X172912205Y-63170261D01*
X172805331Y-63120425D01*
X172593974Y-63063792D01*
X172376000Y-63044722D01*
X172158025Y-63063792D01*
X171946668Y-63120425D01*
X171748361Y-63212898D01*
X171569122Y-63338402D01*
X171414402Y-63493122D01*
X171288898Y-63672361D01*
X171218382Y-63823583D01*
X171172209Y-63876022D01*
X171105016Y-63895174D01*
X171038135Y-63874958D01*
X170993618Y-63823583D01*
X170928010Y-63682888D01*
X170923102Y-63672362D01*
X170797598Y-63493123D01*
X170642877Y-63338402D01*
X170463639Y-63212898D01*
X170372205Y-63170261D01*
X170265331Y-63120425D01*
X170053974Y-63063792D01*
X169836000Y-63044722D01*
X169618025Y-63063792D01*
X169406668Y-63120425D01*
X169208361Y-63212898D01*
X169029122Y-63338402D01*
X168874402Y-63493122D01*
X168772074Y-63639263D01*
X168717497Y-63682888D01*
X168647999Y-63690082D01*
X168585644Y-63658559D01*
X168550230Y-63598329D01*
X168546499Y-63568140D01*
X168546499Y-63418485D01*
X168546499Y-63418482D01*
X168531646Y-63324696D01*
X168474682Y-63212898D01*
X168474050Y-63211657D01*
X168384343Y-63121950D01*
X168271302Y-63064353D01*
X168177521Y-63049500D01*
X166414485Y-63049500D01*
X166367588Y-63056927D01*
X166320696Y-63064354D01*
X166320694Y-63064354D01*
X166320693Y-63064355D01*
X166207657Y-63121949D01*
X166117950Y-63211656D01*
X166060353Y-63324697D01*
X166045500Y-63418478D01*
X166045500Y-65181514D01*
X157686709Y-65181514D01*
X157802721Y-65122403D01*
X158119225Y-64916863D01*
X158412511Y-64679365D01*
X158679365Y-64412511D01*
X158916863Y-64119225D01*
X159122403Y-63802721D01*
X159293734Y-63466465D01*
X159428978Y-63114143D01*
X159526653Y-62749613D01*
X159585690Y-62376871D01*
X159605441Y-62000000D01*
X193394559Y-62000000D01*
X193414310Y-62376871D01*
X193414815Y-62380064D01*
X193414817Y-62380076D01*
X193472838Y-62746404D01*
X193472840Y-62746417D01*
X193473347Y-62749613D01*
X193474184Y-62752737D01*
X193474186Y-62752746D01*
X193557681Y-63064353D01*
X193571022Y-63114143D01*
X193572179Y-63117158D01*
X193572182Y-63117166D01*
X193687847Y-63418482D01*
X193706266Y-63466465D01*
X193707735Y-63469348D01*
X193707739Y-63469357D01*
X193876122Y-63799827D01*
X193877597Y-63802721D01*
X194083137Y-64119225D01*
X194320635Y-64412511D01*
X194587489Y-64679365D01*
X194880775Y-64916863D01*
X195197279Y-65122403D01*
X195200172Y-65123877D01*
X195470464Y-65261598D01*
X195533535Y-65293734D01*
X195885857Y-65428978D01*
X196250387Y-65526653D01*
X196623129Y-65585690D01*
X197000000Y-65605441D01*
X197376871Y-65585690D01*
X197749613Y-65526653D01*
X198114143Y-65428978D01*
X198466465Y-65293734D01*
X198802721Y-65122403D01*
X199119225Y-64916863D01*
X199412511Y-64679365D01*
X199679365Y-64412511D01*
X199916863Y-64119225D01*
X200122403Y-63802721D01*
X200293734Y-63466465D01*
X200428978Y-63114143D01*
X200526653Y-62749613D01*
X200585690Y-62376871D01*
X200605441Y-62000000D01*
X200585690Y-61623129D01*
X200526653Y-61250387D01*
X200428978Y-60885857D01*
X200293734Y-60533535D01*
X200122403Y-60197280D01*
X199916863Y-59880775D01*
X199679365Y-59587489D01*
X199412511Y-59320635D01*
X199119225Y-59083137D01*
X198802721Y-58877597D01*
X198799833Y-58876125D01*
X198799827Y-58876122D01*
X198469357Y-58707739D01*
X198469348Y-58707735D01*
X198466465Y-58706266D01*
X198463433Y-58705102D01*
X198117166Y-58572182D01*
X198117158Y-58572179D01*
X198114143Y-58571022D01*
X198111018Y-58570184D01*
X198111013Y-58570183D01*
X197752746Y-58474186D01*
X197752737Y-58474184D01*
X197749613Y-58473347D01*
X197746417Y-58472840D01*
X197746404Y-58472838D01*
X197380076Y-58414817D01*
X197380064Y-58414815D01*
X197376871Y-58414310D01*
X197373638Y-58414140D01*
X197373633Y-58414140D01*
X197003244Y-58394729D01*
X197000000Y-58394559D01*
X196996756Y-58394729D01*
X196626366Y-58414140D01*
X196626359Y-58414140D01*
X196623129Y-58414310D01*
X196619937Y-58414815D01*
X196619923Y-58414817D01*
X196253595Y-58472838D01*
X196253578Y-58472841D01*
X196250387Y-58473347D01*
X196247266Y-58474183D01*
X196247253Y-58474186D01*
X195888986Y-58570183D01*
X195888975Y-58570186D01*
X195885857Y-58571022D01*
X195882846Y-58572177D01*
X195882833Y-58572182D01*
X195536566Y-58705102D01*
X195536557Y-58705105D01*
X195533535Y-58706266D01*
X195530658Y-58707731D01*
X195530642Y-58707739D01*
X195200173Y-58876122D01*
X195200159Y-58876129D01*
X195197280Y-58877597D01*
X195194560Y-58879363D01*
X195194552Y-58879368D01*
X194883503Y-59081365D01*
X194883497Y-59081368D01*
X194880775Y-59083137D01*
X194878255Y-59085177D01*
X194878249Y-59085182D01*
X194590007Y-59318595D01*
X194589996Y-59318604D01*
X194587489Y-59320635D01*
X194585204Y-59322919D01*
X194585194Y-59322929D01*
X194322929Y-59585194D01*
X194322919Y-59585204D01*
X194320635Y-59587489D01*
X194318604Y-59589996D01*
X194318595Y-59590007D01*
X194085182Y-59878249D01*
X194085177Y-59878255D01*
X194083137Y-59880775D01*
X194081368Y-59883497D01*
X194081365Y-59883503D01*
X193879368Y-60194552D01*
X193879363Y-60194560D01*
X193877597Y-60197280D01*
X193876129Y-60200159D01*
X193876122Y-60200173D01*
X193707739Y-60530642D01*
X193707731Y-60530658D01*
X193706266Y-60533535D01*
X193705105Y-60536557D01*
X193705102Y-60536566D01*
X193572182Y-60882833D01*
X193572177Y-60882846D01*
X193571022Y-60885857D01*
X193570186Y-60888975D01*
X193570183Y-60888986D01*
X193474186Y-61247253D01*
X193474183Y-61247266D01*
X193473347Y-61250387D01*
X193472841Y-61253578D01*
X193472838Y-61253595D01*
X193414817Y-61619923D01*
X193414815Y-61619937D01*
X193414310Y-61623129D01*
X193394559Y-62000000D01*
X159605441Y-62000000D01*
X159585690Y-61623129D01*
X159526653Y-61250387D01*
X159428978Y-60885857D01*
X159293734Y-60533535D01*
X159122403Y-60197280D01*
X158916863Y-59880775D01*
X158679365Y-59587489D01*
X158412511Y-59320635D01*
X158119225Y-59083137D01*
X157802721Y-58877597D01*
X157799833Y-58876125D01*
X157799827Y-58876122D01*
X157469357Y-58707739D01*
X157469348Y-58707735D01*
X157466465Y-58706266D01*
X157463433Y-58705102D01*
X157117166Y-58572182D01*
X157117158Y-58572179D01*
X157114143Y-58571022D01*
X157111018Y-58570184D01*
X157111013Y-58570183D01*
X156752746Y-58474186D01*
X156752737Y-58474184D01*
X156749613Y-58473347D01*
X156746417Y-58472840D01*
X156746404Y-58472838D01*
X156380076Y-58414817D01*
X156380064Y-58414815D01*
X156376871Y-58414310D01*
X156373638Y-58414140D01*
X156373633Y-58414140D01*
X156003244Y-58394729D01*
X156000000Y-58394559D01*
X155996756Y-58394729D01*
X155626366Y-58414140D01*
X155626359Y-58414140D01*
X155623129Y-58414310D01*
X155619937Y-58414815D01*
X155619923Y-58414817D01*
X155253595Y-58472838D01*
X155253578Y-58472841D01*
X155250387Y-58473347D01*
X155247266Y-58474183D01*
X155247253Y-58474186D01*
X154888986Y-58570183D01*
X154888975Y-58570186D01*
X154885857Y-58571022D01*
X154882846Y-58572177D01*
X154882833Y-58572182D01*
X154536566Y-58705102D01*
X154536557Y-58705105D01*
X154533535Y-58706266D01*
X154530658Y-58707731D01*
X154530642Y-58707739D01*
X154200173Y-58876122D01*
X154200159Y-58876129D01*
X154197280Y-58877597D01*
X154194560Y-58879363D01*
X154194552Y-58879368D01*
X153883503Y-59081365D01*
X153883497Y-59081368D01*
X153880775Y-59083137D01*
X153878255Y-59085177D01*
X153878249Y-59085182D01*
X153590007Y-59318595D01*
X153589996Y-59318604D01*
X153587489Y-59320635D01*
X153585204Y-59322919D01*
X153585194Y-59322929D01*
X153322929Y-59585194D01*
X153322919Y-59585204D01*
X153320635Y-59587489D01*
X153318604Y-59589996D01*
X153318595Y-59590007D01*
X153085182Y-59878249D01*
X153085177Y-59878255D01*
X153083137Y-59880775D01*
X153081368Y-59883497D01*
X153081365Y-59883503D01*
X152879368Y-60194552D01*
X152879363Y-60194560D01*
X152877597Y-60197280D01*
X152876129Y-60200159D01*
X152876122Y-60200173D01*
X152707739Y-60530642D01*
X152707731Y-60530658D01*
X152706266Y-60533535D01*
X152705105Y-60536557D01*
X152705102Y-60536566D01*
X152572182Y-60882833D01*
X152572177Y-60882846D01*
X152571022Y-60885857D01*
X152570186Y-60888975D01*
X152570183Y-60888986D01*
X152474186Y-61247253D01*
X152474183Y-61247266D01*
X152473347Y-61250387D01*
X152472841Y-61253578D01*
X152472838Y-61253595D01*
X152414817Y-61619923D01*
X152414815Y-61619937D01*
X152414310Y-61623129D01*
X152394559Y-62000000D01*
X151200500Y-62000000D01*
X151200500Y-57324500D01*
X151220185Y-57257461D01*
X151272989Y-57211706D01*
X151324500Y-57200500D01*
X201675500Y-57200500D01*
X201742539Y-57220185D01*
G37*
%TD.AperFunction*%
%TD*%
M02*
