%TF.GenerationSoftware,KiCad,Pcbnew,7.0.2-0*%
%TF.CreationDate,2025-01-08T13:19:12-05:00*%
%TF.ProjectId,plaqchek_sipm_sens,706c6171-6368-4656-9b5f-7369706d5f73,rev?*%
%TF.SameCoordinates,Original*%
%TF.FileFunction,Legend,Bot*%
%TF.FilePolarity,Positive*%
%FSLAX46Y46*%
G04 Gerber Fmt 4.6, Leading zero omitted, Abs format (unit mm)*
G04 Created by KiCad (PCBNEW 7.0.2-0) date 2025-01-08 13:19:12*
%MOMM*%
%LPD*%
G01*
G04 APERTURE LIST*
%ADD10C,0.153000*%
G04 APERTURE END LIST*
D10*
%TO.C,TP18*%
X156388094Y-86812619D02*
X155816666Y-86812619D01*
X156102380Y-87812619D02*
X156102380Y-86812619D01*
X155483332Y-87812619D02*
X155483332Y-86812619D01*
X155483332Y-86812619D02*
X155102380Y-86812619D01*
X155102380Y-86812619D02*
X155007142Y-86860238D01*
X155007142Y-86860238D02*
X154959523Y-86907857D01*
X154959523Y-86907857D02*
X154911904Y-87003095D01*
X154911904Y-87003095D02*
X154911904Y-87145952D01*
X154911904Y-87145952D02*
X154959523Y-87241190D01*
X154959523Y-87241190D02*
X155007142Y-87288809D01*
X155007142Y-87288809D02*
X155102380Y-87336428D01*
X155102380Y-87336428D02*
X155483332Y-87336428D01*
X153959523Y-87812619D02*
X154530951Y-87812619D01*
X154245237Y-87812619D02*
X154245237Y-86812619D01*
X154245237Y-86812619D02*
X154340475Y-86955476D01*
X154340475Y-86955476D02*
X154435713Y-87050714D01*
X154435713Y-87050714D02*
X154530951Y-87098333D01*
X153388094Y-87241190D02*
X153483332Y-87193571D01*
X153483332Y-87193571D02*
X153530951Y-87145952D01*
X153530951Y-87145952D02*
X153578570Y-87050714D01*
X153578570Y-87050714D02*
X153578570Y-87003095D01*
X153578570Y-87003095D02*
X153530951Y-86907857D01*
X153530951Y-86907857D02*
X153483332Y-86860238D01*
X153483332Y-86860238D02*
X153388094Y-86812619D01*
X153388094Y-86812619D02*
X153197618Y-86812619D01*
X153197618Y-86812619D02*
X153102380Y-86860238D01*
X153102380Y-86860238D02*
X153054761Y-86907857D01*
X153054761Y-86907857D02*
X153007142Y-87003095D01*
X153007142Y-87003095D02*
X153007142Y-87050714D01*
X153007142Y-87050714D02*
X153054761Y-87145952D01*
X153054761Y-87145952D02*
X153102380Y-87193571D01*
X153102380Y-87193571D02*
X153197618Y-87241190D01*
X153197618Y-87241190D02*
X153388094Y-87241190D01*
X153388094Y-87241190D02*
X153483332Y-87288809D01*
X153483332Y-87288809D02*
X153530951Y-87336428D01*
X153530951Y-87336428D02*
X153578570Y-87431666D01*
X153578570Y-87431666D02*
X153578570Y-87622142D01*
X153578570Y-87622142D02*
X153530951Y-87717380D01*
X153530951Y-87717380D02*
X153483332Y-87765000D01*
X153483332Y-87765000D02*
X153388094Y-87812619D01*
X153388094Y-87812619D02*
X153197618Y-87812619D01*
X153197618Y-87812619D02*
X153102380Y-87765000D01*
X153102380Y-87765000D02*
X153054761Y-87717380D01*
X153054761Y-87717380D02*
X153007142Y-87622142D01*
X153007142Y-87622142D02*
X153007142Y-87431666D01*
X153007142Y-87431666D02*
X153054761Y-87336428D01*
X153054761Y-87336428D02*
X153102380Y-87288809D01*
X153102380Y-87288809D02*
X153197618Y-87241190D01*
%TO.C,U10*%
X157557219Y-91805305D02*
X158366742Y-91805305D01*
X158366742Y-91805305D02*
X158461980Y-91852924D01*
X158461980Y-91852924D02*
X158509600Y-91900543D01*
X158509600Y-91900543D02*
X158557219Y-91995781D01*
X158557219Y-91995781D02*
X158557219Y-92186257D01*
X158557219Y-92186257D02*
X158509600Y-92281495D01*
X158509600Y-92281495D02*
X158461980Y-92329114D01*
X158461980Y-92329114D02*
X158366742Y-92376733D01*
X158366742Y-92376733D02*
X157557219Y-92376733D01*
X158557219Y-93376733D02*
X158557219Y-92805305D01*
X158557219Y-93091019D02*
X157557219Y-93091019D01*
X157557219Y-93091019D02*
X157700076Y-92995781D01*
X157700076Y-92995781D02*
X157795314Y-92900543D01*
X157795314Y-92900543D02*
X157842933Y-92805305D01*
X157557219Y-93995781D02*
X157557219Y-94091019D01*
X157557219Y-94091019D02*
X157604838Y-94186257D01*
X157604838Y-94186257D02*
X157652457Y-94233876D01*
X157652457Y-94233876D02*
X157747695Y-94281495D01*
X157747695Y-94281495D02*
X157938171Y-94329114D01*
X157938171Y-94329114D02*
X158176266Y-94329114D01*
X158176266Y-94329114D02*
X158366742Y-94281495D01*
X158366742Y-94281495D02*
X158461980Y-94233876D01*
X158461980Y-94233876D02*
X158509600Y-94186257D01*
X158509600Y-94186257D02*
X158557219Y-94091019D01*
X158557219Y-94091019D02*
X158557219Y-93995781D01*
X158557219Y-93995781D02*
X158509600Y-93900543D01*
X158509600Y-93900543D02*
X158461980Y-93852924D01*
X158461980Y-93852924D02*
X158366742Y-93805305D01*
X158366742Y-93805305D02*
X158176266Y-93757686D01*
X158176266Y-93757686D02*
X157938171Y-93757686D01*
X157938171Y-93757686D02*
X157747695Y-93805305D01*
X157747695Y-93805305D02*
X157652457Y-93852924D01*
X157652457Y-93852924D02*
X157604838Y-93900543D01*
X157604838Y-93900543D02*
X157557219Y-93995781D01*
X161897368Y-90329156D02*
X161944988Y-90281537D01*
X161944988Y-90281537D02*
X161992607Y-90138680D01*
X161992607Y-90138680D02*
X161992607Y-90043442D01*
X161992607Y-90043442D02*
X161944988Y-89900585D01*
X161944988Y-89900585D02*
X161849749Y-89805347D01*
X161849749Y-89805347D02*
X161754511Y-89757728D01*
X161754511Y-89757728D02*
X161564035Y-89710109D01*
X161564035Y-89710109D02*
X161421178Y-89710109D01*
X161421178Y-89710109D02*
X161230702Y-89757728D01*
X161230702Y-89757728D02*
X161135464Y-89805347D01*
X161135464Y-89805347D02*
X161040226Y-89900585D01*
X161040226Y-89900585D02*
X160992607Y-90043442D01*
X160992607Y-90043442D02*
X160992607Y-90138680D01*
X160992607Y-90138680D02*
X161040226Y-90281537D01*
X161040226Y-90281537D02*
X161087845Y-90329156D01*
X166742607Y-95757728D02*
X165742607Y-95757728D01*
X165742607Y-95757728D02*
X166742607Y-96329156D01*
X166742607Y-96329156D02*
X165742607Y-96329156D01*
X166647368Y-97376775D02*
X166694988Y-97329156D01*
X166694988Y-97329156D02*
X166742607Y-97186299D01*
X166742607Y-97186299D02*
X166742607Y-97091061D01*
X166742607Y-97091061D02*
X166694988Y-96948204D01*
X166694988Y-96948204D02*
X166599749Y-96852966D01*
X166599749Y-96852966D02*
X166504511Y-96805347D01*
X166504511Y-96805347D02*
X166314035Y-96757728D01*
X166314035Y-96757728D02*
X166171178Y-96757728D01*
X166171178Y-96757728D02*
X165980702Y-96805347D01*
X165980702Y-96805347D02*
X165885464Y-96852966D01*
X165885464Y-96852966D02*
X165790226Y-96948204D01*
X165790226Y-96948204D02*
X165742607Y-97091061D01*
X165742607Y-97091061D02*
X165742607Y-97186299D01*
X165742607Y-97186299D02*
X165790226Y-97329156D01*
X165790226Y-97329156D02*
X165837845Y-97376775D01*
X168992607Y-95757728D02*
X167992607Y-95757728D01*
X167992607Y-95757728D02*
X168992607Y-96329156D01*
X168992607Y-96329156D02*
X167992607Y-96329156D01*
X168897368Y-97376775D02*
X168944988Y-97329156D01*
X168944988Y-97329156D02*
X168992607Y-97186299D01*
X168992607Y-97186299D02*
X168992607Y-97091061D01*
X168992607Y-97091061D02*
X168944988Y-96948204D01*
X168944988Y-96948204D02*
X168849749Y-96852966D01*
X168849749Y-96852966D02*
X168754511Y-96805347D01*
X168754511Y-96805347D02*
X168564035Y-96757728D01*
X168564035Y-96757728D02*
X168421178Y-96757728D01*
X168421178Y-96757728D02*
X168230702Y-96805347D01*
X168230702Y-96805347D02*
X168135464Y-96852966D01*
X168135464Y-96852966D02*
X168040226Y-96948204D01*
X168040226Y-96948204D02*
X167992607Y-97091061D01*
X167992607Y-97091061D02*
X167992607Y-97186299D01*
X167992607Y-97186299D02*
X168040226Y-97329156D01*
X168040226Y-97329156D02*
X168087845Y-97376775D01*
X165194988Y-91710109D02*
X165242607Y-91852966D01*
X165242607Y-91852966D02*
X165242607Y-92091061D01*
X165242607Y-92091061D02*
X165194988Y-92186299D01*
X165194988Y-92186299D02*
X165147368Y-92233918D01*
X165147368Y-92233918D02*
X165052130Y-92281537D01*
X165052130Y-92281537D02*
X164956892Y-92281537D01*
X164956892Y-92281537D02*
X164861654Y-92233918D01*
X164861654Y-92233918D02*
X164814035Y-92186299D01*
X164814035Y-92186299D02*
X164766416Y-92091061D01*
X164766416Y-92091061D02*
X164718797Y-91900585D01*
X164718797Y-91900585D02*
X164671178Y-91805347D01*
X164671178Y-91805347D02*
X164623559Y-91757728D01*
X164623559Y-91757728D02*
X164528321Y-91710109D01*
X164528321Y-91710109D02*
X164433083Y-91710109D01*
X164433083Y-91710109D02*
X164337845Y-91757728D01*
X164337845Y-91757728D02*
X164290226Y-91805347D01*
X164290226Y-91805347D02*
X164242607Y-91900585D01*
X164242607Y-91900585D02*
X164242607Y-92138680D01*
X164242607Y-92138680D02*
X164290226Y-92281537D01*
X165242607Y-92710109D02*
X164575940Y-92710109D01*
X164242607Y-92710109D02*
X164290226Y-92662490D01*
X164290226Y-92662490D02*
X164337845Y-92710109D01*
X164337845Y-92710109D02*
X164290226Y-92757728D01*
X164290226Y-92757728D02*
X164242607Y-92710109D01*
X164242607Y-92710109D02*
X164337845Y-92710109D01*
X165242607Y-93186299D02*
X164242607Y-93186299D01*
X164242607Y-93186299D02*
X164242607Y-93567251D01*
X164242607Y-93567251D02*
X164290226Y-93662489D01*
X164290226Y-93662489D02*
X164337845Y-93710108D01*
X164337845Y-93710108D02*
X164433083Y-93757727D01*
X164433083Y-93757727D02*
X164575940Y-93757727D01*
X164575940Y-93757727D02*
X164671178Y-93710108D01*
X164671178Y-93710108D02*
X164718797Y-93662489D01*
X164718797Y-93662489D02*
X164766416Y-93567251D01*
X164766416Y-93567251D02*
X164766416Y-93186299D01*
X165242607Y-94186299D02*
X164242607Y-94186299D01*
X164242607Y-94186299D02*
X164956892Y-94519632D01*
X164956892Y-94519632D02*
X164242607Y-94852965D01*
X164242607Y-94852965D02*
X165242607Y-94852965D01*
X163706892Y-89960109D02*
X163706892Y-90436299D01*
X163992607Y-89864871D02*
X162992607Y-90198204D01*
X162992607Y-90198204D02*
X163992607Y-90531537D01*
%TO.C,TP18*%
X158260000Y-87340000D02*
G75*
G03*
X158260000Y-87340000I-700000J0D01*
G01*
%TO.C,U10*%
X164387000Y-86243000D02*
X164387000Y-88363000D01*
X162327000Y-86243000D02*
X164387000Y-86243000D01*
X162327000Y-86243000D02*
X162327000Y-88363000D01*
X161327000Y-86243000D02*
X160267000Y-86243000D01*
X160267000Y-86243000D02*
X160267000Y-87303000D01*
X162327000Y-88363000D02*
X164387000Y-88363000D01*
X169387000Y-98243000D02*
X169387000Y-100363000D01*
X167327000Y-98243000D02*
X169387000Y-98243000D01*
X167327000Y-98243000D02*
X167327000Y-100363000D01*
X165267000Y-98243000D02*
X167327000Y-98243000D01*
X165267000Y-98243000D02*
X165267000Y-100363000D01*
X167327000Y-100363000D02*
X169387000Y-100363000D01*
X165267000Y-100363000D02*
X167327000Y-100363000D01*
X159327000Y-85303000D02*
X170327000Y-85303000D01*
X170327000Y-85303000D02*
X170327000Y-101303000D01*
X170327000Y-101303000D02*
X159327000Y-101303000D01*
X159327000Y-101303000D02*
X159327000Y-85303000D01*
X159827000Y-85803000D02*
X164827000Y-85803000D01*
X164827000Y-85803000D02*
X164827000Y-88803000D01*
X164827000Y-88803000D02*
X159827000Y-88803000D01*
X159827000Y-88803000D02*
X159827000Y-85803000D01*
X162864988Y-91269633D02*
X166864988Y-91269633D01*
X166864988Y-91269633D02*
X166864988Y-95269633D01*
X166864988Y-95269633D02*
X162864988Y-95269633D01*
X162864988Y-95269633D02*
X162864988Y-91269633D01*
X164827000Y-97803000D02*
X169827000Y-97803000D01*
X169827000Y-97803000D02*
X169827000Y-100803000D01*
X169827000Y-100803000D02*
X164827000Y-100803000D01*
X164827000Y-100803000D02*
X164827000Y-97803000D01*
%TD*%
M02*
