M48
; DRILL file {KiCad 7.0.2-0} date 2025 January 08, Wednesday 13:19:19
; FORMAT={-:-/ absolute / inch / decimal}
; #@! TF.CreationDate,2025-01-08T13:19:19-05:00
; #@! TF.GenerationSoftware,Kicad,Pcbnew,7.0.2-0
; #@! TF.FileFunction,Plated,1,4,PTH
FMAT,2
INCH
; #@! TA.AperFunction,Plated,PTH,ViaDrill
T1C0.0157
; #@! TA.AperFunction,Plated,PTH,ComponentDrill
T2C0.0315
; #@! TA.AperFunction,Plated,PTH,ComponentDrill
T3C0.0394
; #@! TA.AperFunction,Plated,PTH,ComponentDrill
T4C0.1260
%
G90
G05
T1
X5.9843Y-2.2835
X5.9843Y-2.4409
X5.9843Y-2.5984
X5.9843Y-2.7559
X5.9843Y-2.9134
X5.9843Y-3.0709
X5.9843Y-3.2283
X5.9843Y-3.3858
X5.9843Y-3.5433
X5.9843Y-3.7008
X5.9843Y-3.8583
X5.9843Y-4.0157
X5.9843Y-4.1732
X5.9843Y-4.3307
X5.9843Y-4.4882
X6.063Y-4.5276
X6.0683Y-2.618
X6.0866Y-3.1142
X6.1378Y-3.1654
X6.1417Y-2.2835
X6.1614Y-2.9567
X6.1614Y-3.0079
X6.1614Y-3.0512
X6.1969Y-2.8622
X6.2205Y-4.5276
X6.2598Y-3.4252
X6.2783Y-3.2642
X6.2953Y-2.374
X6.2992Y-2.2835
X6.2992Y-3.1929
X6.2992Y-3.3701
X6.2992Y-3.5039
X6.35Y-3.1
X6.3622Y-3.1457
X6.378Y-4.5276
X6.3819Y-3.3701
X6.3854Y-2.5917
X6.3951Y-2.8897
X6.399Y-2.9684
X6.4006Y-4.3012
X6.4173Y-3.5039
X6.4449Y-2.8701
X6.4472Y-2.7086
X6.4488Y-3.2362
X6.4488Y-3.3071
X6.4488Y-3.3701
X6.4567Y-2.2835
X6.4646Y-2.9291
X6.4646Y-3.1614
X6.4685Y-3.0945
X6.5039Y-2.8701
X6.5039Y-3.2756
X6.5039Y-3.374
X6.5157Y-3.4843
X6.5236Y-2.7047
X6.5354Y-2.6181
X6.5354Y-2.6614
X6.5354Y-4.4094
X6.5354Y-4.5276
X6.5591Y-3.2362
X6.5748Y-2.8661
X6.5984Y-4.2205
X6.6051Y-4.1146
X6.6071Y-3.389
X6.6142Y-2.2835
X6.6142Y-3.4843
X6.6142Y-4.4488
X6.6181Y-2.8346
X6.6378Y-2.6181
X6.6378Y-2.6654
X6.6378Y-2.7047
X6.6378Y-2.7795
X6.6449Y-4.0071
X6.685Y-4.189
X6.69Y-2.61
X6.69Y-2.65
X6.6929Y-4.5276
X6.7028Y-3.4843
X6.748Y-4.189
X6.7717Y-2.2835
X6.7717Y-3.1811
X6.7913Y-3.6693
X6.8002Y-3.8588
X6.8012Y-3.9173
X6.8012Y-3.9764
X6.8307Y-3.4449
X6.8503Y-3.0952
X6.8504Y-4.1634
X6.8504Y-4.5276
X6.8583Y-3.5354
X6.8898Y-3.4685
X6.8996Y-4.2224
X6.908Y-3.926
X6.92Y-3.1
X6.9213Y-4.3071
X6.9291Y-2.2835
X6.9468Y-3.3027
X6.9646Y-3.5787
X6.9713Y-2.8766
X6.9764Y-3.7209
X6.9764Y-3.7756
X6.9831Y-4.1251
X6.99Y-4.0
X6.99Y-4.0574
X6.9905Y-3.3509
X7.0Y-3.4213
X7.0Y-4.3071
X7.0Y-4.3701
X7.0079Y-4.5276
X7.0197Y-3.8618
X7.0374Y-4.2323
X7.0433Y-2.6575
X7.0628Y-4.1389
X7.0768Y-3.6614
X7.08Y-2.98
X7.0827Y-3.7913
X7.0866Y-2.2835
X7.0866Y-3.5039
X7.0945Y-2.6063
X7.12Y-4.05
X7.126Y-3.6614
X7.13Y-2.93
X7.13Y-2.98
X7.1319Y-4.3002
X7.1339Y-2.5433
X7.1339Y-3.1969
X7.1486Y-4.2087
X7.1654Y-3.3071
X7.1654Y-4.5276
X7.18Y-3.25
X7.2037Y-4.251
X7.2047Y-2.4961
X7.2047Y-2.5984
X7.2047Y-2.9134
X7.2047Y-3.4252
X7.2047Y-3.5039
X7.2047Y-3.5827
X7.2441Y-2.2835
X7.2461Y-3.2933
X7.2736Y-4.1339
X7.2736Y-4.2126
X7.2756Y-2.5433
X7.2913Y-2.8307
X7.2913Y-2.9094
X7.311Y-3.5551
X7.313Y-4.0472
X7.313Y-4.1339
X7.313Y-4.2126
X7.3228Y-3.622
X7.3228Y-4.2913
X7.3228Y-4.5276
X7.3268Y-3.9567
X7.3307Y-2.4331
X7.3465Y-3.5197
X7.4016Y-2.2835
X7.4295Y-3.9701
X7.4299Y-4.0039
X7.4409Y-2.9528
X7.4409Y-4.2913
X7.4508Y-3.4331
X7.4803Y-3.7638
X7.4803Y-3.8583
X7.4803Y-4.5276
X7.5039Y-3.6772
X7.5039Y-3.7244
X7.5108Y-4.3878
X7.5433Y-3.4055
X7.5433Y-3.4567
X7.5591Y-2.2835
X7.5591Y-2.8346
X7.5591Y-2.9921
X7.5591Y-4.2913
X7.56Y-3.11
X7.5748Y-3.9213
X7.5906Y-3.0551
X7.5984Y-3.3465
X7.5984Y-3.6614
X7.5984Y-3.7795
X7.6063Y-3.2205
X7.6142Y-3.8819
X7.6311Y-3.9823
X7.6378Y-2.6378
X7.6378Y-4.5276
X7.6437Y-4.1112
X7.6516Y-4.1575
X7.6978Y-4.1368
X7.7165Y-2.2835
X7.7953Y-4.5276
X7.874Y-2.2835
X7.9134Y-2.3228
X7.9134Y-2.4803
X7.9134Y-2.6378
X7.9134Y-2.7953
X7.9134Y-2.9528
X7.9134Y-3.1102
X7.9134Y-3.2677
X7.9134Y-3.4252
X7.9134Y-3.5827
X7.9134Y-3.7402
X7.9134Y-3.8976
X7.9134Y-4.0551
X7.9134Y-4.2126
X7.9134Y-4.3701
X7.9134Y-4.5276
T2
X6.3515Y-3.4371
X6.4302Y-3.4371
X6.5483Y-3.9096
X6.627Y-3.9096
T3
X6.5865Y-2.5315
X6.6865Y-2.5315
X6.7865Y-2.5315
X6.8865Y-2.5315
X6.9865Y-2.5315
X7.7539Y-3.775
X7.7539Y-3.875
X7.7539Y-3.975
X7.7539Y-4.075
T4
X6.1417Y-2.4409
X6.1417Y-4.3701
X7.7559Y-2.4409
X7.7559Y-4.3701
T0
M30
