%TF.GenerationSoftware,KiCad,Pcbnew,7.0.2-0*%
%TF.CreationDate,2025-01-08T13:19:12-05:00*%
%TF.ProjectId,plaqchek_sipm_sens,706c6171-6368-4656-9b5f-7369706d5f73,rev?*%
%TF.SameCoordinates,Original*%
%TF.FileFunction,Legend,Top*%
%TF.FilePolarity,Positive*%
%FSLAX46Y46*%
G04 Gerber Fmt 4.6, Leading zero omitted, Abs format (unit mm)*
G04 Created by KiCad (PCBNEW 7.0.2-0) date 2025-01-08 13:19:12*
%MOMM*%
%LPD*%
G01*
G04 APERTURE LIST*
%ADD10C,0.150000*%
%ADD11C,0.153000*%
%ADD12C,0.187500*%
%ADD13C,0.300000*%
%ADD14C,0.400000*%
%ADD15C,0.120000*%
G04 APERTURE END LIST*
D10*
X187800000Y-104000000D02*
X187800000Y-103800000D01*
X186200000Y-101400000D02*
X185400000Y-101800000D01*
X188400000Y-104000000D02*
X187800000Y-104000000D01*
X187000000Y-101400000D02*
X186200000Y-101400000D01*
D11*
X177075238Y-59488095D02*
X177027619Y-59583333D01*
X177027619Y-59583333D02*
X177027619Y-59726190D01*
X177027619Y-59726190D02*
X177075238Y-59869047D01*
X177075238Y-59869047D02*
X177170476Y-59964285D01*
X177170476Y-59964285D02*
X177265714Y-60011904D01*
X177265714Y-60011904D02*
X177456190Y-60059523D01*
X177456190Y-60059523D02*
X177599047Y-60059523D01*
X177599047Y-60059523D02*
X177789523Y-60011904D01*
X177789523Y-60011904D02*
X177884761Y-59964285D01*
X177884761Y-59964285D02*
X177980000Y-59869047D01*
X177980000Y-59869047D02*
X178027619Y-59726190D01*
X178027619Y-59726190D02*
X178027619Y-59630952D01*
X178027619Y-59630952D02*
X177980000Y-59488095D01*
X177980000Y-59488095D02*
X177932380Y-59440476D01*
X177932380Y-59440476D02*
X177599047Y-59440476D01*
X177599047Y-59440476D02*
X177599047Y-59630952D01*
X178027619Y-59011904D02*
X177027619Y-59011904D01*
X177027619Y-59011904D02*
X178027619Y-58440476D01*
X178027619Y-58440476D02*
X177027619Y-58440476D01*
X178027619Y-57964285D02*
X177027619Y-57964285D01*
X177027619Y-57964285D02*
X177027619Y-57726190D01*
X177027619Y-57726190D02*
X177075238Y-57583333D01*
X177075238Y-57583333D02*
X177170476Y-57488095D01*
X177170476Y-57488095D02*
X177265714Y-57440476D01*
X177265714Y-57440476D02*
X177456190Y-57392857D01*
X177456190Y-57392857D02*
X177599047Y-57392857D01*
X177599047Y-57392857D02*
X177789523Y-57440476D01*
X177789523Y-57440476D02*
X177884761Y-57488095D01*
X177884761Y-57488095D02*
X177980000Y-57583333D01*
X177980000Y-57583333D02*
X178027619Y-57726190D01*
X178027619Y-57726190D02*
X178027619Y-57964285D01*
X171827619Y-59857142D02*
X171827619Y-59238095D01*
X171827619Y-59238095D02*
X172208571Y-59571428D01*
X172208571Y-59571428D02*
X172208571Y-59428571D01*
X172208571Y-59428571D02*
X172256190Y-59333333D01*
X172256190Y-59333333D02*
X172303809Y-59285714D01*
X172303809Y-59285714D02*
X172399047Y-59238095D01*
X172399047Y-59238095D02*
X172637142Y-59238095D01*
X172637142Y-59238095D02*
X172732380Y-59285714D01*
X172732380Y-59285714D02*
X172780000Y-59333333D01*
X172780000Y-59333333D02*
X172827619Y-59428571D01*
X172827619Y-59428571D02*
X172827619Y-59714285D01*
X172827619Y-59714285D02*
X172780000Y-59809523D01*
X172780000Y-59809523D02*
X172732380Y-59857142D01*
X171827619Y-58952380D02*
X172827619Y-58619047D01*
X172827619Y-58619047D02*
X171827619Y-58285714D01*
X171827619Y-58047618D02*
X171827619Y-57428571D01*
X171827619Y-57428571D02*
X172208571Y-57761904D01*
X172208571Y-57761904D02*
X172208571Y-57619047D01*
X172208571Y-57619047D02*
X172256190Y-57523809D01*
X172256190Y-57523809D02*
X172303809Y-57476190D01*
X172303809Y-57476190D02*
X172399047Y-57428571D01*
X172399047Y-57428571D02*
X172637142Y-57428571D01*
X172637142Y-57428571D02*
X172732380Y-57476190D01*
X172732380Y-57476190D02*
X172780000Y-57523809D01*
X172780000Y-57523809D02*
X172827619Y-57619047D01*
X172827619Y-57619047D02*
X172827619Y-57904761D01*
X172827619Y-57904761D02*
X172780000Y-57999999D01*
X172780000Y-57999999D02*
X172732380Y-58047618D01*
D12*
X152381428Y-97523809D02*
X152048095Y-97523809D01*
X152048095Y-98047619D02*
X152048095Y-97047619D01*
X152048095Y-97047619D02*
X152524285Y-97047619D01*
X153095714Y-97571428D02*
X153095714Y-98047619D01*
X152762381Y-97047619D02*
X153095714Y-97571428D01*
X153095714Y-97571428D02*
X153429047Y-97047619D01*
X153762381Y-98047619D02*
X153762381Y-97047619D01*
X153762381Y-97047619D02*
X154000476Y-97047619D01*
X154000476Y-97047619D02*
X154143333Y-97095238D01*
X154143333Y-97095238D02*
X154238571Y-97190476D01*
X154238571Y-97190476D02*
X154286190Y-97285714D01*
X154286190Y-97285714D02*
X154333809Y-97476190D01*
X154333809Y-97476190D02*
X154333809Y-97619047D01*
X154333809Y-97619047D02*
X154286190Y-97809523D01*
X154286190Y-97809523D02*
X154238571Y-97904761D01*
X154238571Y-97904761D02*
X154143333Y-98000000D01*
X154143333Y-98000000D02*
X154000476Y-98047619D01*
X154000476Y-98047619D02*
X153762381Y-98047619D01*
X154762381Y-98047619D02*
X154762381Y-97047619D01*
X154762381Y-97047619D02*
X155143333Y-97047619D01*
X155143333Y-97047619D02*
X155238571Y-97095238D01*
X155238571Y-97095238D02*
X155286190Y-97142857D01*
X155286190Y-97142857D02*
X155333809Y-97238095D01*
X155333809Y-97238095D02*
X155333809Y-97380952D01*
X155333809Y-97380952D02*
X155286190Y-97476190D01*
X155286190Y-97476190D02*
X155238571Y-97523809D01*
X155238571Y-97523809D02*
X155143333Y-97571428D01*
X155143333Y-97571428D02*
X154762381Y-97571428D01*
X156381429Y-97047619D02*
X156952857Y-97047619D01*
X156667143Y-98047619D02*
X156667143Y-97047619D01*
X157286191Y-97523809D02*
X157619524Y-97523809D01*
X157762381Y-98047619D02*
X157286191Y-98047619D01*
X157286191Y-98047619D02*
X157286191Y-97047619D01*
X157286191Y-97047619D02*
X157762381Y-97047619D01*
X158143334Y-97761904D02*
X158619524Y-97761904D01*
X158048096Y-98047619D02*
X158381429Y-97047619D01*
X158381429Y-97047619D02*
X158714762Y-98047619D01*
X159048096Y-98047619D02*
X159048096Y-97047619D01*
X159048096Y-97047619D02*
X159381429Y-97761904D01*
X159381429Y-97761904D02*
X159714762Y-97047619D01*
X159714762Y-97047619D02*
X159714762Y-98047619D01*
X160905239Y-97380952D02*
X161619524Y-97380952D01*
X161190953Y-96952380D02*
X160905239Y-98238095D01*
X161524286Y-97809523D02*
X160810001Y-97809523D01*
X161238572Y-98238095D02*
X161524286Y-96952380D01*
X162476667Y-98047619D02*
X161905239Y-98047619D01*
X162190953Y-98047619D02*
X162190953Y-97047619D01*
X162190953Y-97047619D02*
X162095715Y-97190476D01*
X162095715Y-97190476D02*
X162000477Y-97285714D01*
X162000477Y-97285714D02*
X161905239Y-97333333D01*
X162857620Y-97142857D02*
X162905239Y-97095238D01*
X162905239Y-97095238D02*
X163000477Y-97047619D01*
X163000477Y-97047619D02*
X163238572Y-97047619D01*
X163238572Y-97047619D02*
X163333810Y-97095238D01*
X163333810Y-97095238D02*
X163381429Y-97142857D01*
X163381429Y-97142857D02*
X163429048Y-97238095D01*
X163429048Y-97238095D02*
X163429048Y-97333333D01*
X163429048Y-97333333D02*
X163381429Y-97476190D01*
X163381429Y-97476190D02*
X162810001Y-98047619D01*
X162810001Y-98047619D02*
X163429048Y-98047619D01*
X152333809Y-98667619D02*
X152333809Y-99381904D01*
X152333809Y-99381904D02*
X152286190Y-99524761D01*
X152286190Y-99524761D02*
X152190952Y-99620000D01*
X152190952Y-99620000D02*
X152048095Y-99667619D01*
X152048095Y-99667619D02*
X151952857Y-99667619D01*
X152762381Y-99381904D02*
X153238571Y-99381904D01*
X152667143Y-99667619D02*
X153000476Y-98667619D01*
X153000476Y-98667619D02*
X153333809Y-99667619D01*
X153667143Y-99667619D02*
X153667143Y-98667619D01*
X153667143Y-98667619D02*
X154238571Y-99667619D01*
X154238571Y-99667619D02*
X154238571Y-98667619D01*
X155429048Y-98762857D02*
X155476667Y-98715238D01*
X155476667Y-98715238D02*
X155571905Y-98667619D01*
X155571905Y-98667619D02*
X155810000Y-98667619D01*
X155810000Y-98667619D02*
X155905238Y-98715238D01*
X155905238Y-98715238D02*
X155952857Y-98762857D01*
X155952857Y-98762857D02*
X156000476Y-98858095D01*
X156000476Y-98858095D02*
X156000476Y-98953333D01*
X156000476Y-98953333D02*
X155952857Y-99096190D01*
X155952857Y-99096190D02*
X155381429Y-99667619D01*
X155381429Y-99667619D02*
X156000476Y-99667619D01*
X156619524Y-98667619D02*
X156714762Y-98667619D01*
X156714762Y-98667619D02*
X156810000Y-98715238D01*
X156810000Y-98715238D02*
X156857619Y-98762857D01*
X156857619Y-98762857D02*
X156905238Y-98858095D01*
X156905238Y-98858095D02*
X156952857Y-99048571D01*
X156952857Y-99048571D02*
X156952857Y-99286666D01*
X156952857Y-99286666D02*
X156905238Y-99477142D01*
X156905238Y-99477142D02*
X156857619Y-99572380D01*
X156857619Y-99572380D02*
X156810000Y-99620000D01*
X156810000Y-99620000D02*
X156714762Y-99667619D01*
X156714762Y-99667619D02*
X156619524Y-99667619D01*
X156619524Y-99667619D02*
X156524286Y-99620000D01*
X156524286Y-99620000D02*
X156476667Y-99572380D01*
X156476667Y-99572380D02*
X156429048Y-99477142D01*
X156429048Y-99477142D02*
X156381429Y-99286666D01*
X156381429Y-99286666D02*
X156381429Y-99048571D01*
X156381429Y-99048571D02*
X156429048Y-98858095D01*
X156429048Y-98858095D02*
X156476667Y-98762857D01*
X156476667Y-98762857D02*
X156524286Y-98715238D01*
X156524286Y-98715238D02*
X156619524Y-98667619D01*
X157333810Y-98762857D02*
X157381429Y-98715238D01*
X157381429Y-98715238D02*
X157476667Y-98667619D01*
X157476667Y-98667619D02*
X157714762Y-98667619D01*
X157714762Y-98667619D02*
X157810000Y-98715238D01*
X157810000Y-98715238D02*
X157857619Y-98762857D01*
X157857619Y-98762857D02*
X157905238Y-98858095D01*
X157905238Y-98858095D02*
X157905238Y-98953333D01*
X157905238Y-98953333D02*
X157857619Y-99096190D01*
X157857619Y-99096190D02*
X157286191Y-99667619D01*
X157286191Y-99667619D02*
X157905238Y-99667619D01*
X158810000Y-98667619D02*
X158333810Y-98667619D01*
X158333810Y-98667619D02*
X158286191Y-99143809D01*
X158286191Y-99143809D02*
X158333810Y-99096190D01*
X158333810Y-99096190D02*
X158429048Y-99048571D01*
X158429048Y-99048571D02*
X158667143Y-99048571D01*
X158667143Y-99048571D02*
X158762381Y-99096190D01*
X158762381Y-99096190D02*
X158810000Y-99143809D01*
X158810000Y-99143809D02*
X158857619Y-99239047D01*
X158857619Y-99239047D02*
X158857619Y-99477142D01*
X158857619Y-99477142D02*
X158810000Y-99572380D01*
X158810000Y-99572380D02*
X158762381Y-99620000D01*
X158762381Y-99620000D02*
X158667143Y-99667619D01*
X158667143Y-99667619D02*
X158429048Y-99667619D01*
X158429048Y-99667619D02*
X158333810Y-99620000D01*
X158333810Y-99620000D02*
X158286191Y-99572380D01*
D11*
X166160000Y-60780951D02*
X166207619Y-60638094D01*
X166207619Y-60638094D02*
X166207619Y-60399999D01*
X166207619Y-60399999D02*
X166160000Y-60304761D01*
X166160000Y-60304761D02*
X166112380Y-60257142D01*
X166112380Y-60257142D02*
X166017142Y-60209523D01*
X166017142Y-60209523D02*
X165921904Y-60209523D01*
X165921904Y-60209523D02*
X165826666Y-60257142D01*
X165826666Y-60257142D02*
X165779047Y-60304761D01*
X165779047Y-60304761D02*
X165731428Y-60399999D01*
X165731428Y-60399999D02*
X165683809Y-60590475D01*
X165683809Y-60590475D02*
X165636190Y-60685713D01*
X165636190Y-60685713D02*
X165588571Y-60733332D01*
X165588571Y-60733332D02*
X165493333Y-60780951D01*
X165493333Y-60780951D02*
X165398095Y-60780951D01*
X165398095Y-60780951D02*
X165302857Y-60733332D01*
X165302857Y-60733332D02*
X165255238Y-60685713D01*
X165255238Y-60685713D02*
X165207619Y-60590475D01*
X165207619Y-60590475D02*
X165207619Y-60352380D01*
X165207619Y-60352380D02*
X165255238Y-60209523D01*
X166207619Y-59780951D02*
X165207619Y-59780951D01*
X166207619Y-59304761D02*
X165207619Y-59304761D01*
X165207619Y-59304761D02*
X165207619Y-58923809D01*
X165207619Y-58923809D02*
X165255238Y-58828571D01*
X165255238Y-58828571D02*
X165302857Y-58780952D01*
X165302857Y-58780952D02*
X165398095Y-58733333D01*
X165398095Y-58733333D02*
X165540952Y-58733333D01*
X165540952Y-58733333D02*
X165636190Y-58780952D01*
X165636190Y-58780952D02*
X165683809Y-58828571D01*
X165683809Y-58828571D02*
X165731428Y-58923809D01*
X165731428Y-58923809D02*
X165731428Y-59304761D01*
X166207619Y-58304761D02*
X165207619Y-58304761D01*
X165207619Y-58304761D02*
X165921904Y-57971428D01*
X165921904Y-57971428D02*
X165207619Y-57638095D01*
X165207619Y-57638095D02*
X166207619Y-57638095D01*
X167160952Y-59495238D02*
X167827619Y-59495238D01*
X166780000Y-59733333D02*
X167494285Y-59971428D01*
X167494285Y-59971428D02*
X167494285Y-59352381D01*
X167160952Y-58542857D02*
X167827619Y-58542857D01*
X166780000Y-58780952D02*
X167494285Y-59019047D01*
X167494285Y-59019047D02*
X167494285Y-58400000D01*
X166827619Y-58161904D02*
X167827619Y-57828571D01*
X167827619Y-57828571D02*
X166827619Y-57495238D01*
X199326299Y-99218539D02*
X199258956Y-99218539D01*
X199258956Y-99218539D02*
X199124269Y-99151196D01*
X199124269Y-99151196D02*
X199056925Y-99083852D01*
X199056925Y-99083852D02*
X198989582Y-98949165D01*
X198989582Y-98949165D02*
X198989582Y-98814478D01*
X198989582Y-98814478D02*
X199023253Y-98713463D01*
X199023253Y-98713463D02*
X199124269Y-98545104D01*
X199124269Y-98545104D02*
X199225284Y-98444089D01*
X199225284Y-98444089D02*
X199393643Y-98343074D01*
X199393643Y-98343074D02*
X199494658Y-98309402D01*
X199494658Y-98309402D02*
X199629345Y-98309402D01*
X199629345Y-98309402D02*
X199764032Y-98376746D01*
X199764032Y-98376746D02*
X199831375Y-98444089D01*
X199831375Y-98444089D02*
X199898719Y-98578776D01*
X199898719Y-98578776D02*
X199898719Y-98646120D01*
X199898719Y-99925646D02*
X199562001Y-99588929D01*
X199562001Y-99588929D02*
X200269108Y-98881822D01*
X200134421Y-100161349D02*
X200841528Y-99454242D01*
X200538482Y-100565410D02*
X200639498Y-99858303D01*
X201245589Y-99858303D02*
X200437467Y-99858303D01*
X199798719Y-95778776D02*
X199765047Y-95677761D01*
X199765047Y-95677761D02*
X199664032Y-95576746D01*
X199664032Y-95576746D02*
X199529345Y-95509402D01*
X199529345Y-95509402D02*
X199394658Y-95509402D01*
X199394658Y-95509402D02*
X199293643Y-95543074D01*
X199293643Y-95543074D02*
X199125284Y-95644089D01*
X199125284Y-95644089D02*
X199024269Y-95745104D01*
X199024269Y-95745104D02*
X198923253Y-95913463D01*
X198923253Y-95913463D02*
X198889582Y-96014478D01*
X198889582Y-96014478D02*
X198889582Y-96149165D01*
X198889582Y-96149165D02*
X198956925Y-96283852D01*
X198956925Y-96283852D02*
X199024269Y-96351196D01*
X199024269Y-96351196D02*
X199158956Y-96418539D01*
X199158956Y-96418539D02*
X199226299Y-96418539D01*
X199226299Y-96418539D02*
X199462001Y-96182837D01*
X199462001Y-96182837D02*
X199327314Y-96048150D01*
X199462001Y-96788929D02*
X200169108Y-96081822D01*
X200169108Y-96081822D02*
X199866062Y-97192990D01*
X199866062Y-97192990D02*
X200573169Y-96485883D01*
X200202780Y-97529707D02*
X200909887Y-96822600D01*
X200909887Y-96822600D02*
X201078245Y-96990959D01*
X201078245Y-96990959D02*
X201145589Y-97125646D01*
X201145589Y-97125646D02*
X201145589Y-97260333D01*
X201145589Y-97260333D02*
X201111917Y-97361348D01*
X201111917Y-97361348D02*
X201010902Y-97529707D01*
X201010902Y-97529707D02*
X200909887Y-97630722D01*
X200909887Y-97630722D02*
X200741528Y-97731738D01*
X200741528Y-97731738D02*
X200640513Y-97765409D01*
X200640513Y-97765409D02*
X200505826Y-97765409D01*
X200505826Y-97765409D02*
X200371139Y-97698066D01*
X200371139Y-97698066D02*
X200202780Y-97529707D01*
X175096666Y-61011904D02*
X175096666Y-60250000D01*
X174477619Y-59345238D02*
X174477619Y-59535714D01*
X174477619Y-59535714D02*
X174525238Y-59630952D01*
X174525238Y-59630952D02*
X174572857Y-59678571D01*
X174572857Y-59678571D02*
X174715714Y-59773809D01*
X174715714Y-59773809D02*
X174906190Y-59821428D01*
X174906190Y-59821428D02*
X175287142Y-59821428D01*
X175287142Y-59821428D02*
X175382380Y-59773809D01*
X175382380Y-59773809D02*
X175430000Y-59726190D01*
X175430000Y-59726190D02*
X175477619Y-59630952D01*
X175477619Y-59630952D02*
X175477619Y-59440476D01*
X175477619Y-59440476D02*
X175430000Y-59345238D01*
X175430000Y-59345238D02*
X175382380Y-59297619D01*
X175382380Y-59297619D02*
X175287142Y-59250000D01*
X175287142Y-59250000D02*
X175049047Y-59250000D01*
X175049047Y-59250000D02*
X174953809Y-59297619D01*
X174953809Y-59297619D02*
X174906190Y-59345238D01*
X174906190Y-59345238D02*
X174858571Y-59440476D01*
X174858571Y-59440476D02*
X174858571Y-59630952D01*
X174858571Y-59630952D02*
X174906190Y-59726190D01*
X174906190Y-59726190D02*
X174953809Y-59773809D01*
X174953809Y-59773809D02*
X175049047Y-59821428D01*
X174477619Y-58964285D02*
X175477619Y-58630952D01*
X175477619Y-58630952D02*
X174477619Y-58297619D01*
X174477619Y-57488095D02*
X174477619Y-57964285D01*
X174477619Y-57964285D02*
X174953809Y-58011904D01*
X174953809Y-58011904D02*
X174906190Y-57964285D01*
X174906190Y-57964285D02*
X174858571Y-57869047D01*
X174858571Y-57869047D02*
X174858571Y-57630952D01*
X174858571Y-57630952D02*
X174906190Y-57535714D01*
X174906190Y-57535714D02*
X174953809Y-57488095D01*
X174953809Y-57488095D02*
X175049047Y-57440476D01*
X175049047Y-57440476D02*
X175287142Y-57440476D01*
X175287142Y-57440476D02*
X175382380Y-57488095D01*
X175382380Y-57488095D02*
X175430000Y-57535714D01*
X175430000Y-57535714D02*
X175477619Y-57630952D01*
X175477619Y-57630952D02*
X175477619Y-57869047D01*
X175477619Y-57869047D02*
X175430000Y-57964285D01*
X175430000Y-57964285D02*
X175382380Y-58011904D01*
G36*
X194260528Y-93215404D02*
G01*
X193996615Y-93215404D01*
X194128571Y-92819534D01*
X194260528Y-93215404D01*
G37*
G36*
X195134867Y-92692102D02*
G01*
X195208557Y-92765792D01*
X195246867Y-92842412D01*
X195290166Y-93015607D01*
X195290166Y-93139629D01*
X195246867Y-93312823D01*
X195208556Y-93389444D01*
X195134866Y-93463135D01*
X195020918Y-93501119D01*
X194871738Y-93501119D01*
X194871738Y-92654119D01*
X195020918Y-92654119D01*
X195134867Y-92692102D01*
G37*
G36*
X197988018Y-92688109D02*
G01*
X198059494Y-92759586D01*
X198099690Y-92920369D01*
X198099690Y-93234866D01*
X198059494Y-93395650D01*
X197988017Y-93467128D01*
X197920036Y-93501119D01*
X197765678Y-93501119D01*
X197697696Y-93467128D01*
X197626219Y-93395650D01*
X197586024Y-93234866D01*
X197586024Y-92920370D01*
X197626220Y-92759585D01*
X197697697Y-92688109D01*
X197765677Y-92654119D01*
X197920036Y-92654119D01*
X197988018Y-92688109D01*
G37*
G36*
X200731048Y-94072357D02*
G01*
X193327643Y-94072357D01*
X193327643Y-93597302D01*
X193717976Y-93597302D01*
X193740882Y-93635948D01*
X193781047Y-93656075D01*
X193825716Y-93651294D01*
X193860709Y-93623121D01*
X193945615Y-93368404D01*
X194311528Y-93368404D01*
X194392808Y-93612245D01*
X194411904Y-93639722D01*
X194453417Y-93656896D01*
X194497625Y-93648899D01*
X194530491Y-93618272D01*
X194537957Y-93588966D01*
X194716320Y-93588966D01*
X194723378Y-93604421D01*
X194728165Y-93620724D01*
X194732563Y-93624535D01*
X194734982Y-93629831D01*
X194749276Y-93639017D01*
X194762117Y-93650144D01*
X194767878Y-93650972D01*
X194772775Y-93654119D01*
X194789766Y-93654119D01*
X194806585Y-93656537D01*
X194811880Y-93654119D01*
X195023740Y-93654119D01*
X195036214Y-93657297D01*
X195056211Y-93650630D01*
X195076438Y-93644692D01*
X195077416Y-93643562D01*
X195196473Y-93603876D01*
X195214400Y-93599977D01*
X195225454Y-93588922D01*
X195238293Y-93580000D01*
X195241056Y-93573320D01*
X195318738Y-93495637D01*
X195329806Y-93489064D01*
X195339230Y-93470215D01*
X195349336Y-93451708D01*
X195349229Y-93450217D01*
X195381376Y-93385922D01*
X195387815Y-93379869D01*
X195391226Y-93366222D01*
X195392390Y-93363896D01*
X195393884Y-93355591D01*
X195437828Y-93179814D01*
X195443166Y-93171510D01*
X195443166Y-93158465D01*
X195443550Y-93156930D01*
X195443166Y-93147483D01*
X195443166Y-93145809D01*
X195667955Y-93145809D01*
X195671119Y-93158464D01*
X195671119Y-93160047D01*
X195673780Y-93169112D01*
X195717717Y-93344857D01*
X195716769Y-93353643D01*
X195723058Y-93366221D01*
X195723690Y-93368748D01*
X195727963Y-93376032D01*
X195770142Y-93460389D01*
X195772879Y-93472971D01*
X195787798Y-93487891D01*
X195802142Y-93503311D01*
X195803588Y-93503680D01*
X195881087Y-93581180D01*
X195892593Y-93595471D01*
X195907423Y-93600414D01*
X195921147Y-93607908D01*
X195928356Y-93607392D01*
X196047661Y-93647160D01*
X196058489Y-93654119D01*
X196079559Y-93654119D01*
X196100634Y-93654881D01*
X196101920Y-93654119D01*
X196166597Y-93654119D01*
X196179071Y-93657297D01*
X196199068Y-93650630D01*
X196219295Y-93644692D01*
X196220273Y-93643562D01*
X196339328Y-93603877D01*
X196357258Y-93599977D01*
X196368313Y-93588920D01*
X196381150Y-93580000D01*
X196383913Y-93573321D01*
X196428538Y-93528695D01*
X196444574Y-93499327D01*
X196441369Y-93454516D01*
X196414445Y-93418553D01*
X196372353Y-93402853D01*
X196328455Y-93412403D01*
X196277723Y-93463135D01*
X196163775Y-93501119D01*
X196093366Y-93501119D01*
X195979418Y-93463136D01*
X195905728Y-93389444D01*
X195867417Y-93312823D01*
X195849473Y-93241047D01*
X197429860Y-93241047D01*
X197433024Y-93253702D01*
X197433024Y-93255285D01*
X197435685Y-93264350D01*
X197482635Y-93452146D01*
X197487165Y-93472971D01*
X197496120Y-93481926D01*
X197502527Y-93492846D01*
X197511675Y-93497482D01*
X197591505Y-93577312D01*
X197598078Y-93588378D01*
X197616915Y-93597796D01*
X197635433Y-93607908D01*
X197636924Y-93607801D01*
X197709720Y-93644199D01*
X197725156Y-93654119D01*
X197740790Y-93654119D01*
X197756177Y-93656888D01*
X197762853Y-93654119D01*
X197933977Y-93654119D01*
X197952215Y-93656088D01*
X197966195Y-93649097D01*
X197981200Y-93644692D01*
X197985934Y-93639228D01*
X198058963Y-93602713D01*
X198071543Y-93599977D01*
X198086445Y-93585074D01*
X198101883Y-93570715D01*
X198102253Y-93569266D01*
X198181821Y-93489697D01*
X198197339Y-93475107D01*
X198200410Y-93462822D01*
X198206479Y-93451708D01*
X198205747Y-93441474D01*
X198215800Y-93401262D01*
X198526293Y-93401262D01*
X198533283Y-93415242D01*
X198537689Y-93430247D01*
X198543152Y-93434981D01*
X198579666Y-93508009D01*
X198582403Y-93520589D01*
X198597310Y-93535496D01*
X198611666Y-93550930D01*
X198613113Y-93551300D01*
X198639122Y-93577309D01*
X198645697Y-93588378D01*
X198664551Y-93597805D01*
X198683051Y-93607907D01*
X198684541Y-93607800D01*
X198757339Y-93644199D01*
X198772775Y-93654119D01*
X198788409Y-93654119D01*
X198803796Y-93656888D01*
X198810472Y-93654119D01*
X198981596Y-93654119D01*
X198999834Y-93656088D01*
X199013814Y-93649097D01*
X199028819Y-93644692D01*
X199033553Y-93639228D01*
X199106582Y-93602713D01*
X199119163Y-93599977D01*
X199134074Y-93585065D01*
X199149502Y-93570715D01*
X199149872Y-93569266D01*
X199175881Y-93543256D01*
X199186949Y-93536683D01*
X199196373Y-93517834D01*
X199206479Y-93499327D01*
X199206372Y-93497836D01*
X199242770Y-93425040D01*
X199252690Y-93409605D01*
X199252690Y-93393971D01*
X199255459Y-93378584D01*
X199252690Y-93371907D01*
X199252690Y-92588966D01*
X199430606Y-92588966D01*
X199449268Y-92629831D01*
X199487061Y-92654119D01*
X199718738Y-92654119D01*
X199718738Y-93588619D01*
X199728165Y-93620724D01*
X199762117Y-93650144D01*
X199806585Y-93656537D01*
X199847450Y-93637875D01*
X199871738Y-93600082D01*
X199871738Y-92654119D01*
X200091952Y-92654119D01*
X200124057Y-92644692D01*
X200153477Y-92610740D01*
X200159870Y-92566272D01*
X200141208Y-92525407D01*
X200103415Y-92501119D01*
X199800710Y-92501119D01*
X199783891Y-92498701D01*
X199778596Y-92501119D01*
X199498524Y-92501119D01*
X199466419Y-92510546D01*
X199436999Y-92544498D01*
X199430606Y-92588966D01*
X199252690Y-92588966D01*
X199252690Y-92566619D01*
X199243263Y-92534514D01*
X199209311Y-92505094D01*
X199164843Y-92498701D01*
X199123978Y-92517363D01*
X199099690Y-92555156D01*
X199099690Y-93369082D01*
X199065699Y-93437064D01*
X199035636Y-93467128D01*
X198967655Y-93501119D01*
X198813297Y-93501119D01*
X198745315Y-93467128D01*
X198715253Y-93437065D01*
X198681262Y-93369083D01*
X198681262Y-92566619D01*
X198671835Y-92534514D01*
X198637883Y-92505094D01*
X198593415Y-92498701D01*
X198552550Y-92517363D01*
X198528262Y-92555156D01*
X198528262Y-93383023D01*
X198526293Y-93401262D01*
X198215800Y-93401262D01*
X198247352Y-93275052D01*
X198252690Y-93266748D01*
X198252690Y-93253703D01*
X198253074Y-93252168D01*
X198252689Y-93242721D01*
X198252690Y-92923542D01*
X198255854Y-92914190D01*
X198252690Y-92901533D01*
X198252690Y-92899952D01*
X198250028Y-92890887D01*
X198203073Y-92703067D01*
X198198548Y-92682266D01*
X198189596Y-92673314D01*
X198183187Y-92662390D01*
X198174033Y-92657751D01*
X198094209Y-92577927D01*
X198087636Y-92566860D01*
X198068791Y-92557437D01*
X198050281Y-92547330D01*
X198048789Y-92547436D01*
X197975993Y-92511038D01*
X197960558Y-92501119D01*
X197944924Y-92501119D01*
X197929537Y-92498350D01*
X197922861Y-92501119D01*
X197751736Y-92501119D01*
X197733498Y-92499150D01*
X197719516Y-92506140D01*
X197704514Y-92510546D01*
X197699780Y-92516008D01*
X197626748Y-92552524D01*
X197614171Y-92555261D01*
X197599275Y-92570156D01*
X197583831Y-92584523D01*
X197583460Y-92585971D01*
X197503894Y-92665537D01*
X197488375Y-92680130D01*
X197485304Y-92692413D01*
X197479235Y-92703528D01*
X197479966Y-92713762D01*
X197438361Y-92880183D01*
X197433024Y-92888489D01*
X197433024Y-92901533D01*
X197432640Y-92903070D01*
X197433024Y-92912516D01*
X197433024Y-93231694D01*
X197429860Y-93241047D01*
X195849473Y-93241047D01*
X195824119Y-93139629D01*
X195824119Y-93015608D01*
X195867417Y-92842413D01*
X195905729Y-92765791D01*
X195979418Y-92692101D01*
X196093366Y-92654119D01*
X196163775Y-92654119D01*
X196277723Y-92692101D01*
X196320350Y-92734729D01*
X196349718Y-92750764D01*
X196394529Y-92747560D01*
X196430493Y-92720637D01*
X196446193Y-92678545D01*
X196436643Y-92634647D01*
X196376052Y-92574056D01*
X196364548Y-92559767D01*
X196349718Y-92554823D01*
X196335995Y-92547330D01*
X196328784Y-92547845D01*
X196209480Y-92508077D01*
X196198653Y-92501119D01*
X196177583Y-92501119D01*
X196156507Y-92500357D01*
X196155221Y-92501119D01*
X196090544Y-92501119D01*
X196078070Y-92497941D01*
X196058064Y-92504609D01*
X196037847Y-92510546D01*
X196036868Y-92511674D01*
X195917809Y-92551361D01*
X195899885Y-92555261D01*
X195888831Y-92566314D01*
X195875992Y-92575238D01*
X195873228Y-92581917D01*
X195795546Y-92659599D01*
X195784479Y-92666173D01*
X195775056Y-92685017D01*
X195764949Y-92703528D01*
X195765055Y-92705019D01*
X195732908Y-92769314D01*
X195726470Y-92775368D01*
X195723058Y-92789013D01*
X195721895Y-92791341D01*
X195720400Y-92799646D01*
X195676456Y-92975421D01*
X195671119Y-92983727D01*
X195671119Y-92996771D01*
X195670735Y-92998308D01*
X195671119Y-93007754D01*
X195671119Y-93136456D01*
X195667955Y-93145809D01*
X195443166Y-93145809D01*
X195443166Y-93018780D01*
X195446330Y-93009428D01*
X195443166Y-92996772D01*
X195443166Y-92995190D01*
X195440504Y-92986125D01*
X195396567Y-92810378D01*
X195397516Y-92801593D01*
X195391226Y-92789014D01*
X195390595Y-92786488D01*
X195386321Y-92779203D01*
X195344141Y-92694843D01*
X195341405Y-92682266D01*
X195326509Y-92667370D01*
X195312143Y-92651926D01*
X195310694Y-92651555D01*
X195233195Y-92574056D01*
X195221691Y-92559767D01*
X195206861Y-92554823D01*
X195193138Y-92547330D01*
X195185927Y-92547845D01*
X195066623Y-92508077D01*
X195055796Y-92501119D01*
X195034726Y-92501119D01*
X195013650Y-92500357D01*
X195012364Y-92501119D01*
X194800710Y-92501119D01*
X194783891Y-92498701D01*
X194768435Y-92505759D01*
X194752133Y-92510546D01*
X194748321Y-92514944D01*
X194743026Y-92517363D01*
X194733839Y-92531657D01*
X194722713Y-92544498D01*
X194721884Y-92550259D01*
X194718738Y-92555156D01*
X194718737Y-92572147D01*
X194716320Y-92588966D01*
X194718738Y-92594260D01*
X194718737Y-93572147D01*
X194716320Y-93588966D01*
X194537957Y-93588966D01*
X194541582Y-93574737D01*
X194444962Y-93284878D01*
X194445584Y-93280557D01*
X194437949Y-93263839D01*
X194205521Y-92566555D01*
X194205833Y-92557937D01*
X194198556Y-92545659D01*
X194197667Y-92542992D01*
X194192966Y-92536229D01*
X194182927Y-92519290D01*
X194180267Y-92517957D01*
X194178571Y-92515516D01*
X194160366Y-92507984D01*
X194142762Y-92499163D01*
X194139807Y-92499479D01*
X194137058Y-92498342D01*
X194117669Y-92501849D01*
X194098093Y-92503945D01*
X194095777Y-92505809D01*
X194092850Y-92506339D01*
X194078436Y-92519770D01*
X194063100Y-92532118D01*
X194062159Y-92534938D01*
X194059984Y-92536966D01*
X194055120Y-92556057D01*
X193822708Y-93253292D01*
X193817951Y-93258783D01*
X193815730Y-93274225D01*
X193719185Y-93563863D01*
X193717976Y-93597302D01*
X193327643Y-93597302D01*
X193327643Y-91945143D01*
X200731048Y-91945143D01*
X200731048Y-94072357D01*
G37*
D13*
X152007142Y-96386428D02*
X152007142Y-94886428D01*
X152007142Y-94886428D02*
X152578571Y-94886428D01*
X152578571Y-94886428D02*
X152721428Y-94957857D01*
X152721428Y-94957857D02*
X152792857Y-95029285D01*
X152792857Y-95029285D02*
X152864285Y-95172142D01*
X152864285Y-95172142D02*
X152864285Y-95386428D01*
X152864285Y-95386428D02*
X152792857Y-95529285D01*
X152792857Y-95529285D02*
X152721428Y-95600714D01*
X152721428Y-95600714D02*
X152578571Y-95672142D01*
X152578571Y-95672142D02*
X152007142Y-95672142D01*
X153507142Y-96386428D02*
X153507142Y-94886428D01*
X153507142Y-95600714D02*
X154364285Y-95600714D01*
X154364285Y-96386428D02*
X154364285Y-94886428D01*
X155364286Y-94886428D02*
X155650000Y-94886428D01*
X155650000Y-94886428D02*
X155792857Y-94957857D01*
X155792857Y-94957857D02*
X155935714Y-95100714D01*
X155935714Y-95100714D02*
X156007143Y-95386428D01*
X156007143Y-95386428D02*
X156007143Y-95886428D01*
X156007143Y-95886428D02*
X155935714Y-96172142D01*
X155935714Y-96172142D02*
X155792857Y-96315000D01*
X155792857Y-96315000D02*
X155650000Y-96386428D01*
X155650000Y-96386428D02*
X155364286Y-96386428D01*
X155364286Y-96386428D02*
X155221429Y-96315000D01*
X155221429Y-96315000D02*
X155078571Y-96172142D01*
X155078571Y-96172142D02*
X155007143Y-95886428D01*
X155007143Y-95886428D02*
X155007143Y-95386428D01*
X155007143Y-95386428D02*
X155078571Y-95100714D01*
X155078571Y-95100714D02*
X155221429Y-94957857D01*
X155221429Y-94957857D02*
X155364286Y-94886428D01*
X156435715Y-94886428D02*
X157292858Y-94886428D01*
X156864286Y-96386428D02*
X156864286Y-94886428D01*
X158078572Y-94886428D02*
X158364286Y-94886428D01*
X158364286Y-94886428D02*
X158507143Y-94957857D01*
X158507143Y-94957857D02*
X158650000Y-95100714D01*
X158650000Y-95100714D02*
X158721429Y-95386428D01*
X158721429Y-95386428D02*
X158721429Y-95886428D01*
X158721429Y-95886428D02*
X158650000Y-96172142D01*
X158650000Y-96172142D02*
X158507143Y-96315000D01*
X158507143Y-96315000D02*
X158364286Y-96386428D01*
X158364286Y-96386428D02*
X158078572Y-96386428D01*
X158078572Y-96386428D02*
X157935715Y-96315000D01*
X157935715Y-96315000D02*
X157792857Y-96172142D01*
X157792857Y-96172142D02*
X157721429Y-95886428D01*
X157721429Y-95886428D02*
X157721429Y-95386428D01*
X157721429Y-95386428D02*
X157792857Y-95100714D01*
X157792857Y-95100714D02*
X157935715Y-94957857D01*
X157935715Y-94957857D02*
X158078572Y-94886428D01*
X159292858Y-96315000D02*
X159507144Y-96386428D01*
X159507144Y-96386428D02*
X159864286Y-96386428D01*
X159864286Y-96386428D02*
X160007144Y-96315000D01*
X160007144Y-96315000D02*
X160078572Y-96243571D01*
X160078572Y-96243571D02*
X160150001Y-96100714D01*
X160150001Y-96100714D02*
X160150001Y-95957857D01*
X160150001Y-95957857D02*
X160078572Y-95815000D01*
X160078572Y-95815000D02*
X160007144Y-95743571D01*
X160007144Y-95743571D02*
X159864286Y-95672142D01*
X159864286Y-95672142D02*
X159578572Y-95600714D01*
X159578572Y-95600714D02*
X159435715Y-95529285D01*
X159435715Y-95529285D02*
X159364286Y-95457857D01*
X159364286Y-95457857D02*
X159292858Y-95315000D01*
X159292858Y-95315000D02*
X159292858Y-95172142D01*
X159292858Y-95172142D02*
X159364286Y-95029285D01*
X159364286Y-95029285D02*
X159435715Y-94957857D01*
X159435715Y-94957857D02*
X159578572Y-94886428D01*
X159578572Y-94886428D02*
X159935715Y-94886428D01*
X159935715Y-94886428D02*
X160150001Y-94957857D01*
X160792857Y-95600714D02*
X161292857Y-95600714D01*
X161507143Y-96386428D02*
X160792857Y-96386428D01*
X160792857Y-96386428D02*
X160792857Y-94886428D01*
X160792857Y-94886428D02*
X161507143Y-94886428D01*
X162150000Y-96386428D02*
X162150000Y-94886428D01*
X162150000Y-94886428D02*
X163007143Y-96386428D01*
X163007143Y-96386428D02*
X163007143Y-94886428D01*
X163650001Y-96315000D02*
X163864287Y-96386428D01*
X163864287Y-96386428D02*
X164221429Y-96386428D01*
X164221429Y-96386428D02*
X164364287Y-96315000D01*
X164364287Y-96315000D02*
X164435715Y-96243571D01*
X164435715Y-96243571D02*
X164507144Y-96100714D01*
X164507144Y-96100714D02*
X164507144Y-95957857D01*
X164507144Y-95957857D02*
X164435715Y-95815000D01*
X164435715Y-95815000D02*
X164364287Y-95743571D01*
X164364287Y-95743571D02*
X164221429Y-95672142D01*
X164221429Y-95672142D02*
X163935715Y-95600714D01*
X163935715Y-95600714D02*
X163792858Y-95529285D01*
X163792858Y-95529285D02*
X163721429Y-95457857D01*
X163721429Y-95457857D02*
X163650001Y-95315000D01*
X163650001Y-95315000D02*
X163650001Y-95172142D01*
X163650001Y-95172142D02*
X163721429Y-95029285D01*
X163721429Y-95029285D02*
X163792858Y-94957857D01*
X163792858Y-94957857D02*
X163935715Y-94886428D01*
X163935715Y-94886428D02*
X164292858Y-94886428D01*
X164292858Y-94886428D02*
X164507144Y-94957857D01*
X165150000Y-96386428D02*
X165150000Y-94886428D01*
X165864286Y-96386428D02*
X165864286Y-94886428D01*
X165864286Y-94886428D02*
X166721429Y-96386428D01*
X166721429Y-96386428D02*
X166721429Y-94886428D01*
X168221430Y-94957857D02*
X168078573Y-94886428D01*
X168078573Y-94886428D02*
X167864287Y-94886428D01*
X167864287Y-94886428D02*
X167650001Y-94957857D01*
X167650001Y-94957857D02*
X167507144Y-95100714D01*
X167507144Y-95100714D02*
X167435715Y-95243571D01*
X167435715Y-95243571D02*
X167364287Y-95529285D01*
X167364287Y-95529285D02*
X167364287Y-95743571D01*
X167364287Y-95743571D02*
X167435715Y-96029285D01*
X167435715Y-96029285D02*
X167507144Y-96172142D01*
X167507144Y-96172142D02*
X167650001Y-96315000D01*
X167650001Y-96315000D02*
X167864287Y-96386428D01*
X167864287Y-96386428D02*
X168007144Y-96386428D01*
X168007144Y-96386428D02*
X168221430Y-96315000D01*
X168221430Y-96315000D02*
X168292858Y-96243571D01*
X168292858Y-96243571D02*
X168292858Y-95743571D01*
X168292858Y-95743571D02*
X168007144Y-95743571D01*
D11*
X199526299Y-104518539D02*
X199458956Y-104518539D01*
X199458956Y-104518539D02*
X199324269Y-104451196D01*
X199324269Y-104451196D02*
X199256925Y-104383852D01*
X199256925Y-104383852D02*
X199189582Y-104249165D01*
X199189582Y-104249165D02*
X199189582Y-104114478D01*
X199189582Y-104114478D02*
X199223253Y-104013463D01*
X199223253Y-104013463D02*
X199324269Y-103845104D01*
X199324269Y-103845104D02*
X199425284Y-103744089D01*
X199425284Y-103744089D02*
X199593643Y-103643074D01*
X199593643Y-103643074D02*
X199694658Y-103609402D01*
X199694658Y-103609402D02*
X199829345Y-103609402D01*
X199829345Y-103609402D02*
X199964032Y-103676746D01*
X199964032Y-103676746D02*
X200031375Y-103744089D01*
X200031375Y-103744089D02*
X200098719Y-103878776D01*
X200098719Y-103878776D02*
X200098719Y-103946120D01*
X199762001Y-104821585D02*
X199829345Y-104956272D01*
X199829345Y-104956272D02*
X199997704Y-105124631D01*
X199997704Y-105124631D02*
X200098719Y-105158303D01*
X200098719Y-105158303D02*
X200166062Y-105158303D01*
X200166062Y-105158303D02*
X200267078Y-105124631D01*
X200267078Y-105124631D02*
X200334421Y-105057287D01*
X200334421Y-105057287D02*
X200368093Y-104956272D01*
X200368093Y-104956272D02*
X200368093Y-104888929D01*
X200368093Y-104888929D02*
X200334421Y-104787913D01*
X200334421Y-104787913D02*
X200233406Y-104619555D01*
X200233406Y-104619555D02*
X200199734Y-104518539D01*
X200199734Y-104518539D02*
X200199734Y-104451196D01*
X200199734Y-104451196D02*
X200233406Y-104350181D01*
X200233406Y-104350181D02*
X200300749Y-104282837D01*
X200300749Y-104282837D02*
X200401765Y-104249165D01*
X200401765Y-104249165D02*
X200469108Y-104249165D01*
X200469108Y-104249165D02*
X200570123Y-104282837D01*
X200570123Y-104282837D02*
X200738482Y-104451196D01*
X200738482Y-104451196D02*
X200805826Y-104585883D01*
D14*
X152066190Y-94095238D02*
X152066190Y-92095238D01*
X152066190Y-92095238D02*
X152828095Y-92095238D01*
X152828095Y-92095238D02*
X153018571Y-92190476D01*
X153018571Y-92190476D02*
X153113809Y-92285714D01*
X153113809Y-92285714D02*
X153209047Y-92476190D01*
X153209047Y-92476190D02*
X153209047Y-92761904D01*
X153209047Y-92761904D02*
X153113809Y-92952380D01*
X153113809Y-92952380D02*
X153018571Y-93047619D01*
X153018571Y-93047619D02*
X152828095Y-93142857D01*
X152828095Y-93142857D02*
X152066190Y-93142857D01*
X155018571Y-94095238D02*
X154066190Y-94095238D01*
X154066190Y-94095238D02*
X154066190Y-92095238D01*
X155590000Y-93523809D02*
X156542381Y-93523809D01*
X155399524Y-94095238D02*
X156066190Y-92095238D01*
X156066190Y-92095238D02*
X156732857Y-94095238D01*
X158732857Y-94285714D02*
X158542381Y-94190476D01*
X158542381Y-94190476D02*
X158351905Y-94000000D01*
X158351905Y-94000000D02*
X158066191Y-93714285D01*
X158066191Y-93714285D02*
X157875714Y-93619047D01*
X157875714Y-93619047D02*
X157685238Y-93619047D01*
X157780476Y-94095238D02*
X157590000Y-94000000D01*
X157590000Y-94000000D02*
X157399524Y-93809523D01*
X157399524Y-93809523D02*
X157304286Y-93428571D01*
X157304286Y-93428571D02*
X157304286Y-92761904D01*
X157304286Y-92761904D02*
X157399524Y-92380952D01*
X157399524Y-92380952D02*
X157590000Y-92190476D01*
X157590000Y-92190476D02*
X157780476Y-92095238D01*
X157780476Y-92095238D02*
X158161429Y-92095238D01*
X158161429Y-92095238D02*
X158351905Y-92190476D01*
X158351905Y-92190476D02*
X158542381Y-92380952D01*
X158542381Y-92380952D02*
X158637619Y-92761904D01*
X158637619Y-92761904D02*
X158637619Y-93428571D01*
X158637619Y-93428571D02*
X158542381Y-93809523D01*
X158542381Y-93809523D02*
X158351905Y-94000000D01*
X158351905Y-94000000D02*
X158161429Y-94095238D01*
X158161429Y-94095238D02*
X157780476Y-94095238D01*
X160637619Y-93904761D02*
X160542381Y-94000000D01*
X160542381Y-94000000D02*
X160256667Y-94095238D01*
X160256667Y-94095238D02*
X160066191Y-94095238D01*
X160066191Y-94095238D02*
X159780476Y-94000000D01*
X159780476Y-94000000D02*
X159590000Y-93809523D01*
X159590000Y-93809523D02*
X159494762Y-93619047D01*
X159494762Y-93619047D02*
X159399524Y-93238095D01*
X159399524Y-93238095D02*
X159399524Y-92952380D01*
X159399524Y-92952380D02*
X159494762Y-92571428D01*
X159494762Y-92571428D02*
X159590000Y-92380952D01*
X159590000Y-92380952D02*
X159780476Y-92190476D01*
X159780476Y-92190476D02*
X160066191Y-92095238D01*
X160066191Y-92095238D02*
X160256667Y-92095238D01*
X160256667Y-92095238D02*
X160542381Y-92190476D01*
X160542381Y-92190476D02*
X160637619Y-92285714D01*
X161494762Y-94095238D02*
X161494762Y-92095238D01*
X161494762Y-93047619D02*
X162637619Y-93047619D01*
X162637619Y-94095238D02*
X162637619Y-92095238D01*
X163590000Y-93047619D02*
X164256667Y-93047619D01*
X164542381Y-94095238D02*
X163590000Y-94095238D01*
X163590000Y-94095238D02*
X163590000Y-92095238D01*
X163590000Y-92095238D02*
X164542381Y-92095238D01*
X165399524Y-94095238D02*
X165399524Y-92095238D01*
X166542381Y-94095238D02*
X165685238Y-92952380D01*
X166542381Y-92095238D02*
X165399524Y-93238095D01*
D11*
X198854895Y-101381822D02*
X199562001Y-100674715D01*
X199562001Y-100674715D02*
X199292627Y-101415494D01*
X199292627Y-101415494D02*
X200033406Y-101146120D01*
X200033406Y-101146120D02*
X199326299Y-101853226D01*
X199663017Y-102189944D02*
X200370123Y-101482837D01*
X199999734Y-102459317D02*
X200067077Y-102594004D01*
X200067077Y-102594004D02*
X200235436Y-102762363D01*
X200235436Y-102762363D02*
X200336451Y-102796035D01*
X200336451Y-102796035D02*
X200403795Y-102796035D01*
X200403795Y-102796035D02*
X200504810Y-102762363D01*
X200504810Y-102762363D02*
X200572154Y-102695020D01*
X200572154Y-102695020D02*
X200605825Y-102594004D01*
X200605825Y-102594004D02*
X200605825Y-102526661D01*
X200605825Y-102526661D02*
X200572154Y-102425646D01*
X200572154Y-102425646D02*
X200471138Y-102257287D01*
X200471138Y-102257287D02*
X200437467Y-102156272D01*
X200437467Y-102156272D02*
X200437467Y-102088928D01*
X200437467Y-102088928D02*
X200471138Y-101987913D01*
X200471138Y-101987913D02*
X200538482Y-101920569D01*
X200538482Y-101920569D02*
X200639497Y-101886898D01*
X200639497Y-101886898D02*
X200706841Y-101886898D01*
X200706841Y-101886898D02*
X200807856Y-101920569D01*
X200807856Y-101920569D02*
X200976215Y-102088928D01*
X200976215Y-102088928D02*
X201043558Y-102223615D01*
X201514963Y-102627676D02*
X201649650Y-102762363D01*
X201649650Y-102762363D02*
X201683321Y-102863379D01*
X201683321Y-102863379D02*
X201683321Y-102998066D01*
X201683321Y-102998066D02*
X201582306Y-103166424D01*
X201582306Y-103166424D02*
X201346604Y-103402127D01*
X201346604Y-103402127D02*
X201178245Y-103503142D01*
X201178245Y-103503142D02*
X201043558Y-103503142D01*
X201043558Y-103503142D02*
X200942543Y-103469470D01*
X200942543Y-103469470D02*
X200807856Y-103334783D01*
X200807856Y-103334783D02*
X200774184Y-103233768D01*
X200774184Y-103233768D02*
X200774184Y-103099081D01*
X200774184Y-103099081D02*
X200875199Y-102930722D01*
X200875199Y-102930722D02*
X201110902Y-102695020D01*
X201110902Y-102695020D02*
X201279260Y-102594005D01*
X201279260Y-102594005D02*
X201413947Y-102594005D01*
X201413947Y-102594005D02*
X201514963Y-102627676D01*
X169896666Y-60161904D02*
X169896666Y-59400000D01*
X170277619Y-59780952D02*
X169515714Y-59780952D01*
X169277619Y-58495238D02*
X169277619Y-58685714D01*
X169277619Y-58685714D02*
X169325238Y-58780952D01*
X169325238Y-58780952D02*
X169372857Y-58828571D01*
X169372857Y-58828571D02*
X169515714Y-58923809D01*
X169515714Y-58923809D02*
X169706190Y-58971428D01*
X169706190Y-58971428D02*
X170087142Y-58971428D01*
X170087142Y-58971428D02*
X170182380Y-58923809D01*
X170182380Y-58923809D02*
X170230000Y-58876190D01*
X170230000Y-58876190D02*
X170277619Y-58780952D01*
X170277619Y-58780952D02*
X170277619Y-58590476D01*
X170277619Y-58590476D02*
X170230000Y-58495238D01*
X170230000Y-58495238D02*
X170182380Y-58447619D01*
X170182380Y-58447619D02*
X170087142Y-58400000D01*
X170087142Y-58400000D02*
X169849047Y-58400000D01*
X169849047Y-58400000D02*
X169753809Y-58447619D01*
X169753809Y-58447619D02*
X169706190Y-58495238D01*
X169706190Y-58495238D02*
X169658571Y-58590476D01*
X169658571Y-58590476D02*
X169658571Y-58780952D01*
X169658571Y-58780952D02*
X169706190Y-58876190D01*
X169706190Y-58876190D02*
X169753809Y-58923809D01*
X169753809Y-58923809D02*
X169849047Y-58971428D01*
X169277619Y-58114285D02*
X170277619Y-57780952D01*
X170277619Y-57780952D02*
X169277619Y-57447619D01*
%TO.C,TP16*%
X176711905Y-80062619D02*
X177283333Y-80062619D01*
X176997619Y-81062619D02*
X176997619Y-80062619D01*
X177616667Y-81062619D02*
X177616667Y-80062619D01*
X177616667Y-80062619D02*
X177997619Y-80062619D01*
X177997619Y-80062619D02*
X178092857Y-80110238D01*
X178092857Y-80110238D02*
X178140476Y-80157857D01*
X178140476Y-80157857D02*
X178188095Y-80253095D01*
X178188095Y-80253095D02*
X178188095Y-80395952D01*
X178188095Y-80395952D02*
X178140476Y-80491190D01*
X178140476Y-80491190D02*
X178092857Y-80538809D01*
X178092857Y-80538809D02*
X177997619Y-80586428D01*
X177997619Y-80586428D02*
X177616667Y-80586428D01*
X179140476Y-81062619D02*
X178569048Y-81062619D01*
X178854762Y-81062619D02*
X178854762Y-80062619D01*
X178854762Y-80062619D02*
X178759524Y-80205476D01*
X178759524Y-80205476D02*
X178664286Y-80300714D01*
X178664286Y-80300714D02*
X178569048Y-80348333D01*
X179997619Y-80062619D02*
X179807143Y-80062619D01*
X179807143Y-80062619D02*
X179711905Y-80110238D01*
X179711905Y-80110238D02*
X179664286Y-80157857D01*
X179664286Y-80157857D02*
X179569048Y-80300714D01*
X179569048Y-80300714D02*
X179521429Y-80491190D01*
X179521429Y-80491190D02*
X179521429Y-80872142D01*
X179521429Y-80872142D02*
X179569048Y-80967380D01*
X179569048Y-80967380D02*
X179616667Y-81015000D01*
X179616667Y-81015000D02*
X179711905Y-81062619D01*
X179711905Y-81062619D02*
X179902381Y-81062619D01*
X179902381Y-81062619D02*
X179997619Y-81015000D01*
X179997619Y-81015000D02*
X180045238Y-80967380D01*
X180045238Y-80967380D02*
X180092857Y-80872142D01*
X180092857Y-80872142D02*
X180092857Y-80634047D01*
X180092857Y-80634047D02*
X180045238Y-80538809D01*
X180045238Y-80538809D02*
X179997619Y-80491190D01*
X179997619Y-80491190D02*
X179902381Y-80443571D01*
X179902381Y-80443571D02*
X179711905Y-80443571D01*
X179711905Y-80443571D02*
X179616667Y-80491190D01*
X179616667Y-80491190D02*
X179569048Y-80538809D01*
X179569048Y-80538809D02*
X179521429Y-80634047D01*
%TO.C,C31*%
X190657142Y-98367380D02*
X190609523Y-98415000D01*
X190609523Y-98415000D02*
X190466666Y-98462619D01*
X190466666Y-98462619D02*
X190371428Y-98462619D01*
X190371428Y-98462619D02*
X190228571Y-98415000D01*
X190228571Y-98415000D02*
X190133333Y-98319761D01*
X190133333Y-98319761D02*
X190085714Y-98224523D01*
X190085714Y-98224523D02*
X190038095Y-98034047D01*
X190038095Y-98034047D02*
X190038095Y-97891190D01*
X190038095Y-97891190D02*
X190085714Y-97700714D01*
X190085714Y-97700714D02*
X190133333Y-97605476D01*
X190133333Y-97605476D02*
X190228571Y-97510238D01*
X190228571Y-97510238D02*
X190371428Y-97462619D01*
X190371428Y-97462619D02*
X190466666Y-97462619D01*
X190466666Y-97462619D02*
X190609523Y-97510238D01*
X190609523Y-97510238D02*
X190657142Y-97557857D01*
X190990476Y-97462619D02*
X191609523Y-97462619D01*
X191609523Y-97462619D02*
X191276190Y-97843571D01*
X191276190Y-97843571D02*
X191419047Y-97843571D01*
X191419047Y-97843571D02*
X191514285Y-97891190D01*
X191514285Y-97891190D02*
X191561904Y-97938809D01*
X191561904Y-97938809D02*
X191609523Y-98034047D01*
X191609523Y-98034047D02*
X191609523Y-98272142D01*
X191609523Y-98272142D02*
X191561904Y-98367380D01*
X191561904Y-98367380D02*
X191514285Y-98415000D01*
X191514285Y-98415000D02*
X191419047Y-98462619D01*
X191419047Y-98462619D02*
X191133333Y-98462619D01*
X191133333Y-98462619D02*
X191038095Y-98415000D01*
X191038095Y-98415000D02*
X190990476Y-98367380D01*
X192561904Y-98462619D02*
X191990476Y-98462619D01*
X192276190Y-98462619D02*
X192276190Y-97462619D01*
X192276190Y-97462619D02*
X192180952Y-97605476D01*
X192180952Y-97605476D02*
X192085714Y-97700714D01*
X192085714Y-97700714D02*
X191990476Y-97748333D01*
%TO.C,R9*%
X178820833Y-84162619D02*
X178487500Y-83686428D01*
X178249405Y-84162619D02*
X178249405Y-83162619D01*
X178249405Y-83162619D02*
X178630357Y-83162619D01*
X178630357Y-83162619D02*
X178725595Y-83210238D01*
X178725595Y-83210238D02*
X178773214Y-83257857D01*
X178773214Y-83257857D02*
X178820833Y-83353095D01*
X178820833Y-83353095D02*
X178820833Y-83495952D01*
X178820833Y-83495952D02*
X178773214Y-83591190D01*
X178773214Y-83591190D02*
X178725595Y-83638809D01*
X178725595Y-83638809D02*
X178630357Y-83686428D01*
X178630357Y-83686428D02*
X178249405Y-83686428D01*
X179297024Y-84162619D02*
X179487500Y-84162619D01*
X179487500Y-84162619D02*
X179582738Y-84115000D01*
X179582738Y-84115000D02*
X179630357Y-84067380D01*
X179630357Y-84067380D02*
X179725595Y-83924523D01*
X179725595Y-83924523D02*
X179773214Y-83734047D01*
X179773214Y-83734047D02*
X179773214Y-83353095D01*
X179773214Y-83353095D02*
X179725595Y-83257857D01*
X179725595Y-83257857D02*
X179677976Y-83210238D01*
X179677976Y-83210238D02*
X179582738Y-83162619D01*
X179582738Y-83162619D02*
X179392262Y-83162619D01*
X179392262Y-83162619D02*
X179297024Y-83210238D01*
X179297024Y-83210238D02*
X179249405Y-83257857D01*
X179249405Y-83257857D02*
X179201786Y-83353095D01*
X179201786Y-83353095D02*
X179201786Y-83591190D01*
X179201786Y-83591190D02*
X179249405Y-83686428D01*
X179249405Y-83686428D02*
X179297024Y-83734047D01*
X179297024Y-83734047D02*
X179392262Y-83781666D01*
X179392262Y-83781666D02*
X179582738Y-83781666D01*
X179582738Y-83781666D02*
X179677976Y-83734047D01*
X179677976Y-83734047D02*
X179725595Y-83686428D01*
X179725595Y-83686428D02*
X179773214Y-83591190D01*
%TO.C,R8*%
X178141333Y-90124619D02*
X177808000Y-89648428D01*
X177569905Y-90124619D02*
X177569905Y-89124619D01*
X177569905Y-89124619D02*
X177950857Y-89124619D01*
X177950857Y-89124619D02*
X178046095Y-89172238D01*
X178046095Y-89172238D02*
X178093714Y-89219857D01*
X178093714Y-89219857D02*
X178141333Y-89315095D01*
X178141333Y-89315095D02*
X178141333Y-89457952D01*
X178141333Y-89457952D02*
X178093714Y-89553190D01*
X178093714Y-89553190D02*
X178046095Y-89600809D01*
X178046095Y-89600809D02*
X177950857Y-89648428D01*
X177950857Y-89648428D02*
X177569905Y-89648428D01*
X178712762Y-89553190D02*
X178617524Y-89505571D01*
X178617524Y-89505571D02*
X178569905Y-89457952D01*
X178569905Y-89457952D02*
X178522286Y-89362714D01*
X178522286Y-89362714D02*
X178522286Y-89315095D01*
X178522286Y-89315095D02*
X178569905Y-89219857D01*
X178569905Y-89219857D02*
X178617524Y-89172238D01*
X178617524Y-89172238D02*
X178712762Y-89124619D01*
X178712762Y-89124619D02*
X178903238Y-89124619D01*
X178903238Y-89124619D02*
X178998476Y-89172238D01*
X178998476Y-89172238D02*
X179046095Y-89219857D01*
X179046095Y-89219857D02*
X179093714Y-89315095D01*
X179093714Y-89315095D02*
X179093714Y-89362714D01*
X179093714Y-89362714D02*
X179046095Y-89457952D01*
X179046095Y-89457952D02*
X178998476Y-89505571D01*
X178998476Y-89505571D02*
X178903238Y-89553190D01*
X178903238Y-89553190D02*
X178712762Y-89553190D01*
X178712762Y-89553190D02*
X178617524Y-89600809D01*
X178617524Y-89600809D02*
X178569905Y-89648428D01*
X178569905Y-89648428D02*
X178522286Y-89743666D01*
X178522286Y-89743666D02*
X178522286Y-89934142D01*
X178522286Y-89934142D02*
X178569905Y-90029380D01*
X178569905Y-90029380D02*
X178617524Y-90077000D01*
X178617524Y-90077000D02*
X178712762Y-90124619D01*
X178712762Y-90124619D02*
X178903238Y-90124619D01*
X178903238Y-90124619D02*
X178998476Y-90077000D01*
X178998476Y-90077000D02*
X179046095Y-90029380D01*
X179046095Y-90029380D02*
X179093714Y-89934142D01*
X179093714Y-89934142D02*
X179093714Y-89743666D01*
X179093714Y-89743666D02*
X179046095Y-89648428D01*
X179046095Y-89648428D02*
X178998476Y-89600809D01*
X178998476Y-89600809D02*
X178903238Y-89553190D01*
%TO.C,R13*%
X176649142Y-108158619D02*
X176315809Y-107682428D01*
X176077714Y-108158619D02*
X176077714Y-107158619D01*
X176077714Y-107158619D02*
X176458666Y-107158619D01*
X176458666Y-107158619D02*
X176553904Y-107206238D01*
X176553904Y-107206238D02*
X176601523Y-107253857D01*
X176601523Y-107253857D02*
X176649142Y-107349095D01*
X176649142Y-107349095D02*
X176649142Y-107491952D01*
X176649142Y-107491952D02*
X176601523Y-107587190D01*
X176601523Y-107587190D02*
X176553904Y-107634809D01*
X176553904Y-107634809D02*
X176458666Y-107682428D01*
X176458666Y-107682428D02*
X176077714Y-107682428D01*
X177601523Y-108158619D02*
X177030095Y-108158619D01*
X177315809Y-108158619D02*
X177315809Y-107158619D01*
X177315809Y-107158619D02*
X177220571Y-107301476D01*
X177220571Y-107301476D02*
X177125333Y-107396714D01*
X177125333Y-107396714D02*
X177030095Y-107444333D01*
X177934857Y-107158619D02*
X178553904Y-107158619D01*
X178553904Y-107158619D02*
X178220571Y-107539571D01*
X178220571Y-107539571D02*
X178363428Y-107539571D01*
X178363428Y-107539571D02*
X178458666Y-107587190D01*
X178458666Y-107587190D02*
X178506285Y-107634809D01*
X178506285Y-107634809D02*
X178553904Y-107730047D01*
X178553904Y-107730047D02*
X178553904Y-107968142D01*
X178553904Y-107968142D02*
X178506285Y-108063380D01*
X178506285Y-108063380D02*
X178458666Y-108111000D01*
X178458666Y-108111000D02*
X178363428Y-108158619D01*
X178363428Y-108158619D02*
X178077714Y-108158619D01*
X178077714Y-108158619D02*
X177982476Y-108111000D01*
X177982476Y-108111000D02*
X177934857Y-108063380D01*
%TO.C,R11*%
X171061142Y-93426619D02*
X170727809Y-92950428D01*
X170489714Y-93426619D02*
X170489714Y-92426619D01*
X170489714Y-92426619D02*
X170870666Y-92426619D01*
X170870666Y-92426619D02*
X170965904Y-92474238D01*
X170965904Y-92474238D02*
X171013523Y-92521857D01*
X171013523Y-92521857D02*
X171061142Y-92617095D01*
X171061142Y-92617095D02*
X171061142Y-92759952D01*
X171061142Y-92759952D02*
X171013523Y-92855190D01*
X171013523Y-92855190D02*
X170965904Y-92902809D01*
X170965904Y-92902809D02*
X170870666Y-92950428D01*
X170870666Y-92950428D02*
X170489714Y-92950428D01*
X172013523Y-93426619D02*
X171442095Y-93426619D01*
X171727809Y-93426619D02*
X171727809Y-92426619D01*
X171727809Y-92426619D02*
X171632571Y-92569476D01*
X171632571Y-92569476D02*
X171537333Y-92664714D01*
X171537333Y-92664714D02*
X171442095Y-92712333D01*
X172965904Y-93426619D02*
X172394476Y-93426619D01*
X172680190Y-93426619D02*
X172680190Y-92426619D01*
X172680190Y-92426619D02*
X172584952Y-92569476D01*
X172584952Y-92569476D02*
X172489714Y-92664714D01*
X172489714Y-92664714D02*
X172394476Y-92712333D01*
%TO.C,R25*%
X181244642Y-73587619D02*
X180911309Y-73111428D01*
X180673214Y-73587619D02*
X180673214Y-72587619D01*
X180673214Y-72587619D02*
X181054166Y-72587619D01*
X181054166Y-72587619D02*
X181149404Y-72635238D01*
X181149404Y-72635238D02*
X181197023Y-72682857D01*
X181197023Y-72682857D02*
X181244642Y-72778095D01*
X181244642Y-72778095D02*
X181244642Y-72920952D01*
X181244642Y-72920952D02*
X181197023Y-73016190D01*
X181197023Y-73016190D02*
X181149404Y-73063809D01*
X181149404Y-73063809D02*
X181054166Y-73111428D01*
X181054166Y-73111428D02*
X180673214Y-73111428D01*
X181625595Y-72682857D02*
X181673214Y-72635238D01*
X181673214Y-72635238D02*
X181768452Y-72587619D01*
X181768452Y-72587619D02*
X182006547Y-72587619D01*
X182006547Y-72587619D02*
X182101785Y-72635238D01*
X182101785Y-72635238D02*
X182149404Y-72682857D01*
X182149404Y-72682857D02*
X182197023Y-72778095D01*
X182197023Y-72778095D02*
X182197023Y-72873333D01*
X182197023Y-72873333D02*
X182149404Y-73016190D01*
X182149404Y-73016190D02*
X181577976Y-73587619D01*
X181577976Y-73587619D02*
X182197023Y-73587619D01*
X183101785Y-72587619D02*
X182625595Y-72587619D01*
X182625595Y-72587619D02*
X182577976Y-73063809D01*
X182577976Y-73063809D02*
X182625595Y-73016190D01*
X182625595Y-73016190D02*
X182720833Y-72968571D01*
X182720833Y-72968571D02*
X182958928Y-72968571D01*
X182958928Y-72968571D02*
X183054166Y-73016190D01*
X183054166Y-73016190D02*
X183101785Y-73063809D01*
X183101785Y-73063809D02*
X183149404Y-73159047D01*
X183149404Y-73159047D02*
X183149404Y-73397142D01*
X183149404Y-73397142D02*
X183101785Y-73492380D01*
X183101785Y-73492380D02*
X183054166Y-73540000D01*
X183054166Y-73540000D02*
X182958928Y-73587619D01*
X182958928Y-73587619D02*
X182720833Y-73587619D01*
X182720833Y-73587619D02*
X182625595Y-73540000D01*
X182625595Y-73540000D02*
X182577976Y-73492380D01*
%TO.C,C17*%
X164323580Y-68225857D02*
X164371200Y-68273476D01*
X164371200Y-68273476D02*
X164418819Y-68416333D01*
X164418819Y-68416333D02*
X164418819Y-68511571D01*
X164418819Y-68511571D02*
X164371200Y-68654428D01*
X164371200Y-68654428D02*
X164275961Y-68749666D01*
X164275961Y-68749666D02*
X164180723Y-68797285D01*
X164180723Y-68797285D02*
X163990247Y-68844904D01*
X163990247Y-68844904D02*
X163847390Y-68844904D01*
X163847390Y-68844904D02*
X163656914Y-68797285D01*
X163656914Y-68797285D02*
X163561676Y-68749666D01*
X163561676Y-68749666D02*
X163466438Y-68654428D01*
X163466438Y-68654428D02*
X163418819Y-68511571D01*
X163418819Y-68511571D02*
X163418819Y-68416333D01*
X163418819Y-68416333D02*
X163466438Y-68273476D01*
X163466438Y-68273476D02*
X163514057Y-68225857D01*
X164418819Y-67273476D02*
X164418819Y-67844904D01*
X164418819Y-67559190D02*
X163418819Y-67559190D01*
X163418819Y-67559190D02*
X163561676Y-67654428D01*
X163561676Y-67654428D02*
X163656914Y-67749666D01*
X163656914Y-67749666D02*
X163704533Y-67844904D01*
X163418819Y-66940142D02*
X163418819Y-66273476D01*
X163418819Y-66273476D02*
X164418819Y-66702047D01*
%TO.C,TP4*%
X178213095Y-112587619D02*
X178784523Y-112587619D01*
X178498809Y-113587619D02*
X178498809Y-112587619D01*
X179117857Y-113587619D02*
X179117857Y-112587619D01*
X179117857Y-112587619D02*
X179498809Y-112587619D01*
X179498809Y-112587619D02*
X179594047Y-112635238D01*
X179594047Y-112635238D02*
X179641666Y-112682857D01*
X179641666Y-112682857D02*
X179689285Y-112778095D01*
X179689285Y-112778095D02*
X179689285Y-112920952D01*
X179689285Y-112920952D02*
X179641666Y-113016190D01*
X179641666Y-113016190D02*
X179594047Y-113063809D01*
X179594047Y-113063809D02*
X179498809Y-113111428D01*
X179498809Y-113111428D02*
X179117857Y-113111428D01*
X180546428Y-112920952D02*
X180546428Y-113587619D01*
X180308333Y-112540000D02*
X180070238Y-113254285D01*
X180070238Y-113254285D02*
X180689285Y-113254285D01*
%TO.C,R21*%
X197632142Y-69062619D02*
X197298809Y-68586428D01*
X197060714Y-69062619D02*
X197060714Y-68062619D01*
X197060714Y-68062619D02*
X197441666Y-68062619D01*
X197441666Y-68062619D02*
X197536904Y-68110238D01*
X197536904Y-68110238D02*
X197584523Y-68157857D01*
X197584523Y-68157857D02*
X197632142Y-68253095D01*
X197632142Y-68253095D02*
X197632142Y-68395952D01*
X197632142Y-68395952D02*
X197584523Y-68491190D01*
X197584523Y-68491190D02*
X197536904Y-68538809D01*
X197536904Y-68538809D02*
X197441666Y-68586428D01*
X197441666Y-68586428D02*
X197060714Y-68586428D01*
X198013095Y-68157857D02*
X198060714Y-68110238D01*
X198060714Y-68110238D02*
X198155952Y-68062619D01*
X198155952Y-68062619D02*
X198394047Y-68062619D01*
X198394047Y-68062619D02*
X198489285Y-68110238D01*
X198489285Y-68110238D02*
X198536904Y-68157857D01*
X198536904Y-68157857D02*
X198584523Y-68253095D01*
X198584523Y-68253095D02*
X198584523Y-68348333D01*
X198584523Y-68348333D02*
X198536904Y-68491190D01*
X198536904Y-68491190D02*
X197965476Y-69062619D01*
X197965476Y-69062619D02*
X198584523Y-69062619D01*
X199536904Y-69062619D02*
X198965476Y-69062619D01*
X199251190Y-69062619D02*
X199251190Y-68062619D01*
X199251190Y-68062619D02*
X199155952Y-68205476D01*
X199155952Y-68205476D02*
X199060714Y-68300714D01*
X199060714Y-68300714D02*
X198965476Y-68348333D01*
%TO.C,C25*%
X187494642Y-60767380D02*
X187447023Y-60815000D01*
X187447023Y-60815000D02*
X187304166Y-60862619D01*
X187304166Y-60862619D02*
X187208928Y-60862619D01*
X187208928Y-60862619D02*
X187066071Y-60815000D01*
X187066071Y-60815000D02*
X186970833Y-60719761D01*
X186970833Y-60719761D02*
X186923214Y-60624523D01*
X186923214Y-60624523D02*
X186875595Y-60434047D01*
X186875595Y-60434047D02*
X186875595Y-60291190D01*
X186875595Y-60291190D02*
X186923214Y-60100714D01*
X186923214Y-60100714D02*
X186970833Y-60005476D01*
X186970833Y-60005476D02*
X187066071Y-59910238D01*
X187066071Y-59910238D02*
X187208928Y-59862619D01*
X187208928Y-59862619D02*
X187304166Y-59862619D01*
X187304166Y-59862619D02*
X187447023Y-59910238D01*
X187447023Y-59910238D02*
X187494642Y-59957857D01*
X187875595Y-59957857D02*
X187923214Y-59910238D01*
X187923214Y-59910238D02*
X188018452Y-59862619D01*
X188018452Y-59862619D02*
X188256547Y-59862619D01*
X188256547Y-59862619D02*
X188351785Y-59910238D01*
X188351785Y-59910238D02*
X188399404Y-59957857D01*
X188399404Y-59957857D02*
X188447023Y-60053095D01*
X188447023Y-60053095D02*
X188447023Y-60148333D01*
X188447023Y-60148333D02*
X188399404Y-60291190D01*
X188399404Y-60291190D02*
X187827976Y-60862619D01*
X187827976Y-60862619D02*
X188447023Y-60862619D01*
X189351785Y-59862619D02*
X188875595Y-59862619D01*
X188875595Y-59862619D02*
X188827976Y-60338809D01*
X188827976Y-60338809D02*
X188875595Y-60291190D01*
X188875595Y-60291190D02*
X188970833Y-60243571D01*
X188970833Y-60243571D02*
X189208928Y-60243571D01*
X189208928Y-60243571D02*
X189304166Y-60291190D01*
X189304166Y-60291190D02*
X189351785Y-60338809D01*
X189351785Y-60338809D02*
X189399404Y-60434047D01*
X189399404Y-60434047D02*
X189399404Y-60672142D01*
X189399404Y-60672142D02*
X189351785Y-60767380D01*
X189351785Y-60767380D02*
X189304166Y-60815000D01*
X189304166Y-60815000D02*
X189208928Y-60862619D01*
X189208928Y-60862619D02*
X188970833Y-60862619D01*
X188970833Y-60862619D02*
X188875595Y-60815000D01*
X188875595Y-60815000D02*
X188827976Y-60767380D01*
%TO.C,U2*%
X176138095Y-84462619D02*
X176138095Y-85272142D01*
X176138095Y-85272142D02*
X176185714Y-85367380D01*
X176185714Y-85367380D02*
X176233333Y-85415000D01*
X176233333Y-85415000D02*
X176328571Y-85462619D01*
X176328571Y-85462619D02*
X176519047Y-85462619D01*
X176519047Y-85462619D02*
X176614285Y-85415000D01*
X176614285Y-85415000D02*
X176661904Y-85367380D01*
X176661904Y-85367380D02*
X176709523Y-85272142D01*
X176709523Y-85272142D02*
X176709523Y-84462619D01*
X177138095Y-84557857D02*
X177185714Y-84510238D01*
X177185714Y-84510238D02*
X177280952Y-84462619D01*
X177280952Y-84462619D02*
X177519047Y-84462619D01*
X177519047Y-84462619D02*
X177614285Y-84510238D01*
X177614285Y-84510238D02*
X177661904Y-84557857D01*
X177661904Y-84557857D02*
X177709523Y-84653095D01*
X177709523Y-84653095D02*
X177709523Y-84748333D01*
X177709523Y-84748333D02*
X177661904Y-84891190D01*
X177661904Y-84891190D02*
X177090476Y-85462619D01*
X177090476Y-85462619D02*
X177709523Y-85462619D01*
%TO.C,U11*%
X186261905Y-77562619D02*
X186261905Y-78372142D01*
X186261905Y-78372142D02*
X186309524Y-78467380D01*
X186309524Y-78467380D02*
X186357143Y-78515000D01*
X186357143Y-78515000D02*
X186452381Y-78562619D01*
X186452381Y-78562619D02*
X186642857Y-78562619D01*
X186642857Y-78562619D02*
X186738095Y-78515000D01*
X186738095Y-78515000D02*
X186785714Y-78467380D01*
X186785714Y-78467380D02*
X186833333Y-78372142D01*
X186833333Y-78372142D02*
X186833333Y-77562619D01*
X187833333Y-78562619D02*
X187261905Y-78562619D01*
X187547619Y-78562619D02*
X187547619Y-77562619D01*
X187547619Y-77562619D02*
X187452381Y-77705476D01*
X187452381Y-77705476D02*
X187357143Y-77800714D01*
X187357143Y-77800714D02*
X187261905Y-77848333D01*
X188785714Y-78562619D02*
X188214286Y-78562619D01*
X188500000Y-78562619D02*
X188500000Y-77562619D01*
X188500000Y-77562619D02*
X188404762Y-77705476D01*
X188404762Y-77705476D02*
X188309524Y-77800714D01*
X188309524Y-77800714D02*
X188214286Y-77848333D01*
%TO.C,C20*%
X163187142Y-73773380D02*
X163139523Y-73821000D01*
X163139523Y-73821000D02*
X162996666Y-73868619D01*
X162996666Y-73868619D02*
X162901428Y-73868619D01*
X162901428Y-73868619D02*
X162758571Y-73821000D01*
X162758571Y-73821000D02*
X162663333Y-73725761D01*
X162663333Y-73725761D02*
X162615714Y-73630523D01*
X162615714Y-73630523D02*
X162568095Y-73440047D01*
X162568095Y-73440047D02*
X162568095Y-73297190D01*
X162568095Y-73297190D02*
X162615714Y-73106714D01*
X162615714Y-73106714D02*
X162663333Y-73011476D01*
X162663333Y-73011476D02*
X162758571Y-72916238D01*
X162758571Y-72916238D02*
X162901428Y-72868619D01*
X162901428Y-72868619D02*
X162996666Y-72868619D01*
X162996666Y-72868619D02*
X163139523Y-72916238D01*
X163139523Y-72916238D02*
X163187142Y-72963857D01*
X163568095Y-72963857D02*
X163615714Y-72916238D01*
X163615714Y-72916238D02*
X163710952Y-72868619D01*
X163710952Y-72868619D02*
X163949047Y-72868619D01*
X163949047Y-72868619D02*
X164044285Y-72916238D01*
X164044285Y-72916238D02*
X164091904Y-72963857D01*
X164091904Y-72963857D02*
X164139523Y-73059095D01*
X164139523Y-73059095D02*
X164139523Y-73154333D01*
X164139523Y-73154333D02*
X164091904Y-73297190D01*
X164091904Y-73297190D02*
X163520476Y-73868619D01*
X163520476Y-73868619D02*
X164139523Y-73868619D01*
X164758571Y-72868619D02*
X164853809Y-72868619D01*
X164853809Y-72868619D02*
X164949047Y-72916238D01*
X164949047Y-72916238D02*
X164996666Y-72963857D01*
X164996666Y-72963857D02*
X165044285Y-73059095D01*
X165044285Y-73059095D02*
X165091904Y-73249571D01*
X165091904Y-73249571D02*
X165091904Y-73487666D01*
X165091904Y-73487666D02*
X165044285Y-73678142D01*
X165044285Y-73678142D02*
X164996666Y-73773380D01*
X164996666Y-73773380D02*
X164949047Y-73821000D01*
X164949047Y-73821000D02*
X164853809Y-73868619D01*
X164853809Y-73868619D02*
X164758571Y-73868619D01*
X164758571Y-73868619D02*
X164663333Y-73821000D01*
X164663333Y-73821000D02*
X164615714Y-73773380D01*
X164615714Y-73773380D02*
X164568095Y-73678142D01*
X164568095Y-73678142D02*
X164520476Y-73487666D01*
X164520476Y-73487666D02*
X164520476Y-73249571D01*
X164520476Y-73249571D02*
X164568095Y-73059095D01*
X164568095Y-73059095D02*
X164615714Y-72963857D01*
X164615714Y-72963857D02*
X164663333Y-72916238D01*
X164663333Y-72916238D02*
X164758571Y-72868619D01*
%TO.C,C23*%
X174229142Y-78567380D02*
X174181523Y-78615000D01*
X174181523Y-78615000D02*
X174038666Y-78662619D01*
X174038666Y-78662619D02*
X173943428Y-78662619D01*
X173943428Y-78662619D02*
X173800571Y-78615000D01*
X173800571Y-78615000D02*
X173705333Y-78519761D01*
X173705333Y-78519761D02*
X173657714Y-78424523D01*
X173657714Y-78424523D02*
X173610095Y-78234047D01*
X173610095Y-78234047D02*
X173610095Y-78091190D01*
X173610095Y-78091190D02*
X173657714Y-77900714D01*
X173657714Y-77900714D02*
X173705333Y-77805476D01*
X173705333Y-77805476D02*
X173800571Y-77710238D01*
X173800571Y-77710238D02*
X173943428Y-77662619D01*
X173943428Y-77662619D02*
X174038666Y-77662619D01*
X174038666Y-77662619D02*
X174181523Y-77710238D01*
X174181523Y-77710238D02*
X174229142Y-77757857D01*
X174610095Y-77757857D02*
X174657714Y-77710238D01*
X174657714Y-77710238D02*
X174752952Y-77662619D01*
X174752952Y-77662619D02*
X174991047Y-77662619D01*
X174991047Y-77662619D02*
X175086285Y-77710238D01*
X175086285Y-77710238D02*
X175133904Y-77757857D01*
X175133904Y-77757857D02*
X175181523Y-77853095D01*
X175181523Y-77853095D02*
X175181523Y-77948333D01*
X175181523Y-77948333D02*
X175133904Y-78091190D01*
X175133904Y-78091190D02*
X174562476Y-78662619D01*
X174562476Y-78662619D02*
X175181523Y-78662619D01*
X175514857Y-77662619D02*
X176133904Y-77662619D01*
X176133904Y-77662619D02*
X175800571Y-78043571D01*
X175800571Y-78043571D02*
X175943428Y-78043571D01*
X175943428Y-78043571D02*
X176038666Y-78091190D01*
X176038666Y-78091190D02*
X176086285Y-78138809D01*
X176086285Y-78138809D02*
X176133904Y-78234047D01*
X176133904Y-78234047D02*
X176133904Y-78472142D01*
X176133904Y-78472142D02*
X176086285Y-78567380D01*
X176086285Y-78567380D02*
X176038666Y-78615000D01*
X176038666Y-78615000D02*
X175943428Y-78662619D01*
X175943428Y-78662619D02*
X175657714Y-78662619D01*
X175657714Y-78662619D02*
X175562476Y-78615000D01*
X175562476Y-78615000D02*
X175514857Y-78567380D01*
%TO.C,R20*%
X160357142Y-59062619D02*
X160023809Y-58586428D01*
X159785714Y-59062619D02*
X159785714Y-58062619D01*
X159785714Y-58062619D02*
X160166666Y-58062619D01*
X160166666Y-58062619D02*
X160261904Y-58110238D01*
X160261904Y-58110238D02*
X160309523Y-58157857D01*
X160309523Y-58157857D02*
X160357142Y-58253095D01*
X160357142Y-58253095D02*
X160357142Y-58395952D01*
X160357142Y-58395952D02*
X160309523Y-58491190D01*
X160309523Y-58491190D02*
X160261904Y-58538809D01*
X160261904Y-58538809D02*
X160166666Y-58586428D01*
X160166666Y-58586428D02*
X159785714Y-58586428D01*
X160738095Y-58157857D02*
X160785714Y-58110238D01*
X160785714Y-58110238D02*
X160880952Y-58062619D01*
X160880952Y-58062619D02*
X161119047Y-58062619D01*
X161119047Y-58062619D02*
X161214285Y-58110238D01*
X161214285Y-58110238D02*
X161261904Y-58157857D01*
X161261904Y-58157857D02*
X161309523Y-58253095D01*
X161309523Y-58253095D02*
X161309523Y-58348333D01*
X161309523Y-58348333D02*
X161261904Y-58491190D01*
X161261904Y-58491190D02*
X160690476Y-59062619D01*
X160690476Y-59062619D02*
X161309523Y-59062619D01*
X161928571Y-58062619D02*
X162023809Y-58062619D01*
X162023809Y-58062619D02*
X162119047Y-58110238D01*
X162119047Y-58110238D02*
X162166666Y-58157857D01*
X162166666Y-58157857D02*
X162214285Y-58253095D01*
X162214285Y-58253095D02*
X162261904Y-58443571D01*
X162261904Y-58443571D02*
X162261904Y-58681666D01*
X162261904Y-58681666D02*
X162214285Y-58872142D01*
X162214285Y-58872142D02*
X162166666Y-58967380D01*
X162166666Y-58967380D02*
X162119047Y-59015000D01*
X162119047Y-59015000D02*
X162023809Y-59062619D01*
X162023809Y-59062619D02*
X161928571Y-59062619D01*
X161928571Y-59062619D02*
X161833333Y-59015000D01*
X161833333Y-59015000D02*
X161785714Y-58967380D01*
X161785714Y-58967380D02*
X161738095Y-58872142D01*
X161738095Y-58872142D02*
X161690476Y-58681666D01*
X161690476Y-58681666D02*
X161690476Y-58443571D01*
X161690476Y-58443571D02*
X161738095Y-58253095D01*
X161738095Y-58253095D02*
X161785714Y-58157857D01*
X161785714Y-58157857D02*
X161833333Y-58110238D01*
X161833333Y-58110238D02*
X161928571Y-58062619D01*
%TO.C,R24*%
X166489142Y-107142619D02*
X166155809Y-106666428D01*
X165917714Y-107142619D02*
X165917714Y-106142619D01*
X165917714Y-106142619D02*
X166298666Y-106142619D01*
X166298666Y-106142619D02*
X166393904Y-106190238D01*
X166393904Y-106190238D02*
X166441523Y-106237857D01*
X166441523Y-106237857D02*
X166489142Y-106333095D01*
X166489142Y-106333095D02*
X166489142Y-106475952D01*
X166489142Y-106475952D02*
X166441523Y-106571190D01*
X166441523Y-106571190D02*
X166393904Y-106618809D01*
X166393904Y-106618809D02*
X166298666Y-106666428D01*
X166298666Y-106666428D02*
X165917714Y-106666428D01*
X166870095Y-106237857D02*
X166917714Y-106190238D01*
X166917714Y-106190238D02*
X167012952Y-106142619D01*
X167012952Y-106142619D02*
X167251047Y-106142619D01*
X167251047Y-106142619D02*
X167346285Y-106190238D01*
X167346285Y-106190238D02*
X167393904Y-106237857D01*
X167393904Y-106237857D02*
X167441523Y-106333095D01*
X167441523Y-106333095D02*
X167441523Y-106428333D01*
X167441523Y-106428333D02*
X167393904Y-106571190D01*
X167393904Y-106571190D02*
X166822476Y-107142619D01*
X166822476Y-107142619D02*
X167441523Y-107142619D01*
X168298666Y-106475952D02*
X168298666Y-107142619D01*
X168060571Y-106095000D02*
X167822476Y-106809285D01*
X167822476Y-106809285D02*
X168441523Y-106809285D01*
%TO.C,R18*%
X176126342Y-109936619D02*
X175793009Y-109460428D01*
X175554914Y-109936619D02*
X175554914Y-108936619D01*
X175554914Y-108936619D02*
X175935866Y-108936619D01*
X175935866Y-108936619D02*
X176031104Y-108984238D01*
X176031104Y-108984238D02*
X176078723Y-109031857D01*
X176078723Y-109031857D02*
X176126342Y-109127095D01*
X176126342Y-109127095D02*
X176126342Y-109269952D01*
X176126342Y-109269952D02*
X176078723Y-109365190D01*
X176078723Y-109365190D02*
X176031104Y-109412809D01*
X176031104Y-109412809D02*
X175935866Y-109460428D01*
X175935866Y-109460428D02*
X175554914Y-109460428D01*
X177078723Y-109936619D02*
X176507295Y-109936619D01*
X176793009Y-109936619D02*
X176793009Y-108936619D01*
X176793009Y-108936619D02*
X176697771Y-109079476D01*
X176697771Y-109079476D02*
X176602533Y-109174714D01*
X176602533Y-109174714D02*
X176507295Y-109222333D01*
X177650152Y-109365190D02*
X177554914Y-109317571D01*
X177554914Y-109317571D02*
X177507295Y-109269952D01*
X177507295Y-109269952D02*
X177459676Y-109174714D01*
X177459676Y-109174714D02*
X177459676Y-109127095D01*
X177459676Y-109127095D02*
X177507295Y-109031857D01*
X177507295Y-109031857D02*
X177554914Y-108984238D01*
X177554914Y-108984238D02*
X177650152Y-108936619D01*
X177650152Y-108936619D02*
X177840628Y-108936619D01*
X177840628Y-108936619D02*
X177935866Y-108984238D01*
X177935866Y-108984238D02*
X177983485Y-109031857D01*
X177983485Y-109031857D02*
X178031104Y-109127095D01*
X178031104Y-109127095D02*
X178031104Y-109174714D01*
X178031104Y-109174714D02*
X177983485Y-109269952D01*
X177983485Y-109269952D02*
X177935866Y-109317571D01*
X177935866Y-109317571D02*
X177840628Y-109365190D01*
X177840628Y-109365190D02*
X177650152Y-109365190D01*
X177650152Y-109365190D02*
X177554914Y-109412809D01*
X177554914Y-109412809D02*
X177507295Y-109460428D01*
X177507295Y-109460428D02*
X177459676Y-109555666D01*
X177459676Y-109555666D02*
X177459676Y-109746142D01*
X177459676Y-109746142D02*
X177507295Y-109841380D01*
X177507295Y-109841380D02*
X177554914Y-109889000D01*
X177554914Y-109889000D02*
X177650152Y-109936619D01*
X177650152Y-109936619D02*
X177840628Y-109936619D01*
X177840628Y-109936619D02*
X177935866Y-109889000D01*
X177935866Y-109889000D02*
X177983485Y-109841380D01*
X177983485Y-109841380D02*
X178031104Y-109746142D01*
X178031104Y-109746142D02*
X178031104Y-109555666D01*
X178031104Y-109555666D02*
X177983485Y-109460428D01*
X177983485Y-109460428D02*
X177935866Y-109412809D01*
X177935866Y-109412809D02*
X177840628Y-109365190D01*
%TO.C,C14*%
X178757142Y-102729380D02*
X178709523Y-102777000D01*
X178709523Y-102777000D02*
X178566666Y-102824619D01*
X178566666Y-102824619D02*
X178471428Y-102824619D01*
X178471428Y-102824619D02*
X178328571Y-102777000D01*
X178328571Y-102777000D02*
X178233333Y-102681761D01*
X178233333Y-102681761D02*
X178185714Y-102586523D01*
X178185714Y-102586523D02*
X178138095Y-102396047D01*
X178138095Y-102396047D02*
X178138095Y-102253190D01*
X178138095Y-102253190D02*
X178185714Y-102062714D01*
X178185714Y-102062714D02*
X178233333Y-101967476D01*
X178233333Y-101967476D02*
X178328571Y-101872238D01*
X178328571Y-101872238D02*
X178471428Y-101824619D01*
X178471428Y-101824619D02*
X178566666Y-101824619D01*
X178566666Y-101824619D02*
X178709523Y-101872238D01*
X178709523Y-101872238D02*
X178757142Y-101919857D01*
X179709523Y-102824619D02*
X179138095Y-102824619D01*
X179423809Y-102824619D02*
X179423809Y-101824619D01*
X179423809Y-101824619D02*
X179328571Y-101967476D01*
X179328571Y-101967476D02*
X179233333Y-102062714D01*
X179233333Y-102062714D02*
X179138095Y-102110333D01*
X180566666Y-102157952D02*
X180566666Y-102824619D01*
X180328571Y-101777000D02*
X180090476Y-102491285D01*
X180090476Y-102491285D02*
X180709523Y-102491285D01*
%TO.C,H3*%
X155238095Y-107262619D02*
X155238095Y-106262619D01*
X155238095Y-106738809D02*
X155809523Y-106738809D01*
X155809523Y-107262619D02*
X155809523Y-106262619D01*
X156190476Y-106262619D02*
X156809523Y-106262619D01*
X156809523Y-106262619D02*
X156476190Y-106643571D01*
X156476190Y-106643571D02*
X156619047Y-106643571D01*
X156619047Y-106643571D02*
X156714285Y-106691190D01*
X156714285Y-106691190D02*
X156761904Y-106738809D01*
X156761904Y-106738809D02*
X156809523Y-106834047D01*
X156809523Y-106834047D02*
X156809523Y-107072142D01*
X156809523Y-107072142D02*
X156761904Y-107167380D01*
X156761904Y-107167380D02*
X156714285Y-107215000D01*
X156714285Y-107215000D02*
X156619047Y-107262619D01*
X156619047Y-107262619D02*
X156333333Y-107262619D01*
X156333333Y-107262619D02*
X156238095Y-107215000D01*
X156238095Y-107215000D02*
X156190476Y-107167380D01*
%TO.C,C15*%
X173093142Y-107809380D02*
X173045523Y-107857000D01*
X173045523Y-107857000D02*
X172902666Y-107904619D01*
X172902666Y-107904619D02*
X172807428Y-107904619D01*
X172807428Y-107904619D02*
X172664571Y-107857000D01*
X172664571Y-107857000D02*
X172569333Y-107761761D01*
X172569333Y-107761761D02*
X172521714Y-107666523D01*
X172521714Y-107666523D02*
X172474095Y-107476047D01*
X172474095Y-107476047D02*
X172474095Y-107333190D01*
X172474095Y-107333190D02*
X172521714Y-107142714D01*
X172521714Y-107142714D02*
X172569333Y-107047476D01*
X172569333Y-107047476D02*
X172664571Y-106952238D01*
X172664571Y-106952238D02*
X172807428Y-106904619D01*
X172807428Y-106904619D02*
X172902666Y-106904619D01*
X172902666Y-106904619D02*
X173045523Y-106952238D01*
X173045523Y-106952238D02*
X173093142Y-106999857D01*
X174045523Y-107904619D02*
X173474095Y-107904619D01*
X173759809Y-107904619D02*
X173759809Y-106904619D01*
X173759809Y-106904619D02*
X173664571Y-107047476D01*
X173664571Y-107047476D02*
X173569333Y-107142714D01*
X173569333Y-107142714D02*
X173474095Y-107190333D01*
X174950285Y-106904619D02*
X174474095Y-106904619D01*
X174474095Y-106904619D02*
X174426476Y-107380809D01*
X174426476Y-107380809D02*
X174474095Y-107333190D01*
X174474095Y-107333190D02*
X174569333Y-107285571D01*
X174569333Y-107285571D02*
X174807428Y-107285571D01*
X174807428Y-107285571D02*
X174902666Y-107333190D01*
X174902666Y-107333190D02*
X174950285Y-107380809D01*
X174950285Y-107380809D02*
X174997904Y-107476047D01*
X174997904Y-107476047D02*
X174997904Y-107714142D01*
X174997904Y-107714142D02*
X174950285Y-107809380D01*
X174950285Y-107809380D02*
X174902666Y-107857000D01*
X174902666Y-107857000D02*
X174807428Y-107904619D01*
X174807428Y-107904619D02*
X174569333Y-107904619D01*
X174569333Y-107904619D02*
X174474095Y-107857000D01*
X174474095Y-107857000D02*
X174426476Y-107809380D01*
%TO.C,U4*%
X170434095Y-100554619D02*
X170434095Y-101364142D01*
X170434095Y-101364142D02*
X170481714Y-101459380D01*
X170481714Y-101459380D02*
X170529333Y-101507000D01*
X170529333Y-101507000D02*
X170624571Y-101554619D01*
X170624571Y-101554619D02*
X170815047Y-101554619D01*
X170815047Y-101554619D02*
X170910285Y-101507000D01*
X170910285Y-101507000D02*
X170957904Y-101459380D01*
X170957904Y-101459380D02*
X171005523Y-101364142D01*
X171005523Y-101364142D02*
X171005523Y-100554619D01*
X171910285Y-100887952D02*
X171910285Y-101554619D01*
X171672190Y-100507000D02*
X171434095Y-101221285D01*
X171434095Y-101221285D02*
X172053142Y-101221285D01*
%TO.C,C9*%
X188233333Y-87234580D02*
X188185714Y-87282200D01*
X188185714Y-87282200D02*
X188042857Y-87329819D01*
X188042857Y-87329819D02*
X187947619Y-87329819D01*
X187947619Y-87329819D02*
X187804762Y-87282200D01*
X187804762Y-87282200D02*
X187709524Y-87186961D01*
X187709524Y-87186961D02*
X187661905Y-87091723D01*
X187661905Y-87091723D02*
X187614286Y-86901247D01*
X187614286Y-86901247D02*
X187614286Y-86758390D01*
X187614286Y-86758390D02*
X187661905Y-86567914D01*
X187661905Y-86567914D02*
X187709524Y-86472676D01*
X187709524Y-86472676D02*
X187804762Y-86377438D01*
X187804762Y-86377438D02*
X187947619Y-86329819D01*
X187947619Y-86329819D02*
X188042857Y-86329819D01*
X188042857Y-86329819D02*
X188185714Y-86377438D01*
X188185714Y-86377438D02*
X188233333Y-86425057D01*
X188709524Y-87329819D02*
X188900000Y-87329819D01*
X188900000Y-87329819D02*
X188995238Y-87282200D01*
X188995238Y-87282200D02*
X189042857Y-87234580D01*
X189042857Y-87234580D02*
X189138095Y-87091723D01*
X189138095Y-87091723D02*
X189185714Y-86901247D01*
X189185714Y-86901247D02*
X189185714Y-86520295D01*
X189185714Y-86520295D02*
X189138095Y-86425057D01*
X189138095Y-86425057D02*
X189090476Y-86377438D01*
X189090476Y-86377438D02*
X188995238Y-86329819D01*
X188995238Y-86329819D02*
X188804762Y-86329819D01*
X188804762Y-86329819D02*
X188709524Y-86377438D01*
X188709524Y-86377438D02*
X188661905Y-86425057D01*
X188661905Y-86425057D02*
X188614286Y-86520295D01*
X188614286Y-86520295D02*
X188614286Y-86758390D01*
X188614286Y-86758390D02*
X188661905Y-86853628D01*
X188661905Y-86853628D02*
X188709524Y-86901247D01*
X188709524Y-86901247D02*
X188804762Y-86948866D01*
X188804762Y-86948866D02*
X188995238Y-86948866D01*
X188995238Y-86948866D02*
X189090476Y-86901247D01*
X189090476Y-86901247D02*
X189138095Y-86853628D01*
X189138095Y-86853628D02*
X189185714Y-86758390D01*
%TO.C,R29*%
X194862619Y-105042857D02*
X194386428Y-105376190D01*
X194862619Y-105614285D02*
X193862619Y-105614285D01*
X193862619Y-105614285D02*
X193862619Y-105233333D01*
X193862619Y-105233333D02*
X193910238Y-105138095D01*
X193910238Y-105138095D02*
X193957857Y-105090476D01*
X193957857Y-105090476D02*
X194053095Y-105042857D01*
X194053095Y-105042857D02*
X194195952Y-105042857D01*
X194195952Y-105042857D02*
X194291190Y-105090476D01*
X194291190Y-105090476D02*
X194338809Y-105138095D01*
X194338809Y-105138095D02*
X194386428Y-105233333D01*
X194386428Y-105233333D02*
X194386428Y-105614285D01*
X193957857Y-104661904D02*
X193910238Y-104614285D01*
X193910238Y-104614285D02*
X193862619Y-104519047D01*
X193862619Y-104519047D02*
X193862619Y-104280952D01*
X193862619Y-104280952D02*
X193910238Y-104185714D01*
X193910238Y-104185714D02*
X193957857Y-104138095D01*
X193957857Y-104138095D02*
X194053095Y-104090476D01*
X194053095Y-104090476D02*
X194148333Y-104090476D01*
X194148333Y-104090476D02*
X194291190Y-104138095D01*
X194291190Y-104138095D02*
X194862619Y-104709523D01*
X194862619Y-104709523D02*
X194862619Y-104090476D01*
X194862619Y-103614285D02*
X194862619Y-103423809D01*
X194862619Y-103423809D02*
X194815000Y-103328571D01*
X194815000Y-103328571D02*
X194767380Y-103280952D01*
X194767380Y-103280952D02*
X194624523Y-103185714D01*
X194624523Y-103185714D02*
X194434047Y-103138095D01*
X194434047Y-103138095D02*
X194053095Y-103138095D01*
X194053095Y-103138095D02*
X193957857Y-103185714D01*
X193957857Y-103185714D02*
X193910238Y-103233333D01*
X193910238Y-103233333D02*
X193862619Y-103328571D01*
X193862619Y-103328571D02*
X193862619Y-103519047D01*
X193862619Y-103519047D02*
X193910238Y-103614285D01*
X193910238Y-103614285D02*
X193957857Y-103661904D01*
X193957857Y-103661904D02*
X194053095Y-103709523D01*
X194053095Y-103709523D02*
X194291190Y-103709523D01*
X194291190Y-103709523D02*
X194386428Y-103661904D01*
X194386428Y-103661904D02*
X194434047Y-103614285D01*
X194434047Y-103614285D02*
X194481666Y-103519047D01*
X194481666Y-103519047D02*
X194481666Y-103328571D01*
X194481666Y-103328571D02*
X194434047Y-103233333D01*
X194434047Y-103233333D02*
X194386428Y-103185714D01*
X194386428Y-103185714D02*
X194291190Y-103138095D01*
%TO.C,R23*%
X190962619Y-112982857D02*
X190486428Y-113316190D01*
X190962619Y-113554285D02*
X189962619Y-113554285D01*
X189962619Y-113554285D02*
X189962619Y-113173333D01*
X189962619Y-113173333D02*
X190010238Y-113078095D01*
X190010238Y-113078095D02*
X190057857Y-113030476D01*
X190057857Y-113030476D02*
X190153095Y-112982857D01*
X190153095Y-112982857D02*
X190295952Y-112982857D01*
X190295952Y-112982857D02*
X190391190Y-113030476D01*
X190391190Y-113030476D02*
X190438809Y-113078095D01*
X190438809Y-113078095D02*
X190486428Y-113173333D01*
X190486428Y-113173333D02*
X190486428Y-113554285D01*
X190057857Y-112601904D02*
X190010238Y-112554285D01*
X190010238Y-112554285D02*
X189962619Y-112459047D01*
X189962619Y-112459047D02*
X189962619Y-112220952D01*
X189962619Y-112220952D02*
X190010238Y-112125714D01*
X190010238Y-112125714D02*
X190057857Y-112078095D01*
X190057857Y-112078095D02*
X190153095Y-112030476D01*
X190153095Y-112030476D02*
X190248333Y-112030476D01*
X190248333Y-112030476D02*
X190391190Y-112078095D01*
X190391190Y-112078095D02*
X190962619Y-112649523D01*
X190962619Y-112649523D02*
X190962619Y-112030476D01*
X189962619Y-111697142D02*
X189962619Y-111078095D01*
X189962619Y-111078095D02*
X190343571Y-111411428D01*
X190343571Y-111411428D02*
X190343571Y-111268571D01*
X190343571Y-111268571D02*
X190391190Y-111173333D01*
X190391190Y-111173333D02*
X190438809Y-111125714D01*
X190438809Y-111125714D02*
X190534047Y-111078095D01*
X190534047Y-111078095D02*
X190772142Y-111078095D01*
X190772142Y-111078095D02*
X190867380Y-111125714D01*
X190867380Y-111125714D02*
X190915000Y-111173333D01*
X190915000Y-111173333D02*
X190962619Y-111268571D01*
X190962619Y-111268571D02*
X190962619Y-111554285D01*
X190962619Y-111554285D02*
X190915000Y-111649523D01*
X190915000Y-111649523D02*
X190867380Y-111697142D01*
%TO.C,R7*%
X170775333Y-81996619D02*
X170442000Y-81520428D01*
X170203905Y-81996619D02*
X170203905Y-80996619D01*
X170203905Y-80996619D02*
X170584857Y-80996619D01*
X170584857Y-80996619D02*
X170680095Y-81044238D01*
X170680095Y-81044238D02*
X170727714Y-81091857D01*
X170727714Y-81091857D02*
X170775333Y-81187095D01*
X170775333Y-81187095D02*
X170775333Y-81329952D01*
X170775333Y-81329952D02*
X170727714Y-81425190D01*
X170727714Y-81425190D02*
X170680095Y-81472809D01*
X170680095Y-81472809D02*
X170584857Y-81520428D01*
X170584857Y-81520428D02*
X170203905Y-81520428D01*
X171108667Y-80996619D02*
X171775333Y-80996619D01*
X171775333Y-80996619D02*
X171346762Y-81996619D01*
%TO.C,R5*%
X164425333Y-80472619D02*
X164092000Y-79996428D01*
X163853905Y-80472619D02*
X163853905Y-79472619D01*
X163853905Y-79472619D02*
X164234857Y-79472619D01*
X164234857Y-79472619D02*
X164330095Y-79520238D01*
X164330095Y-79520238D02*
X164377714Y-79567857D01*
X164377714Y-79567857D02*
X164425333Y-79663095D01*
X164425333Y-79663095D02*
X164425333Y-79805952D01*
X164425333Y-79805952D02*
X164377714Y-79901190D01*
X164377714Y-79901190D02*
X164330095Y-79948809D01*
X164330095Y-79948809D02*
X164234857Y-79996428D01*
X164234857Y-79996428D02*
X163853905Y-79996428D01*
X165330095Y-79472619D02*
X164853905Y-79472619D01*
X164853905Y-79472619D02*
X164806286Y-79948809D01*
X164806286Y-79948809D02*
X164853905Y-79901190D01*
X164853905Y-79901190D02*
X164949143Y-79853571D01*
X164949143Y-79853571D02*
X165187238Y-79853571D01*
X165187238Y-79853571D02*
X165282476Y-79901190D01*
X165282476Y-79901190D02*
X165330095Y-79948809D01*
X165330095Y-79948809D02*
X165377714Y-80044047D01*
X165377714Y-80044047D02*
X165377714Y-80282142D01*
X165377714Y-80282142D02*
X165330095Y-80377380D01*
X165330095Y-80377380D02*
X165282476Y-80425000D01*
X165282476Y-80425000D02*
X165187238Y-80472619D01*
X165187238Y-80472619D02*
X164949143Y-80472619D01*
X164949143Y-80472619D02*
X164853905Y-80425000D01*
X164853905Y-80425000D02*
X164806286Y-80377380D01*
%TO.C,TP20*%
X180861905Y-94662619D02*
X181433333Y-94662619D01*
X181147619Y-95662619D02*
X181147619Y-94662619D01*
X181766667Y-95662619D02*
X181766667Y-94662619D01*
X181766667Y-94662619D02*
X182147619Y-94662619D01*
X182147619Y-94662619D02*
X182242857Y-94710238D01*
X182242857Y-94710238D02*
X182290476Y-94757857D01*
X182290476Y-94757857D02*
X182338095Y-94853095D01*
X182338095Y-94853095D02*
X182338095Y-94995952D01*
X182338095Y-94995952D02*
X182290476Y-95091190D01*
X182290476Y-95091190D02*
X182242857Y-95138809D01*
X182242857Y-95138809D02*
X182147619Y-95186428D01*
X182147619Y-95186428D02*
X181766667Y-95186428D01*
X182719048Y-94757857D02*
X182766667Y-94710238D01*
X182766667Y-94710238D02*
X182861905Y-94662619D01*
X182861905Y-94662619D02*
X183100000Y-94662619D01*
X183100000Y-94662619D02*
X183195238Y-94710238D01*
X183195238Y-94710238D02*
X183242857Y-94757857D01*
X183242857Y-94757857D02*
X183290476Y-94853095D01*
X183290476Y-94853095D02*
X183290476Y-94948333D01*
X183290476Y-94948333D02*
X183242857Y-95091190D01*
X183242857Y-95091190D02*
X182671429Y-95662619D01*
X182671429Y-95662619D02*
X183290476Y-95662619D01*
X183909524Y-94662619D02*
X184004762Y-94662619D01*
X184004762Y-94662619D02*
X184100000Y-94710238D01*
X184100000Y-94710238D02*
X184147619Y-94757857D01*
X184147619Y-94757857D02*
X184195238Y-94853095D01*
X184195238Y-94853095D02*
X184242857Y-95043571D01*
X184242857Y-95043571D02*
X184242857Y-95281666D01*
X184242857Y-95281666D02*
X184195238Y-95472142D01*
X184195238Y-95472142D02*
X184147619Y-95567380D01*
X184147619Y-95567380D02*
X184100000Y-95615000D01*
X184100000Y-95615000D02*
X184004762Y-95662619D01*
X184004762Y-95662619D02*
X183909524Y-95662619D01*
X183909524Y-95662619D02*
X183814286Y-95615000D01*
X183814286Y-95615000D02*
X183766667Y-95567380D01*
X183766667Y-95567380D02*
X183719048Y-95472142D01*
X183719048Y-95472142D02*
X183671429Y-95281666D01*
X183671429Y-95281666D02*
X183671429Y-95043571D01*
X183671429Y-95043571D02*
X183719048Y-94853095D01*
X183719048Y-94853095D02*
X183766667Y-94757857D01*
X183766667Y-94757857D02*
X183814286Y-94710238D01*
X183814286Y-94710238D02*
X183909524Y-94662619D01*
%TO.C,H2*%
X196238095Y-58262619D02*
X196238095Y-57262619D01*
X196238095Y-57738809D02*
X196809523Y-57738809D01*
X196809523Y-58262619D02*
X196809523Y-57262619D01*
X197238095Y-57357857D02*
X197285714Y-57310238D01*
X197285714Y-57310238D02*
X197380952Y-57262619D01*
X197380952Y-57262619D02*
X197619047Y-57262619D01*
X197619047Y-57262619D02*
X197714285Y-57310238D01*
X197714285Y-57310238D02*
X197761904Y-57357857D01*
X197761904Y-57357857D02*
X197809523Y-57453095D01*
X197809523Y-57453095D02*
X197809523Y-57548333D01*
X197809523Y-57548333D02*
X197761904Y-57691190D01*
X197761904Y-57691190D02*
X197190476Y-58262619D01*
X197190476Y-58262619D02*
X197809523Y-58262619D01*
%TO.C,R27*%
X182557142Y-87862619D02*
X182223809Y-87386428D01*
X181985714Y-87862619D02*
X181985714Y-86862619D01*
X181985714Y-86862619D02*
X182366666Y-86862619D01*
X182366666Y-86862619D02*
X182461904Y-86910238D01*
X182461904Y-86910238D02*
X182509523Y-86957857D01*
X182509523Y-86957857D02*
X182557142Y-87053095D01*
X182557142Y-87053095D02*
X182557142Y-87195952D01*
X182557142Y-87195952D02*
X182509523Y-87291190D01*
X182509523Y-87291190D02*
X182461904Y-87338809D01*
X182461904Y-87338809D02*
X182366666Y-87386428D01*
X182366666Y-87386428D02*
X181985714Y-87386428D01*
X182938095Y-86957857D02*
X182985714Y-86910238D01*
X182985714Y-86910238D02*
X183080952Y-86862619D01*
X183080952Y-86862619D02*
X183319047Y-86862619D01*
X183319047Y-86862619D02*
X183414285Y-86910238D01*
X183414285Y-86910238D02*
X183461904Y-86957857D01*
X183461904Y-86957857D02*
X183509523Y-87053095D01*
X183509523Y-87053095D02*
X183509523Y-87148333D01*
X183509523Y-87148333D02*
X183461904Y-87291190D01*
X183461904Y-87291190D02*
X182890476Y-87862619D01*
X182890476Y-87862619D02*
X183509523Y-87862619D01*
X183842857Y-86862619D02*
X184509523Y-86862619D01*
X184509523Y-86862619D02*
X184080952Y-87862619D01*
%TO.C,R22*%
X160532619Y-110805357D02*
X160056428Y-111138690D01*
X160532619Y-111376785D02*
X159532619Y-111376785D01*
X159532619Y-111376785D02*
X159532619Y-110995833D01*
X159532619Y-110995833D02*
X159580238Y-110900595D01*
X159580238Y-110900595D02*
X159627857Y-110852976D01*
X159627857Y-110852976D02*
X159723095Y-110805357D01*
X159723095Y-110805357D02*
X159865952Y-110805357D01*
X159865952Y-110805357D02*
X159961190Y-110852976D01*
X159961190Y-110852976D02*
X160008809Y-110900595D01*
X160008809Y-110900595D02*
X160056428Y-110995833D01*
X160056428Y-110995833D02*
X160056428Y-111376785D01*
X159627857Y-110424404D02*
X159580238Y-110376785D01*
X159580238Y-110376785D02*
X159532619Y-110281547D01*
X159532619Y-110281547D02*
X159532619Y-110043452D01*
X159532619Y-110043452D02*
X159580238Y-109948214D01*
X159580238Y-109948214D02*
X159627857Y-109900595D01*
X159627857Y-109900595D02*
X159723095Y-109852976D01*
X159723095Y-109852976D02*
X159818333Y-109852976D01*
X159818333Y-109852976D02*
X159961190Y-109900595D01*
X159961190Y-109900595D02*
X160532619Y-110472023D01*
X160532619Y-110472023D02*
X160532619Y-109852976D01*
X159627857Y-109472023D02*
X159580238Y-109424404D01*
X159580238Y-109424404D02*
X159532619Y-109329166D01*
X159532619Y-109329166D02*
X159532619Y-109091071D01*
X159532619Y-109091071D02*
X159580238Y-108995833D01*
X159580238Y-108995833D02*
X159627857Y-108948214D01*
X159627857Y-108948214D02*
X159723095Y-108900595D01*
X159723095Y-108900595D02*
X159818333Y-108900595D01*
X159818333Y-108900595D02*
X159961190Y-108948214D01*
X159961190Y-108948214D02*
X160532619Y-109519642D01*
X160532619Y-109519642D02*
X160532619Y-108900595D01*
%TO.C,R4*%
X178575833Y-73362619D02*
X178242500Y-72886428D01*
X178004405Y-73362619D02*
X178004405Y-72362619D01*
X178004405Y-72362619D02*
X178385357Y-72362619D01*
X178385357Y-72362619D02*
X178480595Y-72410238D01*
X178480595Y-72410238D02*
X178528214Y-72457857D01*
X178528214Y-72457857D02*
X178575833Y-72553095D01*
X178575833Y-72553095D02*
X178575833Y-72695952D01*
X178575833Y-72695952D02*
X178528214Y-72791190D01*
X178528214Y-72791190D02*
X178480595Y-72838809D01*
X178480595Y-72838809D02*
X178385357Y-72886428D01*
X178385357Y-72886428D02*
X178004405Y-72886428D01*
X179432976Y-72695952D02*
X179432976Y-73362619D01*
X179194881Y-72315000D02*
X178956786Y-73029285D01*
X178956786Y-73029285D02*
X179575833Y-73029285D01*
%TO.C,C6*%
X175655333Y-88765380D02*
X175607714Y-88813000D01*
X175607714Y-88813000D02*
X175464857Y-88860619D01*
X175464857Y-88860619D02*
X175369619Y-88860619D01*
X175369619Y-88860619D02*
X175226762Y-88813000D01*
X175226762Y-88813000D02*
X175131524Y-88717761D01*
X175131524Y-88717761D02*
X175083905Y-88622523D01*
X175083905Y-88622523D02*
X175036286Y-88432047D01*
X175036286Y-88432047D02*
X175036286Y-88289190D01*
X175036286Y-88289190D02*
X175083905Y-88098714D01*
X175083905Y-88098714D02*
X175131524Y-88003476D01*
X175131524Y-88003476D02*
X175226762Y-87908238D01*
X175226762Y-87908238D02*
X175369619Y-87860619D01*
X175369619Y-87860619D02*
X175464857Y-87860619D01*
X175464857Y-87860619D02*
X175607714Y-87908238D01*
X175607714Y-87908238D02*
X175655333Y-87955857D01*
X176512476Y-87860619D02*
X176322000Y-87860619D01*
X176322000Y-87860619D02*
X176226762Y-87908238D01*
X176226762Y-87908238D02*
X176179143Y-87955857D01*
X176179143Y-87955857D02*
X176083905Y-88098714D01*
X176083905Y-88098714D02*
X176036286Y-88289190D01*
X176036286Y-88289190D02*
X176036286Y-88670142D01*
X176036286Y-88670142D02*
X176083905Y-88765380D01*
X176083905Y-88765380D02*
X176131524Y-88813000D01*
X176131524Y-88813000D02*
X176226762Y-88860619D01*
X176226762Y-88860619D02*
X176417238Y-88860619D01*
X176417238Y-88860619D02*
X176512476Y-88813000D01*
X176512476Y-88813000D02*
X176560095Y-88765380D01*
X176560095Y-88765380D02*
X176607714Y-88670142D01*
X176607714Y-88670142D02*
X176607714Y-88432047D01*
X176607714Y-88432047D02*
X176560095Y-88336809D01*
X176560095Y-88336809D02*
X176512476Y-88289190D01*
X176512476Y-88289190D02*
X176417238Y-88241571D01*
X176417238Y-88241571D02*
X176226762Y-88241571D01*
X176226762Y-88241571D02*
X176131524Y-88289190D01*
X176131524Y-88289190D02*
X176083905Y-88336809D01*
X176083905Y-88336809D02*
X176036286Y-88432047D01*
%TO.C,C21*%
X152667130Y-71240857D02*
X152714750Y-71288476D01*
X152714750Y-71288476D02*
X152762369Y-71431333D01*
X152762369Y-71431333D02*
X152762369Y-71526571D01*
X152762369Y-71526571D02*
X152714750Y-71669428D01*
X152714750Y-71669428D02*
X152619511Y-71764666D01*
X152619511Y-71764666D02*
X152524273Y-71812285D01*
X152524273Y-71812285D02*
X152333797Y-71859904D01*
X152333797Y-71859904D02*
X152190940Y-71859904D01*
X152190940Y-71859904D02*
X152000464Y-71812285D01*
X152000464Y-71812285D02*
X151905226Y-71764666D01*
X151905226Y-71764666D02*
X151809988Y-71669428D01*
X151809988Y-71669428D02*
X151762369Y-71526571D01*
X151762369Y-71526571D02*
X151762369Y-71431333D01*
X151762369Y-71431333D02*
X151809988Y-71288476D01*
X151809988Y-71288476D02*
X151857607Y-71240857D01*
X151857607Y-70859904D02*
X151809988Y-70812285D01*
X151809988Y-70812285D02*
X151762369Y-70717047D01*
X151762369Y-70717047D02*
X151762369Y-70478952D01*
X151762369Y-70478952D02*
X151809988Y-70383714D01*
X151809988Y-70383714D02*
X151857607Y-70336095D01*
X151857607Y-70336095D02*
X151952845Y-70288476D01*
X151952845Y-70288476D02*
X152048083Y-70288476D01*
X152048083Y-70288476D02*
X152190940Y-70336095D01*
X152190940Y-70336095D02*
X152762369Y-70907523D01*
X152762369Y-70907523D02*
X152762369Y-70288476D01*
X152762369Y-69336095D02*
X152762369Y-69907523D01*
X152762369Y-69621809D02*
X151762369Y-69621809D01*
X151762369Y-69621809D02*
X151905226Y-69717047D01*
X151905226Y-69717047D02*
X152000464Y-69812285D01*
X152000464Y-69812285D02*
X152048083Y-69907523D01*
%TO.C,TP14*%
X182236905Y-59262619D02*
X182808333Y-59262619D01*
X182522619Y-60262619D02*
X182522619Y-59262619D01*
X183141667Y-60262619D02*
X183141667Y-59262619D01*
X183141667Y-59262619D02*
X183522619Y-59262619D01*
X183522619Y-59262619D02*
X183617857Y-59310238D01*
X183617857Y-59310238D02*
X183665476Y-59357857D01*
X183665476Y-59357857D02*
X183713095Y-59453095D01*
X183713095Y-59453095D02*
X183713095Y-59595952D01*
X183713095Y-59595952D02*
X183665476Y-59691190D01*
X183665476Y-59691190D02*
X183617857Y-59738809D01*
X183617857Y-59738809D02*
X183522619Y-59786428D01*
X183522619Y-59786428D02*
X183141667Y-59786428D01*
X184665476Y-60262619D02*
X184094048Y-60262619D01*
X184379762Y-60262619D02*
X184379762Y-59262619D01*
X184379762Y-59262619D02*
X184284524Y-59405476D01*
X184284524Y-59405476D02*
X184189286Y-59500714D01*
X184189286Y-59500714D02*
X184094048Y-59548333D01*
X185522619Y-59595952D02*
X185522619Y-60262619D01*
X185284524Y-59215000D02*
X185046429Y-59929285D01*
X185046429Y-59929285D02*
X185665476Y-59929285D01*
%TO.C,C16*%
X173093142Y-109841380D02*
X173045523Y-109889000D01*
X173045523Y-109889000D02*
X172902666Y-109936619D01*
X172902666Y-109936619D02*
X172807428Y-109936619D01*
X172807428Y-109936619D02*
X172664571Y-109889000D01*
X172664571Y-109889000D02*
X172569333Y-109793761D01*
X172569333Y-109793761D02*
X172521714Y-109698523D01*
X172521714Y-109698523D02*
X172474095Y-109508047D01*
X172474095Y-109508047D02*
X172474095Y-109365190D01*
X172474095Y-109365190D02*
X172521714Y-109174714D01*
X172521714Y-109174714D02*
X172569333Y-109079476D01*
X172569333Y-109079476D02*
X172664571Y-108984238D01*
X172664571Y-108984238D02*
X172807428Y-108936619D01*
X172807428Y-108936619D02*
X172902666Y-108936619D01*
X172902666Y-108936619D02*
X173045523Y-108984238D01*
X173045523Y-108984238D02*
X173093142Y-109031857D01*
X174045523Y-109936619D02*
X173474095Y-109936619D01*
X173759809Y-109936619D02*
X173759809Y-108936619D01*
X173759809Y-108936619D02*
X173664571Y-109079476D01*
X173664571Y-109079476D02*
X173569333Y-109174714D01*
X173569333Y-109174714D02*
X173474095Y-109222333D01*
X174902666Y-108936619D02*
X174712190Y-108936619D01*
X174712190Y-108936619D02*
X174616952Y-108984238D01*
X174616952Y-108984238D02*
X174569333Y-109031857D01*
X174569333Y-109031857D02*
X174474095Y-109174714D01*
X174474095Y-109174714D02*
X174426476Y-109365190D01*
X174426476Y-109365190D02*
X174426476Y-109746142D01*
X174426476Y-109746142D02*
X174474095Y-109841380D01*
X174474095Y-109841380D02*
X174521714Y-109889000D01*
X174521714Y-109889000D02*
X174616952Y-109936619D01*
X174616952Y-109936619D02*
X174807428Y-109936619D01*
X174807428Y-109936619D02*
X174902666Y-109889000D01*
X174902666Y-109889000D02*
X174950285Y-109841380D01*
X174950285Y-109841380D02*
X174997904Y-109746142D01*
X174997904Y-109746142D02*
X174997904Y-109508047D01*
X174997904Y-109508047D02*
X174950285Y-109412809D01*
X174950285Y-109412809D02*
X174902666Y-109365190D01*
X174902666Y-109365190D02*
X174807428Y-109317571D01*
X174807428Y-109317571D02*
X174616952Y-109317571D01*
X174616952Y-109317571D02*
X174521714Y-109365190D01*
X174521714Y-109365190D02*
X174474095Y-109412809D01*
X174474095Y-109412809D02*
X174426476Y-109508047D01*
%TO.C,C29*%
X184558542Y-85409380D02*
X184510923Y-85457000D01*
X184510923Y-85457000D02*
X184368066Y-85504619D01*
X184368066Y-85504619D02*
X184272828Y-85504619D01*
X184272828Y-85504619D02*
X184129971Y-85457000D01*
X184129971Y-85457000D02*
X184034733Y-85361761D01*
X184034733Y-85361761D02*
X183987114Y-85266523D01*
X183987114Y-85266523D02*
X183939495Y-85076047D01*
X183939495Y-85076047D02*
X183939495Y-84933190D01*
X183939495Y-84933190D02*
X183987114Y-84742714D01*
X183987114Y-84742714D02*
X184034733Y-84647476D01*
X184034733Y-84647476D02*
X184129971Y-84552238D01*
X184129971Y-84552238D02*
X184272828Y-84504619D01*
X184272828Y-84504619D02*
X184368066Y-84504619D01*
X184368066Y-84504619D02*
X184510923Y-84552238D01*
X184510923Y-84552238D02*
X184558542Y-84599857D01*
X184939495Y-84599857D02*
X184987114Y-84552238D01*
X184987114Y-84552238D02*
X185082352Y-84504619D01*
X185082352Y-84504619D02*
X185320447Y-84504619D01*
X185320447Y-84504619D02*
X185415685Y-84552238D01*
X185415685Y-84552238D02*
X185463304Y-84599857D01*
X185463304Y-84599857D02*
X185510923Y-84695095D01*
X185510923Y-84695095D02*
X185510923Y-84790333D01*
X185510923Y-84790333D02*
X185463304Y-84933190D01*
X185463304Y-84933190D02*
X184891876Y-85504619D01*
X184891876Y-85504619D02*
X185510923Y-85504619D01*
X185987114Y-85504619D02*
X186177590Y-85504619D01*
X186177590Y-85504619D02*
X186272828Y-85457000D01*
X186272828Y-85457000D02*
X186320447Y-85409380D01*
X186320447Y-85409380D02*
X186415685Y-85266523D01*
X186415685Y-85266523D02*
X186463304Y-85076047D01*
X186463304Y-85076047D02*
X186463304Y-84695095D01*
X186463304Y-84695095D02*
X186415685Y-84599857D01*
X186415685Y-84599857D02*
X186368066Y-84552238D01*
X186368066Y-84552238D02*
X186272828Y-84504619D01*
X186272828Y-84504619D02*
X186082352Y-84504619D01*
X186082352Y-84504619D02*
X185987114Y-84552238D01*
X185987114Y-84552238D02*
X185939495Y-84599857D01*
X185939495Y-84599857D02*
X185891876Y-84695095D01*
X185891876Y-84695095D02*
X185891876Y-84933190D01*
X185891876Y-84933190D02*
X185939495Y-85028428D01*
X185939495Y-85028428D02*
X185987114Y-85076047D01*
X185987114Y-85076047D02*
X186082352Y-85123666D01*
X186082352Y-85123666D02*
X186272828Y-85123666D01*
X186272828Y-85123666D02*
X186368066Y-85076047D01*
X186368066Y-85076047D02*
X186415685Y-85028428D01*
X186415685Y-85028428D02*
X186463304Y-84933190D01*
%TO.C,H1*%
X155238095Y-58262619D02*
X155238095Y-57262619D01*
X155238095Y-57738809D02*
X155809523Y-57738809D01*
X155809523Y-58262619D02*
X155809523Y-57262619D01*
X156809523Y-58262619D02*
X156238095Y-58262619D01*
X156523809Y-58262619D02*
X156523809Y-57262619D01*
X156523809Y-57262619D02*
X156428571Y-57405476D01*
X156428571Y-57405476D02*
X156333333Y-57500714D01*
X156333333Y-57500714D02*
X156238095Y-57548333D01*
%TO.C,R26*%
X190039142Y-76663619D02*
X189705809Y-76187428D01*
X189467714Y-76663619D02*
X189467714Y-75663619D01*
X189467714Y-75663619D02*
X189848666Y-75663619D01*
X189848666Y-75663619D02*
X189943904Y-75711238D01*
X189943904Y-75711238D02*
X189991523Y-75758857D01*
X189991523Y-75758857D02*
X190039142Y-75854095D01*
X190039142Y-75854095D02*
X190039142Y-75996952D01*
X190039142Y-75996952D02*
X189991523Y-76092190D01*
X189991523Y-76092190D02*
X189943904Y-76139809D01*
X189943904Y-76139809D02*
X189848666Y-76187428D01*
X189848666Y-76187428D02*
X189467714Y-76187428D01*
X190420095Y-75758857D02*
X190467714Y-75711238D01*
X190467714Y-75711238D02*
X190562952Y-75663619D01*
X190562952Y-75663619D02*
X190801047Y-75663619D01*
X190801047Y-75663619D02*
X190896285Y-75711238D01*
X190896285Y-75711238D02*
X190943904Y-75758857D01*
X190943904Y-75758857D02*
X190991523Y-75854095D01*
X190991523Y-75854095D02*
X190991523Y-75949333D01*
X190991523Y-75949333D02*
X190943904Y-76092190D01*
X190943904Y-76092190D02*
X190372476Y-76663619D01*
X190372476Y-76663619D02*
X190991523Y-76663619D01*
X191848666Y-75663619D02*
X191658190Y-75663619D01*
X191658190Y-75663619D02*
X191562952Y-75711238D01*
X191562952Y-75711238D02*
X191515333Y-75758857D01*
X191515333Y-75758857D02*
X191420095Y-75901714D01*
X191420095Y-75901714D02*
X191372476Y-76092190D01*
X191372476Y-76092190D02*
X191372476Y-76473142D01*
X191372476Y-76473142D02*
X191420095Y-76568380D01*
X191420095Y-76568380D02*
X191467714Y-76616000D01*
X191467714Y-76616000D02*
X191562952Y-76663619D01*
X191562952Y-76663619D02*
X191753428Y-76663619D01*
X191753428Y-76663619D02*
X191848666Y-76616000D01*
X191848666Y-76616000D02*
X191896285Y-76568380D01*
X191896285Y-76568380D02*
X191943904Y-76473142D01*
X191943904Y-76473142D02*
X191943904Y-76235047D01*
X191943904Y-76235047D02*
X191896285Y-76139809D01*
X191896285Y-76139809D02*
X191848666Y-76092190D01*
X191848666Y-76092190D02*
X191753428Y-76044571D01*
X191753428Y-76044571D02*
X191562952Y-76044571D01*
X191562952Y-76044571D02*
X191467714Y-76092190D01*
X191467714Y-76092190D02*
X191420095Y-76139809D01*
X191420095Y-76139809D02*
X191372476Y-76235047D01*
%TO.C,TP6*%
X181110095Y-75062619D02*
X181681523Y-75062619D01*
X181395809Y-76062619D02*
X181395809Y-75062619D01*
X182014857Y-76062619D02*
X182014857Y-75062619D01*
X182014857Y-75062619D02*
X182395809Y-75062619D01*
X182395809Y-75062619D02*
X182491047Y-75110238D01*
X182491047Y-75110238D02*
X182538666Y-75157857D01*
X182538666Y-75157857D02*
X182586285Y-75253095D01*
X182586285Y-75253095D02*
X182586285Y-75395952D01*
X182586285Y-75395952D02*
X182538666Y-75491190D01*
X182538666Y-75491190D02*
X182491047Y-75538809D01*
X182491047Y-75538809D02*
X182395809Y-75586428D01*
X182395809Y-75586428D02*
X182014857Y-75586428D01*
X183443428Y-75062619D02*
X183252952Y-75062619D01*
X183252952Y-75062619D02*
X183157714Y-75110238D01*
X183157714Y-75110238D02*
X183110095Y-75157857D01*
X183110095Y-75157857D02*
X183014857Y-75300714D01*
X183014857Y-75300714D02*
X182967238Y-75491190D01*
X182967238Y-75491190D02*
X182967238Y-75872142D01*
X182967238Y-75872142D02*
X183014857Y-75967380D01*
X183014857Y-75967380D02*
X183062476Y-76015000D01*
X183062476Y-76015000D02*
X183157714Y-76062619D01*
X183157714Y-76062619D02*
X183348190Y-76062619D01*
X183348190Y-76062619D02*
X183443428Y-76015000D01*
X183443428Y-76015000D02*
X183491047Y-75967380D01*
X183491047Y-75967380D02*
X183538666Y-75872142D01*
X183538666Y-75872142D02*
X183538666Y-75634047D01*
X183538666Y-75634047D02*
X183491047Y-75538809D01*
X183491047Y-75538809D02*
X183443428Y-75491190D01*
X183443428Y-75491190D02*
X183348190Y-75443571D01*
X183348190Y-75443571D02*
X183157714Y-75443571D01*
X183157714Y-75443571D02*
X183062476Y-75491190D01*
X183062476Y-75491190D02*
X183014857Y-75538809D01*
X183014857Y-75538809D02*
X182967238Y-75634047D01*
%TO.C,C28*%
X191357142Y-83767380D02*
X191309523Y-83815000D01*
X191309523Y-83815000D02*
X191166666Y-83862619D01*
X191166666Y-83862619D02*
X191071428Y-83862619D01*
X191071428Y-83862619D02*
X190928571Y-83815000D01*
X190928571Y-83815000D02*
X190833333Y-83719761D01*
X190833333Y-83719761D02*
X190785714Y-83624523D01*
X190785714Y-83624523D02*
X190738095Y-83434047D01*
X190738095Y-83434047D02*
X190738095Y-83291190D01*
X190738095Y-83291190D02*
X190785714Y-83100714D01*
X190785714Y-83100714D02*
X190833333Y-83005476D01*
X190833333Y-83005476D02*
X190928571Y-82910238D01*
X190928571Y-82910238D02*
X191071428Y-82862619D01*
X191071428Y-82862619D02*
X191166666Y-82862619D01*
X191166666Y-82862619D02*
X191309523Y-82910238D01*
X191309523Y-82910238D02*
X191357142Y-82957857D01*
X191738095Y-82957857D02*
X191785714Y-82910238D01*
X191785714Y-82910238D02*
X191880952Y-82862619D01*
X191880952Y-82862619D02*
X192119047Y-82862619D01*
X192119047Y-82862619D02*
X192214285Y-82910238D01*
X192214285Y-82910238D02*
X192261904Y-82957857D01*
X192261904Y-82957857D02*
X192309523Y-83053095D01*
X192309523Y-83053095D02*
X192309523Y-83148333D01*
X192309523Y-83148333D02*
X192261904Y-83291190D01*
X192261904Y-83291190D02*
X191690476Y-83862619D01*
X191690476Y-83862619D02*
X192309523Y-83862619D01*
X192880952Y-83291190D02*
X192785714Y-83243571D01*
X192785714Y-83243571D02*
X192738095Y-83195952D01*
X192738095Y-83195952D02*
X192690476Y-83100714D01*
X192690476Y-83100714D02*
X192690476Y-83053095D01*
X192690476Y-83053095D02*
X192738095Y-82957857D01*
X192738095Y-82957857D02*
X192785714Y-82910238D01*
X192785714Y-82910238D02*
X192880952Y-82862619D01*
X192880952Y-82862619D02*
X193071428Y-82862619D01*
X193071428Y-82862619D02*
X193166666Y-82910238D01*
X193166666Y-82910238D02*
X193214285Y-82957857D01*
X193214285Y-82957857D02*
X193261904Y-83053095D01*
X193261904Y-83053095D02*
X193261904Y-83100714D01*
X193261904Y-83100714D02*
X193214285Y-83195952D01*
X193214285Y-83195952D02*
X193166666Y-83243571D01*
X193166666Y-83243571D02*
X193071428Y-83291190D01*
X193071428Y-83291190D02*
X192880952Y-83291190D01*
X192880952Y-83291190D02*
X192785714Y-83338809D01*
X192785714Y-83338809D02*
X192738095Y-83386428D01*
X192738095Y-83386428D02*
X192690476Y-83481666D01*
X192690476Y-83481666D02*
X192690476Y-83672142D01*
X192690476Y-83672142D02*
X192738095Y-83767380D01*
X192738095Y-83767380D02*
X192785714Y-83815000D01*
X192785714Y-83815000D02*
X192880952Y-83862619D01*
X192880952Y-83862619D02*
X193071428Y-83862619D01*
X193071428Y-83862619D02*
X193166666Y-83815000D01*
X193166666Y-83815000D02*
X193214285Y-83767380D01*
X193214285Y-83767380D02*
X193261904Y-83672142D01*
X193261904Y-83672142D02*
X193261904Y-83481666D01*
X193261904Y-83481666D02*
X193214285Y-83386428D01*
X193214285Y-83386428D02*
X193166666Y-83338809D01*
X193166666Y-83338809D02*
X193071428Y-83291190D01*
%TO.C,C8*%
X172045333Y-91299380D02*
X171997714Y-91347000D01*
X171997714Y-91347000D02*
X171854857Y-91394619D01*
X171854857Y-91394619D02*
X171759619Y-91394619D01*
X171759619Y-91394619D02*
X171616762Y-91347000D01*
X171616762Y-91347000D02*
X171521524Y-91251761D01*
X171521524Y-91251761D02*
X171473905Y-91156523D01*
X171473905Y-91156523D02*
X171426286Y-90966047D01*
X171426286Y-90966047D02*
X171426286Y-90823190D01*
X171426286Y-90823190D02*
X171473905Y-90632714D01*
X171473905Y-90632714D02*
X171521524Y-90537476D01*
X171521524Y-90537476D02*
X171616762Y-90442238D01*
X171616762Y-90442238D02*
X171759619Y-90394619D01*
X171759619Y-90394619D02*
X171854857Y-90394619D01*
X171854857Y-90394619D02*
X171997714Y-90442238D01*
X171997714Y-90442238D02*
X172045333Y-90489857D01*
X172616762Y-90823190D02*
X172521524Y-90775571D01*
X172521524Y-90775571D02*
X172473905Y-90727952D01*
X172473905Y-90727952D02*
X172426286Y-90632714D01*
X172426286Y-90632714D02*
X172426286Y-90585095D01*
X172426286Y-90585095D02*
X172473905Y-90489857D01*
X172473905Y-90489857D02*
X172521524Y-90442238D01*
X172521524Y-90442238D02*
X172616762Y-90394619D01*
X172616762Y-90394619D02*
X172807238Y-90394619D01*
X172807238Y-90394619D02*
X172902476Y-90442238D01*
X172902476Y-90442238D02*
X172950095Y-90489857D01*
X172950095Y-90489857D02*
X172997714Y-90585095D01*
X172997714Y-90585095D02*
X172997714Y-90632714D01*
X172997714Y-90632714D02*
X172950095Y-90727952D01*
X172950095Y-90727952D02*
X172902476Y-90775571D01*
X172902476Y-90775571D02*
X172807238Y-90823190D01*
X172807238Y-90823190D02*
X172616762Y-90823190D01*
X172616762Y-90823190D02*
X172521524Y-90870809D01*
X172521524Y-90870809D02*
X172473905Y-90918428D01*
X172473905Y-90918428D02*
X172426286Y-91013666D01*
X172426286Y-91013666D02*
X172426286Y-91204142D01*
X172426286Y-91204142D02*
X172473905Y-91299380D01*
X172473905Y-91299380D02*
X172521524Y-91347000D01*
X172521524Y-91347000D02*
X172616762Y-91394619D01*
X172616762Y-91394619D02*
X172807238Y-91394619D01*
X172807238Y-91394619D02*
X172902476Y-91347000D01*
X172902476Y-91347000D02*
X172950095Y-91299380D01*
X172950095Y-91299380D02*
X172997714Y-91204142D01*
X172997714Y-91204142D02*
X172997714Y-91013666D01*
X172997714Y-91013666D02*
X172950095Y-90918428D01*
X172950095Y-90918428D02*
X172902476Y-90870809D01*
X172902476Y-90870809D02*
X172807238Y-90823190D01*
%TO.C,C26*%
X177057142Y-67767380D02*
X177009523Y-67815000D01*
X177009523Y-67815000D02*
X176866666Y-67862619D01*
X176866666Y-67862619D02*
X176771428Y-67862619D01*
X176771428Y-67862619D02*
X176628571Y-67815000D01*
X176628571Y-67815000D02*
X176533333Y-67719761D01*
X176533333Y-67719761D02*
X176485714Y-67624523D01*
X176485714Y-67624523D02*
X176438095Y-67434047D01*
X176438095Y-67434047D02*
X176438095Y-67291190D01*
X176438095Y-67291190D02*
X176485714Y-67100714D01*
X176485714Y-67100714D02*
X176533333Y-67005476D01*
X176533333Y-67005476D02*
X176628571Y-66910238D01*
X176628571Y-66910238D02*
X176771428Y-66862619D01*
X176771428Y-66862619D02*
X176866666Y-66862619D01*
X176866666Y-66862619D02*
X177009523Y-66910238D01*
X177009523Y-66910238D02*
X177057142Y-66957857D01*
X177438095Y-66957857D02*
X177485714Y-66910238D01*
X177485714Y-66910238D02*
X177580952Y-66862619D01*
X177580952Y-66862619D02*
X177819047Y-66862619D01*
X177819047Y-66862619D02*
X177914285Y-66910238D01*
X177914285Y-66910238D02*
X177961904Y-66957857D01*
X177961904Y-66957857D02*
X178009523Y-67053095D01*
X178009523Y-67053095D02*
X178009523Y-67148333D01*
X178009523Y-67148333D02*
X177961904Y-67291190D01*
X177961904Y-67291190D02*
X177390476Y-67862619D01*
X177390476Y-67862619D02*
X178009523Y-67862619D01*
X178866666Y-66862619D02*
X178676190Y-66862619D01*
X178676190Y-66862619D02*
X178580952Y-66910238D01*
X178580952Y-66910238D02*
X178533333Y-66957857D01*
X178533333Y-66957857D02*
X178438095Y-67100714D01*
X178438095Y-67100714D02*
X178390476Y-67291190D01*
X178390476Y-67291190D02*
X178390476Y-67672142D01*
X178390476Y-67672142D02*
X178438095Y-67767380D01*
X178438095Y-67767380D02*
X178485714Y-67815000D01*
X178485714Y-67815000D02*
X178580952Y-67862619D01*
X178580952Y-67862619D02*
X178771428Y-67862619D01*
X178771428Y-67862619D02*
X178866666Y-67815000D01*
X178866666Y-67815000D02*
X178914285Y-67767380D01*
X178914285Y-67767380D02*
X178961904Y-67672142D01*
X178961904Y-67672142D02*
X178961904Y-67434047D01*
X178961904Y-67434047D02*
X178914285Y-67338809D01*
X178914285Y-67338809D02*
X178866666Y-67291190D01*
X178866666Y-67291190D02*
X178771428Y-67243571D01*
X178771428Y-67243571D02*
X178580952Y-67243571D01*
X178580952Y-67243571D02*
X178485714Y-67291190D01*
X178485714Y-67291190D02*
X178438095Y-67338809D01*
X178438095Y-67338809D02*
X178390476Y-67434047D01*
%TO.C,TP11*%
X185261905Y-70914619D02*
X185833333Y-70914619D01*
X185547619Y-71914619D02*
X185547619Y-70914619D01*
X186166667Y-71914619D02*
X186166667Y-70914619D01*
X186166667Y-70914619D02*
X186547619Y-70914619D01*
X186547619Y-70914619D02*
X186642857Y-70962238D01*
X186642857Y-70962238D02*
X186690476Y-71009857D01*
X186690476Y-71009857D02*
X186738095Y-71105095D01*
X186738095Y-71105095D02*
X186738095Y-71247952D01*
X186738095Y-71247952D02*
X186690476Y-71343190D01*
X186690476Y-71343190D02*
X186642857Y-71390809D01*
X186642857Y-71390809D02*
X186547619Y-71438428D01*
X186547619Y-71438428D02*
X186166667Y-71438428D01*
X187690476Y-71914619D02*
X187119048Y-71914619D01*
X187404762Y-71914619D02*
X187404762Y-70914619D01*
X187404762Y-70914619D02*
X187309524Y-71057476D01*
X187309524Y-71057476D02*
X187214286Y-71152714D01*
X187214286Y-71152714D02*
X187119048Y-71200333D01*
X188642857Y-71914619D02*
X188071429Y-71914619D01*
X188357143Y-71914619D02*
X188357143Y-70914619D01*
X188357143Y-70914619D02*
X188261905Y-71057476D01*
X188261905Y-71057476D02*
X188166667Y-71152714D01*
X188166667Y-71152714D02*
X188071429Y-71200333D01*
%TO.C,R31*%
X191169642Y-101182619D02*
X190836309Y-100706428D01*
X190598214Y-101182619D02*
X190598214Y-100182619D01*
X190598214Y-100182619D02*
X190979166Y-100182619D01*
X190979166Y-100182619D02*
X191074404Y-100230238D01*
X191074404Y-100230238D02*
X191122023Y-100277857D01*
X191122023Y-100277857D02*
X191169642Y-100373095D01*
X191169642Y-100373095D02*
X191169642Y-100515952D01*
X191169642Y-100515952D02*
X191122023Y-100611190D01*
X191122023Y-100611190D02*
X191074404Y-100658809D01*
X191074404Y-100658809D02*
X190979166Y-100706428D01*
X190979166Y-100706428D02*
X190598214Y-100706428D01*
X191502976Y-100182619D02*
X192122023Y-100182619D01*
X192122023Y-100182619D02*
X191788690Y-100563571D01*
X191788690Y-100563571D02*
X191931547Y-100563571D01*
X191931547Y-100563571D02*
X192026785Y-100611190D01*
X192026785Y-100611190D02*
X192074404Y-100658809D01*
X192074404Y-100658809D02*
X192122023Y-100754047D01*
X192122023Y-100754047D02*
X192122023Y-100992142D01*
X192122023Y-100992142D02*
X192074404Y-101087380D01*
X192074404Y-101087380D02*
X192026785Y-101135000D01*
X192026785Y-101135000D02*
X191931547Y-101182619D01*
X191931547Y-101182619D02*
X191645833Y-101182619D01*
X191645833Y-101182619D02*
X191550595Y-101135000D01*
X191550595Y-101135000D02*
X191502976Y-101087380D01*
X193074404Y-101182619D02*
X192502976Y-101182619D01*
X192788690Y-101182619D02*
X192788690Y-100182619D01*
X192788690Y-100182619D02*
X192693452Y-100325476D01*
X192693452Y-100325476D02*
X192598214Y-100420714D01*
X192598214Y-100420714D02*
X192502976Y-100468333D01*
%TO.C,R17*%
X154805142Y-77424619D02*
X154471809Y-76948428D01*
X154233714Y-77424619D02*
X154233714Y-76424619D01*
X154233714Y-76424619D02*
X154614666Y-76424619D01*
X154614666Y-76424619D02*
X154709904Y-76472238D01*
X154709904Y-76472238D02*
X154757523Y-76519857D01*
X154757523Y-76519857D02*
X154805142Y-76615095D01*
X154805142Y-76615095D02*
X154805142Y-76757952D01*
X154805142Y-76757952D02*
X154757523Y-76853190D01*
X154757523Y-76853190D02*
X154709904Y-76900809D01*
X154709904Y-76900809D02*
X154614666Y-76948428D01*
X154614666Y-76948428D02*
X154233714Y-76948428D01*
X155757523Y-77424619D02*
X155186095Y-77424619D01*
X155471809Y-77424619D02*
X155471809Y-76424619D01*
X155471809Y-76424619D02*
X155376571Y-76567476D01*
X155376571Y-76567476D02*
X155281333Y-76662714D01*
X155281333Y-76662714D02*
X155186095Y-76710333D01*
X156090857Y-76424619D02*
X156757523Y-76424619D01*
X156757523Y-76424619D02*
X156328952Y-77424619D01*
%TO.C,R12*%
X193257142Y-90162619D02*
X192923809Y-89686428D01*
X192685714Y-90162619D02*
X192685714Y-89162619D01*
X192685714Y-89162619D02*
X193066666Y-89162619D01*
X193066666Y-89162619D02*
X193161904Y-89210238D01*
X193161904Y-89210238D02*
X193209523Y-89257857D01*
X193209523Y-89257857D02*
X193257142Y-89353095D01*
X193257142Y-89353095D02*
X193257142Y-89495952D01*
X193257142Y-89495952D02*
X193209523Y-89591190D01*
X193209523Y-89591190D02*
X193161904Y-89638809D01*
X193161904Y-89638809D02*
X193066666Y-89686428D01*
X193066666Y-89686428D02*
X192685714Y-89686428D01*
X194209523Y-90162619D02*
X193638095Y-90162619D01*
X193923809Y-90162619D02*
X193923809Y-89162619D01*
X193923809Y-89162619D02*
X193828571Y-89305476D01*
X193828571Y-89305476D02*
X193733333Y-89400714D01*
X193733333Y-89400714D02*
X193638095Y-89448333D01*
X194590476Y-89257857D02*
X194638095Y-89210238D01*
X194638095Y-89210238D02*
X194733333Y-89162619D01*
X194733333Y-89162619D02*
X194971428Y-89162619D01*
X194971428Y-89162619D02*
X195066666Y-89210238D01*
X195066666Y-89210238D02*
X195114285Y-89257857D01*
X195114285Y-89257857D02*
X195161904Y-89353095D01*
X195161904Y-89353095D02*
X195161904Y-89448333D01*
X195161904Y-89448333D02*
X195114285Y-89591190D01*
X195114285Y-89591190D02*
X194542857Y-90162619D01*
X194542857Y-90162619D02*
X195161904Y-90162619D01*
%TO.C,C12*%
X181557142Y-109567380D02*
X181509523Y-109615000D01*
X181509523Y-109615000D02*
X181366666Y-109662619D01*
X181366666Y-109662619D02*
X181271428Y-109662619D01*
X181271428Y-109662619D02*
X181128571Y-109615000D01*
X181128571Y-109615000D02*
X181033333Y-109519761D01*
X181033333Y-109519761D02*
X180985714Y-109424523D01*
X180985714Y-109424523D02*
X180938095Y-109234047D01*
X180938095Y-109234047D02*
X180938095Y-109091190D01*
X180938095Y-109091190D02*
X180985714Y-108900714D01*
X180985714Y-108900714D02*
X181033333Y-108805476D01*
X181033333Y-108805476D02*
X181128571Y-108710238D01*
X181128571Y-108710238D02*
X181271428Y-108662619D01*
X181271428Y-108662619D02*
X181366666Y-108662619D01*
X181366666Y-108662619D02*
X181509523Y-108710238D01*
X181509523Y-108710238D02*
X181557142Y-108757857D01*
X182509523Y-109662619D02*
X181938095Y-109662619D01*
X182223809Y-109662619D02*
X182223809Y-108662619D01*
X182223809Y-108662619D02*
X182128571Y-108805476D01*
X182128571Y-108805476D02*
X182033333Y-108900714D01*
X182033333Y-108900714D02*
X181938095Y-108948333D01*
X182890476Y-108757857D02*
X182938095Y-108710238D01*
X182938095Y-108710238D02*
X183033333Y-108662619D01*
X183033333Y-108662619D02*
X183271428Y-108662619D01*
X183271428Y-108662619D02*
X183366666Y-108710238D01*
X183366666Y-108710238D02*
X183414285Y-108757857D01*
X183414285Y-108757857D02*
X183461904Y-108853095D01*
X183461904Y-108853095D02*
X183461904Y-108948333D01*
X183461904Y-108948333D02*
X183414285Y-109091190D01*
X183414285Y-109091190D02*
X182842857Y-109662619D01*
X182842857Y-109662619D02*
X183461904Y-109662619D01*
%TO.C,C4*%
X175833333Y-71267380D02*
X175785714Y-71315000D01*
X175785714Y-71315000D02*
X175642857Y-71362619D01*
X175642857Y-71362619D02*
X175547619Y-71362619D01*
X175547619Y-71362619D02*
X175404762Y-71315000D01*
X175404762Y-71315000D02*
X175309524Y-71219761D01*
X175309524Y-71219761D02*
X175261905Y-71124523D01*
X175261905Y-71124523D02*
X175214286Y-70934047D01*
X175214286Y-70934047D02*
X175214286Y-70791190D01*
X175214286Y-70791190D02*
X175261905Y-70600714D01*
X175261905Y-70600714D02*
X175309524Y-70505476D01*
X175309524Y-70505476D02*
X175404762Y-70410238D01*
X175404762Y-70410238D02*
X175547619Y-70362619D01*
X175547619Y-70362619D02*
X175642857Y-70362619D01*
X175642857Y-70362619D02*
X175785714Y-70410238D01*
X175785714Y-70410238D02*
X175833333Y-70457857D01*
X176690476Y-70695952D02*
X176690476Y-71362619D01*
X176452381Y-70315000D02*
X176214286Y-71029285D01*
X176214286Y-71029285D02*
X176833333Y-71029285D01*
%TO.C,R19*%
X181412619Y-79892857D02*
X180936428Y-80226190D01*
X181412619Y-80464285D02*
X180412619Y-80464285D01*
X180412619Y-80464285D02*
X180412619Y-80083333D01*
X180412619Y-80083333D02*
X180460238Y-79988095D01*
X180460238Y-79988095D02*
X180507857Y-79940476D01*
X180507857Y-79940476D02*
X180603095Y-79892857D01*
X180603095Y-79892857D02*
X180745952Y-79892857D01*
X180745952Y-79892857D02*
X180841190Y-79940476D01*
X180841190Y-79940476D02*
X180888809Y-79988095D01*
X180888809Y-79988095D02*
X180936428Y-80083333D01*
X180936428Y-80083333D02*
X180936428Y-80464285D01*
X181412619Y-78940476D02*
X181412619Y-79511904D01*
X181412619Y-79226190D02*
X180412619Y-79226190D01*
X180412619Y-79226190D02*
X180555476Y-79321428D01*
X180555476Y-79321428D02*
X180650714Y-79416666D01*
X180650714Y-79416666D02*
X180698333Y-79511904D01*
X181412619Y-78464285D02*
X181412619Y-78273809D01*
X181412619Y-78273809D02*
X181365000Y-78178571D01*
X181365000Y-78178571D02*
X181317380Y-78130952D01*
X181317380Y-78130952D02*
X181174523Y-78035714D01*
X181174523Y-78035714D02*
X180984047Y-77988095D01*
X180984047Y-77988095D02*
X180603095Y-77988095D01*
X180603095Y-77988095D02*
X180507857Y-78035714D01*
X180507857Y-78035714D02*
X180460238Y-78083333D01*
X180460238Y-78083333D02*
X180412619Y-78178571D01*
X180412619Y-78178571D02*
X180412619Y-78369047D01*
X180412619Y-78369047D02*
X180460238Y-78464285D01*
X180460238Y-78464285D02*
X180507857Y-78511904D01*
X180507857Y-78511904D02*
X180603095Y-78559523D01*
X180603095Y-78559523D02*
X180841190Y-78559523D01*
X180841190Y-78559523D02*
X180936428Y-78511904D01*
X180936428Y-78511904D02*
X180984047Y-78464285D01*
X180984047Y-78464285D02*
X181031666Y-78369047D01*
X181031666Y-78369047D02*
X181031666Y-78178571D01*
X181031666Y-78178571D02*
X180984047Y-78083333D01*
X180984047Y-78083333D02*
X180936428Y-78035714D01*
X180936428Y-78035714D02*
X180841190Y-77988095D01*
%TO.C,R16*%
X154275542Y-66731219D02*
X153942209Y-66255028D01*
X153704114Y-66731219D02*
X153704114Y-65731219D01*
X153704114Y-65731219D02*
X154085066Y-65731219D01*
X154085066Y-65731219D02*
X154180304Y-65778838D01*
X154180304Y-65778838D02*
X154227923Y-65826457D01*
X154227923Y-65826457D02*
X154275542Y-65921695D01*
X154275542Y-65921695D02*
X154275542Y-66064552D01*
X154275542Y-66064552D02*
X154227923Y-66159790D01*
X154227923Y-66159790D02*
X154180304Y-66207409D01*
X154180304Y-66207409D02*
X154085066Y-66255028D01*
X154085066Y-66255028D02*
X153704114Y-66255028D01*
X155227923Y-66731219D02*
X154656495Y-66731219D01*
X154942209Y-66731219D02*
X154942209Y-65731219D01*
X154942209Y-65731219D02*
X154846971Y-65874076D01*
X154846971Y-65874076D02*
X154751733Y-65969314D01*
X154751733Y-65969314D02*
X154656495Y-66016933D01*
X156085066Y-65731219D02*
X155894590Y-65731219D01*
X155894590Y-65731219D02*
X155799352Y-65778838D01*
X155799352Y-65778838D02*
X155751733Y-65826457D01*
X155751733Y-65826457D02*
X155656495Y-65969314D01*
X155656495Y-65969314D02*
X155608876Y-66159790D01*
X155608876Y-66159790D02*
X155608876Y-66540742D01*
X155608876Y-66540742D02*
X155656495Y-66635980D01*
X155656495Y-66635980D02*
X155704114Y-66683600D01*
X155704114Y-66683600D02*
X155799352Y-66731219D01*
X155799352Y-66731219D02*
X155989828Y-66731219D01*
X155989828Y-66731219D02*
X156085066Y-66683600D01*
X156085066Y-66683600D02*
X156132685Y-66635980D01*
X156132685Y-66635980D02*
X156180304Y-66540742D01*
X156180304Y-66540742D02*
X156180304Y-66302647D01*
X156180304Y-66302647D02*
X156132685Y-66207409D01*
X156132685Y-66207409D02*
X156085066Y-66159790D01*
X156085066Y-66159790D02*
X155989828Y-66112171D01*
X155989828Y-66112171D02*
X155799352Y-66112171D01*
X155799352Y-66112171D02*
X155704114Y-66159790D01*
X155704114Y-66159790D02*
X155656495Y-66207409D01*
X155656495Y-66207409D02*
X155608876Y-66302647D01*
%TO.C,TP3*%
X177300095Y-114016619D02*
X177871523Y-114016619D01*
X177585809Y-115016619D02*
X177585809Y-114016619D01*
X178204857Y-115016619D02*
X178204857Y-114016619D01*
X178204857Y-114016619D02*
X178585809Y-114016619D01*
X178585809Y-114016619D02*
X178681047Y-114064238D01*
X178681047Y-114064238D02*
X178728666Y-114111857D01*
X178728666Y-114111857D02*
X178776285Y-114207095D01*
X178776285Y-114207095D02*
X178776285Y-114349952D01*
X178776285Y-114349952D02*
X178728666Y-114445190D01*
X178728666Y-114445190D02*
X178681047Y-114492809D01*
X178681047Y-114492809D02*
X178585809Y-114540428D01*
X178585809Y-114540428D02*
X178204857Y-114540428D01*
X179109619Y-114016619D02*
X179728666Y-114016619D01*
X179728666Y-114016619D02*
X179395333Y-114397571D01*
X179395333Y-114397571D02*
X179538190Y-114397571D01*
X179538190Y-114397571D02*
X179633428Y-114445190D01*
X179633428Y-114445190D02*
X179681047Y-114492809D01*
X179681047Y-114492809D02*
X179728666Y-114588047D01*
X179728666Y-114588047D02*
X179728666Y-114826142D01*
X179728666Y-114826142D02*
X179681047Y-114921380D01*
X179681047Y-114921380D02*
X179633428Y-114969000D01*
X179633428Y-114969000D02*
X179538190Y-115016619D01*
X179538190Y-115016619D02*
X179252476Y-115016619D01*
X179252476Y-115016619D02*
X179157238Y-114969000D01*
X179157238Y-114969000D02*
X179109619Y-114921380D01*
%TO.C,C3*%
X160170833Y-82837380D02*
X160123214Y-82885000D01*
X160123214Y-82885000D02*
X159980357Y-82932619D01*
X159980357Y-82932619D02*
X159885119Y-82932619D01*
X159885119Y-82932619D02*
X159742262Y-82885000D01*
X159742262Y-82885000D02*
X159647024Y-82789761D01*
X159647024Y-82789761D02*
X159599405Y-82694523D01*
X159599405Y-82694523D02*
X159551786Y-82504047D01*
X159551786Y-82504047D02*
X159551786Y-82361190D01*
X159551786Y-82361190D02*
X159599405Y-82170714D01*
X159599405Y-82170714D02*
X159647024Y-82075476D01*
X159647024Y-82075476D02*
X159742262Y-81980238D01*
X159742262Y-81980238D02*
X159885119Y-81932619D01*
X159885119Y-81932619D02*
X159980357Y-81932619D01*
X159980357Y-81932619D02*
X160123214Y-81980238D01*
X160123214Y-81980238D02*
X160170833Y-82027857D01*
X160504167Y-81932619D02*
X161123214Y-81932619D01*
X161123214Y-81932619D02*
X160789881Y-82313571D01*
X160789881Y-82313571D02*
X160932738Y-82313571D01*
X160932738Y-82313571D02*
X161027976Y-82361190D01*
X161027976Y-82361190D02*
X161075595Y-82408809D01*
X161075595Y-82408809D02*
X161123214Y-82504047D01*
X161123214Y-82504047D02*
X161123214Y-82742142D01*
X161123214Y-82742142D02*
X161075595Y-82837380D01*
X161075595Y-82837380D02*
X161027976Y-82885000D01*
X161027976Y-82885000D02*
X160932738Y-82932619D01*
X160932738Y-82932619D02*
X160647024Y-82932619D01*
X160647024Y-82932619D02*
X160551786Y-82885000D01*
X160551786Y-82885000D02*
X160504167Y-82837380D01*
%TO.C,C30*%
X187957142Y-101767380D02*
X187909523Y-101815000D01*
X187909523Y-101815000D02*
X187766666Y-101862619D01*
X187766666Y-101862619D02*
X187671428Y-101862619D01*
X187671428Y-101862619D02*
X187528571Y-101815000D01*
X187528571Y-101815000D02*
X187433333Y-101719761D01*
X187433333Y-101719761D02*
X187385714Y-101624523D01*
X187385714Y-101624523D02*
X187338095Y-101434047D01*
X187338095Y-101434047D02*
X187338095Y-101291190D01*
X187338095Y-101291190D02*
X187385714Y-101100714D01*
X187385714Y-101100714D02*
X187433333Y-101005476D01*
X187433333Y-101005476D02*
X187528571Y-100910238D01*
X187528571Y-100910238D02*
X187671428Y-100862619D01*
X187671428Y-100862619D02*
X187766666Y-100862619D01*
X187766666Y-100862619D02*
X187909523Y-100910238D01*
X187909523Y-100910238D02*
X187957142Y-100957857D01*
X188290476Y-100862619D02*
X188909523Y-100862619D01*
X188909523Y-100862619D02*
X188576190Y-101243571D01*
X188576190Y-101243571D02*
X188719047Y-101243571D01*
X188719047Y-101243571D02*
X188814285Y-101291190D01*
X188814285Y-101291190D02*
X188861904Y-101338809D01*
X188861904Y-101338809D02*
X188909523Y-101434047D01*
X188909523Y-101434047D02*
X188909523Y-101672142D01*
X188909523Y-101672142D02*
X188861904Y-101767380D01*
X188861904Y-101767380D02*
X188814285Y-101815000D01*
X188814285Y-101815000D02*
X188719047Y-101862619D01*
X188719047Y-101862619D02*
X188433333Y-101862619D01*
X188433333Y-101862619D02*
X188338095Y-101815000D01*
X188338095Y-101815000D02*
X188290476Y-101767380D01*
X189528571Y-100862619D02*
X189623809Y-100862619D01*
X189623809Y-100862619D02*
X189719047Y-100910238D01*
X189719047Y-100910238D02*
X189766666Y-100957857D01*
X189766666Y-100957857D02*
X189814285Y-101053095D01*
X189814285Y-101053095D02*
X189861904Y-101243571D01*
X189861904Y-101243571D02*
X189861904Y-101481666D01*
X189861904Y-101481666D02*
X189814285Y-101672142D01*
X189814285Y-101672142D02*
X189766666Y-101767380D01*
X189766666Y-101767380D02*
X189719047Y-101815000D01*
X189719047Y-101815000D02*
X189623809Y-101862619D01*
X189623809Y-101862619D02*
X189528571Y-101862619D01*
X189528571Y-101862619D02*
X189433333Y-101815000D01*
X189433333Y-101815000D02*
X189385714Y-101767380D01*
X189385714Y-101767380D02*
X189338095Y-101672142D01*
X189338095Y-101672142D02*
X189290476Y-101481666D01*
X189290476Y-101481666D02*
X189290476Y-101243571D01*
X189290476Y-101243571D02*
X189338095Y-101053095D01*
X189338095Y-101053095D02*
X189385714Y-100957857D01*
X189385714Y-100957857D02*
X189433333Y-100910238D01*
X189433333Y-100910238D02*
X189528571Y-100862619D01*
%TO.C,J2*%
X196566666Y-105562619D02*
X196566666Y-106276904D01*
X196566666Y-106276904D02*
X196519047Y-106419761D01*
X196519047Y-106419761D02*
X196423809Y-106515000D01*
X196423809Y-106515000D02*
X196280952Y-106562619D01*
X196280952Y-106562619D02*
X196185714Y-106562619D01*
X196995238Y-105657857D02*
X197042857Y-105610238D01*
X197042857Y-105610238D02*
X197138095Y-105562619D01*
X197138095Y-105562619D02*
X197376190Y-105562619D01*
X197376190Y-105562619D02*
X197471428Y-105610238D01*
X197471428Y-105610238D02*
X197519047Y-105657857D01*
X197519047Y-105657857D02*
X197566666Y-105753095D01*
X197566666Y-105753095D02*
X197566666Y-105848333D01*
X197566666Y-105848333D02*
X197519047Y-105991190D01*
X197519047Y-105991190D02*
X196947619Y-106562619D01*
X196947619Y-106562619D02*
X197566666Y-106562619D01*
%TO.C,R6*%
X168743333Y-81996619D02*
X168410000Y-81520428D01*
X168171905Y-81996619D02*
X168171905Y-80996619D01*
X168171905Y-80996619D02*
X168552857Y-80996619D01*
X168552857Y-80996619D02*
X168648095Y-81044238D01*
X168648095Y-81044238D02*
X168695714Y-81091857D01*
X168695714Y-81091857D02*
X168743333Y-81187095D01*
X168743333Y-81187095D02*
X168743333Y-81329952D01*
X168743333Y-81329952D02*
X168695714Y-81425190D01*
X168695714Y-81425190D02*
X168648095Y-81472809D01*
X168648095Y-81472809D02*
X168552857Y-81520428D01*
X168552857Y-81520428D02*
X168171905Y-81520428D01*
X169600476Y-80996619D02*
X169410000Y-80996619D01*
X169410000Y-80996619D02*
X169314762Y-81044238D01*
X169314762Y-81044238D02*
X169267143Y-81091857D01*
X169267143Y-81091857D02*
X169171905Y-81234714D01*
X169171905Y-81234714D02*
X169124286Y-81425190D01*
X169124286Y-81425190D02*
X169124286Y-81806142D01*
X169124286Y-81806142D02*
X169171905Y-81901380D01*
X169171905Y-81901380D02*
X169219524Y-81949000D01*
X169219524Y-81949000D02*
X169314762Y-81996619D01*
X169314762Y-81996619D02*
X169505238Y-81996619D01*
X169505238Y-81996619D02*
X169600476Y-81949000D01*
X169600476Y-81949000D02*
X169648095Y-81901380D01*
X169648095Y-81901380D02*
X169695714Y-81806142D01*
X169695714Y-81806142D02*
X169695714Y-81568047D01*
X169695714Y-81568047D02*
X169648095Y-81472809D01*
X169648095Y-81472809D02*
X169600476Y-81425190D01*
X169600476Y-81425190D02*
X169505238Y-81377571D01*
X169505238Y-81377571D02*
X169314762Y-81377571D01*
X169314762Y-81377571D02*
X169219524Y-81425190D01*
X169219524Y-81425190D02*
X169171905Y-81472809D01*
X169171905Y-81472809D02*
X169124286Y-81568047D01*
%TO.C,TP7*%
X190138095Y-84462619D02*
X190709523Y-84462619D01*
X190423809Y-85462619D02*
X190423809Y-84462619D01*
X191042857Y-85462619D02*
X191042857Y-84462619D01*
X191042857Y-84462619D02*
X191423809Y-84462619D01*
X191423809Y-84462619D02*
X191519047Y-84510238D01*
X191519047Y-84510238D02*
X191566666Y-84557857D01*
X191566666Y-84557857D02*
X191614285Y-84653095D01*
X191614285Y-84653095D02*
X191614285Y-84795952D01*
X191614285Y-84795952D02*
X191566666Y-84891190D01*
X191566666Y-84891190D02*
X191519047Y-84938809D01*
X191519047Y-84938809D02*
X191423809Y-84986428D01*
X191423809Y-84986428D02*
X191042857Y-84986428D01*
X191947619Y-84462619D02*
X192614285Y-84462619D01*
X192614285Y-84462619D02*
X192185714Y-85462619D01*
%TO.C,C27*%
X178357142Y-101367380D02*
X178309523Y-101415000D01*
X178309523Y-101415000D02*
X178166666Y-101462619D01*
X178166666Y-101462619D02*
X178071428Y-101462619D01*
X178071428Y-101462619D02*
X177928571Y-101415000D01*
X177928571Y-101415000D02*
X177833333Y-101319761D01*
X177833333Y-101319761D02*
X177785714Y-101224523D01*
X177785714Y-101224523D02*
X177738095Y-101034047D01*
X177738095Y-101034047D02*
X177738095Y-100891190D01*
X177738095Y-100891190D02*
X177785714Y-100700714D01*
X177785714Y-100700714D02*
X177833333Y-100605476D01*
X177833333Y-100605476D02*
X177928571Y-100510238D01*
X177928571Y-100510238D02*
X178071428Y-100462619D01*
X178071428Y-100462619D02*
X178166666Y-100462619D01*
X178166666Y-100462619D02*
X178309523Y-100510238D01*
X178309523Y-100510238D02*
X178357142Y-100557857D01*
X178738095Y-100557857D02*
X178785714Y-100510238D01*
X178785714Y-100510238D02*
X178880952Y-100462619D01*
X178880952Y-100462619D02*
X179119047Y-100462619D01*
X179119047Y-100462619D02*
X179214285Y-100510238D01*
X179214285Y-100510238D02*
X179261904Y-100557857D01*
X179261904Y-100557857D02*
X179309523Y-100653095D01*
X179309523Y-100653095D02*
X179309523Y-100748333D01*
X179309523Y-100748333D02*
X179261904Y-100891190D01*
X179261904Y-100891190D02*
X178690476Y-101462619D01*
X178690476Y-101462619D02*
X179309523Y-101462619D01*
X179642857Y-100462619D02*
X180309523Y-100462619D01*
X180309523Y-100462619D02*
X179880952Y-101462619D01*
%TO.C,R1*%
X154011333Y-79710619D02*
X153678000Y-79234428D01*
X153439905Y-79710619D02*
X153439905Y-78710619D01*
X153439905Y-78710619D02*
X153820857Y-78710619D01*
X153820857Y-78710619D02*
X153916095Y-78758238D01*
X153916095Y-78758238D02*
X153963714Y-78805857D01*
X153963714Y-78805857D02*
X154011333Y-78901095D01*
X154011333Y-78901095D02*
X154011333Y-79043952D01*
X154011333Y-79043952D02*
X153963714Y-79139190D01*
X153963714Y-79139190D02*
X153916095Y-79186809D01*
X153916095Y-79186809D02*
X153820857Y-79234428D01*
X153820857Y-79234428D02*
X153439905Y-79234428D01*
X154963714Y-79710619D02*
X154392286Y-79710619D01*
X154678000Y-79710619D02*
X154678000Y-78710619D01*
X154678000Y-78710619D02*
X154582762Y-78853476D01*
X154582762Y-78853476D02*
X154487524Y-78948714D01*
X154487524Y-78948714D02*
X154392286Y-78996333D01*
%TO.C,R3*%
X169505333Y-68534619D02*
X169172000Y-68058428D01*
X168933905Y-68534619D02*
X168933905Y-67534619D01*
X168933905Y-67534619D02*
X169314857Y-67534619D01*
X169314857Y-67534619D02*
X169410095Y-67582238D01*
X169410095Y-67582238D02*
X169457714Y-67629857D01*
X169457714Y-67629857D02*
X169505333Y-67725095D01*
X169505333Y-67725095D02*
X169505333Y-67867952D01*
X169505333Y-67867952D02*
X169457714Y-67963190D01*
X169457714Y-67963190D02*
X169410095Y-68010809D01*
X169410095Y-68010809D02*
X169314857Y-68058428D01*
X169314857Y-68058428D02*
X168933905Y-68058428D01*
X169838667Y-67534619D02*
X170457714Y-67534619D01*
X170457714Y-67534619D02*
X170124381Y-67915571D01*
X170124381Y-67915571D02*
X170267238Y-67915571D01*
X170267238Y-67915571D02*
X170362476Y-67963190D01*
X170362476Y-67963190D02*
X170410095Y-68010809D01*
X170410095Y-68010809D02*
X170457714Y-68106047D01*
X170457714Y-68106047D02*
X170457714Y-68344142D01*
X170457714Y-68344142D02*
X170410095Y-68439380D01*
X170410095Y-68439380D02*
X170362476Y-68487000D01*
X170362476Y-68487000D02*
X170267238Y-68534619D01*
X170267238Y-68534619D02*
X169981524Y-68534619D01*
X169981524Y-68534619D02*
X169886286Y-68487000D01*
X169886286Y-68487000D02*
X169838667Y-68439380D01*
%TO.C,C5*%
X166457333Y-81901380D02*
X166409714Y-81949000D01*
X166409714Y-81949000D02*
X166266857Y-81996619D01*
X166266857Y-81996619D02*
X166171619Y-81996619D01*
X166171619Y-81996619D02*
X166028762Y-81949000D01*
X166028762Y-81949000D02*
X165933524Y-81853761D01*
X165933524Y-81853761D02*
X165885905Y-81758523D01*
X165885905Y-81758523D02*
X165838286Y-81568047D01*
X165838286Y-81568047D02*
X165838286Y-81425190D01*
X165838286Y-81425190D02*
X165885905Y-81234714D01*
X165885905Y-81234714D02*
X165933524Y-81139476D01*
X165933524Y-81139476D02*
X166028762Y-81044238D01*
X166028762Y-81044238D02*
X166171619Y-80996619D01*
X166171619Y-80996619D02*
X166266857Y-80996619D01*
X166266857Y-80996619D02*
X166409714Y-81044238D01*
X166409714Y-81044238D02*
X166457333Y-81091857D01*
X167362095Y-80996619D02*
X166885905Y-80996619D01*
X166885905Y-80996619D02*
X166838286Y-81472809D01*
X166838286Y-81472809D02*
X166885905Y-81425190D01*
X166885905Y-81425190D02*
X166981143Y-81377571D01*
X166981143Y-81377571D02*
X167219238Y-81377571D01*
X167219238Y-81377571D02*
X167314476Y-81425190D01*
X167314476Y-81425190D02*
X167362095Y-81472809D01*
X167362095Y-81472809D02*
X167409714Y-81568047D01*
X167409714Y-81568047D02*
X167409714Y-81806142D01*
X167409714Y-81806142D02*
X167362095Y-81901380D01*
X167362095Y-81901380D02*
X167314476Y-81949000D01*
X167314476Y-81949000D02*
X167219238Y-81996619D01*
X167219238Y-81996619D02*
X166981143Y-81996619D01*
X166981143Y-81996619D02*
X166885905Y-81949000D01*
X166885905Y-81949000D02*
X166838286Y-81901380D01*
%TO.C,C10*%
X165727142Y-103999380D02*
X165679523Y-104047000D01*
X165679523Y-104047000D02*
X165536666Y-104094619D01*
X165536666Y-104094619D02*
X165441428Y-104094619D01*
X165441428Y-104094619D02*
X165298571Y-104047000D01*
X165298571Y-104047000D02*
X165203333Y-103951761D01*
X165203333Y-103951761D02*
X165155714Y-103856523D01*
X165155714Y-103856523D02*
X165108095Y-103666047D01*
X165108095Y-103666047D02*
X165108095Y-103523190D01*
X165108095Y-103523190D02*
X165155714Y-103332714D01*
X165155714Y-103332714D02*
X165203333Y-103237476D01*
X165203333Y-103237476D02*
X165298571Y-103142238D01*
X165298571Y-103142238D02*
X165441428Y-103094619D01*
X165441428Y-103094619D02*
X165536666Y-103094619D01*
X165536666Y-103094619D02*
X165679523Y-103142238D01*
X165679523Y-103142238D02*
X165727142Y-103189857D01*
X166679523Y-104094619D02*
X166108095Y-104094619D01*
X166393809Y-104094619D02*
X166393809Y-103094619D01*
X166393809Y-103094619D02*
X166298571Y-103237476D01*
X166298571Y-103237476D02*
X166203333Y-103332714D01*
X166203333Y-103332714D02*
X166108095Y-103380333D01*
X167298571Y-103094619D02*
X167393809Y-103094619D01*
X167393809Y-103094619D02*
X167489047Y-103142238D01*
X167489047Y-103142238D02*
X167536666Y-103189857D01*
X167536666Y-103189857D02*
X167584285Y-103285095D01*
X167584285Y-103285095D02*
X167631904Y-103475571D01*
X167631904Y-103475571D02*
X167631904Y-103713666D01*
X167631904Y-103713666D02*
X167584285Y-103904142D01*
X167584285Y-103904142D02*
X167536666Y-103999380D01*
X167536666Y-103999380D02*
X167489047Y-104047000D01*
X167489047Y-104047000D02*
X167393809Y-104094619D01*
X167393809Y-104094619D02*
X167298571Y-104094619D01*
X167298571Y-104094619D02*
X167203333Y-104047000D01*
X167203333Y-104047000D02*
X167155714Y-103999380D01*
X167155714Y-103999380D02*
X167108095Y-103904142D01*
X167108095Y-103904142D02*
X167060476Y-103713666D01*
X167060476Y-103713666D02*
X167060476Y-103475571D01*
X167060476Y-103475571D02*
X167108095Y-103285095D01*
X167108095Y-103285095D02*
X167155714Y-103189857D01*
X167155714Y-103189857D02*
X167203333Y-103142238D01*
X167203333Y-103142238D02*
X167298571Y-103094619D01*
%TO.C,U9*%
X193038095Y-66437619D02*
X193038095Y-67247142D01*
X193038095Y-67247142D02*
X193085714Y-67342380D01*
X193085714Y-67342380D02*
X193133333Y-67390000D01*
X193133333Y-67390000D02*
X193228571Y-67437619D01*
X193228571Y-67437619D02*
X193419047Y-67437619D01*
X193419047Y-67437619D02*
X193514285Y-67390000D01*
X193514285Y-67390000D02*
X193561904Y-67342380D01*
X193561904Y-67342380D02*
X193609523Y-67247142D01*
X193609523Y-67247142D02*
X193609523Y-66437619D01*
X194133333Y-67437619D02*
X194323809Y-67437619D01*
X194323809Y-67437619D02*
X194419047Y-67390000D01*
X194419047Y-67390000D02*
X194466666Y-67342380D01*
X194466666Y-67342380D02*
X194561904Y-67199523D01*
X194561904Y-67199523D02*
X194609523Y-67009047D01*
X194609523Y-67009047D02*
X194609523Y-66628095D01*
X194609523Y-66628095D02*
X194561904Y-66532857D01*
X194561904Y-66532857D02*
X194514285Y-66485238D01*
X194514285Y-66485238D02*
X194419047Y-66437619D01*
X194419047Y-66437619D02*
X194228571Y-66437619D01*
X194228571Y-66437619D02*
X194133333Y-66485238D01*
X194133333Y-66485238D02*
X194085714Y-66532857D01*
X194085714Y-66532857D02*
X194038095Y-66628095D01*
X194038095Y-66628095D02*
X194038095Y-66866190D01*
X194038095Y-66866190D02*
X194085714Y-66961428D01*
X194085714Y-66961428D02*
X194133333Y-67009047D01*
X194133333Y-67009047D02*
X194228571Y-67056666D01*
X194228571Y-67056666D02*
X194419047Y-67056666D01*
X194419047Y-67056666D02*
X194514285Y-67009047D01*
X194514285Y-67009047D02*
X194561904Y-66961428D01*
X194561904Y-66961428D02*
X194609523Y-66866190D01*
%TO.C,R14*%
X160582142Y-64712619D02*
X160248809Y-64236428D01*
X160010714Y-64712619D02*
X160010714Y-63712619D01*
X160010714Y-63712619D02*
X160391666Y-63712619D01*
X160391666Y-63712619D02*
X160486904Y-63760238D01*
X160486904Y-63760238D02*
X160534523Y-63807857D01*
X160534523Y-63807857D02*
X160582142Y-63903095D01*
X160582142Y-63903095D02*
X160582142Y-64045952D01*
X160582142Y-64045952D02*
X160534523Y-64141190D01*
X160534523Y-64141190D02*
X160486904Y-64188809D01*
X160486904Y-64188809D02*
X160391666Y-64236428D01*
X160391666Y-64236428D02*
X160010714Y-64236428D01*
X161534523Y-64712619D02*
X160963095Y-64712619D01*
X161248809Y-64712619D02*
X161248809Y-63712619D01*
X161248809Y-63712619D02*
X161153571Y-63855476D01*
X161153571Y-63855476D02*
X161058333Y-63950714D01*
X161058333Y-63950714D02*
X160963095Y-63998333D01*
X162391666Y-64045952D02*
X162391666Y-64712619D01*
X162153571Y-63665000D02*
X161915476Y-64379285D01*
X161915476Y-64379285D02*
X162534523Y-64379285D01*
%TO.C,TP10*%
X175561905Y-68462619D02*
X176133333Y-68462619D01*
X175847619Y-69462619D02*
X175847619Y-68462619D01*
X176466667Y-69462619D02*
X176466667Y-68462619D01*
X176466667Y-68462619D02*
X176847619Y-68462619D01*
X176847619Y-68462619D02*
X176942857Y-68510238D01*
X176942857Y-68510238D02*
X176990476Y-68557857D01*
X176990476Y-68557857D02*
X177038095Y-68653095D01*
X177038095Y-68653095D02*
X177038095Y-68795952D01*
X177038095Y-68795952D02*
X176990476Y-68891190D01*
X176990476Y-68891190D02*
X176942857Y-68938809D01*
X176942857Y-68938809D02*
X176847619Y-68986428D01*
X176847619Y-68986428D02*
X176466667Y-68986428D01*
X177990476Y-69462619D02*
X177419048Y-69462619D01*
X177704762Y-69462619D02*
X177704762Y-68462619D01*
X177704762Y-68462619D02*
X177609524Y-68605476D01*
X177609524Y-68605476D02*
X177514286Y-68700714D01*
X177514286Y-68700714D02*
X177419048Y-68748333D01*
X178609524Y-68462619D02*
X178704762Y-68462619D01*
X178704762Y-68462619D02*
X178800000Y-68510238D01*
X178800000Y-68510238D02*
X178847619Y-68557857D01*
X178847619Y-68557857D02*
X178895238Y-68653095D01*
X178895238Y-68653095D02*
X178942857Y-68843571D01*
X178942857Y-68843571D02*
X178942857Y-69081666D01*
X178942857Y-69081666D02*
X178895238Y-69272142D01*
X178895238Y-69272142D02*
X178847619Y-69367380D01*
X178847619Y-69367380D02*
X178800000Y-69415000D01*
X178800000Y-69415000D02*
X178704762Y-69462619D01*
X178704762Y-69462619D02*
X178609524Y-69462619D01*
X178609524Y-69462619D02*
X178514286Y-69415000D01*
X178514286Y-69415000D02*
X178466667Y-69367380D01*
X178466667Y-69367380D02*
X178419048Y-69272142D01*
X178419048Y-69272142D02*
X178371429Y-69081666D01*
X178371429Y-69081666D02*
X178371429Y-68843571D01*
X178371429Y-68843571D02*
X178419048Y-68653095D01*
X178419048Y-68653095D02*
X178466667Y-68557857D01*
X178466667Y-68557857D02*
X178514286Y-68510238D01*
X178514286Y-68510238D02*
X178609524Y-68462619D01*
%TO.C,C7*%
X168997333Y-93331380D02*
X168949714Y-93379000D01*
X168949714Y-93379000D02*
X168806857Y-93426619D01*
X168806857Y-93426619D02*
X168711619Y-93426619D01*
X168711619Y-93426619D02*
X168568762Y-93379000D01*
X168568762Y-93379000D02*
X168473524Y-93283761D01*
X168473524Y-93283761D02*
X168425905Y-93188523D01*
X168425905Y-93188523D02*
X168378286Y-92998047D01*
X168378286Y-92998047D02*
X168378286Y-92855190D01*
X168378286Y-92855190D02*
X168425905Y-92664714D01*
X168425905Y-92664714D02*
X168473524Y-92569476D01*
X168473524Y-92569476D02*
X168568762Y-92474238D01*
X168568762Y-92474238D02*
X168711619Y-92426619D01*
X168711619Y-92426619D02*
X168806857Y-92426619D01*
X168806857Y-92426619D02*
X168949714Y-92474238D01*
X168949714Y-92474238D02*
X168997333Y-92521857D01*
X169330667Y-92426619D02*
X169997333Y-92426619D01*
X169997333Y-92426619D02*
X169568762Y-93426619D01*
%TO.C,J3*%
X163926666Y-63752619D02*
X163926666Y-64466904D01*
X163926666Y-64466904D02*
X163879047Y-64609761D01*
X163879047Y-64609761D02*
X163783809Y-64705000D01*
X163783809Y-64705000D02*
X163640952Y-64752619D01*
X163640952Y-64752619D02*
X163545714Y-64752619D01*
X164307619Y-63752619D02*
X164926666Y-63752619D01*
X164926666Y-63752619D02*
X164593333Y-64133571D01*
X164593333Y-64133571D02*
X164736190Y-64133571D01*
X164736190Y-64133571D02*
X164831428Y-64181190D01*
X164831428Y-64181190D02*
X164879047Y-64228809D01*
X164879047Y-64228809D02*
X164926666Y-64324047D01*
X164926666Y-64324047D02*
X164926666Y-64562142D01*
X164926666Y-64562142D02*
X164879047Y-64657380D01*
X164879047Y-64657380D02*
X164831428Y-64705000D01*
X164831428Y-64705000D02*
X164736190Y-64752619D01*
X164736190Y-64752619D02*
X164450476Y-64752619D01*
X164450476Y-64752619D02*
X164355238Y-64705000D01*
X164355238Y-64705000D02*
X164307619Y-64657380D01*
%TO.C,U1*%
X171138095Y-75662619D02*
X171138095Y-76472142D01*
X171138095Y-76472142D02*
X171185714Y-76567380D01*
X171185714Y-76567380D02*
X171233333Y-76615000D01*
X171233333Y-76615000D02*
X171328571Y-76662619D01*
X171328571Y-76662619D02*
X171519047Y-76662619D01*
X171519047Y-76662619D02*
X171614285Y-76615000D01*
X171614285Y-76615000D02*
X171661904Y-76567380D01*
X171661904Y-76567380D02*
X171709523Y-76472142D01*
X171709523Y-76472142D02*
X171709523Y-75662619D01*
X172709523Y-76662619D02*
X172138095Y-76662619D01*
X172423809Y-76662619D02*
X172423809Y-75662619D01*
X172423809Y-75662619D02*
X172328571Y-75805476D01*
X172328571Y-75805476D02*
X172233333Y-75900714D01*
X172233333Y-75900714D02*
X172138095Y-75948333D01*
%TO.C,U8*%
X158038095Y-67462619D02*
X158038095Y-68272142D01*
X158038095Y-68272142D02*
X158085714Y-68367380D01*
X158085714Y-68367380D02*
X158133333Y-68415000D01*
X158133333Y-68415000D02*
X158228571Y-68462619D01*
X158228571Y-68462619D02*
X158419047Y-68462619D01*
X158419047Y-68462619D02*
X158514285Y-68415000D01*
X158514285Y-68415000D02*
X158561904Y-68367380D01*
X158561904Y-68367380D02*
X158609523Y-68272142D01*
X158609523Y-68272142D02*
X158609523Y-67462619D01*
X159228571Y-67891190D02*
X159133333Y-67843571D01*
X159133333Y-67843571D02*
X159085714Y-67795952D01*
X159085714Y-67795952D02*
X159038095Y-67700714D01*
X159038095Y-67700714D02*
X159038095Y-67653095D01*
X159038095Y-67653095D02*
X159085714Y-67557857D01*
X159085714Y-67557857D02*
X159133333Y-67510238D01*
X159133333Y-67510238D02*
X159228571Y-67462619D01*
X159228571Y-67462619D02*
X159419047Y-67462619D01*
X159419047Y-67462619D02*
X159514285Y-67510238D01*
X159514285Y-67510238D02*
X159561904Y-67557857D01*
X159561904Y-67557857D02*
X159609523Y-67653095D01*
X159609523Y-67653095D02*
X159609523Y-67700714D01*
X159609523Y-67700714D02*
X159561904Y-67795952D01*
X159561904Y-67795952D02*
X159514285Y-67843571D01*
X159514285Y-67843571D02*
X159419047Y-67891190D01*
X159419047Y-67891190D02*
X159228571Y-67891190D01*
X159228571Y-67891190D02*
X159133333Y-67938809D01*
X159133333Y-67938809D02*
X159085714Y-67986428D01*
X159085714Y-67986428D02*
X159038095Y-68081666D01*
X159038095Y-68081666D02*
X159038095Y-68272142D01*
X159038095Y-68272142D02*
X159085714Y-68367380D01*
X159085714Y-68367380D02*
X159133333Y-68415000D01*
X159133333Y-68415000D02*
X159228571Y-68462619D01*
X159228571Y-68462619D02*
X159419047Y-68462619D01*
X159419047Y-68462619D02*
X159514285Y-68415000D01*
X159514285Y-68415000D02*
X159561904Y-68367380D01*
X159561904Y-68367380D02*
X159609523Y-68272142D01*
X159609523Y-68272142D02*
X159609523Y-68081666D01*
X159609523Y-68081666D02*
X159561904Y-67986428D01*
X159561904Y-67986428D02*
X159514285Y-67938809D01*
X159514285Y-67938809D02*
X159419047Y-67891190D01*
%TO.C,TP12*%
X178261905Y-97062619D02*
X178833333Y-97062619D01*
X178547619Y-98062619D02*
X178547619Y-97062619D01*
X179166667Y-98062619D02*
X179166667Y-97062619D01*
X179166667Y-97062619D02*
X179547619Y-97062619D01*
X179547619Y-97062619D02*
X179642857Y-97110238D01*
X179642857Y-97110238D02*
X179690476Y-97157857D01*
X179690476Y-97157857D02*
X179738095Y-97253095D01*
X179738095Y-97253095D02*
X179738095Y-97395952D01*
X179738095Y-97395952D02*
X179690476Y-97491190D01*
X179690476Y-97491190D02*
X179642857Y-97538809D01*
X179642857Y-97538809D02*
X179547619Y-97586428D01*
X179547619Y-97586428D02*
X179166667Y-97586428D01*
X180690476Y-98062619D02*
X180119048Y-98062619D01*
X180404762Y-98062619D02*
X180404762Y-97062619D01*
X180404762Y-97062619D02*
X180309524Y-97205476D01*
X180309524Y-97205476D02*
X180214286Y-97300714D01*
X180214286Y-97300714D02*
X180119048Y-97348333D01*
X181071429Y-97157857D02*
X181119048Y-97110238D01*
X181119048Y-97110238D02*
X181214286Y-97062619D01*
X181214286Y-97062619D02*
X181452381Y-97062619D01*
X181452381Y-97062619D02*
X181547619Y-97110238D01*
X181547619Y-97110238D02*
X181595238Y-97157857D01*
X181595238Y-97157857D02*
X181642857Y-97253095D01*
X181642857Y-97253095D02*
X181642857Y-97348333D01*
X181642857Y-97348333D02*
X181595238Y-97491190D01*
X181595238Y-97491190D02*
X181023810Y-98062619D01*
X181023810Y-98062619D02*
X181642857Y-98062619D01*
%TO.C,R28*%
X183257142Y-97062619D02*
X182923809Y-96586428D01*
X182685714Y-97062619D02*
X182685714Y-96062619D01*
X182685714Y-96062619D02*
X183066666Y-96062619D01*
X183066666Y-96062619D02*
X183161904Y-96110238D01*
X183161904Y-96110238D02*
X183209523Y-96157857D01*
X183209523Y-96157857D02*
X183257142Y-96253095D01*
X183257142Y-96253095D02*
X183257142Y-96395952D01*
X183257142Y-96395952D02*
X183209523Y-96491190D01*
X183209523Y-96491190D02*
X183161904Y-96538809D01*
X183161904Y-96538809D02*
X183066666Y-96586428D01*
X183066666Y-96586428D02*
X182685714Y-96586428D01*
X183638095Y-96157857D02*
X183685714Y-96110238D01*
X183685714Y-96110238D02*
X183780952Y-96062619D01*
X183780952Y-96062619D02*
X184019047Y-96062619D01*
X184019047Y-96062619D02*
X184114285Y-96110238D01*
X184114285Y-96110238D02*
X184161904Y-96157857D01*
X184161904Y-96157857D02*
X184209523Y-96253095D01*
X184209523Y-96253095D02*
X184209523Y-96348333D01*
X184209523Y-96348333D02*
X184161904Y-96491190D01*
X184161904Y-96491190D02*
X183590476Y-97062619D01*
X183590476Y-97062619D02*
X184209523Y-97062619D01*
X184780952Y-96491190D02*
X184685714Y-96443571D01*
X184685714Y-96443571D02*
X184638095Y-96395952D01*
X184638095Y-96395952D02*
X184590476Y-96300714D01*
X184590476Y-96300714D02*
X184590476Y-96253095D01*
X184590476Y-96253095D02*
X184638095Y-96157857D01*
X184638095Y-96157857D02*
X184685714Y-96110238D01*
X184685714Y-96110238D02*
X184780952Y-96062619D01*
X184780952Y-96062619D02*
X184971428Y-96062619D01*
X184971428Y-96062619D02*
X185066666Y-96110238D01*
X185066666Y-96110238D02*
X185114285Y-96157857D01*
X185114285Y-96157857D02*
X185161904Y-96253095D01*
X185161904Y-96253095D02*
X185161904Y-96300714D01*
X185161904Y-96300714D02*
X185114285Y-96395952D01*
X185114285Y-96395952D02*
X185066666Y-96443571D01*
X185066666Y-96443571D02*
X184971428Y-96491190D01*
X184971428Y-96491190D02*
X184780952Y-96491190D01*
X184780952Y-96491190D02*
X184685714Y-96538809D01*
X184685714Y-96538809D02*
X184638095Y-96586428D01*
X184638095Y-96586428D02*
X184590476Y-96681666D01*
X184590476Y-96681666D02*
X184590476Y-96872142D01*
X184590476Y-96872142D02*
X184638095Y-96967380D01*
X184638095Y-96967380D02*
X184685714Y-97015000D01*
X184685714Y-97015000D02*
X184780952Y-97062619D01*
X184780952Y-97062619D02*
X184971428Y-97062619D01*
X184971428Y-97062619D02*
X185066666Y-97015000D01*
X185066666Y-97015000D02*
X185114285Y-96967380D01*
X185114285Y-96967380D02*
X185161904Y-96872142D01*
X185161904Y-96872142D02*
X185161904Y-96681666D01*
X185161904Y-96681666D02*
X185114285Y-96586428D01*
X185114285Y-96586428D02*
X185066666Y-96538809D01*
X185066666Y-96538809D02*
X184971428Y-96491190D01*
%TO.C,TP1*%
X154186095Y-80742619D02*
X154757523Y-80742619D01*
X154471809Y-81742619D02*
X154471809Y-80742619D01*
X155090857Y-81742619D02*
X155090857Y-80742619D01*
X155090857Y-80742619D02*
X155471809Y-80742619D01*
X155471809Y-80742619D02*
X155567047Y-80790238D01*
X155567047Y-80790238D02*
X155614666Y-80837857D01*
X155614666Y-80837857D02*
X155662285Y-80933095D01*
X155662285Y-80933095D02*
X155662285Y-81075952D01*
X155662285Y-81075952D02*
X155614666Y-81171190D01*
X155614666Y-81171190D02*
X155567047Y-81218809D01*
X155567047Y-81218809D02*
X155471809Y-81266428D01*
X155471809Y-81266428D02*
X155090857Y-81266428D01*
X156614666Y-81742619D02*
X156043238Y-81742619D01*
X156328952Y-81742619D02*
X156328952Y-80742619D01*
X156328952Y-80742619D02*
X156233714Y-80885476D01*
X156233714Y-80885476D02*
X156138476Y-80980714D01*
X156138476Y-80980714D02*
X156043238Y-81028333D01*
%TO.C,U7*%
X166878095Y-111730619D02*
X166878095Y-112540142D01*
X166878095Y-112540142D02*
X166925714Y-112635380D01*
X166925714Y-112635380D02*
X166973333Y-112683000D01*
X166973333Y-112683000D02*
X167068571Y-112730619D01*
X167068571Y-112730619D02*
X167259047Y-112730619D01*
X167259047Y-112730619D02*
X167354285Y-112683000D01*
X167354285Y-112683000D02*
X167401904Y-112635380D01*
X167401904Y-112635380D02*
X167449523Y-112540142D01*
X167449523Y-112540142D02*
X167449523Y-111730619D01*
X167830476Y-111730619D02*
X168497142Y-111730619D01*
X168497142Y-111730619D02*
X168068571Y-112730619D01*
%TO.C,R10*%
X185062619Y-77942857D02*
X184586428Y-78276190D01*
X185062619Y-78514285D02*
X184062619Y-78514285D01*
X184062619Y-78514285D02*
X184062619Y-78133333D01*
X184062619Y-78133333D02*
X184110238Y-78038095D01*
X184110238Y-78038095D02*
X184157857Y-77990476D01*
X184157857Y-77990476D02*
X184253095Y-77942857D01*
X184253095Y-77942857D02*
X184395952Y-77942857D01*
X184395952Y-77942857D02*
X184491190Y-77990476D01*
X184491190Y-77990476D02*
X184538809Y-78038095D01*
X184538809Y-78038095D02*
X184586428Y-78133333D01*
X184586428Y-78133333D02*
X184586428Y-78514285D01*
X185062619Y-76990476D02*
X185062619Y-77561904D01*
X185062619Y-77276190D02*
X184062619Y-77276190D01*
X184062619Y-77276190D02*
X184205476Y-77371428D01*
X184205476Y-77371428D02*
X184300714Y-77466666D01*
X184300714Y-77466666D02*
X184348333Y-77561904D01*
X184062619Y-76371428D02*
X184062619Y-76276190D01*
X184062619Y-76276190D02*
X184110238Y-76180952D01*
X184110238Y-76180952D02*
X184157857Y-76133333D01*
X184157857Y-76133333D02*
X184253095Y-76085714D01*
X184253095Y-76085714D02*
X184443571Y-76038095D01*
X184443571Y-76038095D02*
X184681666Y-76038095D01*
X184681666Y-76038095D02*
X184872142Y-76085714D01*
X184872142Y-76085714D02*
X184967380Y-76133333D01*
X184967380Y-76133333D02*
X185015000Y-76180952D01*
X185015000Y-76180952D02*
X185062619Y-76276190D01*
X185062619Y-76276190D02*
X185062619Y-76371428D01*
X185062619Y-76371428D02*
X185015000Y-76466666D01*
X185015000Y-76466666D02*
X184967380Y-76514285D01*
X184967380Y-76514285D02*
X184872142Y-76561904D01*
X184872142Y-76561904D02*
X184681666Y-76609523D01*
X184681666Y-76609523D02*
X184443571Y-76609523D01*
X184443571Y-76609523D02*
X184253095Y-76561904D01*
X184253095Y-76561904D02*
X184157857Y-76514285D01*
X184157857Y-76514285D02*
X184110238Y-76466666D01*
X184110238Y-76466666D02*
X184062619Y-76371428D01*
%TO.C,TP15*%
X181761905Y-112492619D02*
X182333333Y-112492619D01*
X182047619Y-113492619D02*
X182047619Y-112492619D01*
X182666667Y-113492619D02*
X182666667Y-112492619D01*
X182666667Y-112492619D02*
X183047619Y-112492619D01*
X183047619Y-112492619D02*
X183142857Y-112540238D01*
X183142857Y-112540238D02*
X183190476Y-112587857D01*
X183190476Y-112587857D02*
X183238095Y-112683095D01*
X183238095Y-112683095D02*
X183238095Y-112825952D01*
X183238095Y-112825952D02*
X183190476Y-112921190D01*
X183190476Y-112921190D02*
X183142857Y-112968809D01*
X183142857Y-112968809D02*
X183047619Y-113016428D01*
X183047619Y-113016428D02*
X182666667Y-113016428D01*
X184190476Y-113492619D02*
X183619048Y-113492619D01*
X183904762Y-113492619D02*
X183904762Y-112492619D01*
X183904762Y-112492619D02*
X183809524Y-112635476D01*
X183809524Y-112635476D02*
X183714286Y-112730714D01*
X183714286Y-112730714D02*
X183619048Y-112778333D01*
X185095238Y-112492619D02*
X184619048Y-112492619D01*
X184619048Y-112492619D02*
X184571429Y-112968809D01*
X184571429Y-112968809D02*
X184619048Y-112921190D01*
X184619048Y-112921190D02*
X184714286Y-112873571D01*
X184714286Y-112873571D02*
X184952381Y-112873571D01*
X184952381Y-112873571D02*
X185047619Y-112921190D01*
X185047619Y-112921190D02*
X185095238Y-112968809D01*
X185095238Y-112968809D02*
X185142857Y-113064047D01*
X185142857Y-113064047D02*
X185142857Y-113302142D01*
X185142857Y-113302142D02*
X185095238Y-113397380D01*
X185095238Y-113397380D02*
X185047619Y-113445000D01*
X185047619Y-113445000D02*
X184952381Y-113492619D01*
X184952381Y-113492619D02*
X184714286Y-113492619D01*
X184714286Y-113492619D02*
X184619048Y-113445000D01*
X184619048Y-113445000D02*
X184571429Y-113397380D01*
%TO.C,TP17*%
X153316905Y-85202619D02*
X153888333Y-85202619D01*
X153602619Y-86202619D02*
X153602619Y-85202619D01*
X154221667Y-86202619D02*
X154221667Y-85202619D01*
X154221667Y-85202619D02*
X154602619Y-85202619D01*
X154602619Y-85202619D02*
X154697857Y-85250238D01*
X154697857Y-85250238D02*
X154745476Y-85297857D01*
X154745476Y-85297857D02*
X154793095Y-85393095D01*
X154793095Y-85393095D02*
X154793095Y-85535952D01*
X154793095Y-85535952D02*
X154745476Y-85631190D01*
X154745476Y-85631190D02*
X154697857Y-85678809D01*
X154697857Y-85678809D02*
X154602619Y-85726428D01*
X154602619Y-85726428D02*
X154221667Y-85726428D01*
X155745476Y-86202619D02*
X155174048Y-86202619D01*
X155459762Y-86202619D02*
X155459762Y-85202619D01*
X155459762Y-85202619D02*
X155364524Y-85345476D01*
X155364524Y-85345476D02*
X155269286Y-85440714D01*
X155269286Y-85440714D02*
X155174048Y-85488333D01*
X156078810Y-85202619D02*
X156745476Y-85202619D01*
X156745476Y-85202619D02*
X156316905Y-86202619D01*
%TO.C,U5*%
X184898395Y-91522819D02*
X184898395Y-92332342D01*
X184898395Y-92332342D02*
X184946014Y-92427580D01*
X184946014Y-92427580D02*
X184993633Y-92475200D01*
X184993633Y-92475200D02*
X185088871Y-92522819D01*
X185088871Y-92522819D02*
X185279347Y-92522819D01*
X185279347Y-92522819D02*
X185374585Y-92475200D01*
X185374585Y-92475200D02*
X185422204Y-92427580D01*
X185422204Y-92427580D02*
X185469823Y-92332342D01*
X185469823Y-92332342D02*
X185469823Y-91522819D01*
X186422204Y-91522819D02*
X185946014Y-91522819D01*
X185946014Y-91522819D02*
X185898395Y-91999009D01*
X185898395Y-91999009D02*
X185946014Y-91951390D01*
X185946014Y-91951390D02*
X186041252Y-91903771D01*
X186041252Y-91903771D02*
X186279347Y-91903771D01*
X186279347Y-91903771D02*
X186374585Y-91951390D01*
X186374585Y-91951390D02*
X186422204Y-91999009D01*
X186422204Y-91999009D02*
X186469823Y-92094247D01*
X186469823Y-92094247D02*
X186469823Y-92332342D01*
X186469823Y-92332342D02*
X186422204Y-92427580D01*
X186422204Y-92427580D02*
X186374585Y-92475200D01*
X186374585Y-92475200D02*
X186279347Y-92522819D01*
X186279347Y-92522819D02*
X186041252Y-92522819D01*
X186041252Y-92522819D02*
X185946014Y-92475200D01*
X185946014Y-92475200D02*
X185898395Y-92427580D01*
%TO.C,U6*%
X184441295Y-108262619D02*
X184441295Y-109072142D01*
X184441295Y-109072142D02*
X184488914Y-109167380D01*
X184488914Y-109167380D02*
X184536533Y-109215000D01*
X184536533Y-109215000D02*
X184631771Y-109262619D01*
X184631771Y-109262619D02*
X184822247Y-109262619D01*
X184822247Y-109262619D02*
X184917485Y-109215000D01*
X184917485Y-109215000D02*
X184965104Y-109167380D01*
X184965104Y-109167380D02*
X185012723Y-109072142D01*
X185012723Y-109072142D02*
X185012723Y-108262619D01*
X185917485Y-108262619D02*
X185727009Y-108262619D01*
X185727009Y-108262619D02*
X185631771Y-108310238D01*
X185631771Y-108310238D02*
X185584152Y-108357857D01*
X185584152Y-108357857D02*
X185488914Y-108500714D01*
X185488914Y-108500714D02*
X185441295Y-108691190D01*
X185441295Y-108691190D02*
X185441295Y-109072142D01*
X185441295Y-109072142D02*
X185488914Y-109167380D01*
X185488914Y-109167380D02*
X185536533Y-109215000D01*
X185536533Y-109215000D02*
X185631771Y-109262619D01*
X185631771Y-109262619D02*
X185822247Y-109262619D01*
X185822247Y-109262619D02*
X185917485Y-109215000D01*
X185917485Y-109215000D02*
X185965104Y-109167380D01*
X185965104Y-109167380D02*
X186012723Y-109072142D01*
X186012723Y-109072142D02*
X186012723Y-108834047D01*
X186012723Y-108834047D02*
X185965104Y-108738809D01*
X185965104Y-108738809D02*
X185917485Y-108691190D01*
X185917485Y-108691190D02*
X185822247Y-108643571D01*
X185822247Y-108643571D02*
X185631771Y-108643571D01*
X185631771Y-108643571D02*
X185536533Y-108691190D01*
X185536533Y-108691190D02*
X185488914Y-108738809D01*
X185488914Y-108738809D02*
X185441295Y-108834047D01*
%TO.C,TP5*%
X173638095Y-75762619D02*
X174209523Y-75762619D01*
X173923809Y-76762619D02*
X173923809Y-75762619D01*
X174542857Y-76762619D02*
X174542857Y-75762619D01*
X174542857Y-75762619D02*
X174923809Y-75762619D01*
X174923809Y-75762619D02*
X175019047Y-75810238D01*
X175019047Y-75810238D02*
X175066666Y-75857857D01*
X175066666Y-75857857D02*
X175114285Y-75953095D01*
X175114285Y-75953095D02*
X175114285Y-76095952D01*
X175114285Y-76095952D02*
X175066666Y-76191190D01*
X175066666Y-76191190D02*
X175019047Y-76238809D01*
X175019047Y-76238809D02*
X174923809Y-76286428D01*
X174923809Y-76286428D02*
X174542857Y-76286428D01*
X176019047Y-75762619D02*
X175542857Y-75762619D01*
X175542857Y-75762619D02*
X175495238Y-76238809D01*
X175495238Y-76238809D02*
X175542857Y-76191190D01*
X175542857Y-76191190D02*
X175638095Y-76143571D01*
X175638095Y-76143571D02*
X175876190Y-76143571D01*
X175876190Y-76143571D02*
X175971428Y-76191190D01*
X175971428Y-76191190D02*
X176019047Y-76238809D01*
X176019047Y-76238809D02*
X176066666Y-76334047D01*
X176066666Y-76334047D02*
X176066666Y-76572142D01*
X176066666Y-76572142D02*
X176019047Y-76667380D01*
X176019047Y-76667380D02*
X175971428Y-76715000D01*
X175971428Y-76715000D02*
X175876190Y-76762619D01*
X175876190Y-76762619D02*
X175638095Y-76762619D01*
X175638095Y-76762619D02*
X175542857Y-76715000D01*
X175542857Y-76715000D02*
X175495238Y-76667380D01*
%TO.C,C22*%
X189692380Y-105667857D02*
X189740000Y-105715476D01*
X189740000Y-105715476D02*
X189787619Y-105858333D01*
X189787619Y-105858333D02*
X189787619Y-105953571D01*
X189787619Y-105953571D02*
X189740000Y-106096428D01*
X189740000Y-106096428D02*
X189644761Y-106191666D01*
X189644761Y-106191666D02*
X189549523Y-106239285D01*
X189549523Y-106239285D02*
X189359047Y-106286904D01*
X189359047Y-106286904D02*
X189216190Y-106286904D01*
X189216190Y-106286904D02*
X189025714Y-106239285D01*
X189025714Y-106239285D02*
X188930476Y-106191666D01*
X188930476Y-106191666D02*
X188835238Y-106096428D01*
X188835238Y-106096428D02*
X188787619Y-105953571D01*
X188787619Y-105953571D02*
X188787619Y-105858333D01*
X188787619Y-105858333D02*
X188835238Y-105715476D01*
X188835238Y-105715476D02*
X188882857Y-105667857D01*
X188882857Y-105286904D02*
X188835238Y-105239285D01*
X188835238Y-105239285D02*
X188787619Y-105144047D01*
X188787619Y-105144047D02*
X188787619Y-104905952D01*
X188787619Y-104905952D02*
X188835238Y-104810714D01*
X188835238Y-104810714D02*
X188882857Y-104763095D01*
X188882857Y-104763095D02*
X188978095Y-104715476D01*
X188978095Y-104715476D02*
X189073333Y-104715476D01*
X189073333Y-104715476D02*
X189216190Y-104763095D01*
X189216190Y-104763095D02*
X189787619Y-105334523D01*
X189787619Y-105334523D02*
X189787619Y-104715476D01*
X188882857Y-104334523D02*
X188835238Y-104286904D01*
X188835238Y-104286904D02*
X188787619Y-104191666D01*
X188787619Y-104191666D02*
X188787619Y-103953571D01*
X188787619Y-103953571D02*
X188835238Y-103858333D01*
X188835238Y-103858333D02*
X188882857Y-103810714D01*
X188882857Y-103810714D02*
X188978095Y-103763095D01*
X188978095Y-103763095D02*
X189073333Y-103763095D01*
X189073333Y-103763095D02*
X189216190Y-103810714D01*
X189216190Y-103810714D02*
X189787619Y-104382142D01*
X189787619Y-104382142D02*
X189787619Y-103763095D01*
%TO.C,C18*%
X166229380Y-68206857D02*
X166277000Y-68254476D01*
X166277000Y-68254476D02*
X166324619Y-68397333D01*
X166324619Y-68397333D02*
X166324619Y-68492571D01*
X166324619Y-68492571D02*
X166277000Y-68635428D01*
X166277000Y-68635428D02*
X166181761Y-68730666D01*
X166181761Y-68730666D02*
X166086523Y-68778285D01*
X166086523Y-68778285D02*
X165896047Y-68825904D01*
X165896047Y-68825904D02*
X165753190Y-68825904D01*
X165753190Y-68825904D02*
X165562714Y-68778285D01*
X165562714Y-68778285D02*
X165467476Y-68730666D01*
X165467476Y-68730666D02*
X165372238Y-68635428D01*
X165372238Y-68635428D02*
X165324619Y-68492571D01*
X165324619Y-68492571D02*
X165324619Y-68397333D01*
X165324619Y-68397333D02*
X165372238Y-68254476D01*
X165372238Y-68254476D02*
X165419857Y-68206857D01*
X166324619Y-67254476D02*
X166324619Y-67825904D01*
X166324619Y-67540190D02*
X165324619Y-67540190D01*
X165324619Y-67540190D02*
X165467476Y-67635428D01*
X165467476Y-67635428D02*
X165562714Y-67730666D01*
X165562714Y-67730666D02*
X165610333Y-67825904D01*
X165753190Y-66683047D02*
X165705571Y-66778285D01*
X165705571Y-66778285D02*
X165657952Y-66825904D01*
X165657952Y-66825904D02*
X165562714Y-66873523D01*
X165562714Y-66873523D02*
X165515095Y-66873523D01*
X165515095Y-66873523D02*
X165419857Y-66825904D01*
X165419857Y-66825904D02*
X165372238Y-66778285D01*
X165372238Y-66778285D02*
X165324619Y-66683047D01*
X165324619Y-66683047D02*
X165324619Y-66492571D01*
X165324619Y-66492571D02*
X165372238Y-66397333D01*
X165372238Y-66397333D02*
X165419857Y-66349714D01*
X165419857Y-66349714D02*
X165515095Y-66302095D01*
X165515095Y-66302095D02*
X165562714Y-66302095D01*
X165562714Y-66302095D02*
X165657952Y-66349714D01*
X165657952Y-66349714D02*
X165705571Y-66397333D01*
X165705571Y-66397333D02*
X165753190Y-66492571D01*
X165753190Y-66492571D02*
X165753190Y-66683047D01*
X165753190Y-66683047D02*
X165800809Y-66778285D01*
X165800809Y-66778285D02*
X165848428Y-66825904D01*
X165848428Y-66825904D02*
X165943666Y-66873523D01*
X165943666Y-66873523D02*
X166134142Y-66873523D01*
X166134142Y-66873523D02*
X166229380Y-66825904D01*
X166229380Y-66825904D02*
X166277000Y-66778285D01*
X166277000Y-66778285D02*
X166324619Y-66683047D01*
X166324619Y-66683047D02*
X166324619Y-66492571D01*
X166324619Y-66492571D02*
X166277000Y-66397333D01*
X166277000Y-66397333D02*
X166229380Y-66349714D01*
X166229380Y-66349714D02*
X166134142Y-66302095D01*
X166134142Y-66302095D02*
X165943666Y-66302095D01*
X165943666Y-66302095D02*
X165848428Y-66349714D01*
X165848428Y-66349714D02*
X165800809Y-66397333D01*
X165800809Y-66397333D02*
X165753190Y-66492571D01*
%TO.C,C24*%
X175167142Y-100347380D02*
X175119523Y-100395000D01*
X175119523Y-100395000D02*
X174976666Y-100442619D01*
X174976666Y-100442619D02*
X174881428Y-100442619D01*
X174881428Y-100442619D02*
X174738571Y-100395000D01*
X174738571Y-100395000D02*
X174643333Y-100299761D01*
X174643333Y-100299761D02*
X174595714Y-100204523D01*
X174595714Y-100204523D02*
X174548095Y-100014047D01*
X174548095Y-100014047D02*
X174548095Y-99871190D01*
X174548095Y-99871190D02*
X174595714Y-99680714D01*
X174595714Y-99680714D02*
X174643333Y-99585476D01*
X174643333Y-99585476D02*
X174738571Y-99490238D01*
X174738571Y-99490238D02*
X174881428Y-99442619D01*
X174881428Y-99442619D02*
X174976666Y-99442619D01*
X174976666Y-99442619D02*
X175119523Y-99490238D01*
X175119523Y-99490238D02*
X175167142Y-99537857D01*
X175548095Y-99537857D02*
X175595714Y-99490238D01*
X175595714Y-99490238D02*
X175690952Y-99442619D01*
X175690952Y-99442619D02*
X175929047Y-99442619D01*
X175929047Y-99442619D02*
X176024285Y-99490238D01*
X176024285Y-99490238D02*
X176071904Y-99537857D01*
X176071904Y-99537857D02*
X176119523Y-99633095D01*
X176119523Y-99633095D02*
X176119523Y-99728333D01*
X176119523Y-99728333D02*
X176071904Y-99871190D01*
X176071904Y-99871190D02*
X175500476Y-100442619D01*
X175500476Y-100442619D02*
X176119523Y-100442619D01*
X176976666Y-99775952D02*
X176976666Y-100442619D01*
X176738571Y-99395000D02*
X176500476Y-100109285D01*
X176500476Y-100109285D02*
X177119523Y-100109285D01*
%TO.C,R2*%
X166203333Y-77424619D02*
X165870000Y-76948428D01*
X165631905Y-77424619D02*
X165631905Y-76424619D01*
X165631905Y-76424619D02*
X166012857Y-76424619D01*
X166012857Y-76424619D02*
X166108095Y-76472238D01*
X166108095Y-76472238D02*
X166155714Y-76519857D01*
X166155714Y-76519857D02*
X166203333Y-76615095D01*
X166203333Y-76615095D02*
X166203333Y-76757952D01*
X166203333Y-76757952D02*
X166155714Y-76853190D01*
X166155714Y-76853190D02*
X166108095Y-76900809D01*
X166108095Y-76900809D02*
X166012857Y-76948428D01*
X166012857Y-76948428D02*
X165631905Y-76948428D01*
X166584286Y-76519857D02*
X166631905Y-76472238D01*
X166631905Y-76472238D02*
X166727143Y-76424619D01*
X166727143Y-76424619D02*
X166965238Y-76424619D01*
X166965238Y-76424619D02*
X167060476Y-76472238D01*
X167060476Y-76472238D02*
X167108095Y-76519857D01*
X167108095Y-76519857D02*
X167155714Y-76615095D01*
X167155714Y-76615095D02*
X167155714Y-76710333D01*
X167155714Y-76710333D02*
X167108095Y-76853190D01*
X167108095Y-76853190D02*
X166536667Y-77424619D01*
X166536667Y-77424619D02*
X167155714Y-77424619D01*
%TO.C,H4*%
X193338095Y-115262619D02*
X193338095Y-114262619D01*
X193338095Y-114738809D02*
X193909523Y-114738809D01*
X193909523Y-115262619D02*
X193909523Y-114262619D01*
X194814285Y-114595952D02*
X194814285Y-115262619D01*
X194576190Y-114215000D02*
X194338095Y-114929285D01*
X194338095Y-114929285D02*
X194957142Y-114929285D01*
%TO.C,R15*%
X153027142Y-73614619D02*
X152693809Y-73138428D01*
X152455714Y-73614619D02*
X152455714Y-72614619D01*
X152455714Y-72614619D02*
X152836666Y-72614619D01*
X152836666Y-72614619D02*
X152931904Y-72662238D01*
X152931904Y-72662238D02*
X152979523Y-72709857D01*
X152979523Y-72709857D02*
X153027142Y-72805095D01*
X153027142Y-72805095D02*
X153027142Y-72947952D01*
X153027142Y-72947952D02*
X152979523Y-73043190D01*
X152979523Y-73043190D02*
X152931904Y-73090809D01*
X152931904Y-73090809D02*
X152836666Y-73138428D01*
X152836666Y-73138428D02*
X152455714Y-73138428D01*
X153979523Y-73614619D02*
X153408095Y-73614619D01*
X153693809Y-73614619D02*
X153693809Y-72614619D01*
X153693809Y-72614619D02*
X153598571Y-72757476D01*
X153598571Y-72757476D02*
X153503333Y-72852714D01*
X153503333Y-72852714D02*
X153408095Y-72900333D01*
X154884285Y-72614619D02*
X154408095Y-72614619D01*
X154408095Y-72614619D02*
X154360476Y-73090809D01*
X154360476Y-73090809D02*
X154408095Y-73043190D01*
X154408095Y-73043190D02*
X154503333Y-72995571D01*
X154503333Y-72995571D02*
X154741428Y-72995571D01*
X154741428Y-72995571D02*
X154836666Y-73043190D01*
X154836666Y-73043190D02*
X154884285Y-73090809D01*
X154884285Y-73090809D02*
X154931904Y-73186047D01*
X154931904Y-73186047D02*
X154931904Y-73424142D01*
X154931904Y-73424142D02*
X154884285Y-73519380D01*
X154884285Y-73519380D02*
X154836666Y-73567000D01*
X154836666Y-73567000D02*
X154741428Y-73614619D01*
X154741428Y-73614619D02*
X154503333Y-73614619D01*
X154503333Y-73614619D02*
X154408095Y-73567000D01*
X154408095Y-73567000D02*
X154360476Y-73519380D01*
%TO.C,C1*%
X172983333Y-67967380D02*
X172935714Y-68015000D01*
X172935714Y-68015000D02*
X172792857Y-68062619D01*
X172792857Y-68062619D02*
X172697619Y-68062619D01*
X172697619Y-68062619D02*
X172554762Y-68015000D01*
X172554762Y-68015000D02*
X172459524Y-67919761D01*
X172459524Y-67919761D02*
X172411905Y-67824523D01*
X172411905Y-67824523D02*
X172364286Y-67634047D01*
X172364286Y-67634047D02*
X172364286Y-67491190D01*
X172364286Y-67491190D02*
X172411905Y-67300714D01*
X172411905Y-67300714D02*
X172459524Y-67205476D01*
X172459524Y-67205476D02*
X172554762Y-67110238D01*
X172554762Y-67110238D02*
X172697619Y-67062619D01*
X172697619Y-67062619D02*
X172792857Y-67062619D01*
X172792857Y-67062619D02*
X172935714Y-67110238D01*
X172935714Y-67110238D02*
X172983333Y-67157857D01*
X173935714Y-68062619D02*
X173364286Y-68062619D01*
X173650000Y-68062619D02*
X173650000Y-67062619D01*
X173650000Y-67062619D02*
X173554762Y-67205476D01*
X173554762Y-67205476D02*
X173459524Y-67300714D01*
X173459524Y-67300714D02*
X173364286Y-67348333D01*
%TO.C,C2*%
X169531380Y-76366666D02*
X169579000Y-76414285D01*
X169579000Y-76414285D02*
X169626619Y-76557142D01*
X169626619Y-76557142D02*
X169626619Y-76652380D01*
X169626619Y-76652380D02*
X169579000Y-76795237D01*
X169579000Y-76795237D02*
X169483761Y-76890475D01*
X169483761Y-76890475D02*
X169388523Y-76938094D01*
X169388523Y-76938094D02*
X169198047Y-76985713D01*
X169198047Y-76985713D02*
X169055190Y-76985713D01*
X169055190Y-76985713D02*
X168864714Y-76938094D01*
X168864714Y-76938094D02*
X168769476Y-76890475D01*
X168769476Y-76890475D02*
X168674238Y-76795237D01*
X168674238Y-76795237D02*
X168626619Y-76652380D01*
X168626619Y-76652380D02*
X168626619Y-76557142D01*
X168626619Y-76557142D02*
X168674238Y-76414285D01*
X168674238Y-76414285D02*
X168721857Y-76366666D01*
X168721857Y-75985713D02*
X168674238Y-75938094D01*
X168674238Y-75938094D02*
X168626619Y-75842856D01*
X168626619Y-75842856D02*
X168626619Y-75604761D01*
X168626619Y-75604761D02*
X168674238Y-75509523D01*
X168674238Y-75509523D02*
X168721857Y-75461904D01*
X168721857Y-75461904D02*
X168817095Y-75414285D01*
X168817095Y-75414285D02*
X168912333Y-75414285D01*
X168912333Y-75414285D02*
X169055190Y-75461904D01*
X169055190Y-75461904D02*
X169626619Y-76033332D01*
X169626619Y-76033332D02*
X169626619Y-75414285D01*
%TO.C,C19*%
X166235142Y-75805380D02*
X166187523Y-75853000D01*
X166187523Y-75853000D02*
X166044666Y-75900619D01*
X166044666Y-75900619D02*
X165949428Y-75900619D01*
X165949428Y-75900619D02*
X165806571Y-75853000D01*
X165806571Y-75853000D02*
X165711333Y-75757761D01*
X165711333Y-75757761D02*
X165663714Y-75662523D01*
X165663714Y-75662523D02*
X165616095Y-75472047D01*
X165616095Y-75472047D02*
X165616095Y-75329190D01*
X165616095Y-75329190D02*
X165663714Y-75138714D01*
X165663714Y-75138714D02*
X165711333Y-75043476D01*
X165711333Y-75043476D02*
X165806571Y-74948238D01*
X165806571Y-74948238D02*
X165949428Y-74900619D01*
X165949428Y-74900619D02*
X166044666Y-74900619D01*
X166044666Y-74900619D02*
X166187523Y-74948238D01*
X166187523Y-74948238D02*
X166235142Y-74995857D01*
X167187523Y-75900619D02*
X166616095Y-75900619D01*
X166901809Y-75900619D02*
X166901809Y-74900619D01*
X166901809Y-74900619D02*
X166806571Y-75043476D01*
X166806571Y-75043476D02*
X166711333Y-75138714D01*
X166711333Y-75138714D02*
X166616095Y-75186333D01*
X167663714Y-75900619D02*
X167854190Y-75900619D01*
X167854190Y-75900619D02*
X167949428Y-75853000D01*
X167949428Y-75853000D02*
X167997047Y-75805380D01*
X167997047Y-75805380D02*
X168092285Y-75662523D01*
X168092285Y-75662523D02*
X168139904Y-75472047D01*
X168139904Y-75472047D02*
X168139904Y-75091095D01*
X168139904Y-75091095D02*
X168092285Y-74995857D01*
X168092285Y-74995857D02*
X168044666Y-74948238D01*
X168044666Y-74948238D02*
X167949428Y-74900619D01*
X167949428Y-74900619D02*
X167758952Y-74900619D01*
X167758952Y-74900619D02*
X167663714Y-74948238D01*
X167663714Y-74948238D02*
X167616095Y-74995857D01*
X167616095Y-74995857D02*
X167568476Y-75091095D01*
X167568476Y-75091095D02*
X167568476Y-75329190D01*
X167568476Y-75329190D02*
X167616095Y-75424428D01*
X167616095Y-75424428D02*
X167663714Y-75472047D01*
X167663714Y-75472047D02*
X167758952Y-75519666D01*
X167758952Y-75519666D02*
X167949428Y-75519666D01*
X167949428Y-75519666D02*
X168044666Y-75472047D01*
X168044666Y-75472047D02*
X168092285Y-75424428D01*
X168092285Y-75424428D02*
X168139904Y-75329190D01*
%TO.C,TP2*%
X153932095Y-74900619D02*
X154503523Y-74900619D01*
X154217809Y-75900619D02*
X154217809Y-74900619D01*
X154836857Y-75900619D02*
X154836857Y-74900619D01*
X154836857Y-74900619D02*
X155217809Y-74900619D01*
X155217809Y-74900619D02*
X155313047Y-74948238D01*
X155313047Y-74948238D02*
X155360666Y-74995857D01*
X155360666Y-74995857D02*
X155408285Y-75091095D01*
X155408285Y-75091095D02*
X155408285Y-75233952D01*
X155408285Y-75233952D02*
X155360666Y-75329190D01*
X155360666Y-75329190D02*
X155313047Y-75376809D01*
X155313047Y-75376809D02*
X155217809Y-75424428D01*
X155217809Y-75424428D02*
X154836857Y-75424428D01*
X155789238Y-74995857D02*
X155836857Y-74948238D01*
X155836857Y-74948238D02*
X155932095Y-74900619D01*
X155932095Y-74900619D02*
X156170190Y-74900619D01*
X156170190Y-74900619D02*
X156265428Y-74948238D01*
X156265428Y-74948238D02*
X156313047Y-74995857D01*
X156313047Y-74995857D02*
X156360666Y-75091095D01*
X156360666Y-75091095D02*
X156360666Y-75186333D01*
X156360666Y-75186333D02*
X156313047Y-75329190D01*
X156313047Y-75329190D02*
X155741619Y-75900619D01*
X155741619Y-75900619D02*
X156360666Y-75900619D01*
%TO.C,C11*%
X190657142Y-96067380D02*
X190609523Y-96115000D01*
X190609523Y-96115000D02*
X190466666Y-96162619D01*
X190466666Y-96162619D02*
X190371428Y-96162619D01*
X190371428Y-96162619D02*
X190228571Y-96115000D01*
X190228571Y-96115000D02*
X190133333Y-96019761D01*
X190133333Y-96019761D02*
X190085714Y-95924523D01*
X190085714Y-95924523D02*
X190038095Y-95734047D01*
X190038095Y-95734047D02*
X190038095Y-95591190D01*
X190038095Y-95591190D02*
X190085714Y-95400714D01*
X190085714Y-95400714D02*
X190133333Y-95305476D01*
X190133333Y-95305476D02*
X190228571Y-95210238D01*
X190228571Y-95210238D02*
X190371428Y-95162619D01*
X190371428Y-95162619D02*
X190466666Y-95162619D01*
X190466666Y-95162619D02*
X190609523Y-95210238D01*
X190609523Y-95210238D02*
X190657142Y-95257857D01*
X191609523Y-96162619D02*
X191038095Y-96162619D01*
X191323809Y-96162619D02*
X191323809Y-95162619D01*
X191323809Y-95162619D02*
X191228571Y-95305476D01*
X191228571Y-95305476D02*
X191133333Y-95400714D01*
X191133333Y-95400714D02*
X191038095Y-95448333D01*
X192561904Y-96162619D02*
X191990476Y-96162619D01*
X192276190Y-96162619D02*
X192276190Y-95162619D01*
X192276190Y-95162619D02*
X192180952Y-95305476D01*
X192180952Y-95305476D02*
X192085714Y-95400714D01*
X192085714Y-95400714D02*
X191990476Y-95448333D01*
%TO.C,U3*%
X172466095Y-97506619D02*
X172466095Y-98316142D01*
X172466095Y-98316142D02*
X172513714Y-98411380D01*
X172513714Y-98411380D02*
X172561333Y-98459000D01*
X172561333Y-98459000D02*
X172656571Y-98506619D01*
X172656571Y-98506619D02*
X172847047Y-98506619D01*
X172847047Y-98506619D02*
X172942285Y-98459000D01*
X172942285Y-98459000D02*
X172989904Y-98411380D01*
X172989904Y-98411380D02*
X173037523Y-98316142D01*
X173037523Y-98316142D02*
X173037523Y-97506619D01*
X173418476Y-97506619D02*
X174037523Y-97506619D01*
X174037523Y-97506619D02*
X173704190Y-97887571D01*
X173704190Y-97887571D02*
X173847047Y-97887571D01*
X173847047Y-97887571D02*
X173942285Y-97935190D01*
X173942285Y-97935190D02*
X173989904Y-97982809D01*
X173989904Y-97982809D02*
X174037523Y-98078047D01*
X174037523Y-98078047D02*
X174037523Y-98316142D01*
X174037523Y-98316142D02*
X173989904Y-98411380D01*
X173989904Y-98411380D02*
X173942285Y-98459000D01*
X173942285Y-98459000D02*
X173847047Y-98506619D01*
X173847047Y-98506619D02*
X173561333Y-98506619D01*
X173561333Y-98506619D02*
X173466095Y-98459000D01*
X173466095Y-98459000D02*
X173418476Y-98411380D01*
%TO.C,C13*%
X186657142Y-100367380D02*
X186609523Y-100415000D01*
X186609523Y-100415000D02*
X186466666Y-100462619D01*
X186466666Y-100462619D02*
X186371428Y-100462619D01*
X186371428Y-100462619D02*
X186228571Y-100415000D01*
X186228571Y-100415000D02*
X186133333Y-100319761D01*
X186133333Y-100319761D02*
X186085714Y-100224523D01*
X186085714Y-100224523D02*
X186038095Y-100034047D01*
X186038095Y-100034047D02*
X186038095Y-99891190D01*
X186038095Y-99891190D02*
X186085714Y-99700714D01*
X186085714Y-99700714D02*
X186133333Y-99605476D01*
X186133333Y-99605476D02*
X186228571Y-99510238D01*
X186228571Y-99510238D02*
X186371428Y-99462619D01*
X186371428Y-99462619D02*
X186466666Y-99462619D01*
X186466666Y-99462619D02*
X186609523Y-99510238D01*
X186609523Y-99510238D02*
X186657142Y-99557857D01*
X187609523Y-100462619D02*
X187038095Y-100462619D01*
X187323809Y-100462619D02*
X187323809Y-99462619D01*
X187323809Y-99462619D02*
X187228571Y-99605476D01*
X187228571Y-99605476D02*
X187133333Y-99700714D01*
X187133333Y-99700714D02*
X187038095Y-99748333D01*
X187942857Y-99462619D02*
X188561904Y-99462619D01*
X188561904Y-99462619D02*
X188228571Y-99843571D01*
X188228571Y-99843571D02*
X188371428Y-99843571D01*
X188371428Y-99843571D02*
X188466666Y-99891190D01*
X188466666Y-99891190D02*
X188514285Y-99938809D01*
X188514285Y-99938809D02*
X188561904Y-100034047D01*
X188561904Y-100034047D02*
X188561904Y-100272142D01*
X188561904Y-100272142D02*
X188514285Y-100367380D01*
X188514285Y-100367380D02*
X188466666Y-100415000D01*
X188466666Y-100415000D02*
X188371428Y-100462619D01*
X188371428Y-100462619D02*
X188085714Y-100462619D01*
X188085714Y-100462619D02*
X187990476Y-100415000D01*
X187990476Y-100415000D02*
X187942857Y-100367380D01*
%TO.C,R30*%
X191244642Y-108662619D02*
X190911309Y-108186428D01*
X190673214Y-108662619D02*
X190673214Y-107662619D01*
X190673214Y-107662619D02*
X191054166Y-107662619D01*
X191054166Y-107662619D02*
X191149404Y-107710238D01*
X191149404Y-107710238D02*
X191197023Y-107757857D01*
X191197023Y-107757857D02*
X191244642Y-107853095D01*
X191244642Y-107853095D02*
X191244642Y-107995952D01*
X191244642Y-107995952D02*
X191197023Y-108091190D01*
X191197023Y-108091190D02*
X191149404Y-108138809D01*
X191149404Y-108138809D02*
X191054166Y-108186428D01*
X191054166Y-108186428D02*
X190673214Y-108186428D01*
X191577976Y-107662619D02*
X192197023Y-107662619D01*
X192197023Y-107662619D02*
X191863690Y-108043571D01*
X191863690Y-108043571D02*
X192006547Y-108043571D01*
X192006547Y-108043571D02*
X192101785Y-108091190D01*
X192101785Y-108091190D02*
X192149404Y-108138809D01*
X192149404Y-108138809D02*
X192197023Y-108234047D01*
X192197023Y-108234047D02*
X192197023Y-108472142D01*
X192197023Y-108472142D02*
X192149404Y-108567380D01*
X192149404Y-108567380D02*
X192101785Y-108615000D01*
X192101785Y-108615000D02*
X192006547Y-108662619D01*
X192006547Y-108662619D02*
X191720833Y-108662619D01*
X191720833Y-108662619D02*
X191625595Y-108615000D01*
X191625595Y-108615000D02*
X191577976Y-108567380D01*
X192816071Y-107662619D02*
X192911309Y-107662619D01*
X192911309Y-107662619D02*
X193006547Y-107710238D01*
X193006547Y-107710238D02*
X193054166Y-107757857D01*
X193054166Y-107757857D02*
X193101785Y-107853095D01*
X193101785Y-107853095D02*
X193149404Y-108043571D01*
X193149404Y-108043571D02*
X193149404Y-108281666D01*
X193149404Y-108281666D02*
X193101785Y-108472142D01*
X193101785Y-108472142D02*
X193054166Y-108567380D01*
X193054166Y-108567380D02*
X193006547Y-108615000D01*
X193006547Y-108615000D02*
X192911309Y-108662619D01*
X192911309Y-108662619D02*
X192816071Y-108662619D01*
X192816071Y-108662619D02*
X192720833Y-108615000D01*
X192720833Y-108615000D02*
X192673214Y-108567380D01*
X192673214Y-108567380D02*
X192625595Y-108472142D01*
X192625595Y-108472142D02*
X192577976Y-108281666D01*
X192577976Y-108281666D02*
X192577976Y-108043571D01*
X192577976Y-108043571D02*
X192625595Y-107853095D01*
X192625595Y-107853095D02*
X192673214Y-107757857D01*
X192673214Y-107757857D02*
X192720833Y-107710238D01*
X192720833Y-107710238D02*
X192816071Y-107662619D01*
D15*
%TO.C,TP9*%
X173096000Y-61300000D02*
G75*
G03*
X173096000Y-61300000I-700000J0D01*
G01*
%TO.C,TP16*%
X179900000Y-78800000D02*
G75*
G03*
X179900000Y-78800000I-700000J0D01*
G01*
%TO.C,C31*%
X187916233Y-97490000D02*
X188208767Y-97490000D01*
X187916233Y-98510000D02*
X188208767Y-98510000D01*
%TO.C,R9*%
X178745276Y-81677500D02*
X179254724Y-81677500D01*
X178745276Y-82722500D02*
X179254724Y-82722500D01*
%TO.C,R8*%
X178822500Y-91732776D02*
X178822500Y-92242224D01*
X177777500Y-91732776D02*
X177777500Y-92242224D01*
%TO.C,R13*%
X177037276Y-105649500D02*
X177546724Y-105649500D01*
X177037276Y-106694500D02*
X177546724Y-106694500D01*
%TO.C,R11*%
X172422500Y-95332776D02*
X172422500Y-95842224D01*
X171377500Y-95332776D02*
X171377500Y-95842224D01*
%TO.C,R25*%
X182142224Y-72217500D02*
X181632776Y-72217500D01*
X182142224Y-71172500D02*
X181632776Y-71172500D01*
%TO.C,C17*%
X163263950Y-70810767D02*
X163263950Y-70518233D01*
X164283950Y-70810767D02*
X164283950Y-70518233D01*
%TO.C,TP4*%
X180175000Y-111325000D02*
G75*
G03*
X180175000Y-111325000I-700000J0D01*
G01*
%TO.C,R21*%
X197977776Y-66317500D02*
X198487224Y-66317500D01*
X197977776Y-67362500D02*
X198487224Y-67362500D01*
%TO.C,C25*%
X187991233Y-61290000D02*
X188283767Y-61290000D01*
X187991233Y-62310000D02*
X188283767Y-62310000D01*
%TO.C,U2*%
X172409800Y-82568000D02*
X172409800Y-84368000D01*
X175629800Y-84368000D02*
X175629800Y-81918000D01*
%TO.C,U11*%
X189321400Y-79003000D02*
X187521400Y-79003000D01*
X187521400Y-82223000D02*
X189971400Y-82223000D01*
%TO.C,C20*%
X160416233Y-72868000D02*
X160708767Y-72868000D01*
X160416233Y-73888000D02*
X160708767Y-73888000D01*
%TO.C,C23*%
X175018267Y-80203000D02*
X174725733Y-80203000D01*
X175018267Y-79183000D02*
X174725733Y-79183000D01*
%TO.C,R20*%
X160577500Y-61392224D02*
X160577500Y-60882776D01*
X161622500Y-61392224D02*
X161622500Y-60882776D01*
%TO.C,R24*%
X167039500Y-109466224D02*
X167039500Y-108956776D01*
X168084500Y-109466224D02*
X168084500Y-108956776D01*
%TO.C,R18*%
X176322500Y-111632776D02*
X176322500Y-112142224D01*
X175277500Y-111632776D02*
X175277500Y-112142224D01*
%TO.C,C14*%
X179724267Y-104396000D02*
X179431733Y-104396000D01*
X179724267Y-103376000D02*
X179431733Y-103376000D01*
%TO.C,C15*%
X170746267Y-108009000D02*
X170453733Y-108009000D01*
X170746267Y-106989000D02*
X170453733Y-106989000D01*
%TO.C,U4*%
X173550000Y-101940000D02*
X171750000Y-101940000D01*
X171750000Y-105160000D02*
X174200000Y-105160000D01*
%TO.C,C9*%
X188253733Y-87787200D02*
X188546267Y-87787200D01*
X188253733Y-88807200D02*
X188546267Y-88807200D01*
%TO.C,TP19*%
X178246000Y-61300000D02*
G75*
G03*
X178246000Y-61300000I-700000J0D01*
G01*
%TO.C,R29*%
X191582776Y-103877500D02*
X192092224Y-103877500D01*
X191582776Y-104922500D02*
X192092224Y-104922500D01*
%TO.C,R23*%
X191407500Y-112594724D02*
X191407500Y-112085276D01*
X192452500Y-112594724D02*
X192452500Y-112085276D01*
%TO.C,R7*%
X170449300Y-84555224D02*
X170449300Y-84045776D01*
X171494300Y-84555224D02*
X171494300Y-84045776D01*
%TO.C,R5*%
X163372500Y-79757776D02*
X163372500Y-80267224D01*
X162327500Y-79757776D02*
X162327500Y-80267224D01*
%TO.C,TP20*%
X183400000Y-93500000D02*
G75*
G03*
X183400000Y-93500000I-700000J0D01*
G01*
%TO.C,R27*%
X185077500Y-87654724D02*
X185077500Y-87145276D01*
X186122500Y-87654724D02*
X186122500Y-87145276D01*
%TO.C,R22*%
X160977500Y-110417224D02*
X160977500Y-109907776D01*
X162022500Y-110417224D02*
X162022500Y-109907776D01*
%TO.C,R4*%
X178997224Y-74902500D02*
X178487776Y-74902500D01*
X178997224Y-73857500D02*
X178487776Y-73857500D01*
%TO.C,C6*%
X175968267Y-87478000D02*
X175675733Y-87478000D01*
X175968267Y-86458000D02*
X175675733Y-86458000D01*
%TO.C,C21*%
X153219750Y-70744267D02*
X153219750Y-70451733D01*
X154239750Y-70744267D02*
X154239750Y-70451733D01*
%TO.C,TP14*%
X184700000Y-61400000D02*
G75*
G03*
X184700000Y-61400000I-700000J0D01*
G01*
%TO.C,C16*%
X173252000Y-112083767D02*
X173252000Y-111791233D01*
X174272000Y-112083767D02*
X174272000Y-111791233D01*
%TO.C,C29*%
X186236267Y-84150000D02*
X185943733Y-84150000D01*
X186236267Y-83130000D02*
X185943733Y-83130000D01*
%TO.C,R26*%
X190427276Y-77108500D02*
X190936724Y-77108500D01*
X190427276Y-78153500D02*
X190936724Y-78153500D01*
%TO.C,TP6*%
X183072000Y-77216000D02*
G75*
G03*
X183072000Y-77216000I-700000J0D01*
G01*
%TO.C,C28*%
X191543600Y-81080367D02*
X191543600Y-80787833D01*
X192563600Y-81080367D02*
X192563600Y-80787833D01*
%TO.C,C8*%
X175118267Y-91432200D02*
X174825733Y-91432200D01*
X175118267Y-90412200D02*
X174825733Y-90412200D01*
%TO.C,C26*%
X180685000Y-68253733D02*
X180685000Y-68546267D01*
X179665000Y-68253733D02*
X179665000Y-68546267D01*
%TO.C,TP11*%
X187700000Y-72900000D02*
G75*
G03*
X187700000Y-72900000I-700000J0D01*
G01*
%TO.C,R31*%
X191557776Y-101627500D02*
X192067224Y-101627500D01*
X191557776Y-102672500D02*
X192067224Y-102672500D01*
%TO.C,R17*%
X157277500Y-76567224D02*
X157277500Y-76057776D01*
X158322500Y-76567224D02*
X158322500Y-76057776D01*
%TO.C,R12*%
X192113400Y-89542976D02*
X192113400Y-90052424D01*
X191068400Y-89542976D02*
X191068400Y-90052424D01*
%TO.C,C12*%
X180596000Y-108211233D02*
X180596000Y-108503767D01*
X179576000Y-108211233D02*
X179576000Y-108503767D01*
%TO.C,C4*%
X175470000Y-73656267D02*
X175470000Y-73363733D01*
X176490000Y-73656267D02*
X176490000Y-73363733D01*
%TO.C,TP13*%
X170496000Y-61300000D02*
G75*
G03*
X170496000Y-61300000I-700000J0D01*
G01*
%TO.C,R19*%
X182922500Y-80295276D02*
X182922500Y-80804724D01*
X181877500Y-80295276D02*
X181877500Y-80804724D01*
%TO.C,R16*%
X155298224Y-68340500D02*
X154788776Y-68340500D01*
X155298224Y-67295500D02*
X154788776Y-67295500D01*
%TO.C,TP8*%
X168096000Y-61300000D02*
G75*
G03*
X168096000Y-61300000I-700000J0D01*
G01*
%TO.C,TP3*%
X176825000Y-114650000D02*
G75*
G03*
X176825000Y-114650000I-700000J0D01*
G01*
%TO.C,C3*%
X160191233Y-83390000D02*
X160483767Y-83390000D01*
X160191233Y-84410000D02*
X160483767Y-84410000D01*
%TO.C,C30*%
X183567033Y-102304200D02*
X183859567Y-102304200D01*
X183567033Y-103324200D02*
X183859567Y-103324200D01*
%TO.C,J2*%
X198280000Y-104835000D02*
X196950000Y-104835000D01*
X198280000Y-103505000D02*
X198280000Y-104835000D01*
X198280000Y-102235000D02*
X198280000Y-94555000D01*
X198280000Y-102235000D02*
X195620000Y-102235000D01*
X198280000Y-94555000D02*
X195620000Y-94555000D01*
X195620000Y-102235000D02*
X195620000Y-94555000D01*
%TO.C,R6*%
X167122500Y-83932776D02*
X167122500Y-84442224D01*
X166077500Y-83932776D02*
X166077500Y-84442224D01*
%TO.C,TP7*%
X189500000Y-84800000D02*
G75*
G03*
X189500000Y-84800000I-700000J0D01*
G01*
%TO.C,C27*%
X177010000Y-102303733D02*
X177010000Y-102596267D01*
X175990000Y-102303733D02*
X175990000Y-102596267D01*
%TO.C,R1*%
X156582776Y-78627500D02*
X157092224Y-78627500D01*
X156582776Y-79672500D02*
X157092224Y-79672500D01*
%TO.C,R3*%
X169127500Y-70917224D02*
X169127500Y-70407776D01*
X170172500Y-70917224D02*
X170172500Y-70407776D01*
%TO.C,C5*%
X168543800Y-84396767D02*
X168543800Y-84104233D01*
X169563800Y-84396767D02*
X169563800Y-84104233D01*
%TO.C,C10*%
X169310000Y-103503733D02*
X169310000Y-103796267D01*
X168290000Y-103503733D02*
X168290000Y-103796267D01*
%TO.C,U9*%
X184680000Y-63520000D02*
X184680000Y-63790000D01*
X184680000Y-63790000D02*
X181850000Y-63790000D01*
X184680000Y-70150000D02*
X183580000Y-70150000D01*
X184680000Y-70420000D02*
X184680000Y-70150000D01*
X191100000Y-63520000D02*
X184680000Y-63520000D01*
X191100000Y-70420000D02*
X184680000Y-70420000D01*
%TO.C,R14*%
X161762250Y-66480776D02*
X161762250Y-66990224D01*
X160717250Y-66480776D02*
X160717250Y-66990224D01*
%TO.C,TP10*%
X179100000Y-70800000D02*
G75*
G03*
X179100000Y-70800000I-700000J0D01*
G01*
%TO.C,C7*%
X170410000Y-95416233D02*
X170410000Y-95708767D01*
X169390000Y-95416233D02*
X169390000Y-95708767D01*
%TO.C,J3*%
X165966000Y-65630000D02*
X165966000Y-64300000D01*
X167296000Y-65630000D02*
X165966000Y-65630000D01*
X168566000Y-65630000D02*
X178786000Y-65630000D01*
X168566000Y-65630000D02*
X168566000Y-62970000D01*
X178786000Y-65630000D02*
X178786000Y-62970000D01*
X168566000Y-62970000D02*
X178786000Y-62970000D01*
%TO.C,U1*%
X171062701Y-72098808D02*
X171062701Y-73898808D01*
X174282701Y-73898808D02*
X174282701Y-71448808D01*
%TO.C,U8*%
X160785550Y-68957200D02*
X158985550Y-68957200D01*
X158985550Y-72177200D02*
X161435550Y-72177200D01*
%TO.C,TP12*%
X180700000Y-99200000D02*
G75*
G03*
X180700000Y-99200000I-700000J0D01*
G01*
%TO.C,R28*%
X184167224Y-98522500D02*
X183657776Y-98522500D01*
X184167224Y-97477500D02*
X183657776Y-97477500D01*
%TO.C,TP1*%
X158525000Y-81125000D02*
G75*
G03*
X158525000Y-81125000I-700000J0D01*
G01*
%TO.C,U7*%
X168902000Y-110549000D02*
X168902000Y-112349000D01*
X172122000Y-112349000D02*
X172122000Y-109899000D01*
%TO.C,R10*%
X184135900Y-80806724D02*
X184135900Y-80297276D01*
X185180900Y-80806724D02*
X185180900Y-80297276D01*
%TO.C,TP15*%
X184200000Y-111250000D02*
G75*
G03*
X184200000Y-111250000I-700000J0D01*
G01*
%TO.C,TP17*%
X155780000Y-83840000D02*
G75*
G03*
X155780000Y-83840000I-700000J0D01*
G01*
%TO.C,U5*%
X190170300Y-92960200D02*
X190170300Y-91160200D01*
X186950300Y-91160200D02*
X186950300Y-94110200D01*
D10*
%TO.C,U6*%
X183528200Y-104433200D02*
X183528200Y-104658200D01*
X183528200Y-104433200D02*
X186878200Y-104433200D01*
X183528200Y-104658200D02*
X182303200Y-104658200D01*
X183528200Y-107783200D02*
X183528200Y-107483200D01*
X183528200Y-107783200D02*
X186878200Y-107783200D01*
X186878200Y-104433200D02*
X186878200Y-104733200D01*
X186878200Y-107783200D02*
X186878200Y-107483200D01*
D15*
%TO.C,TP5*%
X178130000Y-76260000D02*
G75*
G03*
X178130000Y-76260000I-700000J0D01*
G01*
%TO.C,C22*%
X187883767Y-103335000D02*
X187591233Y-103335000D01*
X187883767Y-102315000D02*
X187591233Y-102315000D01*
%TO.C,C18*%
X165169750Y-70791767D02*
X165169750Y-70499233D01*
X166189750Y-70791767D02*
X166189750Y-70499233D01*
%TO.C,C24*%
X176446267Y-98985000D02*
X176153733Y-98985000D01*
X176446267Y-97965000D02*
X176153733Y-97965000D01*
%TO.C,R2*%
X160345276Y-76727500D02*
X160854724Y-76727500D01*
X160345276Y-77772500D02*
X160854724Y-77772500D01*
%TO.C,R15*%
X155247250Y-70862724D02*
X155247250Y-70353276D01*
X156292250Y-70862724D02*
X156292250Y-70353276D01*
%TO.C,C1*%
X173246267Y-69685000D02*
X172953733Y-69685000D01*
X173246267Y-68665000D02*
X172953733Y-68665000D01*
%TO.C,C2*%
X164710000Y-76253733D02*
X164710000Y-76546267D01*
X163690000Y-76253733D02*
X163690000Y-76546267D01*
%TO.C,C19*%
X160418733Y-74928000D02*
X160711267Y-74928000D01*
X160418733Y-75948000D02*
X160711267Y-75948000D01*
%TO.C,TP2*%
X156860000Y-73670000D02*
G75*
G03*
X156860000Y-73670000I-700000J0D01*
G01*
%TO.C,C11*%
X187915133Y-95153200D02*
X188207667Y-95153200D01*
X187915133Y-96173200D02*
X188207667Y-96173200D01*
%TO.C,U3*%
X176682000Y-95468000D02*
X176682000Y-93668000D01*
X173462000Y-93668000D02*
X173462000Y-96118000D01*
%TO.C,C13*%
X183627048Y-99742400D02*
X184149552Y-99742400D01*
X183627048Y-101212400D02*
X184149552Y-101212400D01*
%TO.C,R30*%
X191632776Y-106127500D02*
X192142224Y-106127500D01*
X191632776Y-107172500D02*
X192142224Y-107172500D01*
%TD*%
M02*
