%TF.GenerationSoftware,KiCad,Pcbnew,7.0.2-0*%
%TF.CreationDate,2025-01-08T13:19:12-05:00*%
%TF.ProjectId,plaqchek_sipm_sens,706c6171-6368-4656-9b5f-7369706d5f73,rev?*%
%TF.SameCoordinates,Original*%
%TF.FileFunction,Soldermask,Top*%
%TF.FilePolarity,Negative*%
%FSLAX46Y46*%
G04 Gerber Fmt 4.6, Leading zero omitted, Abs format (unit mm)*
G04 Created by KiCad (PCBNEW 7.0.2-0) date 2025-01-08 13:19:12*
%MOMM*%
%LPD*%
G01*
G04 APERTURE LIST*
G04 Aperture macros list*
%AMRoundRect*
0 Rectangle with rounded corners*
0 $1 Rounding radius*
0 $2 $3 $4 $5 $6 $7 $8 $9 X,Y pos of 4 corners*
0 Add a 4 corners polygon primitive as box body*
4,1,4,$2,$3,$4,$5,$6,$7,$8,$9,$2,$3,0*
0 Add four circle primitives for the rounded corners*
1,1,$1+$1,$2,$3*
1,1,$1+$1,$4,$5*
1,1,$1+$1,$6,$7*
1,1,$1+$1,$8,$9*
0 Add four rect primitives between the rounded corners*
20,1,$1+$1,$2,$3,$4,$5,0*
20,1,$1+$1,$4,$5,$6,$7,0*
20,1,$1+$1,$6,$7,$8,$9,0*
20,1,$1+$1,$8,$9,$2,$3,0*%
G04 Aperture macros list end*
%ADD10C,1.000000*%
%ADD11RoundRect,0.237500X-0.300000X-0.237500X0.300000X-0.237500X0.300000X0.237500X-0.300000X0.237500X0*%
%ADD12RoundRect,0.237500X-0.250000X-0.237500X0.250000X-0.237500X0.250000X0.237500X-0.250000X0.237500X0*%
%ADD13RoundRect,0.237500X-0.237500X0.250000X-0.237500X-0.250000X0.237500X-0.250000X0.237500X0.250000X0*%
%ADD14RoundRect,0.237500X0.250000X0.237500X-0.250000X0.237500X-0.250000X-0.237500X0.250000X-0.237500X0*%
%ADD15RoundRect,0.237500X0.237500X-0.300000X0.237500X0.300000X-0.237500X0.300000X-0.237500X-0.300000X0*%
%ADD16R,0.650000X1.560000*%
%ADD17R,1.560000X0.650000*%
%ADD18RoundRect,0.237500X0.300000X0.237500X-0.300000X0.237500X-0.300000X-0.237500X0.300000X-0.237500X0*%
%ADD19RoundRect,0.237500X0.237500X-0.250000X0.237500X0.250000X-0.237500X0.250000X-0.237500X-0.250000X0*%
%ADD20C,6.400000*%
%ADD21RoundRect,0.237500X-0.237500X0.300000X-0.237500X-0.300000X0.237500X-0.300000X0.237500X0.300000X0*%
%ADD22R,1.700000X1.700000*%
%ADD23O,1.700000X1.700000*%
%ADD24RoundRect,0.250000X-0.850000X-0.350000X0.850000X-0.350000X0.850000X0.350000X-0.850000X0.350000X0*%
%ADD25RoundRect,0.249997X-2.950003X-2.650003X2.950003X-2.650003X2.950003X2.650003X-2.950003X2.650003X0*%
%ADD26R,1.400000X0.300000*%
%ADD27RoundRect,0.250000X-0.337500X-0.475000X0.337500X-0.475000X0.337500X0.475000X-0.337500X0.475000X0*%
%ADD28R,1.350000X1.350000*%
%ADD29O,1.350000X1.350000*%
%ADD30C,1.350000*%
G04 APERTURE END LIST*
D10*
%TO.C,TP9*%
X172396000Y-61300000D03*
%TD*%
%TO.C,TP16*%
X179200000Y-78800000D03*
%TD*%
D11*
%TO.C,C31*%
X187200000Y-98000000D03*
X188925000Y-98000000D03*
%TD*%
D12*
%TO.C,R9*%
X178087500Y-82200000D03*
X179912500Y-82200000D03*
%TD*%
D13*
%TO.C,R8*%
X178300000Y-91075000D03*
X178300000Y-92900000D03*
%TD*%
D12*
%TO.C,R13*%
X176379500Y-106172000D03*
X178204500Y-106172000D03*
%TD*%
D13*
%TO.C,R11*%
X171900000Y-94675000D03*
X171900000Y-96500000D03*
%TD*%
D14*
%TO.C,R25*%
X182800000Y-71695000D03*
X180975000Y-71695000D03*
%TD*%
D15*
%TO.C,C17*%
X163773950Y-71527000D03*
X163773950Y-69802000D03*
%TD*%
D10*
%TO.C,TP4*%
X179475000Y-111325000D03*
%TD*%
D12*
%TO.C,R21*%
X197320000Y-66840000D03*
X199145000Y-66840000D03*
%TD*%
D11*
%TO.C,C25*%
X187275000Y-61800000D03*
X189000000Y-61800000D03*
%TD*%
D16*
%TO.C,U2*%
X174969800Y-82118000D03*
X174019800Y-82118000D03*
X173069800Y-82118000D03*
X173069800Y-84818000D03*
X174969800Y-84818000D03*
%TD*%
D17*
%TO.C,U11*%
X189771400Y-81563000D03*
X189771400Y-80613000D03*
X189771400Y-79663000D03*
X187071400Y-79663000D03*
X187071400Y-81563000D03*
%TD*%
D11*
%TO.C,C20*%
X159700000Y-73378000D03*
X161425000Y-73378000D03*
%TD*%
D18*
%TO.C,C23*%
X175734500Y-79693000D03*
X174009500Y-79693000D03*
%TD*%
D19*
%TO.C,R20*%
X161100000Y-62050000D03*
X161100000Y-60225000D03*
%TD*%
%TO.C,R24*%
X167562000Y-110124000D03*
X167562000Y-108299000D03*
%TD*%
D13*
%TO.C,R18*%
X175800000Y-110975000D03*
X175800000Y-112800000D03*
%TD*%
D18*
%TO.C,C14*%
X180440500Y-103886000D03*
X178715500Y-103886000D03*
%TD*%
D20*
%TO.C,H3*%
X156000000Y-111000000D03*
%TD*%
D18*
%TO.C,C15*%
X171462500Y-107499000D03*
X169737500Y-107499000D03*
%TD*%
D17*
%TO.C,U4*%
X174000000Y-104500000D03*
X174000000Y-103550000D03*
X174000000Y-102600000D03*
X171300000Y-102600000D03*
X171300000Y-104500000D03*
%TD*%
D11*
%TO.C,C9*%
X187537500Y-88297200D03*
X189262500Y-88297200D03*
%TD*%
D10*
%TO.C,TP19*%
X177546000Y-61300000D03*
%TD*%
D12*
%TO.C,R29*%
X190925000Y-104400000D03*
X192750000Y-104400000D03*
%TD*%
D19*
%TO.C,R23*%
X191930000Y-113252500D03*
X191930000Y-111427500D03*
%TD*%
%TO.C,R7*%
X170971800Y-85213000D03*
X170971800Y-83388000D03*
%TD*%
D13*
%TO.C,R5*%
X162850000Y-79100000D03*
X162850000Y-80925000D03*
%TD*%
D10*
%TO.C,TP20*%
X182700000Y-93500000D03*
%TD*%
D20*
%TO.C,H2*%
X197000000Y-62000000D03*
%TD*%
D19*
%TO.C,R27*%
X185600000Y-88312500D03*
X185600000Y-86487500D03*
%TD*%
%TO.C,R22*%
X161500000Y-111075000D03*
X161500000Y-109250000D03*
%TD*%
D14*
%TO.C,R4*%
X179655000Y-74380000D03*
X177830000Y-74380000D03*
%TD*%
D18*
%TO.C,C6*%
X176684500Y-86968000D03*
X174959500Y-86968000D03*
%TD*%
D15*
%TO.C,C21*%
X153729750Y-71460500D03*
X153729750Y-69735500D03*
%TD*%
D10*
%TO.C,TP14*%
X184000000Y-61400000D03*
%TD*%
D15*
%TO.C,C16*%
X173762000Y-112800000D03*
X173762000Y-111075000D03*
%TD*%
D18*
%TO.C,C29*%
X186952500Y-83640000D03*
X185227500Y-83640000D03*
%TD*%
D20*
%TO.C,H1*%
X156000000Y-62000000D03*
%TD*%
D12*
%TO.C,R26*%
X189769500Y-77631000D03*
X191594500Y-77631000D03*
%TD*%
D10*
%TO.C,TP6*%
X182372000Y-77216000D03*
%TD*%
D15*
%TO.C,C28*%
X192053600Y-81796600D03*
X192053600Y-80071600D03*
%TD*%
D18*
%TO.C,C8*%
X175834500Y-90922200D03*
X174109500Y-90922200D03*
%TD*%
D21*
%TO.C,C26*%
X180175000Y-67537500D03*
X180175000Y-69262500D03*
%TD*%
D10*
%TO.C,TP11*%
X187000000Y-72900000D03*
%TD*%
D12*
%TO.C,R31*%
X190900000Y-102150000D03*
X192725000Y-102150000D03*
%TD*%
D19*
%TO.C,R17*%
X157800000Y-77225000D03*
X157800000Y-75400000D03*
%TD*%
D13*
%TO.C,R12*%
X191590900Y-88885200D03*
X191590900Y-90710200D03*
%TD*%
D21*
%TO.C,C12*%
X180086000Y-107495000D03*
X180086000Y-109220000D03*
%TD*%
D15*
%TO.C,C4*%
X175980000Y-74372500D03*
X175980000Y-72647500D03*
%TD*%
D10*
%TO.C,TP13*%
X169796000Y-61300000D03*
%TD*%
D13*
%TO.C,R19*%
X182400000Y-79637500D03*
X182400000Y-81462500D03*
%TD*%
D14*
%TO.C,R16*%
X155956000Y-67818000D03*
X154131000Y-67818000D03*
%TD*%
D10*
%TO.C,TP8*%
X167396000Y-61300000D03*
%TD*%
%TO.C,TP3*%
X176125000Y-114650000D03*
%TD*%
D11*
%TO.C,C3*%
X159475000Y-83900000D03*
X161200000Y-83900000D03*
%TD*%
%TO.C,C30*%
X182850800Y-102814200D03*
X184575800Y-102814200D03*
%TD*%
D22*
%TO.C,J2*%
X196950000Y-103505000D03*
D23*
X196950000Y-100965000D03*
X196950000Y-98425000D03*
X196950000Y-95885000D03*
%TD*%
D13*
%TO.C,R6*%
X166600000Y-83275000D03*
X166600000Y-85100000D03*
%TD*%
D10*
%TO.C,TP7*%
X188800000Y-84800000D03*
%TD*%
D21*
%TO.C,C27*%
X176500000Y-101587500D03*
X176500000Y-103312500D03*
%TD*%
D12*
%TO.C,R1*%
X155925000Y-79150000D03*
X157750000Y-79150000D03*
%TD*%
D19*
%TO.C,R3*%
X169650000Y-71575000D03*
X169650000Y-69750000D03*
%TD*%
D15*
%TO.C,C5*%
X169053800Y-85113000D03*
X169053800Y-83388000D03*
%TD*%
D21*
%TO.C,C10*%
X168800000Y-102787500D03*
X168800000Y-104512500D03*
%TD*%
D24*
%TO.C,U9*%
X182950000Y-64690000D03*
D25*
X189250000Y-66970000D03*
D24*
X182950000Y-69250000D03*
%TD*%
D13*
%TO.C,R14*%
X161239750Y-65823000D03*
X161239750Y-67648000D03*
%TD*%
D10*
%TO.C,TP10*%
X178400000Y-70800000D03*
%TD*%
D21*
%TO.C,C7*%
X169900000Y-94700000D03*
X169900000Y-96425000D03*
%TD*%
D22*
%TO.C,J3*%
X167296000Y-64300000D03*
D23*
X169836000Y-64300000D03*
X172376000Y-64300000D03*
X174916000Y-64300000D03*
X177456000Y-64300000D03*
%TD*%
D16*
%TO.C,U1*%
X173622701Y-71648808D03*
X172672701Y-71648808D03*
X171722701Y-71648808D03*
X171722701Y-74348808D03*
X173622701Y-74348808D03*
%TD*%
D17*
%TO.C,U8*%
X161235550Y-71517200D03*
X161235550Y-70567200D03*
X161235550Y-69617200D03*
X158535550Y-69617200D03*
X158535550Y-71517200D03*
%TD*%
D10*
%TO.C,TP12*%
X180000000Y-99200000D03*
%TD*%
D14*
%TO.C,R28*%
X184825000Y-98000000D03*
X183000000Y-98000000D03*
%TD*%
D10*
%TO.C,TP1*%
X157825000Y-81125000D03*
%TD*%
D16*
%TO.C,U7*%
X171462000Y-110099000D03*
X170512000Y-110099000D03*
X169562000Y-110099000D03*
X169562000Y-112799000D03*
X171462000Y-112799000D03*
%TD*%
D19*
%TO.C,R10*%
X184658400Y-81464500D03*
X184658400Y-79639500D03*
%TD*%
D10*
%TO.C,TP15*%
X183500000Y-111250000D03*
%TD*%
%TO.C,TP17*%
X155080000Y-83840000D03*
%TD*%
D16*
%TO.C,U5*%
X187610300Y-93410200D03*
X188560300Y-93410200D03*
X189510300Y-93410200D03*
X189510300Y-90710200D03*
X188560300Y-90710200D03*
X187610300Y-90710200D03*
%TD*%
D26*
%TO.C,U6*%
X183003200Y-105108200D03*
X183003200Y-105608200D03*
X183003200Y-106108200D03*
X183003200Y-106608200D03*
X183003200Y-107108200D03*
X187403200Y-107108200D03*
X187403200Y-106608200D03*
X187403200Y-106108200D03*
X187403200Y-105608200D03*
X187403200Y-105108200D03*
%TD*%
D10*
%TO.C,TP5*%
X177430000Y-76260000D03*
%TD*%
D18*
%TO.C,C22*%
X188600000Y-102825000D03*
X186875000Y-102825000D03*
%TD*%
D15*
%TO.C,C18*%
X165679750Y-71508000D03*
X165679750Y-69783000D03*
%TD*%
D18*
%TO.C,C24*%
X177162500Y-98475000D03*
X175437500Y-98475000D03*
%TD*%
D12*
%TO.C,R2*%
X159687500Y-77250000D03*
X161512500Y-77250000D03*
%TD*%
D20*
%TO.C,H4*%
X197000000Y-111000000D03*
%TD*%
D19*
%TO.C,R15*%
X155769750Y-71520500D03*
X155769750Y-69695500D03*
%TD*%
D18*
%TO.C,C1*%
X173962500Y-69175000D03*
X172237500Y-69175000D03*
%TD*%
D21*
%TO.C,C2*%
X164200000Y-75537500D03*
X164200000Y-77262500D03*
%TD*%
D11*
%TO.C,C19*%
X159702500Y-75438000D03*
X161427500Y-75438000D03*
%TD*%
D10*
%TO.C,TP2*%
X156160000Y-73670000D03*
%TD*%
D11*
%TO.C,C11*%
X187198900Y-95663200D03*
X188923900Y-95663200D03*
%TD*%
D16*
%TO.C,U3*%
X174122000Y-95918000D03*
X175072000Y-95918000D03*
X176022000Y-95918000D03*
X176022000Y-93218000D03*
X174122000Y-93218000D03*
%TD*%
D27*
%TO.C,C13*%
X182850800Y-100477400D03*
X184925800Y-100477400D03*
%TD*%
D12*
%TO.C,R30*%
X190975000Y-106650000D03*
X192800000Y-106650000D03*
%TD*%
D28*
%TO.C,U10*%
X161327000Y-87303000D03*
D29*
X163327000Y-87303000D03*
D30*
X166327000Y-99303000D03*
D29*
X168327000Y-99303000D03*
%TD*%
M02*
